<?xml version="1.0" encoding="utf-8" standalone="no"?>
<!DOCTYPE svg PUBLIC "-//W3C//DTD SVG 1.1//EN"
  "http://www.w3.org/Graphics/SVG/1.1/DTD/svg11.dtd">
<!-- Created with matplotlib (https://matplotlib.org/) -->
<svg height="432.614937pt" version="1.1" viewBox="0 0 502.65 432.614937" width="502.65pt" xmlns="http://www.w3.org/2000/svg" xmlns:xlink="http://www.w3.org/1999/xlink">
 <metadata>
  <rdf:RDF xmlns:cc="http://creativecommons.org/ns#" xmlns:dc="http://purl.org/dc/elements/1.1/" xmlns:rdf="http://www.w3.org/1999/02/22-rdf-syntax-ns#">
   <cc:Work>
    <dc:type rdf:resource="http://purl.org/dc/dcmitype/StillImage"/>
    <dc:date>2022-06-16T22:39:30.934144</dc:date>
    <dc:format>image/svg+xml</dc:format>
    <dc:creator>
     <cc:Agent>
      <dc:title>Matplotlib v3.3.3, https://matplotlib.org/</dc:title>
     </cc:Agent>
    </dc:creator>
   </cc:Work>
  </rdf:RDF>
 </metadata>
 <defs>
  <style type="text/css">*{stroke-linecap:butt;stroke-linejoin:round;}</style>
 </defs>
 <g id="figure_1">
  <g id="patch_1">
   <path d="M 0 432.614937 
L 502.65 432.614937 
L 502.65 0 
L 0 0 
z
" style="fill:#ffffff;"/>
  </g>
  <g id="axes_1">
   <g id="patch_2">
    <path d="M 104.85 389.251812 
L 495.45 389.251812 
L 495.45 112.051812 
L 104.85 112.051812 
z
" style="fill:#ffffff;"/>
   </g>
   <g id="patch_3">
    <path clip-path="url(#p1903202cb4)" d="M 297.446262 389.251812 
L 297.446262 112.051812 
L 243.371504 112.051812 
L 243.371504 389.251812 
z
" style="fill:#d3d3d3;opacity:0.5;"/>
   </g>
   <g id="matplotlib.axis_1">
    <g id="xtick_1">
     <g id="line2d_1">
      <defs>
       <path d="M 0 0 
L 0 3.5 
" id="m475d02221c" style="stroke:#000000;stroke-width:0.8;"/>
      </defs>
      <g>
       <use style="stroke:#000000;stroke-width:0.8;" x="117.19707" xlink:href="#m475d02221c" y="389.251812"/>
      </g>
     </g>
     <g id="text_1">
      <!-- 0 -->
      <g transform="translate(113.061445 406.129781)scale(0.13 -0.13)">
       <defs>
        <path d="M 31.78125 66.40625 
Q 24.171875 66.40625 20.328125 58.90625 
Q 16.5 51.421875 16.5 36.375 
Q 16.5 21.390625 20.328125 13.890625 
Q 24.171875 6.390625 31.78125 6.390625 
Q 39.453125 6.390625 43.28125 13.890625 
Q 47.125 21.390625 47.125 36.375 
Q 47.125 51.421875 43.28125 58.90625 
Q 39.453125 66.40625 31.78125 66.40625 
z
M 31.78125 74.21875 
Q 44.046875 74.21875 50.515625 64.515625 
Q 56.984375 54.828125 56.984375 36.375 
Q 56.984375 17.96875 50.515625 8.265625 
Q 44.046875 -1.421875 31.78125 -1.421875 
Q 19.53125 -1.421875 13.0625 8.265625 
Q 6.59375 17.96875 6.59375 36.375 
Q 6.59375 54.828125 13.0625 64.515625 
Q 19.53125 74.21875 31.78125 74.21875 
z
" id="DejaVuSans-48"/>
       </defs>
       <use xlink:href="#DejaVuSans-48"/>
      </g>
     </g>
    </g>
    <g id="xtick_2">
     <g id="line2d_2">
      <g>
       <use style="stroke:#000000;stroke-width:0.8;" x="162.259368" xlink:href="#m475d02221c" y="389.251812"/>
      </g>
     </g>
     <g id="text_2">
      <!-- 25 -->
      <g transform="translate(153.988118 406.129781)scale(0.13 -0.13)">
       <defs>
        <path d="M 19.1875 8.296875 
L 53.609375 8.296875 
L 53.609375 0 
L 7.328125 0 
L 7.328125 8.296875 
Q 12.9375 14.109375 22.625 23.890625 
Q 32.328125 33.6875 34.8125 36.53125 
Q 39.546875 41.84375 41.421875 45.53125 
Q 43.3125 49.21875 43.3125 52.78125 
Q 43.3125 58.59375 39.234375 62.25 
Q 35.15625 65.921875 28.609375 65.921875 
Q 23.96875 65.921875 18.8125 64.3125 
Q 13.671875 62.703125 7.8125 59.421875 
L 7.8125 69.390625 
Q 13.765625 71.78125 18.9375 73 
Q 24.125 74.21875 28.421875 74.21875 
Q 39.75 74.21875 46.484375 68.546875 
Q 53.21875 62.890625 53.21875 53.421875 
Q 53.21875 48.921875 51.53125 44.890625 
Q 49.859375 40.875 45.40625 35.40625 
Q 44.1875 33.984375 37.640625 27.21875 
Q 31.109375 20.453125 19.1875 8.296875 
z
" id="DejaVuSans-50"/>
        <path d="M 10.796875 72.90625 
L 49.515625 72.90625 
L 49.515625 64.59375 
L 19.828125 64.59375 
L 19.828125 46.734375 
Q 21.96875 47.46875 24.109375 47.828125 
Q 26.265625 48.1875 28.421875 48.1875 
Q 40.625 48.1875 47.75 41.5 
Q 54.890625 34.8125 54.890625 23.390625 
Q 54.890625 11.625 47.5625 5.09375 
Q 40.234375 -1.421875 26.90625 -1.421875 
Q 22.3125 -1.421875 17.546875 -0.640625 
Q 12.796875 0.140625 7.71875 1.703125 
L 7.71875 11.625 
Q 12.109375 9.234375 16.796875 8.0625 
Q 21.484375 6.890625 26.703125 6.890625 
Q 35.15625 6.890625 40.078125 11.328125 
Q 45.015625 15.765625 45.015625 23.390625 
Q 45.015625 31 40.078125 35.4375 
Q 35.15625 39.890625 26.703125 39.890625 
Q 22.75 39.890625 18.8125 39.015625 
Q 14.890625 38.140625 10.796875 36.28125 
z
" id="DejaVuSans-53"/>
       </defs>
       <use xlink:href="#DejaVuSans-50"/>
       <use x="63.623047" xlink:href="#DejaVuSans-53"/>
      </g>
     </g>
    </g>
    <g id="xtick_3">
     <g id="line2d_3">
      <g>
       <use style="stroke:#000000;stroke-width:0.8;" x="207.321666" xlink:href="#m475d02221c" y="389.251812"/>
      </g>
     </g>
     <g id="text_3">
      <!-- 50 -->
      <g transform="translate(199.050416 406.129781)scale(0.13 -0.13)">
       <use xlink:href="#DejaVuSans-53"/>
       <use x="63.623047" xlink:href="#DejaVuSans-48"/>
      </g>
     </g>
    </g>
    <g id="xtick_4">
     <g id="line2d_4">
      <g>
       <use style="stroke:#000000;stroke-width:0.8;" x="252.383964" xlink:href="#m475d02221c" y="389.251812"/>
      </g>
     </g>
     <g id="text_4">
      <!-- 75 -->
      <g transform="translate(244.112714 406.129781)scale(0.13 -0.13)">
       <defs>
        <path d="M 8.203125 72.90625 
L 55.078125 72.90625 
L 55.078125 68.703125 
L 28.609375 0 
L 18.3125 0 
L 43.21875 64.59375 
L 8.203125 64.59375 
z
" id="DejaVuSans-55"/>
       </defs>
       <use xlink:href="#DejaVuSans-55"/>
       <use x="63.623047" xlink:href="#DejaVuSans-53"/>
      </g>
     </g>
    </g>
    <g id="xtick_5">
     <g id="line2d_5">
      <g>
       <use style="stroke:#000000;stroke-width:0.8;" x="297.446262" xlink:href="#m475d02221c" y="389.251812"/>
      </g>
     </g>
     <g id="text_5">
      <!-- 100 -->
      <g transform="translate(285.039387 406.129781)scale(0.13 -0.13)">
       <defs>
        <path d="M 12.40625 8.296875 
L 28.515625 8.296875 
L 28.515625 63.921875 
L 10.984375 60.40625 
L 10.984375 69.390625 
L 28.421875 72.90625 
L 38.28125 72.90625 
L 38.28125 8.296875 
L 54.390625 8.296875 
L 54.390625 0 
L 12.40625 0 
z
" id="DejaVuSans-49"/>
       </defs>
       <use xlink:href="#DejaVuSans-49"/>
       <use x="63.623047" xlink:href="#DejaVuSans-48"/>
       <use x="127.246094" xlink:href="#DejaVuSans-48"/>
      </g>
     </g>
    </g>
    <g id="xtick_6">
     <g id="line2d_6">
      <g>
       <use style="stroke:#000000;stroke-width:0.8;" x="342.50856" xlink:href="#m475d02221c" y="389.251812"/>
      </g>
     </g>
     <g id="text_6">
      <!-- 125 -->
      <g transform="translate(330.101685 406.129781)scale(0.13 -0.13)">
       <use xlink:href="#DejaVuSans-49"/>
       <use x="63.623047" xlink:href="#DejaVuSans-50"/>
       <use x="127.246094" xlink:href="#DejaVuSans-53"/>
      </g>
     </g>
    </g>
    <g id="xtick_7">
     <g id="line2d_7">
      <g>
       <use style="stroke:#000000;stroke-width:0.8;" x="387.570858" xlink:href="#m475d02221c" y="389.251812"/>
      </g>
     </g>
     <g id="text_7">
      <!-- 150 -->
      <g transform="translate(375.163983 406.129781)scale(0.13 -0.13)">
       <use xlink:href="#DejaVuSans-49"/>
       <use x="63.623047" xlink:href="#DejaVuSans-53"/>
       <use x="127.246094" xlink:href="#DejaVuSans-48"/>
      </g>
     </g>
    </g>
    <g id="xtick_8">
     <g id="line2d_8">
      <g>
       <use style="stroke:#000000;stroke-width:0.8;" x="432.633156" xlink:href="#m475d02221c" y="389.251812"/>
      </g>
     </g>
     <g id="text_8">
      <!-- 175 -->
      <g transform="translate(420.226281 406.129781)scale(0.13 -0.13)">
       <use xlink:href="#DejaVuSans-49"/>
       <use x="63.623047" xlink:href="#DejaVuSans-55"/>
       <use x="127.246094" xlink:href="#DejaVuSans-53"/>
      </g>
     </g>
    </g>
    <g id="xtick_9">
     <g id="line2d_9">
      <g>
       <use style="stroke:#000000;stroke-width:0.8;" x="477.695455" xlink:href="#m475d02221c" y="389.251812"/>
      </g>
     </g>
     <g id="text_9">
      <!-- 200 -->
      <g transform="translate(465.28858 406.129781)scale(0.13 -0.13)">
       <use xlink:href="#DejaVuSans-50"/>
       <use x="63.623047" xlink:href="#DejaVuSans-48"/>
       <use x="127.246094" xlink:href="#DejaVuSans-48"/>
      </g>
     </g>
    </g>
    <g id="text_10">
     <!-- Number of processed instances [x1000] -->
     <g transform="translate(170.025078 422.711344)scale(0.13 -0.13)">
      <defs>
       <path d="M 9.8125 72.90625 
L 23.09375 72.90625 
L 55.421875 11.921875 
L 55.421875 72.90625 
L 64.984375 72.90625 
L 64.984375 0 
L 51.703125 0 
L 19.390625 60.984375 
L 19.390625 0 
L 9.8125 0 
z
" id="DejaVuSans-78"/>
       <path d="M 8.5 21.578125 
L 8.5 54.6875 
L 17.484375 54.6875 
L 17.484375 21.921875 
Q 17.484375 14.15625 20.5 10.265625 
Q 23.53125 6.390625 29.59375 6.390625 
Q 36.859375 6.390625 41.078125 11.03125 
Q 45.3125 15.671875 45.3125 23.6875 
L 45.3125 54.6875 
L 54.296875 54.6875 
L 54.296875 0 
L 45.3125 0 
L 45.3125 8.40625 
Q 42.046875 3.421875 37.71875 1 
Q 33.40625 -1.421875 27.6875 -1.421875 
Q 18.265625 -1.421875 13.375 4.4375 
Q 8.5 10.296875 8.5 21.578125 
z
M 31.109375 56 
z
" id="DejaVuSans-117"/>
       <path d="M 52 44.1875 
Q 55.375 50.25 60.0625 53.125 
Q 64.75 56 71.09375 56 
Q 79.640625 56 84.28125 50.015625 
Q 88.921875 44.046875 88.921875 33.015625 
L 88.921875 0 
L 79.890625 0 
L 79.890625 32.71875 
Q 79.890625 40.578125 77.09375 44.375 
Q 74.3125 48.1875 68.609375 48.1875 
Q 61.625 48.1875 57.5625 43.546875 
Q 53.515625 38.921875 53.515625 30.90625 
L 53.515625 0 
L 44.484375 0 
L 44.484375 32.71875 
Q 44.484375 40.625 41.703125 44.40625 
Q 38.921875 48.1875 33.109375 48.1875 
Q 26.21875 48.1875 22.15625 43.53125 
Q 18.109375 38.875 18.109375 30.90625 
L 18.109375 0 
L 9.078125 0 
L 9.078125 54.6875 
L 18.109375 54.6875 
L 18.109375 46.1875 
Q 21.1875 51.21875 25.484375 53.609375 
Q 29.78125 56 35.6875 56 
Q 41.65625 56 45.828125 52.96875 
Q 50 49.953125 52 44.1875 
z
" id="DejaVuSans-109"/>
       <path d="M 48.6875 27.296875 
Q 48.6875 37.203125 44.609375 42.84375 
Q 40.53125 48.484375 33.40625 48.484375 
Q 26.265625 48.484375 22.1875 42.84375 
Q 18.109375 37.203125 18.109375 27.296875 
Q 18.109375 17.390625 22.1875 11.75 
Q 26.265625 6.109375 33.40625 6.109375 
Q 40.53125 6.109375 44.609375 11.75 
Q 48.6875 17.390625 48.6875 27.296875 
z
M 18.109375 46.390625 
Q 20.953125 51.265625 25.265625 53.625 
Q 29.59375 56 35.59375 56 
Q 45.5625 56 51.78125 48.09375 
Q 58.015625 40.1875 58.015625 27.296875 
Q 58.015625 14.40625 51.78125 6.484375 
Q 45.5625 -1.421875 35.59375 -1.421875 
Q 29.59375 -1.421875 25.265625 0.953125 
Q 20.953125 3.328125 18.109375 8.203125 
L 18.109375 0 
L 9.078125 0 
L 9.078125 75.984375 
L 18.109375 75.984375 
z
" id="DejaVuSans-98"/>
       <path d="M 56.203125 29.59375 
L 56.203125 25.203125 
L 14.890625 25.203125 
Q 15.484375 15.921875 20.484375 11.0625 
Q 25.484375 6.203125 34.421875 6.203125 
Q 39.59375 6.203125 44.453125 7.46875 
Q 49.3125 8.734375 54.109375 11.28125 
L 54.109375 2.78125 
Q 49.265625 0.734375 44.1875 -0.34375 
Q 39.109375 -1.421875 33.890625 -1.421875 
Q 20.796875 -1.421875 13.15625 6.1875 
Q 5.515625 13.8125 5.515625 26.8125 
Q 5.515625 40.234375 12.765625 48.109375 
Q 20.015625 56 32.328125 56 
Q 43.359375 56 49.78125 48.890625 
Q 56.203125 41.796875 56.203125 29.59375 
z
M 47.21875 32.234375 
Q 47.125 39.59375 43.09375 43.984375 
Q 39.0625 48.390625 32.421875 48.390625 
Q 24.90625 48.390625 20.390625 44.140625 
Q 15.875 39.890625 15.1875 32.171875 
z
" id="DejaVuSans-101"/>
       <path d="M 41.109375 46.296875 
Q 39.59375 47.171875 37.8125 47.578125 
Q 36.03125 48 33.890625 48 
Q 26.265625 48 22.1875 43.046875 
Q 18.109375 38.09375 18.109375 28.8125 
L 18.109375 0 
L 9.078125 0 
L 9.078125 54.6875 
L 18.109375 54.6875 
L 18.109375 46.1875 
Q 20.953125 51.171875 25.484375 53.578125 
Q 30.03125 56 36.53125 56 
Q 37.453125 56 38.578125 55.875 
Q 39.703125 55.765625 41.0625 55.515625 
z
" id="DejaVuSans-114"/>
       <path id="DejaVuSans-32"/>
       <path d="M 30.609375 48.390625 
Q 23.390625 48.390625 19.1875 42.75 
Q 14.984375 37.109375 14.984375 27.296875 
Q 14.984375 17.484375 19.15625 11.84375 
Q 23.34375 6.203125 30.609375 6.203125 
Q 37.796875 6.203125 41.984375 11.859375 
Q 46.1875 17.53125 46.1875 27.296875 
Q 46.1875 37.015625 41.984375 42.703125 
Q 37.796875 48.390625 30.609375 48.390625 
z
M 30.609375 56 
Q 42.328125 56 49.015625 48.375 
Q 55.71875 40.765625 55.71875 27.296875 
Q 55.71875 13.875 49.015625 6.21875 
Q 42.328125 -1.421875 30.609375 -1.421875 
Q 18.84375 -1.421875 12.171875 6.21875 
Q 5.515625 13.875 5.515625 27.296875 
Q 5.515625 40.765625 12.171875 48.375 
Q 18.84375 56 30.609375 56 
z
" id="DejaVuSans-111"/>
       <path d="M 37.109375 75.984375 
L 37.109375 68.5 
L 28.515625 68.5 
Q 23.6875 68.5 21.796875 66.546875 
Q 19.921875 64.59375 19.921875 59.515625 
L 19.921875 54.6875 
L 34.71875 54.6875 
L 34.71875 47.703125 
L 19.921875 47.703125 
L 19.921875 0 
L 10.890625 0 
L 10.890625 47.703125 
L 2.296875 47.703125 
L 2.296875 54.6875 
L 10.890625 54.6875 
L 10.890625 58.5 
Q 10.890625 67.625 15.140625 71.796875 
Q 19.390625 75.984375 28.609375 75.984375 
z
" id="DejaVuSans-102"/>
       <path d="M 18.109375 8.203125 
L 18.109375 -20.796875 
L 9.078125 -20.796875 
L 9.078125 54.6875 
L 18.109375 54.6875 
L 18.109375 46.390625 
Q 20.953125 51.265625 25.265625 53.625 
Q 29.59375 56 35.59375 56 
Q 45.5625 56 51.78125 48.09375 
Q 58.015625 40.1875 58.015625 27.296875 
Q 58.015625 14.40625 51.78125 6.484375 
Q 45.5625 -1.421875 35.59375 -1.421875 
Q 29.59375 -1.421875 25.265625 0.953125 
Q 20.953125 3.328125 18.109375 8.203125 
z
M 48.6875 27.296875 
Q 48.6875 37.203125 44.609375 42.84375 
Q 40.53125 48.484375 33.40625 48.484375 
Q 26.265625 48.484375 22.1875 42.84375 
Q 18.109375 37.203125 18.109375 27.296875 
Q 18.109375 17.390625 22.1875 11.75 
Q 26.265625 6.109375 33.40625 6.109375 
Q 40.53125 6.109375 44.609375 11.75 
Q 48.6875 17.390625 48.6875 27.296875 
z
" id="DejaVuSans-112"/>
       <path d="M 48.78125 52.59375 
L 48.78125 44.1875 
Q 44.96875 46.296875 41.140625 47.34375 
Q 37.3125 48.390625 33.40625 48.390625 
Q 24.65625 48.390625 19.8125 42.84375 
Q 14.984375 37.3125 14.984375 27.296875 
Q 14.984375 17.28125 19.8125 11.734375 
Q 24.65625 6.203125 33.40625 6.203125 
Q 37.3125 6.203125 41.140625 7.25 
Q 44.96875 8.296875 48.78125 10.40625 
L 48.78125 2.09375 
Q 45.015625 0.34375 40.984375 -0.53125 
Q 36.96875 -1.421875 32.421875 -1.421875 
Q 20.0625 -1.421875 12.78125 6.34375 
Q 5.515625 14.109375 5.515625 27.296875 
Q 5.515625 40.671875 12.859375 48.328125 
Q 20.21875 56 33.015625 56 
Q 37.15625 56 41.109375 55.140625 
Q 45.0625 54.296875 48.78125 52.59375 
z
" id="DejaVuSans-99"/>
       <path d="M 44.28125 53.078125 
L 44.28125 44.578125 
Q 40.484375 46.53125 36.375 47.5 
Q 32.28125 48.484375 27.875 48.484375 
Q 21.1875 48.484375 17.84375 46.4375 
Q 14.5 44.390625 14.5 40.28125 
Q 14.5 37.15625 16.890625 35.375 
Q 19.28125 33.59375 26.515625 31.984375 
L 29.59375 31.296875 
Q 39.15625 29.25 43.1875 25.515625 
Q 47.21875 21.78125 47.21875 15.09375 
Q 47.21875 7.46875 41.1875 3.015625 
Q 35.15625 -1.421875 24.609375 -1.421875 
Q 20.21875 -1.421875 15.453125 -0.5625 
Q 10.6875 0.296875 5.421875 2 
L 5.421875 11.28125 
Q 10.40625 8.6875 15.234375 7.390625 
Q 20.0625 6.109375 24.8125 6.109375 
Q 31.15625 6.109375 34.5625 8.28125 
Q 37.984375 10.453125 37.984375 14.40625 
Q 37.984375 18.0625 35.515625 20.015625 
Q 33.0625 21.96875 24.703125 23.78125 
L 21.578125 24.515625 
Q 13.234375 26.265625 9.515625 29.90625 
Q 5.8125 33.546875 5.8125 39.890625 
Q 5.8125 47.609375 11.28125 51.796875 
Q 16.75 56 26.8125 56 
Q 31.78125 56 36.171875 55.265625 
Q 40.578125 54.546875 44.28125 53.078125 
z
" id="DejaVuSans-115"/>
       <path d="M 45.40625 46.390625 
L 45.40625 75.984375 
L 54.390625 75.984375 
L 54.390625 0 
L 45.40625 0 
L 45.40625 8.203125 
Q 42.578125 3.328125 38.25 0.953125 
Q 33.9375 -1.421875 27.875 -1.421875 
Q 17.96875 -1.421875 11.734375 6.484375 
Q 5.515625 14.40625 5.515625 27.296875 
Q 5.515625 40.1875 11.734375 48.09375 
Q 17.96875 56 27.875 56 
Q 33.9375 56 38.25 53.625 
Q 42.578125 51.265625 45.40625 46.390625 
z
M 14.796875 27.296875 
Q 14.796875 17.390625 18.875 11.75 
Q 22.953125 6.109375 30.078125 6.109375 
Q 37.203125 6.109375 41.296875 11.75 
Q 45.40625 17.390625 45.40625 27.296875 
Q 45.40625 37.203125 41.296875 42.84375 
Q 37.203125 48.484375 30.078125 48.484375 
Q 22.953125 48.484375 18.875 42.84375 
Q 14.796875 37.203125 14.796875 27.296875 
z
" id="DejaVuSans-100"/>
       <path d="M 9.421875 54.6875 
L 18.40625 54.6875 
L 18.40625 0 
L 9.421875 0 
z
M 9.421875 75.984375 
L 18.40625 75.984375 
L 18.40625 64.59375 
L 9.421875 64.59375 
z
" id="DejaVuSans-105"/>
       <path d="M 54.890625 33.015625 
L 54.890625 0 
L 45.90625 0 
L 45.90625 32.71875 
Q 45.90625 40.484375 42.875 44.328125 
Q 39.84375 48.1875 33.796875 48.1875 
Q 26.515625 48.1875 22.3125 43.546875 
Q 18.109375 38.921875 18.109375 30.90625 
L 18.109375 0 
L 9.078125 0 
L 9.078125 54.6875 
L 18.109375 54.6875 
L 18.109375 46.1875 
Q 21.34375 51.125 25.703125 53.5625 
Q 30.078125 56 35.796875 56 
Q 45.21875 56 50.046875 50.171875 
Q 54.890625 44.34375 54.890625 33.015625 
z
" id="DejaVuSans-110"/>
       <path d="M 18.3125 70.21875 
L 18.3125 54.6875 
L 36.8125 54.6875 
L 36.8125 47.703125 
L 18.3125 47.703125 
L 18.3125 18.015625 
Q 18.3125 11.328125 20.140625 9.421875 
Q 21.96875 7.515625 27.59375 7.515625 
L 36.8125 7.515625 
L 36.8125 0 
L 27.59375 0 
Q 17.1875 0 13.234375 3.875 
Q 9.28125 7.765625 9.28125 18.015625 
L 9.28125 47.703125 
L 2.6875 47.703125 
L 2.6875 54.6875 
L 9.28125 54.6875 
L 9.28125 70.21875 
z
" id="DejaVuSans-116"/>
       <path d="M 34.28125 27.484375 
Q 23.390625 27.484375 19.1875 25 
Q 14.984375 22.515625 14.984375 16.5 
Q 14.984375 11.71875 18.140625 8.90625 
Q 21.296875 6.109375 26.703125 6.109375 
Q 34.1875 6.109375 38.703125 11.40625 
Q 43.21875 16.703125 43.21875 25.484375 
L 43.21875 27.484375 
z
M 52.203125 31.203125 
L 52.203125 0 
L 43.21875 0 
L 43.21875 8.296875 
Q 40.140625 3.328125 35.546875 0.953125 
Q 30.953125 -1.421875 24.3125 -1.421875 
Q 15.921875 -1.421875 10.953125 3.296875 
Q 6 8.015625 6 15.921875 
Q 6 25.140625 12.171875 29.828125 
Q 18.359375 34.515625 30.609375 34.515625 
L 43.21875 34.515625 
L 43.21875 35.40625 
Q 43.21875 41.609375 39.140625 45 
Q 35.0625 48.390625 27.6875 48.390625 
Q 23 48.390625 18.546875 47.265625 
Q 14.109375 46.140625 10.015625 43.890625 
L 10.015625 52.203125 
Q 14.9375 54.109375 19.578125 55.046875 
Q 24.21875 56 28.609375 56 
Q 40.484375 56 46.34375 49.84375 
Q 52.203125 43.703125 52.203125 31.203125 
z
" id="DejaVuSans-97"/>
       <path d="M 8.59375 75.984375 
L 29.296875 75.984375 
L 29.296875 69 
L 17.578125 69 
L 17.578125 -6.203125 
L 29.296875 -6.203125 
L 29.296875 -13.1875 
L 8.59375 -13.1875 
z
" id="DejaVuSans-91"/>
       <path d="M 54.890625 54.6875 
L 35.109375 28.078125 
L 55.90625 0 
L 45.3125 0 
L 29.390625 21.484375 
L 13.484375 0 
L 2.875 0 
L 24.125 28.609375 
L 4.6875 54.6875 
L 15.28125 54.6875 
L 29.78125 35.203125 
L 44.28125 54.6875 
z
" id="DejaVuSans-120"/>
       <path d="M 30.421875 75.984375 
L 30.421875 -13.1875 
L 9.71875 -13.1875 
L 9.71875 -6.203125 
L 21.390625 -6.203125 
L 21.390625 69 
L 9.71875 69 
L 9.71875 75.984375 
z
" id="DejaVuSans-93"/>
      </defs>
      <use xlink:href="#DejaVuSans-78"/>
      <use x="74.804688" xlink:href="#DejaVuSans-117"/>
      <use x="138.183594" xlink:href="#DejaVuSans-109"/>
      <use x="235.595703" xlink:href="#DejaVuSans-98"/>
      <use x="299.072266" xlink:href="#DejaVuSans-101"/>
      <use x="360.595703" xlink:href="#DejaVuSans-114"/>
      <use x="401.708984" xlink:href="#DejaVuSans-32"/>
      <use x="433.496094" xlink:href="#DejaVuSans-111"/>
      <use x="494.677734" xlink:href="#DejaVuSans-102"/>
      <use x="529.882812" xlink:href="#DejaVuSans-32"/>
      <use x="561.669922" xlink:href="#DejaVuSans-112"/>
      <use x="625.146484" xlink:href="#DejaVuSans-114"/>
      <use x="664.009766" xlink:href="#DejaVuSans-111"/>
      <use x="725.191406" xlink:href="#DejaVuSans-99"/>
      <use x="780.171875" xlink:href="#DejaVuSans-101"/>
      <use x="841.695312" xlink:href="#DejaVuSans-115"/>
      <use x="893.794922" xlink:href="#DejaVuSans-115"/>
      <use x="945.894531" xlink:href="#DejaVuSans-101"/>
      <use x="1007.417969" xlink:href="#DejaVuSans-100"/>
      <use x="1070.894531" xlink:href="#DejaVuSans-32"/>
      <use x="1102.681641" xlink:href="#DejaVuSans-105"/>
      <use x="1130.464844" xlink:href="#DejaVuSans-110"/>
      <use x="1193.84375" xlink:href="#DejaVuSans-115"/>
      <use x="1245.943359" xlink:href="#DejaVuSans-116"/>
      <use x="1285.152344" xlink:href="#DejaVuSans-97"/>
      <use x="1346.431641" xlink:href="#DejaVuSans-110"/>
      <use x="1409.810547" xlink:href="#DejaVuSans-99"/>
      <use x="1464.791016" xlink:href="#DejaVuSans-101"/>
      <use x="1526.314453" xlink:href="#DejaVuSans-115"/>
      <use x="1578.414062" xlink:href="#DejaVuSans-32"/>
      <use x="1610.201172" xlink:href="#DejaVuSans-91"/>
      <use x="1649.214844" xlink:href="#DejaVuSans-120"/>
      <use x="1708.394531" xlink:href="#DejaVuSans-49"/>
      <use x="1772.017578" xlink:href="#DejaVuSans-48"/>
      <use x="1835.640625" xlink:href="#DejaVuSans-48"/>
      <use x="1899.263672" xlink:href="#DejaVuSans-48"/>
      <use x="1962.886719" xlink:href="#DejaVuSans-93"/>
     </g>
    </g>
   </g>
   <g id="matplotlib.axis_2">
    <g id="ytick_1">
     <g id="line2d_10">
      <defs>
       <path d="M 0 0 
L -3.5 0 
" id="m7c58a813c3" style="stroke:#000000;stroke-width:0.8;"/>
      </defs>
      <g>
       <use style="stroke:#000000;stroke-width:0.8;" x="104.85" xlink:href="#m7c58a813c3" y="369.847809"/>
      </g>
     </g>
     <g id="text_11">
      <!-- 0.92 -->
      <g transform="translate(68.904687 374.786794)scale(0.13 -0.13)">
       <defs>
        <path d="M 10.6875 12.40625 
L 21 12.40625 
L 21 0 
L 10.6875 0 
z
" id="DejaVuSans-46"/>
        <path d="M 10.984375 1.515625 
L 10.984375 10.5 
Q 14.703125 8.734375 18.5 7.8125 
Q 22.3125 6.890625 25.984375 6.890625 
Q 35.75 6.890625 40.890625 13.453125 
Q 46.046875 20.015625 46.78125 33.40625 
Q 43.953125 29.203125 39.59375 26.953125 
Q 35.25 24.703125 29.984375 24.703125 
Q 19.046875 24.703125 12.671875 31.3125 
Q 6.296875 37.9375 6.296875 49.421875 
Q 6.296875 60.640625 12.9375 67.421875 
Q 19.578125 74.21875 30.609375 74.21875 
Q 43.265625 74.21875 49.921875 64.515625 
Q 56.59375 54.828125 56.59375 36.375 
Q 56.59375 19.140625 48.40625 8.859375 
Q 40.234375 -1.421875 26.421875 -1.421875 
Q 22.703125 -1.421875 18.890625 -0.6875 
Q 15.09375 0.046875 10.984375 1.515625 
z
M 30.609375 32.421875 
Q 37.25 32.421875 41.125 36.953125 
Q 45.015625 41.5 45.015625 49.421875 
Q 45.015625 57.28125 41.125 61.84375 
Q 37.25 66.40625 30.609375 66.40625 
Q 23.96875 66.40625 20.09375 61.84375 
Q 16.21875 57.28125 16.21875 49.421875 
Q 16.21875 41.5 20.09375 36.953125 
Q 23.96875 32.421875 30.609375 32.421875 
z
" id="DejaVuSans-57"/>
       </defs>
       <use xlink:href="#DejaVuSans-48"/>
       <use x="63.623047" xlink:href="#DejaVuSans-46"/>
       <use x="95.410156" xlink:href="#DejaVuSans-57"/>
       <use x="159.033203" xlink:href="#DejaVuSans-50"/>
      </g>
     </g>
    </g>
    <g id="ytick_2">
     <g id="line2d_11">
      <g>
       <use style="stroke:#000000;stroke-width:0.8;" x="104.85" xlink:href="#m7c58a813c3" y="337.115463"/>
      </g>
     </g>
     <g id="text_12">
      <!-- 0.93 -->
      <g transform="translate(68.904687 342.054447)scale(0.13 -0.13)">
       <defs>
        <path d="M 40.578125 39.3125 
Q 47.65625 37.796875 51.625 33 
Q 55.609375 28.21875 55.609375 21.1875 
Q 55.609375 10.40625 48.1875 4.484375 
Q 40.765625 -1.421875 27.09375 -1.421875 
Q 22.515625 -1.421875 17.65625 -0.515625 
Q 12.796875 0.390625 7.625 2.203125 
L 7.625 11.71875 
Q 11.71875 9.328125 16.59375 8.109375 
Q 21.484375 6.890625 26.8125 6.890625 
Q 36.078125 6.890625 40.9375 10.546875 
Q 45.796875 14.203125 45.796875 21.1875 
Q 45.796875 27.640625 41.28125 31.265625 
Q 36.765625 34.90625 28.71875 34.90625 
L 20.21875 34.90625 
L 20.21875 43.015625 
L 29.109375 43.015625 
Q 36.375 43.015625 40.234375 45.921875 
Q 44.09375 48.828125 44.09375 54.296875 
Q 44.09375 59.90625 40.109375 62.90625 
Q 36.140625 65.921875 28.71875 65.921875 
Q 24.65625 65.921875 20.015625 65.03125 
Q 15.375 64.15625 9.8125 62.3125 
L 9.8125 71.09375 
Q 15.4375 72.65625 20.34375 73.4375 
Q 25.25 74.21875 29.59375 74.21875 
Q 40.828125 74.21875 47.359375 69.109375 
Q 53.90625 64.015625 53.90625 55.328125 
Q 53.90625 49.265625 50.4375 45.09375 
Q 46.96875 40.921875 40.578125 39.3125 
z
" id="DejaVuSans-51"/>
       </defs>
       <use xlink:href="#DejaVuSans-48"/>
       <use x="63.623047" xlink:href="#DejaVuSans-46"/>
       <use x="95.410156" xlink:href="#DejaVuSans-57"/>
       <use x="159.033203" xlink:href="#DejaVuSans-51"/>
      </g>
     </g>
    </g>
    <g id="ytick_3">
     <g id="line2d_12">
      <g>
       <use style="stroke:#000000;stroke-width:0.8;" x="104.85" xlink:href="#m7c58a813c3" y="304.383116"/>
      </g>
     </g>
     <g id="text_13">
      <!-- 0.94 -->
      <g transform="translate(68.904687 309.322101)scale(0.13 -0.13)">
       <defs>
        <path d="M 37.796875 64.3125 
L 12.890625 25.390625 
L 37.796875 25.390625 
z
M 35.203125 72.90625 
L 47.609375 72.90625 
L 47.609375 25.390625 
L 58.015625 25.390625 
L 58.015625 17.1875 
L 47.609375 17.1875 
L 47.609375 0 
L 37.796875 0 
L 37.796875 17.1875 
L 4.890625 17.1875 
L 4.890625 26.703125 
z
" id="DejaVuSans-52"/>
       </defs>
       <use xlink:href="#DejaVuSans-48"/>
       <use x="63.623047" xlink:href="#DejaVuSans-46"/>
       <use x="95.410156" xlink:href="#DejaVuSans-57"/>
       <use x="159.033203" xlink:href="#DejaVuSans-52"/>
      </g>
     </g>
    </g>
    <g id="ytick_4">
     <g id="line2d_13">
      <g>
       <use style="stroke:#000000;stroke-width:0.8;" x="104.85" xlink:href="#m7c58a813c3" y="271.65077"/>
      </g>
     </g>
     <g id="text_14">
      <!-- 0.95 -->
      <g transform="translate(68.904687 276.589754)scale(0.13 -0.13)">
       <use xlink:href="#DejaVuSans-48"/>
       <use x="63.623047" xlink:href="#DejaVuSans-46"/>
       <use x="95.410156" xlink:href="#DejaVuSans-57"/>
       <use x="159.033203" xlink:href="#DejaVuSans-53"/>
      </g>
     </g>
    </g>
    <g id="ytick_5">
     <g id="line2d_14">
      <g>
       <use style="stroke:#000000;stroke-width:0.8;" x="104.85" xlink:href="#m7c58a813c3" y="238.918423"/>
      </g>
     </g>
     <g id="text_15">
      <!-- 0.96 -->
      <g transform="translate(68.904687 243.857408)scale(0.13 -0.13)">
       <defs>
        <path d="M 33.015625 40.375 
Q 26.375 40.375 22.484375 35.828125 
Q 18.609375 31.296875 18.609375 23.390625 
Q 18.609375 15.53125 22.484375 10.953125 
Q 26.375 6.390625 33.015625 6.390625 
Q 39.65625 6.390625 43.53125 10.953125 
Q 47.40625 15.53125 47.40625 23.390625 
Q 47.40625 31.296875 43.53125 35.828125 
Q 39.65625 40.375 33.015625 40.375 
z
M 52.59375 71.296875 
L 52.59375 62.3125 
Q 48.875 64.0625 45.09375 64.984375 
Q 41.3125 65.921875 37.59375 65.921875 
Q 27.828125 65.921875 22.671875 59.328125 
Q 17.53125 52.734375 16.796875 39.40625 
Q 19.671875 43.65625 24.015625 45.921875 
Q 28.375 48.1875 33.59375 48.1875 
Q 44.578125 48.1875 50.953125 41.515625 
Q 57.328125 34.859375 57.328125 23.390625 
Q 57.328125 12.15625 50.6875 5.359375 
Q 44.046875 -1.421875 33.015625 -1.421875 
Q 20.359375 -1.421875 13.671875 8.265625 
Q 6.984375 17.96875 6.984375 36.375 
Q 6.984375 53.65625 15.1875 63.9375 
Q 23.390625 74.21875 37.203125 74.21875 
Q 40.921875 74.21875 44.703125 73.484375 
Q 48.484375 72.75 52.59375 71.296875 
z
" id="DejaVuSans-54"/>
       </defs>
       <use xlink:href="#DejaVuSans-48"/>
       <use x="63.623047" xlink:href="#DejaVuSans-46"/>
       <use x="95.410156" xlink:href="#DejaVuSans-57"/>
       <use x="159.033203" xlink:href="#DejaVuSans-54"/>
      </g>
     </g>
    </g>
    <g id="ytick_6">
     <g id="line2d_15">
      <g>
       <use style="stroke:#000000;stroke-width:0.8;" x="104.85" xlink:href="#m7c58a813c3" y="206.186077"/>
      </g>
     </g>
     <g id="text_16">
      <!-- 0.97 -->
      <g transform="translate(68.904687 211.125061)scale(0.13 -0.13)">
       <use xlink:href="#DejaVuSans-48"/>
       <use x="63.623047" xlink:href="#DejaVuSans-46"/>
       <use x="95.410156" xlink:href="#DejaVuSans-57"/>
       <use x="159.033203" xlink:href="#DejaVuSans-55"/>
      </g>
     </g>
    </g>
    <g id="ytick_7">
     <g id="line2d_16">
      <g>
       <use style="stroke:#000000;stroke-width:0.8;" x="104.85" xlink:href="#m7c58a813c3" y="173.45373"/>
      </g>
     </g>
     <g id="text_17">
      <!-- 0.98 -->
      <g transform="translate(68.904687 178.392715)scale(0.13 -0.13)">
       <defs>
        <path d="M 31.78125 34.625 
Q 24.75 34.625 20.71875 30.859375 
Q 16.703125 27.09375 16.703125 20.515625 
Q 16.703125 13.921875 20.71875 10.15625 
Q 24.75 6.390625 31.78125 6.390625 
Q 38.8125 6.390625 42.859375 10.171875 
Q 46.921875 13.96875 46.921875 20.515625 
Q 46.921875 27.09375 42.890625 30.859375 
Q 38.875 34.625 31.78125 34.625 
z
M 21.921875 38.8125 
Q 15.578125 40.375 12.03125 44.71875 
Q 8.5 49.078125 8.5 55.328125 
Q 8.5 64.0625 14.71875 69.140625 
Q 20.953125 74.21875 31.78125 74.21875 
Q 42.671875 74.21875 48.875 69.140625 
Q 55.078125 64.0625 55.078125 55.328125 
Q 55.078125 49.078125 51.53125 44.71875 
Q 48 40.375 41.703125 38.8125 
Q 48.828125 37.15625 52.796875 32.3125 
Q 56.78125 27.484375 56.78125 20.515625 
Q 56.78125 9.90625 50.3125 4.234375 
Q 43.84375 -1.421875 31.78125 -1.421875 
Q 19.734375 -1.421875 13.25 4.234375 
Q 6.78125 9.90625 6.78125 20.515625 
Q 6.78125 27.484375 10.78125 32.3125 
Q 14.796875 37.15625 21.921875 38.8125 
z
M 18.3125 54.390625 
Q 18.3125 48.734375 21.84375 45.5625 
Q 25.390625 42.390625 31.78125 42.390625 
Q 38.140625 42.390625 41.71875 45.5625 
Q 45.3125 48.734375 45.3125 54.390625 
Q 45.3125 60.0625 41.71875 63.234375 
Q 38.140625 66.40625 31.78125 66.40625 
Q 25.390625 66.40625 21.84375 63.234375 
Q 18.3125 60.0625 18.3125 54.390625 
z
" id="DejaVuSans-56"/>
       </defs>
       <use xlink:href="#DejaVuSans-48"/>
       <use x="63.623047" xlink:href="#DejaVuSans-46"/>
       <use x="95.410156" xlink:href="#DejaVuSans-57"/>
       <use x="159.033203" xlink:href="#DejaVuSans-56"/>
      </g>
     </g>
    </g>
    <g id="ytick_8">
     <g id="line2d_17">
      <g>
       <use style="stroke:#000000;stroke-width:0.8;" x="104.85" xlink:href="#m7c58a813c3" y="140.721384"/>
      </g>
     </g>
     <g id="text_18">
      <!-- 0.99 -->
      <g transform="translate(68.904687 145.660368)scale(0.13 -0.13)">
       <use xlink:href="#DejaVuSans-48"/>
       <use x="63.623047" xlink:href="#DejaVuSans-46"/>
       <use x="95.410156" xlink:href="#DejaVuSans-57"/>
       <use x="159.033203" xlink:href="#DejaVuSans-57"/>
      </g>
     </g>
    </g>
    <g id="text_19">
     <!-- G-Mean -->
     <g transform="translate(62.201094 275.743844)rotate(-90)scale(0.13 -0.13)">
      <defs>
       <path d="M 59.515625 10.40625 
L 59.515625 29.984375 
L 43.40625 29.984375 
L 43.40625 38.09375 
L 69.28125 38.09375 
L 69.28125 6.78125 
Q 63.578125 2.734375 56.6875 0.65625 
Q 49.8125 -1.421875 42 -1.421875 
Q 24.90625 -1.421875 15.25 8.5625 
Q 5.609375 18.5625 5.609375 36.375 
Q 5.609375 54.25 15.25 64.234375 
Q 24.90625 74.21875 42 74.21875 
Q 49.125 74.21875 55.546875 72.453125 
Q 61.96875 70.703125 67.390625 67.28125 
L 67.390625 56.78125 
Q 61.921875 61.421875 55.765625 63.765625 
Q 49.609375 66.109375 42.828125 66.109375 
Q 29.4375 66.109375 22.71875 58.640625 
Q 16.015625 51.171875 16.015625 36.375 
Q 16.015625 21.625 22.71875 14.15625 
Q 29.4375 6.6875 42.828125 6.6875 
Q 48.046875 6.6875 52.140625 7.59375 
Q 56.25 8.5 59.515625 10.40625 
z
" id="DejaVuSans-71"/>
       <path d="M 4.890625 31.390625 
L 31.203125 31.390625 
L 31.203125 23.390625 
L 4.890625 23.390625 
z
" id="DejaVuSans-45"/>
       <path d="M 9.8125 72.90625 
L 24.515625 72.90625 
L 43.109375 23.296875 
L 61.8125 72.90625 
L 76.515625 72.90625 
L 76.515625 0 
L 66.890625 0 
L 66.890625 64.015625 
L 48.09375 14.015625 
L 38.1875 14.015625 
L 19.390625 64.015625 
L 19.390625 0 
L 9.8125 0 
z
" id="DejaVuSans-77"/>
      </defs>
      <use xlink:href="#DejaVuSans-71"/>
      <use x="77.490234" xlink:href="#DejaVuSans-45"/>
      <use x="113.574219" xlink:href="#DejaVuSans-77"/>
      <use x="199.853516" xlink:href="#DejaVuSans-101"/>
      <use x="261.376953" xlink:href="#DejaVuSans-97"/>
      <use x="322.65625" xlink:href="#DejaVuSans-110"/>
     </g>
    </g>
   </g>
   <g id="line2d_18"/>
   <g id="line2d_19"/>
   <g id="line2d_20"/>
   <g id="line2d_21"/>
   <g id="line2d_22"/>
   <g id="line2d_23">
    <path clip-path="url(#p1903202cb4)" d="M 122.604545 215.750159 
L 124.407037 241.26145 
L 126.209529 242.905194 
L 128.012021 252.755218 
L 129.814513 252.523602 
L 131.617005 260.155999 
L 133.419497 256.585006 
L 135.221989 260.249987 
L 137.024481 260.879415 
L 138.826973 260.567284 
L 140.629465 258.252631 
L 142.431957 259.120396 
L 144.234449 261.476433 
L 146.03694 264.787507 
L 147.839432 267.583342 
L 149.641924 271.551605 
L 151.444416 271.450983 
L 153.246908 271.725017 
L 156.851892 266.446079 
L 158.654384 268.185865 
L 160.456876 267.982732 
L 162.259368 266.635459 
L 164.06186 263.633865 
L 165.864352 263.084057 
L 167.666844 261.095231 
L 169.469335 260.909622 
L 171.271827 257.324575 
L 173.074319 255.018087 
L 174.876811 252.373808 
L 176.679303 251.310474 
L 178.481795 250.408354 
L 180.284287 246.278181 
L 182.086779 243.194833 
L 183.889271 238.877398 
L 185.691763 232.845638 
L 187.494255 232.349154 
L 189.296747 230.739312 
L 191.099239 231.40525 
L 192.901731 231.811966 
L 194.704222 231.017028 
L 196.506714 232.703776 
L 198.309206 236.416307 
L 200.111698 235.672643 
L 201.91419 236.300872 
L 203.716682 235.769852 
L 205.519174 238.402998 
L 207.321666 238.729499 
L 209.124158 239.306367 
L 210.92665 240.510146 
L 212.729142 240.952042 
L 214.531634 240.628373 
L 216.334126 241.581631 
L 218.136617 240.197835 
L 219.939109 243.734531 
L 221.741601 244.224902 
L 223.544093 243.518911 
L 225.346585 242.19132 
L 227.149077 242.173555 
L 228.951569 241.52236 
L 230.754061 241.774797 
L 234.359045 234.30017 
L 236.161537 236.860592 
L 237.964029 234.191215 
L 239.766521 235.963886 
L 241.569012 231.815289 
L 243.371504 232.986694 
L 245.173996 232.112543 
L 246.976488 234.032564 
L 248.77898 233.819451 
L 250.581472 232.045541 
L 252.383964 236.543078 
L 254.186456 238.948905 
L 255.988948 237.466231 
L 257.79144 238.653776 
L 259.593932 238.789731 
L 261.396424 251.071367 
L 263.198916 256.085096 
L 265.001407 262.808349 
L 266.803899 273.211749 
L 268.606391 282.617215 
L 270.408883 288.495129 
L 272.211375 288.710259 
L 274.013867 295.132975 
L 275.816359 293.037829 
L 277.618851 296.795506 
L 279.421343 299.243005 
L 281.223835 304.003734 
L 283.026327 302.52755 
L 284.828819 303.087992 
L 286.631311 303.967171 
L 290.236294 297.048844 
L 292.038786 292.812679 
L 295.64377 286.90898 
L 297.446262 272.538786 
L 301.051246 253.441677 
L 302.853738 237.922431 
L 304.65623 224.470476 
L 306.458722 217.997437 
L 308.261214 214.043934 
L 310.063706 206.622192 
L 311.866198 203.046045 
L 313.668689 197.001641 
L 315.471181 189.83623 
L 317.273673 180.791833 
L 320.878657 171.857299 
L 324.483641 163.682412 
L 326.286133 160.845735 
L 328.088625 160.159997 
L 331.693609 154.784449 
L 333.496101 152.881967 
L 335.298593 153.355622 
L 337.101084 154.043806 
L 338.903576 155.006269 
L 340.706068 154.630373 
L 342.50856 151.236116 
L 344.311052 150.821741 
L 346.113544 149.198845 
L 347.916036 149.600572 
L 349.718528 148.301891 
L 351.52102 147.466658 
L 353.323512 147.53454 
L 355.126004 146.67958 
L 356.928496 148.238257 
L 358.730988 148.544154 
L 360.533479 148.702103 
L 362.335971 147.465261 
L 364.138463 147.288416 
L 367.743447 146.462172 
L 369.545939 146.59584 
L 371.348431 147.709577 
L 373.150923 146.964683 
L 374.953415 145.441458 
L 376.755907 145.610859 
L 378.558399 145.615558 
L 380.360891 144.532052 
L 382.163383 144.082002 
L 383.965874 142.175474 
L 387.570858 142.580786 
L 389.37335 142.431321 
L 391.175842 141.895127 
L 392.978334 140.484473 
L 396.583318 138.294621 
L 398.38581 141.051423 
L 400.188302 139.864406 
L 401.990794 140.838322 
L 403.793286 142.738343 
L 405.595778 142.519693 
L 407.398269 139.686388 
L 409.200761 138.872881 
L 411.003253 140.175156 
L 412.805745 139.189673 
L 414.608237 139.429196 
L 416.410729 139.128426 
L 418.213221 138.332723 
L 420.015713 137.379388 
L 421.818205 136.971185 
L 423.620697 137.095558 
L 425.423189 138.092155 
L 427.225681 139.629698 
L 429.028173 138.422058 
L 430.830665 138.236196 
L 432.633156 138.60199 
L 434.435648 136.12808 
L 436.23814 135.549114 
L 438.040632 135.115354 
L 439.843124 133.19169 
L 441.645616 133.333903 
L 443.448108 134.060895 
L 445.2506 133.742355 
L 447.053092 132.626086 
L 448.855584 135.668494 
L 450.658076 134.710992 
L 452.460568 134.877004 
L 454.26306 136.538917 
L 456.065551 138.386697 
L 457.868043 138.306363 
L 459.670535 139.833206 
L 461.473027 140.177229 
L 463.275519 139.103133 
L 465.078011 139.375365 
L 466.880503 138.99772 
L 468.682995 137.569378 
L 474.090471 137.245158 
L 475.892963 136.728914 
L 477.695455 136.927726 
L 477.695455 136.927726 
" style="fill:none;stroke:#cc3311;stroke-linecap:square;stroke-width:0.5;"/>
    <defs>
     <path d="M 0 2.5 
C 0.663008 2.5 1.29895 2.236584 1.767767 1.767767 
C 2.236584 1.29895 2.5 0.663008 2.5 0 
C 2.5 -0.663008 2.236584 -1.29895 1.767767 -1.767767 
C 1.29895 -2.236584 0.663008 -2.5 0 -2.5 
C -0.663008 -2.5 -1.29895 -2.236584 -1.767767 -1.767767 
C -2.236584 -1.29895 -2.5 -0.663008 -2.5 0 
C -2.5 0.663008 -2.236584 1.29895 -1.767767 1.767767 
C -1.29895 2.236584 -0.663008 2.5 0 2.5 
z
" id="m3143796c5f" style="stroke:#cc3311;"/>
    </defs>
    <g clip-path="url(#p1903202cb4)">
     <use style="fill:#cc3311;stroke:#cc3311;" x="122.604545" xlink:href="#m3143796c5f" y="215.750159"/>
     <use style="fill:#cc3311;stroke:#cc3311;" x="140.629465" xlink:href="#m3143796c5f" y="258.252631"/>
     <use style="fill:#cc3311;stroke:#cc3311;" x="158.654384" xlink:href="#m3143796c5f" y="268.185865"/>
     <use style="fill:#cc3311;stroke:#cc3311;" x="176.679303" xlink:href="#m3143796c5f" y="251.310474"/>
     <use style="fill:#cc3311;stroke:#cc3311;" x="194.704222" xlink:href="#m3143796c5f" y="231.017028"/>
     <use style="fill:#cc3311;stroke:#cc3311;" x="212.729142" xlink:href="#m3143796c5f" y="240.952042"/>
     <use style="fill:#cc3311;stroke:#cc3311;" x="230.754061" xlink:href="#m3143796c5f" y="241.774797"/>
     <use style="fill:#cc3311;stroke:#cc3311;" x="248.77898" xlink:href="#m3143796c5f" y="233.819451"/>
     <use style="fill:#cc3311;stroke:#cc3311;" x="266.803899" xlink:href="#m3143796c5f" y="273.211749"/>
     <use style="fill:#cc3311;stroke:#cc3311;" x="284.828819" xlink:href="#m3143796c5f" y="303.087992"/>
     <use style="fill:#cc3311;stroke:#cc3311;" x="302.853738" xlink:href="#m3143796c5f" y="237.922431"/>
     <use style="fill:#cc3311;stroke:#cc3311;" x="320.878657" xlink:href="#m3143796c5f" y="171.857299"/>
     <use style="fill:#cc3311;stroke:#cc3311;" x="338.903576" xlink:href="#m3143796c5f" y="155.006269"/>
     <use style="fill:#cc3311;stroke:#cc3311;" x="356.928496" xlink:href="#m3143796c5f" y="148.238257"/>
     <use style="fill:#cc3311;stroke:#cc3311;" x="374.953415" xlink:href="#m3143796c5f" y="145.441458"/>
     <use style="fill:#cc3311;stroke:#cc3311;" x="392.978334" xlink:href="#m3143796c5f" y="140.484473"/>
     <use style="fill:#cc3311;stroke:#cc3311;" x="411.003253" xlink:href="#m3143796c5f" y="140.175156"/>
     <use style="fill:#cc3311;stroke:#cc3311;" x="429.028173" xlink:href="#m3143796c5f" y="138.422058"/>
     <use style="fill:#cc3311;stroke:#cc3311;" x="447.053092" xlink:href="#m3143796c5f" y="132.626086"/>
     <use style="fill:#cc3311;stroke:#cc3311;" x="465.078011" xlink:href="#m3143796c5f" y="139.375365"/>
    </g>
   </g>
   <g id="line2d_24"/>
   <g id="line2d_25"/>
   <g id="line2d_26"/>
   <g id="line2d_27"/>
   <g id="line2d_28">
    <path clip-path="url(#p1903202cb4)" d="M 122.604545 340.67148 
L 124.407037 376.651813 
L 126.209529 344.435695 
L 128.012021 320.196173 
L 129.814513 303.550543 
L 131.617005 289.767541 
L 133.419497 282.107658 
L 135.221989 273.722479 
L 137.024481 264.574205 
L 138.826973 256.862571 
L 140.629465 255.129361 
L 142.431957 249.561184 
L 144.234449 248.97856 
L 146.03694 246.269106 
L 147.839432 242.393332 
L 149.641924 241.005409 
L 151.444416 237.19046 
L 153.246908 236.485943 
L 155.0494 233.423224 
L 156.851892 230.126623 
L 158.654384 222.718338 
L 160.456876 213.91287 
L 162.259368 207.624525 
L 164.06186 202.577215 
L 165.864352 199.103373 
L 167.666844 198.536014 
L 169.469335 196.053682 
L 171.271827 193.954759 
L 173.074319 193.211998 
L 174.876811 192.757022 
L 176.679303 189.121791 
L 178.481795 189.576239 
L 180.284287 184.512086 
L 182.086779 183.222114 
L 183.889271 182.254216 
L 185.691763 178.921579 
L 187.494255 177.598681 
L 189.296747 173.857888 
L 191.099239 174.031615 
L 192.901731 174.875822 
L 194.704222 173.493548 
L 196.506714 169.785892 
L 198.309206 172.888279 
L 200.111698 173.597639 
L 201.91419 174.091857 
L 203.716682 171.173866 
L 205.519174 171.594908 
L 207.321666 171.357718 
L 209.124158 169.561806 
L 210.92665 168.236168 
L 212.729142 167.115035 
L 214.531634 163.845511 
L 216.334126 164.027464 
L 218.136617 160.525864 
L 219.939109 160.81161 
L 221.741601 160.104968 
L 223.544093 160.466829 
L 225.346585 160.698303 
L 227.149077 159.78512 
L 228.951569 158.667907 
L 230.754061 159.072129 
L 232.556553 160.132995 
L 234.359045 156.462784 
L 236.161537 157.246513 
L 237.964029 154.321216 
L 239.766521 156.616239 
L 241.569012 152.810595 
L 243.371504 151.447113 
L 245.173996 154.175285 
L 246.976488 154.575397 
L 248.77898 156.290142 
L 250.581472 157.060154 
L 252.383964 163.451971 
L 254.186456 167.223696 
L 255.988948 168.472048 
L 257.79144 171.715428 
L 259.593932 172.819701 
L 261.396424 179.160581 
L 263.198916 187.48141 
L 265.001407 198.884038 
L 266.803899 204.542169 
L 268.606391 211.412054 
L 270.408883 217.723119 
L 272.211375 219.163519 
L 274.013867 225.505442 
L 275.816359 229.70697 
L 277.618851 236.703453 
L 279.421343 242.084502 
L 281.223835 243.458139 
L 283.026327 247.001803 
L 284.828819 247.852893 
L 286.631311 250.998675 
L 288.433802 248.807631 
L 290.236294 251.487434 
L 293.841278 253.764681 
L 295.64377 257.108487 
L 297.446262 253.164099 
L 299.248754 245.257307 
L 301.051246 235.712298 
L 304.65623 219.967538 
L 306.458722 216.519139 
L 308.261214 214.630118 
L 310.063706 210.03886 
L 313.668689 198.215879 
L 315.471181 192.725295 
L 319.076165 184.215455 
L 320.878657 182.403888 
L 322.681149 179.048268 
L 324.483641 176.654605 
L 326.286133 171.533702 
L 328.088625 168.166109 
L 329.891117 163.837594 
L 331.693609 158.402107 
L 333.496101 156.653241 
L 335.298593 155.080073 
L 337.101084 152.826859 
L 338.903576 154.254014 
L 340.706068 152.356705 
L 342.50856 149.621866 
L 344.311052 149.267062 
L 346.113544 147.777486 
L 347.916036 147.159645 
L 349.718528 145.965751 
L 351.52102 146.201303 
L 355.126004 144.190459 
L 358.730988 144.995981 
L 360.533479 145.194455 
L 362.335971 146.106949 
L 364.138463 146.876611 
L 365.940955 146.561665 
L 367.743447 146.391064 
L 369.545939 145.694144 
L 371.348431 147.497337 
L 373.150923 149.065921 
L 374.953415 148.110998 
L 376.755907 148.280589 
L 378.558399 148.774777 
L 380.360891 147.52797 
L 383.965874 147.960281 
L 385.768366 148.722339 
L 387.570858 147.92971 
L 391.175842 148.513445 
L 392.978334 147.285416 
L 394.780826 146.322478 
L 396.583318 143.139032 
L 398.38581 141.823693 
L 400.188302 140.815399 
L 401.990794 140.782358 
L 403.793286 141.856371 
L 405.595778 141.307393 
L 409.200761 136.24586 
L 411.003253 138.419609 
L 412.805745 137.343092 
L 414.608237 137.692361 
L 416.410729 137.860806 
L 418.213221 137.069467 
L 420.015713 137.011301 
L 423.620697 137.876559 
L 425.423189 138.238354 
L 427.225681 139.31262 
L 429.028173 138.194417 
L 430.830665 138.31217 
L 432.633156 139.014355 
L 434.435648 138.002605 
L 436.23814 136.036905 
L 438.040632 135.519484 
L 439.843124 133.421732 
L 441.645616 133.072571 
L 443.448108 133.53227 
L 445.2506 133.215906 
L 447.053092 130.291416 
L 448.855584 132.289529 
L 450.658076 130.790357 
L 452.460568 131.327713 
L 454.26306 132.890983 
L 457.868043 131.853452 
L 459.670535 132.263462 
L 461.473027 132.421867 
L 463.275519 130.525505 
L 465.078011 130.249911 
L 466.880503 129.206366 
L 468.682995 130.515657 
L 470.485487 133.05692 
L 472.287979 133.24784 
L 474.090471 134.374849 
L 475.892963 134.109523 
L 477.695455 133.009374 
L 477.695455 133.009374 
" style="fill:none;stroke:#009988;stroke-dasharray:1.85,0.8;stroke-dashoffset:0;stroke-width:0.5;"/>
    <defs>
     <path d="M -2.5 2.5 
L 2.5 2.5 
L 2.5 -2.5 
L -2.5 -2.5 
z
" id="m2aa68ec7c3" style="stroke:#009988;stroke-linejoin:miter;"/>
    </defs>
    <g clip-path="url(#p1903202cb4)">
     <use style="fill:#009988;stroke:#009988;stroke-linejoin:miter;" x="122.604545" xlink:href="#m2aa68ec7c3" y="340.67148"/>
     <use style="fill:#009988;stroke:#009988;stroke-linejoin:miter;" x="140.629465" xlink:href="#m2aa68ec7c3" y="255.129361"/>
     <use style="fill:#009988;stroke:#009988;stroke-linejoin:miter;" x="158.654384" xlink:href="#m2aa68ec7c3" y="222.718338"/>
     <use style="fill:#009988;stroke:#009988;stroke-linejoin:miter;" x="176.679303" xlink:href="#m2aa68ec7c3" y="189.121791"/>
     <use style="fill:#009988;stroke:#009988;stroke-linejoin:miter;" x="194.704222" xlink:href="#m2aa68ec7c3" y="173.493548"/>
     <use style="fill:#009988;stroke:#009988;stroke-linejoin:miter;" x="212.729142" xlink:href="#m2aa68ec7c3" y="167.115035"/>
     <use style="fill:#009988;stroke:#009988;stroke-linejoin:miter;" x="230.754061" xlink:href="#m2aa68ec7c3" y="159.072129"/>
     <use style="fill:#009988;stroke:#009988;stroke-linejoin:miter;" x="248.77898" xlink:href="#m2aa68ec7c3" y="156.290142"/>
     <use style="fill:#009988;stroke:#009988;stroke-linejoin:miter;" x="266.803899" xlink:href="#m2aa68ec7c3" y="204.542169"/>
     <use style="fill:#009988;stroke:#009988;stroke-linejoin:miter;" x="284.828819" xlink:href="#m2aa68ec7c3" y="247.852893"/>
     <use style="fill:#009988;stroke:#009988;stroke-linejoin:miter;" x="302.853738" xlink:href="#m2aa68ec7c3" y="227.631341"/>
     <use style="fill:#009988;stroke:#009988;stroke-linejoin:miter;" x="320.878657" xlink:href="#m2aa68ec7c3" y="182.403888"/>
     <use style="fill:#009988;stroke:#009988;stroke-linejoin:miter;" x="338.903576" xlink:href="#m2aa68ec7c3" y="154.254014"/>
     <use style="fill:#009988;stroke:#009988;stroke-linejoin:miter;" x="356.928496" xlink:href="#m2aa68ec7c3" y="144.597271"/>
     <use style="fill:#009988;stroke:#009988;stroke-linejoin:miter;" x="374.953415" xlink:href="#m2aa68ec7c3" y="148.110998"/>
     <use style="fill:#009988;stroke:#009988;stroke-linejoin:miter;" x="392.978334" xlink:href="#m2aa68ec7c3" y="147.285416"/>
     <use style="fill:#009988;stroke:#009988;stroke-linejoin:miter;" x="411.003253" xlink:href="#m2aa68ec7c3" y="138.419609"/>
     <use style="fill:#009988;stroke:#009988;stroke-linejoin:miter;" x="429.028173" xlink:href="#m2aa68ec7c3" y="138.194417"/>
     <use style="fill:#009988;stroke:#009988;stroke-linejoin:miter;" x="447.053092" xlink:href="#m2aa68ec7c3" y="130.291416"/>
     <use style="fill:#009988;stroke:#009988;stroke-linejoin:miter;" x="465.078011" xlink:href="#m2aa68ec7c3" y="130.249911"/>
    </g>
   </g>
   <g id="line2d_29"/>
   <g id="line2d_30"/>
   <g id="line2d_31"/>
   <g id="line2d_32"/>
   <g id="line2d_33">
    <path clip-path="url(#p1903202cb4)" d="M 122.604545 227.075682 
L 124.407037 238.252395 
L 126.209529 245.851841 
L 128.012021 260.000426 
L 129.814513 259.778804 
L 131.617005 264.270309 
L 133.419497 261.17406 
L 135.221989 265.41047 
L 137.024481 266.481304 
L 140.629465 262.870776 
L 142.431957 264.111453 
L 144.234449 265.004076 
L 146.03694 266.857996 
L 147.839432 269.639309 
L 149.641924 270.848452 
L 151.444416 271.539947 
L 153.246908 272.016734 
L 155.0494 269.382929 
L 156.851892 267.553723 
L 158.654384 269.564069 
L 160.456876 271.251202 
L 162.259368 270.003229 
L 164.06186 265.283105 
L 165.864352 265.205052 
L 167.666844 264.13167 
L 169.469335 265.938907 
L 171.271827 262.934834 
L 173.074319 263.182502 
L 174.876811 262.019196 
L 176.679303 261.190495 
L 178.481795 259.893485 
L 180.284287 258.139472 
L 182.086779 257.121831 
L 183.889271 253.189089 
L 185.691763 250.394265 
L 187.494255 250.575086 
L 189.296747 249.532417 
L 191.099239 250.941027 
L 192.901731 251.617184 
L 196.506714 248.607718 
L 198.309206 252.705228 
L 200.111698 254.493292 
L 201.91419 254.851344 
L 203.716682 254.268116 
L 205.519174 254.81801 
L 207.321666 254.576527 
L 209.124158 251.819504 
L 212.729142 255.380636 
L 214.531634 256.431432 
L 216.334126 255.932336 
L 218.136617 254.159983 
L 219.939109 256.778989 
L 221.741601 256.804806 
L 223.544093 255.913947 
L 225.346585 254.3442 
L 227.149077 254.520101 
L 228.951569 253.409249 
L 230.754061 254.415465 
L 232.556553 253.47484 
L 234.359045 249.075907 
L 236.161537 250.563128 
L 237.964029 248.159049 
L 239.766521 250.60236 
L 241.569012 247.942685 
L 243.371504 248.801981 
L 245.173996 249.291266 
L 246.976488 250.238064 
L 248.77898 248.65808 
L 250.581472 246.569678 
L 252.383964 250.554025 
L 254.186456 253.653581 
L 255.988948 254.277662 
L 257.79144 256.143028 
L 259.593932 256.1327 
L 261.396424 267.170891 
L 263.198916 270.976738 
L 265.001407 275.647417 
L 266.803899 285.535731 
L 268.606391 293.834533 
L 270.408883 298.363543 
L 272.211375 297.91925 
L 274.013867 301.05477 
L 275.816359 297.273693 
L 277.618851 297.475296 
L 279.421343 298.476159 
L 281.223835 301.845023 
L 284.828819 297.2962 
L 286.631311 296.878296 
L 288.433802 293.479848 
L 290.236294 288.276465 
L 293.841278 277.086245 
L 295.64377 273.752399 
L 297.446262 260.02298 
L 299.248754 250.359557 
L 301.051246 242.141777 
L 302.853738 226.01226 
L 304.65623 212.922472 
L 306.458722 206.287795 
L 308.261214 202.155243 
L 310.063706 195.620675 
L 311.866198 192.317992 
L 313.668689 187.783948 
L 315.471181 180.993948 
L 317.273673 172.117166 
L 319.076165 168.235028 
L 320.878657 165.907373 
L 322.681149 161.840644 
L 324.483641 156.96205 
L 326.286133 154.038952 
L 329.891117 151.123748 
L 331.693609 147.357975 
L 333.496101 144.612587 
L 335.298593 144.398362 
L 337.101084 144.718966 
L 338.903576 144.921839 
L 340.706068 144.182861 
L 342.50856 141.452851 
L 344.311052 140.766041 
L 346.113544 140.711531 
L 347.916036 140.937768 
L 349.718528 139.466869 
L 353.323512 138.627616 
L 355.126004 136.917432 
L 356.928496 138.112954 
L 358.730988 138.330127 
L 360.533479 139.06419 
L 362.335971 138.00622 
L 364.138463 137.290973 
L 365.940955 137.651499 
L 367.743447 137.194981 
L 369.545939 137.447793 
L 371.348431 139.068549 
L 373.150923 137.679778 
L 374.953415 136.919535 
L 376.755907 137.361975 
L 378.558399 137.2766 
L 380.360891 136.186428 
L 382.163383 134.767796 
L 383.965874 133.494858 
L 385.768366 134.077177 
L 387.570858 134.166979 
L 389.37335 134.086484 
L 391.175842 133.729619 
L 392.978334 132.501918 
L 394.780826 131.535473 
L 396.583318 130.059301 
L 398.38581 131.165294 
L 400.188302 130.976292 
L 401.990794 130.260186 
L 403.793286 132.347552 
L 405.595778 132.668924 
L 407.398269 130.199074 
L 409.200761 130.305742 
L 411.003253 131.518358 
L 412.805745 130.623789 
L 414.608237 130.860571 
L 416.410729 130.474803 
L 418.213221 130.286397 
L 420.015713 129.241502 
L 421.818205 128.5675 
L 423.620697 128.771342 
L 427.225681 131.046825 
L 429.028173 129.835927 
L 430.830665 129.834894 
L 432.633156 129.559596 
L 436.23814 127.793487 
L 438.040632 127.960138 
L 439.843124 125.772397 
L 441.645616 125.270581 
L 443.448108 125.72442 
L 445.2506 125.588239 
L 447.053092 124.651813 
L 448.855584 127.517063 
L 450.658076 126.556981 
L 452.460568 126.72803 
L 454.26306 127.927571 
L 456.065551 129.591792 
L 457.868043 129.417887 
L 459.670535 130.373393 
L 461.473027 131.079008 
L 463.275519 130.091328 
L 465.078011 130.090106 
L 466.880503 129.623397 
L 468.682995 129.351642 
L 470.485487 129.524771 
L 472.287979 130.252548 
L 474.090471 130.642416 
L 477.695455 130.564484 
L 477.695455 130.564484 
" style="fill:none;stroke:#0077bb;stroke-dasharray:3.2,0.8,0.5,0.8;stroke-dashoffset:0;stroke-width:0.5;"/>
    <defs>
     <path d="M 0 -2.5 
L -2.5 2.5 
L 2.5 2.5 
z
" id="md3aa8c72d4" style="stroke:#0077bb;stroke-linejoin:miter;"/>
    </defs>
    <g clip-path="url(#p1903202cb4)">
     <use style="fill:#0077bb;stroke:#0077bb;stroke-linejoin:miter;" x="122.604545" xlink:href="#md3aa8c72d4" y="227.075682"/>
     <use style="fill:#0077bb;stroke:#0077bb;stroke-linejoin:miter;" x="140.629465" xlink:href="#md3aa8c72d4" y="262.870776"/>
     <use style="fill:#0077bb;stroke:#0077bb;stroke-linejoin:miter;" x="158.654384" xlink:href="#md3aa8c72d4" y="269.564069"/>
     <use style="fill:#0077bb;stroke:#0077bb;stroke-linejoin:miter;" x="176.679303" xlink:href="#md3aa8c72d4" y="261.190495"/>
     <use style="fill:#0077bb;stroke:#0077bb;stroke-linejoin:miter;" x="194.704222" xlink:href="#md3aa8c72d4" y="250.080444"/>
     <use style="fill:#0077bb;stroke:#0077bb;stroke-linejoin:miter;" x="212.729142" xlink:href="#md3aa8c72d4" y="255.380636"/>
     <use style="fill:#0077bb;stroke:#0077bb;stroke-linejoin:miter;" x="230.754061" xlink:href="#md3aa8c72d4" y="254.415465"/>
     <use style="fill:#0077bb;stroke:#0077bb;stroke-linejoin:miter;" x="248.77898" xlink:href="#md3aa8c72d4" y="248.65808"/>
     <use style="fill:#0077bb;stroke:#0077bb;stroke-linejoin:miter;" x="266.803899" xlink:href="#md3aa8c72d4" y="285.535731"/>
     <use style="fill:#0077bb;stroke:#0077bb;stroke-linejoin:miter;" x="284.828819" xlink:href="#md3aa8c72d4" y="297.2962"/>
     <use style="fill:#0077bb;stroke:#0077bb;stroke-linejoin:miter;" x="302.853738" xlink:href="#md3aa8c72d4" y="226.01226"/>
     <use style="fill:#0077bb;stroke:#0077bb;stroke-linejoin:miter;" x="320.878657" xlink:href="#md3aa8c72d4" y="165.907373"/>
     <use style="fill:#0077bb;stroke:#0077bb;stroke-linejoin:miter;" x="338.903576" xlink:href="#md3aa8c72d4" y="144.921839"/>
     <use style="fill:#0077bb;stroke:#0077bb;stroke-linejoin:miter;" x="356.928496" xlink:href="#md3aa8c72d4" y="138.112954"/>
     <use style="fill:#0077bb;stroke:#0077bb;stroke-linejoin:miter;" x="374.953415" xlink:href="#md3aa8c72d4" y="136.919535"/>
     <use style="fill:#0077bb;stroke:#0077bb;stroke-linejoin:miter;" x="392.978334" xlink:href="#md3aa8c72d4" y="132.501918"/>
     <use style="fill:#0077bb;stroke:#0077bb;stroke-linejoin:miter;" x="411.003253" xlink:href="#md3aa8c72d4" y="131.518358"/>
     <use style="fill:#0077bb;stroke:#0077bb;stroke-linejoin:miter;" x="429.028173" xlink:href="#md3aa8c72d4" y="129.835927"/>
     <use style="fill:#0077bb;stroke:#0077bb;stroke-linejoin:miter;" x="447.053092" xlink:href="#md3aa8c72d4" y="124.651813"/>
     <use style="fill:#0077bb;stroke:#0077bb;stroke-linejoin:miter;" x="465.078011" xlink:href="#md3aa8c72d4" y="130.090106"/>
    </g>
   </g>
   <g id="line2d_34"/>
   <g id="line2d_35"/>
   <g id="line2d_36"/>
   <g id="line2d_37"/>
   <g id="line2d_38">
    <path clip-path="url(#p1903202cb4)" d="M 122.604545 278.075946 
L 124.407037 288.197193 
L 126.209529 269.944501 
L 128.012021 267.997451 
L 129.814513 259.637331 
L 131.617005 252.946352 
L 133.419497 245.654807 
L 135.221989 244.112647 
L 140.629465 227.800779 
L 142.431957 222.900402 
L 144.234449 220.761084 
L 146.03694 217.000154 
L 151.444416 204.178783 
L 153.246908 202.224812 
L 155.0494 200.489242 
L 156.851892 198.378258 
L 158.654384 193.182917 
L 160.456876 188.463712 
L 162.259368 184.690007 
L 164.06186 179.575157 
L 167.666844 172.965816 
L 169.469335 170.142368 
L 171.271827 166.109813 
L 173.074319 164.547193 
L 174.876811 162.652468 
L 176.679303 160.361766 
L 178.481795 158.329385 
L 180.284287 154.972043 
L 182.086779 155.103439 
L 185.691763 154.248678 
L 187.494255 154.075833 
L 189.296747 151.389423 
L 191.099239 151.475876 
L 192.901731 151.195768 
L 194.704222 149.274928 
L 196.506714 146.926883 
L 198.309206 149.316957 
L 200.111698 148.828036 
L 201.91419 147.951453 
L 203.716682 147.327199 
L 205.519174 149.006904 
L 207.321666 150.438721 
L 209.124158 148.112513 
L 214.531634 148.226916 
L 216.334126 148.95716 
L 218.136617 146.724527 
L 219.939109 147.218225 
L 221.741601 147.207198 
L 223.544093 147.884324 
L 225.346585 149.928105 
L 227.149077 147.687388 
L 228.951569 147.615739 
L 230.754061 149.292967 
L 232.556553 148.858503 
L 234.359045 144.708513 
L 236.161537 144.618677 
L 237.964029 143.578396 
L 239.766521 144.844852 
L 241.569012 141.924148 
L 243.371504 139.553714 
L 245.173996 140.471792 
L 246.976488 140.69626 
L 248.77898 142.59163 
L 250.581472 143.183882 
L 252.383964 147.125984 
L 254.186456 148.095286 
L 255.988948 149.576983 
L 257.79144 150.543026 
L 259.593932 152.051225 
L 261.396424 157.615611 
L 263.198916 165.531947 
L 265.001407 175.190544 
L 266.803899 180.252788 
L 268.606391 189.320175 
L 270.408883 193.110181 
L 272.211375 194.232616 
L 274.013867 200.661139 
L 275.816359 205.284021 
L 279.421343 217.281507 
L 281.223835 219.34959 
L 283.026327 220.589413 
L 284.828819 222.433678 
L 286.631311 225.762661 
L 288.433802 226.63631 
L 290.236294 230.604767 
L 292.038786 232.05558 
L 293.841278 234.39441 
L 295.64377 237.227286 
L 297.446262 233.756332 
L 299.248754 228.211588 
L 302.853738 213.887756 
L 304.65623 205.531098 
L 306.458722 206.15135 
L 308.261214 206.623951 
L 310.063706 202.767446 
L 311.866198 198.184186 
L 313.668689 195.128305 
L 315.471181 189.655161 
L 317.273673 187.306376 
L 320.878657 183.908685 
L 322.681149 180.916528 
L 324.483641 176.758546 
L 326.286133 173.759959 
L 329.891117 168.82988 
L 331.693609 164.634491 
L 333.496101 163.153955 
L 337.101084 159.365801 
L 338.903576 160.478422 
L 340.706068 160.243711 
L 342.50856 157.000316 
L 344.311052 156.171406 
L 346.113544 155.557896 
L 347.916036 155.393036 
L 349.718528 153.338364 
L 351.52102 152.414644 
L 353.323512 152.751001 
L 355.126004 152.258938 
L 358.730988 153.66131 
L 360.533479 152.697211 
L 362.335971 152.279891 
L 364.138463 152.284226 
L 367.743447 150.540913 
L 369.545939 149.417062 
L 371.348431 150.269007 
L 373.150923 150.484033 
L 374.953415 149.181114 
L 376.755907 148.677689 
L 380.360891 148.936992 
L 382.163383 147.995871 
L 383.965874 147.561847 
L 385.768366 148.424458 
L 387.570858 149.145465 
L 389.37335 149.194408 
L 391.175842 149.48829 
L 392.978334 148.348822 
L 394.780826 147.67136 
L 396.583318 148.596888 
L 398.38581 148.914042 
L 400.188302 148.179016 
L 401.990794 148.012466 
L 403.793286 149.729928 
L 405.595778 150.91996 
L 407.398269 149.395355 
L 409.200761 148.401646 
L 411.003253 150.614153 
L 412.805745 149.628916 
L 414.608237 150.011439 
L 418.213221 148.584571 
L 420.015713 148.95261 
L 421.818205 148.084162 
L 423.620697 147.768734 
L 425.423189 148.297314 
L 427.225681 149.633555 
L 429.028173 148.708683 
L 430.830665 148.359037 
L 432.633156 148.450719 
L 434.435648 146.633219 
L 436.23814 145.148954 
L 438.040632 144.765545 
L 441.645616 140.837616 
L 443.448108 142.412874 
L 445.2506 141.203955 
L 447.053092 139.634445 
L 448.855584 142.577497 
L 450.658076 142.329211 
L 452.460568 141.950841 
L 454.26306 142.715347 
L 457.868043 142.081153 
L 461.473027 141.87563 
L 463.275519 139.809863 
L 465.078011 139.52964 
L 466.880503 138.663354 
L 468.682995 138.749867 
L 470.485487 139.573488 
L 472.287979 140.058239 
L 474.090471 141.369595 
L 475.892963 141.405682 
L 477.695455 141.583753 
L 477.695455 141.583753 
" style="fill:none;stroke:#ee7733;stroke-dasharray:0.5,0.825;stroke-dashoffset:0;stroke-width:0.5;"/>
    <defs>
     <path d="M 0 -2.5 
L -0.561285 -0.772542 
L -2.377641 -0.772542 
L -0.908178 0.295085 
L -1.469463 2.022542 
L -0 0.954915 
L 1.469463 2.022542 
L 0.908178 0.295085 
L 2.377641 -0.772542 
L 0.561285 -0.772542 
z
" id="m83f11f1e1a" style="stroke:#ee7733;stroke-linejoin:bevel;"/>
    </defs>
    <g clip-path="url(#p1903202cb4)">
     <use style="fill:#ee7733;stroke:#ee7733;stroke-linejoin:bevel;" x="122.604545" xlink:href="#m83f11f1e1a" y="278.075946"/>
     <use style="fill:#ee7733;stroke:#ee7733;stroke-linejoin:bevel;" x="140.629465" xlink:href="#m83f11f1e1a" y="227.800779"/>
     <use style="fill:#ee7733;stroke:#ee7733;stroke-linejoin:bevel;" x="158.654384" xlink:href="#m83f11f1e1a" y="193.182917"/>
     <use style="fill:#ee7733;stroke:#ee7733;stroke-linejoin:bevel;" x="176.679303" xlink:href="#m83f11f1e1a" y="160.361766"/>
     <use style="fill:#ee7733;stroke:#ee7733;stroke-linejoin:bevel;" x="194.704222" xlink:href="#m83f11f1e1a" y="149.274928"/>
     <use style="fill:#ee7733;stroke:#ee7733;stroke-linejoin:bevel;" x="212.729142" xlink:href="#m83f11f1e1a" y="148.136564"/>
     <use style="fill:#ee7733;stroke:#ee7733;stroke-linejoin:bevel;" x="230.754061" xlink:href="#m83f11f1e1a" y="149.292967"/>
     <use style="fill:#ee7733;stroke:#ee7733;stroke-linejoin:bevel;" x="248.77898" xlink:href="#m83f11f1e1a" y="142.59163"/>
     <use style="fill:#ee7733;stroke:#ee7733;stroke-linejoin:bevel;" x="266.803899" xlink:href="#m83f11f1e1a" y="180.252788"/>
     <use style="fill:#ee7733;stroke:#ee7733;stroke-linejoin:bevel;" x="284.828819" xlink:href="#m83f11f1e1a" y="222.433678"/>
     <use style="fill:#ee7733;stroke:#ee7733;stroke-linejoin:bevel;" x="302.853738" xlink:href="#m83f11f1e1a" y="213.887756"/>
     <use style="fill:#ee7733;stroke:#ee7733;stroke-linejoin:bevel;" x="320.878657" xlink:href="#m83f11f1e1a" y="183.908685"/>
     <use style="fill:#ee7733;stroke:#ee7733;stroke-linejoin:bevel;" x="338.903576" xlink:href="#m83f11f1e1a" y="160.478422"/>
     <use style="fill:#ee7733;stroke:#ee7733;stroke-linejoin:bevel;" x="356.928496" xlink:href="#m83f11f1e1a" y="152.990407"/>
     <use style="fill:#ee7733;stroke:#ee7733;stroke-linejoin:bevel;" x="374.953415" xlink:href="#m83f11f1e1a" y="149.181114"/>
     <use style="fill:#ee7733;stroke:#ee7733;stroke-linejoin:bevel;" x="392.978334" xlink:href="#m83f11f1e1a" y="148.348822"/>
     <use style="fill:#ee7733;stroke:#ee7733;stroke-linejoin:bevel;" x="411.003253" xlink:href="#m83f11f1e1a" y="150.614153"/>
     <use style="fill:#ee7733;stroke:#ee7733;stroke-linejoin:bevel;" x="429.028173" xlink:href="#m83f11f1e1a" y="148.708683"/>
     <use style="fill:#ee7733;stroke:#ee7733;stroke-linejoin:bevel;" x="447.053092" xlink:href="#m83f11f1e1a" y="139.634445"/>
     <use style="fill:#ee7733;stroke:#ee7733;stroke-linejoin:bevel;" x="465.078011" xlink:href="#m83f11f1e1a" y="139.52964"/>
    </g>
   </g>
   <g id="line2d_39"/>
   <g id="line2d_40"/>
   <g id="line2d_41"/>
   <g id="line2d_42"/>
   <g id="line2d_43">
    <path clip-path="url(#p1903202cb4)" d="M 122.604545 227.075682 
L 124.407037 238.252395 
L 126.209529 243.991825 
L 128.012021 248.532944 
L 129.814513 244.065726 
L 131.617005 239.970015 
L 133.419497 234.532232 
L 135.221989 234.380393 
L 138.826973 225.753663 
L 140.629465 220.722777 
L 142.431957 216.412233 
L 144.234449 214.772005 
L 146.03694 211.438867 
L 149.641924 203.623927 
L 151.444416 199.598899 
L 153.246908 197.899366 
L 155.0494 196.391451 
L 156.851892 194.485357 
L 158.654384 191.840029 
L 160.456876 189.565291 
L 164.06186 179.575157 
L 167.666844 172.965816 
L 169.469335 170.142368 
L 171.271827 166.109813 
L 173.074319 164.547193 
L 174.876811 162.652468 
L 176.679303 160.361766 
L 178.481795 158.329385 
L 180.284287 154.972043 
L 182.086779 155.103439 
L 185.691763 154.248678 
L 187.494255 154.075833 
L 189.296747 151.389423 
L 191.099239 151.475876 
L 192.901731 151.195768 
L 194.704222 149.274928 
L 196.506714 146.926883 
L 198.309206 149.316957 
L 200.111698 148.828036 
L 201.91419 147.951453 
L 203.716682 147.327199 
L 205.519174 149.006904 
L 207.321666 150.438721 
L 209.124158 148.112513 
L 214.531634 148.226916 
L 216.334126 148.95716 
L 218.136617 146.724527 
L 219.939109 147.218225 
L 221.741601 147.207198 
L 223.544093 147.884324 
L 225.346585 149.928105 
L 227.149077 147.687388 
L 228.951569 147.615739 
L 230.754061 149.292967 
L 232.556553 148.858503 
L 234.359045 144.708513 
L 236.161537 144.618677 
L 237.964029 143.578396 
L 239.766521 144.844852 
L 241.569012 141.924148 
L 243.371504 139.553714 
L 245.173996 140.471792 
L 246.976488 140.69626 
L 248.77898 142.59163 
L 250.581472 143.183882 
L 252.383964 147.125984 
L 254.186456 148.095286 
L 255.988948 149.576983 
L 257.79144 150.543026 
L 259.593932 152.051225 
L 261.396424 157.615611 
L 263.198916 165.531947 
L 265.001407 176.22115 
L 266.803899 182.58128 
L 268.606391 191.648667 
L 270.408883 195.438673 
L 272.211375 196.561108 
L 274.013867 204.915453 
L 275.816359 210.722315 
L 277.618851 215.878372 
L 279.421343 225.042807 
L 281.223835 227.110889 
L 283.026327 228.350713 
L 284.828819 230.539771 
L 286.631311 234.752505 
L 288.433802 235.713855 
L 290.236294 238.094511 
L 292.038786 237.98379 
L 295.64377 240.48381 
L 297.446262 235.81415 
L 299.248754 228.415286 
L 301.051246 217.822506 
L 302.853738 209.589935 
L 304.65623 200.775681 
L 306.458722 200.244814 
L 308.261214 200.991712 
L 310.063706 194.115362 
L 311.866198 187.981747 
L 313.668689 184.289706 
L 315.471181 175.008435 
L 317.273673 172.383732 
L 319.076165 171.521594 
L 320.878657 168.76163 
L 322.681149 164.517556 
L 324.483641 159.726713 
L 328.088625 156.811095 
L 329.891117 154.352249 
L 331.693609 150.586476 
L 333.496101 147.841088 
L 335.298593 147.626863 
L 337.101084 148.311908 
L 338.903576 148.51478 
L 340.706068 147.062712 
L 342.50856 144.332702 
L 344.311052 144.557068 
L 346.113544 145.312023 
L 347.916036 145.44795 
L 349.718528 144.783506 
L 353.323512 143.944253 
L 355.126004 141.963927 
L 356.928496 142.610426 
L 358.730988 142.827599 
L 360.533479 142.318652 
L 362.335971 141.357609 
L 364.138463 140.642362 
L 365.940955 140.913194 
L 367.743447 140.547675 
L 369.545939 140.890784 
L 371.348431 142.420805 
L 373.150923 142.040162 
L 374.953415 141.370919 
L 376.755907 141.81336 
L 378.558399 142.911913 
L 382.163383 138.408716 
L 383.965874 137.226088 
L 385.768366 137.001952 
L 387.570858 137.091754 
L 389.37335 137.01126 
L 391.175842 136.654394 
L 392.978334 135.426693 
L 394.780826 134.460248 
L 396.583318 134.227086 
L 398.38581 133.813658 
L 400.188302 133.624657 
L 401.990794 132.998245 
L 403.793286 135.173336 
L 405.595778 135.40441 
L 407.398269 133.025296 
L 409.200761 131.759394 
L 411.003253 132.881011 
L 414.608237 131.039296 
L 416.410729 130.653528 
L 418.213221 130.465122 
L 420.015713 129.420227 
L 421.818205 128.746225 
L 423.620697 129.226142 
L 427.225681 131.501625 
L 429.028173 130.290727 
L 430.830665 130.289694 
L 432.633156 130.014396 
L 436.23814 128.248287 
L 438.040632 128.685831 
L 439.843124 126.319366 
L 441.645616 125.81755 
L 443.448108 126.271389 
L 445.2506 126.40477 
L 447.053092 125.651311 
L 448.855584 128.516561 
L 450.658076 127.55648 
L 452.460568 128.54033 
L 454.26306 130.016731 
L 456.065551 131.956071 
L 457.868043 131.782167 
L 459.670535 132.551503 
L 461.473027 133.074649 
L 463.275519 132.086969 
L 465.078011 132.085747 
L 466.880503 131.619039 
L 468.682995 131.347284 
L 470.485487 131.520413 
L 472.287979 132.063544 
L 474.090471 132.83076 
L 477.695455 132.752828 
L 477.695455 132.752828 
" style="fill:none;stroke:#ee3377;stroke-dasharray:3.2,0.8,0.5,0.8;stroke-dashoffset:0;stroke-width:0.5;"/>
    <defs>
     <path d="M -1.25 2.5 
L 0 1.25 
L 1.25 2.5 
L 2.5 1.25 
L 1.25 0 
L 2.5 -1.25 
L 1.25 -2.5 
L 0 -1.25 
L -1.25 -2.5 
L -2.5 -1.25 
L -1.25 0 
L -2.5 1.25 
z
" id="m6e1bd5f61e" style="stroke:#ee3377;stroke-linejoin:miter;"/>
    </defs>
    <g clip-path="url(#p1903202cb4)">
     <use style="fill:#ee3377;stroke:#ee3377;stroke-linejoin:miter;" x="122.604545" xlink:href="#m6e1bd5f61e" y="227.075682"/>
     <use style="fill:#ee3377;stroke:#ee3377;stroke-linejoin:miter;" x="140.629465" xlink:href="#m6e1bd5f61e" y="220.722777"/>
     <use style="fill:#ee3377;stroke:#ee3377;stroke-linejoin:miter;" x="158.654384" xlink:href="#m6e1bd5f61e" y="191.840029"/>
     <use style="fill:#ee3377;stroke:#ee3377;stroke-linejoin:miter;" x="176.679303" xlink:href="#m6e1bd5f61e" y="160.361766"/>
     <use style="fill:#ee3377;stroke:#ee3377;stroke-linejoin:miter;" x="194.704222" xlink:href="#m6e1bd5f61e" y="149.274928"/>
     <use style="fill:#ee3377;stroke:#ee3377;stroke-linejoin:miter;" x="212.729142" xlink:href="#m6e1bd5f61e" y="148.136564"/>
     <use style="fill:#ee3377;stroke:#ee3377;stroke-linejoin:miter;" x="230.754061" xlink:href="#m6e1bd5f61e" y="149.292967"/>
     <use style="fill:#ee3377;stroke:#ee3377;stroke-linejoin:miter;" x="248.77898" xlink:href="#m6e1bd5f61e" y="142.59163"/>
     <use style="fill:#ee3377;stroke:#ee3377;stroke-linejoin:miter;" x="266.803899" xlink:href="#m6e1bd5f61e" y="182.58128"/>
     <use style="fill:#ee3377;stroke:#ee3377;stroke-linejoin:miter;" x="284.828819" xlink:href="#m6e1bd5f61e" y="230.539771"/>
     <use style="fill:#ee3377;stroke:#ee3377;stroke-linejoin:miter;" x="302.853738" xlink:href="#m6e1bd5f61e" y="209.589935"/>
     <use style="fill:#ee3377;stroke:#ee3377;stroke-linejoin:miter;" x="320.878657" xlink:href="#m6e1bd5f61e" y="168.76163"/>
     <use style="fill:#ee3377;stroke:#ee3377;stroke-linejoin:miter;" x="338.903576" xlink:href="#m6e1bd5f61e" y="148.51478"/>
     <use style="fill:#ee3377;stroke:#ee3377;stroke-linejoin:miter;" x="356.928496" xlink:href="#m6e1bd5f61e" y="142.610426"/>
     <use style="fill:#ee3377;stroke:#ee3377;stroke-linejoin:miter;" x="374.953415" xlink:href="#m6e1bd5f61e" y="141.370919"/>
     <use style="fill:#ee3377;stroke:#ee3377;stroke-linejoin:miter;" x="392.978334" xlink:href="#m6e1bd5f61e" y="135.426693"/>
     <use style="fill:#ee3377;stroke:#ee3377;stroke-linejoin:miter;" x="411.003253" xlink:href="#m6e1bd5f61e" y="132.881011"/>
     <use style="fill:#ee3377;stroke:#ee3377;stroke-linejoin:miter;" x="429.028173" xlink:href="#m6e1bd5f61e" y="130.290727"/>
     <use style="fill:#ee3377;stroke:#ee3377;stroke-linejoin:miter;" x="447.053092" xlink:href="#m6e1bd5f61e" y="125.651311"/>
     <use style="fill:#ee3377;stroke:#ee3377;stroke-linejoin:miter;" x="465.078011" xlink:href="#m6e1bd5f61e" y="132.085747"/>
    </g>
   </g>
   <g id="line2d_44"/>
   <g id="line2d_45"/>
   <g id="line2d_46"/>
   <g id="line2d_47"/>
   <g id="line2d_48">
    <path clip-path="url(#p1903202cb4)" d="M 243.371504 389.251812 
L 243.371504 112.051812 
" style="fill:none;stroke:#000000;stroke-dasharray:2.5,5;stroke-dashoffset:0;stroke-width:0.5;"/>
   </g>
   <g id="line2d_49">
    <path clip-path="url(#p1903202cb4)" d="M 297.446262 389.251812 
L 297.446262 112.051812 
" style="fill:none;stroke:#000000;stroke-dasharray:2.5,5;stroke-dashoffset:0;stroke-width:0.5;"/>
   </g>
   <g id="patch_4">
    <path d="M 104.85 389.251813 
L 104.85 112.051813 
" style="fill:none;stroke:#000000;stroke-linecap:square;stroke-linejoin:miter;stroke-width:0.8;"/>
   </g>
   <g id="patch_5">
    <path d="M 495.45 389.251813 
L 495.45 112.051813 
" style="fill:none;stroke:#000000;stroke-linecap:square;stroke-linejoin:miter;stroke-width:0.8;"/>
   </g>
   <g id="patch_6">
    <path d="M 104.85 389.251812 
L 495.45 389.251812 
" style="fill:none;stroke:#000000;stroke-linecap:square;stroke-linejoin:miter;stroke-width:0.8;"/>
   </g>
   <g id="patch_7">
    <path d="M 104.85 112.051812 
L 495.45 112.051812 
" style="fill:none;stroke:#000000;stroke-linecap:square;stroke-linejoin:miter;stroke-width:0.8;"/>
   </g>
   <g id="legend_1">
    <g id="line2d_50"/>
    <g id="line2d_51"/>
    <g id="text_20">
     <!--   -->
     <g transform="translate(48.8 22.277969)scale(0.13 -0.13)">
      <use xlink:href="#DejaVuSans-32"/>
     </g>
    </g>
    <g id="line2d_52"/>
    <g id="line2d_53"/>
    <g id="text_21">
     <!-- start -->
     <g transform="translate(48.8 41.359531)scale(0.13 -0.13)">
      <use xlink:href="#DejaVuSans-115"/>
      <use x="52.099609" xlink:href="#DejaVuSans-116"/>
      <use x="91.308594" xlink:href="#DejaVuSans-97"/>
      <use x="152.587891" xlink:href="#DejaVuSans-114"/>
      <use x="193.701172" xlink:href="#DejaVuSans-116"/>
     </g>
    </g>
    <g id="line2d_54"/>
    <g id="line2d_55"/>
    <g id="text_22">
     <!-- pre-dirft -->
     <g transform="translate(48.8 60.441094)scale(0.13 -0.13)">
      <use xlink:href="#DejaVuSans-112"/>
      <use x="63.476562" xlink:href="#DejaVuSans-114"/>
      <use x="102.339844" xlink:href="#DejaVuSans-101"/>
      <use x="163.863281" xlink:href="#DejaVuSans-45"/>
      <use x="199.947266" xlink:href="#DejaVuSans-100"/>
      <use x="263.423828" xlink:href="#DejaVuSans-105"/>
      <use x="291.207031" xlink:href="#DejaVuSans-114"/>
      <use x="332.320312" xlink:href="#DejaVuSans-102"/>
      <use x="365.775391" xlink:href="#DejaVuSans-116"/>
     </g>
    </g>
    <g id="line2d_56"/>
    <g id="line2d_57"/>
    <g id="text_23">
     <!-- post-drift -->
     <g transform="translate(48.8 79.522656)scale(0.13 -0.13)">
      <use xlink:href="#DejaVuSans-112"/>
      <use x="63.476562" xlink:href="#DejaVuSans-111"/>
      <use x="124.658203" xlink:href="#DejaVuSans-115"/>
      <use x="176.757812" xlink:href="#DejaVuSans-116"/>
      <use x="215.966797" xlink:href="#DejaVuSans-45"/>
      <use x="252.050781" xlink:href="#DejaVuSans-100"/>
      <use x="315.527344" xlink:href="#DejaVuSans-114"/>
      <use x="356.640625" xlink:href="#DejaVuSans-105"/>
      <use x="384.423828" xlink:href="#DejaVuSans-102"/>
      <use x="417.878906" xlink:href="#DejaVuSans-116"/>
     </g>
    </g>
    <g id="line2d_58"/>
    <g id="line2d_59"/>
    <g id="text_24">
     <!-- end -->
     <g transform="translate(48.8 98.604219)scale(0.13 -0.13)">
      <use xlink:href="#DejaVuSans-101"/>
      <use x="61.523438" xlink:href="#DejaVuSans-110"/>
      <use x="124.902344" xlink:href="#DejaVuSans-100"/>
     </g>
    </g>
    <g id="line2d_60">
     <path d="M 102.738313 17.727969 
L 128.738313 17.727969 
" style="fill:none;stroke:#cc3311;stroke-linecap:square;stroke-width:0.5;"/>
    </g>
    <g id="line2d_61">
     <g>
      <use style="fill:#cc3311;stroke:#cc3311;" x="115.738313" xlink:href="#m3143796c5f" y="17.727969"/>
     </g>
    </g>
    <g id="text_25">
     <!-- UOB -->
     <g transform="translate(139.138313 22.277969)scale(0.13 -0.13)">
      <defs>
       <path d="M 8.6875 72.90625 
L 18.609375 72.90625 
L 18.609375 28.609375 
Q 18.609375 16.890625 22.84375 11.734375 
Q 27.09375 6.59375 36.625 6.59375 
Q 46.09375 6.59375 50.34375 11.734375 
Q 54.59375 16.890625 54.59375 28.609375 
L 54.59375 72.90625 
L 64.5 72.90625 
L 64.5 27.390625 
Q 64.5 13.140625 57.4375 5.859375 
Q 50.390625 -1.421875 36.625 -1.421875 
Q 22.796875 -1.421875 15.734375 5.859375 
Q 8.6875 13.140625 8.6875 27.390625 
z
" id="DejaVuSans-85"/>
       <path d="M 39.40625 66.21875 
Q 28.65625 66.21875 22.328125 58.203125 
Q 16.015625 50.203125 16.015625 36.375 
Q 16.015625 22.609375 22.328125 14.59375 
Q 28.65625 6.59375 39.40625 6.59375 
Q 50.140625 6.59375 56.421875 14.59375 
Q 62.703125 22.609375 62.703125 36.375 
Q 62.703125 50.203125 56.421875 58.203125 
Q 50.140625 66.21875 39.40625 66.21875 
z
M 39.40625 74.21875 
Q 54.734375 74.21875 63.90625 63.9375 
Q 73.09375 53.65625 73.09375 36.375 
Q 73.09375 19.140625 63.90625 8.859375 
Q 54.734375 -1.421875 39.40625 -1.421875 
Q 24.03125 -1.421875 14.8125 8.828125 
Q 5.609375 19.09375 5.609375 36.375 
Q 5.609375 53.65625 14.8125 63.9375 
Q 24.03125 74.21875 39.40625 74.21875 
z
" id="DejaVuSans-79"/>
       <path d="M 19.671875 34.8125 
L 19.671875 8.109375 
L 35.5 8.109375 
Q 43.453125 8.109375 47.28125 11.40625 
Q 51.125 14.703125 51.125 21.484375 
Q 51.125 28.328125 47.28125 31.5625 
Q 43.453125 34.8125 35.5 34.8125 
z
M 19.671875 64.796875 
L 19.671875 42.828125 
L 34.28125 42.828125 
Q 41.5 42.828125 45.03125 45.53125 
Q 48.578125 48.25 48.578125 53.8125 
Q 48.578125 59.328125 45.03125 62.0625 
Q 41.5 64.796875 34.28125 64.796875 
z
M 9.8125 72.90625 
L 35.015625 72.90625 
Q 46.296875 72.90625 52.390625 68.21875 
Q 58.5 63.53125 58.5 54.890625 
Q 58.5 48.1875 55.375 44.234375 
Q 52.25 40.28125 46.1875 39.3125 
Q 53.46875 37.75 57.5 32.78125 
Q 61.53125 27.828125 61.53125 20.40625 
Q 61.53125 10.640625 54.890625 5.3125 
Q 48.25 0 35.984375 0 
L 9.8125 0 
z
" id="DejaVuSans-66"/>
      </defs>
      <use xlink:href="#DejaVuSans-85"/>
      <use x="73.193359" xlink:href="#DejaVuSans-79"/>
      <use x="151.904297" xlink:href="#DejaVuSans-66"/>
     </g>
    </g>
    <g id="line2d_62"/>
    <g id="line2d_63"/>
    <g id="text_26">
     <!-- 0.9671 -->
     <g transform="translate(139.138313 41.359531)scale(0.13 -0.13)">
      <use xlink:href="#DejaVuSans-48"/>
      <use x="63.623047" xlink:href="#DejaVuSans-46"/>
      <use x="95.410156" xlink:href="#DejaVuSans-57"/>
      <use x="159.033203" xlink:href="#DejaVuSans-54"/>
      <use x="222.65625" xlink:href="#DejaVuSans-55"/>
      <use x="286.279297" xlink:href="#DejaVuSans-49"/>
     </g>
    </g>
    <g id="line2d_64"/>
    <g id="line2d_65"/>
    <g id="text_27">
     <!-- 0.9618 -->
     <g transform="translate(139.138313 60.441094)scale(0.13 -0.13)">
      <use xlink:href="#DejaVuSans-48"/>
      <use x="63.623047" xlink:href="#DejaVuSans-46"/>
      <use x="95.410156" xlink:href="#DejaVuSans-57"/>
      <use x="159.033203" xlink:href="#DejaVuSans-54"/>
      <use x="222.65625" xlink:href="#DejaVuSans-49"/>
      <use x="286.279297" xlink:href="#DejaVuSans-56"/>
     </g>
    </g>
    <g id="line2d_66"/>
    <g id="line2d_67"/>
    <g id="text_28">
     <!-- 0.9497 -->
     <g transform="translate(139.138313 79.522656)scale(0.13 -0.13)">
      <use xlink:href="#DejaVuSans-48"/>
      <use x="63.623047" xlink:href="#DejaVuSans-46"/>
      <use x="95.410156" xlink:href="#DejaVuSans-57"/>
      <use x="159.033203" xlink:href="#DejaVuSans-52"/>
      <use x="222.65625" xlink:href="#DejaVuSans-57"/>
      <use x="286.279297" xlink:href="#DejaVuSans-55"/>
     </g>
    </g>
    <g id="line2d_68"/>
    <g id="line2d_69"/>
    <g id="text_29">
     <!-- 0.9912 -->
     <g transform="translate(139.138313 98.604219)scale(0.13 -0.13)">
      <use xlink:href="#DejaVuSans-48"/>
      <use x="63.623047" xlink:href="#DejaVuSans-46"/>
      <use x="95.410156" xlink:href="#DejaVuSans-57"/>
      <use x="159.033203" xlink:href="#DejaVuSans-57"/>
      <use x="222.65625" xlink:href="#DejaVuSans-49"/>
      <use x="286.279297" xlink:href="#DejaVuSans-50"/>
     </g>
    </g>
    <g id="line2d_70">
     <path d="M 179.144281 17.727969 
L 205.144281 17.727969 
" style="fill:none;stroke:#009988;stroke-dasharray:1.85,0.8;stroke-dashoffset:0;stroke-width:0.5;"/>
    </g>
    <g id="line2d_71">
     <g>
      <use style="fill:#009988;stroke:#009988;stroke-linejoin:miter;" x="192.144281" xlink:href="#m2aa68ec7c3" y="17.727969"/>
     </g>
    </g>
    <g id="text_30">
     <!-- OOB -->
     <g transform="translate(215.544281 22.277969)scale(0.13 -0.13)">
      <use xlink:href="#DejaVuSans-79"/>
      <use x="78.710938" xlink:href="#DejaVuSans-79"/>
      <use x="157.421875" xlink:href="#DejaVuSans-66"/>
     </g>
    </g>
    <g id="line2d_72"/>
    <g id="line2d_73"/>
    <g id="text_31">
     <!-- 0.9289 -->
     <g transform="translate(215.544281 41.359531)scale(0.13 -0.13)">
      <use xlink:href="#DejaVuSans-48"/>
      <use x="63.623047" xlink:href="#DejaVuSans-46"/>
      <use x="95.410156" xlink:href="#DejaVuSans-57"/>
      <use x="159.033203" xlink:href="#DejaVuSans-50"/>
      <use x="222.65625" xlink:href="#DejaVuSans-56"/>
      <use x="286.279297" xlink:href="#DejaVuSans-57"/>
     </g>
    </g>
    <g id="line2d_74"/>
    <g id="line2d_75"/>
    <g id="text_32">
     <!-- 0.9867 -->
     <g transform="translate(215.544281 60.441094)scale(0.13 -0.13)">
      <use xlink:href="#DejaVuSans-48"/>
      <use x="63.623047" xlink:href="#DejaVuSans-46"/>
      <use x="95.410156" xlink:href="#DejaVuSans-57"/>
      <use x="159.033203" xlink:href="#DejaVuSans-56"/>
      <use x="222.65625" xlink:href="#DejaVuSans-54"/>
      <use x="286.279297" xlink:href="#DejaVuSans-55"/>
     </g>
    </g>
    <g id="line2d_76"/>
    <g id="line2d_77"/>
    <g id="text_33">
     <!-- 0.9556 -->
     <g transform="translate(215.544281 79.522656)scale(0.13 -0.13)">
      <use xlink:href="#DejaVuSans-48"/>
      <use x="63.623047" xlink:href="#DejaVuSans-46"/>
      <use x="95.410156" xlink:href="#DejaVuSans-57"/>
      <use x="159.033203" xlink:href="#DejaVuSans-53"/>
      <use x="222.65625" xlink:href="#DejaVuSans-53"/>
      <use x="286.279297" xlink:href="#DejaVuSans-54"/>
     </g>
    </g>
    <g id="line2d_78"/>
    <g id="line2d_79"/>
    <g id="text_34">
     <!-- 0.9924 -->
     <g transform="translate(215.544281 98.604219)scale(0.13 -0.13)">
      <use xlink:href="#DejaVuSans-48"/>
      <use x="63.623047" xlink:href="#DejaVuSans-46"/>
      <use x="95.410156" xlink:href="#DejaVuSans-57"/>
      <use x="159.033203" xlink:href="#DejaVuSans-57"/>
      <use x="222.65625" xlink:href="#DejaVuSans-50"/>
      <use x="286.279297" xlink:href="#DejaVuSans-52"/>
     </g>
    </g>
    <g id="line2d_80">
     <path d="M 255.55025 17.727969 
L 281.55025 17.727969 
" style="fill:none;stroke:#0077bb;stroke-dasharray:3.2,0.8,0.5,0.8;stroke-dashoffset:0;stroke-width:0.5;"/>
    </g>
    <g id="line2d_81">
     <g>
      <use style="fill:#0077bb;stroke:#0077bb;stroke-linejoin:miter;" x="268.55025" xlink:href="#md3aa8c72d4" y="17.727969"/>
     </g>
    </g>
    <g id="text_35">
     <!-- NUOB -->
     <g transform="translate(291.95025 22.277969)scale(0.13 -0.13)">
      <use xlink:href="#DejaVuSans-78"/>
      <use x="74.804688" xlink:href="#DejaVuSans-85"/>
      <use x="147.998047" xlink:href="#DejaVuSans-79"/>
      <use x="226.708984" xlink:href="#DejaVuSans-66"/>
     </g>
    </g>
    <g id="line2d_82"/>
    <g id="line2d_83"/>
    <g id="text_36">
     <!-- 0.9636 -->
     <g transform="translate(291.95025 41.359531)scale(0.13 -0.13)">
      <use xlink:href="#DejaVuSans-48"/>
      <use x="63.623047" xlink:href="#DejaVuSans-46"/>
      <use x="95.410156" xlink:href="#DejaVuSans-57"/>
      <use x="159.033203" xlink:href="#DejaVuSans-54"/>
      <use x="222.65625" xlink:href="#DejaVuSans-51"/>
      <use x="286.279297" xlink:href="#DejaVuSans-54"/>
     </g>
    </g>
    <g id="line2d_84"/>
    <g id="line2d_85"/>
    <g id="text_37">
     <!-- 0.9570 -->
     <g transform="translate(291.95025 60.441094)scale(0.13 -0.13)">
      <use xlink:href="#DejaVuSans-48"/>
      <use x="63.623047" xlink:href="#DejaVuSans-46"/>
      <use x="95.410156" xlink:href="#DejaVuSans-57"/>
      <use x="159.033203" xlink:href="#DejaVuSans-53"/>
      <use x="222.65625" xlink:href="#DejaVuSans-55"/>
      <use x="286.279297" xlink:href="#DejaVuSans-48"/>
     </g>
    </g>
    <g id="line2d_86"/>
    <g id="line2d_87"/>
    <g id="text_38">
     <!-- 0.9536 -->
     <g transform="translate(291.95025 79.522656)scale(0.13 -0.13)">
      <use xlink:href="#DejaVuSans-48"/>
      <use x="63.623047" xlink:href="#DejaVuSans-46"/>
      <use x="95.410156" xlink:href="#DejaVuSans-57"/>
      <use x="159.033203" xlink:href="#DejaVuSans-53"/>
      <use x="222.65625" xlink:href="#DejaVuSans-51"/>
      <use x="286.279297" xlink:href="#DejaVuSans-54"/>
     </g>
    </g>
    <g id="line2d_88"/>
    <g id="line2d_89"/>
    <g id="text_39">
     <!-- 0.9931 -->
     <g transform="translate(291.95025 98.604219)scale(0.13 -0.13)">
      <use xlink:href="#DejaVuSans-48"/>
      <use x="63.623047" xlink:href="#DejaVuSans-46"/>
      <use x="95.410156" xlink:href="#DejaVuSans-57"/>
      <use x="159.033203" xlink:href="#DejaVuSans-57"/>
      <use x="222.65625" xlink:href="#DejaVuSans-51"/>
      <use x="286.279297" xlink:href="#DejaVuSans-49"/>
     </g>
    </g>
    <g id="line2d_90">
     <path d="M 331.956219 17.727969 
L 357.956219 17.727969 
" style="fill:none;stroke:#ee7733;stroke-dasharray:0.5,0.825;stroke-dashoffset:0;stroke-width:0.5;"/>
    </g>
    <g id="line2d_91">
     <g>
      <use style="fill:#ee7733;stroke:#ee7733;stroke-linejoin:bevel;" x="344.956219" xlink:href="#m83f11f1e1a" y="17.727969"/>
     </g>
    </g>
    <g id="text_40">
     <!-- NOOB -->
     <g transform="translate(368.356219 22.277969)scale(0.13 -0.13)">
      <use xlink:href="#DejaVuSans-78"/>
      <use x="74.804688" xlink:href="#DejaVuSans-79"/>
      <use x="153.515625" xlink:href="#DejaVuSans-79"/>
      <use x="232.226562" xlink:href="#DejaVuSans-66"/>
     </g>
    </g>
    <g id="line2d_92"/>
    <g id="line2d_93"/>
    <g id="text_41">
     <!-- 0.9480 -->
     <g transform="translate(368.356219 41.359531)scale(0.13 -0.13)">
      <use xlink:href="#DejaVuSans-48"/>
      <use x="63.623047" xlink:href="#DejaVuSans-46"/>
      <use x="95.410156" xlink:href="#DejaVuSans-57"/>
      <use x="159.033203" xlink:href="#DejaVuSans-52"/>
      <use x="222.65625" xlink:href="#DejaVuSans-56"/>
      <use x="286.279297" xlink:href="#DejaVuSans-48"/>
     </g>
    </g>
    <g id="line2d_94"/>
    <g id="line2d_95"/>
    <g id="text_42">
     <!-- 0.9904 -->
     <g transform="translate(368.356219 60.441094)scale(0.13 -0.13)">
      <use xlink:href="#DejaVuSans-48"/>
      <use x="63.623047" xlink:href="#DejaVuSans-46"/>
      <use x="95.410156" xlink:href="#DejaVuSans-57"/>
      <use x="159.033203" xlink:href="#DejaVuSans-57"/>
      <use x="222.65625" xlink:href="#DejaVuSans-48"/>
      <use x="286.279297" xlink:href="#DejaVuSans-52"/>
     </g>
    </g>
    <g id="line2d_96"/>
    <g id="line2d_97"/>
    <g id="text_43">
     <!-- 0.9616 -->
     <g transform="translate(368.356219 79.522656)scale(0.13 -0.13)">
      <use xlink:href="#DejaVuSans-48"/>
      <use x="63.623047" xlink:href="#DejaVuSans-46"/>
      <use x="95.410156" xlink:href="#DejaVuSans-57"/>
      <use x="159.033203" xlink:href="#DejaVuSans-54"/>
      <use x="222.65625" xlink:href="#DejaVuSans-49"/>
      <use x="286.279297" xlink:href="#DejaVuSans-54"/>
     </g>
    </g>
    <g id="line2d_98"/>
    <g id="line2d_99"/>
    <g id="text_44">
     <!-- 0.9897 -->
     <g transform="translate(368.356219 98.604219)scale(0.13 -0.13)">
      <use xlink:href="#DejaVuSans-48"/>
      <use x="63.623047" xlink:href="#DejaVuSans-46"/>
      <use x="95.410156" xlink:href="#DejaVuSans-57"/>
      <use x="159.033203" xlink:href="#DejaVuSans-56"/>
      <use x="222.65625" xlink:href="#DejaVuSans-57"/>
      <use x="286.279297" xlink:href="#DejaVuSans-55"/>
     </g>
    </g>
    <g id="line2d_100">
     <path d="M 408.362188 17.727969 
L 434.362188 17.727969 
" style="fill:none;stroke:#ee3377;stroke-dasharray:3.2,0.8,0.5,0.8;stroke-dashoffset:0;stroke-width:0.5;"/>
    </g>
    <g id="line2d_101">
     <g>
      <use style="fill:#ee3377;stroke:#ee3377;stroke-linejoin:miter;" x="421.362188" xlink:href="#m6e1bd5f61e" y="17.727969"/>
     </g>
    </g>
    <g id="text_45">
     <!-- HNOB -->
     <g transform="translate(444.762188 22.277969)scale(0.13 -0.13)">
      <defs>
       <path d="M 9.8125 72.90625 
L 19.671875 72.90625 
L 19.671875 43.015625 
L 55.515625 43.015625 
L 55.515625 72.90625 
L 65.375 72.90625 
L 65.375 0 
L 55.515625 0 
L 55.515625 34.71875 
L 19.671875 34.71875 
L 19.671875 0 
L 9.8125 0 
z
" id="DejaVuSans-72"/>
      </defs>
      <use xlink:href="#DejaVuSans-72"/>
      <use x="75.195312" xlink:href="#DejaVuSans-78"/>
      <use x="150" xlink:href="#DejaVuSans-79"/>
      <use x="228.710938" xlink:href="#DejaVuSans-66"/>
     </g>
    </g>
    <g id="line2d_102"/>
    <g id="line2d_103"/>
    <g id="text_46">
     <!-- 0.9636 -->
     <g transform="translate(444.762188 41.359531)scale(0.13 -0.13)">
      <use xlink:href="#DejaVuSans-48"/>
      <use x="63.623047" xlink:href="#DejaVuSans-46"/>
      <use x="95.410156" xlink:href="#DejaVuSans-57"/>
      <use x="159.033203" xlink:href="#DejaVuSans-54"/>
      <use x="222.65625" xlink:href="#DejaVuSans-51"/>
      <use x="286.279297" xlink:href="#DejaVuSans-54"/>
     </g>
    </g>
    <g id="line2d_104"/>
    <g id="line2d_105"/>
    <g id="text_47">
     <!-- 0.9904 -->
     <g transform="translate(444.762188 60.441094)scale(0.13 -0.13)">
      <use xlink:href="#DejaVuSans-48"/>
      <use x="63.623047" xlink:href="#DejaVuSans-46"/>
      <use x="95.410156" xlink:href="#DejaVuSans-57"/>
      <use x="159.033203" xlink:href="#DejaVuSans-57"/>
      <use x="222.65625" xlink:href="#DejaVuSans-48"/>
      <use x="286.279297" xlink:href="#DejaVuSans-52"/>
     </g>
    </g>
    <g id="line2d_106"/>
    <g id="line2d_107"/>
    <g id="text_48">
     <!-- 0.9609 -->
     <g transform="translate(444.762188 79.522656)scale(0.13 -0.13)">
      <use xlink:href="#DejaVuSans-48"/>
      <use x="63.623047" xlink:href="#DejaVuSans-46"/>
      <use x="95.410156" xlink:href="#DejaVuSans-57"/>
      <use x="159.033203" xlink:href="#DejaVuSans-54"/>
      <use x="222.65625" xlink:href="#DejaVuSans-48"/>
      <use x="286.279297" xlink:href="#DejaVuSans-57"/>
     </g>
    </g>
    <g id="line2d_108"/>
    <g id="line2d_109"/>
    <g id="text_49">
     <!-- 0.9924 -->
     <g transform="translate(444.762188 98.604219)scale(0.13 -0.13)">
      <use xlink:href="#DejaVuSans-48"/>
      <use x="63.623047" xlink:href="#DejaVuSans-46"/>
      <use x="95.410156" xlink:href="#DejaVuSans-57"/>
      <use x="159.033203" xlink:href="#DejaVuSans-57"/>
      <use x="222.65625" xlink:href="#DejaVuSans-50"/>
      <use x="286.279297" xlink:href="#DejaVuSans-52"/>
     </g>
    </g>
   </g>
  </g>
 </g>
 <defs>
  <clipPath id="p1903202cb4">
   <rect height="277.2" width="390.6" x="104.85" y="112.051812"/>
  </clipPath>
 </defs>
</svg>
