<?xml version="1.0" encoding="utf-8" standalone="no"?>
<!DOCTYPE svg PUBLIC "-//W3C//DTD SVG 1.1//EN"
  "http://www.w3.org/Graphics/SVG/1.1/DTD/svg11.dtd">
<!-- Created with matplotlib (https://matplotlib.org/) -->
<svg height="432.614937pt" version="1.1" viewBox="0 0 502.65 432.614937" width="502.65pt" xmlns="http://www.w3.org/2000/svg" xmlns:xlink="http://www.w3.org/1999/xlink">
 <metadata>
  <rdf:RDF xmlns:cc="http://creativecommons.org/ns#" xmlns:dc="http://purl.org/dc/elements/1.1/" xmlns:rdf="http://www.w3.org/1999/02/22-rdf-syntax-ns#">
   <cc:Work>
    <dc:type rdf:resource="http://purl.org/dc/dcmitype/StillImage"/>
    <dc:date>2022-06-16T22:17:58.852192</dc:date>
    <dc:format>image/svg+xml</dc:format>
    <dc:creator>
     <cc:Agent>
      <dc:title>Matplotlib v3.3.3, https://matplotlib.org/</dc:title>
     </cc:Agent>
    </dc:creator>
   </cc:Work>
  </rdf:RDF>
 </metadata>
 <defs>
  <style type="text/css">*{stroke-linecap:butt;stroke-linejoin:round;}</style>
 </defs>
 <g id="figure_1">
  <g id="patch_1">
   <path d="M 0 432.614937 
L 502.65 432.614937 
L 502.65 0 
L 0 0 
z
" style="fill:#ffffff;"/>
  </g>
  <g id="axes_1">
   <g id="patch_2">
    <path d="M 104.85 389.251812 
L 495.45 389.251812 
L 495.45 112.051812 
L 104.85 112.051812 
z
" style="fill:#ffffff;"/>
   </g>
   <g id="patch_3">
    <path clip-path="url(#p77821c60cf)" d="M 297.446262 389.251812 
L 297.446262 112.051812 
L 243.371504 112.051812 
L 243.371504 389.251812 
z
" style="fill:#d3d3d3;opacity:0.5;"/>
   </g>
   <g id="matplotlib.axis_1">
    <g id="xtick_1">
     <g id="line2d_1">
      <defs>
       <path d="M 0 0 
L 0 3.5 
" id="m6afb6f96cb" style="stroke:#000000;stroke-width:0.8;"/>
      </defs>
      <g>
       <use style="stroke:#000000;stroke-width:0.8;" x="117.19707" xlink:href="#m6afb6f96cb" y="389.251812"/>
      </g>
     </g>
     <g id="text_1">
      <!-- 0 -->
      <g transform="translate(113.061445 406.129781)scale(0.13 -0.13)">
       <defs>
        <path d="M 31.78125 66.40625 
Q 24.171875 66.40625 20.328125 58.90625 
Q 16.5 51.421875 16.5 36.375 
Q 16.5 21.390625 20.328125 13.890625 
Q 24.171875 6.390625 31.78125 6.390625 
Q 39.453125 6.390625 43.28125 13.890625 
Q 47.125 21.390625 47.125 36.375 
Q 47.125 51.421875 43.28125 58.90625 
Q 39.453125 66.40625 31.78125 66.40625 
z
M 31.78125 74.21875 
Q 44.046875 74.21875 50.515625 64.515625 
Q 56.984375 54.828125 56.984375 36.375 
Q 56.984375 17.96875 50.515625 8.265625 
Q 44.046875 -1.421875 31.78125 -1.421875 
Q 19.53125 -1.421875 13.0625 8.265625 
Q 6.59375 17.96875 6.59375 36.375 
Q 6.59375 54.828125 13.0625 64.515625 
Q 19.53125 74.21875 31.78125 74.21875 
z
" id="DejaVuSans-48"/>
       </defs>
       <use xlink:href="#DejaVuSans-48"/>
      </g>
     </g>
    </g>
    <g id="xtick_2">
     <g id="line2d_2">
      <g>
       <use style="stroke:#000000;stroke-width:0.8;" x="162.259368" xlink:href="#m6afb6f96cb" y="389.251812"/>
      </g>
     </g>
     <g id="text_2">
      <!-- 25 -->
      <g transform="translate(153.988118 406.129781)scale(0.13 -0.13)">
       <defs>
        <path d="M 19.1875 8.296875 
L 53.609375 8.296875 
L 53.609375 0 
L 7.328125 0 
L 7.328125 8.296875 
Q 12.9375 14.109375 22.625 23.890625 
Q 32.328125 33.6875 34.8125 36.53125 
Q 39.546875 41.84375 41.421875 45.53125 
Q 43.3125 49.21875 43.3125 52.78125 
Q 43.3125 58.59375 39.234375 62.25 
Q 35.15625 65.921875 28.609375 65.921875 
Q 23.96875 65.921875 18.8125 64.3125 
Q 13.671875 62.703125 7.8125 59.421875 
L 7.8125 69.390625 
Q 13.765625 71.78125 18.9375 73 
Q 24.125 74.21875 28.421875 74.21875 
Q 39.75 74.21875 46.484375 68.546875 
Q 53.21875 62.890625 53.21875 53.421875 
Q 53.21875 48.921875 51.53125 44.890625 
Q 49.859375 40.875 45.40625 35.40625 
Q 44.1875 33.984375 37.640625 27.21875 
Q 31.109375 20.453125 19.1875 8.296875 
z
" id="DejaVuSans-50"/>
        <path d="M 10.796875 72.90625 
L 49.515625 72.90625 
L 49.515625 64.59375 
L 19.828125 64.59375 
L 19.828125 46.734375 
Q 21.96875 47.46875 24.109375 47.828125 
Q 26.265625 48.1875 28.421875 48.1875 
Q 40.625 48.1875 47.75 41.5 
Q 54.890625 34.8125 54.890625 23.390625 
Q 54.890625 11.625 47.5625 5.09375 
Q 40.234375 -1.421875 26.90625 -1.421875 
Q 22.3125 -1.421875 17.546875 -0.640625 
Q 12.796875 0.140625 7.71875 1.703125 
L 7.71875 11.625 
Q 12.109375 9.234375 16.796875 8.0625 
Q 21.484375 6.890625 26.703125 6.890625 
Q 35.15625 6.890625 40.078125 11.328125 
Q 45.015625 15.765625 45.015625 23.390625 
Q 45.015625 31 40.078125 35.4375 
Q 35.15625 39.890625 26.703125 39.890625 
Q 22.75 39.890625 18.8125 39.015625 
Q 14.890625 38.140625 10.796875 36.28125 
z
" id="DejaVuSans-53"/>
       </defs>
       <use xlink:href="#DejaVuSans-50"/>
       <use x="63.623047" xlink:href="#DejaVuSans-53"/>
      </g>
     </g>
    </g>
    <g id="xtick_3">
     <g id="line2d_3">
      <g>
       <use style="stroke:#000000;stroke-width:0.8;" x="207.321666" xlink:href="#m6afb6f96cb" y="389.251812"/>
      </g>
     </g>
     <g id="text_3">
      <!-- 50 -->
      <g transform="translate(199.050416 406.129781)scale(0.13 -0.13)">
       <use xlink:href="#DejaVuSans-53"/>
       <use x="63.623047" xlink:href="#DejaVuSans-48"/>
      </g>
     </g>
    </g>
    <g id="xtick_4">
     <g id="line2d_4">
      <g>
       <use style="stroke:#000000;stroke-width:0.8;" x="252.383964" xlink:href="#m6afb6f96cb" y="389.251812"/>
      </g>
     </g>
     <g id="text_4">
      <!-- 75 -->
      <g transform="translate(244.112714 406.129781)scale(0.13 -0.13)">
       <defs>
        <path d="M 8.203125 72.90625 
L 55.078125 72.90625 
L 55.078125 68.703125 
L 28.609375 0 
L 18.3125 0 
L 43.21875 64.59375 
L 8.203125 64.59375 
z
" id="DejaVuSans-55"/>
       </defs>
       <use xlink:href="#DejaVuSans-55"/>
       <use x="63.623047" xlink:href="#DejaVuSans-53"/>
      </g>
     </g>
    </g>
    <g id="xtick_5">
     <g id="line2d_5">
      <g>
       <use style="stroke:#000000;stroke-width:0.8;" x="297.446262" xlink:href="#m6afb6f96cb" y="389.251812"/>
      </g>
     </g>
     <g id="text_5">
      <!-- 100 -->
      <g transform="translate(285.039387 406.129781)scale(0.13 -0.13)">
       <defs>
        <path d="M 12.40625 8.296875 
L 28.515625 8.296875 
L 28.515625 63.921875 
L 10.984375 60.40625 
L 10.984375 69.390625 
L 28.421875 72.90625 
L 38.28125 72.90625 
L 38.28125 8.296875 
L 54.390625 8.296875 
L 54.390625 0 
L 12.40625 0 
z
" id="DejaVuSans-49"/>
       </defs>
       <use xlink:href="#DejaVuSans-49"/>
       <use x="63.623047" xlink:href="#DejaVuSans-48"/>
       <use x="127.246094" xlink:href="#DejaVuSans-48"/>
      </g>
     </g>
    </g>
    <g id="xtick_6">
     <g id="line2d_6">
      <g>
       <use style="stroke:#000000;stroke-width:0.8;" x="342.50856" xlink:href="#m6afb6f96cb" y="389.251812"/>
      </g>
     </g>
     <g id="text_6">
      <!-- 125 -->
      <g transform="translate(330.101685 406.129781)scale(0.13 -0.13)">
       <use xlink:href="#DejaVuSans-49"/>
       <use x="63.623047" xlink:href="#DejaVuSans-50"/>
       <use x="127.246094" xlink:href="#DejaVuSans-53"/>
      </g>
     </g>
    </g>
    <g id="xtick_7">
     <g id="line2d_7">
      <g>
       <use style="stroke:#000000;stroke-width:0.8;" x="387.570858" xlink:href="#m6afb6f96cb" y="389.251812"/>
      </g>
     </g>
     <g id="text_7">
      <!-- 150 -->
      <g transform="translate(375.163983 406.129781)scale(0.13 -0.13)">
       <use xlink:href="#DejaVuSans-49"/>
       <use x="63.623047" xlink:href="#DejaVuSans-53"/>
       <use x="127.246094" xlink:href="#DejaVuSans-48"/>
      </g>
     </g>
    </g>
    <g id="xtick_8">
     <g id="line2d_8">
      <g>
       <use style="stroke:#000000;stroke-width:0.8;" x="432.633156" xlink:href="#m6afb6f96cb" y="389.251812"/>
      </g>
     </g>
     <g id="text_8">
      <!-- 175 -->
      <g transform="translate(420.226281 406.129781)scale(0.13 -0.13)">
       <use xlink:href="#DejaVuSans-49"/>
       <use x="63.623047" xlink:href="#DejaVuSans-55"/>
       <use x="127.246094" xlink:href="#DejaVuSans-53"/>
      </g>
     </g>
    </g>
    <g id="xtick_9">
     <g id="line2d_9">
      <g>
       <use style="stroke:#000000;stroke-width:0.8;" x="477.695455" xlink:href="#m6afb6f96cb" y="389.251812"/>
      </g>
     </g>
     <g id="text_9">
      <!-- 200 -->
      <g transform="translate(465.28858 406.129781)scale(0.13 -0.13)">
       <use xlink:href="#DejaVuSans-50"/>
       <use x="63.623047" xlink:href="#DejaVuSans-48"/>
       <use x="127.246094" xlink:href="#DejaVuSans-48"/>
      </g>
     </g>
    </g>
    <g id="text_10">
     <!-- Number of processed instances [x1000] -->
     <g transform="translate(170.025078 422.711344)scale(0.13 -0.13)">
      <defs>
       <path d="M 9.8125 72.90625 
L 23.09375 72.90625 
L 55.421875 11.921875 
L 55.421875 72.90625 
L 64.984375 72.90625 
L 64.984375 0 
L 51.703125 0 
L 19.390625 60.984375 
L 19.390625 0 
L 9.8125 0 
z
" id="DejaVuSans-78"/>
       <path d="M 8.5 21.578125 
L 8.5 54.6875 
L 17.484375 54.6875 
L 17.484375 21.921875 
Q 17.484375 14.15625 20.5 10.265625 
Q 23.53125 6.390625 29.59375 6.390625 
Q 36.859375 6.390625 41.078125 11.03125 
Q 45.3125 15.671875 45.3125 23.6875 
L 45.3125 54.6875 
L 54.296875 54.6875 
L 54.296875 0 
L 45.3125 0 
L 45.3125 8.40625 
Q 42.046875 3.421875 37.71875 1 
Q 33.40625 -1.421875 27.6875 -1.421875 
Q 18.265625 -1.421875 13.375 4.4375 
Q 8.5 10.296875 8.5 21.578125 
z
M 31.109375 56 
z
" id="DejaVuSans-117"/>
       <path d="M 52 44.1875 
Q 55.375 50.25 60.0625 53.125 
Q 64.75 56 71.09375 56 
Q 79.640625 56 84.28125 50.015625 
Q 88.921875 44.046875 88.921875 33.015625 
L 88.921875 0 
L 79.890625 0 
L 79.890625 32.71875 
Q 79.890625 40.578125 77.09375 44.375 
Q 74.3125 48.1875 68.609375 48.1875 
Q 61.625 48.1875 57.5625 43.546875 
Q 53.515625 38.921875 53.515625 30.90625 
L 53.515625 0 
L 44.484375 0 
L 44.484375 32.71875 
Q 44.484375 40.625 41.703125 44.40625 
Q 38.921875 48.1875 33.109375 48.1875 
Q 26.21875 48.1875 22.15625 43.53125 
Q 18.109375 38.875 18.109375 30.90625 
L 18.109375 0 
L 9.078125 0 
L 9.078125 54.6875 
L 18.109375 54.6875 
L 18.109375 46.1875 
Q 21.1875 51.21875 25.484375 53.609375 
Q 29.78125 56 35.6875 56 
Q 41.65625 56 45.828125 52.96875 
Q 50 49.953125 52 44.1875 
z
" id="DejaVuSans-109"/>
       <path d="M 48.6875 27.296875 
Q 48.6875 37.203125 44.609375 42.84375 
Q 40.53125 48.484375 33.40625 48.484375 
Q 26.265625 48.484375 22.1875 42.84375 
Q 18.109375 37.203125 18.109375 27.296875 
Q 18.109375 17.390625 22.1875 11.75 
Q 26.265625 6.109375 33.40625 6.109375 
Q 40.53125 6.109375 44.609375 11.75 
Q 48.6875 17.390625 48.6875 27.296875 
z
M 18.109375 46.390625 
Q 20.953125 51.265625 25.265625 53.625 
Q 29.59375 56 35.59375 56 
Q 45.5625 56 51.78125 48.09375 
Q 58.015625 40.1875 58.015625 27.296875 
Q 58.015625 14.40625 51.78125 6.484375 
Q 45.5625 -1.421875 35.59375 -1.421875 
Q 29.59375 -1.421875 25.265625 0.953125 
Q 20.953125 3.328125 18.109375 8.203125 
L 18.109375 0 
L 9.078125 0 
L 9.078125 75.984375 
L 18.109375 75.984375 
z
" id="DejaVuSans-98"/>
       <path d="M 56.203125 29.59375 
L 56.203125 25.203125 
L 14.890625 25.203125 
Q 15.484375 15.921875 20.484375 11.0625 
Q 25.484375 6.203125 34.421875 6.203125 
Q 39.59375 6.203125 44.453125 7.46875 
Q 49.3125 8.734375 54.109375 11.28125 
L 54.109375 2.78125 
Q 49.265625 0.734375 44.1875 -0.34375 
Q 39.109375 -1.421875 33.890625 -1.421875 
Q 20.796875 -1.421875 13.15625 6.1875 
Q 5.515625 13.8125 5.515625 26.8125 
Q 5.515625 40.234375 12.765625 48.109375 
Q 20.015625 56 32.328125 56 
Q 43.359375 56 49.78125 48.890625 
Q 56.203125 41.796875 56.203125 29.59375 
z
M 47.21875 32.234375 
Q 47.125 39.59375 43.09375 43.984375 
Q 39.0625 48.390625 32.421875 48.390625 
Q 24.90625 48.390625 20.390625 44.140625 
Q 15.875 39.890625 15.1875 32.171875 
z
" id="DejaVuSans-101"/>
       <path d="M 41.109375 46.296875 
Q 39.59375 47.171875 37.8125 47.578125 
Q 36.03125 48 33.890625 48 
Q 26.265625 48 22.1875 43.046875 
Q 18.109375 38.09375 18.109375 28.8125 
L 18.109375 0 
L 9.078125 0 
L 9.078125 54.6875 
L 18.109375 54.6875 
L 18.109375 46.1875 
Q 20.953125 51.171875 25.484375 53.578125 
Q 30.03125 56 36.53125 56 
Q 37.453125 56 38.578125 55.875 
Q 39.703125 55.765625 41.0625 55.515625 
z
" id="DejaVuSans-114"/>
       <path id="DejaVuSans-32"/>
       <path d="M 30.609375 48.390625 
Q 23.390625 48.390625 19.1875 42.75 
Q 14.984375 37.109375 14.984375 27.296875 
Q 14.984375 17.484375 19.15625 11.84375 
Q 23.34375 6.203125 30.609375 6.203125 
Q 37.796875 6.203125 41.984375 11.859375 
Q 46.1875 17.53125 46.1875 27.296875 
Q 46.1875 37.015625 41.984375 42.703125 
Q 37.796875 48.390625 30.609375 48.390625 
z
M 30.609375 56 
Q 42.328125 56 49.015625 48.375 
Q 55.71875 40.765625 55.71875 27.296875 
Q 55.71875 13.875 49.015625 6.21875 
Q 42.328125 -1.421875 30.609375 -1.421875 
Q 18.84375 -1.421875 12.171875 6.21875 
Q 5.515625 13.875 5.515625 27.296875 
Q 5.515625 40.765625 12.171875 48.375 
Q 18.84375 56 30.609375 56 
z
" id="DejaVuSans-111"/>
       <path d="M 37.109375 75.984375 
L 37.109375 68.5 
L 28.515625 68.5 
Q 23.6875 68.5 21.796875 66.546875 
Q 19.921875 64.59375 19.921875 59.515625 
L 19.921875 54.6875 
L 34.71875 54.6875 
L 34.71875 47.703125 
L 19.921875 47.703125 
L 19.921875 0 
L 10.890625 0 
L 10.890625 47.703125 
L 2.296875 47.703125 
L 2.296875 54.6875 
L 10.890625 54.6875 
L 10.890625 58.5 
Q 10.890625 67.625 15.140625 71.796875 
Q 19.390625 75.984375 28.609375 75.984375 
z
" id="DejaVuSans-102"/>
       <path d="M 18.109375 8.203125 
L 18.109375 -20.796875 
L 9.078125 -20.796875 
L 9.078125 54.6875 
L 18.109375 54.6875 
L 18.109375 46.390625 
Q 20.953125 51.265625 25.265625 53.625 
Q 29.59375 56 35.59375 56 
Q 45.5625 56 51.78125 48.09375 
Q 58.015625 40.1875 58.015625 27.296875 
Q 58.015625 14.40625 51.78125 6.484375 
Q 45.5625 -1.421875 35.59375 -1.421875 
Q 29.59375 -1.421875 25.265625 0.953125 
Q 20.953125 3.328125 18.109375 8.203125 
z
M 48.6875 27.296875 
Q 48.6875 37.203125 44.609375 42.84375 
Q 40.53125 48.484375 33.40625 48.484375 
Q 26.265625 48.484375 22.1875 42.84375 
Q 18.109375 37.203125 18.109375 27.296875 
Q 18.109375 17.390625 22.1875 11.75 
Q 26.265625 6.109375 33.40625 6.109375 
Q 40.53125 6.109375 44.609375 11.75 
Q 48.6875 17.390625 48.6875 27.296875 
z
" id="DejaVuSans-112"/>
       <path d="M 48.78125 52.59375 
L 48.78125 44.1875 
Q 44.96875 46.296875 41.140625 47.34375 
Q 37.3125 48.390625 33.40625 48.390625 
Q 24.65625 48.390625 19.8125 42.84375 
Q 14.984375 37.3125 14.984375 27.296875 
Q 14.984375 17.28125 19.8125 11.734375 
Q 24.65625 6.203125 33.40625 6.203125 
Q 37.3125 6.203125 41.140625 7.25 
Q 44.96875 8.296875 48.78125 10.40625 
L 48.78125 2.09375 
Q 45.015625 0.34375 40.984375 -0.53125 
Q 36.96875 -1.421875 32.421875 -1.421875 
Q 20.0625 -1.421875 12.78125 6.34375 
Q 5.515625 14.109375 5.515625 27.296875 
Q 5.515625 40.671875 12.859375 48.328125 
Q 20.21875 56 33.015625 56 
Q 37.15625 56 41.109375 55.140625 
Q 45.0625 54.296875 48.78125 52.59375 
z
" id="DejaVuSans-99"/>
       <path d="M 44.28125 53.078125 
L 44.28125 44.578125 
Q 40.484375 46.53125 36.375 47.5 
Q 32.28125 48.484375 27.875 48.484375 
Q 21.1875 48.484375 17.84375 46.4375 
Q 14.5 44.390625 14.5 40.28125 
Q 14.5 37.15625 16.890625 35.375 
Q 19.28125 33.59375 26.515625 31.984375 
L 29.59375 31.296875 
Q 39.15625 29.25 43.1875 25.515625 
Q 47.21875 21.78125 47.21875 15.09375 
Q 47.21875 7.46875 41.1875 3.015625 
Q 35.15625 -1.421875 24.609375 -1.421875 
Q 20.21875 -1.421875 15.453125 -0.5625 
Q 10.6875 0.296875 5.421875 2 
L 5.421875 11.28125 
Q 10.40625 8.6875 15.234375 7.390625 
Q 20.0625 6.109375 24.8125 6.109375 
Q 31.15625 6.109375 34.5625 8.28125 
Q 37.984375 10.453125 37.984375 14.40625 
Q 37.984375 18.0625 35.515625 20.015625 
Q 33.0625 21.96875 24.703125 23.78125 
L 21.578125 24.515625 
Q 13.234375 26.265625 9.515625 29.90625 
Q 5.8125 33.546875 5.8125 39.890625 
Q 5.8125 47.609375 11.28125 51.796875 
Q 16.75 56 26.8125 56 
Q 31.78125 56 36.171875 55.265625 
Q 40.578125 54.546875 44.28125 53.078125 
z
" id="DejaVuSans-115"/>
       <path d="M 45.40625 46.390625 
L 45.40625 75.984375 
L 54.390625 75.984375 
L 54.390625 0 
L 45.40625 0 
L 45.40625 8.203125 
Q 42.578125 3.328125 38.25 0.953125 
Q 33.9375 -1.421875 27.875 -1.421875 
Q 17.96875 -1.421875 11.734375 6.484375 
Q 5.515625 14.40625 5.515625 27.296875 
Q 5.515625 40.1875 11.734375 48.09375 
Q 17.96875 56 27.875 56 
Q 33.9375 56 38.25 53.625 
Q 42.578125 51.265625 45.40625 46.390625 
z
M 14.796875 27.296875 
Q 14.796875 17.390625 18.875 11.75 
Q 22.953125 6.109375 30.078125 6.109375 
Q 37.203125 6.109375 41.296875 11.75 
Q 45.40625 17.390625 45.40625 27.296875 
Q 45.40625 37.203125 41.296875 42.84375 
Q 37.203125 48.484375 30.078125 48.484375 
Q 22.953125 48.484375 18.875 42.84375 
Q 14.796875 37.203125 14.796875 27.296875 
z
" id="DejaVuSans-100"/>
       <path d="M 9.421875 54.6875 
L 18.40625 54.6875 
L 18.40625 0 
L 9.421875 0 
z
M 9.421875 75.984375 
L 18.40625 75.984375 
L 18.40625 64.59375 
L 9.421875 64.59375 
z
" id="DejaVuSans-105"/>
       <path d="M 54.890625 33.015625 
L 54.890625 0 
L 45.90625 0 
L 45.90625 32.71875 
Q 45.90625 40.484375 42.875 44.328125 
Q 39.84375 48.1875 33.796875 48.1875 
Q 26.515625 48.1875 22.3125 43.546875 
Q 18.109375 38.921875 18.109375 30.90625 
L 18.109375 0 
L 9.078125 0 
L 9.078125 54.6875 
L 18.109375 54.6875 
L 18.109375 46.1875 
Q 21.34375 51.125 25.703125 53.5625 
Q 30.078125 56 35.796875 56 
Q 45.21875 56 50.046875 50.171875 
Q 54.890625 44.34375 54.890625 33.015625 
z
" id="DejaVuSans-110"/>
       <path d="M 18.3125 70.21875 
L 18.3125 54.6875 
L 36.8125 54.6875 
L 36.8125 47.703125 
L 18.3125 47.703125 
L 18.3125 18.015625 
Q 18.3125 11.328125 20.140625 9.421875 
Q 21.96875 7.515625 27.59375 7.515625 
L 36.8125 7.515625 
L 36.8125 0 
L 27.59375 0 
Q 17.1875 0 13.234375 3.875 
Q 9.28125 7.765625 9.28125 18.015625 
L 9.28125 47.703125 
L 2.6875 47.703125 
L 2.6875 54.6875 
L 9.28125 54.6875 
L 9.28125 70.21875 
z
" id="DejaVuSans-116"/>
       <path d="M 34.28125 27.484375 
Q 23.390625 27.484375 19.1875 25 
Q 14.984375 22.515625 14.984375 16.5 
Q 14.984375 11.71875 18.140625 8.90625 
Q 21.296875 6.109375 26.703125 6.109375 
Q 34.1875 6.109375 38.703125 11.40625 
Q 43.21875 16.703125 43.21875 25.484375 
L 43.21875 27.484375 
z
M 52.203125 31.203125 
L 52.203125 0 
L 43.21875 0 
L 43.21875 8.296875 
Q 40.140625 3.328125 35.546875 0.953125 
Q 30.953125 -1.421875 24.3125 -1.421875 
Q 15.921875 -1.421875 10.953125 3.296875 
Q 6 8.015625 6 15.921875 
Q 6 25.140625 12.171875 29.828125 
Q 18.359375 34.515625 30.609375 34.515625 
L 43.21875 34.515625 
L 43.21875 35.40625 
Q 43.21875 41.609375 39.140625 45 
Q 35.0625 48.390625 27.6875 48.390625 
Q 23 48.390625 18.546875 47.265625 
Q 14.109375 46.140625 10.015625 43.890625 
L 10.015625 52.203125 
Q 14.9375 54.109375 19.578125 55.046875 
Q 24.21875 56 28.609375 56 
Q 40.484375 56 46.34375 49.84375 
Q 52.203125 43.703125 52.203125 31.203125 
z
" id="DejaVuSans-97"/>
       <path d="M 8.59375 75.984375 
L 29.296875 75.984375 
L 29.296875 69 
L 17.578125 69 
L 17.578125 -6.203125 
L 29.296875 -6.203125 
L 29.296875 -13.1875 
L 8.59375 -13.1875 
z
" id="DejaVuSans-91"/>
       <path d="M 54.890625 54.6875 
L 35.109375 28.078125 
L 55.90625 0 
L 45.3125 0 
L 29.390625 21.484375 
L 13.484375 0 
L 2.875 0 
L 24.125 28.609375 
L 4.6875 54.6875 
L 15.28125 54.6875 
L 29.78125 35.203125 
L 44.28125 54.6875 
z
" id="DejaVuSans-120"/>
       <path d="M 30.421875 75.984375 
L 30.421875 -13.1875 
L 9.71875 -13.1875 
L 9.71875 -6.203125 
L 21.390625 -6.203125 
L 21.390625 69 
L 9.71875 69 
L 9.71875 75.984375 
z
" id="DejaVuSans-93"/>
      </defs>
      <use xlink:href="#DejaVuSans-78"/>
      <use x="74.804688" xlink:href="#DejaVuSans-117"/>
      <use x="138.183594" xlink:href="#DejaVuSans-109"/>
      <use x="235.595703" xlink:href="#DejaVuSans-98"/>
      <use x="299.072266" xlink:href="#DejaVuSans-101"/>
      <use x="360.595703" xlink:href="#DejaVuSans-114"/>
      <use x="401.708984" xlink:href="#DejaVuSans-32"/>
      <use x="433.496094" xlink:href="#DejaVuSans-111"/>
      <use x="494.677734" xlink:href="#DejaVuSans-102"/>
      <use x="529.882812" xlink:href="#DejaVuSans-32"/>
      <use x="561.669922" xlink:href="#DejaVuSans-112"/>
      <use x="625.146484" xlink:href="#DejaVuSans-114"/>
      <use x="664.009766" xlink:href="#DejaVuSans-111"/>
      <use x="725.191406" xlink:href="#DejaVuSans-99"/>
      <use x="780.171875" xlink:href="#DejaVuSans-101"/>
      <use x="841.695312" xlink:href="#DejaVuSans-115"/>
      <use x="893.794922" xlink:href="#DejaVuSans-115"/>
      <use x="945.894531" xlink:href="#DejaVuSans-101"/>
      <use x="1007.417969" xlink:href="#DejaVuSans-100"/>
      <use x="1070.894531" xlink:href="#DejaVuSans-32"/>
      <use x="1102.681641" xlink:href="#DejaVuSans-105"/>
      <use x="1130.464844" xlink:href="#DejaVuSans-110"/>
      <use x="1193.84375" xlink:href="#DejaVuSans-115"/>
      <use x="1245.943359" xlink:href="#DejaVuSans-116"/>
      <use x="1285.152344" xlink:href="#DejaVuSans-97"/>
      <use x="1346.431641" xlink:href="#DejaVuSans-110"/>
      <use x="1409.810547" xlink:href="#DejaVuSans-99"/>
      <use x="1464.791016" xlink:href="#DejaVuSans-101"/>
      <use x="1526.314453" xlink:href="#DejaVuSans-115"/>
      <use x="1578.414062" xlink:href="#DejaVuSans-32"/>
      <use x="1610.201172" xlink:href="#DejaVuSans-91"/>
      <use x="1649.214844" xlink:href="#DejaVuSans-120"/>
      <use x="1708.394531" xlink:href="#DejaVuSans-49"/>
      <use x="1772.017578" xlink:href="#DejaVuSans-48"/>
      <use x="1835.640625" xlink:href="#DejaVuSans-48"/>
      <use x="1899.263672" xlink:href="#DejaVuSans-48"/>
      <use x="1962.886719" xlink:href="#DejaVuSans-93"/>
     </g>
    </g>
   </g>
   <g id="matplotlib.axis_2">
    <g id="ytick_1">
     <g id="line2d_10">
      <defs>
       <path d="M 0 0 
L -3.5 0 
" id="ma7aa20f959" style="stroke:#000000;stroke-width:0.8;"/>
      </defs>
      <g>
       <use style="stroke:#000000;stroke-width:0.8;" x="104.85" xlink:href="#ma7aa20f959" y="383.953004"/>
      </g>
     </g>
     <g id="text_11">
      <!-- 0.982 -->
      <g transform="translate(60.633437 388.891988)scale(0.13 -0.13)">
       <defs>
        <path d="M 10.6875 12.40625 
L 21 12.40625 
L 21 0 
L 10.6875 0 
z
" id="DejaVuSans-46"/>
        <path d="M 10.984375 1.515625 
L 10.984375 10.5 
Q 14.703125 8.734375 18.5 7.8125 
Q 22.3125 6.890625 25.984375 6.890625 
Q 35.75 6.890625 40.890625 13.453125 
Q 46.046875 20.015625 46.78125 33.40625 
Q 43.953125 29.203125 39.59375 26.953125 
Q 35.25 24.703125 29.984375 24.703125 
Q 19.046875 24.703125 12.671875 31.3125 
Q 6.296875 37.9375 6.296875 49.421875 
Q 6.296875 60.640625 12.9375 67.421875 
Q 19.578125 74.21875 30.609375 74.21875 
Q 43.265625 74.21875 49.921875 64.515625 
Q 56.59375 54.828125 56.59375 36.375 
Q 56.59375 19.140625 48.40625 8.859375 
Q 40.234375 -1.421875 26.421875 -1.421875 
Q 22.703125 -1.421875 18.890625 -0.6875 
Q 15.09375 0.046875 10.984375 1.515625 
z
M 30.609375 32.421875 
Q 37.25 32.421875 41.125 36.953125 
Q 45.015625 41.5 45.015625 49.421875 
Q 45.015625 57.28125 41.125 61.84375 
Q 37.25 66.40625 30.609375 66.40625 
Q 23.96875 66.40625 20.09375 61.84375 
Q 16.21875 57.28125 16.21875 49.421875 
Q 16.21875 41.5 20.09375 36.953125 
Q 23.96875 32.421875 30.609375 32.421875 
z
" id="DejaVuSans-57"/>
        <path d="M 31.78125 34.625 
Q 24.75 34.625 20.71875 30.859375 
Q 16.703125 27.09375 16.703125 20.515625 
Q 16.703125 13.921875 20.71875 10.15625 
Q 24.75 6.390625 31.78125 6.390625 
Q 38.8125 6.390625 42.859375 10.171875 
Q 46.921875 13.96875 46.921875 20.515625 
Q 46.921875 27.09375 42.890625 30.859375 
Q 38.875 34.625 31.78125 34.625 
z
M 21.921875 38.8125 
Q 15.578125 40.375 12.03125 44.71875 
Q 8.5 49.078125 8.5 55.328125 
Q 8.5 64.0625 14.71875 69.140625 
Q 20.953125 74.21875 31.78125 74.21875 
Q 42.671875 74.21875 48.875 69.140625 
Q 55.078125 64.0625 55.078125 55.328125 
Q 55.078125 49.078125 51.53125 44.71875 
Q 48 40.375 41.703125 38.8125 
Q 48.828125 37.15625 52.796875 32.3125 
Q 56.78125 27.484375 56.78125 20.515625 
Q 56.78125 9.90625 50.3125 4.234375 
Q 43.84375 -1.421875 31.78125 -1.421875 
Q 19.734375 -1.421875 13.25 4.234375 
Q 6.78125 9.90625 6.78125 20.515625 
Q 6.78125 27.484375 10.78125 32.3125 
Q 14.796875 37.15625 21.921875 38.8125 
z
M 18.3125 54.390625 
Q 18.3125 48.734375 21.84375 45.5625 
Q 25.390625 42.390625 31.78125 42.390625 
Q 38.140625 42.390625 41.71875 45.5625 
Q 45.3125 48.734375 45.3125 54.390625 
Q 45.3125 60.0625 41.71875 63.234375 
Q 38.140625 66.40625 31.78125 66.40625 
Q 25.390625 66.40625 21.84375 63.234375 
Q 18.3125 60.0625 18.3125 54.390625 
z
" id="DejaVuSans-56"/>
       </defs>
       <use xlink:href="#DejaVuSans-48"/>
       <use x="63.623047" xlink:href="#DejaVuSans-46"/>
       <use x="95.410156" xlink:href="#DejaVuSans-57"/>
       <use x="159.033203" xlink:href="#DejaVuSans-56"/>
       <use x="222.65625" xlink:href="#DejaVuSans-50"/>
      </g>
     </g>
    </g>
    <g id="ytick_2">
     <g id="line2d_11">
      <g>
       <use style="stroke:#000000;stroke-width:0.8;" x="104.85" xlink:href="#ma7aa20f959" y="351.794007"/>
      </g>
     </g>
     <g id="text_12">
      <!-- 0.984 -->
      <g transform="translate(60.633437 356.732992)scale(0.13 -0.13)">
       <defs>
        <path d="M 37.796875 64.3125 
L 12.890625 25.390625 
L 37.796875 25.390625 
z
M 35.203125 72.90625 
L 47.609375 72.90625 
L 47.609375 25.390625 
L 58.015625 25.390625 
L 58.015625 17.1875 
L 47.609375 17.1875 
L 47.609375 0 
L 37.796875 0 
L 37.796875 17.1875 
L 4.890625 17.1875 
L 4.890625 26.703125 
z
" id="DejaVuSans-52"/>
       </defs>
       <use xlink:href="#DejaVuSans-48"/>
       <use x="63.623047" xlink:href="#DejaVuSans-46"/>
       <use x="95.410156" xlink:href="#DejaVuSans-57"/>
       <use x="159.033203" xlink:href="#DejaVuSans-56"/>
       <use x="222.65625" xlink:href="#DejaVuSans-52"/>
      </g>
     </g>
    </g>
    <g id="ytick_3">
     <g id="line2d_12">
      <g>
       <use style="stroke:#000000;stroke-width:0.8;" x="104.85" xlink:href="#ma7aa20f959" y="319.635011"/>
      </g>
     </g>
     <g id="text_13">
      <!-- 0.986 -->
      <g transform="translate(60.633437 324.573995)scale(0.13 -0.13)">
       <defs>
        <path d="M 33.015625 40.375 
Q 26.375 40.375 22.484375 35.828125 
Q 18.609375 31.296875 18.609375 23.390625 
Q 18.609375 15.53125 22.484375 10.953125 
Q 26.375 6.390625 33.015625 6.390625 
Q 39.65625 6.390625 43.53125 10.953125 
Q 47.40625 15.53125 47.40625 23.390625 
Q 47.40625 31.296875 43.53125 35.828125 
Q 39.65625 40.375 33.015625 40.375 
z
M 52.59375 71.296875 
L 52.59375 62.3125 
Q 48.875 64.0625 45.09375 64.984375 
Q 41.3125 65.921875 37.59375 65.921875 
Q 27.828125 65.921875 22.671875 59.328125 
Q 17.53125 52.734375 16.796875 39.40625 
Q 19.671875 43.65625 24.015625 45.921875 
Q 28.375 48.1875 33.59375 48.1875 
Q 44.578125 48.1875 50.953125 41.515625 
Q 57.328125 34.859375 57.328125 23.390625 
Q 57.328125 12.15625 50.6875 5.359375 
Q 44.046875 -1.421875 33.015625 -1.421875 
Q 20.359375 -1.421875 13.671875 8.265625 
Q 6.984375 17.96875 6.984375 36.375 
Q 6.984375 53.65625 15.1875 63.9375 
Q 23.390625 74.21875 37.203125 74.21875 
Q 40.921875 74.21875 44.703125 73.484375 
Q 48.484375 72.75 52.59375 71.296875 
z
" id="DejaVuSans-54"/>
       </defs>
       <use xlink:href="#DejaVuSans-48"/>
       <use x="63.623047" xlink:href="#DejaVuSans-46"/>
       <use x="95.410156" xlink:href="#DejaVuSans-57"/>
       <use x="159.033203" xlink:href="#DejaVuSans-56"/>
       <use x="222.65625" xlink:href="#DejaVuSans-54"/>
      </g>
     </g>
    </g>
    <g id="ytick_4">
     <g id="line2d_13">
      <g>
       <use style="stroke:#000000;stroke-width:0.8;" x="104.85" xlink:href="#ma7aa20f959" y="287.476014"/>
      </g>
     </g>
     <g id="text_14">
      <!-- 0.988 -->
      <g transform="translate(60.633437 292.414999)scale(0.13 -0.13)">
       <use xlink:href="#DejaVuSans-48"/>
       <use x="63.623047" xlink:href="#DejaVuSans-46"/>
       <use x="95.410156" xlink:href="#DejaVuSans-57"/>
       <use x="159.033203" xlink:href="#DejaVuSans-56"/>
       <use x="222.65625" xlink:href="#DejaVuSans-56"/>
      </g>
     </g>
    </g>
    <g id="ytick_5">
     <g id="line2d_14">
      <g>
       <use style="stroke:#000000;stroke-width:0.8;" x="104.85" xlink:href="#ma7aa20f959" y="255.317018"/>
      </g>
     </g>
     <g id="text_15">
      <!-- 0.990 -->
      <g transform="translate(60.633437 260.256002)scale(0.13 -0.13)">
       <use xlink:href="#DejaVuSans-48"/>
       <use x="63.623047" xlink:href="#DejaVuSans-46"/>
       <use x="95.410156" xlink:href="#DejaVuSans-57"/>
       <use x="159.033203" xlink:href="#DejaVuSans-57"/>
       <use x="222.65625" xlink:href="#DejaVuSans-48"/>
      </g>
     </g>
    </g>
    <g id="ytick_6">
     <g id="line2d_15">
      <g>
       <use style="stroke:#000000;stroke-width:0.8;" x="104.85" xlink:href="#ma7aa20f959" y="223.158022"/>
      </g>
     </g>
     <g id="text_16">
      <!-- 0.992 -->
      <g transform="translate(60.633437 228.097006)scale(0.13 -0.13)">
       <use xlink:href="#DejaVuSans-48"/>
       <use x="63.623047" xlink:href="#DejaVuSans-46"/>
       <use x="95.410156" xlink:href="#DejaVuSans-57"/>
       <use x="159.033203" xlink:href="#DejaVuSans-57"/>
       <use x="222.65625" xlink:href="#DejaVuSans-50"/>
      </g>
     </g>
    </g>
    <g id="ytick_7">
     <g id="line2d_16">
      <g>
       <use style="stroke:#000000;stroke-width:0.8;" x="104.85" xlink:href="#ma7aa20f959" y="190.999025"/>
      </g>
     </g>
     <g id="text_17">
      <!-- 0.994 -->
      <g transform="translate(60.633437 195.93801)scale(0.13 -0.13)">
       <use xlink:href="#DejaVuSans-48"/>
       <use x="63.623047" xlink:href="#DejaVuSans-46"/>
       <use x="95.410156" xlink:href="#DejaVuSans-57"/>
       <use x="159.033203" xlink:href="#DejaVuSans-57"/>
       <use x="222.65625" xlink:href="#DejaVuSans-52"/>
      </g>
     </g>
    </g>
    <g id="ytick_8">
     <g id="line2d_17">
      <g>
       <use style="stroke:#000000;stroke-width:0.8;" x="104.85" xlink:href="#ma7aa20f959" y="158.840029"/>
      </g>
     </g>
     <g id="text_18">
      <!-- 0.996 -->
      <g transform="translate(60.633437 163.779013)scale(0.13 -0.13)">
       <use xlink:href="#DejaVuSans-48"/>
       <use x="63.623047" xlink:href="#DejaVuSans-46"/>
       <use x="95.410156" xlink:href="#DejaVuSans-57"/>
       <use x="159.033203" xlink:href="#DejaVuSans-57"/>
       <use x="222.65625" xlink:href="#DejaVuSans-54"/>
      </g>
     </g>
    </g>
    <g id="ytick_9">
     <g id="line2d_18">
      <g>
       <use style="stroke:#000000;stroke-width:0.8;" x="104.85" xlink:href="#ma7aa20f959" y="126.681032"/>
      </g>
     </g>
     <g id="text_19">
      <!-- 0.998 -->
      <g transform="translate(60.633437 131.620017)scale(0.13 -0.13)">
       <use xlink:href="#DejaVuSans-48"/>
       <use x="63.623047" xlink:href="#DejaVuSans-46"/>
       <use x="95.410156" xlink:href="#DejaVuSans-57"/>
       <use x="159.033203" xlink:href="#DejaVuSans-57"/>
       <use x="222.65625" xlink:href="#DejaVuSans-56"/>
      </g>
     </g>
    </g>
    <g id="text_20">
     <!-- G-Mean -->
     <g transform="translate(53.929844 275.743844)rotate(-90)scale(0.13 -0.13)">
      <defs>
       <path d="M 59.515625 10.40625 
L 59.515625 29.984375 
L 43.40625 29.984375 
L 43.40625 38.09375 
L 69.28125 38.09375 
L 69.28125 6.78125 
Q 63.578125 2.734375 56.6875 0.65625 
Q 49.8125 -1.421875 42 -1.421875 
Q 24.90625 -1.421875 15.25 8.5625 
Q 5.609375 18.5625 5.609375 36.375 
Q 5.609375 54.25 15.25 64.234375 
Q 24.90625 74.21875 42 74.21875 
Q 49.125 74.21875 55.546875 72.453125 
Q 61.96875 70.703125 67.390625 67.28125 
L 67.390625 56.78125 
Q 61.921875 61.421875 55.765625 63.765625 
Q 49.609375 66.109375 42.828125 66.109375 
Q 29.4375 66.109375 22.71875 58.640625 
Q 16.015625 51.171875 16.015625 36.375 
Q 16.015625 21.625 22.71875 14.15625 
Q 29.4375 6.6875 42.828125 6.6875 
Q 48.046875 6.6875 52.140625 7.59375 
Q 56.25 8.5 59.515625 10.40625 
z
" id="DejaVuSans-71"/>
       <path d="M 4.890625 31.390625 
L 31.203125 31.390625 
L 31.203125 23.390625 
L 4.890625 23.390625 
z
" id="DejaVuSans-45"/>
       <path d="M 9.8125 72.90625 
L 24.515625 72.90625 
L 43.109375 23.296875 
L 61.8125 72.90625 
L 76.515625 72.90625 
L 76.515625 0 
L 66.890625 0 
L 66.890625 64.015625 
L 48.09375 14.015625 
L 38.1875 14.015625 
L 19.390625 64.015625 
L 19.390625 0 
L 9.8125 0 
z
" id="DejaVuSans-77"/>
      </defs>
      <use xlink:href="#DejaVuSans-71"/>
      <use x="77.490234" xlink:href="#DejaVuSans-45"/>
      <use x="113.574219" xlink:href="#DejaVuSans-77"/>
      <use x="199.853516" xlink:href="#DejaVuSans-101"/>
      <use x="261.376953" xlink:href="#DejaVuSans-97"/>
      <use x="322.65625" xlink:href="#DejaVuSans-110"/>
     </g>
    </g>
   </g>
   <g id="line2d_19"/>
   <g id="line2d_20"/>
   <g id="line2d_21"/>
   <g id="line2d_22"/>
   <g id="line2d_23"/>
   <g id="line2d_24">
    <path clip-path="url(#p77821c60cf)" d="M 122.604545 351.898548 
L 124.407037 319.384273 
L 126.209529 327.600731 
L 128.012021 306.487459 
L 129.814513 287.585865 
L 131.617005 297.626265 
L 133.419497 296.719674 
L 135.221989 316.231975 
L 137.024481 316.223438 
L 138.826973 309.144924 
L 140.629465 305.411446 
L 142.431957 304.85438 
L 144.234449 294.49078 
L 146.03694 285.858143 
L 147.839432 283.957597 
L 149.641924 282.394494 
L 151.444416 278.97503 
L 153.246908 275.917755 
L 155.0494 271.174884 
L 156.851892 270.258658 
L 158.654384 268.180004 
L 160.456876 268.937216 
L 162.259368 260.091953 
L 164.06186 260.223911 
L 165.864352 263.553991 
L 167.666844 253.921223 
L 169.469335 253.73307 
L 171.271827 241.003698 
L 173.074319 234.887945 
L 174.876811 234.561224 
L 176.679303 229.552823 
L 178.481795 222.897399 
L 180.284287 223.507576 
L 182.086779 228.957423 
L 183.889271 230.11016 
L 185.691763 228.158123 
L 187.494255 228.094767 
L 189.296747 232.269569 
L 191.099239 238.605138 
L 192.901731 238.586762 
L 194.704222 237.411699 
L 196.506714 233.967243 
L 198.309206 234.550922 
L 200.111698 234.343713 
L 201.91419 232.294717 
L 203.716682 238.390538 
L 207.321666 236.581318 
L 209.124158 234.735411 
L 210.92665 231.786824 
L 212.729142 236.246014 
L 214.531634 241.705669 
L 216.334126 249.230693 
L 218.136617 248.513269 
L 219.939109 244.541538 
L 221.741601 238.858481 
L 223.544093 236.092787 
L 225.346585 232.616923 
L 227.149077 225.92858 
L 230.754061 228.249338 
L 232.556553 226.960031 
L 234.359045 227.641087 
L 236.161537 231.697026 
L 237.964029 229.119539 
L 239.766521 227.610548 
L 241.569012 222.054508 
L 243.371504 221.351619 
L 245.173996 225.976891 
L 246.976488 234.485013 
L 248.77898 242.242703 
L 250.581472 241.619879 
L 252.383964 236.660259 
L 254.186456 234.4213 
L 255.988948 235.251251 
L 259.593932 243.45383 
L 261.396424 243.271059 
L 263.198916 247.16157 
L 265.001407 243.591648 
L 266.803899 235.300661 
L 268.606391 235.713026 
L 270.408883 235.272129 
L 272.211375 224.797741 
L 274.013867 229.141108 
L 275.816359 231.374885 
L 277.618851 241.136393 
L 279.421343 238.411724 
L 281.223835 239.624532 
L 283.026327 230.415178 
L 284.828819 226.041348 
L 286.631311 243.615223 
L 288.433802 259.090173 
L 290.236294 260.375833 
L 292.038786 256.769053 
L 293.841278 263.083509 
L 295.64377 270.634965 
L 297.446262 264.876703 
L 299.248754 259.639679 
L 301.051246 271.800609 
L 302.853738 312.105194 
L 304.65623 307.267365 
L 306.458722 374.340996 
L 308.261214 376.651813 
L 310.063706 369.762731 
L 311.866198 361.126189 
L 313.668689 349.868882 
L 315.471181 350.171363 
L 317.273673 342.842418 
L 319.076165 340.892431 
L 320.878657 332.239 
L 322.681149 309.115115 
L 324.483641 287.499284 
L 326.286133 281.388762 
L 328.088625 310.843443 
L 329.891117 301.761944 
L 331.693609 288.596379 
L 333.496101 288.989926 
L 335.298593 287.351662 
L 337.101084 270.527044 
L 338.903576 277.541486 
L 340.706068 276.73062 
L 342.50856 238.702639 
L 344.311052 238.307394 
L 346.113544 279.076383 
L 347.916036 280.299764 
L 349.718528 279.479012 
L 351.52102 280.299334 
L 353.323512 319.927545 
L 355.126004 319.522417 
L 356.928496 317.882535 
L 358.730988 315.445017 
L 360.533479 353.208463 
L 362.335971 352.395955 
L 364.138463 320.395701 
L 365.940955 319.595548 
L 367.743447 319.175838 
L 369.545939 319.584039 
L 371.348431 320.384193 
L 373.150923 320.789109 
L 374.953415 273.013919 
L 376.755907 273.824785 
L 378.558399 242.363976 
L 380.360891 239.918622 
L 382.163383 199.558869 
L 383.965874 197.928929 
L 385.768366 197.924852 
L 387.570858 197.510477 
L 389.37335 159.106288 
L 391.175842 158.706281 
L 392.978334 199.129862 
L 394.780826 200.353234 
L 396.583318 162.58814 
L 398.38581 162.996756 
L 400.188302 164.625886 
L 401.990794 165.846797 
L 403.793286 165.036745 
L 405.595778 163.821794 
L 407.398269 163.832063 
L 409.200761 163.425502 
L 411.003253 162.193304 
L 412.805745 162.195759 
L 414.608237 160.562094 
L 416.410729 230.947098 
L 418.213221 230.128027 
L 423.620697 230.136228 
L 425.423189 228.096405 
L 427.225681 228.908089 
L 429.028173 189.296195 
L 430.830665 188.072417 
L 432.633156 188.078218 
L 434.435648 188.483752 
L 436.23814 187.261183 
L 438.040632 187.258702 
L 439.843124 186.449467 
L 441.645616 217.957469 
L 443.448108 216.735517 
L 445.2506 217.144548 
L 447.053092 263.849149 
L 448.855584 263.446289 
L 450.658076 263.447931 
L 452.460568 193.061689 
L 454.26306 194.311387 
L 456.065551 194.313838 
L 457.868043 195.93885 
L 459.670535 195.532496 
L 461.473027 197.169072 
L 463.275519 196.759845 
L 465.078011 195.950627 
L 466.880503 237.960774 
L 468.682995 237.951695 
L 470.485487 238.360727 
L 472.287979 239.170774 
L 474.090471 274.528389 
L 475.892963 275.749927 
L 477.695455 243.831451 
L 477.695455 243.831451 
" style="fill:none;stroke:#cc3311;stroke-linecap:square;stroke-width:0.5;"/>
    <defs>
     <path d="M 0 2.5 
C 0.663008 2.5 1.29895 2.236584 1.767767 1.767767 
C 2.236584 1.29895 2.5 0.663008 2.5 0 
C 2.5 -0.663008 2.236584 -1.29895 1.767767 -1.767767 
C 1.29895 -2.236584 0.663008 -2.5 0 -2.5 
C -0.663008 -2.5 -1.29895 -2.236584 -1.767767 -1.767767 
C -2.236584 -1.29895 -2.5 -0.663008 -2.5 0 
C -2.5 0.663008 -2.236584 1.29895 -1.767767 1.767767 
C -1.29895 2.236584 -0.663008 2.5 0 2.5 
z
" id="m02eb6a822b" style="stroke:#cc3311;"/>
    </defs>
    <g clip-path="url(#p77821c60cf)">
     <use style="fill:#cc3311;stroke:#cc3311;" x="122.604545" xlink:href="#m02eb6a822b" y="351.898548"/>
     <use style="fill:#cc3311;stroke:#cc3311;" x="140.629465" xlink:href="#m02eb6a822b" y="305.411446"/>
     <use style="fill:#cc3311;stroke:#cc3311;" x="158.654384" xlink:href="#m02eb6a822b" y="268.180004"/>
     <use style="fill:#cc3311;stroke:#cc3311;" x="176.679303" xlink:href="#m02eb6a822b" y="229.552823"/>
     <use style="fill:#cc3311;stroke:#cc3311;" x="194.704222" xlink:href="#m02eb6a822b" y="237.411699"/>
     <use style="fill:#cc3311;stroke:#cc3311;" x="212.729142" xlink:href="#m02eb6a822b" y="236.246014"/>
     <use style="fill:#cc3311;stroke:#cc3311;" x="230.754061" xlink:href="#m02eb6a822b" y="228.249338"/>
     <use style="fill:#cc3311;stroke:#cc3311;" x="248.77898" xlink:href="#m02eb6a822b" y="242.242703"/>
     <use style="fill:#cc3311;stroke:#cc3311;" x="266.803899" xlink:href="#m02eb6a822b" y="235.300661"/>
     <use style="fill:#cc3311;stroke:#cc3311;" x="284.828819" xlink:href="#m02eb6a822b" y="226.041348"/>
     <use style="fill:#cc3311;stroke:#cc3311;" x="302.853738" xlink:href="#m02eb6a822b" y="312.105194"/>
     <use style="fill:#cc3311;stroke:#cc3311;" x="320.878657" xlink:href="#m02eb6a822b" y="332.239"/>
     <use style="fill:#cc3311;stroke:#cc3311;" x="338.903576" xlink:href="#m02eb6a822b" y="277.541486"/>
     <use style="fill:#cc3311;stroke:#cc3311;" x="356.928496" xlink:href="#m02eb6a822b" y="317.882535"/>
     <use style="fill:#cc3311;stroke:#cc3311;" x="374.953415" xlink:href="#m02eb6a822b" y="273.013919"/>
     <use style="fill:#cc3311;stroke:#cc3311;" x="392.978334" xlink:href="#m02eb6a822b" y="199.129862"/>
     <use style="fill:#cc3311;stroke:#cc3311;" x="411.003253" xlink:href="#m02eb6a822b" y="162.193304"/>
     <use style="fill:#cc3311;stroke:#cc3311;" x="429.028173" xlink:href="#m02eb6a822b" y="189.296195"/>
     <use style="fill:#cc3311;stroke:#cc3311;" x="447.053092" xlink:href="#m02eb6a822b" y="263.849149"/>
     <use style="fill:#cc3311;stroke:#cc3311;" x="465.078011" xlink:href="#m02eb6a822b" y="195.950627"/>
    </g>
   </g>
   <g id="line2d_25"/>
   <g id="line2d_26"/>
   <g id="line2d_27"/>
   <g id="line2d_28"/>
   <g id="line2d_29">
    <path clip-path="url(#p77821c60cf)" d="M 122.604545 246.063779 
L 124.407037 248.846661 
L 126.209529 275.689492 
L 128.012021 256.970722 
L 129.814513 250.227798 
L 131.617005 265.669875 
L 133.419497 276.001917 
L 135.221989 284.498469 
L 137.024481 286.74013 
L 138.826973 280.932183 
L 140.629465 285.929914 
L 142.431957 287.396931 
L 146.03694 270.287845 
L 147.839432 266.70304 
L 149.641924 262.432443 
L 151.444416 255.476455 
L 153.246908 254.6645 
L 155.0494 252.064489 
L 156.851892 251.428023 
L 158.654384 248.934668 
L 160.456876 248.132307 
L 162.259368 243.966242 
L 164.06186 245.913547 
L 165.864352 247.315109 
L 167.666844 237.258363 
L 169.469335 232.139577 
L 171.271827 222.158323 
L 173.074319 216.440141 
L 174.876811 214.75781 
L 176.679303 207.793408 
L 178.481795 203.276279 
L 180.284287 202.700277 
L 182.086779 211.098826 
L 183.889271 212.594279 
L 185.691763 213.934767 
L 187.494255 219.447526 
L 189.296747 221.250947 
L 191.099239 221.635624 
L 192.901731 221.438782 
L 194.704222 226.035619 
L 196.506714 227.05384 
L 198.309206 226.188009 
L 201.91419 222.868369 
L 203.716682 230.649098 
L 205.519174 232.145576 
L 207.321666 235.743735 
L 209.124158 235.251205 
L 210.92665 235.094128 
L 212.729142 237.971094 
L 214.531634 238.670355 
L 216.334126 242.118644 
L 218.136617 238.249154 
L 219.939109 235.704129 
L 223.544093 225.168192 
L 225.346585 221.054052 
L 227.149077 220.510233 
L 228.951569 220.949297 
L 230.754061 219.851026 
L 232.556553 219.165633 
L 234.359045 216.667227 
L 236.161537 219.61695 
L 237.964029 218.26386 
L 239.766521 216.139219 
L 241.569012 212.379391 
L 243.371504 211.652913 
L 245.173996 216.08818 
L 246.976488 215.445563 
L 248.77898 220.041488 
L 250.581472 218.757995 
L 252.383964 217.024959 
L 254.186456 216.37071 
L 255.988948 212.374989 
L 257.79144 212.81819 
L 259.593932 219.749661 
L 261.396424 221.26714 
L 263.198916 223.447422 
L 265.001407 221.952443 
L 266.803899 214.378263 
L 268.606391 215.555616 
L 270.408883 215.651584 
L 272.211375 208.940046 
L 274.013867 209.72099 
L 275.816359 209.142256 
L 277.618851 211.242131 
L 279.421343 207.250671 
L 281.223835 204.560627 
L 283.026327 205.695614 
L 284.828819 200.632019 
L 286.631311 207.275223 
L 288.433802 207.094952 
L 290.236294 203.142006 
L 292.038786 206.334736 
L 293.841278 216.656657 
L 295.64377 208.977841 
L 299.248754 199.399732 
L 301.051246 197.549662 
L 302.853738 199.796515 
L 304.65623 193.259981 
L 306.458722 262.331401 
L 308.261214 264.925092 
L 310.063706 263.421427 
L 311.866198 258.011615 
L 313.668689 254.388473 
L 315.471181 256.672265 
L 317.273673 252.667114 
L 319.076165 251.768151 
L 320.878657 248.751222 
L 322.681149 240.821331 
L 324.483641 237.281803 
L 326.286133 237.511823 
L 328.088625 267.238812 
L 329.891117 258.952543 
L 331.693609 260.553839 
L 333.496101 263.792292 
L 335.298593 263.792292 
L 337.101084 262.916037 
L 338.903576 264.951769 
L 340.706068 264.949728 
L 342.50856 226.640589 
L 346.113544 225.029153 
L 347.916036 227.887878 
L 349.718528 227.057198 
L 351.52102 227.88992 
L 353.323512 228.292981 
L 355.126004 225.85667 
L 358.730988 222.571976 
L 360.533479 223.791456 
L 362.335971 222.977299 
L 364.138463 191.423588 
L 367.743447 188.983018 
L 369.545939 187.357152 
L 371.348431 187.7375 
L 373.150923 186.915915 
L 374.953415 185.299144 
L 376.755907 186.519644 
L 378.558399 154.713927 
L 380.360891 153.90267 
L 382.163383 154.718483 
L 383.965874 153.482736 
L 385.768366 153.06576 
L 387.570858 150.60637 
L 391.175842 154.708904 
L 392.978334 153.080594 
L 394.780826 153.095345 
L 396.583318 153.91157 
L 398.38581 155.140532 
L 400.188302 155.165068 
L 401.990794 157.612509 
L 403.793286 158.4242 
L 405.595778 156.396536 
L 407.398269 155.596354 
L 409.200761 155.189173 
L 411.003253 152.322039 
L 412.805745 151.921419 
L 414.608237 149.873141 
L 416.410729 183.582578 
L 420.015713 178.695186 
L 421.818205 179.919757 
L 423.620697 181.561257 
L 425.423189 178.700642 
L 427.225681 179.100599 
L 429.028173 181.540602 
L 430.830665 181.928335 
L 432.633156 180.721747 
L 434.435648 180.718035 
L 436.23814 180.307965 
L 438.040632 180.302988 
L 439.843124 179.091897 
L 441.645616 212.545482 
L 443.448108 211.323322 
L 445.2506 213.369559 
L 447.053092 216.629427 
L 448.855584 217.458861 
L 450.658076 219.095404 
L 452.460568 184.561886 
L 454.26306 187.868337 
L 456.065551 189.091702 
L 457.868043 189.501957 
L 459.670535 189.096637 
L 461.473027 190.328105 
L 463.275519 189.504475 
L 466.880503 188.716775 
L 468.682995 189.90856 
L 470.485487 189.096047 
L 472.287979 190.309576 
L 474.090471 188.670492 
L 475.892963 188.268867 
L 477.695455 158.876617 
L 477.695455 158.876617 
" style="fill:none;stroke:#009988;stroke-dasharray:1.85,0.8;stroke-dashoffset:0;stroke-width:0.5;"/>
    <defs>
     <path d="M -2.5 2.5 
L 2.5 2.5 
L 2.5 -2.5 
L -2.5 -2.5 
z
" id="md060960196" style="stroke:#009988;stroke-linejoin:miter;"/>
    </defs>
    <g clip-path="url(#p77821c60cf)">
     <use style="fill:#009988;stroke:#009988;stroke-linejoin:miter;" x="122.604545" xlink:href="#md060960196" y="246.063779"/>
     <use style="fill:#009988;stroke:#009988;stroke-linejoin:miter;" x="140.629465" xlink:href="#md060960196" y="285.929914"/>
     <use style="fill:#009988;stroke:#009988;stroke-linejoin:miter;" x="158.654384" xlink:href="#md060960196" y="248.934668"/>
     <use style="fill:#009988;stroke:#009988;stroke-linejoin:miter;" x="176.679303" xlink:href="#md060960196" y="207.793408"/>
     <use style="fill:#009988;stroke:#009988;stroke-linejoin:miter;" x="194.704222" xlink:href="#md060960196" y="226.035619"/>
     <use style="fill:#009988;stroke:#009988;stroke-linejoin:miter;" x="212.729142" xlink:href="#md060960196" y="237.971094"/>
     <use style="fill:#009988;stroke:#009988;stroke-linejoin:miter;" x="230.754061" xlink:href="#md060960196" y="219.851026"/>
     <use style="fill:#009988;stroke:#009988;stroke-linejoin:miter;" x="248.77898" xlink:href="#md060960196" y="220.041488"/>
     <use style="fill:#009988;stroke:#009988;stroke-linejoin:miter;" x="266.803899" xlink:href="#md060960196" y="214.378263"/>
     <use style="fill:#009988;stroke:#009988;stroke-linejoin:miter;" x="284.828819" xlink:href="#md060960196" y="200.632019"/>
     <use style="fill:#009988;stroke:#009988;stroke-linejoin:miter;" x="302.853738" xlink:href="#md060960196" y="199.796515"/>
     <use style="fill:#009988;stroke:#009988;stroke-linejoin:miter;" x="320.878657" xlink:href="#md060960196" y="248.751222"/>
     <use style="fill:#009988;stroke:#009988;stroke-linejoin:miter;" x="338.903576" xlink:href="#md060960196" y="264.951769"/>
     <use style="fill:#009988;stroke:#009988;stroke-linejoin:miter;" x="356.928496" xlink:href="#md060960196" y="224.206823"/>
     <use style="fill:#009988;stroke:#009988;stroke-linejoin:miter;" x="374.953415" xlink:href="#md060960196" y="185.299144"/>
     <use style="fill:#009988;stroke:#009988;stroke-linejoin:miter;" x="392.978334" xlink:href="#md060960196" y="153.080594"/>
     <use style="fill:#009988;stroke:#009988;stroke-linejoin:miter;" x="411.003253" xlink:href="#md060960196" y="152.322039"/>
     <use style="fill:#009988;stroke:#009988;stroke-linejoin:miter;" x="429.028173" xlink:href="#md060960196" y="181.540602"/>
     <use style="fill:#009988;stroke:#009988;stroke-linejoin:miter;" x="447.053092" xlink:href="#md060960196" y="216.629427"/>
     <use style="fill:#009988;stroke:#009988;stroke-linejoin:miter;" x="465.078011" xlink:href="#md060960196" y="189.106979"/>
    </g>
   </g>
   <g id="line2d_30"/>
   <g id="line2d_31"/>
   <g id="line2d_32"/>
   <g id="line2d_33"/>
   <g id="line2d_34">
    <path clip-path="url(#p77821c60cf)" d="M 122.604545 246.063779 
L 124.407037 237.366921 
L 126.209529 249.099203 
L 128.012021 237.420518 
L 129.814513 224.498383 
L 131.617005 231.303321 
L 133.419497 241.537953 
L 135.221989 237.140111 
L 137.024481 239.126206 
L 138.826973 235.284669 
L 142.431957 241.507019 
L 144.234449 237.799159 
L 146.03694 231.993363 
L 147.839432 230.187545 
L 149.641924 227.475894 
L 151.444416 226.38944 
L 153.246908 223.12795 
L 155.0494 220.792801 
L 156.851892 224.410082 
L 158.654384 221.356691 
L 160.456876 222.224596 
L 162.259368 217.533839 
L 164.06186 219.703957 
L 165.864352 223.719865 
L 167.666844 216.949789 
L 169.469335 215.002695 
L 171.271827 213.248298 
L 173.074319 208.85898 
L 174.876811 208.57414 
L 176.679303 202.580449 
L 178.481795 198.367352 
L 180.284287 195.911142 
L 182.086779 200.092525 
L 183.889271 201.044424 
L 185.691763 205.174872 
L 187.494255 204.555029 
L 189.296747 206.976974 
L 191.099239 210.068771 
L 192.901731 208.596019 
L 194.704222 213.107609 
L 196.506714 209.746794 
L 198.309206 210.32256 
L 200.111698 208.694085 
L 201.91419 206.334954 
L 203.716682 211.354748 
L 207.321666 215.114492 
L 209.124158 215.187374 
L 210.92665 213.80561 
L 212.729142 219.717117 
L 214.531634 222.132266 
L 216.334126 226.158203 
L 218.136617 225.367427 
L 219.939109 225.344384 
L 221.741601 217.186183 
L 223.544093 214.337011 
L 225.346585 214.059171 
L 227.149077 210.966753 
L 228.951569 209.991565 
L 230.754061 212.305169 
L 232.556553 212.432364 
L 234.359045 211.268911 
L 236.161537 212.1897 
L 237.964029 211.584434 
L 239.766521 212.235099 
L 241.569012 206.041523 
L 243.371504 204.613807 
L 245.173996 210.37867 
L 248.77898 219.915776 
L 250.581472 219.563174 
L 252.383964 218.404888 
L 254.186456 218.889089 
L 255.988948 215.19114 
L 257.79144 216.22097 
L 259.593932 222.667365 
L 261.396424 222.3776 
L 263.198916 224.219528 
L 265.001407 222.21449 
L 266.803899 211.369502 
L 268.606391 214.586068 
L 270.408883 213.353078 
L 272.211375 208.373782 
L 274.013867 208.512534 
L 275.816359 208.052724 
L 277.618851 210.707395 
L 279.421343 207.40839 
L 283.026327 199.502555 
L 284.828819 197.617314 
L 286.631311 210.108211 
L 288.433802 221.233022 
L 290.236294 216.847712 
L 292.038786 217.919 
L 293.841278 228.656143 
L 295.64377 221.197496 
L 297.446262 216.914134 
L 299.248754 213.725693 
L 301.051246 211.970937 
L 302.853738 213.499845 
L 304.65623 207.562511 
L 306.458722 277.439864 
L 308.261214 279.21898 
L 310.063706 276.958826 
L 311.866198 271.194564 
L 313.668689 265.935656 
L 315.471181 267.050234 
L 317.273673 263.493739 
L 319.076165 261.459813 
L 320.878657 254.034775 
L 322.681149 237.516515 
L 324.483641 222.263899 
L 326.286133 221.705356 
L 328.088625 250.278581 
L 329.891117 241.170525 
L 331.693609 241.966581 
L 333.496101 244.392947 
L 335.298593 242.754684 
L 337.101084 240.253138 
L 338.903576 288.418996 
L 340.706068 287.607312 
L 342.50856 249.231511 
L 344.311052 248.429289 
L 346.113544 248.839762 
L 347.916036 251.285929 
L 349.718528 250.465177 
L 351.52102 251.289623 
L 353.323512 290.895342 
L 355.126004 290.489805 
L 356.928496 288.028299 
L 358.730988 286.399609 
L 360.533479 286.804314 
L 362.335971 285.991395 
L 364.138463 253.999668 
L 365.940955 252.390308 
L 367.743447 252.375931 
L 369.545939 251.158082 
L 371.348431 252.770335 
L 373.150923 253.174633 
L 374.953415 205.832013 
L 376.755907 206.643696 
L 378.558399 175.607539 
L 380.360891 173.162186 
L 382.163383 172.754591 
L 383.965874 170.712735 
L 385.768366 171.112768 
L 387.570858 169.88217 
L 389.37335 131.501096 
L 391.175842 131.513407 
L 392.978334 131.10664 
L 394.780826 131.92857 
L 396.583318 132.335956 
L 400.188302 135.602417 
L 401.990794 137.640591 
L 403.793286 136.830131 
L 405.595778 135.616624 
L 407.398269 134.814793 
L 409.200761 134.408026 
L 411.003253 132.358777 
L 412.805745 131.549544 
L 414.608237 129.504364 
L 416.410729 164.103594 
L 418.213221 162.877135 
L 420.015713 162.065451 
L 421.818205 162.474651 
L 423.620697 162.481227 
L 425.423189 160.03298 
L 427.225681 160.02886 
L 429.028173 161.654292 
L 432.633156 160.025282 
L 434.435648 160.022398 
L 436.23814 158.798796 
L 438.040632 158.386438 
L 439.843124 158.390116 
L 441.645616 189.881706 
L 443.448108 188.659753 
L 445.2506 189.069816 
L 448.855584 190.706306 
L 450.658076 190.709591 
L 452.460568 156.109124 
L 454.26306 157.769749 
L 456.065551 157.7722 
L 457.868043 158.992908 
L 459.670535 159.402774 
L 461.473027 161.039349 
L 463.275519 160.629094 
L 465.078011 159.821525 
L 466.880503 160.235642 
L 468.682995 159.816685 
L 470.485487 159.004175 
L 472.287979 159.813401 
L 474.090471 156.958387 
L 475.892963 156.962088 
L 477.695455 124.651813 
L 477.695455 124.651813 
" style="fill:none;stroke:#0077bb;stroke-dasharray:3.2,0.8,0.5,0.8;stroke-dashoffset:0;stroke-width:0.5;"/>
    <defs>
     <path d="M 0 -2.5 
L -2.5 2.5 
L 2.5 2.5 
z
" id="m222f240a0c" style="stroke:#0077bb;stroke-linejoin:miter;"/>
    </defs>
    <g clip-path="url(#p77821c60cf)">
     <use style="fill:#0077bb;stroke:#0077bb;stroke-linejoin:miter;" x="122.604545" xlink:href="#m222f240a0c" y="246.063779"/>
     <use style="fill:#0077bb;stroke:#0077bb;stroke-linejoin:miter;" x="140.629465" xlink:href="#m222f240a0c" y="238.470127"/>
     <use style="fill:#0077bb;stroke:#0077bb;stroke-linejoin:miter;" x="158.654384" xlink:href="#m222f240a0c" y="221.356691"/>
     <use style="fill:#0077bb;stroke:#0077bb;stroke-linejoin:miter;" x="176.679303" xlink:href="#m222f240a0c" y="202.580449"/>
     <use style="fill:#0077bb;stroke:#0077bb;stroke-linejoin:miter;" x="194.704222" xlink:href="#m222f240a0c" y="213.107609"/>
     <use style="fill:#0077bb;stroke:#0077bb;stroke-linejoin:miter;" x="212.729142" xlink:href="#m222f240a0c" y="219.717117"/>
     <use style="fill:#0077bb;stroke:#0077bb;stroke-linejoin:miter;" x="230.754061" xlink:href="#m222f240a0c" y="212.305169"/>
     <use style="fill:#0077bb;stroke:#0077bb;stroke-linejoin:miter;" x="248.77898" xlink:href="#m222f240a0c" y="219.915776"/>
     <use style="fill:#0077bb;stroke:#0077bb;stroke-linejoin:miter;" x="266.803899" xlink:href="#m222f240a0c" y="211.369502"/>
     <use style="fill:#0077bb;stroke:#0077bb;stroke-linejoin:miter;" x="284.828819" xlink:href="#m222f240a0c" y="197.617314"/>
     <use style="fill:#0077bb;stroke:#0077bb;stroke-linejoin:miter;" x="302.853738" xlink:href="#m222f240a0c" y="213.499845"/>
     <use style="fill:#0077bb;stroke:#0077bb;stroke-linejoin:miter;" x="320.878657" xlink:href="#m222f240a0c" y="254.034775"/>
     <use style="fill:#0077bb;stroke:#0077bb;stroke-linejoin:miter;" x="338.903576" xlink:href="#m222f240a0c" y="288.418996"/>
     <use style="fill:#0077bb;stroke:#0077bb;stroke-linejoin:miter;" x="356.928496" xlink:href="#m222f240a0c" y="288.028299"/>
     <use style="fill:#0077bb;stroke:#0077bb;stroke-linejoin:miter;" x="374.953415" xlink:href="#m222f240a0c" y="205.832013"/>
     <use style="fill:#0077bb;stroke:#0077bb;stroke-linejoin:miter;" x="392.978334" xlink:href="#m222f240a0c" y="131.10664"/>
     <use style="fill:#0077bb;stroke:#0077bb;stroke-linejoin:miter;" x="411.003253" xlink:href="#m222f240a0c" y="132.358777"/>
     <use style="fill:#0077bb;stroke:#0077bb;stroke-linejoin:miter;" x="429.028173" xlink:href="#m222f240a0c" y="161.654292"/>
     <use style="fill:#0077bb;stroke:#0077bb;stroke-linejoin:miter;" x="447.053092" xlink:href="#m222f240a0c" y="189.88721"/>
     <use style="fill:#0077bb;stroke:#0077bb;stroke-linejoin:miter;" x="465.078011" xlink:href="#m222f240a0c" y="159.821525"/>
    </g>
   </g>
   <g id="line2d_35"/>
   <g id="line2d_36"/>
   <g id="line2d_37"/>
   <g id="line2d_38"/>
   <g id="line2d_39">
    <path clip-path="url(#p77821c60cf)" d="M 122.604545 231.280066 
L 124.407037 247.200887 
L 126.209529 282.1862 
L 128.012021 264.806742 
L 129.814513 258.753532 
L 131.617005 259.067947 
L 133.419497 266.341048 
L 135.221989 269.362303 
L 137.024481 271.234473 
L 138.826973 268.177006 
L 140.629465 291.362434 
L 142.431957 302.194539 
L 144.234449 295.17629 
L 146.03694 287.278267 
L 147.839432 283.147336 
L 149.641924 281.473222 
L 151.444416 275.912074 
L 153.246908 275.900584 
L 155.0494 273.834829 
L 156.851892 278.28835 
L 158.654384 283.850704 
L 160.456876 287.598687 
L 162.259368 284.052242 
L 164.06186 289.361618 
L 165.864352 299.636112 
L 167.666844 303.206418 
L 169.469335 303.705673 
L 171.271827 299.661305 
L 173.074319 298.762431 
L 174.876811 299.092664 
L 176.679303 284.126519 
L 178.481795 279.096813 
L 180.284287 280.37757 
L 182.086779 288.91535 
L 183.889271 293.651974 
L 185.691763 296.172074 
L 187.494255 300.419499 
L 189.296747 299.686943 
L 191.099239 302.837139 
L 192.901731 299.560491 
L 194.704222 298.111092 
L 196.506714 295.888972 
L 198.309206 296.517288 
L 200.111698 294.03646 
L 201.91419 289.215121 
L 203.716682 289.416191 
L 205.519174 288.802822 
L 207.321666 294.884407 
L 209.124158 293.445411 
L 210.92665 290.628181 
L 212.729142 294.921818 
L 214.531634 294.501989 
L 216.334126 300.83292 
L 218.136617 300.563201 
L 219.939109 298.8636 
L 221.741601 294.132914 
L 223.544093 293.754846 
L 225.346585 293.652117 
L 227.149077 292.283765 
L 228.951569 294.214901 
L 230.754061 299.794791 
L 232.556553 303.547083 
L 234.359045 303.113848 
L 236.161537 303.815052 
L 237.964029 297.140874 
L 239.766521 293.761744 
L 241.569012 292.011561 
L 243.371504 291.145261 
L 245.173996 296.542425 
L 246.976488 299.610355 
L 248.77898 302.997057 
L 250.581472 303.502751 
L 252.383964 301.877867 
L 254.186456 299.112993 
L 255.988948 293.762272 
L 257.79144 295.45042 
L 259.593932 299.739204 
L 261.396424 301.58893 
L 263.198916 303.26977 
L 265.001407 303.330353 
L 266.803899 292.867428 
L 268.606391 292.766364 
L 270.408883 292.841769 
L 272.211375 290.463439 
L 274.013867 296.802106 
L 275.816359 298.753408 
L 277.618851 299.551114 
L 279.421343 297.30738 
L 281.223835 293.402923 
L 283.026327 295.820026 
L 284.828819 289.224497 
L 286.631311 288.101917 
L 288.433802 285.797956 
L 290.236294 284.890115 
L 292.038786 288.753112 
L 293.841278 299.372905 
L 295.64377 295.754213 
L 297.446262 291.019968 
L 299.248754 286.602215 
L 301.051246 286.946364 
L 302.853738 288.630828 
L 304.65623 279.896374 
L 306.458722 347.761255 
L 308.261214 348.848368 
L 310.063706 345.703917 
L 313.668689 337.586344 
L 315.471181 337.415043 
L 317.273673 334.802108 
L 319.076165 333.035212 
L 320.878657 336.56599 
L 322.681149 335.256156 
L 324.483641 332.294691 
L 326.286133 331.759262 
L 328.088625 362.800332 
L 329.891117 351.522674 
L 331.693609 349.316509 
L 333.496101 353.762202 
L 335.298593 355.823232 
L 337.101084 349.881341 
L 338.903576 350.693069 
L 340.706068 351.909718 
L 342.50856 282.215022 
L 344.311052 285.130753 
L 346.113544 283.499017 
L 347.916036 288.028073 
L 349.718528 291.684383 
L 351.52102 291.308049 
L 353.323512 292.524049 
L 355.126004 291.298729 
L 356.928496 286.328518 
L 358.730988 284.668814 
L 360.533479 283.836375 
L 362.335971 282.19804 
L 364.138463 250.351322 
L 365.940955 251.23944 
L 367.743447 249.967443 
L 369.545939 247.108073 
L 371.348431 244.991077 
L 373.150923 246.616981 
L 374.953415 247.887892 
L 376.755907 248.302065 
L 378.558399 247.47997 
L 380.360891 243.790702 
L 382.163383 245.431553 
L 383.965874 243.348422 
L 385.768366 239.634396 
L 387.570858 238.374062 
L 389.37335 237.568161 
L 391.175842 237.612776 
L 394.780826 236.019405 
L 396.583318 238.479393 
L 398.38581 240.13514 
L 400.188302 239.798676 
L 401.990794 240.597797 
L 403.793286 243.453953 
L 405.595778 242.256412 
L 407.398269 243.107788 
L 409.200761 238.60817 
L 411.003253 232.410244 
L 412.805745 233.651227 
L 414.608237 231.982711 
L 416.410729 265.882033 
L 418.213221 261.364226 
L 420.015713 260.537655 
L 421.818205 261.370675 
L 423.620697 261.398808 
L 425.423189 259.754706 
L 427.225681 258.920614 
L 430.830665 261.316675 
L 432.633156 259.722579 
L 434.435648 259.713864 
L 436.23814 260.527227 
L 438.040632 261.753227 
L 439.843124 258.097682 
L 441.645616 290.591407 
L 443.448108 289.777228 
L 445.2506 293.882509 
L 447.053092 299.219635 
L 450.658076 297.631821 
L 452.460568 262.070885 
L 454.26306 263.769417 
L 456.065551 261.339173 
L 457.868043 262.16325 
L 459.670535 264.639156 
L 461.473027 265.885633 
L 463.275519 265.463995 
L 465.078011 263.844728 
L 466.880503 264.301762 
L 468.682995 264.228612 
L 470.485487 263.005749 
L 472.287979 262.573105 
L 474.090471 260.098044 
L 475.892963 259.294607 
L 477.695455 230.037772 
L 477.695455 230.037772 
" style="fill:none;stroke:#ee7733;stroke-dasharray:0.5,0.825;stroke-dashoffset:0;stroke-width:0.5;"/>
    <defs>
     <path d="M 0 -2.5 
L -0.561285 -0.772542 
L -2.377641 -0.772542 
L -0.908178 0.295085 
L -1.469463 2.022542 
L -0 0.954915 
L 1.469463 2.022542 
L 0.908178 0.295085 
L 2.377641 -0.772542 
L 0.561285 -0.772542 
z
" id="m4b18452d42" style="stroke:#ee7733;stroke-linejoin:bevel;"/>
    </defs>
    <g clip-path="url(#p77821c60cf)">
     <use style="fill:#ee7733;stroke:#ee7733;stroke-linejoin:bevel;" x="122.604545" xlink:href="#m4b18452d42" y="231.280066"/>
     <use style="fill:#ee7733;stroke:#ee7733;stroke-linejoin:bevel;" x="140.629465" xlink:href="#m4b18452d42" y="291.362434"/>
     <use style="fill:#ee7733;stroke:#ee7733;stroke-linejoin:bevel;" x="158.654384" xlink:href="#m4b18452d42" y="283.850704"/>
     <use style="fill:#ee7733;stroke:#ee7733;stroke-linejoin:bevel;" x="176.679303" xlink:href="#m4b18452d42" y="284.126519"/>
     <use style="fill:#ee7733;stroke:#ee7733;stroke-linejoin:bevel;" x="194.704222" xlink:href="#m4b18452d42" y="298.111092"/>
     <use style="fill:#ee7733;stroke:#ee7733;stroke-linejoin:bevel;" x="212.729142" xlink:href="#m4b18452d42" y="294.921818"/>
     <use style="fill:#ee7733;stroke:#ee7733;stroke-linejoin:bevel;" x="230.754061" xlink:href="#m4b18452d42" y="299.794791"/>
     <use style="fill:#ee7733;stroke:#ee7733;stroke-linejoin:bevel;" x="248.77898" xlink:href="#m4b18452d42" y="302.997057"/>
     <use style="fill:#ee7733;stroke:#ee7733;stroke-linejoin:bevel;" x="266.803899" xlink:href="#m4b18452d42" y="292.867428"/>
     <use style="fill:#ee7733;stroke:#ee7733;stroke-linejoin:bevel;" x="284.828819" xlink:href="#m4b18452d42" y="289.224497"/>
     <use style="fill:#ee7733;stroke:#ee7733;stroke-linejoin:bevel;" x="302.853738" xlink:href="#m4b18452d42" y="288.630828"/>
     <use style="fill:#ee7733;stroke:#ee7733;stroke-linejoin:bevel;" x="320.878657" xlink:href="#m4b18452d42" y="336.56599"/>
     <use style="fill:#ee7733;stroke:#ee7733;stroke-linejoin:bevel;" x="338.903576" xlink:href="#m4b18452d42" y="350.693069"/>
     <use style="fill:#ee7733;stroke:#ee7733;stroke-linejoin:bevel;" x="356.928496" xlink:href="#m4b18452d42" y="286.328518"/>
     <use style="fill:#ee7733;stroke:#ee7733;stroke-linejoin:bevel;" x="374.953415" xlink:href="#m4b18452d42" y="247.887892"/>
     <use style="fill:#ee7733;stroke:#ee7733;stroke-linejoin:bevel;" x="392.978334" xlink:href="#m4b18452d42" y="236.794876"/>
     <use style="fill:#ee7733;stroke:#ee7733;stroke-linejoin:bevel;" x="411.003253" xlink:href="#m4b18452d42" y="232.410244"/>
     <use style="fill:#ee7733;stroke:#ee7733;stroke-linejoin:bevel;" x="429.028173" xlink:href="#m4b18452d42" y="260.141169"/>
     <use style="fill:#ee7733;stroke:#ee7733;stroke-linejoin:bevel;" x="447.053092" xlink:href="#m4b18452d42" y="299.219635"/>
     <use style="fill:#ee7733;stroke:#ee7733;stroke-linejoin:bevel;" x="465.078011" xlink:href="#m4b18452d42" y="263.844728"/>
    </g>
   </g>
   <g id="line2d_40"/>
   <g id="line2d_41"/>
   <g id="line2d_42"/>
   <g id="line2d_43"/>
   <g id="line2d_44">
    <path clip-path="url(#p77821c60cf)" d="M 122.604545 257.609961 
L 124.407037 270.120378 
L 126.209529 267.155528 
L 128.012021 254.338093 
L 129.814513 244.810231 
L 131.617005 252.009547 
L 133.419497 249.910956 
L 135.221989 247.14164 
L 137.024481 251.860237 
L 138.826973 248.999823 
L 140.629465 255.905108 
L 142.431957 258.010145 
L 144.234449 252.141058 
L 146.03694 244.508803 
L 147.839432 245.161294 
L 149.641924 244.619631 
L 151.444416 242.524722 
L 153.246908 238.063653 
L 155.0494 235.730322 
L 156.851892 235.686793 
L 158.654384 230.634846 
L 160.456876 226.843934 
L 162.259368 223.883367 
L 164.06186 222.75432 
L 165.864352 225.573698 
L 167.666844 217.669715 
L 169.469335 217.291547 
L 173.074319 207.387056 
L 174.876811 204.598638 
L 176.679303 195.313215 
L 178.481795 190.787482 
L 180.284287 187.004102 
L 182.086779 194.046177 
L 183.889271 191.68361 
L 185.691763 192.009494 
L 187.494255 188.605566 
L 189.296747 188.7389 
L 191.099239 191.082185 
L 192.901731 191.67053 
L 194.704222 198.821666 
L 196.506714 197.993911 
L 198.309206 197.406384 
L 200.111698 196.983268 
L 201.91419 193.341824 
L 203.716682 199.477342 
L 205.519174 198.68019 
L 207.321666 202.464483 
L 209.124158 200.707639 
L 210.92665 200.702191 
L 212.729142 207.753618 
L 214.531634 210.774434 
L 216.334126 217.281932 
L 218.136617 214.760914 
L 219.939109 216.146257 
L 221.741601 209.894571 
L 223.544093 210.394276 
L 225.346585 213.815712 
L 227.149077 210.723294 
L 228.951569 211.17334 
L 230.754061 210.884145 
L 232.556553 212.186895 
L 234.359045 212.790874 
L 236.161537 216.862645 
L 237.964029 218.770611 
L 239.766521 218.305551 
L 241.569012 215.114295 
L 243.371504 214.395691 
L 245.173996 219.358838 
L 246.976488 221.360163 
L 248.77898 222.700878 
L 250.581472 220.222864 
L 252.383964 218.489828 
L 254.186456 218.405007 
L 255.988948 212.447918 
L 257.79144 212.891119 
L 259.593932 219.297483 
L 261.396424 218.881262 
L 263.198916 221.224554 
L 265.001407 219.157177 
L 266.803899 210.705441 
L 268.606391 212.676486 
L 270.408883 209.197363 
L 272.211375 202.955575 
L 274.013867 202.297119 
L 275.816359 202.294957 
L 277.618851 203.205418 
L 279.421343 199.78912 
L 281.223835 201.644281 
L 283.026327 201.360012 
L 284.828819 202.682792 
L 286.631311 209.750083 
L 288.433802 221.299766 
L 290.236294 216.914456 
L 292.038786 220.107186 
L 293.841278 221.010142 
L 295.64377 213.441476 
L 297.446262 208.146762 
L 299.248754 204.456956 
L 301.051246 201.363294 
L 302.853738 201.883449 
L 304.65623 195.849544 
L 306.458722 266.946567 
L 308.261214 268.663117 
L 310.063706 265.878517 
L 311.866198 260.062553 
L 313.668689 258.828704 
L 315.471181 259.892185 
L 317.273673 252.078264 
L 319.076165 249.148528 
L 320.878657 241.284574 
L 322.681149 232.116436 
L 324.483641 216.438948 
L 326.286133 216.287174 
L 328.088625 244.040305 
L 331.693609 243.927025 
L 333.496101 246.353391 
L 335.298593 244.715128 
L 337.101084 243.450021 
L 338.903576 245.483879 
L 340.706068 244.266454 
L 342.50856 205.149683 
L 344.311052 204.348701 
L 346.113544 245.05562 
L 347.916036 245.465875 
L 349.718528 243.827658 
L 351.52102 243.837531 
L 353.323512 283.44325 
L 355.126004 282.227253 
L 356.928496 278.546061 
L 358.730988 276.106086 
L 360.533479 276.103611 
L 362.335971 274.477773 
L 364.138463 243.283509 
L 365.940955 267.96427 
L 367.743447 268.358106 
L 369.545939 267.140257 
L 371.348431 267.94041 
L 373.150923 267.123787 
L 374.953415 265.504537 
L 376.755907 265.910685 
L 378.558399 234.465898 
L 380.360891 231.612121 
L 382.163383 190.500899 
L 383.965874 190.494749 
L 385.768366 189.683063 
L 387.570858 188.454735 
L 389.37335 184.162343 
L 391.175842 184.985114 
L 392.978334 184.985114 
L 394.780826 186.21156 
L 396.583318 223.569681 
L 398.38581 225.608257 
L 400.188302 261.761489 
L 401.990794 238.322055 
L 403.793286 237.511595 
L 405.595778 235.889875 
L 407.398269 235.900144 
L 409.200761 236.306706 
L 411.003253 234.666087 
L 412.805745 235.48146 
L 414.608237 233.84491 
L 416.410729 268.444139 
L 420.015713 266.000255 
L 421.818205 268.026916 
L 423.620697 268.439437 
L 425.423189 232.309482 
L 427.225681 232.712542 
L 429.028173 235.150891 
L 430.830665 233.923633 
L 432.633156 196.164339 
L 434.435648 196.161455 
L 436.23814 160.422534 
L 438.040632 158.785531 
L 439.843124 157.977112 
L 441.645616 189.485115 
L 443.448108 188.670961 
L 445.2506 189.488823 
L 447.053092 190.71278 
L 450.658076 189.908912 
L 452.460568 155.308445 
L 454.26306 156.96907 
L 456.065551 157.377672 
L 457.868043 158.192638 
L 459.670535 158.19429 
L 461.473027 188.974243 
L 463.275519 188.156807 
L 465.078011 186.941438 
L 466.880503 187.352897 
L 468.682995 188.154687 
L 470.485487 187.342177 
L 472.287979 187.338483 
L 474.090471 186.114882 
L 475.892963 187.338272 
L 477.695455 156.231073 
L 477.695455 156.231073 
" style="fill:none;stroke:#ee3377;stroke-dasharray:3.2,0.8,0.5,0.8;stroke-dashoffset:0;stroke-width:0.5;"/>
    <defs>
     <path d="M -1.25 2.5 
L 0 1.25 
L 1.25 2.5 
L 2.5 1.25 
L 1.25 0 
L 2.5 -1.25 
L 1.25 -2.5 
L 0 -1.25 
L -1.25 -2.5 
L -2.5 -1.25 
L -1.25 0 
L -2.5 1.25 
z
" id="mc90f12aaf7" style="stroke:#ee3377;stroke-linejoin:miter;"/>
    </defs>
    <g clip-path="url(#p77821c60cf)">
     <use style="fill:#ee3377;stroke:#ee3377;stroke-linejoin:miter;" x="122.604545" xlink:href="#mc90f12aaf7" y="257.609961"/>
     <use style="fill:#ee3377;stroke:#ee3377;stroke-linejoin:miter;" x="140.629465" xlink:href="#mc90f12aaf7" y="255.905108"/>
     <use style="fill:#ee3377;stroke:#ee3377;stroke-linejoin:miter;" x="158.654384" xlink:href="#mc90f12aaf7" y="230.634846"/>
     <use style="fill:#ee3377;stroke:#ee3377;stroke-linejoin:miter;" x="176.679303" xlink:href="#mc90f12aaf7" y="195.313215"/>
     <use style="fill:#ee3377;stroke:#ee3377;stroke-linejoin:miter;" x="194.704222" xlink:href="#mc90f12aaf7" y="198.821666"/>
     <use style="fill:#ee3377;stroke:#ee3377;stroke-linejoin:miter;" x="212.729142" xlink:href="#mc90f12aaf7" y="207.753618"/>
     <use style="fill:#ee3377;stroke:#ee3377;stroke-linejoin:miter;" x="230.754061" xlink:href="#mc90f12aaf7" y="210.884145"/>
     <use style="fill:#ee3377;stroke:#ee3377;stroke-linejoin:miter;" x="248.77898" xlink:href="#mc90f12aaf7" y="222.700878"/>
     <use style="fill:#ee3377;stroke:#ee3377;stroke-linejoin:miter;" x="266.803899" xlink:href="#mc90f12aaf7" y="210.705441"/>
     <use style="fill:#ee3377;stroke:#ee3377;stroke-linejoin:miter;" x="284.828819" xlink:href="#mc90f12aaf7" y="202.682792"/>
     <use style="fill:#ee3377;stroke:#ee3377;stroke-linejoin:miter;" x="302.853738" xlink:href="#mc90f12aaf7" y="201.883449"/>
     <use style="fill:#ee3377;stroke:#ee3377;stroke-linejoin:miter;" x="320.878657" xlink:href="#mc90f12aaf7" y="241.284574"/>
     <use style="fill:#ee3377;stroke:#ee3377;stroke-linejoin:miter;" x="338.903576" xlink:href="#mc90f12aaf7" y="245.483879"/>
     <use style="fill:#ee3377;stroke:#ee3377;stroke-linejoin:miter;" x="356.928496" xlink:href="#mc90f12aaf7" y="278.546061"/>
     <use style="fill:#ee3377;stroke:#ee3377;stroke-linejoin:miter;" x="374.953415" xlink:href="#mc90f12aaf7" y="265.504537"/>
     <use style="fill:#ee3377;stroke:#ee3377;stroke-linejoin:miter;" x="392.978334" xlink:href="#mc90f12aaf7" y="184.985114"/>
     <use style="fill:#ee3377;stroke:#ee3377;stroke-linejoin:miter;" x="411.003253" xlink:href="#mc90f12aaf7" y="234.666087"/>
     <use style="fill:#ee3377;stroke:#ee3377;stroke-linejoin:miter;" x="429.028173" xlink:href="#mc90f12aaf7" y="235.150891"/>
     <use style="fill:#ee3377;stroke:#ee3377;stroke-linejoin:miter;" x="447.053092" xlink:href="#mc90f12aaf7" y="190.71278"/>
     <use style="fill:#ee3377;stroke:#ee3377;stroke-linejoin:miter;" x="465.078011" xlink:href="#mc90f12aaf7" y="186.941438"/>
    </g>
   </g>
   <g id="line2d_45"/>
   <g id="line2d_46"/>
   <g id="line2d_47"/>
   <g id="line2d_48"/>
   <g id="line2d_49">
    <path clip-path="url(#p77821c60cf)" d="M 243.371504 389.251812 
L 243.371504 112.051812 
" style="fill:none;stroke:#000000;stroke-dasharray:2.5,5;stroke-dashoffset:0;stroke-width:0.5;"/>
   </g>
   <g id="line2d_50">
    <path clip-path="url(#p77821c60cf)" d="M 297.446262 389.251812 
L 297.446262 112.051812 
" style="fill:none;stroke:#000000;stroke-dasharray:2.5,5;stroke-dashoffset:0;stroke-width:0.5;"/>
   </g>
   <g id="patch_4">
    <path d="M 104.85 389.251813 
L 104.85 112.051813 
" style="fill:none;stroke:#000000;stroke-linecap:square;stroke-linejoin:miter;stroke-width:0.8;"/>
   </g>
   <g id="patch_5">
    <path d="M 495.45 389.251813 
L 495.45 112.051813 
" style="fill:none;stroke:#000000;stroke-linecap:square;stroke-linejoin:miter;stroke-width:0.8;"/>
   </g>
   <g id="patch_6">
    <path d="M 104.85 389.251812 
L 495.45 389.251812 
" style="fill:none;stroke:#000000;stroke-linecap:square;stroke-linejoin:miter;stroke-width:0.8;"/>
   </g>
   <g id="patch_7">
    <path d="M 104.85 112.051812 
L 495.45 112.051812 
" style="fill:none;stroke:#000000;stroke-linecap:square;stroke-linejoin:miter;stroke-width:0.8;"/>
   </g>
   <g id="legend_1">
    <g id="line2d_51"/>
    <g id="line2d_52"/>
    <g id="text_21">
     <!--   -->
     <g transform="translate(48.8 22.277969)scale(0.13 -0.13)">
      <use xlink:href="#DejaVuSans-32"/>
     </g>
    </g>
    <g id="line2d_53"/>
    <g id="line2d_54"/>
    <g id="text_22">
     <!-- start -->
     <g transform="translate(48.8 41.359531)scale(0.13 -0.13)">
      <use xlink:href="#DejaVuSans-115"/>
      <use x="52.099609" xlink:href="#DejaVuSans-116"/>
      <use x="91.308594" xlink:href="#DejaVuSans-97"/>
      <use x="152.587891" xlink:href="#DejaVuSans-114"/>
      <use x="193.701172" xlink:href="#DejaVuSans-116"/>
     </g>
    </g>
    <g id="line2d_55"/>
    <g id="line2d_56"/>
    <g id="text_23">
     <!-- pre-dirft -->
     <g transform="translate(48.8 60.441094)scale(0.13 -0.13)">
      <use xlink:href="#DejaVuSans-112"/>
      <use x="63.476562" xlink:href="#DejaVuSans-114"/>
      <use x="102.339844" xlink:href="#DejaVuSans-101"/>
      <use x="163.863281" xlink:href="#DejaVuSans-45"/>
      <use x="199.947266" xlink:href="#DejaVuSans-100"/>
      <use x="263.423828" xlink:href="#DejaVuSans-105"/>
      <use x="291.207031" xlink:href="#DejaVuSans-114"/>
      <use x="332.320312" xlink:href="#DejaVuSans-102"/>
      <use x="365.775391" xlink:href="#DejaVuSans-116"/>
     </g>
    </g>
    <g id="line2d_57"/>
    <g id="line2d_58"/>
    <g id="text_24">
     <!-- post-drift -->
     <g transform="translate(48.8 79.522656)scale(0.13 -0.13)">
      <use xlink:href="#DejaVuSans-112"/>
      <use x="63.476562" xlink:href="#DejaVuSans-111"/>
      <use x="124.658203" xlink:href="#DejaVuSans-115"/>
      <use x="176.757812" xlink:href="#DejaVuSans-116"/>
      <use x="215.966797" xlink:href="#DejaVuSans-45"/>
      <use x="252.050781" xlink:href="#DejaVuSans-100"/>
      <use x="315.527344" xlink:href="#DejaVuSans-114"/>
      <use x="356.640625" xlink:href="#DejaVuSans-105"/>
      <use x="384.423828" xlink:href="#DejaVuSans-102"/>
      <use x="417.878906" xlink:href="#DejaVuSans-116"/>
     </g>
    </g>
    <g id="line2d_59"/>
    <g id="line2d_60"/>
    <g id="text_25">
     <!-- end -->
     <g transform="translate(48.8 98.604219)scale(0.13 -0.13)">
      <use xlink:href="#DejaVuSans-101"/>
      <use x="61.523438" xlink:href="#DejaVuSans-110"/>
      <use x="124.902344" xlink:href="#DejaVuSans-100"/>
     </g>
    </g>
    <g id="line2d_61">
     <path d="M 102.738313 17.727969 
L 128.738313 17.727969 
" style="fill:none;stroke:#cc3311;stroke-linecap:square;stroke-width:0.5;"/>
    </g>
    <g id="line2d_62">
     <g>
      <use style="fill:#cc3311;stroke:#cc3311;" x="115.738313" xlink:href="#m02eb6a822b" y="17.727969"/>
     </g>
    </g>
    <g id="text_26">
     <!-- OB -->
     <g transform="translate(139.138313 22.277969)scale(0.13 -0.13)">
      <defs>
       <path d="M 39.40625 66.21875 
Q 28.65625 66.21875 22.328125 58.203125 
Q 16.015625 50.203125 16.015625 36.375 
Q 16.015625 22.609375 22.328125 14.59375 
Q 28.65625 6.59375 39.40625 6.59375 
Q 50.140625 6.59375 56.421875 14.59375 
Q 62.703125 22.609375 62.703125 36.375 
Q 62.703125 50.203125 56.421875 58.203125 
Q 50.140625 66.21875 39.40625 66.21875 
z
M 39.40625 74.21875 
Q 54.734375 74.21875 63.90625 63.9375 
Q 73.09375 53.65625 73.09375 36.375 
Q 73.09375 19.140625 63.90625 8.859375 
Q 54.734375 -1.421875 39.40625 -1.421875 
Q 24.03125 -1.421875 14.8125 8.828125 
Q 5.609375 19.09375 5.609375 36.375 
Q 5.609375 53.65625 14.8125 63.9375 
Q 24.03125 74.21875 39.40625 74.21875 
z
" id="DejaVuSans-79"/>
       <path d="M 19.671875 34.8125 
L 19.671875 8.109375 
L 35.5 8.109375 
Q 43.453125 8.109375 47.28125 11.40625 
Q 51.125 14.703125 51.125 21.484375 
Q 51.125 28.328125 47.28125 31.5625 
Q 43.453125 34.8125 35.5 34.8125 
z
M 19.671875 64.796875 
L 19.671875 42.828125 
L 34.28125 42.828125 
Q 41.5 42.828125 45.03125 45.53125 
Q 48.578125 48.25 48.578125 53.8125 
Q 48.578125 59.328125 45.03125 62.0625 
Q 41.5 64.796875 34.28125 64.796875 
z
M 9.8125 72.90625 
L 35.015625 72.90625 
Q 46.296875 72.90625 52.390625 68.21875 
Q 58.5 63.53125 58.5 54.890625 
Q 58.5 48.1875 55.375 44.234375 
Q 52.25 40.28125 46.1875 39.3125 
Q 53.46875 37.75 57.5 32.78125 
Q 61.53125 27.828125 61.53125 20.40625 
Q 61.53125 10.640625 54.890625 5.3125 
Q 48.25 0 35.984375 0 
L 9.8125 0 
z
" id="DejaVuSans-66"/>
      </defs>
      <use xlink:href="#DejaVuSans-79"/>
      <use x="78.710938" xlink:href="#DejaVuSans-66"/>
     </g>
    </g>
    <g id="line2d_63"/>
    <g id="line2d_64"/>
    <g id="text_27">
     <!-- 0.9840 -->
     <g transform="translate(139.138313 41.359531)scale(0.13 -0.13)">
      <use xlink:href="#DejaVuSans-48"/>
      <use x="63.623047" xlink:href="#DejaVuSans-46"/>
      <use x="95.410156" xlink:href="#DejaVuSans-57"/>
      <use x="159.033203" xlink:href="#DejaVuSans-56"/>
      <use x="222.65625" xlink:href="#DejaVuSans-52"/>
      <use x="286.279297" xlink:href="#DejaVuSans-48"/>
     </g>
    </g>
    <g id="line2d_65"/>
    <g id="line2d_66"/>
    <g id="text_28">
     <!-- 0.9921 -->
     <g transform="translate(139.138313 60.441094)scale(0.13 -0.13)">
      <use xlink:href="#DejaVuSans-48"/>
      <use x="63.623047" xlink:href="#DejaVuSans-46"/>
      <use x="95.410156" xlink:href="#DejaVuSans-57"/>
      <use x="159.033203" xlink:href="#DejaVuSans-57"/>
      <use x="222.65625" xlink:href="#DejaVuSans-50"/>
      <use x="286.279297" xlink:href="#DejaVuSans-49"/>
     </g>
    </g>
    <g id="line2d_67"/>
    <g id="line2d_68"/>
    <g id="text_29">
     <!-- 0.9894 -->
     <g transform="translate(139.138313 79.522656)scale(0.13 -0.13)">
      <use xlink:href="#DejaVuSans-48"/>
      <use x="63.623047" xlink:href="#DejaVuSans-46"/>
      <use x="95.410156" xlink:href="#DejaVuSans-57"/>
      <use x="159.033203" xlink:href="#DejaVuSans-56"/>
      <use x="222.65625" xlink:href="#DejaVuSans-57"/>
      <use x="286.279297" xlink:href="#DejaVuSans-52"/>
     </g>
    </g>
    <g id="line2d_69"/>
    <g id="line2d_70"/>
    <g id="text_30">
     <!-- 0.9907 -->
     <g transform="translate(139.138313 98.604219)scale(0.13 -0.13)">
      <use xlink:href="#DejaVuSans-48"/>
      <use x="63.623047" xlink:href="#DejaVuSans-46"/>
      <use x="95.410156" xlink:href="#DejaVuSans-57"/>
      <use x="159.033203" xlink:href="#DejaVuSans-57"/>
      <use x="222.65625" xlink:href="#DejaVuSans-48"/>
      <use x="286.279297" xlink:href="#DejaVuSans-55"/>
     </g>
    </g>
    <g id="line2d_71">
     <path d="M 179.144281 17.727969 
L 205.144281 17.727969 
" style="fill:none;stroke:#009988;stroke-dasharray:1.85,0.8;stroke-dashoffset:0;stroke-width:0.5;"/>
    </g>
    <g id="line2d_72">
     <g>
      <use style="fill:#009988;stroke:#009988;stroke-linejoin:miter;" x="192.144281" xlink:href="#md060960196" y="17.727969"/>
     </g>
    </g>
    <g id="text_31">
     <!-- UOB -->
     <g transform="translate(215.544281 22.277969)scale(0.13 -0.13)">
      <defs>
       <path d="M 8.6875 72.90625 
L 18.609375 72.90625 
L 18.609375 28.609375 
Q 18.609375 16.890625 22.84375 11.734375 
Q 27.09375 6.59375 36.625 6.59375 
Q 46.09375 6.59375 50.34375 11.734375 
Q 54.59375 16.890625 54.59375 28.609375 
L 54.59375 72.90625 
L 64.5 72.90625 
L 64.5 27.390625 
Q 64.5 13.140625 57.4375 5.859375 
Q 50.390625 -1.421875 36.625 -1.421875 
Q 22.796875 -1.421875 15.734375 5.859375 
Q 8.6875 13.140625 8.6875 27.390625 
z
" id="DejaVuSans-85"/>
      </defs>
      <use xlink:href="#DejaVuSans-85"/>
      <use x="73.193359" xlink:href="#DejaVuSans-79"/>
      <use x="151.904297" xlink:href="#DejaVuSans-66"/>
     </g>
    </g>
    <g id="line2d_73"/>
    <g id="line2d_74"/>
    <g id="text_32">
     <!-- 0.9906 -->
     <g transform="translate(215.544281 41.359531)scale(0.13 -0.13)">
      <use xlink:href="#DejaVuSans-48"/>
      <use x="63.623047" xlink:href="#DejaVuSans-46"/>
      <use x="95.410156" xlink:href="#DejaVuSans-57"/>
      <use x="159.033203" xlink:href="#DejaVuSans-57"/>
      <use x="222.65625" xlink:href="#DejaVuSans-48"/>
      <use x="286.279297" xlink:href="#DejaVuSans-54"/>
     </g>
    </g>
    <g id="line2d_75"/>
    <g id="line2d_76"/>
    <g id="text_33">
     <!-- 0.9927 -->
     <g transform="translate(215.544281 60.441094)scale(0.13 -0.13)">
      <use xlink:href="#DejaVuSans-48"/>
      <use x="63.623047" xlink:href="#DejaVuSans-46"/>
      <use x="95.410156" xlink:href="#DejaVuSans-57"/>
      <use x="159.033203" xlink:href="#DejaVuSans-57"/>
      <use x="222.65625" xlink:href="#DejaVuSans-50"/>
      <use x="286.279297" xlink:href="#DejaVuSans-55"/>
     </g>
    </g>
    <g id="line2d_77"/>
    <g id="line2d_78"/>
    <g id="text_34">
     <!-- 0.9932 -->
     <g transform="translate(215.544281 79.522656)scale(0.13 -0.13)">
      <defs>
       <path d="M 40.578125 39.3125 
Q 47.65625 37.796875 51.625 33 
Q 55.609375 28.21875 55.609375 21.1875 
Q 55.609375 10.40625 48.1875 4.484375 
Q 40.765625 -1.421875 27.09375 -1.421875 
Q 22.515625 -1.421875 17.65625 -0.515625 
Q 12.796875 0.390625 7.625 2.203125 
L 7.625 11.71875 
Q 11.71875 9.328125 16.59375 8.109375 
Q 21.484375 6.890625 26.8125 6.890625 
Q 36.078125 6.890625 40.9375 10.546875 
Q 45.796875 14.203125 45.796875 21.1875 
Q 45.796875 27.640625 41.28125 31.265625 
Q 36.765625 34.90625 28.71875 34.90625 
L 20.21875 34.90625 
L 20.21875 43.015625 
L 29.109375 43.015625 
Q 36.375 43.015625 40.234375 45.921875 
Q 44.09375 48.828125 44.09375 54.296875 
Q 44.09375 59.90625 40.109375 62.90625 
Q 36.140625 65.921875 28.71875 65.921875 
Q 24.65625 65.921875 20.015625 65.03125 
Q 15.375 64.15625 9.8125 62.3125 
L 9.8125 71.09375 
Q 15.4375 72.65625 20.34375 73.4375 
Q 25.25 74.21875 29.59375 74.21875 
Q 40.828125 74.21875 47.359375 69.109375 
Q 53.90625 64.015625 53.90625 55.328125 
Q 53.90625 49.265625 50.4375 45.09375 
Q 46.96875 40.921875 40.578125 39.3125 
z
" id="DejaVuSans-51"/>
      </defs>
      <use xlink:href="#DejaVuSans-48"/>
      <use x="63.623047" xlink:href="#DejaVuSans-46"/>
      <use x="95.410156" xlink:href="#DejaVuSans-57"/>
      <use x="159.033203" xlink:href="#DejaVuSans-57"/>
      <use x="222.65625" xlink:href="#DejaVuSans-51"/>
      <use x="286.279297" xlink:href="#DejaVuSans-50"/>
     </g>
    </g>
    <g id="line2d_79"/>
    <g id="line2d_80"/>
    <g id="text_35">
     <!-- 0.9960 -->
     <g transform="translate(215.544281 98.604219)scale(0.13 -0.13)">
      <use xlink:href="#DejaVuSans-48"/>
      <use x="63.623047" xlink:href="#DejaVuSans-46"/>
      <use x="95.410156" xlink:href="#DejaVuSans-57"/>
      <use x="159.033203" xlink:href="#DejaVuSans-57"/>
      <use x="222.65625" xlink:href="#DejaVuSans-54"/>
      <use x="286.279297" xlink:href="#DejaVuSans-48"/>
     </g>
    </g>
    <g id="line2d_81">
     <path d="M 255.55025 17.727969 
L 281.55025 17.727969 
" style="fill:none;stroke:#0077bb;stroke-dasharray:3.2,0.8,0.5,0.8;stroke-dashoffset:0;stroke-width:0.5;"/>
    </g>
    <g id="line2d_82">
     <g>
      <use style="fill:#0077bb;stroke:#0077bb;stroke-linejoin:miter;" x="268.55025" xlink:href="#m222f240a0c" y="17.727969"/>
     </g>
    </g>
    <g id="text_36">
     <!-- OOB -->
     <g transform="translate(291.95025 22.277969)scale(0.13 -0.13)">
      <use xlink:href="#DejaVuSans-79"/>
      <use x="78.710938" xlink:href="#DejaVuSans-79"/>
      <use x="157.421875" xlink:href="#DejaVuSans-66"/>
     </g>
    </g>
    <g id="line2d_83"/>
    <g id="line2d_84"/>
    <g id="text_37">
     <!-- 0.9906 -->
     <g transform="translate(291.95025 41.359531)scale(0.13 -0.13)">
      <use xlink:href="#DejaVuSans-48"/>
      <use x="63.623047" xlink:href="#DejaVuSans-46"/>
      <use x="95.410156" xlink:href="#DejaVuSans-57"/>
      <use x="159.033203" xlink:href="#DejaVuSans-57"/>
      <use x="222.65625" xlink:href="#DejaVuSans-48"/>
      <use x="286.279297" xlink:href="#DejaVuSans-54"/>
     </g>
    </g>
    <g id="line2d_85"/>
    <g id="line2d_86"/>
    <g id="text_38">
     <!-- 0.9932 -->
     <g transform="translate(291.95025 60.441094)scale(0.13 -0.13)">
      <use xlink:href="#DejaVuSans-48"/>
      <use x="63.623047" xlink:href="#DejaVuSans-46"/>
      <use x="95.410156" xlink:href="#DejaVuSans-57"/>
      <use x="159.033203" xlink:href="#DejaVuSans-57"/>
      <use x="222.65625" xlink:href="#DejaVuSans-51"/>
      <use x="286.279297" xlink:href="#DejaVuSans-50"/>
     </g>
    </g>
    <g id="line2d_87"/>
    <g id="line2d_88"/>
    <g id="text_39">
     <!-- 0.9924 -->
     <g transform="translate(291.95025 79.522656)scale(0.13 -0.13)">
      <use xlink:href="#DejaVuSans-48"/>
      <use x="63.623047" xlink:href="#DejaVuSans-46"/>
      <use x="95.410156" xlink:href="#DejaVuSans-57"/>
      <use x="159.033203" xlink:href="#DejaVuSans-57"/>
      <use x="222.65625" xlink:href="#DejaVuSans-50"/>
      <use x="286.279297" xlink:href="#DejaVuSans-52"/>
     </g>
    </g>
    <g id="line2d_89"/>
    <g id="line2d_90"/>
    <g id="text_40">
     <!-- 0.9981 -->
     <g transform="translate(291.95025 98.604219)scale(0.13 -0.13)">
      <use xlink:href="#DejaVuSans-48"/>
      <use x="63.623047" xlink:href="#DejaVuSans-46"/>
      <use x="95.410156" xlink:href="#DejaVuSans-57"/>
      <use x="159.033203" xlink:href="#DejaVuSans-57"/>
      <use x="222.65625" xlink:href="#DejaVuSans-56"/>
      <use x="286.279297" xlink:href="#DejaVuSans-49"/>
     </g>
    </g>
    <g id="line2d_91">
     <path d="M 331.956219 17.727969 
L 357.956219 17.727969 
" style="fill:none;stroke:#ee7733;stroke-dasharray:0.5,0.825;stroke-dashoffset:0;stroke-width:0.5;"/>
    </g>
    <g id="line2d_92">
     <g>
      <use style="fill:#ee7733;stroke:#ee7733;stroke-linejoin:bevel;" x="344.956219" xlink:href="#m4b18452d42" y="17.727969"/>
     </g>
    </g>
    <g id="text_41">
     <!-- NUOB -->
     <g transform="translate(368.356219 22.277969)scale(0.13 -0.13)">
      <use xlink:href="#DejaVuSans-78"/>
      <use x="74.804688" xlink:href="#DejaVuSans-85"/>
      <use x="147.998047" xlink:href="#DejaVuSans-79"/>
      <use x="226.708984" xlink:href="#DejaVuSans-66"/>
     </g>
    </g>
    <g id="line2d_93"/>
    <g id="line2d_94"/>
    <g id="text_42">
     <!-- 0.9915 -->
     <g transform="translate(368.356219 41.359531)scale(0.13 -0.13)">
      <use xlink:href="#DejaVuSans-48"/>
      <use x="63.623047" xlink:href="#DejaVuSans-46"/>
      <use x="95.410156" xlink:href="#DejaVuSans-57"/>
      <use x="159.033203" xlink:href="#DejaVuSans-57"/>
      <use x="222.65625" xlink:href="#DejaVuSans-49"/>
      <use x="286.279297" xlink:href="#DejaVuSans-53"/>
     </g>
    </g>
    <g id="line2d_95"/>
    <g id="line2d_96"/>
    <g id="text_43">
     <!-- 0.9878 -->
     <g transform="translate(368.356219 60.441094)scale(0.13 -0.13)">
      <use xlink:href="#DejaVuSans-48"/>
      <use x="63.623047" xlink:href="#DejaVuSans-46"/>
      <use x="95.410156" xlink:href="#DejaVuSans-57"/>
      <use x="159.033203" xlink:href="#DejaVuSans-56"/>
      <use x="222.65625" xlink:href="#DejaVuSans-55"/>
      <use x="286.279297" xlink:href="#DejaVuSans-56"/>
     </g>
    </g>
    <g id="line2d_97"/>
    <g id="line2d_98"/>
    <g id="text_44">
     <!-- 0.9878 -->
     <g transform="translate(368.356219 79.522656)scale(0.13 -0.13)">
      <use xlink:href="#DejaVuSans-48"/>
      <use x="63.623047" xlink:href="#DejaVuSans-46"/>
      <use x="95.410156" xlink:href="#DejaVuSans-57"/>
      <use x="159.033203" xlink:href="#DejaVuSans-56"/>
      <use x="222.65625" xlink:href="#DejaVuSans-55"/>
      <use x="286.279297" xlink:href="#DejaVuSans-56"/>
     </g>
    </g>
    <g id="line2d_99"/>
    <g id="line2d_100"/>
    <g id="text_45">
     <!-- 0.9916 -->
     <g transform="translate(368.356219 98.604219)scale(0.13 -0.13)">
      <use xlink:href="#DejaVuSans-48"/>
      <use x="63.623047" xlink:href="#DejaVuSans-46"/>
      <use x="95.410156" xlink:href="#DejaVuSans-57"/>
      <use x="159.033203" xlink:href="#DejaVuSans-57"/>
      <use x="222.65625" xlink:href="#DejaVuSans-49"/>
      <use x="286.279297" xlink:href="#DejaVuSans-54"/>
     </g>
    </g>
    <g id="line2d_101">
     <path d="M 408.362188 17.727969 
L 434.362188 17.727969 
" style="fill:none;stroke:#ee3377;stroke-dasharray:3.2,0.8,0.5,0.8;stroke-dashoffset:0;stroke-width:0.5;"/>
    </g>
    <g id="line2d_102">
     <g>
      <use style="fill:#ee3377;stroke:#ee3377;stroke-linejoin:miter;" x="421.362188" xlink:href="#mc90f12aaf7" y="17.727969"/>
     </g>
    </g>
    <g id="text_46">
     <!-- NOOB -->
     <g transform="translate(444.762188 22.277969)scale(0.13 -0.13)">
      <use xlink:href="#DejaVuSans-78"/>
      <use x="74.804688" xlink:href="#DejaVuSans-79"/>
      <use x="153.515625" xlink:href="#DejaVuSans-79"/>
      <use x="232.226562" xlink:href="#DejaVuSans-66"/>
     </g>
    </g>
    <g id="line2d_103"/>
    <g id="line2d_104"/>
    <g id="text_47">
     <!-- 0.9899 -->
     <g transform="translate(444.762188 41.359531)scale(0.13 -0.13)">
      <use xlink:href="#DejaVuSans-48"/>
      <use x="63.623047" xlink:href="#DejaVuSans-46"/>
      <use x="95.410156" xlink:href="#DejaVuSans-57"/>
      <use x="159.033203" xlink:href="#DejaVuSans-56"/>
      <use x="222.65625" xlink:href="#DejaVuSans-57"/>
      <use x="286.279297" xlink:href="#DejaVuSans-57"/>
     </g>
    </g>
    <g id="line2d_105"/>
    <g id="line2d_106"/>
    <g id="text_48">
     <!-- 0.9925 -->
     <g transform="translate(444.762188 60.441094)scale(0.13 -0.13)">
      <use xlink:href="#DejaVuSans-48"/>
      <use x="63.623047" xlink:href="#DejaVuSans-46"/>
      <use x="95.410156" xlink:href="#DejaVuSans-57"/>
      <use x="159.033203" xlink:href="#DejaVuSans-57"/>
      <use x="222.65625" xlink:href="#DejaVuSans-50"/>
      <use x="286.279297" xlink:href="#DejaVuSans-53"/>
     </g>
    </g>
    <g id="line2d_107"/>
    <g id="line2d_108"/>
    <g id="text_49">
     <!-- 0.9929 -->
     <g transform="translate(444.762188 79.522656)scale(0.13 -0.13)">
      <use xlink:href="#DejaVuSans-48"/>
      <use x="63.623047" xlink:href="#DejaVuSans-46"/>
      <use x="95.410156" xlink:href="#DejaVuSans-57"/>
      <use x="159.033203" xlink:href="#DejaVuSans-57"/>
      <use x="222.65625" xlink:href="#DejaVuSans-50"/>
      <use x="286.279297" xlink:href="#DejaVuSans-57"/>
     </g>
    </g>
    <g id="line2d_109"/>
    <g id="line2d_110"/>
    <g id="text_50">
     <!-- 0.9962 -->
     <g transform="translate(444.762188 98.604219)scale(0.13 -0.13)">
      <use xlink:href="#DejaVuSans-48"/>
      <use x="63.623047" xlink:href="#DejaVuSans-46"/>
      <use x="95.410156" xlink:href="#DejaVuSans-57"/>
      <use x="159.033203" xlink:href="#DejaVuSans-57"/>
      <use x="222.65625" xlink:href="#DejaVuSans-54"/>
      <use x="286.279297" xlink:href="#DejaVuSans-50"/>
     </g>
    </g>
   </g>
  </g>
 </g>
 <defs>
  <clipPath id="p77821c60cf">
   <rect height="277.2" width="390.6" x="104.85" y="112.051812"/>
  </clipPath>
 </defs>
</svg>
