<?xml version="1.0" encoding="utf-8" standalone="no"?>
<!DOCTYPE svg PUBLIC "-//W3C//DTD SVG 1.1//EN"
  "http://www.w3.org/Graphics/SVG/1.1/DTD/svg11.dtd">
<!-- Created with matplotlib (https://matplotlib.org/) -->
<svg height="432.614937pt" version="1.1" viewBox="0 0 502.65 432.614937" width="502.65pt" xmlns="http://www.w3.org/2000/svg" xmlns:xlink="http://www.w3.org/1999/xlink">
 <metadata>
  <rdf:RDF xmlns:cc="http://creativecommons.org/ns#" xmlns:dc="http://purl.org/dc/elements/1.1/" xmlns:rdf="http://www.w3.org/1999/02/22-rdf-syntax-ns#">
   <cc:Work>
    <dc:type rdf:resource="http://purl.org/dc/dcmitype/StillImage"/>
    <dc:date>2022-06-16T22:40:26.275335</dc:date>
    <dc:format>image/svg+xml</dc:format>
    <dc:creator>
     <cc:Agent>
      <dc:title>Matplotlib v3.3.3, https://matplotlib.org/</dc:title>
     </cc:Agent>
    </dc:creator>
   </cc:Work>
  </rdf:RDF>
 </metadata>
 <defs>
  <style type="text/css">*{stroke-linecap:butt;stroke-linejoin:round;}</style>
 </defs>
 <g id="figure_1">
  <g id="patch_1">
   <path d="M 0 432.614937 
L 502.65 432.614937 
L 502.65 0 
L 0 0 
z
" style="fill:#ffffff;"/>
  </g>
  <g id="axes_1">
   <g id="patch_2">
    <path d="M 104.85 389.251812 
L 495.45 389.251812 
L 495.45 112.051812 
L 104.85 112.051812 
z
" style="fill:#ffffff;"/>
   </g>
   <g id="patch_3">
    <path clip-path="url(#p9c3b99b4f1)" d="M 297.446262 389.251812 
L 297.446262 112.051812 
L 243.371504 112.051812 
L 243.371504 389.251812 
z
" style="fill:#d3d3d3;opacity:0.5;"/>
   </g>
   <g id="matplotlib.axis_1">
    <g id="xtick_1">
     <g id="line2d_1">
      <defs>
       <path d="M 0 0 
L 0 3.5 
" id="mbde57be62f" style="stroke:#000000;stroke-width:0.8;"/>
      </defs>
      <g>
       <use style="stroke:#000000;stroke-width:0.8;" x="117.19707" xlink:href="#mbde57be62f" y="389.251812"/>
      </g>
     </g>
     <g id="text_1">
      <!-- 0 -->
      <g transform="translate(113.061445 406.129781)scale(0.13 -0.13)">
       <defs>
        <path d="M 31.78125 66.40625 
Q 24.171875 66.40625 20.328125 58.90625 
Q 16.5 51.421875 16.5 36.375 
Q 16.5 21.390625 20.328125 13.890625 
Q 24.171875 6.390625 31.78125 6.390625 
Q 39.453125 6.390625 43.28125 13.890625 
Q 47.125 21.390625 47.125 36.375 
Q 47.125 51.421875 43.28125 58.90625 
Q 39.453125 66.40625 31.78125 66.40625 
z
M 31.78125 74.21875 
Q 44.046875 74.21875 50.515625 64.515625 
Q 56.984375 54.828125 56.984375 36.375 
Q 56.984375 17.96875 50.515625 8.265625 
Q 44.046875 -1.421875 31.78125 -1.421875 
Q 19.53125 -1.421875 13.0625 8.265625 
Q 6.59375 17.96875 6.59375 36.375 
Q 6.59375 54.828125 13.0625 64.515625 
Q 19.53125 74.21875 31.78125 74.21875 
z
" id="DejaVuSans-48"/>
       </defs>
       <use xlink:href="#DejaVuSans-48"/>
      </g>
     </g>
    </g>
    <g id="xtick_2">
     <g id="line2d_2">
      <g>
       <use style="stroke:#000000;stroke-width:0.8;" x="162.259368" xlink:href="#mbde57be62f" y="389.251812"/>
      </g>
     </g>
     <g id="text_2">
      <!-- 25 -->
      <g transform="translate(153.988118 406.129781)scale(0.13 -0.13)">
       <defs>
        <path d="M 19.1875 8.296875 
L 53.609375 8.296875 
L 53.609375 0 
L 7.328125 0 
L 7.328125 8.296875 
Q 12.9375 14.109375 22.625 23.890625 
Q 32.328125 33.6875 34.8125 36.53125 
Q 39.546875 41.84375 41.421875 45.53125 
Q 43.3125 49.21875 43.3125 52.78125 
Q 43.3125 58.59375 39.234375 62.25 
Q 35.15625 65.921875 28.609375 65.921875 
Q 23.96875 65.921875 18.8125 64.3125 
Q 13.671875 62.703125 7.8125 59.421875 
L 7.8125 69.390625 
Q 13.765625 71.78125 18.9375 73 
Q 24.125 74.21875 28.421875 74.21875 
Q 39.75 74.21875 46.484375 68.546875 
Q 53.21875 62.890625 53.21875 53.421875 
Q 53.21875 48.921875 51.53125 44.890625 
Q 49.859375 40.875 45.40625 35.40625 
Q 44.1875 33.984375 37.640625 27.21875 
Q 31.109375 20.453125 19.1875 8.296875 
z
" id="DejaVuSans-50"/>
        <path d="M 10.796875 72.90625 
L 49.515625 72.90625 
L 49.515625 64.59375 
L 19.828125 64.59375 
L 19.828125 46.734375 
Q 21.96875 47.46875 24.109375 47.828125 
Q 26.265625 48.1875 28.421875 48.1875 
Q 40.625 48.1875 47.75 41.5 
Q 54.890625 34.8125 54.890625 23.390625 
Q 54.890625 11.625 47.5625 5.09375 
Q 40.234375 -1.421875 26.90625 -1.421875 
Q 22.3125 -1.421875 17.546875 -0.640625 
Q 12.796875 0.140625 7.71875 1.703125 
L 7.71875 11.625 
Q 12.109375 9.234375 16.796875 8.0625 
Q 21.484375 6.890625 26.703125 6.890625 
Q 35.15625 6.890625 40.078125 11.328125 
Q 45.015625 15.765625 45.015625 23.390625 
Q 45.015625 31 40.078125 35.4375 
Q 35.15625 39.890625 26.703125 39.890625 
Q 22.75 39.890625 18.8125 39.015625 
Q 14.890625 38.140625 10.796875 36.28125 
z
" id="DejaVuSans-53"/>
       </defs>
       <use xlink:href="#DejaVuSans-50"/>
       <use x="63.623047" xlink:href="#DejaVuSans-53"/>
      </g>
     </g>
    </g>
    <g id="xtick_3">
     <g id="line2d_3">
      <g>
       <use style="stroke:#000000;stroke-width:0.8;" x="207.321666" xlink:href="#mbde57be62f" y="389.251812"/>
      </g>
     </g>
     <g id="text_3">
      <!-- 50 -->
      <g transform="translate(199.050416 406.129781)scale(0.13 -0.13)">
       <use xlink:href="#DejaVuSans-53"/>
       <use x="63.623047" xlink:href="#DejaVuSans-48"/>
      </g>
     </g>
    </g>
    <g id="xtick_4">
     <g id="line2d_4">
      <g>
       <use style="stroke:#000000;stroke-width:0.8;" x="252.383964" xlink:href="#mbde57be62f" y="389.251812"/>
      </g>
     </g>
     <g id="text_4">
      <!-- 75 -->
      <g transform="translate(244.112714 406.129781)scale(0.13 -0.13)">
       <defs>
        <path d="M 8.203125 72.90625 
L 55.078125 72.90625 
L 55.078125 68.703125 
L 28.609375 0 
L 18.3125 0 
L 43.21875 64.59375 
L 8.203125 64.59375 
z
" id="DejaVuSans-55"/>
       </defs>
       <use xlink:href="#DejaVuSans-55"/>
       <use x="63.623047" xlink:href="#DejaVuSans-53"/>
      </g>
     </g>
    </g>
    <g id="xtick_5">
     <g id="line2d_5">
      <g>
       <use style="stroke:#000000;stroke-width:0.8;" x="297.446262" xlink:href="#mbde57be62f" y="389.251812"/>
      </g>
     </g>
     <g id="text_5">
      <!-- 100 -->
      <g transform="translate(285.039387 406.129781)scale(0.13 -0.13)">
       <defs>
        <path d="M 12.40625 8.296875 
L 28.515625 8.296875 
L 28.515625 63.921875 
L 10.984375 60.40625 
L 10.984375 69.390625 
L 28.421875 72.90625 
L 38.28125 72.90625 
L 38.28125 8.296875 
L 54.390625 8.296875 
L 54.390625 0 
L 12.40625 0 
z
" id="DejaVuSans-49"/>
       </defs>
       <use xlink:href="#DejaVuSans-49"/>
       <use x="63.623047" xlink:href="#DejaVuSans-48"/>
       <use x="127.246094" xlink:href="#DejaVuSans-48"/>
      </g>
     </g>
    </g>
    <g id="xtick_6">
     <g id="line2d_6">
      <g>
       <use style="stroke:#000000;stroke-width:0.8;" x="342.50856" xlink:href="#mbde57be62f" y="389.251812"/>
      </g>
     </g>
     <g id="text_6">
      <!-- 125 -->
      <g transform="translate(330.101685 406.129781)scale(0.13 -0.13)">
       <use xlink:href="#DejaVuSans-49"/>
       <use x="63.623047" xlink:href="#DejaVuSans-50"/>
       <use x="127.246094" xlink:href="#DejaVuSans-53"/>
      </g>
     </g>
    </g>
    <g id="xtick_7">
     <g id="line2d_7">
      <g>
       <use style="stroke:#000000;stroke-width:0.8;" x="387.570858" xlink:href="#mbde57be62f" y="389.251812"/>
      </g>
     </g>
     <g id="text_7">
      <!-- 150 -->
      <g transform="translate(375.163983 406.129781)scale(0.13 -0.13)">
       <use xlink:href="#DejaVuSans-49"/>
       <use x="63.623047" xlink:href="#DejaVuSans-53"/>
       <use x="127.246094" xlink:href="#DejaVuSans-48"/>
      </g>
     </g>
    </g>
    <g id="xtick_8">
     <g id="line2d_8">
      <g>
       <use style="stroke:#000000;stroke-width:0.8;" x="432.633156" xlink:href="#mbde57be62f" y="389.251812"/>
      </g>
     </g>
     <g id="text_8">
      <!-- 175 -->
      <g transform="translate(420.226281 406.129781)scale(0.13 -0.13)">
       <use xlink:href="#DejaVuSans-49"/>
       <use x="63.623047" xlink:href="#DejaVuSans-55"/>
       <use x="127.246094" xlink:href="#DejaVuSans-53"/>
      </g>
     </g>
    </g>
    <g id="xtick_9">
     <g id="line2d_9">
      <g>
       <use style="stroke:#000000;stroke-width:0.8;" x="477.695455" xlink:href="#mbde57be62f" y="389.251812"/>
      </g>
     </g>
     <g id="text_9">
      <!-- 200 -->
      <g transform="translate(465.28858 406.129781)scale(0.13 -0.13)">
       <use xlink:href="#DejaVuSans-50"/>
       <use x="63.623047" xlink:href="#DejaVuSans-48"/>
       <use x="127.246094" xlink:href="#DejaVuSans-48"/>
      </g>
     </g>
    </g>
    <g id="text_10">
     <!-- Number of processed instances [x1000] -->
     <g transform="translate(170.025078 422.711344)scale(0.13 -0.13)">
      <defs>
       <path d="M 9.8125 72.90625 
L 23.09375 72.90625 
L 55.421875 11.921875 
L 55.421875 72.90625 
L 64.984375 72.90625 
L 64.984375 0 
L 51.703125 0 
L 19.390625 60.984375 
L 19.390625 0 
L 9.8125 0 
z
" id="DejaVuSans-78"/>
       <path d="M 8.5 21.578125 
L 8.5 54.6875 
L 17.484375 54.6875 
L 17.484375 21.921875 
Q 17.484375 14.15625 20.5 10.265625 
Q 23.53125 6.390625 29.59375 6.390625 
Q 36.859375 6.390625 41.078125 11.03125 
Q 45.3125 15.671875 45.3125 23.6875 
L 45.3125 54.6875 
L 54.296875 54.6875 
L 54.296875 0 
L 45.3125 0 
L 45.3125 8.40625 
Q 42.046875 3.421875 37.71875 1 
Q 33.40625 -1.421875 27.6875 -1.421875 
Q 18.265625 -1.421875 13.375 4.4375 
Q 8.5 10.296875 8.5 21.578125 
z
M 31.109375 56 
z
" id="DejaVuSans-117"/>
       <path d="M 52 44.1875 
Q 55.375 50.25 60.0625 53.125 
Q 64.75 56 71.09375 56 
Q 79.640625 56 84.28125 50.015625 
Q 88.921875 44.046875 88.921875 33.015625 
L 88.921875 0 
L 79.890625 0 
L 79.890625 32.71875 
Q 79.890625 40.578125 77.09375 44.375 
Q 74.3125 48.1875 68.609375 48.1875 
Q 61.625 48.1875 57.5625 43.546875 
Q 53.515625 38.921875 53.515625 30.90625 
L 53.515625 0 
L 44.484375 0 
L 44.484375 32.71875 
Q 44.484375 40.625 41.703125 44.40625 
Q 38.921875 48.1875 33.109375 48.1875 
Q 26.21875 48.1875 22.15625 43.53125 
Q 18.109375 38.875 18.109375 30.90625 
L 18.109375 0 
L 9.078125 0 
L 9.078125 54.6875 
L 18.109375 54.6875 
L 18.109375 46.1875 
Q 21.1875 51.21875 25.484375 53.609375 
Q 29.78125 56 35.6875 56 
Q 41.65625 56 45.828125 52.96875 
Q 50 49.953125 52 44.1875 
z
" id="DejaVuSans-109"/>
       <path d="M 48.6875 27.296875 
Q 48.6875 37.203125 44.609375 42.84375 
Q 40.53125 48.484375 33.40625 48.484375 
Q 26.265625 48.484375 22.1875 42.84375 
Q 18.109375 37.203125 18.109375 27.296875 
Q 18.109375 17.390625 22.1875 11.75 
Q 26.265625 6.109375 33.40625 6.109375 
Q 40.53125 6.109375 44.609375 11.75 
Q 48.6875 17.390625 48.6875 27.296875 
z
M 18.109375 46.390625 
Q 20.953125 51.265625 25.265625 53.625 
Q 29.59375 56 35.59375 56 
Q 45.5625 56 51.78125 48.09375 
Q 58.015625 40.1875 58.015625 27.296875 
Q 58.015625 14.40625 51.78125 6.484375 
Q 45.5625 -1.421875 35.59375 -1.421875 
Q 29.59375 -1.421875 25.265625 0.953125 
Q 20.953125 3.328125 18.109375 8.203125 
L 18.109375 0 
L 9.078125 0 
L 9.078125 75.984375 
L 18.109375 75.984375 
z
" id="DejaVuSans-98"/>
       <path d="M 56.203125 29.59375 
L 56.203125 25.203125 
L 14.890625 25.203125 
Q 15.484375 15.921875 20.484375 11.0625 
Q 25.484375 6.203125 34.421875 6.203125 
Q 39.59375 6.203125 44.453125 7.46875 
Q 49.3125 8.734375 54.109375 11.28125 
L 54.109375 2.78125 
Q 49.265625 0.734375 44.1875 -0.34375 
Q 39.109375 -1.421875 33.890625 -1.421875 
Q 20.796875 -1.421875 13.15625 6.1875 
Q 5.515625 13.8125 5.515625 26.8125 
Q 5.515625 40.234375 12.765625 48.109375 
Q 20.015625 56 32.328125 56 
Q 43.359375 56 49.78125 48.890625 
Q 56.203125 41.796875 56.203125 29.59375 
z
M 47.21875 32.234375 
Q 47.125 39.59375 43.09375 43.984375 
Q 39.0625 48.390625 32.421875 48.390625 
Q 24.90625 48.390625 20.390625 44.140625 
Q 15.875 39.890625 15.1875 32.171875 
z
" id="DejaVuSans-101"/>
       <path d="M 41.109375 46.296875 
Q 39.59375 47.171875 37.8125 47.578125 
Q 36.03125 48 33.890625 48 
Q 26.265625 48 22.1875 43.046875 
Q 18.109375 38.09375 18.109375 28.8125 
L 18.109375 0 
L 9.078125 0 
L 9.078125 54.6875 
L 18.109375 54.6875 
L 18.109375 46.1875 
Q 20.953125 51.171875 25.484375 53.578125 
Q 30.03125 56 36.53125 56 
Q 37.453125 56 38.578125 55.875 
Q 39.703125 55.765625 41.0625 55.515625 
z
" id="DejaVuSans-114"/>
       <path id="DejaVuSans-32"/>
       <path d="M 30.609375 48.390625 
Q 23.390625 48.390625 19.1875 42.75 
Q 14.984375 37.109375 14.984375 27.296875 
Q 14.984375 17.484375 19.15625 11.84375 
Q 23.34375 6.203125 30.609375 6.203125 
Q 37.796875 6.203125 41.984375 11.859375 
Q 46.1875 17.53125 46.1875 27.296875 
Q 46.1875 37.015625 41.984375 42.703125 
Q 37.796875 48.390625 30.609375 48.390625 
z
M 30.609375 56 
Q 42.328125 56 49.015625 48.375 
Q 55.71875 40.765625 55.71875 27.296875 
Q 55.71875 13.875 49.015625 6.21875 
Q 42.328125 -1.421875 30.609375 -1.421875 
Q 18.84375 -1.421875 12.171875 6.21875 
Q 5.515625 13.875 5.515625 27.296875 
Q 5.515625 40.765625 12.171875 48.375 
Q 18.84375 56 30.609375 56 
z
" id="DejaVuSans-111"/>
       <path d="M 37.109375 75.984375 
L 37.109375 68.5 
L 28.515625 68.5 
Q 23.6875 68.5 21.796875 66.546875 
Q 19.921875 64.59375 19.921875 59.515625 
L 19.921875 54.6875 
L 34.71875 54.6875 
L 34.71875 47.703125 
L 19.921875 47.703125 
L 19.921875 0 
L 10.890625 0 
L 10.890625 47.703125 
L 2.296875 47.703125 
L 2.296875 54.6875 
L 10.890625 54.6875 
L 10.890625 58.5 
Q 10.890625 67.625 15.140625 71.796875 
Q 19.390625 75.984375 28.609375 75.984375 
z
" id="DejaVuSans-102"/>
       <path d="M 18.109375 8.203125 
L 18.109375 -20.796875 
L 9.078125 -20.796875 
L 9.078125 54.6875 
L 18.109375 54.6875 
L 18.109375 46.390625 
Q 20.953125 51.265625 25.265625 53.625 
Q 29.59375 56 35.59375 56 
Q 45.5625 56 51.78125 48.09375 
Q 58.015625 40.1875 58.015625 27.296875 
Q 58.015625 14.40625 51.78125 6.484375 
Q 45.5625 -1.421875 35.59375 -1.421875 
Q 29.59375 -1.421875 25.265625 0.953125 
Q 20.953125 3.328125 18.109375 8.203125 
z
M 48.6875 27.296875 
Q 48.6875 37.203125 44.609375 42.84375 
Q 40.53125 48.484375 33.40625 48.484375 
Q 26.265625 48.484375 22.1875 42.84375 
Q 18.109375 37.203125 18.109375 27.296875 
Q 18.109375 17.390625 22.1875 11.75 
Q 26.265625 6.109375 33.40625 6.109375 
Q 40.53125 6.109375 44.609375 11.75 
Q 48.6875 17.390625 48.6875 27.296875 
z
" id="DejaVuSans-112"/>
       <path d="M 48.78125 52.59375 
L 48.78125 44.1875 
Q 44.96875 46.296875 41.140625 47.34375 
Q 37.3125 48.390625 33.40625 48.390625 
Q 24.65625 48.390625 19.8125 42.84375 
Q 14.984375 37.3125 14.984375 27.296875 
Q 14.984375 17.28125 19.8125 11.734375 
Q 24.65625 6.203125 33.40625 6.203125 
Q 37.3125 6.203125 41.140625 7.25 
Q 44.96875 8.296875 48.78125 10.40625 
L 48.78125 2.09375 
Q 45.015625 0.34375 40.984375 -0.53125 
Q 36.96875 -1.421875 32.421875 -1.421875 
Q 20.0625 -1.421875 12.78125 6.34375 
Q 5.515625 14.109375 5.515625 27.296875 
Q 5.515625 40.671875 12.859375 48.328125 
Q 20.21875 56 33.015625 56 
Q 37.15625 56 41.109375 55.140625 
Q 45.0625 54.296875 48.78125 52.59375 
z
" id="DejaVuSans-99"/>
       <path d="M 44.28125 53.078125 
L 44.28125 44.578125 
Q 40.484375 46.53125 36.375 47.5 
Q 32.28125 48.484375 27.875 48.484375 
Q 21.1875 48.484375 17.84375 46.4375 
Q 14.5 44.390625 14.5 40.28125 
Q 14.5 37.15625 16.890625 35.375 
Q 19.28125 33.59375 26.515625 31.984375 
L 29.59375 31.296875 
Q 39.15625 29.25 43.1875 25.515625 
Q 47.21875 21.78125 47.21875 15.09375 
Q 47.21875 7.46875 41.1875 3.015625 
Q 35.15625 -1.421875 24.609375 -1.421875 
Q 20.21875 -1.421875 15.453125 -0.5625 
Q 10.6875 0.296875 5.421875 2 
L 5.421875 11.28125 
Q 10.40625 8.6875 15.234375 7.390625 
Q 20.0625 6.109375 24.8125 6.109375 
Q 31.15625 6.109375 34.5625 8.28125 
Q 37.984375 10.453125 37.984375 14.40625 
Q 37.984375 18.0625 35.515625 20.015625 
Q 33.0625 21.96875 24.703125 23.78125 
L 21.578125 24.515625 
Q 13.234375 26.265625 9.515625 29.90625 
Q 5.8125 33.546875 5.8125 39.890625 
Q 5.8125 47.609375 11.28125 51.796875 
Q 16.75 56 26.8125 56 
Q 31.78125 56 36.171875 55.265625 
Q 40.578125 54.546875 44.28125 53.078125 
z
" id="DejaVuSans-115"/>
       <path d="M 45.40625 46.390625 
L 45.40625 75.984375 
L 54.390625 75.984375 
L 54.390625 0 
L 45.40625 0 
L 45.40625 8.203125 
Q 42.578125 3.328125 38.25 0.953125 
Q 33.9375 -1.421875 27.875 -1.421875 
Q 17.96875 -1.421875 11.734375 6.484375 
Q 5.515625 14.40625 5.515625 27.296875 
Q 5.515625 40.1875 11.734375 48.09375 
Q 17.96875 56 27.875 56 
Q 33.9375 56 38.25 53.625 
Q 42.578125 51.265625 45.40625 46.390625 
z
M 14.796875 27.296875 
Q 14.796875 17.390625 18.875 11.75 
Q 22.953125 6.109375 30.078125 6.109375 
Q 37.203125 6.109375 41.296875 11.75 
Q 45.40625 17.390625 45.40625 27.296875 
Q 45.40625 37.203125 41.296875 42.84375 
Q 37.203125 48.484375 30.078125 48.484375 
Q 22.953125 48.484375 18.875 42.84375 
Q 14.796875 37.203125 14.796875 27.296875 
z
" id="DejaVuSans-100"/>
       <path d="M 9.421875 54.6875 
L 18.40625 54.6875 
L 18.40625 0 
L 9.421875 0 
z
M 9.421875 75.984375 
L 18.40625 75.984375 
L 18.40625 64.59375 
L 9.421875 64.59375 
z
" id="DejaVuSans-105"/>
       <path d="M 54.890625 33.015625 
L 54.890625 0 
L 45.90625 0 
L 45.90625 32.71875 
Q 45.90625 40.484375 42.875 44.328125 
Q 39.84375 48.1875 33.796875 48.1875 
Q 26.515625 48.1875 22.3125 43.546875 
Q 18.109375 38.921875 18.109375 30.90625 
L 18.109375 0 
L 9.078125 0 
L 9.078125 54.6875 
L 18.109375 54.6875 
L 18.109375 46.1875 
Q 21.34375 51.125 25.703125 53.5625 
Q 30.078125 56 35.796875 56 
Q 45.21875 56 50.046875 50.171875 
Q 54.890625 44.34375 54.890625 33.015625 
z
" id="DejaVuSans-110"/>
       <path d="M 18.3125 70.21875 
L 18.3125 54.6875 
L 36.8125 54.6875 
L 36.8125 47.703125 
L 18.3125 47.703125 
L 18.3125 18.015625 
Q 18.3125 11.328125 20.140625 9.421875 
Q 21.96875 7.515625 27.59375 7.515625 
L 36.8125 7.515625 
L 36.8125 0 
L 27.59375 0 
Q 17.1875 0 13.234375 3.875 
Q 9.28125 7.765625 9.28125 18.015625 
L 9.28125 47.703125 
L 2.6875 47.703125 
L 2.6875 54.6875 
L 9.28125 54.6875 
L 9.28125 70.21875 
z
" id="DejaVuSans-116"/>
       <path d="M 34.28125 27.484375 
Q 23.390625 27.484375 19.1875 25 
Q 14.984375 22.515625 14.984375 16.5 
Q 14.984375 11.71875 18.140625 8.90625 
Q 21.296875 6.109375 26.703125 6.109375 
Q 34.1875 6.109375 38.703125 11.40625 
Q 43.21875 16.703125 43.21875 25.484375 
L 43.21875 27.484375 
z
M 52.203125 31.203125 
L 52.203125 0 
L 43.21875 0 
L 43.21875 8.296875 
Q 40.140625 3.328125 35.546875 0.953125 
Q 30.953125 -1.421875 24.3125 -1.421875 
Q 15.921875 -1.421875 10.953125 3.296875 
Q 6 8.015625 6 15.921875 
Q 6 25.140625 12.171875 29.828125 
Q 18.359375 34.515625 30.609375 34.515625 
L 43.21875 34.515625 
L 43.21875 35.40625 
Q 43.21875 41.609375 39.140625 45 
Q 35.0625 48.390625 27.6875 48.390625 
Q 23 48.390625 18.546875 47.265625 
Q 14.109375 46.140625 10.015625 43.890625 
L 10.015625 52.203125 
Q 14.9375 54.109375 19.578125 55.046875 
Q 24.21875 56 28.609375 56 
Q 40.484375 56 46.34375 49.84375 
Q 52.203125 43.703125 52.203125 31.203125 
z
" id="DejaVuSans-97"/>
       <path d="M 8.59375 75.984375 
L 29.296875 75.984375 
L 29.296875 69 
L 17.578125 69 
L 17.578125 -6.203125 
L 29.296875 -6.203125 
L 29.296875 -13.1875 
L 8.59375 -13.1875 
z
" id="DejaVuSans-91"/>
       <path d="M 54.890625 54.6875 
L 35.109375 28.078125 
L 55.90625 0 
L 45.3125 0 
L 29.390625 21.484375 
L 13.484375 0 
L 2.875 0 
L 24.125 28.609375 
L 4.6875 54.6875 
L 15.28125 54.6875 
L 29.78125 35.203125 
L 44.28125 54.6875 
z
" id="DejaVuSans-120"/>
       <path d="M 30.421875 75.984375 
L 30.421875 -13.1875 
L 9.71875 -13.1875 
L 9.71875 -6.203125 
L 21.390625 -6.203125 
L 21.390625 69 
L 9.71875 69 
L 9.71875 75.984375 
z
" id="DejaVuSans-93"/>
      </defs>
      <use xlink:href="#DejaVuSans-78"/>
      <use x="74.804688" xlink:href="#DejaVuSans-117"/>
      <use x="138.183594" xlink:href="#DejaVuSans-109"/>
      <use x="235.595703" xlink:href="#DejaVuSans-98"/>
      <use x="299.072266" xlink:href="#DejaVuSans-101"/>
      <use x="360.595703" xlink:href="#DejaVuSans-114"/>
      <use x="401.708984" xlink:href="#DejaVuSans-32"/>
      <use x="433.496094" xlink:href="#DejaVuSans-111"/>
      <use x="494.677734" xlink:href="#DejaVuSans-102"/>
      <use x="529.882812" xlink:href="#DejaVuSans-32"/>
      <use x="561.669922" xlink:href="#DejaVuSans-112"/>
      <use x="625.146484" xlink:href="#DejaVuSans-114"/>
      <use x="664.009766" xlink:href="#DejaVuSans-111"/>
      <use x="725.191406" xlink:href="#DejaVuSans-99"/>
      <use x="780.171875" xlink:href="#DejaVuSans-101"/>
      <use x="841.695312" xlink:href="#DejaVuSans-115"/>
      <use x="893.794922" xlink:href="#DejaVuSans-115"/>
      <use x="945.894531" xlink:href="#DejaVuSans-101"/>
      <use x="1007.417969" xlink:href="#DejaVuSans-100"/>
      <use x="1070.894531" xlink:href="#DejaVuSans-32"/>
      <use x="1102.681641" xlink:href="#DejaVuSans-105"/>
      <use x="1130.464844" xlink:href="#DejaVuSans-110"/>
      <use x="1193.84375" xlink:href="#DejaVuSans-115"/>
      <use x="1245.943359" xlink:href="#DejaVuSans-116"/>
      <use x="1285.152344" xlink:href="#DejaVuSans-97"/>
      <use x="1346.431641" xlink:href="#DejaVuSans-110"/>
      <use x="1409.810547" xlink:href="#DejaVuSans-99"/>
      <use x="1464.791016" xlink:href="#DejaVuSans-101"/>
      <use x="1526.314453" xlink:href="#DejaVuSans-115"/>
      <use x="1578.414062" xlink:href="#DejaVuSans-32"/>
      <use x="1610.201172" xlink:href="#DejaVuSans-91"/>
      <use x="1649.214844" xlink:href="#DejaVuSans-120"/>
      <use x="1708.394531" xlink:href="#DejaVuSans-49"/>
      <use x="1772.017578" xlink:href="#DejaVuSans-48"/>
      <use x="1835.640625" xlink:href="#DejaVuSans-48"/>
      <use x="1899.263672" xlink:href="#DejaVuSans-48"/>
      <use x="1962.886719" xlink:href="#DejaVuSans-93"/>
     </g>
    </g>
   </g>
   <g id="matplotlib.axis_2">
    <g id="ytick_1">
     <g id="line2d_10">
      <defs>
       <path d="M 0 0 
L -3.5 0 
" id="m9fa9f1b88d" style="stroke:#000000;stroke-width:0.8;"/>
      </defs>
      <g>
       <use style="stroke:#000000;stroke-width:0.8;" x="104.85" xlink:href="#m9fa9f1b88d" y="367.866324"/>
      </g>
     </g>
     <g id="text_11">
      <!-- 0.84 -->
      <g transform="translate(68.904687 372.805308)scale(0.13 -0.13)">
       <defs>
        <path d="M 10.6875 12.40625 
L 21 12.40625 
L 21 0 
L 10.6875 0 
z
" id="DejaVuSans-46"/>
        <path d="M 31.78125 34.625 
Q 24.75 34.625 20.71875 30.859375 
Q 16.703125 27.09375 16.703125 20.515625 
Q 16.703125 13.921875 20.71875 10.15625 
Q 24.75 6.390625 31.78125 6.390625 
Q 38.8125 6.390625 42.859375 10.171875 
Q 46.921875 13.96875 46.921875 20.515625 
Q 46.921875 27.09375 42.890625 30.859375 
Q 38.875 34.625 31.78125 34.625 
z
M 21.921875 38.8125 
Q 15.578125 40.375 12.03125 44.71875 
Q 8.5 49.078125 8.5 55.328125 
Q 8.5 64.0625 14.71875 69.140625 
Q 20.953125 74.21875 31.78125 74.21875 
Q 42.671875 74.21875 48.875 69.140625 
Q 55.078125 64.0625 55.078125 55.328125 
Q 55.078125 49.078125 51.53125 44.71875 
Q 48 40.375 41.703125 38.8125 
Q 48.828125 37.15625 52.796875 32.3125 
Q 56.78125 27.484375 56.78125 20.515625 
Q 56.78125 9.90625 50.3125 4.234375 
Q 43.84375 -1.421875 31.78125 -1.421875 
Q 19.734375 -1.421875 13.25 4.234375 
Q 6.78125 9.90625 6.78125 20.515625 
Q 6.78125 27.484375 10.78125 32.3125 
Q 14.796875 37.15625 21.921875 38.8125 
z
M 18.3125 54.390625 
Q 18.3125 48.734375 21.84375 45.5625 
Q 25.390625 42.390625 31.78125 42.390625 
Q 38.140625 42.390625 41.71875 45.5625 
Q 45.3125 48.734375 45.3125 54.390625 
Q 45.3125 60.0625 41.71875 63.234375 
Q 38.140625 66.40625 31.78125 66.40625 
Q 25.390625 66.40625 21.84375 63.234375 
Q 18.3125 60.0625 18.3125 54.390625 
z
" id="DejaVuSans-56"/>
        <path d="M 37.796875 64.3125 
L 12.890625 25.390625 
L 37.796875 25.390625 
z
M 35.203125 72.90625 
L 47.609375 72.90625 
L 47.609375 25.390625 
L 58.015625 25.390625 
L 58.015625 17.1875 
L 47.609375 17.1875 
L 47.609375 0 
L 37.796875 0 
L 37.796875 17.1875 
L 4.890625 17.1875 
L 4.890625 26.703125 
z
" id="DejaVuSans-52"/>
       </defs>
       <use xlink:href="#DejaVuSans-48"/>
       <use x="63.623047" xlink:href="#DejaVuSans-46"/>
       <use x="95.410156" xlink:href="#DejaVuSans-56"/>
       <use x="159.033203" xlink:href="#DejaVuSans-52"/>
      </g>
     </g>
    </g>
    <g id="ytick_2">
     <g id="line2d_11">
      <g>
       <use style="stroke:#000000;stroke-width:0.8;" x="104.85" xlink:href="#m9fa9f1b88d" y="337.03242"/>
      </g>
     </g>
     <g id="text_12">
      <!-- 0.86 -->
      <g transform="translate(68.904687 341.971404)scale(0.13 -0.13)">
       <defs>
        <path d="M 33.015625 40.375 
Q 26.375 40.375 22.484375 35.828125 
Q 18.609375 31.296875 18.609375 23.390625 
Q 18.609375 15.53125 22.484375 10.953125 
Q 26.375 6.390625 33.015625 6.390625 
Q 39.65625 6.390625 43.53125 10.953125 
Q 47.40625 15.53125 47.40625 23.390625 
Q 47.40625 31.296875 43.53125 35.828125 
Q 39.65625 40.375 33.015625 40.375 
z
M 52.59375 71.296875 
L 52.59375 62.3125 
Q 48.875 64.0625 45.09375 64.984375 
Q 41.3125 65.921875 37.59375 65.921875 
Q 27.828125 65.921875 22.671875 59.328125 
Q 17.53125 52.734375 16.796875 39.40625 
Q 19.671875 43.65625 24.015625 45.921875 
Q 28.375 48.1875 33.59375 48.1875 
Q 44.578125 48.1875 50.953125 41.515625 
Q 57.328125 34.859375 57.328125 23.390625 
Q 57.328125 12.15625 50.6875 5.359375 
Q 44.046875 -1.421875 33.015625 -1.421875 
Q 20.359375 -1.421875 13.671875 8.265625 
Q 6.984375 17.96875 6.984375 36.375 
Q 6.984375 53.65625 15.1875 63.9375 
Q 23.390625 74.21875 37.203125 74.21875 
Q 40.921875 74.21875 44.703125 73.484375 
Q 48.484375 72.75 52.59375 71.296875 
z
" id="DejaVuSans-54"/>
       </defs>
       <use xlink:href="#DejaVuSans-48"/>
       <use x="63.623047" xlink:href="#DejaVuSans-46"/>
       <use x="95.410156" xlink:href="#DejaVuSans-56"/>
       <use x="159.033203" xlink:href="#DejaVuSans-54"/>
      </g>
     </g>
    </g>
    <g id="ytick_3">
     <g id="line2d_12">
      <g>
       <use style="stroke:#000000;stroke-width:0.8;" x="104.85" xlink:href="#m9fa9f1b88d" y="306.198516"/>
      </g>
     </g>
     <g id="text_13">
      <!-- 0.88 -->
      <g transform="translate(68.904687 311.1375)scale(0.13 -0.13)">
       <use xlink:href="#DejaVuSans-48"/>
       <use x="63.623047" xlink:href="#DejaVuSans-46"/>
       <use x="95.410156" xlink:href="#DejaVuSans-56"/>
       <use x="159.033203" xlink:href="#DejaVuSans-56"/>
      </g>
     </g>
    </g>
    <g id="ytick_4">
     <g id="line2d_13">
      <g>
       <use style="stroke:#000000;stroke-width:0.8;" x="104.85" xlink:href="#m9fa9f1b88d" y="275.364612"/>
      </g>
     </g>
     <g id="text_14">
      <!-- 0.90 -->
      <g transform="translate(68.904687 280.303596)scale(0.13 -0.13)">
       <defs>
        <path d="M 10.984375 1.515625 
L 10.984375 10.5 
Q 14.703125 8.734375 18.5 7.8125 
Q 22.3125 6.890625 25.984375 6.890625 
Q 35.75 6.890625 40.890625 13.453125 
Q 46.046875 20.015625 46.78125 33.40625 
Q 43.953125 29.203125 39.59375 26.953125 
Q 35.25 24.703125 29.984375 24.703125 
Q 19.046875 24.703125 12.671875 31.3125 
Q 6.296875 37.9375 6.296875 49.421875 
Q 6.296875 60.640625 12.9375 67.421875 
Q 19.578125 74.21875 30.609375 74.21875 
Q 43.265625 74.21875 49.921875 64.515625 
Q 56.59375 54.828125 56.59375 36.375 
Q 56.59375 19.140625 48.40625 8.859375 
Q 40.234375 -1.421875 26.421875 -1.421875 
Q 22.703125 -1.421875 18.890625 -0.6875 
Q 15.09375 0.046875 10.984375 1.515625 
z
M 30.609375 32.421875 
Q 37.25 32.421875 41.125 36.953125 
Q 45.015625 41.5 45.015625 49.421875 
Q 45.015625 57.28125 41.125 61.84375 
Q 37.25 66.40625 30.609375 66.40625 
Q 23.96875 66.40625 20.09375 61.84375 
Q 16.21875 57.28125 16.21875 49.421875 
Q 16.21875 41.5 20.09375 36.953125 
Q 23.96875 32.421875 30.609375 32.421875 
z
" id="DejaVuSans-57"/>
       </defs>
       <use xlink:href="#DejaVuSans-48"/>
       <use x="63.623047" xlink:href="#DejaVuSans-46"/>
       <use x="95.410156" xlink:href="#DejaVuSans-57"/>
       <use x="159.033203" xlink:href="#DejaVuSans-48"/>
      </g>
     </g>
    </g>
    <g id="ytick_5">
     <g id="line2d_14">
      <g>
       <use style="stroke:#000000;stroke-width:0.8;" x="104.85" xlink:href="#m9fa9f1b88d" y="244.530708"/>
      </g>
     </g>
     <g id="text_15">
      <!-- 0.92 -->
      <g transform="translate(68.904687 249.469692)scale(0.13 -0.13)">
       <use xlink:href="#DejaVuSans-48"/>
       <use x="63.623047" xlink:href="#DejaVuSans-46"/>
       <use x="95.410156" xlink:href="#DejaVuSans-57"/>
       <use x="159.033203" xlink:href="#DejaVuSans-50"/>
      </g>
     </g>
    </g>
    <g id="ytick_6">
     <g id="line2d_15">
      <g>
       <use style="stroke:#000000;stroke-width:0.8;" x="104.85" xlink:href="#m9fa9f1b88d" y="213.696804"/>
      </g>
     </g>
     <g id="text_16">
      <!-- 0.94 -->
      <g transform="translate(68.904687 218.635789)scale(0.13 -0.13)">
       <use xlink:href="#DejaVuSans-48"/>
       <use x="63.623047" xlink:href="#DejaVuSans-46"/>
       <use x="95.410156" xlink:href="#DejaVuSans-57"/>
       <use x="159.033203" xlink:href="#DejaVuSans-52"/>
      </g>
     </g>
    </g>
    <g id="ytick_7">
     <g id="line2d_16">
      <g>
       <use style="stroke:#000000;stroke-width:0.8;" x="104.85" xlink:href="#m9fa9f1b88d" y="182.8629"/>
      </g>
     </g>
     <g id="text_17">
      <!-- 0.96 -->
      <g transform="translate(68.904687 187.801885)scale(0.13 -0.13)">
       <use xlink:href="#DejaVuSans-48"/>
       <use x="63.623047" xlink:href="#DejaVuSans-46"/>
       <use x="95.410156" xlink:href="#DejaVuSans-57"/>
       <use x="159.033203" xlink:href="#DejaVuSans-54"/>
      </g>
     </g>
    </g>
    <g id="ytick_8">
     <g id="line2d_17">
      <g>
       <use style="stroke:#000000;stroke-width:0.8;" x="104.85" xlink:href="#m9fa9f1b88d" y="152.028996"/>
      </g>
     </g>
     <g id="text_18">
      <!-- 0.98 -->
      <g transform="translate(68.904687 156.967981)scale(0.13 -0.13)">
       <use xlink:href="#DejaVuSans-48"/>
       <use x="63.623047" xlink:href="#DejaVuSans-46"/>
       <use x="95.410156" xlink:href="#DejaVuSans-57"/>
       <use x="159.033203" xlink:href="#DejaVuSans-56"/>
      </g>
     </g>
    </g>
    <g id="ytick_9">
     <g id="line2d_18">
      <g>
       <use style="stroke:#000000;stroke-width:0.8;" x="104.85" xlink:href="#m9fa9f1b88d" y="121.195092"/>
      </g>
     </g>
     <g id="text_19">
      <!-- 1.00 -->
      <g transform="translate(68.904687 126.134077)scale(0.13 -0.13)">
       <use xlink:href="#DejaVuSans-49"/>
       <use x="63.623047" xlink:href="#DejaVuSans-46"/>
       <use x="95.410156" xlink:href="#DejaVuSans-48"/>
       <use x="159.033203" xlink:href="#DejaVuSans-48"/>
      </g>
     </g>
    </g>
    <g id="text_20">
     <!-- G-Mean -->
     <g transform="translate(62.201094 275.743844)rotate(-90)scale(0.13 -0.13)">
      <defs>
       <path d="M 59.515625 10.40625 
L 59.515625 29.984375 
L 43.40625 29.984375 
L 43.40625 38.09375 
L 69.28125 38.09375 
L 69.28125 6.78125 
Q 63.578125 2.734375 56.6875 0.65625 
Q 49.8125 -1.421875 42 -1.421875 
Q 24.90625 -1.421875 15.25 8.5625 
Q 5.609375 18.5625 5.609375 36.375 
Q 5.609375 54.25 15.25 64.234375 
Q 24.90625 74.21875 42 74.21875 
Q 49.125 74.21875 55.546875 72.453125 
Q 61.96875 70.703125 67.390625 67.28125 
L 67.390625 56.78125 
Q 61.921875 61.421875 55.765625 63.765625 
Q 49.609375 66.109375 42.828125 66.109375 
Q 29.4375 66.109375 22.71875 58.640625 
Q 16.015625 51.171875 16.015625 36.375 
Q 16.015625 21.625 22.71875 14.15625 
Q 29.4375 6.6875 42.828125 6.6875 
Q 48.046875 6.6875 52.140625 7.59375 
Q 56.25 8.5 59.515625 10.40625 
z
" id="DejaVuSans-71"/>
       <path d="M 4.890625 31.390625 
L 31.203125 31.390625 
L 31.203125 23.390625 
L 4.890625 23.390625 
z
" id="DejaVuSans-45"/>
       <path d="M 9.8125 72.90625 
L 24.515625 72.90625 
L 43.109375 23.296875 
L 61.8125 72.90625 
L 76.515625 72.90625 
L 76.515625 0 
L 66.890625 0 
L 66.890625 64.015625 
L 48.09375 14.015625 
L 38.1875 14.015625 
L 19.390625 64.015625 
L 19.390625 0 
L 9.8125 0 
z
" id="DejaVuSans-77"/>
      </defs>
      <use xlink:href="#DejaVuSans-71"/>
      <use x="77.490234" xlink:href="#DejaVuSans-45"/>
      <use x="113.574219" xlink:href="#DejaVuSans-77"/>
      <use x="199.853516" xlink:href="#DejaVuSans-101"/>
      <use x="261.376953" xlink:href="#DejaVuSans-97"/>
      <use x="322.65625" xlink:href="#DejaVuSans-110"/>
     </g>
    </g>
   </g>
   <g id="line2d_19"/>
   <g id="line2d_20"/>
   <g id="line2d_21"/>
   <g id="line2d_22"/>
   <g id="line2d_23"/>
   <g id="line2d_24">
    <path clip-path="url(#p9c3b99b4f1)" d="M 122.604545 124.651812 
L 124.407037 128.891036 
L 126.209529 126.613862 
L 128.012021 127.863395 
L 129.814513 126.529734 
L 131.617005 125.922524 
L 133.419497 125.731226 
L 137.024481 125.771337 
L 138.826973 127.13107 
L 140.629465 127.9419 
L 144.234449 127.035448 
L 146.03694 127.327804 
L 149.641924 126.776904 
L 151.444416 126.652356 
L 153.246908 126.90006 
L 155.0494 127.297015 
L 156.851892 127.907309 
L 160.456876 127.801739 
L 162.259368 127.888986 
L 164.06186 127.496012 
L 165.864352 127.75225 
L 167.666844 127.795552 
L 169.469335 128.737405 
L 171.271827 128.607866 
L 173.074319 128.847071 
L 176.679303 128.260063 
L 178.481795 128.476713 
L 185.691763 128.683303 
L 187.494255 128.970755 
L 189.296747 128.816799 
L 191.099239 128.366975 
L 192.901731 127.664821 
L 194.704222 128.055185 
L 196.506714 127.735481 
L 198.309206 128.10168 
L 200.111698 129.03412 
L 203.716682 128.993403 
L 205.519174 128.311147 
L 207.321666 128.440926 
L 209.124158 129.214032 
L 210.92665 128.733669 
L 212.729142 129.139117 
L 214.531634 129.094431 
L 216.334126 130.021283 
L 218.136617 129.615316 
L 219.939109 129.487186 
L 223.544093 129.585361 
L 225.346585 129.24352 
L 228.951569 129.074804 
L 234.359045 128.665751 
L 236.161537 127.692297 
L 237.964029 128.089329 
L 239.766521 128.046253 
L 241.569012 128.153534 
L 243.371504 128.024329 
L 245.173996 127.277434 
L 246.976488 129.614164 
L 248.77898 134.058008 
L 250.581472 139.956069 
L 254.186456 157.69854 
L 255.988948 162.679199 
L 259.593932 181.390553 
L 261.396424 190.163702 
L 266.803899 225.622194 
L 268.606391 234.94705 
L 270.408883 248.280584 
L 274.013867 271.8566 
L 277.618851 292.535625 
L 279.421343 299.250265 
L 281.223835 307.677933 
L 283.026327 314.715495 
L 284.828819 317.623543 
L 286.631311 322.389561 
L 288.433802 322.818725 
L 290.236294 321.43303 
L 292.038786 326.433412 
L 295.64377 326.066476 
L 297.446262 329.460281 
L 299.248754 330.804308 
L 301.051246 330.020537 
L 302.853738 326.377058 
L 304.65623 325.526857 
L 306.458722 323.426572 
L 308.261214 319.420802 
L 310.063706 317.133711 
L 311.866198 316.028024 
L 313.668689 313.794439 
L 315.471181 315.523737 
L 317.273673 312.406527 
L 319.076165 310.461305 
L 320.878657 309.470616 
L 322.681149 308.139749 
L 324.483641 307.789604 
L 326.286133 308.415055 
L 328.088625 307.44559 
L 329.891117 308.226216 
L 331.693609 309.898389 
L 333.496101 306.046942 
L 335.298593 302.588689 
L 337.101084 301.423669 
L 340.706068 301.18443 
L 342.50856 295.504929 
L 344.311052 294.092159 
L 346.113544 291.864711 
L 347.916036 293.31669 
L 349.718528 293.601519 
L 351.52102 292.805956 
L 353.323512 293.610559 
L 355.126004 293.935402 
L 356.928496 294.935486 
L 360.533479 291.921323 
L 362.335971 293.440717 
L 364.138463 291.193686 
L 365.940955 288.473932 
L 367.743447 286.369525 
L 369.545939 286.096543 
L 371.348431 283.478334 
L 373.150923 285.045455 
L 374.953415 283.587484 
L 376.755907 281.5222 
L 378.558399 281.497524 
L 380.360891 279.519295 
L 382.163383 281.389872 
L 383.965874 277.376041 
L 385.768366 275.361101 
L 387.570858 275.377003 
L 389.37335 274.628722 
L 391.175842 273.085265 
L 392.978334 272.782877 
L 394.780826 271.371253 
L 396.583318 270.735535 
L 398.38581 268.275373 
L 400.188302 266.705918 
L 401.990794 268.249233 
L 403.793286 265.401311 
L 405.595778 265.325573 
L 407.398269 267.587146 
L 409.200761 262.01222 
L 411.003253 260.965009 
L 412.805745 262.119105 
L 414.608237 262.585838 
L 416.410729 263.880713 
L 418.213221 259.828841 
L 420.015713 261.261829 
L 421.818205 259.323611 
L 423.620697 258.539293 
L 425.423189 260.202022 
L 427.225681 259.113316 
L 429.028173 256.123066 
L 430.830665 258.307656 
L 432.633156 259.781911 
L 434.435648 261.82921 
L 436.23814 262.58643 
L 438.040632 261.369733 
L 439.843124 261.683041 
L 441.645616 260.679915 
L 443.448108 260.218643 
L 445.2506 264.620144 
L 447.053092 265.192669 
L 448.855584 264.538688 
L 450.658076 267.946784 
L 452.460568 271.700335 
L 454.26306 273.271012 
L 456.065551 271.223319 
L 457.868043 274.05054 
L 459.670535 273.714023 
L 461.473027 276.193059 
L 463.275519 277.082471 
L 465.078011 277.61041 
L 466.880503 276.004402 
L 468.682995 274.119735 
L 470.485487 271.564456 
L 472.287979 272.072826 
L 474.090471 270.382693 
L 475.892963 270.560081 
L 477.695455 273.089314 
L 477.695455 273.089314 
" style="fill:none;stroke:#cc3311;stroke-linecap:square;stroke-width:0.5;"/>
    <defs>
     <path d="M 0 2.5 
C 0.663008 2.5 1.29895 2.236584 1.767767 1.767767 
C 2.236584 1.29895 2.5 0.663008 2.5 0 
C 2.5 -0.663008 2.236584 -1.29895 1.767767 -1.767767 
C 1.29895 -2.236584 0.663008 -2.5 0 -2.5 
C -0.663008 -2.5 -1.29895 -2.236584 -1.767767 -1.767767 
C -2.236584 -1.29895 -2.5 -0.663008 -2.5 0 
C -2.5 0.663008 -2.236584 1.29895 -1.767767 1.767767 
C -1.29895 2.236584 -0.663008 2.5 0 2.5 
z
" id="m9a12276171" style="stroke:#cc3311;"/>
    </defs>
    <g clip-path="url(#p9c3b99b4f1)">
     <use style="fill:#cc3311;stroke:#cc3311;" x="122.604545" xlink:href="#m9a12276171" y="124.651812"/>
     <use style="fill:#cc3311;stroke:#cc3311;" x="140.629465" xlink:href="#m9a12276171" y="127.9419"/>
     <use style="fill:#cc3311;stroke:#cc3311;" x="158.654384" xlink:href="#m9a12276171" y="127.862202"/>
     <use style="fill:#cc3311;stroke:#cc3311;" x="176.679303" xlink:href="#m9a12276171" y="128.260063"/>
     <use style="fill:#cc3311;stroke:#cc3311;" x="194.704222" xlink:href="#m9a12276171" y="128.055185"/>
     <use style="fill:#cc3311;stroke:#cc3311;" x="212.729142" xlink:href="#m9a12276171" y="129.139117"/>
     <use style="fill:#cc3311;stroke:#cc3311;" x="230.754061" xlink:href="#m9a12276171" y="128.921179"/>
     <use style="fill:#cc3311;stroke:#cc3311;" x="248.77898" xlink:href="#m9a12276171" y="134.058008"/>
     <use style="fill:#cc3311;stroke:#cc3311;" x="266.803899" xlink:href="#m9a12276171" y="225.622194"/>
     <use style="fill:#cc3311;stroke:#cc3311;" x="284.828819" xlink:href="#m9a12276171" y="317.623543"/>
     <use style="fill:#cc3311;stroke:#cc3311;" x="302.853738" xlink:href="#m9a12276171" y="326.377058"/>
     <use style="fill:#cc3311;stroke:#cc3311;" x="320.878657" xlink:href="#m9a12276171" y="309.470616"/>
     <use style="fill:#cc3311;stroke:#cc3311;" x="338.903576" xlink:href="#m9a12276171" y="301.327165"/>
     <use style="fill:#cc3311;stroke:#cc3311;" x="356.928496" xlink:href="#m9a12276171" y="294.935486"/>
     <use style="fill:#cc3311;stroke:#cc3311;" x="374.953415" xlink:href="#m9a12276171" y="283.587484"/>
     <use style="fill:#cc3311;stroke:#cc3311;" x="392.978334" xlink:href="#m9a12276171" y="272.782877"/>
     <use style="fill:#cc3311;stroke:#cc3311;" x="411.003253" xlink:href="#m9a12276171" y="260.965009"/>
     <use style="fill:#cc3311;stroke:#cc3311;" x="429.028173" xlink:href="#m9a12276171" y="256.123066"/>
     <use style="fill:#cc3311;stroke:#cc3311;" x="447.053092" xlink:href="#m9a12276171" y="265.192669"/>
     <use style="fill:#cc3311;stroke:#cc3311;" x="465.078011" xlink:href="#m9a12276171" y="277.61041"/>
    </g>
   </g>
   <g id="line2d_25"/>
   <g id="line2d_26"/>
   <g id="line2d_27"/>
   <g id="line2d_28"/>
   <g id="line2d_29">
    <path clip-path="url(#p9c3b99b4f1)" d="M 122.604545 152.829201 
L 124.407037 161.697352 
L 126.209529 155.384343 
L 128.012021 152.081136 
L 129.814513 147.828988 
L 131.617005 145.134406 
L 133.419497 142.198553 
L 135.221989 140.110972 
L 137.024481 139.461586 
L 138.826973 139.452294 
L 140.629465 139.221901 
L 142.431957 137.790433 
L 144.234449 137.151277 
L 146.03694 136.840845 
L 147.839432 137.103871 
L 149.641924 136.380922 
L 151.444416 137.367209 
L 153.246908 138.032828 
L 156.851892 137.382164 
L 158.654384 136.465889 
L 160.456876 135.762403 
L 162.259368 135.498761 
L 164.06186 135.068833 
L 165.864352 135.605998 
L 167.666844 135.167901 
L 169.469335 135.744927 
L 171.271827 135.920091 
L 173.074319 135.886952 
L 174.876811 136.347924 
L 178.481795 136.643863 
L 180.284287 136.313018 
L 182.086779 137.169244 
L 183.889271 136.758097 
L 185.691763 136.969427 
L 189.296747 134.638278 
L 191.099239 134.232644 
L 192.901731 134.181773 
L 194.704222 133.949221 
L 196.506714 132.624767 
L 198.309206 131.810247 
L 200.111698 132.482838 
L 203.716682 133.101931 
L 205.519174 133.520564 
L 209.124158 133.089318 
L 210.92665 132.571509 
L 212.729142 133.258226 
L 214.531634 133.599385 
L 216.334126 134.885565 
L 218.136617 133.576844 
L 219.939109 133.094036 
L 221.741601 133.22265 
L 223.544093 132.976158 
L 225.346585 133.441859 
L 227.149077 133.441579 
L 228.951569 133.778565 
L 230.754061 133.83899 
L 232.556553 133.39841 
L 234.359045 134.27383 
L 236.161537 133.069202 
L 237.964029 132.27971 
L 239.766521 131.915494 
L 241.569012 131.24372 
L 243.371504 131.980297 
L 245.173996 132.094496 
L 246.976488 134.75365 
L 248.77898 139.45114 
L 250.581472 147.023724 
L 252.383964 156.16553 
L 254.186456 166.992437 
L 255.988948 175.246733 
L 257.79144 187.784733 
L 259.593932 199.087007 
L 261.396424 207.065948 
L 263.198916 219.770447 
L 265.001407 229.747484 
L 266.803899 243.880747 
L 268.606391 251.973825 
L 270.408883 264.222565 
L 272.211375 279.778649 
L 274.013867 291.306566 
L 275.816359 301.613874 
L 277.618851 313.07709 
L 279.421343 323.614553 
L 281.223835 335.967963 
L 283.026327 344.579959 
L 284.828819 350.719502 
L 286.631311 356.328843 
L 288.433802 361.182268 
L 290.236294 361.218902 
L 292.038786 364.50531 
L 293.841278 363.396697 
L 295.64377 364.445688 
L 297.446262 367.773975 
L 301.051246 376.651812 
L 302.853738 372.591437 
L 304.65623 374.723632 
L 306.458722 374.425973 
L 308.261214 367.468395 
L 311.866198 367.218924 
L 313.668689 364.746829 
L 315.471181 362.866918 
L 317.273673 357.016593 
L 320.878657 352.762261 
L 322.681149 347.242732 
L 324.483641 343.590344 
L 326.286133 344.488417 
L 328.088625 344.021646 
L 329.891117 342.140865 
L 331.693609 342.692209 
L 333.496101 340.014031 
L 335.298593 333.92157 
L 337.101084 330.871155 
L 338.903576 331.761036 
L 340.706068 330.391815 
L 342.50856 326.270695 
L 344.311052 325.926956 
L 346.113544 327.488958 
L 347.916036 327.179647 
L 349.718528 328.556218 
L 351.52102 327.461776 
L 353.323512 330.278897 
L 355.126004 328.313177 
L 356.928496 327.352032 
L 358.730988 329.462343 
L 360.533479 328.28341 
L 364.138463 324.677375 
L 365.940955 323.960639 
L 367.743447 322.001029 
L 369.545939 323.428135 
L 371.348431 322.550993 
L 373.150923 323.563357 
L 374.953415 323.675567 
L 376.755907 324.726346 
L 378.558399 323.759262 
L 380.360891 324.582336 
L 382.163383 320.678721 
L 383.965874 319.913094 
L 385.768366 317.697168 
L 387.570858 318.626345 
L 389.37335 318.518042 
L 391.175842 320.395446 
L 392.978334 321.011241 
L 394.780826 319.042966 
L 396.583318 321.000945 
L 398.38581 319.365448 
L 400.188302 317.308739 
L 401.990794 318.363649 
L 403.793286 316.521896 
L 405.595778 315.005506 
L 407.398269 315.873326 
L 409.200761 310.213101 
L 411.003253 307.101353 
L 412.805745 308.055468 
L 414.608237 306.467195 
L 416.410729 305.069675 
L 418.213221 303.525178 
L 420.015713 303.103541 
L 421.818205 301.10158 
L 423.620697 300.058531 
L 425.423189 297.982044 
L 427.225681 294.599473 
L 429.028173 293.145267 
L 430.830665 297.17822 
L 432.633156 293.647054 
L 434.435648 295.547651 
L 436.23814 298.585586 
L 438.040632 296.118718 
L 439.843124 296.093571 
L 441.645616 297.243085 
L 443.448108 296.354063 
L 445.2506 300.230571 
L 447.053092 302.001 
L 448.855584 300.841352 
L 450.658076 307.338181 
L 452.460568 309.796257 
L 454.26306 311.246487 
L 456.065551 310.751128 
L 457.868043 312.512895 
L 459.670535 312.552983 
L 461.473027 317.129024 
L 463.275519 317.781247 
L 465.078011 317.099599 
L 466.880503 311.717934 
L 468.682995 310.307224 
L 470.485487 308.258766 
L 472.287979 307.804287 
L 474.090471 308.406853 
L 475.892963 308.180848 
L 477.695455 308.476505 
L 477.695455 308.476505 
" style="fill:none;stroke:#009988;stroke-dasharray:1.85,0.8;stroke-dashoffset:0;stroke-width:0.5;"/>
    <defs>
     <path d="M -2.5 2.5 
L 2.5 2.5 
L 2.5 -2.5 
L -2.5 -2.5 
z
" id="ma555136090" style="stroke:#009988;stroke-linejoin:miter;"/>
    </defs>
    <g clip-path="url(#p9c3b99b4f1)">
     <use style="fill:#009988;stroke:#009988;stroke-linejoin:miter;" x="122.604545" xlink:href="#ma555136090" y="152.829201"/>
     <use style="fill:#009988;stroke:#009988;stroke-linejoin:miter;" x="140.629465" xlink:href="#ma555136090" y="139.221901"/>
     <use style="fill:#009988;stroke:#009988;stroke-linejoin:miter;" x="158.654384" xlink:href="#ma555136090" y="136.465889"/>
     <use style="fill:#009988;stroke:#009988;stroke-linejoin:miter;" x="176.679303" xlink:href="#ma555136090" y="136.470459"/>
     <use style="fill:#009988;stroke:#009988;stroke-linejoin:miter;" x="194.704222" xlink:href="#ma555136090" y="133.949221"/>
     <use style="fill:#009988;stroke:#009988;stroke-linejoin:miter;" x="212.729142" xlink:href="#ma555136090" y="133.258226"/>
     <use style="fill:#009988;stroke:#009988;stroke-linejoin:miter;" x="230.754061" xlink:href="#ma555136090" y="133.83899"/>
     <use style="fill:#009988;stroke:#009988;stroke-linejoin:miter;" x="248.77898" xlink:href="#ma555136090" y="139.45114"/>
     <use style="fill:#009988;stroke:#009988;stroke-linejoin:miter;" x="266.803899" xlink:href="#ma555136090" y="243.880747"/>
     <use style="fill:#009988;stroke:#009988;stroke-linejoin:miter;" x="284.828819" xlink:href="#ma555136090" y="350.719502"/>
     <use style="fill:#009988;stroke:#009988;stroke-linejoin:miter;" x="302.853738" xlink:href="#ma555136090" y="372.591437"/>
     <use style="fill:#009988;stroke:#009988;stroke-linejoin:miter;" x="320.878657" xlink:href="#ma555136090" y="352.762261"/>
     <use style="fill:#009988;stroke:#009988;stroke-linejoin:miter;" x="338.903576" xlink:href="#ma555136090" y="331.761036"/>
     <use style="fill:#009988;stroke:#009988;stroke-linejoin:miter;" x="356.928496" xlink:href="#ma555136090" y="327.352032"/>
     <use style="fill:#009988;stroke:#009988;stroke-linejoin:miter;" x="374.953415" xlink:href="#ma555136090" y="323.675567"/>
     <use style="fill:#009988;stroke:#009988;stroke-linejoin:miter;" x="392.978334" xlink:href="#ma555136090" y="321.011241"/>
     <use style="fill:#009988;stroke:#009988;stroke-linejoin:miter;" x="411.003253" xlink:href="#ma555136090" y="307.101353"/>
     <use style="fill:#009988;stroke:#009988;stroke-linejoin:miter;" x="429.028173" xlink:href="#ma555136090" y="293.145267"/>
     <use style="fill:#009988;stroke:#009988;stroke-linejoin:miter;" x="447.053092" xlink:href="#ma555136090" y="302.001"/>
     <use style="fill:#009988;stroke:#009988;stroke-linejoin:miter;" x="465.078011" xlink:href="#ma555136090" y="317.099599"/>
    </g>
   </g>
   <g id="line2d_30"/>
   <g id="line2d_31"/>
   <g id="line2d_32"/>
   <g id="line2d_33"/>
   <g id="line2d_34">
    <path clip-path="url(#p9c3b99b4f1)" d="M 122.604545 124.651812 
L 124.407037 128.891036 
L 126.209529 126.902164 
L 128.012021 128.079621 
L 129.814513 126.702715 
L 131.617005 126.066675 
L 133.419497 125.854784 
L 137.024481 125.867437 
L 138.826973 127.21756 
L 140.629465 128.020528 
L 144.234449 127.10198 
L 146.03694 127.389584 
L 149.641924 126.885231 
L 151.444416 126.80533 
L 153.246908 126.588239 
L 155.0494 127.001605 
L 156.851892 127.669377 
L 162.259368 127.692583 
L 164.06186 127.384974 
L 165.864352 127.684002 
L 167.666844 127.727304 
L 169.469335 128.261789 
L 171.271827 128.175088 
L 173.074319 128.497406 
L 174.876811 127.802436 
L 176.679303 127.555478 
L 178.481795 127.772128 
L 182.086779 127.934096 
L 183.889271 128.147663 
L 185.691763 128.147957 
L 187.494255 128.01735 
L 189.296747 128.316898 
L 191.099239 127.909651 
L 192.901731 127.122094 
L 194.704222 127.427188 
L 196.506714 127.064467 
L 198.309206 127.061805 
L 200.111698 127.551115 
L 201.91419 127.423197 
L 203.716682 127.424771 
L 205.519174 127.149883 
L 207.321666 127.366344 
L 209.124158 126.960146 
L 210.92665 126.964252 
L 212.729142 127.41295 
L 214.531634 127.41122 
L 216.334126 128.338672 
L 218.136617 127.97572 
L 219.939109 127.761963 
L 221.741601 127.760077 
L 223.544093 127.888277 
L 225.346585 127.590651 
L 228.951569 127.422052 
L 230.754061 126.990232 
L 232.556553 126.816764 
L 234.359045 127.232604 
L 236.161537 126.660379 
L 237.964029 127.185455 
L 239.766521 127.1856 
L 243.371504 126.843366 
L 245.173996 127.235256 
L 246.976488 129.527049 
L 248.77898 133.963874 
L 250.581472 139.818979 
L 254.186456 155.798553 
L 255.988948 162.108374 
L 257.79144 169.934051 
L 261.396424 188.843783 
L 265.001407 211.27113 
L 266.803899 222.688011 
L 268.606391 229.514748 
L 270.408883 239.67626 
L 274.013867 261.836852 
L 277.618851 280.412553 
L 279.421343 287.084068 
L 281.223835 294.69043 
L 283.026327 301.76399 
L 284.828819 304.114148 
L 286.631311 307.907686 
L 288.433802 310.600583 
L 290.236294 310.178414 
L 292.038786 312.600772 
L 293.841278 313.473366 
L 295.64377 314.56096 
L 297.446262 315.899583 
L 299.248754 317.563625 
L 301.051246 317.353963 
L 302.853738 314.422426 
L 304.65623 315.893613 
L 306.458722 315.29834 
L 308.261214 311.370546 
L 310.063706 310.182723 
L 311.866198 308.802009 
L 313.668689 307.160593 
L 315.471181 308.665942 
L 317.273673 305.701319 
L 319.076165 304.037861 
L 320.878657 303.814078 
L 322.681149 301.606871 
L 324.483641 298.845351 
L 328.088625 298.983049 
L 329.891117 300.017929 
L 331.693609 300.205743 
L 335.298593 294.359267 
L 337.101084 292.777604 
L 338.903576 292.320888 
L 340.706068 292.39704 
L 342.50856 288.958324 
L 344.311052 288.002775 
L 346.113544 285.940969 
L 347.916036 288.261496 
L 349.718528 288.672248 
L 351.52102 287.879755 
L 353.323512 289.078371 
L 355.126004 288.924666 
L 356.928496 289.445674 
L 358.730988 289.247191 
L 360.533479 287.668859 
L 362.335971 287.633951 
L 367.743447 280.906103 
L 369.545939 281.041973 
L 371.348431 279.337957 
L 373.150923 279.307617 
L 374.953415 277.998509 
L 376.755907 275.890466 
L 378.558399 275.209207 
L 380.360891 273.679454 
L 382.163383 273.958184 
L 383.965874 269.947952 
L 385.768366 267.432835 
L 387.570858 266.842068 
L 389.37335 265.960378 
L 391.175842 263.184025 
L 392.978334 263.078468 
L 394.780826 261.763066 
L 396.583318 262.115063 
L 398.38581 260.773383 
L 400.188302 258.682197 
L 401.990794 259.930126 
L 403.793286 257.21127 
L 405.595778 256.288372 
L 407.398269 256.702126 
L 409.200761 253.08815 
L 411.003253 252.392468 
L 412.805745 253.373006 
L 414.608237 253.386087 
L 416.410729 254.581253 
L 418.213221 252.165197 
L 420.015713 252.701111 
L 421.818205 251.950801 
L 423.620697 252.870682 
L 425.423189 254.010358 
L 427.225681 255.447438 
L 429.028173 253.032406 
L 430.830665 255.479995 
L 432.633156 255.51551 
L 434.435648 257.703606 
L 436.23814 260.495692 
L 438.040632 258.808881 
L 441.645616 258.665221 
L 443.448108 259.937065 
L 445.2506 262.914576 
L 447.053092 262.071332 
L 448.855584 261.534178 
L 450.658076 263.630591 
L 454.26306 264.941527 
L 456.065551 265.322395 
L 457.868043 266.944307 
L 459.670535 265.419881 
L 461.473027 268.383302 
L 465.078011 268.333664 
L 466.880503 265.66738 
L 468.682995 264.189028 
L 470.485487 263.063134 
L 472.287979 262.384219 
L 474.090471 262.144382 
L 475.892963 263.210853 
L 477.695455 263.765763 
L 477.695455 263.765763 
" style="fill:none;stroke:#0077bb;stroke-dasharray:3.2,0.8,0.5,0.8;stroke-dashoffset:0;stroke-width:0.5;"/>
    <defs>
     <path d="M 0 -2.5 
L -2.5 2.5 
L 2.5 2.5 
z
" id="m616871419d" style="stroke:#0077bb;stroke-linejoin:miter;"/>
    </defs>
    <g clip-path="url(#p9c3b99b4f1)">
     <use style="fill:#0077bb;stroke:#0077bb;stroke-linejoin:miter;" x="122.604545" xlink:href="#m616871419d" y="124.651812"/>
     <use style="fill:#0077bb;stroke:#0077bb;stroke-linejoin:miter;" x="140.629465" xlink:href="#m616871419d" y="128.020528"/>
     <use style="fill:#0077bb;stroke:#0077bb;stroke-linejoin:miter;" x="158.654384" xlink:href="#m616871419d" y="127.709542"/>
     <use style="fill:#0077bb;stroke:#0077bb;stroke-linejoin:miter;" x="176.679303" xlink:href="#m616871419d" y="127.555478"/>
     <use style="fill:#0077bb;stroke:#0077bb;stroke-linejoin:miter;" x="194.704222" xlink:href="#m616871419d" y="127.427188"/>
     <use style="fill:#0077bb;stroke:#0077bb;stroke-linejoin:miter;" x="212.729142" xlink:href="#m616871419d" y="127.41295"/>
     <use style="fill:#0077bb;stroke:#0077bb;stroke-linejoin:miter;" x="230.754061" xlink:href="#m616871419d" y="126.990232"/>
     <use style="fill:#0077bb;stroke:#0077bb;stroke-linejoin:miter;" x="248.77898" xlink:href="#m616871419d" y="133.963874"/>
     <use style="fill:#0077bb;stroke:#0077bb;stroke-linejoin:miter;" x="266.803899" xlink:href="#m616871419d" y="222.688011"/>
     <use style="fill:#0077bb;stroke:#0077bb;stroke-linejoin:miter;" x="284.828819" xlink:href="#m616871419d" y="304.114148"/>
     <use style="fill:#0077bb;stroke:#0077bb;stroke-linejoin:miter;" x="302.853738" xlink:href="#m616871419d" y="314.422426"/>
     <use style="fill:#0077bb;stroke:#0077bb;stroke-linejoin:miter;" x="320.878657" xlink:href="#m616871419d" y="303.814078"/>
     <use style="fill:#0077bb;stroke:#0077bb;stroke-linejoin:miter;" x="338.903576" xlink:href="#m616871419d" y="292.320888"/>
     <use style="fill:#0077bb;stroke:#0077bb;stroke-linejoin:miter;" x="356.928496" xlink:href="#m616871419d" y="289.445674"/>
     <use style="fill:#0077bb;stroke:#0077bb;stroke-linejoin:miter;" x="374.953415" xlink:href="#m616871419d" y="277.998509"/>
     <use style="fill:#0077bb;stroke:#0077bb;stroke-linejoin:miter;" x="392.978334" xlink:href="#m616871419d" y="263.078468"/>
     <use style="fill:#0077bb;stroke:#0077bb;stroke-linejoin:miter;" x="411.003253" xlink:href="#m616871419d" y="252.392468"/>
     <use style="fill:#0077bb;stroke:#0077bb;stroke-linejoin:miter;" x="429.028173" xlink:href="#m616871419d" y="253.032406"/>
     <use style="fill:#0077bb;stroke:#0077bb;stroke-linejoin:miter;" x="447.053092" xlink:href="#m616871419d" y="262.071332"/>
     <use style="fill:#0077bb;stroke:#0077bb;stroke-linejoin:miter;" x="465.078011" xlink:href="#m616871419d" y="268.333664"/>
    </g>
   </g>
   <g id="line2d_35"/>
   <g id="line2d_36"/>
   <g id="line2d_37"/>
   <g id="line2d_38"/>
   <g id="line2d_39">
    <path clip-path="url(#p9c3b99b4f1)" d="M 122.604545 152.829201 
L 124.407037 152.481715 
L 126.209529 145.0113 
L 128.012021 144.943369 
L 129.814513 140.53199 
L 131.617005 140.80349 
L 135.221989 138.807074 
L 137.024481 139.156789 
L 138.826973 138.691479 
L 140.629465 138.925367 
L 142.431957 137.802062 
L 146.03694 137.217124 
L 147.839432 138.02534 
L 149.641924 138.16823 
L 151.444416 138.460612 
L 153.246908 139.15876 
L 155.0494 139.471811 
L 156.851892 139.143813 
L 158.654384 137.775108 
L 160.456876 137.710251 
L 162.259368 137.353436 
L 164.06186 136.795105 
L 165.864352 137.36797 
L 167.666844 136.404899 
L 169.469335 136.913563 
L 173.074319 135.97867 
L 174.876811 136.450741 
L 176.679303 136.325285 
L 178.481795 136.907514 
L 180.284287 136.529418 
L 182.086779 136.975937 
L 183.889271 135.825196 
L 185.691763 135.341102 
L 187.494255 135.08113 
L 191.099239 132.905758 
L 192.901731 132.44779 
L 194.704222 132.667667 
L 196.506714 131.40216 
L 198.309206 131.811873 
L 200.111698 131.895525 
L 201.91419 131.760029 
L 203.716682 131.761079 
L 205.519174 130.993887 
L 207.321666 131.209268 
L 209.124158 130.67511 
L 210.92665 129.668224 
L 212.729142 129.326518 
L 214.531634 128.746181 
L 216.334126 129.106476 
L 218.136617 128.250968 
L 219.939109 128.165745 
L 221.741601 128.251038 
L 223.544093 127.713853 
L 225.346585 127.840889 
L 227.149077 127.840515 
L 228.951569 128.214221 
L 234.359045 128.383687 
L 236.161537 128.155779 
L 237.964029 128.644162 
L 239.766521 128.601062 
L 243.371504 129.118274 
L 245.173996 129.639151 
L 246.976488 132.670011 
L 248.77898 137.475736 
L 250.581472 143.413457 
L 261.396424 197.678709 
L 263.198916 208.519661 
L 265.001407 218.247025 
L 266.803899 229.458018 
L 268.606391 237.365662 
L 270.408883 248.968976 
L 272.211375 259.79506 
L 274.013867 271.461192 
L 275.816359 281.819306 
L 279.421343 300.743333 
L 281.223835 310.770021 
L 283.026327 317.554289 
L 284.828819 323.820468 
L 286.631311 331.100324 
L 288.433802 335.720563 
L 290.236294 335.936042 
L 292.038786 337.189099 
L 293.841278 338.054003 
L 295.64377 339.435639 
L 297.446262 341.742043 
L 301.051246 343.546118 
L 302.853738 342.692875 
L 304.65623 344.730543 
L 306.458722 343.888917 
L 310.063706 338.748611 
L 311.866198 337.266683 
L 313.668689 337.380772 
L 315.471181 335.511788 
L 317.273673 334.017251 
L 319.076165 331.263657 
L 320.878657 329.350825 
L 322.681149 326.040629 
L 324.483641 321.131203 
L 326.286133 321.037034 
L 328.088625 319.613139 
L 329.891117 318.775613 
L 331.693609 318.362817 
L 333.496101 316.954186 
L 335.298593 314.595335 
L 337.101084 312.545179 
L 338.903576 312.181136 
L 340.706068 310.761769 
L 342.50856 308.163264 
L 344.311052 309.618903 
L 346.113544 310.185242 
L 347.916036 311.918379 
L 349.718528 310.647106 
L 351.52102 311.123255 
L 353.323512 309.414799 
L 355.126004 309.754008 
L 356.928496 308.522627 
L 358.730988 308.168107 
L 360.533479 308.36012 
L 362.335971 307.546496 
L 364.138463 306.517839 
L 365.940955 305.269169 
L 367.743447 304.441779 
L 369.545939 303.07386 
L 371.348431 302.005093 
L 373.150923 302.055818 
L 374.953415 299.936241 
L 376.755907 299.265179 
L 378.558399 298.846627 
L 380.360891 296.320783 
L 383.965874 289.488974 
L 385.768366 287.563118 
L 387.570858 287.960645 
L 389.37335 290.684657 
L 391.175842 290.621977 
L 392.978334 291.148876 
L 396.583318 286.722295 
L 398.38581 286.051459 
L 400.188302 285.087291 
L 401.990794 285.017144 
L 403.793286 283.247684 
L 405.595778 283.182267 
L 407.398269 282.593159 
L 409.200761 280.839669 
L 411.003253 278.699883 
L 412.805745 278.831037 
L 414.608237 278.674762 
L 416.410729 279.724131 
L 418.213221 279.974975 
L 420.015713 280.695648 
L 421.818205 281.570938 
L 423.620697 280.523226 
L 425.423189 277.868522 
L 427.225681 277.648778 
L 429.028173 276.660073 
L 430.830665 277.549426 
L 432.633156 277.829081 
L 434.435648 277.183877 
L 436.23814 278.169595 
L 438.040632 278.862456 
L 439.843124 277.544357 
L 441.645616 276.437476 
L 443.448108 277.615824 
L 445.2506 278.169714 
L 447.053092 278.949925 
L 448.855584 279.474365 
L 450.658076 278.97724 
L 452.460568 278.339858 
L 454.26306 278.601903 
L 456.065551 277.690088 
L 457.868043 277.535309 
L 459.670535 275.704656 
L 461.473027 275.082329 
L 463.275519 275.546684 
L 465.078011 275.237374 
L 466.880503 273.746799 
L 468.682995 273.400994 
L 470.485487 273.937032 
L 472.287979 273.653098 
L 474.090471 271.580496 
L 475.892963 272.805046 
L 477.695455 273.625306 
L 477.695455 273.625306 
" style="fill:none;stroke:#ee7733;stroke-dasharray:0.5,0.825;stroke-dashoffset:0;stroke-width:0.5;"/>
    <defs>
     <path d="M 0 -2.5 
L -0.561285 -0.772542 
L -2.377641 -0.772542 
L -0.908178 0.295085 
L -1.469463 2.022542 
L -0 0.954915 
L 1.469463 2.022542 
L 0.908178 0.295085 
L 2.377641 -0.772542 
L 0.561285 -0.772542 
z
" id="md5b9fe73ee" style="stroke:#ee7733;stroke-linejoin:bevel;"/>
    </defs>
    <g clip-path="url(#p9c3b99b4f1)">
     <use style="fill:#ee7733;stroke:#ee7733;stroke-linejoin:bevel;" x="122.604545" xlink:href="#md5b9fe73ee" y="152.829201"/>
     <use style="fill:#ee7733;stroke:#ee7733;stroke-linejoin:bevel;" x="140.629465" xlink:href="#md5b9fe73ee" y="138.925367"/>
     <use style="fill:#ee7733;stroke:#ee7733;stroke-linejoin:bevel;" x="158.654384" xlink:href="#md5b9fe73ee" y="137.775108"/>
     <use style="fill:#ee7733;stroke:#ee7733;stroke-linejoin:bevel;" x="176.679303" xlink:href="#md5b9fe73ee" y="136.325285"/>
     <use style="fill:#ee7733;stroke:#ee7733;stroke-linejoin:bevel;" x="194.704222" xlink:href="#md5b9fe73ee" y="132.667667"/>
     <use style="fill:#ee7733;stroke:#ee7733;stroke-linejoin:bevel;" x="212.729142" xlink:href="#md5b9fe73ee" y="129.326518"/>
     <use style="fill:#ee7733;stroke:#ee7733;stroke-linejoin:bevel;" x="230.754061" xlink:href="#md5b9fe73ee" y="128.274645"/>
     <use style="fill:#ee7733;stroke:#ee7733;stroke-linejoin:bevel;" x="248.77898" xlink:href="#md5b9fe73ee" y="137.475736"/>
     <use style="fill:#ee7733;stroke:#ee7733;stroke-linejoin:bevel;" x="266.803899" xlink:href="#md5b9fe73ee" y="229.458018"/>
     <use style="fill:#ee7733;stroke:#ee7733;stroke-linejoin:bevel;" x="284.828819" xlink:href="#md5b9fe73ee" y="323.820468"/>
     <use style="fill:#ee7733;stroke:#ee7733;stroke-linejoin:bevel;" x="302.853738" xlink:href="#md5b9fe73ee" y="342.692875"/>
     <use style="fill:#ee7733;stroke:#ee7733;stroke-linejoin:bevel;" x="320.878657" xlink:href="#md5b9fe73ee" y="329.350825"/>
     <use style="fill:#ee7733;stroke:#ee7733;stroke-linejoin:bevel;" x="338.903576" xlink:href="#md5b9fe73ee" y="312.181136"/>
     <use style="fill:#ee7733;stroke:#ee7733;stroke-linejoin:bevel;" x="356.928496" xlink:href="#md5b9fe73ee" y="308.522627"/>
     <use style="fill:#ee7733;stroke:#ee7733;stroke-linejoin:bevel;" x="374.953415" xlink:href="#md5b9fe73ee" y="299.936241"/>
     <use style="fill:#ee7733;stroke:#ee7733;stroke-linejoin:bevel;" x="392.978334" xlink:href="#md5b9fe73ee" y="291.148876"/>
     <use style="fill:#ee7733;stroke:#ee7733;stroke-linejoin:bevel;" x="411.003253" xlink:href="#md5b9fe73ee" y="278.699883"/>
     <use style="fill:#ee7733;stroke:#ee7733;stroke-linejoin:bevel;" x="429.028173" xlink:href="#md5b9fe73ee" y="276.660073"/>
     <use style="fill:#ee7733;stroke:#ee7733;stroke-linejoin:bevel;" x="447.053092" xlink:href="#md5b9fe73ee" y="278.949925"/>
     <use style="fill:#ee7733;stroke:#ee7733;stroke-linejoin:bevel;" x="465.078011" xlink:href="#md5b9fe73ee" y="275.237374"/>
    </g>
   </g>
   <g id="line2d_40"/>
   <g id="line2d_41"/>
   <g id="line2d_42"/>
   <g id="line2d_43"/>
   <g id="line2d_44">
    <path clip-path="url(#p9c3b99b4f1)" d="M 122.604545 124.651812 
L 124.407037 128.891036 
L 126.209529 129.284182 
L 128.012021 129.866134 
L 129.814513 128.301018 
L 131.617005 127.398594 
L 133.419497 126.996429 
L 135.221989 126.809114 
L 137.024481 126.755383 
L 138.826973 128.185336 
L 140.629465 129.216146 
L 144.234449 128.113657 
L 146.03694 128.328998 
L 149.641924 127.707218 
L 151.444416 127.578966 
L 153.246908 127.318894 
L 155.0494 127.693805 
L 156.851892 128.412455 
L 160.456876 128.435173 
L 164.06186 127.770749 
L 165.864352 128.027504 
L 167.666844 128.070806 
L 169.469335 129.012659 
L 171.271827 128.840307 
L 173.074319 129.204216 
L 174.876811 128.424934 
L 176.679303 128.004274 
L 178.481795 128.220924 
L 182.086779 128.382892 
L 183.889271 128.596459 
L 185.691763 128.938015 
L 187.494255 128.807408 
L 189.296747 129.149818 
L 191.099239 128.65744 
L 192.901731 127.741726 
L 194.704222 128.046819 
L 196.506714 127.684098 
L 200.111698 128.62503 
L 201.91419 128.890535 
L 203.716682 128.848937 
L 205.519174 128.512407 
L 207.321666 128.771321 
L 209.124158 128.237162 
L 210.92665 128.154069 
L 212.729142 128.237583 
L 214.531634 128.192897 
L 216.334126 129.47943 
L 221.741601 128.602338 
L 223.544093 128.730539 
L 225.346585 128.390051 
L 228.951569 128.391713 
L 230.754061 127.959892 
L 232.556553 128.15069 
L 234.359045 128.529604 
L 236.161537 128.301696 
L 237.964029 128.832248 
L 241.569012 128.723022 
L 243.371504 128.55062 
L 245.173996 129.071497 
L 246.976488 131.450491 
L 248.77898 136.252499 
L 250.581472 143.01987 
L 254.186456 159.020044 
L 255.988948 165.329865 
L 257.79144 173.155542 
L 261.396424 192.289301 
L 263.198916 204.234937 
L 265.001407 215.001549 
L 266.803899 227.025569 
L 268.606391 233.135225 
L 270.408883 242.879378 
L 274.013867 264.594803 
L 277.618851 283.292664 
L 279.421343 290.247502 
L 283.026327 304.96316 
L 284.828819 307.313317 
L 286.631311 310.237545 
L 288.433802 312.930442 
L 290.236294 312.085827 
L 292.038786 314.508184 
L 293.841278 315.500635 
L 295.64377 316.022938 
L 297.446262 317.73545 
L 299.248754 318.874966 
L 301.051246 319.357627 
L 302.853738 316.956914 
L 304.65623 318.780919 
L 306.458722 318.185645 
L 308.261214 314.067264 
L 310.063706 312.931863 
L 311.866198 312.873329 
L 313.668689 310.830549 
L 315.471181 312.134019 
L 317.273673 309.422282 
L 319.076165 308.334529 
L 320.878657 309.003056 
L 322.681149 306.795849 
L 324.483641 303.798988 
L 326.286133 303.906172 
L 328.088625 304.620428 
L 329.891117 306.110635 
L 331.693609 306.168107 
L 333.496101 303.218018 
L 335.298593 299.659413 
L 337.101084 298.823559 
L 338.903576 298.195891 
L 340.706068 298.199323 
L 342.50856 294.760608 
L 344.311052 293.805058 
L 346.113544 291.583369 
L 347.916036 293.538046 
L 349.718528 293.908185 
L 351.52102 293.202295 
L 353.323512 294.148025 
L 355.126004 294.067152 
L 356.928496 293.16209 
L 358.730988 292.963607 
L 360.533479 291.620615 
L 362.335971 291.585707 
L 364.138463 288.661304 
L 365.940955 286.236672 
L 367.743447 284.241428 
L 369.545939 284.405576 
L 371.348431 284.048345 
L 373.150923 283.135255 
L 374.953415 281.286886 
L 376.755907 279.251562 
L 378.558399 278.570303 
L 380.360891 277.04055 
L 382.163383 276.704289 
L 383.965874 272.92997 
L 385.768366 270.414853 
L 387.570858 269.65604 
L 389.37335 268.774351 
L 391.175842 265.271106 
L 392.978334 265.69931 
L 394.780826 265.965135 
L 396.583318 266.016242 
L 398.38581 265.783389 
L 400.188302 263.692203 
L 401.990794 265.187167 
L 403.793286 262.272321 
L 405.595778 261.321145 
L 407.398269 260.813711 
L 409.200761 257.24595 
L 411.003253 256.122516 
L 412.805745 257.659881 
L 414.608237 257.672962 
L 416.410729 258.868128 
L 418.213221 257.067063 
L 421.818205 255.660423 
L 423.620697 256.580304 
L 427.225681 259.558706 
L 429.028173 257.143673 
L 430.830665 258.010036 
L 432.633156 259.837987 
L 434.435648 259.846016 
L 436.23814 263.954394 
L 438.040632 261.508397 
L 441.645616 261.89021 
L 443.448108 262.812654 
L 445.2506 264.767482 
L 447.053092 265.405813 
L 448.855584 264.311832 
L 450.658076 266.68312 
L 452.460568 267.470855 
L 454.26306 268.66787 
L 456.065551 269.048738 
L 457.868043 271.345416 
L 459.670535 269.761365 
L 461.473027 269.844711 
L 463.275519 270.718843 
L 465.078011 270.694026 
L 468.682995 265.405162 
L 470.485487 265.393438 
L 472.287979 263.537507 
L 474.090471 264.236723 
L 475.892963 265.345693 
L 477.695455 265.561793 
L 477.695455 265.561793 
" style="fill:none;stroke:#ee3377;stroke-dasharray:3.2,0.8,0.5,0.8;stroke-dashoffset:0;stroke-width:0.5;"/>
    <defs>
     <path d="M -1.25 2.5 
L 0 1.25 
L 1.25 2.5 
L 2.5 1.25 
L 1.25 0 
L 2.5 -1.25 
L 1.25 -2.5 
L 0 -1.25 
L -1.25 -2.5 
L -2.5 -1.25 
L -1.25 0 
L -2.5 1.25 
z
" id="mc661db7d5c" style="stroke:#ee3377;stroke-linejoin:miter;"/>
    </defs>
    <g clip-path="url(#p9c3b99b4f1)">
     <use style="fill:#ee3377;stroke:#ee3377;stroke-linejoin:miter;" x="122.604545" xlink:href="#mc661db7d5c" y="124.651812"/>
     <use style="fill:#ee3377;stroke:#ee3377;stroke-linejoin:miter;" x="140.629465" xlink:href="#mc661db7d5c" y="129.216146"/>
     <use style="fill:#ee3377;stroke:#ee3377;stroke-linejoin:miter;" x="158.654384" xlink:href="#mc661db7d5c" y="128.452619"/>
     <use style="fill:#ee3377;stroke:#ee3377;stroke-linejoin:miter;" x="176.679303" xlink:href="#mc661db7d5c" y="128.004274"/>
     <use style="fill:#ee3377;stroke:#ee3377;stroke-linejoin:miter;" x="194.704222" xlink:href="#mc661db7d5c" y="128.046819"/>
     <use style="fill:#ee3377;stroke:#ee3377;stroke-linejoin:miter;" x="212.729142" xlink:href="#mc661db7d5c" y="128.237583"/>
     <use style="fill:#ee3377;stroke:#ee3377;stroke-linejoin:miter;" x="230.754061" xlink:href="#mc661db7d5c" y="127.959892"/>
     <use style="fill:#ee3377;stroke:#ee3377;stroke-linejoin:miter;" x="248.77898" xlink:href="#mc661db7d5c" y="136.252499"/>
     <use style="fill:#ee3377;stroke:#ee3377;stroke-linejoin:miter;" x="266.803899" xlink:href="#mc661db7d5c" y="227.025569"/>
     <use style="fill:#ee3377;stroke:#ee3377;stroke-linejoin:miter;" x="284.828819" xlink:href="#mc661db7d5c" y="307.313317"/>
     <use style="fill:#ee3377;stroke:#ee3377;stroke-linejoin:miter;" x="302.853738" xlink:href="#mc661db7d5c" y="316.956914"/>
     <use style="fill:#ee3377;stroke:#ee3377;stroke-linejoin:miter;" x="320.878657" xlink:href="#mc661db7d5c" y="309.003056"/>
     <use style="fill:#ee3377;stroke:#ee3377;stroke-linejoin:miter;" x="338.903576" xlink:href="#mc661db7d5c" y="298.195891"/>
     <use style="fill:#ee3377;stroke:#ee3377;stroke-linejoin:miter;" x="356.928496" xlink:href="#mc661db7d5c" y="293.16209"/>
     <use style="fill:#ee3377;stroke:#ee3377;stroke-linejoin:miter;" x="374.953415" xlink:href="#mc661db7d5c" y="281.286886"/>
     <use style="fill:#ee3377;stroke:#ee3377;stroke-linejoin:miter;" x="392.978334" xlink:href="#mc661db7d5c" y="265.69931"/>
     <use style="fill:#ee3377;stroke:#ee3377;stroke-linejoin:miter;" x="411.003253" xlink:href="#mc661db7d5c" y="256.122516"/>
     <use style="fill:#ee3377;stroke:#ee3377;stroke-linejoin:miter;" x="429.028173" xlink:href="#mc661db7d5c" y="257.143673"/>
     <use style="fill:#ee3377;stroke:#ee3377;stroke-linejoin:miter;" x="447.053092" xlink:href="#mc661db7d5c" y="265.405813"/>
     <use style="fill:#ee3377;stroke:#ee3377;stroke-linejoin:miter;" x="465.078011" xlink:href="#mc661db7d5c" y="270.694026"/>
    </g>
   </g>
   <g id="line2d_45"/>
   <g id="line2d_46"/>
   <g id="line2d_47"/>
   <g id="line2d_48"/>
   <g id="line2d_49">
    <path clip-path="url(#p9c3b99b4f1)" d="M 243.371504 389.251812 
L 243.371504 112.051812 
" style="fill:none;stroke:#000000;stroke-dasharray:2.5,5;stroke-dashoffset:0;stroke-width:0.5;"/>
   </g>
   <g id="line2d_50">
    <path clip-path="url(#p9c3b99b4f1)" d="M 297.446262 389.251812 
L 297.446262 112.051812 
" style="fill:none;stroke:#000000;stroke-dasharray:2.5,5;stroke-dashoffset:0;stroke-width:0.5;"/>
   </g>
   <g id="patch_4">
    <path d="M 104.85 389.251812 
L 104.85 112.051812 
" style="fill:none;stroke:#000000;stroke-linecap:square;stroke-linejoin:miter;stroke-width:0.8;"/>
   </g>
   <g id="patch_5">
    <path d="M 495.45 389.251812 
L 495.45 112.051812 
" style="fill:none;stroke:#000000;stroke-linecap:square;stroke-linejoin:miter;stroke-width:0.8;"/>
   </g>
   <g id="patch_6">
    <path d="M 104.85 389.251812 
L 495.45 389.251812 
" style="fill:none;stroke:#000000;stroke-linecap:square;stroke-linejoin:miter;stroke-width:0.8;"/>
   </g>
   <g id="patch_7">
    <path d="M 104.85 112.051812 
L 495.45 112.051812 
" style="fill:none;stroke:#000000;stroke-linecap:square;stroke-linejoin:miter;stroke-width:0.8;"/>
   </g>
   <g id="legend_1">
    <g id="line2d_51"/>
    <g id="line2d_52"/>
    <g id="text_21">
     <!--   -->
     <g transform="translate(48.8 22.277969)scale(0.13 -0.13)">
      <use xlink:href="#DejaVuSans-32"/>
     </g>
    </g>
    <g id="line2d_53"/>
    <g id="line2d_54"/>
    <g id="text_22">
     <!-- start -->
     <g transform="translate(48.8 41.359531)scale(0.13 -0.13)">
      <use xlink:href="#DejaVuSans-115"/>
      <use x="52.099609" xlink:href="#DejaVuSans-116"/>
      <use x="91.308594" xlink:href="#DejaVuSans-97"/>
      <use x="152.587891" xlink:href="#DejaVuSans-114"/>
      <use x="193.701172" xlink:href="#DejaVuSans-116"/>
     </g>
    </g>
    <g id="line2d_55"/>
    <g id="line2d_56"/>
    <g id="text_23">
     <!-- pre-dirft -->
     <g transform="translate(48.8 60.441094)scale(0.13 -0.13)">
      <use xlink:href="#DejaVuSans-112"/>
      <use x="63.476562" xlink:href="#DejaVuSans-114"/>
      <use x="102.339844" xlink:href="#DejaVuSans-101"/>
      <use x="163.863281" xlink:href="#DejaVuSans-45"/>
      <use x="199.947266" xlink:href="#DejaVuSans-100"/>
      <use x="263.423828" xlink:href="#DejaVuSans-105"/>
      <use x="291.207031" xlink:href="#DejaVuSans-114"/>
      <use x="332.320312" xlink:href="#DejaVuSans-102"/>
      <use x="365.775391" xlink:href="#DejaVuSans-116"/>
     </g>
    </g>
    <g id="line2d_57"/>
    <g id="line2d_58"/>
    <g id="text_24">
     <!-- post-drift -->
     <g transform="translate(48.8 79.522656)scale(0.13 -0.13)">
      <use xlink:href="#DejaVuSans-112"/>
      <use x="63.476562" xlink:href="#DejaVuSans-111"/>
      <use x="124.658203" xlink:href="#DejaVuSans-115"/>
      <use x="176.757812" xlink:href="#DejaVuSans-116"/>
      <use x="215.966797" xlink:href="#DejaVuSans-45"/>
      <use x="252.050781" xlink:href="#DejaVuSans-100"/>
      <use x="315.527344" xlink:href="#DejaVuSans-114"/>
      <use x="356.640625" xlink:href="#DejaVuSans-105"/>
      <use x="384.423828" xlink:href="#DejaVuSans-102"/>
      <use x="417.878906" xlink:href="#DejaVuSans-116"/>
     </g>
    </g>
    <g id="line2d_59"/>
    <g id="line2d_60"/>
    <g id="text_25">
     <!-- end -->
     <g transform="translate(48.8 98.604219)scale(0.13 -0.13)">
      <use xlink:href="#DejaVuSans-101"/>
      <use x="61.523438" xlink:href="#DejaVuSans-110"/>
      <use x="124.902344" xlink:href="#DejaVuSans-100"/>
     </g>
    </g>
    <g id="line2d_61">
     <path d="M 102.738313 17.727969 
L 128.738313 17.727969 
" style="fill:none;stroke:#cc3311;stroke-linecap:square;stroke-width:0.5;"/>
    </g>
    <g id="line2d_62">
     <g>
      <use style="fill:#cc3311;stroke:#cc3311;" x="115.738313" xlink:href="#m9a12276171" y="17.727969"/>
     </g>
    </g>
    <g id="text_26">
     <!-- UOB -->
     <g transform="translate(139.138313 22.277969)scale(0.13 -0.13)">
      <defs>
       <path d="M 8.6875 72.90625 
L 18.609375 72.90625 
L 18.609375 28.609375 
Q 18.609375 16.890625 22.84375 11.734375 
Q 27.09375 6.59375 36.625 6.59375 
Q 46.09375 6.59375 50.34375 11.734375 
Q 54.59375 16.890625 54.59375 28.609375 
L 54.59375 72.90625 
L 64.5 72.90625 
L 64.5 27.390625 
Q 64.5 13.140625 57.4375 5.859375 
Q 50.390625 -1.421875 36.625 -1.421875 
Q 22.796875 -1.421875 15.734375 5.859375 
Q 8.6875 13.140625 8.6875 27.390625 
z
" id="DejaVuSans-85"/>
       <path d="M 39.40625 66.21875 
Q 28.65625 66.21875 22.328125 58.203125 
Q 16.015625 50.203125 16.015625 36.375 
Q 16.015625 22.609375 22.328125 14.59375 
Q 28.65625 6.59375 39.40625 6.59375 
Q 50.140625 6.59375 56.421875 14.59375 
Q 62.703125 22.609375 62.703125 36.375 
Q 62.703125 50.203125 56.421875 58.203125 
Q 50.140625 66.21875 39.40625 66.21875 
z
M 39.40625 74.21875 
Q 54.734375 74.21875 63.90625 63.9375 
Q 73.09375 53.65625 73.09375 36.375 
Q 73.09375 19.140625 63.90625 8.859375 
Q 54.734375 -1.421875 39.40625 -1.421875 
Q 24.03125 -1.421875 14.8125 8.828125 
Q 5.609375 19.09375 5.609375 36.375 
Q 5.609375 53.65625 14.8125 63.9375 
Q 24.03125 74.21875 39.40625 74.21875 
z
" id="DejaVuSans-79"/>
       <path d="M 19.671875 34.8125 
L 19.671875 8.109375 
L 35.5 8.109375 
Q 43.453125 8.109375 47.28125 11.40625 
Q 51.125 14.703125 51.125 21.484375 
Q 51.125 28.328125 47.28125 31.5625 
Q 43.453125 34.8125 35.5 34.8125 
z
M 19.671875 64.796875 
L 19.671875 42.828125 
L 34.28125 42.828125 
Q 41.5 42.828125 45.03125 45.53125 
Q 48.578125 48.25 48.578125 53.8125 
Q 48.578125 59.328125 45.03125 62.0625 
Q 41.5 64.796875 34.28125 64.796875 
z
M 9.8125 72.90625 
L 35.015625 72.90625 
Q 46.296875 72.90625 52.390625 68.21875 
Q 58.5 63.53125 58.5 54.890625 
Q 58.5 48.1875 55.375 44.234375 
Q 52.25 40.28125 46.1875 39.3125 
Q 53.46875 37.75 57.5 32.78125 
Q 61.53125 27.828125 61.53125 20.40625 
Q 61.53125 10.640625 54.890625 5.3125 
Q 48.25 0 35.984375 0 
L 9.8125 0 
z
" id="DejaVuSans-66"/>
      </defs>
      <use xlink:href="#DejaVuSans-85"/>
      <use x="73.193359" xlink:href="#DejaVuSans-79"/>
      <use x="151.904297" xlink:href="#DejaVuSans-66"/>
     </g>
    </g>
    <g id="line2d_63"/>
    <g id="line2d_64"/>
    <g id="text_27">
     <!-- 0.9978 -->
     <g transform="translate(139.138313 41.359531)scale(0.13 -0.13)">
      <use xlink:href="#DejaVuSans-48"/>
      <use x="63.623047" xlink:href="#DejaVuSans-46"/>
      <use x="95.410156" xlink:href="#DejaVuSans-57"/>
      <use x="159.033203" xlink:href="#DejaVuSans-57"/>
      <use x="222.65625" xlink:href="#DejaVuSans-55"/>
      <use x="286.279297" xlink:href="#DejaVuSans-56"/>
     </g>
    </g>
    <g id="line2d_65"/>
    <g id="line2d_66"/>
    <g id="text_28">
     <!-- 0.9956 -->
     <g transform="translate(139.138313 60.441094)scale(0.13 -0.13)">
      <use xlink:href="#DejaVuSans-48"/>
      <use x="63.623047" xlink:href="#DejaVuSans-46"/>
      <use x="95.410156" xlink:href="#DejaVuSans-57"/>
      <use x="159.033203" xlink:href="#DejaVuSans-57"/>
      <use x="222.65625" xlink:href="#DejaVuSans-53"/>
      <use x="286.279297" xlink:href="#DejaVuSans-54"/>
     </g>
    </g>
    <g id="line2d_67"/>
    <g id="line2d_68"/>
    <g id="text_29">
     <!-- 0.8649 -->
     <g transform="translate(139.138313 79.522656)scale(0.13 -0.13)">
      <use xlink:href="#DejaVuSans-48"/>
      <use x="63.623047" xlink:href="#DejaVuSans-46"/>
      <use x="95.410156" xlink:href="#DejaVuSans-56"/>
      <use x="159.033203" xlink:href="#DejaVuSans-54"/>
      <use x="222.65625" xlink:href="#DejaVuSans-52"/>
      <use x="286.279297" xlink:href="#DejaVuSans-57"/>
     </g>
    </g>
    <g id="line2d_69"/>
    <g id="line2d_70"/>
    <g id="text_30">
     <!-- 0.9015 -->
     <g transform="translate(139.138313 98.604219)scale(0.13 -0.13)">
      <use xlink:href="#DejaVuSans-48"/>
      <use x="63.623047" xlink:href="#DejaVuSans-46"/>
      <use x="95.410156" xlink:href="#DejaVuSans-57"/>
      <use x="159.033203" xlink:href="#DejaVuSans-48"/>
      <use x="222.65625" xlink:href="#DejaVuSans-49"/>
      <use x="286.279297" xlink:href="#DejaVuSans-53"/>
     </g>
    </g>
    <g id="line2d_71">
     <path d="M 179.144281 17.727969 
L 205.144281 17.727969 
" style="fill:none;stroke:#009988;stroke-dasharray:1.85,0.8;stroke-dashoffset:0;stroke-width:0.5;"/>
    </g>
    <g id="line2d_72">
     <g>
      <use style="fill:#009988;stroke:#009988;stroke-linejoin:miter;" x="192.144281" xlink:href="#ma555136090" y="17.727969"/>
     </g>
    </g>
    <g id="text_31">
     <!-- OOB -->
     <g transform="translate(215.544281 22.277969)scale(0.13 -0.13)">
      <use xlink:href="#DejaVuSans-79"/>
      <use x="78.710938" xlink:href="#DejaVuSans-79"/>
      <use x="157.421875" xlink:href="#DejaVuSans-66"/>
     </g>
    </g>
    <g id="line2d_73"/>
    <g id="line2d_74"/>
    <g id="text_32">
     <!-- 0.9795 -->
     <g transform="translate(215.544281 41.359531)scale(0.13 -0.13)">
      <use xlink:href="#DejaVuSans-48"/>
      <use x="63.623047" xlink:href="#DejaVuSans-46"/>
      <use x="95.410156" xlink:href="#DejaVuSans-57"/>
      <use x="159.033203" xlink:href="#DejaVuSans-55"/>
      <use x="222.65625" xlink:href="#DejaVuSans-57"/>
      <use x="286.279297" xlink:href="#DejaVuSans-53"/>
     </g>
    </g>
    <g id="line2d_75"/>
    <g id="line2d_76"/>
    <g id="text_33">
     <!-- 0.9930 -->
     <g transform="translate(215.544281 60.441094)scale(0.13 -0.13)">
      <defs>
       <path d="M 40.578125 39.3125 
Q 47.65625 37.796875 51.625 33 
Q 55.609375 28.21875 55.609375 21.1875 
Q 55.609375 10.40625 48.1875 4.484375 
Q 40.765625 -1.421875 27.09375 -1.421875 
Q 22.515625 -1.421875 17.65625 -0.515625 
Q 12.796875 0.390625 7.625 2.203125 
L 7.625 11.71875 
Q 11.71875 9.328125 16.59375 8.109375 
Q 21.484375 6.890625 26.8125 6.890625 
Q 36.078125 6.890625 40.9375 10.546875 
Q 45.796875 14.203125 45.796875 21.1875 
Q 45.796875 27.640625 41.28125 31.265625 
Q 36.765625 34.90625 28.71875 34.90625 
L 20.21875 34.90625 
L 20.21875 43.015625 
L 29.109375 43.015625 
Q 36.375 43.015625 40.234375 45.921875 
Q 44.09375 48.828125 44.09375 54.296875 
Q 44.09375 59.90625 40.109375 62.90625 
Q 36.140625 65.921875 28.71875 65.921875 
Q 24.65625 65.921875 20.015625 65.03125 
Q 15.375 64.15625 9.8125 62.3125 
L 9.8125 71.09375 
Q 15.4375 72.65625 20.34375 73.4375 
Q 25.25 74.21875 29.59375 74.21875 
Q 40.828125 74.21875 47.359375 69.109375 
Q 53.90625 64.015625 53.90625 55.328125 
Q 53.90625 49.265625 50.4375 45.09375 
Q 46.96875 40.921875 40.578125 39.3125 
z
" id="DejaVuSans-51"/>
      </defs>
      <use xlink:href="#DejaVuSans-48"/>
      <use x="63.623047" xlink:href="#DejaVuSans-46"/>
      <use x="95.410156" xlink:href="#DejaVuSans-57"/>
      <use x="159.033203" xlink:href="#DejaVuSans-57"/>
      <use x="222.65625" xlink:href="#DejaVuSans-51"/>
      <use x="286.279297" xlink:href="#DejaVuSans-48"/>
     </g>
    </g>
    <g id="line2d_77"/>
    <g id="line2d_78"/>
    <g id="text_34">
     <!-- 0.8401 -->
     <g transform="translate(215.544281 79.522656)scale(0.13 -0.13)">
      <use xlink:href="#DejaVuSans-48"/>
      <use x="63.623047" xlink:href="#DejaVuSans-46"/>
      <use x="95.410156" xlink:href="#DejaVuSans-56"/>
      <use x="159.033203" xlink:href="#DejaVuSans-52"/>
      <use x="222.65625" xlink:href="#DejaVuSans-48"/>
      <use x="286.279297" xlink:href="#DejaVuSans-49"/>
     </g>
    </g>
    <g id="line2d_79"/>
    <g id="line2d_80"/>
    <g id="text_35">
     <!-- 0.8785 -->
     <g transform="translate(215.544281 98.604219)scale(0.13 -0.13)">
      <use xlink:href="#DejaVuSans-48"/>
      <use x="63.623047" xlink:href="#DejaVuSans-46"/>
      <use x="95.410156" xlink:href="#DejaVuSans-56"/>
      <use x="159.033203" xlink:href="#DejaVuSans-55"/>
      <use x="222.65625" xlink:href="#DejaVuSans-56"/>
      <use x="286.279297" xlink:href="#DejaVuSans-53"/>
     </g>
    </g>
    <g id="line2d_81">
     <path d="M 255.55025 17.727969 
L 281.55025 17.727969 
" style="fill:none;stroke:#0077bb;stroke-dasharray:3.2,0.8,0.5,0.8;stroke-dashoffset:0;stroke-width:0.5;"/>
    </g>
    <g id="line2d_82">
     <g>
      <use style="fill:#0077bb;stroke:#0077bb;stroke-linejoin:miter;" x="268.55025" xlink:href="#m616871419d" y="17.727969"/>
     </g>
    </g>
    <g id="text_36">
     <!-- NUOB -->
     <g transform="translate(291.95025 22.277969)scale(0.13 -0.13)">
      <use xlink:href="#DejaVuSans-78"/>
      <use x="74.804688" xlink:href="#DejaVuSans-85"/>
      <use x="147.998047" xlink:href="#DejaVuSans-79"/>
      <use x="226.708984" xlink:href="#DejaVuSans-66"/>
     </g>
    </g>
    <g id="line2d_83"/>
    <g id="line2d_84"/>
    <g id="text_37">
     <!-- 0.9978 -->
     <g transform="translate(291.95025 41.359531)scale(0.13 -0.13)">
      <use xlink:href="#DejaVuSans-48"/>
      <use x="63.623047" xlink:href="#DejaVuSans-46"/>
      <use x="95.410156" xlink:href="#DejaVuSans-57"/>
      <use x="159.033203" xlink:href="#DejaVuSans-57"/>
      <use x="222.65625" xlink:href="#DejaVuSans-55"/>
      <use x="286.279297" xlink:href="#DejaVuSans-56"/>
     </g>
    </g>
    <g id="line2d_85"/>
    <g id="line2d_86"/>
    <g id="text_38">
     <!-- 0.9963 -->
     <g transform="translate(291.95025 60.441094)scale(0.13 -0.13)">
      <use xlink:href="#DejaVuSans-48"/>
      <use x="63.623047" xlink:href="#DejaVuSans-46"/>
      <use x="95.410156" xlink:href="#DejaVuSans-57"/>
      <use x="159.033203" xlink:href="#DejaVuSans-57"/>
      <use x="222.65625" xlink:href="#DejaVuSans-54"/>
      <use x="286.279297" xlink:href="#DejaVuSans-51"/>
     </g>
    </g>
    <g id="line2d_87"/>
    <g id="line2d_88"/>
    <g id="text_39">
     <!-- 0.8737 -->
     <g transform="translate(291.95025 79.522656)scale(0.13 -0.13)">
      <use xlink:href="#DejaVuSans-48"/>
      <use x="63.623047" xlink:href="#DejaVuSans-46"/>
      <use x="95.410156" xlink:href="#DejaVuSans-56"/>
      <use x="159.033203" xlink:href="#DejaVuSans-55"/>
      <use x="222.65625" xlink:href="#DejaVuSans-51"/>
      <use x="286.279297" xlink:href="#DejaVuSans-55"/>
     </g>
    </g>
    <g id="line2d_89"/>
    <g id="line2d_90"/>
    <g id="text_40">
     <!-- 0.9075 -->
     <g transform="translate(291.95025 98.604219)scale(0.13 -0.13)">
      <use xlink:href="#DejaVuSans-48"/>
      <use x="63.623047" xlink:href="#DejaVuSans-46"/>
      <use x="95.410156" xlink:href="#DejaVuSans-57"/>
      <use x="159.033203" xlink:href="#DejaVuSans-48"/>
      <use x="222.65625" xlink:href="#DejaVuSans-55"/>
      <use x="286.279297" xlink:href="#DejaVuSans-53"/>
     </g>
    </g>
    <g id="line2d_91">
     <path d="M 331.956219 17.727969 
L 357.956219 17.727969 
" style="fill:none;stroke:#ee7733;stroke-dasharray:0.5,0.825;stroke-dashoffset:0;stroke-width:0.5;"/>
    </g>
    <g id="line2d_92">
     <g>
      <use style="fill:#ee7733;stroke:#ee7733;stroke-linejoin:bevel;" x="344.956219" xlink:href="#md5b9fe73ee" y="17.727969"/>
     </g>
    </g>
    <g id="text_41">
     <!-- NOOB -->
     <g transform="translate(368.356219 22.277969)scale(0.13 -0.13)">
      <use xlink:href="#DejaVuSans-78"/>
      <use x="74.804688" xlink:href="#DejaVuSans-79"/>
      <use x="153.515625" xlink:href="#DejaVuSans-79"/>
      <use x="232.226562" xlink:href="#DejaVuSans-66"/>
     </g>
    </g>
    <g id="line2d_93"/>
    <g id="line2d_94"/>
    <g id="text_42">
     <!-- 0.9795 -->
     <g transform="translate(368.356219 41.359531)scale(0.13 -0.13)">
      <use xlink:href="#DejaVuSans-48"/>
      <use x="63.623047" xlink:href="#DejaVuSans-46"/>
      <use x="95.410156" xlink:href="#DejaVuSans-57"/>
      <use x="159.033203" xlink:href="#DejaVuSans-55"/>
      <use x="222.65625" xlink:href="#DejaVuSans-57"/>
      <use x="286.279297" xlink:href="#DejaVuSans-53"/>
     </g>
    </g>
    <g id="line2d_95"/>
    <g id="line2d_96"/>
    <g id="text_43">
     <!-- 0.9949 -->
     <g transform="translate(368.356219 60.441094)scale(0.13 -0.13)">
      <use xlink:href="#DejaVuSans-48"/>
      <use x="63.623047" xlink:href="#DejaVuSans-46"/>
      <use x="95.410156" xlink:href="#DejaVuSans-57"/>
      <use x="159.033203" xlink:href="#DejaVuSans-57"/>
      <use x="222.65625" xlink:href="#DejaVuSans-52"/>
      <use x="286.279297" xlink:href="#DejaVuSans-57"/>
     </g>
    </g>
    <g id="line2d_97"/>
    <g id="line2d_98"/>
    <g id="text_44">
     <!-- 0.8569 -->
     <g transform="translate(368.356219 79.522656)scale(0.13 -0.13)">
      <use xlink:href="#DejaVuSans-48"/>
      <use x="63.623047" xlink:href="#DejaVuSans-46"/>
      <use x="95.410156" xlink:href="#DejaVuSans-56"/>
      <use x="159.033203" xlink:href="#DejaVuSans-53"/>
      <use x="222.65625" xlink:href="#DejaVuSans-54"/>
      <use x="286.279297" xlink:href="#DejaVuSans-57"/>
     </g>
    </g>
    <g id="line2d_99"/>
    <g id="line2d_100"/>
    <g id="text_45">
     <!-- 0.9011 -->
     <g transform="translate(368.356219 98.604219)scale(0.13 -0.13)">
      <use xlink:href="#DejaVuSans-48"/>
      <use x="63.623047" xlink:href="#DejaVuSans-46"/>
      <use x="95.410156" xlink:href="#DejaVuSans-57"/>
      <use x="159.033203" xlink:href="#DejaVuSans-48"/>
      <use x="222.65625" xlink:href="#DejaVuSans-49"/>
      <use x="286.279297" xlink:href="#DejaVuSans-49"/>
     </g>
    </g>
    <g id="line2d_101">
     <path d="M 408.362188 17.727969 
L 434.362188 17.727969 
" style="fill:none;stroke:#ee3377;stroke-dasharray:3.2,0.8,0.5,0.8;stroke-dashoffset:0;stroke-width:0.5;"/>
    </g>
    <g id="line2d_102">
     <g>
      <use style="fill:#ee3377;stroke:#ee3377;stroke-linejoin:miter;" x="421.362188" xlink:href="#mc661db7d5c" y="17.727969"/>
     </g>
    </g>
    <g id="text_46">
     <!-- HNOB -->
     <g transform="translate(444.762188 22.277969)scale(0.13 -0.13)">
      <defs>
       <path d="M 9.8125 72.90625 
L 19.671875 72.90625 
L 19.671875 43.015625 
L 55.515625 43.015625 
L 55.515625 72.90625 
L 65.375 72.90625 
L 65.375 0 
L 55.515625 0 
L 55.515625 34.71875 
L 19.671875 34.71875 
L 19.671875 0 
L 9.8125 0 
z
" id="DejaVuSans-72"/>
      </defs>
      <use xlink:href="#DejaVuSans-72"/>
      <use x="75.195312" xlink:href="#DejaVuSans-78"/>
      <use x="150" xlink:href="#DejaVuSans-79"/>
      <use x="228.710938" xlink:href="#DejaVuSans-66"/>
     </g>
    </g>
    <g id="line2d_103"/>
    <g id="line2d_104"/>
    <g id="text_47">
     <!-- 0.9978 -->
     <g transform="translate(444.762188 41.359531)scale(0.13 -0.13)">
      <use xlink:href="#DejaVuSans-48"/>
      <use x="63.623047" xlink:href="#DejaVuSans-46"/>
      <use x="95.410156" xlink:href="#DejaVuSans-57"/>
      <use x="159.033203" xlink:href="#DejaVuSans-57"/>
      <use x="222.65625" xlink:href="#DejaVuSans-55"/>
      <use x="286.279297" xlink:href="#DejaVuSans-56"/>
     </g>
    </g>
    <g id="line2d_105"/>
    <g id="line2d_106"/>
    <g id="text_48">
     <!-- 0.9952 -->
     <g transform="translate(444.762188 60.441094)scale(0.13 -0.13)">
      <use xlink:href="#DejaVuSans-48"/>
      <use x="63.623047" xlink:href="#DejaVuSans-46"/>
      <use x="95.410156" xlink:href="#DejaVuSans-57"/>
      <use x="159.033203" xlink:href="#DejaVuSans-57"/>
      <use x="222.65625" xlink:href="#DejaVuSans-53"/>
      <use x="286.279297" xlink:href="#DejaVuSans-50"/>
     </g>
    </g>
    <g id="line2d_107"/>
    <g id="line2d_108"/>
    <g id="text_49">
     <!-- 0.8725 -->
     <g transform="translate(444.762188 79.522656)scale(0.13 -0.13)">
      <use xlink:href="#DejaVuSans-48"/>
      <use x="63.623047" xlink:href="#DejaVuSans-46"/>
      <use x="95.410156" xlink:href="#DejaVuSans-56"/>
      <use x="159.033203" xlink:href="#DejaVuSans-55"/>
      <use x="222.65625" xlink:href="#DejaVuSans-50"/>
      <use x="286.279297" xlink:href="#DejaVuSans-53"/>
     </g>
    </g>
    <g id="line2d_109"/>
    <g id="line2d_110"/>
    <g id="text_50">
     <!-- 0.9064 -->
     <g transform="translate(444.762188 98.604219)scale(0.13 -0.13)">
      <use xlink:href="#DejaVuSans-48"/>
      <use x="63.623047" xlink:href="#DejaVuSans-46"/>
      <use x="95.410156" xlink:href="#DejaVuSans-57"/>
      <use x="159.033203" xlink:href="#DejaVuSans-48"/>
      <use x="222.65625" xlink:href="#DejaVuSans-54"/>
      <use x="286.279297" xlink:href="#DejaVuSans-52"/>
     </g>
    </g>
   </g>
  </g>
 </g>
 <defs>
  <clipPath id="p9c3b99b4f1">
   <rect height="277.2" width="390.6" x="104.85" y="112.051812"/>
  </clipPath>
 </defs>
</svg>
