<?xml version="1.0" encoding="utf-8" standalone="no"?>
<!DOCTYPE svg PUBLIC "-//W3C//DTD SVG 1.1//EN"
  "http://www.w3.org/Graphics/SVG/1.1/DTD/svg11.dtd">
<!-- Created with matplotlib (https://matplotlib.org/) -->
<svg height="432.614937pt" version="1.1" viewBox="0 0 502.65 432.614937" width="502.65pt" xmlns="http://www.w3.org/2000/svg" xmlns:xlink="http://www.w3.org/1999/xlink">
 <metadata>
  <rdf:RDF xmlns:cc="http://creativecommons.org/ns#" xmlns:dc="http://purl.org/dc/elements/1.1/" xmlns:rdf="http://www.w3.org/1999/02/22-rdf-syntax-ns#">
   <cc:Work>
    <dc:type rdf:resource="http://purl.org/dc/dcmitype/StillImage"/>
    <dc:date>2022-06-16T22:50:28.137651</dc:date>
    <dc:format>image/svg+xml</dc:format>
    <dc:creator>
     <cc:Agent>
      <dc:title>Matplotlib v3.3.3, https://matplotlib.org/</dc:title>
     </cc:Agent>
    </dc:creator>
   </cc:Work>
  </rdf:RDF>
 </metadata>
 <defs>
  <style type="text/css">*{stroke-linecap:butt;stroke-linejoin:round;}</style>
 </defs>
 <g id="figure_1">
  <g id="patch_1">
   <path d="M 0 432.614937 
L 502.65 432.614937 
L 502.65 0 
L 0 0 
z
" style="fill:#ffffff;"/>
  </g>
  <g id="axes_1">
   <g id="patch_2">
    <path d="M 104.85 389.251812 
L 495.45 389.251812 
L 495.45 112.051812 
L 104.85 112.051812 
z
" style="fill:#ffffff;"/>
   </g>
   <g id="patch_3">
    <path clip-path="url(#pc7b18c6e9b)" d="M 297.446262 389.251812 
L 297.446262 112.051812 
L 243.371504 112.051812 
L 243.371504 389.251812 
z
" style="fill:#d3d3d3;opacity:0.5;"/>
   </g>
   <g id="matplotlib.axis_1">
    <g id="xtick_1">
     <g id="line2d_1">
      <defs>
       <path d="M 0 0 
L 0 3.5 
" id="m15b4620474" style="stroke:#000000;stroke-width:0.8;"/>
      </defs>
      <g>
       <use style="stroke:#000000;stroke-width:0.8;" x="117.19707" xlink:href="#m15b4620474" y="389.251812"/>
      </g>
     </g>
     <g id="text_1">
      <!-- 0 -->
      <g transform="translate(113.061445 406.129781)scale(0.13 -0.13)">
       <defs>
        <path d="M 31.78125 66.40625 
Q 24.171875 66.40625 20.328125 58.90625 
Q 16.5 51.421875 16.5 36.375 
Q 16.5 21.390625 20.328125 13.890625 
Q 24.171875 6.390625 31.78125 6.390625 
Q 39.453125 6.390625 43.28125 13.890625 
Q 47.125 21.390625 47.125 36.375 
Q 47.125 51.421875 43.28125 58.90625 
Q 39.453125 66.40625 31.78125 66.40625 
z
M 31.78125 74.21875 
Q 44.046875 74.21875 50.515625 64.515625 
Q 56.984375 54.828125 56.984375 36.375 
Q 56.984375 17.96875 50.515625 8.265625 
Q 44.046875 -1.421875 31.78125 -1.421875 
Q 19.53125 -1.421875 13.0625 8.265625 
Q 6.59375 17.96875 6.59375 36.375 
Q 6.59375 54.828125 13.0625 64.515625 
Q 19.53125 74.21875 31.78125 74.21875 
z
" id="DejaVuSans-48"/>
       </defs>
       <use xlink:href="#DejaVuSans-48"/>
      </g>
     </g>
    </g>
    <g id="xtick_2">
     <g id="line2d_2">
      <g>
       <use style="stroke:#000000;stroke-width:0.8;" x="162.259368" xlink:href="#m15b4620474" y="389.251812"/>
      </g>
     </g>
     <g id="text_2">
      <!-- 25 -->
      <g transform="translate(153.988118 406.129781)scale(0.13 -0.13)">
       <defs>
        <path d="M 19.1875 8.296875 
L 53.609375 8.296875 
L 53.609375 0 
L 7.328125 0 
L 7.328125 8.296875 
Q 12.9375 14.109375 22.625 23.890625 
Q 32.328125 33.6875 34.8125 36.53125 
Q 39.546875 41.84375 41.421875 45.53125 
Q 43.3125 49.21875 43.3125 52.78125 
Q 43.3125 58.59375 39.234375 62.25 
Q 35.15625 65.921875 28.609375 65.921875 
Q 23.96875 65.921875 18.8125 64.3125 
Q 13.671875 62.703125 7.8125 59.421875 
L 7.8125 69.390625 
Q 13.765625 71.78125 18.9375 73 
Q 24.125 74.21875 28.421875 74.21875 
Q 39.75 74.21875 46.484375 68.546875 
Q 53.21875 62.890625 53.21875 53.421875 
Q 53.21875 48.921875 51.53125 44.890625 
Q 49.859375 40.875 45.40625 35.40625 
Q 44.1875 33.984375 37.640625 27.21875 
Q 31.109375 20.453125 19.1875 8.296875 
z
" id="DejaVuSans-50"/>
        <path d="M 10.796875 72.90625 
L 49.515625 72.90625 
L 49.515625 64.59375 
L 19.828125 64.59375 
L 19.828125 46.734375 
Q 21.96875 47.46875 24.109375 47.828125 
Q 26.265625 48.1875 28.421875 48.1875 
Q 40.625 48.1875 47.75 41.5 
Q 54.890625 34.8125 54.890625 23.390625 
Q 54.890625 11.625 47.5625 5.09375 
Q 40.234375 -1.421875 26.90625 -1.421875 
Q 22.3125 -1.421875 17.546875 -0.640625 
Q 12.796875 0.140625 7.71875 1.703125 
L 7.71875 11.625 
Q 12.109375 9.234375 16.796875 8.0625 
Q 21.484375 6.890625 26.703125 6.890625 
Q 35.15625 6.890625 40.078125 11.328125 
Q 45.015625 15.765625 45.015625 23.390625 
Q 45.015625 31 40.078125 35.4375 
Q 35.15625 39.890625 26.703125 39.890625 
Q 22.75 39.890625 18.8125 39.015625 
Q 14.890625 38.140625 10.796875 36.28125 
z
" id="DejaVuSans-53"/>
       </defs>
       <use xlink:href="#DejaVuSans-50"/>
       <use x="63.623047" xlink:href="#DejaVuSans-53"/>
      </g>
     </g>
    </g>
    <g id="xtick_3">
     <g id="line2d_3">
      <g>
       <use style="stroke:#000000;stroke-width:0.8;" x="207.321666" xlink:href="#m15b4620474" y="389.251812"/>
      </g>
     </g>
     <g id="text_3">
      <!-- 50 -->
      <g transform="translate(199.050416 406.129781)scale(0.13 -0.13)">
       <use xlink:href="#DejaVuSans-53"/>
       <use x="63.623047" xlink:href="#DejaVuSans-48"/>
      </g>
     </g>
    </g>
    <g id="xtick_4">
     <g id="line2d_4">
      <g>
       <use style="stroke:#000000;stroke-width:0.8;" x="252.383964" xlink:href="#m15b4620474" y="389.251812"/>
      </g>
     </g>
     <g id="text_4">
      <!-- 75 -->
      <g transform="translate(244.112714 406.129781)scale(0.13 -0.13)">
       <defs>
        <path d="M 8.203125 72.90625 
L 55.078125 72.90625 
L 55.078125 68.703125 
L 28.609375 0 
L 18.3125 0 
L 43.21875 64.59375 
L 8.203125 64.59375 
z
" id="DejaVuSans-55"/>
       </defs>
       <use xlink:href="#DejaVuSans-55"/>
       <use x="63.623047" xlink:href="#DejaVuSans-53"/>
      </g>
     </g>
    </g>
    <g id="xtick_5">
     <g id="line2d_5">
      <g>
       <use style="stroke:#000000;stroke-width:0.8;" x="297.446262" xlink:href="#m15b4620474" y="389.251812"/>
      </g>
     </g>
     <g id="text_5">
      <!-- 100 -->
      <g transform="translate(285.039387 406.129781)scale(0.13 -0.13)">
       <defs>
        <path d="M 12.40625 8.296875 
L 28.515625 8.296875 
L 28.515625 63.921875 
L 10.984375 60.40625 
L 10.984375 69.390625 
L 28.421875 72.90625 
L 38.28125 72.90625 
L 38.28125 8.296875 
L 54.390625 8.296875 
L 54.390625 0 
L 12.40625 0 
z
" id="DejaVuSans-49"/>
       </defs>
       <use xlink:href="#DejaVuSans-49"/>
       <use x="63.623047" xlink:href="#DejaVuSans-48"/>
       <use x="127.246094" xlink:href="#DejaVuSans-48"/>
      </g>
     </g>
    </g>
    <g id="xtick_6">
     <g id="line2d_6">
      <g>
       <use style="stroke:#000000;stroke-width:0.8;" x="342.50856" xlink:href="#m15b4620474" y="389.251812"/>
      </g>
     </g>
     <g id="text_6">
      <!-- 125 -->
      <g transform="translate(330.101685 406.129781)scale(0.13 -0.13)">
       <use xlink:href="#DejaVuSans-49"/>
       <use x="63.623047" xlink:href="#DejaVuSans-50"/>
       <use x="127.246094" xlink:href="#DejaVuSans-53"/>
      </g>
     </g>
    </g>
    <g id="xtick_7">
     <g id="line2d_7">
      <g>
       <use style="stroke:#000000;stroke-width:0.8;" x="387.570858" xlink:href="#m15b4620474" y="389.251812"/>
      </g>
     </g>
     <g id="text_7">
      <!-- 150 -->
      <g transform="translate(375.163983 406.129781)scale(0.13 -0.13)">
       <use xlink:href="#DejaVuSans-49"/>
       <use x="63.623047" xlink:href="#DejaVuSans-53"/>
       <use x="127.246094" xlink:href="#DejaVuSans-48"/>
      </g>
     </g>
    </g>
    <g id="xtick_8">
     <g id="line2d_8">
      <g>
       <use style="stroke:#000000;stroke-width:0.8;" x="432.633156" xlink:href="#m15b4620474" y="389.251812"/>
      </g>
     </g>
     <g id="text_8">
      <!-- 175 -->
      <g transform="translate(420.226281 406.129781)scale(0.13 -0.13)">
       <use xlink:href="#DejaVuSans-49"/>
       <use x="63.623047" xlink:href="#DejaVuSans-55"/>
       <use x="127.246094" xlink:href="#DejaVuSans-53"/>
      </g>
     </g>
    </g>
    <g id="xtick_9">
     <g id="line2d_9">
      <g>
       <use style="stroke:#000000;stroke-width:0.8;" x="477.695455" xlink:href="#m15b4620474" y="389.251812"/>
      </g>
     </g>
     <g id="text_9">
      <!-- 200 -->
      <g transform="translate(465.28858 406.129781)scale(0.13 -0.13)">
       <use xlink:href="#DejaVuSans-50"/>
       <use x="63.623047" xlink:href="#DejaVuSans-48"/>
       <use x="127.246094" xlink:href="#DejaVuSans-48"/>
      </g>
     </g>
    </g>
    <g id="text_10">
     <!-- Number of processed instances [x1000] -->
     <g transform="translate(170.025078 422.711344)scale(0.13 -0.13)">
      <defs>
       <path d="M 9.8125 72.90625 
L 23.09375 72.90625 
L 55.421875 11.921875 
L 55.421875 72.90625 
L 64.984375 72.90625 
L 64.984375 0 
L 51.703125 0 
L 19.390625 60.984375 
L 19.390625 0 
L 9.8125 0 
z
" id="DejaVuSans-78"/>
       <path d="M 8.5 21.578125 
L 8.5 54.6875 
L 17.484375 54.6875 
L 17.484375 21.921875 
Q 17.484375 14.15625 20.5 10.265625 
Q 23.53125 6.390625 29.59375 6.390625 
Q 36.859375 6.390625 41.078125 11.03125 
Q 45.3125 15.671875 45.3125 23.6875 
L 45.3125 54.6875 
L 54.296875 54.6875 
L 54.296875 0 
L 45.3125 0 
L 45.3125 8.40625 
Q 42.046875 3.421875 37.71875 1 
Q 33.40625 -1.421875 27.6875 -1.421875 
Q 18.265625 -1.421875 13.375 4.4375 
Q 8.5 10.296875 8.5 21.578125 
z
M 31.109375 56 
z
" id="DejaVuSans-117"/>
       <path d="M 52 44.1875 
Q 55.375 50.25 60.0625 53.125 
Q 64.75 56 71.09375 56 
Q 79.640625 56 84.28125 50.015625 
Q 88.921875 44.046875 88.921875 33.015625 
L 88.921875 0 
L 79.890625 0 
L 79.890625 32.71875 
Q 79.890625 40.578125 77.09375 44.375 
Q 74.3125 48.1875 68.609375 48.1875 
Q 61.625 48.1875 57.5625 43.546875 
Q 53.515625 38.921875 53.515625 30.90625 
L 53.515625 0 
L 44.484375 0 
L 44.484375 32.71875 
Q 44.484375 40.625 41.703125 44.40625 
Q 38.921875 48.1875 33.109375 48.1875 
Q 26.21875 48.1875 22.15625 43.53125 
Q 18.109375 38.875 18.109375 30.90625 
L 18.109375 0 
L 9.078125 0 
L 9.078125 54.6875 
L 18.109375 54.6875 
L 18.109375 46.1875 
Q 21.1875 51.21875 25.484375 53.609375 
Q 29.78125 56 35.6875 56 
Q 41.65625 56 45.828125 52.96875 
Q 50 49.953125 52 44.1875 
z
" id="DejaVuSans-109"/>
       <path d="M 48.6875 27.296875 
Q 48.6875 37.203125 44.609375 42.84375 
Q 40.53125 48.484375 33.40625 48.484375 
Q 26.265625 48.484375 22.1875 42.84375 
Q 18.109375 37.203125 18.109375 27.296875 
Q 18.109375 17.390625 22.1875 11.75 
Q 26.265625 6.109375 33.40625 6.109375 
Q 40.53125 6.109375 44.609375 11.75 
Q 48.6875 17.390625 48.6875 27.296875 
z
M 18.109375 46.390625 
Q 20.953125 51.265625 25.265625 53.625 
Q 29.59375 56 35.59375 56 
Q 45.5625 56 51.78125 48.09375 
Q 58.015625 40.1875 58.015625 27.296875 
Q 58.015625 14.40625 51.78125 6.484375 
Q 45.5625 -1.421875 35.59375 -1.421875 
Q 29.59375 -1.421875 25.265625 0.953125 
Q 20.953125 3.328125 18.109375 8.203125 
L 18.109375 0 
L 9.078125 0 
L 9.078125 75.984375 
L 18.109375 75.984375 
z
" id="DejaVuSans-98"/>
       <path d="M 56.203125 29.59375 
L 56.203125 25.203125 
L 14.890625 25.203125 
Q 15.484375 15.921875 20.484375 11.0625 
Q 25.484375 6.203125 34.421875 6.203125 
Q 39.59375 6.203125 44.453125 7.46875 
Q 49.3125 8.734375 54.109375 11.28125 
L 54.109375 2.78125 
Q 49.265625 0.734375 44.1875 -0.34375 
Q 39.109375 -1.421875 33.890625 -1.421875 
Q 20.796875 -1.421875 13.15625 6.1875 
Q 5.515625 13.8125 5.515625 26.8125 
Q 5.515625 40.234375 12.765625 48.109375 
Q 20.015625 56 32.328125 56 
Q 43.359375 56 49.78125 48.890625 
Q 56.203125 41.796875 56.203125 29.59375 
z
M 47.21875 32.234375 
Q 47.125 39.59375 43.09375 43.984375 
Q 39.0625 48.390625 32.421875 48.390625 
Q 24.90625 48.390625 20.390625 44.140625 
Q 15.875 39.890625 15.1875 32.171875 
z
" id="DejaVuSans-101"/>
       <path d="M 41.109375 46.296875 
Q 39.59375 47.171875 37.8125 47.578125 
Q 36.03125 48 33.890625 48 
Q 26.265625 48 22.1875 43.046875 
Q 18.109375 38.09375 18.109375 28.8125 
L 18.109375 0 
L 9.078125 0 
L 9.078125 54.6875 
L 18.109375 54.6875 
L 18.109375 46.1875 
Q 20.953125 51.171875 25.484375 53.578125 
Q 30.03125 56 36.53125 56 
Q 37.453125 56 38.578125 55.875 
Q 39.703125 55.765625 41.0625 55.515625 
z
" id="DejaVuSans-114"/>
       <path id="DejaVuSans-32"/>
       <path d="M 30.609375 48.390625 
Q 23.390625 48.390625 19.1875 42.75 
Q 14.984375 37.109375 14.984375 27.296875 
Q 14.984375 17.484375 19.15625 11.84375 
Q 23.34375 6.203125 30.609375 6.203125 
Q 37.796875 6.203125 41.984375 11.859375 
Q 46.1875 17.53125 46.1875 27.296875 
Q 46.1875 37.015625 41.984375 42.703125 
Q 37.796875 48.390625 30.609375 48.390625 
z
M 30.609375 56 
Q 42.328125 56 49.015625 48.375 
Q 55.71875 40.765625 55.71875 27.296875 
Q 55.71875 13.875 49.015625 6.21875 
Q 42.328125 -1.421875 30.609375 -1.421875 
Q 18.84375 -1.421875 12.171875 6.21875 
Q 5.515625 13.875 5.515625 27.296875 
Q 5.515625 40.765625 12.171875 48.375 
Q 18.84375 56 30.609375 56 
z
" id="DejaVuSans-111"/>
       <path d="M 37.109375 75.984375 
L 37.109375 68.5 
L 28.515625 68.5 
Q 23.6875 68.5 21.796875 66.546875 
Q 19.921875 64.59375 19.921875 59.515625 
L 19.921875 54.6875 
L 34.71875 54.6875 
L 34.71875 47.703125 
L 19.921875 47.703125 
L 19.921875 0 
L 10.890625 0 
L 10.890625 47.703125 
L 2.296875 47.703125 
L 2.296875 54.6875 
L 10.890625 54.6875 
L 10.890625 58.5 
Q 10.890625 67.625 15.140625 71.796875 
Q 19.390625 75.984375 28.609375 75.984375 
z
" id="DejaVuSans-102"/>
       <path d="M 18.109375 8.203125 
L 18.109375 -20.796875 
L 9.078125 -20.796875 
L 9.078125 54.6875 
L 18.109375 54.6875 
L 18.109375 46.390625 
Q 20.953125 51.265625 25.265625 53.625 
Q 29.59375 56 35.59375 56 
Q 45.5625 56 51.78125 48.09375 
Q 58.015625 40.1875 58.015625 27.296875 
Q 58.015625 14.40625 51.78125 6.484375 
Q 45.5625 -1.421875 35.59375 -1.421875 
Q 29.59375 -1.421875 25.265625 0.953125 
Q 20.953125 3.328125 18.109375 8.203125 
z
M 48.6875 27.296875 
Q 48.6875 37.203125 44.609375 42.84375 
Q 40.53125 48.484375 33.40625 48.484375 
Q 26.265625 48.484375 22.1875 42.84375 
Q 18.109375 37.203125 18.109375 27.296875 
Q 18.109375 17.390625 22.1875 11.75 
Q 26.265625 6.109375 33.40625 6.109375 
Q 40.53125 6.109375 44.609375 11.75 
Q 48.6875 17.390625 48.6875 27.296875 
z
" id="DejaVuSans-112"/>
       <path d="M 48.78125 52.59375 
L 48.78125 44.1875 
Q 44.96875 46.296875 41.140625 47.34375 
Q 37.3125 48.390625 33.40625 48.390625 
Q 24.65625 48.390625 19.8125 42.84375 
Q 14.984375 37.3125 14.984375 27.296875 
Q 14.984375 17.28125 19.8125 11.734375 
Q 24.65625 6.203125 33.40625 6.203125 
Q 37.3125 6.203125 41.140625 7.25 
Q 44.96875 8.296875 48.78125 10.40625 
L 48.78125 2.09375 
Q 45.015625 0.34375 40.984375 -0.53125 
Q 36.96875 -1.421875 32.421875 -1.421875 
Q 20.0625 -1.421875 12.78125 6.34375 
Q 5.515625 14.109375 5.515625 27.296875 
Q 5.515625 40.671875 12.859375 48.328125 
Q 20.21875 56 33.015625 56 
Q 37.15625 56 41.109375 55.140625 
Q 45.0625 54.296875 48.78125 52.59375 
z
" id="DejaVuSans-99"/>
       <path d="M 44.28125 53.078125 
L 44.28125 44.578125 
Q 40.484375 46.53125 36.375 47.5 
Q 32.28125 48.484375 27.875 48.484375 
Q 21.1875 48.484375 17.84375 46.4375 
Q 14.5 44.390625 14.5 40.28125 
Q 14.5 37.15625 16.890625 35.375 
Q 19.28125 33.59375 26.515625 31.984375 
L 29.59375 31.296875 
Q 39.15625 29.25 43.1875 25.515625 
Q 47.21875 21.78125 47.21875 15.09375 
Q 47.21875 7.46875 41.1875 3.015625 
Q 35.15625 -1.421875 24.609375 -1.421875 
Q 20.21875 -1.421875 15.453125 -0.5625 
Q 10.6875 0.296875 5.421875 2 
L 5.421875 11.28125 
Q 10.40625 8.6875 15.234375 7.390625 
Q 20.0625 6.109375 24.8125 6.109375 
Q 31.15625 6.109375 34.5625 8.28125 
Q 37.984375 10.453125 37.984375 14.40625 
Q 37.984375 18.0625 35.515625 20.015625 
Q 33.0625 21.96875 24.703125 23.78125 
L 21.578125 24.515625 
Q 13.234375 26.265625 9.515625 29.90625 
Q 5.8125 33.546875 5.8125 39.890625 
Q 5.8125 47.609375 11.28125 51.796875 
Q 16.75 56 26.8125 56 
Q 31.78125 56 36.171875 55.265625 
Q 40.578125 54.546875 44.28125 53.078125 
z
" id="DejaVuSans-115"/>
       <path d="M 45.40625 46.390625 
L 45.40625 75.984375 
L 54.390625 75.984375 
L 54.390625 0 
L 45.40625 0 
L 45.40625 8.203125 
Q 42.578125 3.328125 38.25 0.953125 
Q 33.9375 -1.421875 27.875 -1.421875 
Q 17.96875 -1.421875 11.734375 6.484375 
Q 5.515625 14.40625 5.515625 27.296875 
Q 5.515625 40.1875 11.734375 48.09375 
Q 17.96875 56 27.875 56 
Q 33.9375 56 38.25 53.625 
Q 42.578125 51.265625 45.40625 46.390625 
z
M 14.796875 27.296875 
Q 14.796875 17.390625 18.875 11.75 
Q 22.953125 6.109375 30.078125 6.109375 
Q 37.203125 6.109375 41.296875 11.75 
Q 45.40625 17.390625 45.40625 27.296875 
Q 45.40625 37.203125 41.296875 42.84375 
Q 37.203125 48.484375 30.078125 48.484375 
Q 22.953125 48.484375 18.875 42.84375 
Q 14.796875 37.203125 14.796875 27.296875 
z
" id="DejaVuSans-100"/>
       <path d="M 9.421875 54.6875 
L 18.40625 54.6875 
L 18.40625 0 
L 9.421875 0 
z
M 9.421875 75.984375 
L 18.40625 75.984375 
L 18.40625 64.59375 
L 9.421875 64.59375 
z
" id="DejaVuSans-105"/>
       <path d="M 54.890625 33.015625 
L 54.890625 0 
L 45.90625 0 
L 45.90625 32.71875 
Q 45.90625 40.484375 42.875 44.328125 
Q 39.84375 48.1875 33.796875 48.1875 
Q 26.515625 48.1875 22.3125 43.546875 
Q 18.109375 38.921875 18.109375 30.90625 
L 18.109375 0 
L 9.078125 0 
L 9.078125 54.6875 
L 18.109375 54.6875 
L 18.109375 46.1875 
Q 21.34375 51.125 25.703125 53.5625 
Q 30.078125 56 35.796875 56 
Q 45.21875 56 50.046875 50.171875 
Q 54.890625 44.34375 54.890625 33.015625 
z
" id="DejaVuSans-110"/>
       <path d="M 18.3125 70.21875 
L 18.3125 54.6875 
L 36.8125 54.6875 
L 36.8125 47.703125 
L 18.3125 47.703125 
L 18.3125 18.015625 
Q 18.3125 11.328125 20.140625 9.421875 
Q 21.96875 7.515625 27.59375 7.515625 
L 36.8125 7.515625 
L 36.8125 0 
L 27.59375 0 
Q 17.1875 0 13.234375 3.875 
Q 9.28125 7.765625 9.28125 18.015625 
L 9.28125 47.703125 
L 2.6875 47.703125 
L 2.6875 54.6875 
L 9.28125 54.6875 
L 9.28125 70.21875 
z
" id="DejaVuSans-116"/>
       <path d="M 34.28125 27.484375 
Q 23.390625 27.484375 19.1875 25 
Q 14.984375 22.515625 14.984375 16.5 
Q 14.984375 11.71875 18.140625 8.90625 
Q 21.296875 6.109375 26.703125 6.109375 
Q 34.1875 6.109375 38.703125 11.40625 
Q 43.21875 16.703125 43.21875 25.484375 
L 43.21875 27.484375 
z
M 52.203125 31.203125 
L 52.203125 0 
L 43.21875 0 
L 43.21875 8.296875 
Q 40.140625 3.328125 35.546875 0.953125 
Q 30.953125 -1.421875 24.3125 -1.421875 
Q 15.921875 -1.421875 10.953125 3.296875 
Q 6 8.015625 6 15.921875 
Q 6 25.140625 12.171875 29.828125 
Q 18.359375 34.515625 30.609375 34.515625 
L 43.21875 34.515625 
L 43.21875 35.40625 
Q 43.21875 41.609375 39.140625 45 
Q 35.0625 48.390625 27.6875 48.390625 
Q 23 48.390625 18.546875 47.265625 
Q 14.109375 46.140625 10.015625 43.890625 
L 10.015625 52.203125 
Q 14.9375 54.109375 19.578125 55.046875 
Q 24.21875 56 28.609375 56 
Q 40.484375 56 46.34375 49.84375 
Q 52.203125 43.703125 52.203125 31.203125 
z
" id="DejaVuSans-97"/>
       <path d="M 8.59375 75.984375 
L 29.296875 75.984375 
L 29.296875 69 
L 17.578125 69 
L 17.578125 -6.203125 
L 29.296875 -6.203125 
L 29.296875 -13.1875 
L 8.59375 -13.1875 
z
" id="DejaVuSans-91"/>
       <path d="M 54.890625 54.6875 
L 35.109375 28.078125 
L 55.90625 0 
L 45.3125 0 
L 29.390625 21.484375 
L 13.484375 0 
L 2.875 0 
L 24.125 28.609375 
L 4.6875 54.6875 
L 15.28125 54.6875 
L 29.78125 35.203125 
L 44.28125 54.6875 
z
" id="DejaVuSans-120"/>
       <path d="M 30.421875 75.984375 
L 30.421875 -13.1875 
L 9.71875 -13.1875 
L 9.71875 -6.203125 
L 21.390625 -6.203125 
L 21.390625 69 
L 9.71875 69 
L 9.71875 75.984375 
z
" id="DejaVuSans-93"/>
      </defs>
      <use xlink:href="#DejaVuSans-78"/>
      <use x="74.804688" xlink:href="#DejaVuSans-117"/>
      <use x="138.183594" xlink:href="#DejaVuSans-109"/>
      <use x="235.595703" xlink:href="#DejaVuSans-98"/>
      <use x="299.072266" xlink:href="#DejaVuSans-101"/>
      <use x="360.595703" xlink:href="#DejaVuSans-114"/>
      <use x="401.708984" xlink:href="#DejaVuSans-32"/>
      <use x="433.496094" xlink:href="#DejaVuSans-111"/>
      <use x="494.677734" xlink:href="#DejaVuSans-102"/>
      <use x="529.882812" xlink:href="#DejaVuSans-32"/>
      <use x="561.669922" xlink:href="#DejaVuSans-112"/>
      <use x="625.146484" xlink:href="#DejaVuSans-114"/>
      <use x="664.009766" xlink:href="#DejaVuSans-111"/>
      <use x="725.191406" xlink:href="#DejaVuSans-99"/>
      <use x="780.171875" xlink:href="#DejaVuSans-101"/>
      <use x="841.695312" xlink:href="#DejaVuSans-115"/>
      <use x="893.794922" xlink:href="#DejaVuSans-115"/>
      <use x="945.894531" xlink:href="#DejaVuSans-101"/>
      <use x="1007.417969" xlink:href="#DejaVuSans-100"/>
      <use x="1070.894531" xlink:href="#DejaVuSans-32"/>
      <use x="1102.681641" xlink:href="#DejaVuSans-105"/>
      <use x="1130.464844" xlink:href="#DejaVuSans-110"/>
      <use x="1193.84375" xlink:href="#DejaVuSans-115"/>
      <use x="1245.943359" xlink:href="#DejaVuSans-116"/>
      <use x="1285.152344" xlink:href="#DejaVuSans-97"/>
      <use x="1346.431641" xlink:href="#DejaVuSans-110"/>
      <use x="1409.810547" xlink:href="#DejaVuSans-99"/>
      <use x="1464.791016" xlink:href="#DejaVuSans-101"/>
      <use x="1526.314453" xlink:href="#DejaVuSans-115"/>
      <use x="1578.414062" xlink:href="#DejaVuSans-32"/>
      <use x="1610.201172" xlink:href="#DejaVuSans-91"/>
      <use x="1649.214844" xlink:href="#DejaVuSans-120"/>
      <use x="1708.394531" xlink:href="#DejaVuSans-49"/>
      <use x="1772.017578" xlink:href="#DejaVuSans-48"/>
      <use x="1835.640625" xlink:href="#DejaVuSans-48"/>
      <use x="1899.263672" xlink:href="#DejaVuSans-48"/>
      <use x="1962.886719" xlink:href="#DejaVuSans-93"/>
     </g>
    </g>
   </g>
   <g id="matplotlib.axis_2">
    <g id="ytick_1">
     <g id="line2d_10">
      <defs>
       <path d="M 0 0 
L -3.5 0 
" id="m699b7cdbb2" style="stroke:#000000;stroke-width:0.8;"/>
      </defs>
      <g>
       <use style="stroke:#000000;stroke-width:0.8;" x="104.85" xlink:href="#m699b7cdbb2" y="376.651813"/>
      </g>
     </g>
     <g id="text_11">
      <!-- 0.0 -->
      <g transform="translate(77.175937 381.590797)scale(0.13 -0.13)">
       <defs>
        <path d="M 10.6875 12.40625 
L 21 12.40625 
L 21 0 
L 10.6875 0 
z
" id="DejaVuSans-46"/>
       </defs>
       <use xlink:href="#DejaVuSans-48"/>
       <use x="63.623047" xlink:href="#DejaVuSans-46"/>
       <use x="95.410156" xlink:href="#DejaVuSans-48"/>
      </g>
     </g>
    </g>
    <g id="ytick_2">
     <g id="line2d_11">
      <g>
       <use style="stroke:#000000;stroke-width:0.8;" x="104.85" xlink:href="#m699b7cdbb2" y="351.451813"/>
      </g>
     </g>
     <g id="text_12">
      <!-- 0.1 -->
      <g transform="translate(77.175937 356.390797)scale(0.13 -0.13)">
       <use xlink:href="#DejaVuSans-48"/>
       <use x="63.623047" xlink:href="#DejaVuSans-46"/>
       <use x="95.410156" xlink:href="#DejaVuSans-49"/>
      </g>
     </g>
    </g>
    <g id="ytick_3">
     <g id="line2d_12">
      <g>
       <use style="stroke:#000000;stroke-width:0.8;" x="104.85" xlink:href="#m699b7cdbb2" y="326.251813"/>
      </g>
     </g>
     <g id="text_13">
      <!-- 0.2 -->
      <g transform="translate(77.175937 331.190797)scale(0.13 -0.13)">
       <use xlink:href="#DejaVuSans-48"/>
       <use x="63.623047" xlink:href="#DejaVuSans-46"/>
       <use x="95.410156" xlink:href="#DejaVuSans-50"/>
      </g>
     </g>
    </g>
    <g id="ytick_4">
     <g id="line2d_13">
      <g>
       <use style="stroke:#000000;stroke-width:0.8;" x="104.85" xlink:href="#m699b7cdbb2" y="301.051812"/>
      </g>
     </g>
     <g id="text_14">
      <!-- 0.3 -->
      <g transform="translate(77.175937 305.990797)scale(0.13 -0.13)">
       <defs>
        <path d="M 40.578125 39.3125 
Q 47.65625 37.796875 51.625 33 
Q 55.609375 28.21875 55.609375 21.1875 
Q 55.609375 10.40625 48.1875 4.484375 
Q 40.765625 -1.421875 27.09375 -1.421875 
Q 22.515625 -1.421875 17.65625 -0.515625 
Q 12.796875 0.390625 7.625 2.203125 
L 7.625 11.71875 
Q 11.71875 9.328125 16.59375 8.109375 
Q 21.484375 6.890625 26.8125 6.890625 
Q 36.078125 6.890625 40.9375 10.546875 
Q 45.796875 14.203125 45.796875 21.1875 
Q 45.796875 27.640625 41.28125 31.265625 
Q 36.765625 34.90625 28.71875 34.90625 
L 20.21875 34.90625 
L 20.21875 43.015625 
L 29.109375 43.015625 
Q 36.375 43.015625 40.234375 45.921875 
Q 44.09375 48.828125 44.09375 54.296875 
Q 44.09375 59.90625 40.109375 62.90625 
Q 36.140625 65.921875 28.71875 65.921875 
Q 24.65625 65.921875 20.015625 65.03125 
Q 15.375 64.15625 9.8125 62.3125 
L 9.8125 71.09375 
Q 15.4375 72.65625 20.34375 73.4375 
Q 25.25 74.21875 29.59375 74.21875 
Q 40.828125 74.21875 47.359375 69.109375 
Q 53.90625 64.015625 53.90625 55.328125 
Q 53.90625 49.265625 50.4375 45.09375 
Q 46.96875 40.921875 40.578125 39.3125 
z
" id="DejaVuSans-51"/>
       </defs>
       <use xlink:href="#DejaVuSans-48"/>
       <use x="63.623047" xlink:href="#DejaVuSans-46"/>
       <use x="95.410156" xlink:href="#DejaVuSans-51"/>
      </g>
     </g>
    </g>
    <g id="ytick_5">
     <g id="line2d_14">
      <g>
       <use style="stroke:#000000;stroke-width:0.8;" x="104.85" xlink:href="#m699b7cdbb2" y="275.851812"/>
      </g>
     </g>
     <g id="text_15">
      <!-- 0.4 -->
      <g transform="translate(77.175937 280.790797)scale(0.13 -0.13)">
       <defs>
        <path d="M 37.796875 64.3125 
L 12.890625 25.390625 
L 37.796875 25.390625 
z
M 35.203125 72.90625 
L 47.609375 72.90625 
L 47.609375 25.390625 
L 58.015625 25.390625 
L 58.015625 17.1875 
L 47.609375 17.1875 
L 47.609375 0 
L 37.796875 0 
L 37.796875 17.1875 
L 4.890625 17.1875 
L 4.890625 26.703125 
z
" id="DejaVuSans-52"/>
       </defs>
       <use xlink:href="#DejaVuSans-48"/>
       <use x="63.623047" xlink:href="#DejaVuSans-46"/>
       <use x="95.410156" xlink:href="#DejaVuSans-52"/>
      </g>
     </g>
    </g>
    <g id="ytick_6">
     <g id="line2d_15">
      <g>
       <use style="stroke:#000000;stroke-width:0.8;" x="104.85" xlink:href="#m699b7cdbb2" y="250.651813"/>
      </g>
     </g>
     <g id="text_16">
      <!-- 0.5 -->
      <g transform="translate(77.175937 255.590797)scale(0.13 -0.13)">
       <use xlink:href="#DejaVuSans-48"/>
       <use x="63.623047" xlink:href="#DejaVuSans-46"/>
       <use x="95.410156" xlink:href="#DejaVuSans-53"/>
      </g>
     </g>
    </g>
    <g id="ytick_7">
     <g id="line2d_16">
      <g>
       <use style="stroke:#000000;stroke-width:0.8;" x="104.85" xlink:href="#m699b7cdbb2" y="225.451812"/>
      </g>
     </g>
     <g id="text_17">
      <!-- 0.6 -->
      <g transform="translate(77.175937 230.390797)scale(0.13 -0.13)">
       <defs>
        <path d="M 33.015625 40.375 
Q 26.375 40.375 22.484375 35.828125 
Q 18.609375 31.296875 18.609375 23.390625 
Q 18.609375 15.53125 22.484375 10.953125 
Q 26.375 6.390625 33.015625 6.390625 
Q 39.65625 6.390625 43.53125 10.953125 
Q 47.40625 15.53125 47.40625 23.390625 
Q 47.40625 31.296875 43.53125 35.828125 
Q 39.65625 40.375 33.015625 40.375 
z
M 52.59375 71.296875 
L 52.59375 62.3125 
Q 48.875 64.0625 45.09375 64.984375 
Q 41.3125 65.921875 37.59375 65.921875 
Q 27.828125 65.921875 22.671875 59.328125 
Q 17.53125 52.734375 16.796875 39.40625 
Q 19.671875 43.65625 24.015625 45.921875 
Q 28.375 48.1875 33.59375 48.1875 
Q 44.578125 48.1875 50.953125 41.515625 
Q 57.328125 34.859375 57.328125 23.390625 
Q 57.328125 12.15625 50.6875 5.359375 
Q 44.046875 -1.421875 33.015625 -1.421875 
Q 20.359375 -1.421875 13.671875 8.265625 
Q 6.984375 17.96875 6.984375 36.375 
Q 6.984375 53.65625 15.1875 63.9375 
Q 23.390625 74.21875 37.203125 74.21875 
Q 40.921875 74.21875 44.703125 73.484375 
Q 48.484375 72.75 52.59375 71.296875 
z
" id="DejaVuSans-54"/>
       </defs>
       <use xlink:href="#DejaVuSans-48"/>
       <use x="63.623047" xlink:href="#DejaVuSans-46"/>
       <use x="95.410156" xlink:href="#DejaVuSans-54"/>
      </g>
     </g>
    </g>
    <g id="ytick_8">
     <g id="line2d_17">
      <g>
       <use style="stroke:#000000;stroke-width:0.8;" x="104.85" xlink:href="#m699b7cdbb2" y="200.251812"/>
      </g>
     </g>
     <g id="text_18">
      <!-- 0.7 -->
      <g transform="translate(77.175937 205.190797)scale(0.13 -0.13)">
       <use xlink:href="#DejaVuSans-48"/>
       <use x="63.623047" xlink:href="#DejaVuSans-46"/>
       <use x="95.410156" xlink:href="#DejaVuSans-55"/>
      </g>
     </g>
    </g>
    <g id="ytick_9">
     <g id="line2d_18">
      <g>
       <use style="stroke:#000000;stroke-width:0.8;" x="104.85" xlink:href="#m699b7cdbb2" y="175.051813"/>
      </g>
     </g>
     <g id="text_19">
      <!-- 0.8 -->
      <g transform="translate(77.175937 179.990797)scale(0.13 -0.13)">
       <defs>
        <path d="M 31.78125 34.625 
Q 24.75 34.625 20.71875 30.859375 
Q 16.703125 27.09375 16.703125 20.515625 
Q 16.703125 13.921875 20.71875 10.15625 
Q 24.75 6.390625 31.78125 6.390625 
Q 38.8125 6.390625 42.859375 10.171875 
Q 46.921875 13.96875 46.921875 20.515625 
Q 46.921875 27.09375 42.890625 30.859375 
Q 38.875 34.625 31.78125 34.625 
z
M 21.921875 38.8125 
Q 15.578125 40.375 12.03125 44.71875 
Q 8.5 49.078125 8.5 55.328125 
Q 8.5 64.0625 14.71875 69.140625 
Q 20.953125 74.21875 31.78125 74.21875 
Q 42.671875 74.21875 48.875 69.140625 
Q 55.078125 64.0625 55.078125 55.328125 
Q 55.078125 49.078125 51.53125 44.71875 
Q 48 40.375 41.703125 38.8125 
Q 48.828125 37.15625 52.796875 32.3125 
Q 56.78125 27.484375 56.78125 20.515625 
Q 56.78125 9.90625 50.3125 4.234375 
Q 43.84375 -1.421875 31.78125 -1.421875 
Q 19.734375 -1.421875 13.25 4.234375 
Q 6.78125 9.90625 6.78125 20.515625 
Q 6.78125 27.484375 10.78125 32.3125 
Q 14.796875 37.15625 21.921875 38.8125 
z
M 18.3125 54.390625 
Q 18.3125 48.734375 21.84375 45.5625 
Q 25.390625 42.390625 31.78125 42.390625 
Q 38.140625 42.390625 41.71875 45.5625 
Q 45.3125 48.734375 45.3125 54.390625 
Q 45.3125 60.0625 41.71875 63.234375 
Q 38.140625 66.40625 31.78125 66.40625 
Q 25.390625 66.40625 21.84375 63.234375 
Q 18.3125 60.0625 18.3125 54.390625 
z
" id="DejaVuSans-56"/>
       </defs>
       <use xlink:href="#DejaVuSans-48"/>
       <use x="63.623047" xlink:href="#DejaVuSans-46"/>
       <use x="95.410156" xlink:href="#DejaVuSans-56"/>
      </g>
     </g>
    </g>
    <g id="ytick_10">
     <g id="line2d_19">
      <g>
       <use style="stroke:#000000;stroke-width:0.8;" x="104.85" xlink:href="#m699b7cdbb2" y="149.851813"/>
      </g>
     </g>
     <g id="text_20">
      <!-- 0.9 -->
      <g transform="translate(77.175937 154.790797)scale(0.13 -0.13)">
       <defs>
        <path d="M 10.984375 1.515625 
L 10.984375 10.5 
Q 14.703125 8.734375 18.5 7.8125 
Q 22.3125 6.890625 25.984375 6.890625 
Q 35.75 6.890625 40.890625 13.453125 
Q 46.046875 20.015625 46.78125 33.40625 
Q 43.953125 29.203125 39.59375 26.953125 
Q 35.25 24.703125 29.984375 24.703125 
Q 19.046875 24.703125 12.671875 31.3125 
Q 6.296875 37.9375 6.296875 49.421875 
Q 6.296875 60.640625 12.9375 67.421875 
Q 19.578125 74.21875 30.609375 74.21875 
Q 43.265625 74.21875 49.921875 64.515625 
Q 56.59375 54.828125 56.59375 36.375 
Q 56.59375 19.140625 48.40625 8.859375 
Q 40.234375 -1.421875 26.421875 -1.421875 
Q 22.703125 -1.421875 18.890625 -0.6875 
Q 15.09375 0.046875 10.984375 1.515625 
z
M 30.609375 32.421875 
Q 37.25 32.421875 41.125 36.953125 
Q 45.015625 41.5 45.015625 49.421875 
Q 45.015625 57.28125 41.125 61.84375 
Q 37.25 66.40625 30.609375 66.40625 
Q 23.96875 66.40625 20.09375 61.84375 
Q 16.21875 57.28125 16.21875 49.421875 
Q 16.21875 41.5 20.09375 36.953125 
Q 23.96875 32.421875 30.609375 32.421875 
z
" id="DejaVuSans-57"/>
       </defs>
       <use xlink:href="#DejaVuSans-48"/>
       <use x="63.623047" xlink:href="#DejaVuSans-46"/>
       <use x="95.410156" xlink:href="#DejaVuSans-57"/>
      </g>
     </g>
    </g>
    <g id="ytick_11">
     <g id="line2d_20">
      <g>
       <use style="stroke:#000000;stroke-width:0.8;" x="104.85" xlink:href="#m699b7cdbb2" y="124.651813"/>
      </g>
     </g>
     <g id="text_21">
      <!-- 1.0 -->
      <g transform="translate(77.175937 129.590797)scale(0.13 -0.13)">
       <use xlink:href="#DejaVuSans-49"/>
       <use x="63.623047" xlink:href="#DejaVuSans-46"/>
       <use x="95.410156" xlink:href="#DejaVuSans-48"/>
      </g>
     </g>
    </g>
    <g id="text_22">
     <!-- G-Mean -->
     <g transform="translate(70.472344 275.743844)rotate(-90)scale(0.13 -0.13)">
      <defs>
       <path d="M 59.515625 10.40625 
L 59.515625 29.984375 
L 43.40625 29.984375 
L 43.40625 38.09375 
L 69.28125 38.09375 
L 69.28125 6.78125 
Q 63.578125 2.734375 56.6875 0.65625 
Q 49.8125 -1.421875 42 -1.421875 
Q 24.90625 -1.421875 15.25 8.5625 
Q 5.609375 18.5625 5.609375 36.375 
Q 5.609375 54.25 15.25 64.234375 
Q 24.90625 74.21875 42 74.21875 
Q 49.125 74.21875 55.546875 72.453125 
Q 61.96875 70.703125 67.390625 67.28125 
L 67.390625 56.78125 
Q 61.921875 61.421875 55.765625 63.765625 
Q 49.609375 66.109375 42.828125 66.109375 
Q 29.4375 66.109375 22.71875 58.640625 
Q 16.015625 51.171875 16.015625 36.375 
Q 16.015625 21.625 22.71875 14.15625 
Q 29.4375 6.6875 42.828125 6.6875 
Q 48.046875 6.6875 52.140625 7.59375 
Q 56.25 8.5 59.515625 10.40625 
z
" id="DejaVuSans-71"/>
       <path d="M 4.890625 31.390625 
L 31.203125 31.390625 
L 31.203125 23.390625 
L 4.890625 23.390625 
z
" id="DejaVuSans-45"/>
       <path d="M 9.8125 72.90625 
L 24.515625 72.90625 
L 43.109375 23.296875 
L 61.8125 72.90625 
L 76.515625 72.90625 
L 76.515625 0 
L 66.890625 0 
L 66.890625 64.015625 
L 48.09375 14.015625 
L 38.1875 14.015625 
L 19.390625 64.015625 
L 19.390625 0 
L 9.8125 0 
z
" id="DejaVuSans-77"/>
      </defs>
      <use xlink:href="#DejaVuSans-71"/>
      <use x="77.490234" xlink:href="#DejaVuSans-45"/>
      <use x="113.574219" xlink:href="#DejaVuSans-77"/>
      <use x="199.853516" xlink:href="#DejaVuSans-101"/>
      <use x="261.376953" xlink:href="#DejaVuSans-97"/>
      <use x="322.65625" xlink:href="#DejaVuSans-110"/>
     </g>
    </g>
   </g>
   <g id="line2d_21"/>
   <g id="line2d_22"/>
   <g id="line2d_23"/>
   <g id="line2d_24"/>
   <g id="line2d_25"/>
   <g id="line2d_26">
    <path clip-path="url(#pc7b18c6e9b)" d="M 122.604545 125.216836 
L 124.407037 125.909764 
L 126.209529 125.537545 
L 128.012021 125.741789 
L 129.814513 125.523794 
L 133.419497 125.393273 
L 137.024481 125.399829 
L 140.629465 125.754622 
L 144.234449 125.606456 
L 147.839432 125.606113 
L 153.246908 125.584326 
L 158.654384 125.741595 
L 167.666844 125.7307 
L 169.469335 125.884652 
L 180.284287 125.848651 
L 191.099239 125.824103 
L 192.901731 125.709331 
L 194.704222 125.773139 
L 196.506714 125.720881 
L 203.716682 125.926497 
L 205.519174 125.814977 
L 214.531634 125.94301 
L 216.334126 126.09451 
L 219.939109 126.007208 
L 230.754061 125.914691 
L 245.173996 125.61721 
L 246.976488 125.73512 
L 248.77898 125.672593 
L 250.581472 125.788848 
L 252.383964 126.171796 
L 255.988948 126.758859 
L 261.396424 127.516655 
L 263.198916 127.720672 
L 266.803899 128.51241 
L 270.408883 129.402692 
L 272.211375 130.158529 
L 274.013867 130.410125 
L 275.816359 131.385475 
L 277.618851 131.661884 
L 279.421343 132.355018 
L 283.026327 133.034675 
L 284.828819 134.301256 
L 288.433802 135.459898 
L 290.236294 135.366006 
L 292.038786 136.091765 
L 293.841278 135.939359 
L 295.64377 136.147626 
L 297.446262 136.798139 
L 299.248754 137.262607 
L 301.051246 137.567758 
L 302.853738 137.272738 
L 306.458722 138.186999 
L 308.261214 137.552003 
L 310.063706 137.836731 
L 311.866198 137.007861 
L 313.668689 137.358575 
L 315.471181 136.81842 
L 317.273673 136.567154 
L 319.076165 137.340779 
L 320.878657 136.136408 
L 322.681149 137.020163 
L 324.483641 136.060165 
L 326.286133 136.072284 
L 328.088625 135.160866 
L 329.891117 135.698272 
L 331.693609 135.9096 
L 333.496101 135.758652 
L 335.298593 135.752467 
L 337.101084 135.216045 
L 338.903576 135.151657 
L 340.706068 134.346952 
L 342.50856 134.248008 
L 344.311052 134.889122 
L 346.113544 134.508794 
L 347.916036 134.930909 
L 349.718528 134.747112 
L 353.323512 134.765887 
L 355.126004 133.682039 
L 356.928496 134.244294 
L 358.730988 133.892895 
L 365.940955 133.832879 
L 369.545939 132.78111 
L 371.348431 132.296815 
L 373.150923 133.399471 
L 376.755907 134.397662 
L 378.558399 133.734913 
L 380.360891 134.486755 
L 382.163383 135.503621 
L 383.965874 135.061409 
L 385.768366 134.748011 
L 387.570858 135.652191 
L 391.175842 135.613276 
L 392.978334 136.687383 
L 394.780826 137.500527 
L 398.38581 137.508007 
L 400.188302 138.499666 
L 405.595778 138.410167 
L 407.398269 139.185747 
L 409.200761 139.801088 
L 412.805745 138.893902 
L 414.608237 139.479076 
L 416.410729 138.085982 
L 418.213221 136.947468 
L 420.015713 137.383423 
L 421.818205 138.161216 
L 423.620697 137.264009 
L 425.423189 137.825284 
L 427.225681 137.792965 
L 429.028173 136.221004 
L 430.830665 134.316527 
L 432.633156 135.897593 
L 434.435648 135.916284 
L 436.23814 135.066141 
L 441.645616 134.983048 
L 443.448108 134.148815 
L 445.2506 132.52172 
L 447.053092 132.565685 
L 448.855584 132.931512 
L 450.658076 132.423768 
L 454.26306 132.519657 
L 456.065551 132.122297 
L 457.868043 131.345392 
L 459.670535 131.376221 
L 461.473027 130.866121 
L 463.275519 130.982728 
L 465.078011 131.505138 
L 466.880503 132.647499 
L 468.682995 131.774125 
L 472.287979 131.750086 
L 474.090471 131.384063 
L 477.695455 132.638211 
L 477.695455 132.638211 
" style="fill:none;stroke:#cc3311;stroke-linecap:square;stroke-width:0.5;"/>
    <defs>
     <path d="M 0 2.5 
C 0.663008 2.5 1.29895 2.236584 1.767767 1.767767 
C 2.236584 1.29895 2.5 0.663008 2.5 0 
C 2.5 -0.663008 2.236584 -1.29895 1.767767 -1.767767 
C 1.29895 -2.236584 0.663008 -2.5 0 -2.5 
C -0.663008 -2.5 -1.29895 -2.236584 -1.767767 -1.767767 
C -2.236584 -1.29895 -2.5 -0.663008 -2.5 0 
C -2.5 0.663008 -2.236584 1.29895 -1.767767 1.767767 
C -1.29895 2.236584 -0.663008 2.5 0 2.5 
z
" id="m120b6bcc76" style="stroke:#cc3311;"/>
    </defs>
    <g clip-path="url(#pc7b18c6e9b)">
     <use style="fill:#cc3311;stroke:#cc3311;" x="122.604545" xlink:href="#m120b6bcc76" y="125.216836"/>
     <use style="fill:#cc3311;stroke:#cc3311;" x="140.629465" xlink:href="#m120b6bcc76" y="125.754622"/>
     <use style="fill:#cc3311;stroke:#cc3311;" x="158.654384" xlink:href="#m120b6bcc76" y="125.741595"/>
     <use style="fill:#cc3311;stroke:#cc3311;" x="176.679303" xlink:href="#m120b6bcc76" y="125.806627"/>
     <use style="fill:#cc3311;stroke:#cc3311;" x="194.704222" xlink:href="#m120b6bcc76" y="125.773139"/>
     <use style="fill:#cc3311;stroke:#cc3311;" x="212.729142" xlink:href="#m120b6bcc76" y="125.950315"/>
     <use style="fill:#cc3311;stroke:#cc3311;" x="230.754061" xlink:href="#m120b6bcc76" y="125.914691"/>
     <use style="fill:#cc3311;stroke:#cc3311;" x="248.77898" xlink:href="#m120b6bcc76" y="125.672593"/>
     <use style="fill:#cc3311;stroke:#cc3311;" x="266.803899" xlink:href="#m120b6bcc76" y="128.51241"/>
     <use style="fill:#cc3311;stroke:#cc3311;" x="284.828819" xlink:href="#m120b6bcc76" y="134.301256"/>
     <use style="fill:#cc3311;stroke:#cc3311;" x="302.853738" xlink:href="#m120b6bcc76" y="137.272738"/>
     <use style="fill:#cc3311;stroke:#cc3311;" x="320.878657" xlink:href="#m120b6bcc76" y="136.136408"/>
     <use style="fill:#cc3311;stroke:#cc3311;" x="338.903576" xlink:href="#m120b6bcc76" y="135.151657"/>
     <use style="fill:#cc3311;stroke:#cc3311;" x="356.928496" xlink:href="#m120b6bcc76" y="134.244294"/>
     <use style="fill:#cc3311;stroke:#cc3311;" x="374.953415" xlink:href="#m120b6bcc76" y="133.87285"/>
     <use style="fill:#cc3311;stroke:#cc3311;" x="392.978334" xlink:href="#m120b6bcc76" y="136.687383"/>
     <use style="fill:#cc3311;stroke:#cc3311;" x="411.003253" xlink:href="#m120b6bcc76" y="139.373487"/>
     <use style="fill:#cc3311;stroke:#cc3311;" x="429.028173" xlink:href="#m120b6bcc76" y="136.221004"/>
     <use style="fill:#cc3311;stroke:#cc3311;" x="447.053092" xlink:href="#m120b6bcc76" y="132.565685"/>
     <use style="fill:#cc3311;stroke:#cc3311;" x="465.078011" xlink:href="#m120b6bcc76" y="131.505138"/>
    </g>
   </g>
   <g id="line2d_27"/>
   <g id="line2d_28"/>
   <g id="line2d_29"/>
   <g id="line2d_30"/>
   <g id="line2d_31">
    <path clip-path="url(#pc7b18c6e9b)" d="M 122.604545 129.822611 
L 124.407037 131.272168 
L 126.209529 130.240266 
L 128.012021 129.700335 
L 129.814513 129.005294 
L 135.221989 127.743735 
L 138.826973 127.63607 
L 140.629465 127.59841 
L 142.431957 127.364428 
L 146.03694 127.209212 
L 147.839432 127.252205 
L 149.641924 127.134034 
L 153.246908 127.404049 
L 158.654384 127.147922 
L 162.259368 126.989839 
L 164.06186 126.919565 
L 165.864352 127.007368 
L 167.666844 126.935758 
L 171.271827 127.058708 
L 176.679303 127.148669 
L 185.691763 127.230229 
L 191.099239 126.782884 
L 194.704222 126.736557 
L 198.309206 126.386928 
L 201.91419 126.545402 
L 207.321666 126.623804 
L 212.729142 126.623609 
L 214.531634 126.679374 
L 216.334126 126.889608 
L 218.136617 126.675689 
L 221.741601 126.617794 
L 223.544093 126.577503 
L 228.951569 126.708662 
L 234.359045 126.789616 
L 237.964029 126.463665 
L 241.569012 126.294325 
L 245.173996 126.496787 
L 246.976488 126.441016 
L 248.77898 126.258103 
L 250.581472 126.318358 
L 265.001407 128.99946 
L 268.606391 130.104758 
L 270.408883 130.383222 
L 272.211375 131.561408 
L 274.013867 131.83725 
L 275.816359 133.294988 
L 277.618851 133.625431 
L 279.421343 134.346539 
L 281.223835 135.493261 
L 284.828819 138.176081 
L 290.236294 139.738294 
L 292.038786 140.761883 
L 293.841278 141.113804 
L 295.64377 142.025135 
L 297.446262 143.123331 
L 299.248754 143.836151 
L 301.051246 143.976675 
L 302.853738 143.38325 
L 304.65623 144.516087 
L 306.458722 146.268418 
L 308.261214 146.423427 
L 310.063706 147.6219 
L 311.866198 147.196186 
L 313.668689 147.912077 
L 315.471181 149.186891 
L 317.273673 147.922697 
L 319.076165 148.20528 
L 320.878657 148.119086 
L 324.483641 150.753434 
L 326.286133 149.930346 
L 328.088625 148.518867 
L 329.891117 148.763448 
L 331.693609 148.150713 
L 333.496101 147.26234 
L 335.298593 148.457309 
L 337.101084 148.425726 
L 338.903576 149.514957 
L 340.706068 148.647042 
L 342.50856 147.137869 
L 346.113544 146.803088 
L 347.916036 147.105673 
L 349.718528 146.792484 
L 351.52102 145.78202 
L 353.323512 147.710973 
L 355.126004 146.548839 
L 356.928496 145.811482 
L 358.730988 144.948349 
L 360.533479 142.616578 
L 362.335971 143.396764 
L 367.743447 143.292323 
L 369.545939 143.896034 
L 371.348431 142.683562 
L 373.150923 143.243832 
L 374.953415 143.063423 
L 376.755907 143.93136 
L 380.360891 144.476271 
L 382.163383 144.215636 
L 383.965874 144.567553 
L 385.768366 145.715559 
L 387.570858 145.535012 
L 389.37335 143.580578 
L 391.175842 145.686925 
L 392.978334 146.787485 
L 394.780826 147.628997 
L 396.583318 150.196755 
L 398.38581 149.384265 
L 400.188302 152.472398 
L 401.990794 153.560681 
L 403.793286 153.592142 
L 405.595778 152.390398 
L 407.398269 152.99071 
L 409.200761 154.518448 
L 411.003253 154.194643 
L 412.805745 153.233638 
L 414.608237 152.868282 
L 416.410729 152.862611 
L 418.213221 153.246842 
L 420.015713 152.8892 
L 421.818205 152.962857 
L 423.620697 153.36956 
L 425.423189 155.055969 
L 429.028173 151.837003 
L 430.830665 150.711613 
L 432.633156 150.306066 
L 434.435648 151.239243 
L 436.23814 148.151097 
L 439.843124 148.063763 
L 441.645616 148.063814 
L 443.448108 146.373654 
L 445.2506 145.301877 
L 447.053092 144.723147 
L 448.855584 146.020596 
L 450.658076 145.435038 
L 452.460568 144.017866 
L 454.26306 144.017866 
L 456.065551 143.531403 
L 457.868043 141.508707 
L 459.670535 140.174631 
L 461.473027 140.453401 
L 463.275519 139.381646 
L 465.078011 141.227262 
L 468.682995 141.668981 
L 470.485487 141.247843 
L 472.287979 143.57448 
L 474.090471 142.806789 
L 477.695455 144.154157 
L 477.695455 144.154157 
" style="fill:none;stroke:#009988;stroke-dasharray:1.85,0.8;stroke-dashoffset:0;stroke-width:0.5;"/>
    <defs>
     <path d="M -2.5 2.5 
L 2.5 2.5 
L 2.5 -2.5 
L -2.5 -2.5 
z
" id="m54b1796fac" style="stroke:#009988;stroke-linejoin:miter;"/>
    </defs>
    <g clip-path="url(#pc7b18c6e9b)">
     <use style="fill:#009988;stroke:#009988;stroke-linejoin:miter;" x="122.604545" xlink:href="#m54b1796fac" y="129.822611"/>
     <use style="fill:#009988;stroke:#009988;stroke-linejoin:miter;" x="140.629465" xlink:href="#m54b1796fac" y="127.59841"/>
     <use style="fill:#009988;stroke:#009988;stroke-linejoin:miter;" x="158.654384" xlink:href="#m54b1796fac" y="127.147922"/>
     <use style="fill:#009988;stroke:#009988;stroke-linejoin:miter;" x="176.679303" xlink:href="#m54b1796fac" y="127.148669"/>
     <use style="fill:#009988;stroke:#009988;stroke-linejoin:miter;" x="194.704222" xlink:href="#m54b1796fac" y="126.736557"/>
     <use style="fill:#009988;stroke:#009988;stroke-linejoin:miter;" x="212.729142" xlink:href="#m54b1796fac" y="126.623609"/>
     <use style="fill:#009988;stroke:#009988;stroke-linejoin:miter;" x="230.754061" xlink:href="#m54b1796fac" y="126.718539"/>
     <use style="fill:#009988;stroke:#009988;stroke-linejoin:miter;" x="248.77898" xlink:href="#m54b1796fac" y="126.258103"/>
     <use style="fill:#009988;stroke:#009988;stroke-linejoin:miter;" x="266.803899" xlink:href="#m54b1796fac" y="129.544014"/>
     <use style="fill:#009988;stroke:#009988;stroke-linejoin:miter;" x="284.828819" xlink:href="#m54b1796fac" y="138.176081"/>
     <use style="fill:#009988;stroke:#009988;stroke-linejoin:miter;" x="302.853738" xlink:href="#m54b1796fac" y="143.38325"/>
     <use style="fill:#009988;stroke:#009988;stroke-linejoin:miter;" x="320.878657" xlink:href="#m54b1796fac" y="148.119086"/>
     <use style="fill:#009988;stroke:#009988;stroke-linejoin:miter;" x="338.903576" xlink:href="#m54b1796fac" y="149.514957"/>
     <use style="fill:#009988;stroke:#009988;stroke-linejoin:miter;" x="356.928496" xlink:href="#m54b1796fac" y="145.811482"/>
     <use style="fill:#009988;stroke:#009988;stroke-linejoin:miter;" x="374.953415" xlink:href="#m54b1796fac" y="143.063423"/>
     <use style="fill:#009988;stroke:#009988;stroke-linejoin:miter;" x="392.978334" xlink:href="#m54b1796fac" y="146.787485"/>
     <use style="fill:#009988;stroke:#009988;stroke-linejoin:miter;" x="411.003253" xlink:href="#m54b1796fac" y="154.194643"/>
     <use style="fill:#009988;stroke:#009988;stroke-linejoin:miter;" x="429.028173" xlink:href="#m54b1796fac" y="151.837003"/>
     <use style="fill:#009988;stroke:#009988;stroke-linejoin:miter;" x="447.053092" xlink:href="#m54b1796fac" y="144.723147"/>
     <use style="fill:#009988;stroke:#009988;stroke-linejoin:miter;" x="465.078011" xlink:href="#m54b1796fac" y="141.227262"/>
    </g>
   </g>
   <g id="line2d_32"/>
   <g id="line2d_33"/>
   <g id="line2d_34"/>
   <g id="line2d_35"/>
   <g id="line2d_36">
    <path clip-path="url(#pc7b18c6e9b)" d="M 122.604545 125.216836 
L 124.407037 125.909764 
L 126.209529 125.58467 
L 128.012021 125.777133 
L 129.814513 125.552069 
L 133.419497 125.413469 
L 137.024481 125.415537 
L 140.629465 125.767474 
L 144.234449 125.617331 
L 147.839432 125.615538 
L 153.246908 125.533357 
L 160.456876 125.713789 
L 171.271827 125.792738 
L 173.074319 125.845423 
L 176.679303 125.691458 
L 185.691763 125.788303 
L 205.519174 125.625161 
L 209.124158 125.594148 
L 214.531634 125.667878 
L 216.334126 125.819477 
L 221.741601 125.724901 
L 227.149077 125.683232 
L 245.173996 125.610556 
L 246.976488 125.665407 
L 248.77898 125.588888 
L 250.581472 125.70504 
L 252.383964 126.107696 
L 257.79144 126.899823 
L 259.593932 127.23807 
L 263.198916 127.594089 
L 268.606391 128.972495 
L 274.013867 130.173968 
L 275.816359 131.192084 
L 277.618851 131.539489 
L 279.421343 132.238396 
L 281.223835 132.598971 
L 283.026327 132.831481 
L 284.828819 133.936206 
L 288.433802 134.657083 
L 290.236294 134.575877 
L 292.038786 135.387236 
L 293.841278 135.293365 
L 295.64377 135.545459 
L 297.446262 136.26803 
L 299.248754 136.733805 
L 301.051246 136.962816 
L 302.853738 136.629643 
L 304.65623 137.277179 
L 306.458722 137.718377 
L 308.261214 137.382562 
L 310.063706 137.654499 
L 311.866198 136.801687 
L 313.668689 136.623556 
L 315.471181 136.122437 
L 317.273673 135.890328 
L 319.076165 136.835253 
L 320.878657 135.799144 
L 322.681149 136.901325 
L 324.483641 136.157287 
L 326.286133 136.149735 
L 328.088625 135.245691 
L 329.891117 135.743279 
L 331.693609 135.947024 
L 333.496101 135.222619 
L 337.101084 134.069828 
L 338.903576 133.985898 
L 340.706068 133.139457 
L 342.50856 133.016143 
L 344.311052 133.554426 
L 346.113544 133.20618 
L 349.718528 133.155447 
L 353.323512 133.096568 
L 355.126004 131.976201 
L 356.928496 132.519792 
L 358.730988 131.405567 
L 365.940955 131.301533 
L 367.743447 130.704122 
L 371.348431 130.86572 
L 374.953415 131.861319 
L 376.755907 132.38588 
L 378.558399 131.722534 
L 380.360891 132.030422 
L 382.163383 133.009665 
L 383.965874 132.969656 
L 385.768366 133.045537 
L 387.570858 133.961602 
L 391.175842 133.967771 
L 392.978334 135.081898 
L 394.780826 135.658785 
L 396.583318 135.730338 
L 398.38581 135.679274 
L 400.188302 136.675519 
L 405.595778 136.622473 
L 407.398269 137.441181 
L 409.200761 137.725637 
L 412.805745 136.870205 
L 414.608237 137.468238 
L 416.410729 136.556988 
L 418.213221 135.44951 
L 420.015713 135.891395 
L 421.818205 137.061107 
L 423.620697 136.177969 
L 425.423189 136.726121 
L 427.225681 136.687275 
L 429.028173 135.100446 
L 430.830665 134.203538 
L 432.633156 135.776351 
L 434.435648 135.788599 
L 436.23814 134.934051 
L 438.040632 134.440578 
L 439.843124 134.363209 
L 441.645616 134.409112 
L 445.2506 132.803453 
L 447.053092 132.840899 
L 448.855584 133.18089 
L 450.658076 132.699064 
L 454.26306 132.788557 
L 456.065551 132.365974 
L 457.868043 131.177767 
L 459.670535 131.176198 
L 461.473027 130.705126 
L 463.275519 130.802529 
L 465.078011 131.355145 
L 466.880503 132.50124 
L 468.682995 131.622757 
L 470.485487 131.682059 
L 472.287979 131.611688 
L 474.090471 131.714861 
L 477.695455 132.904111 
L 477.695455 132.904111 
" style="fill:none;stroke:#0077bb;stroke-dasharray:3.2,0.8,0.5,0.8;stroke-dashoffset:0;stroke-width:0.5;"/>
    <defs>
     <path d="M 0 -2.5 
L -2.5 2.5 
L 2.5 2.5 
z
" id="mef1b356b16" style="stroke:#0077bb;stroke-linejoin:miter;"/>
    </defs>
    <g clip-path="url(#pc7b18c6e9b)">
     <use style="fill:#0077bb;stroke:#0077bb;stroke-linejoin:miter;" x="122.604545" xlink:href="#mef1b356b16" y="125.216836"/>
     <use style="fill:#0077bb;stroke:#0077bb;stroke-linejoin:miter;" x="140.629465" xlink:href="#mef1b356b16" y="125.767474"/>
     <use style="fill:#0077bb;stroke:#0077bb;stroke-linejoin:miter;" x="158.654384" xlink:href="#mef1b356b16" y="125.716641"/>
     <use style="fill:#0077bb;stroke:#0077bb;stroke-linejoin:miter;" x="176.679303" xlink:href="#mef1b356b16" y="125.691458"/>
     <use style="fill:#0077bb;stroke:#0077bb;stroke-linejoin:miter;" x="194.704222" xlink:href="#mef1b356b16" y="125.670489"/>
     <use style="fill:#0077bb;stroke:#0077bb;stroke-linejoin:miter;" x="212.729142" xlink:href="#mef1b356b16" y="125.668161"/>
     <use style="fill:#0077bb;stroke:#0077bb;stroke-linejoin:miter;" x="230.754061" xlink:href="#mef1b356b16" y="125.599065"/>
     <use style="fill:#0077bb;stroke:#0077bb;stroke-linejoin:miter;" x="248.77898" xlink:href="#mef1b356b16" y="125.588888"/>
     <use style="fill:#0077bb;stroke:#0077bb;stroke-linejoin:miter;" x="266.803899" xlink:href="#mef1b356b16" y="128.633714"/>
     <use style="fill:#0077bb;stroke:#0077bb;stroke-linejoin:miter;" x="284.828819" xlink:href="#mef1b356b16" y="133.936206"/>
     <use style="fill:#0077bb;stroke:#0077bb;stroke-linejoin:miter;" x="302.853738" xlink:href="#mef1b356b16" y="136.629643"/>
     <use style="fill:#0077bb;stroke:#0077bb;stroke-linejoin:miter;" x="320.878657" xlink:href="#mef1b356b16" y="135.799144"/>
     <use style="fill:#0077bb;stroke:#0077bb;stroke-linejoin:miter;" x="338.903576" xlink:href="#mef1b356b16" y="133.985898"/>
     <use style="fill:#0077bb;stroke:#0077bb;stroke-linejoin:miter;" x="356.928496" xlink:href="#mef1b356b16" y="132.519792"/>
     <use style="fill:#0077bb;stroke:#0077bb;stroke-linejoin:miter;" x="374.953415" xlink:href="#mef1b356b16" y="131.861319"/>
     <use style="fill:#0077bb;stroke:#0077bb;stroke-linejoin:miter;" x="392.978334" xlink:href="#mef1b356b16" y="135.081898"/>
     <use style="fill:#0077bb;stroke:#0077bb;stroke-linejoin:miter;" x="411.003253" xlink:href="#mef1b356b16" y="137.330127"/>
     <use style="fill:#0077bb;stroke:#0077bb;stroke-linejoin:miter;" x="429.028173" xlink:href="#mef1b356b16" y="135.100446"/>
     <use style="fill:#0077bb;stroke:#0077bb;stroke-linejoin:miter;" x="447.053092" xlink:href="#mef1b356b16" y="132.840899"/>
     <use style="fill:#0077bb;stroke:#0077bb;stroke-linejoin:miter;" x="465.078011" xlink:href="#mef1b356b16" y="131.355145"/>
    </g>
   </g>
   <g id="line2d_37"/>
   <g id="line2d_38"/>
   <g id="line2d_39"/>
   <g id="line2d_40"/>
   <g id="line2d_41">
    <path clip-path="url(#pc7b18c6e9b)" d="M 122.604545 129.822611 
L 124.407037 129.765812 
L 126.209529 128.544725 
L 128.012021 128.533621 
L 129.814513 127.812553 
L 131.617005 127.856931 
L 135.221989 127.530604 
L 137.024481 127.587767 
L 138.826973 127.511709 
L 140.629465 127.54994 
L 142.431957 127.366328 
L 146.03694 127.270717 
L 149.641924 127.426181 
L 156.851892 127.585646 
L 158.654384 127.361923 
L 162.259368 127.292998 
L 164.06186 127.201735 
L 165.864352 127.295373 
L 167.666844 127.137953 
L 169.469335 127.221098 
L 173.074319 127.068283 
L 178.481795 127.220109 
L 180.284287 127.158307 
L 182.086779 127.231293 
L 185.691763 126.964069 
L 187.494255 126.921575 
L 191.099239 126.565996 
L 196.506714 126.320223 
L 200.111698 126.400867 
L 209.124158 126.201382 
L 212.729142 125.980946 
L 214.531634 125.886086 
L 216.334126 125.944979 
L 218.136617 125.805141 
L 230.754061 125.809011 
L 248.77898 126.078239 
L 250.581472 126.201412 
L 252.383964 126.726523 
L 261.396424 127.951555 
L 265.001407 128.792479 
L 268.606391 129.991303 
L 270.408883 130.370082 
L 272.211375 131.398335 
L 274.013867 131.62734 
L 275.816359 132.840319 
L 277.618851 133.227059 
L 279.421343 133.954267 
L 281.223835 134.541763 
L 283.026327 135.842322 
L 284.828819 136.353481 
L 286.631311 136.738086 
L 288.433802 137.462859 
L 290.236294 137.590259 
L 292.038786 138.82882 
L 293.841278 138.875093 
L 299.248754 140.796068 
L 301.051246 141.024647 
L 302.853738 140.514425 
L 304.65623 140.793066 
L 306.458722 142.150204 
L 308.261214 141.620824 
L 310.063706 142.372201 
L 311.866198 141.751184 
L 313.668689 141.971305 
L 315.471181 141.817741 
L 317.273673 141.234518 
L 319.076165 141.707872 
L 320.878657 141.207302 
L 322.681149 141.718058 
L 324.483641 140.541135 
L 326.286133 140.279451 
L 328.088625 138.809928 
L 329.891117 139.753469 
L 331.693609 140.208688 
L 333.496101 139.483534 
L 335.298593 139.489413 
L 337.101084 138.897452 
L 338.903576 138.794648 
L 340.706068 137.993863 
L 342.50856 136.963263 
L 344.311052 137.746327 
L 346.113544 136.740876 
L 347.916036 137.563982 
L 349.718528 137.795618 
L 353.323512 137.810781 
L 355.126004 136.138149 
L 356.928496 136.70229 
L 358.730988 136.811137 
L 362.335971 136.700456 
L 365.940955 136.596208 
L 367.743447 135.255372 
L 369.545939 135.848063 
L 371.348431 135.292366 
L 373.150923 136.342634 
L 374.953415 137.259026 
L 376.755907 138.888489 
L 380.360891 139.341201 
L 382.163383 139.334935 
L 383.965874 138.810055 
L 385.768366 139.966658 
L 387.570858 140.328875 
L 389.37335 140.316296 
L 391.175842 142.066512 
L 392.978334 142.304279 
L 394.780826 143.200692 
L 396.583318 143.887758 
L 398.38581 143.888147 
L 400.188302 145.864977 
L 401.990794 145.409573 
L 403.793286 145.46745 
L 405.595778 144.880247 
L 407.398269 146.003086 
L 409.200761 145.714973 
L 412.805745 143.941616 
L 414.608237 143.58527 
L 416.410729 142.596404 
L 418.213221 144.034858 
L 420.015713 144.565507 
L 421.818205 143.816106 
L 423.620697 143.753265 
L 425.423189 144.859034 
L 427.225681 143.088944 
L 429.028173 142.344743 
L 430.830665 140.407149 
L 432.633156 141.896515 
L 434.435648 141.870386 
L 436.23814 139.970312 
L 438.040632 140.455353 
L 441.645616 140.404644 
L 443.448108 138.769735 
L 445.2506 139.556429 
L 447.053092 139.574769 
L 448.855584 139.272132 
L 450.658076 138.722999 
L 452.460568 138.305949 
L 454.26306 136.829407 
L 456.065551 136.328712 
L 457.868043 135.16739 
L 459.670535 134.267541 
L 461.473027 135.10566 
L 463.275519 135.189688 
L 466.880503 137.465703 
L 468.682995 136.835257 
L 470.485487 137.350925 
L 472.287979 138.394784 
L 474.090471 138.035183 
L 477.695455 139.212818 
L 477.695455 139.212818 
" style="fill:none;stroke:#ee7733;stroke-dasharray:0.5,0.825;stroke-dashoffset:0;stroke-width:0.5;"/>
    <defs>
     <path d="M 0 -2.5 
L -0.561285 -0.772542 
L -2.377641 -0.772542 
L -0.908178 0.295085 
L -1.469463 2.022542 
L -0 0.954915 
L 1.469463 2.022542 
L 0.908178 0.295085 
L 2.377641 -0.772542 
L 0.561285 -0.772542 
z
" id="mded7999f06" style="stroke:#ee7733;stroke-linejoin:bevel;"/>
    </defs>
    <g clip-path="url(#pc7b18c6e9b)">
     <use style="fill:#ee7733;stroke:#ee7733;stroke-linejoin:bevel;" x="122.604545" xlink:href="#mded7999f06" y="129.822611"/>
     <use style="fill:#ee7733;stroke:#ee7733;stroke-linejoin:bevel;" x="140.629465" xlink:href="#mded7999f06" y="127.54994"/>
     <use style="fill:#ee7733;stroke:#ee7733;stroke-linejoin:bevel;" x="158.654384" xlink:href="#mded7999f06" y="127.361923"/>
     <use style="fill:#ee7733;stroke:#ee7733;stroke-linejoin:bevel;" x="176.679303" xlink:href="#mded7999f06" y="127.12494"/>
     <use style="fill:#ee7733;stroke:#ee7733;stroke-linejoin:bevel;" x="194.704222" xlink:href="#mded7999f06" y="126.527079"/>
     <use style="fill:#ee7733;stroke:#ee7733;stroke-linejoin:bevel;" x="212.729142" xlink:href="#mded7999f06" y="125.980946"/>
     <use style="fill:#ee7733;stroke:#ee7733;stroke-linejoin:bevel;" x="230.754061" xlink:href="#mded7999f06" y="125.809011"/>
     <use style="fill:#ee7733;stroke:#ee7733;stroke-linejoin:bevel;" x="248.77898" xlink:href="#mded7999f06" y="126.078239"/>
     <use style="fill:#ee7733;stroke:#ee7733;stroke-linejoin:bevel;" x="266.803899" xlink:href="#mded7999f06" y="129.420304"/>
     <use style="fill:#ee7733;stroke:#ee7733;stroke-linejoin:bevel;" x="284.828819" xlink:href="#mded7999f06" y="136.353481"/>
     <use style="fill:#ee7733;stroke:#ee7733;stroke-linejoin:bevel;" x="302.853738" xlink:href="#mded7999f06" y="140.514425"/>
     <use style="fill:#ee7733;stroke:#ee7733;stroke-linejoin:bevel;" x="320.878657" xlink:href="#mded7999f06" y="141.207302"/>
     <use style="fill:#ee7733;stroke:#ee7733;stroke-linejoin:bevel;" x="338.903576" xlink:href="#mded7999f06" y="138.794648"/>
     <use style="fill:#ee7733;stroke:#ee7733;stroke-linejoin:bevel;" x="356.928496" xlink:href="#mded7999f06" y="136.70229"/>
     <use style="fill:#ee7733;stroke:#ee7733;stroke-linejoin:bevel;" x="374.953415" xlink:href="#mded7999f06" y="137.259026"/>
     <use style="fill:#ee7733;stroke:#ee7733;stroke-linejoin:bevel;" x="392.978334" xlink:href="#mded7999f06" y="142.304279"/>
     <use style="fill:#ee7733;stroke:#ee7733;stroke-linejoin:bevel;" x="411.003253" xlink:href="#mded7999f06" y="144.850523"/>
     <use style="fill:#ee7733;stroke:#ee7733;stroke-linejoin:bevel;" x="429.028173" xlink:href="#mded7999f06" y="142.344743"/>
     <use style="fill:#ee7733;stroke:#ee7733;stroke-linejoin:bevel;" x="447.053092" xlink:href="#mded7999f06" y="139.574769"/>
     <use style="fill:#ee7733;stroke:#ee7733;stroke-linejoin:bevel;" x="465.078011" xlink:href="#mded7999f06" y="136.372822"/>
    </g>
   </g>
   <g id="line2d_42"/>
   <g id="line2d_43"/>
   <g id="line2d_44"/>
   <g id="line2d_45"/>
   <g id="line2d_46">
    <path clip-path="url(#pc7b18c6e9b)" d="M 122.604545 125.216836 
L 124.407037 125.909764 
L 128.012021 126.06915 
L 131.617005 125.665815 
L 137.024481 125.560678 
L 140.629465 125.962905 
L 144.234449 125.782696 
L 147.839432 125.758854 
L 153.246908 125.652787 
L 160.456876 125.83525 
L 165.864352 125.768614 
L 167.666844 125.775692 
L 169.469335 125.929644 
L 182.086779 125.826705 
L 189.296747 125.952064 
L 196.506714 125.712482 
L 203.716682 125.902883 
L 210.92665 125.789302 
L 214.531634 125.795649 
L 216.334126 126.005941 
L 225.346585 125.827875 
L 248.77898 126.005361 
L 250.581472 126.128534 
L 252.383964 126.53599 
L 257.79144 127.330993 
L 259.593932 127.66924 
L 263.198916 128.212881 
L 265.001407 128.696462 
L 266.803899 129.343622 
L 270.408883 129.965087 
L 272.211375 130.565491 
L 274.013867 130.744543 
L 275.816359 131.834171 
L 277.618851 132.122234 
L 279.421343 132.821142 
L 283.026327 133.371761 
L 284.828819 134.445285 
L 286.631311 134.82989 
L 288.433802 135.349153 
L 290.236294 135.514865 
L 292.038786 136.245912 
L 293.841278 136.222488 
L 297.446262 137.47665 
L 301.051246 139.270213 
L 302.853738 138.800744 
L 304.65623 139.364129 
L 306.458722 140.24213 
L 308.261214 140.190749 
L 310.063706 140.462687 
L 311.866198 140.007551 
L 313.668689 139.82942 
L 315.471181 139.3283 
L 317.273673 139.063955 
L 319.076165 140.584803 
L 320.878657 139.528249 
L 322.681149 140.039005 
L 324.483641 139.054353 
L 326.286133 138.754356 
L 328.088625 137.792347 
L 329.891117 138.784139 
L 331.693609 139.21499 
L 335.298593 137.906616 
L 337.101084 136.7023 
L 338.903576 136.60594 
L 340.706068 135.805155 
L 342.50856 135.245678 
L 344.311052 135.984436 
L 346.113544 135.565154 
L 353.323512 135.427191 
L 355.126004 133.718003 
L 356.928496 134.275763 
L 358.730988 134.046061 
L 365.940955 133.871841 
L 367.743447 132.634399 
L 369.545939 133.281707 
L 371.348431 133.306403 
L 373.150923 134.372005 
L 376.755907 135.434183 
L 378.558399 134.783086 
L 380.360891 134.483264 
L 382.163383 134.406366 
L 383.965874 134.695835 
L 385.768366 134.771716 
L 387.570858 135.675895 
L 389.37335 135.611936 
L 391.175842 136.47671 
L 394.780826 138.839727 
L 396.583318 139.499456 
L 398.38581 139.519167 
L 400.188302 141.566616 
L 401.990794 141.099366 
L 403.793286 141.053849 
L 405.595778 140.392707 
L 407.398269 141.513063 
L 409.200761 141.261875 
L 411.003253 140.814693 
L 412.805745 141.002477 
L 414.608237 141.588193 
L 416.410729 141.110981 
L 418.213221 141.830378 
L 420.015713 141.528372 
L 421.818205 143.099527 
L 423.620697 142.611368 
L 425.423189 143.764305 
L 427.225681 142.892309 
L 429.028173 141.257819 
L 430.830665 139.320225 
L 432.633156 140.78244 
L 434.435648 140.736989 
L 436.23814 138.766296 
L 441.645616 138.754359 
L 443.448108 137.097237 
L 445.2506 136.820575 
L 447.053092 136.909693 
L 448.855584 136.576772 
L 454.26306 134.785893 
L 456.065551 135.177991 
L 457.868043 133.555971 
L 459.670535 133.081438 
L 461.473027 132.925779 
L 463.275519 133.029587 
L 466.880503 135.399507 
L 468.682995 134.804186 
L 470.485487 135.388201 
L 472.287979 135.434096 
L 474.090471 135.62685 
L 477.695455 136.827137 
L 477.695455 136.827137 
" style="fill:none;stroke:#ee3377;stroke-dasharray:3.2,0.8,0.5,0.8;stroke-dashoffset:0;stroke-width:0.5;"/>
    <defs>
     <path d="M -1.25 2.5 
L 0 1.25 
L 1.25 2.5 
L 2.5 1.25 
L 1.25 0 
L 2.5 -1.25 
L 1.25 -2.5 
L 0 -1.25 
L -1.25 -2.5 
L -2.5 -1.25 
L -1.25 0 
L -2.5 1.25 
z
" id="mbd4bfd76ec" style="stroke:#ee3377;stroke-linejoin:miter;"/>
    </defs>
    <g clip-path="url(#pc7b18c6e9b)">
     <use style="fill:#ee3377;stroke:#ee3377;stroke-linejoin:miter;" x="122.604545" xlink:href="#mbd4bfd76ec" y="125.216836"/>
     <use style="fill:#ee3377;stroke:#ee3377;stroke-linejoin:miter;" x="140.629465" xlink:href="#mbd4bfd76ec" y="125.962905"/>
     <use style="fill:#ee3377;stroke:#ee3377;stroke-linejoin:miter;" x="158.654384" xlink:href="#mbd4bfd76ec" y="125.838102"/>
     <use style="fill:#ee3377;stroke:#ee3377;stroke-linejoin:miter;" x="176.679303" xlink:href="#mbd4bfd76ec" y="125.764817"/>
     <use style="fill:#ee3377;stroke:#ee3377;stroke-linejoin:miter;" x="194.704222" xlink:href="#mbd4bfd76ec" y="125.771771"/>
     <use style="fill:#ee3377;stroke:#ee3377;stroke-linejoin:miter;" x="212.729142" xlink:href="#mbd4bfd76ec" y="125.802953"/>
     <use style="fill:#ee3377;stroke:#ee3377;stroke-linejoin:miter;" x="230.754061" xlink:href="#mbd4bfd76ec" y="125.757563"/>
     <use style="fill:#ee3377;stroke:#ee3377;stroke-linejoin:miter;" x="248.77898" xlink:href="#mbd4bfd76ec" y="126.005361"/>
     <use style="fill:#ee3377;stroke:#ee3377;stroke-linejoin:miter;" x="266.803899" xlink:href="#mbd4bfd76ec" y="129.343622"/>
     <use style="fill:#ee3377;stroke:#ee3377;stroke-linejoin:miter;" x="284.828819" xlink:href="#mbd4bfd76ec" y="134.445285"/>
     <use style="fill:#ee3377;stroke:#ee3377;stroke-linejoin:miter;" x="302.853738" xlink:href="#mbd4bfd76ec" y="138.800744"/>
     <use style="fill:#ee3377;stroke:#ee3377;stroke-linejoin:miter;" x="320.878657" xlink:href="#mbd4bfd76ec" y="139.528249"/>
     <use style="fill:#ee3377;stroke:#ee3377;stroke-linejoin:miter;" x="338.903576" xlink:href="#mbd4bfd76ec" y="136.60594"/>
     <use style="fill:#ee3377;stroke:#ee3377;stroke-linejoin:miter;" x="356.928496" xlink:href="#mbd4bfd76ec" y="134.275763"/>
     <use style="fill:#ee3377;stroke:#ee3377;stroke-linejoin:miter;" x="374.953415" xlink:href="#mbd4bfd76ec" y="134.871128"/>
     <use style="fill:#ee3377;stroke:#ee3377;stroke-linejoin:miter;" x="392.978334" xlink:href="#mbd4bfd76ec" y="137.604765"/>
     <use style="fill:#ee3377;stroke:#ee3377;stroke-linejoin:miter;" x="411.003253" xlink:href="#mbd4bfd76ec" y="140.814693"/>
     <use style="fill:#ee3377;stroke:#ee3377;stroke-linejoin:miter;" x="429.028173" xlink:href="#mbd4bfd76ec" y="141.257819"/>
     <use style="fill:#ee3377;stroke:#ee3377;stroke-linejoin:miter;" x="447.053092" xlink:href="#mbd4bfd76ec" y="136.909693"/>
     <use style="fill:#ee3377;stroke:#ee3377;stroke-linejoin:miter;" x="465.078011" xlink:href="#mbd4bfd76ec" y="134.21272"/>
    </g>
   </g>
   <g id="line2d_47"/>
   <g id="line2d_48"/>
   <g id="line2d_49"/>
   <g id="line2d_50"/>
   <g id="line2d_51">
    <path clip-path="url(#pc7b18c6e9b)" d="M 243.371504 389.251812 
L 243.371504 112.051812 
" style="fill:none;stroke:#000000;stroke-dasharray:2.5,5;stroke-dashoffset:0;stroke-width:0.5;"/>
   </g>
   <g id="line2d_52">
    <path clip-path="url(#pc7b18c6e9b)" d="M 297.446262 389.251812 
L 297.446262 112.051812 
" style="fill:none;stroke:#000000;stroke-dasharray:2.5,5;stroke-dashoffset:0;stroke-width:0.5;"/>
   </g>
   <g id="patch_4">
    <path d="M 104.85 389.251813 
L 104.85 112.051813 
" style="fill:none;stroke:#000000;stroke-linecap:square;stroke-linejoin:miter;stroke-width:0.8;"/>
   </g>
   <g id="patch_5">
    <path d="M 495.45 389.251813 
L 495.45 112.051813 
" style="fill:none;stroke:#000000;stroke-linecap:square;stroke-linejoin:miter;stroke-width:0.8;"/>
   </g>
   <g id="patch_6">
    <path d="M 104.85 389.251812 
L 495.45 389.251812 
" style="fill:none;stroke:#000000;stroke-linecap:square;stroke-linejoin:miter;stroke-width:0.8;"/>
   </g>
   <g id="patch_7">
    <path d="M 104.85 112.051812 
L 495.45 112.051812 
" style="fill:none;stroke:#000000;stroke-linecap:square;stroke-linejoin:miter;stroke-width:0.8;"/>
   </g>
   <g id="legend_1">
    <g id="line2d_53"/>
    <g id="line2d_54"/>
    <g id="text_23">
     <!--   -->
     <g transform="translate(48.8 22.277969)scale(0.13 -0.13)">
      <use xlink:href="#DejaVuSans-32"/>
     </g>
    </g>
    <g id="line2d_55"/>
    <g id="line2d_56"/>
    <g id="text_24">
     <!-- start -->
     <g transform="translate(48.8 41.359531)scale(0.13 -0.13)">
      <use xlink:href="#DejaVuSans-115"/>
      <use x="52.099609" xlink:href="#DejaVuSans-116"/>
      <use x="91.308594" xlink:href="#DejaVuSans-97"/>
      <use x="152.587891" xlink:href="#DejaVuSans-114"/>
      <use x="193.701172" xlink:href="#DejaVuSans-116"/>
     </g>
    </g>
    <g id="line2d_57"/>
    <g id="line2d_58"/>
    <g id="text_25">
     <!-- pre-dirft -->
     <g transform="translate(48.8 60.441094)scale(0.13 -0.13)">
      <use xlink:href="#DejaVuSans-112"/>
      <use x="63.476562" xlink:href="#DejaVuSans-114"/>
      <use x="102.339844" xlink:href="#DejaVuSans-101"/>
      <use x="163.863281" xlink:href="#DejaVuSans-45"/>
      <use x="199.947266" xlink:href="#DejaVuSans-100"/>
      <use x="263.423828" xlink:href="#DejaVuSans-105"/>
      <use x="291.207031" xlink:href="#DejaVuSans-114"/>
      <use x="332.320312" xlink:href="#DejaVuSans-102"/>
      <use x="365.775391" xlink:href="#DejaVuSans-116"/>
     </g>
    </g>
    <g id="line2d_59"/>
    <g id="line2d_60"/>
    <g id="text_26">
     <!-- post-drift -->
     <g transform="translate(48.8 79.522656)scale(0.13 -0.13)">
      <use xlink:href="#DejaVuSans-112"/>
      <use x="63.476562" xlink:href="#DejaVuSans-111"/>
      <use x="124.658203" xlink:href="#DejaVuSans-115"/>
      <use x="176.757812" xlink:href="#DejaVuSans-116"/>
      <use x="215.966797" xlink:href="#DejaVuSans-45"/>
      <use x="252.050781" xlink:href="#DejaVuSans-100"/>
      <use x="315.527344" xlink:href="#DejaVuSans-114"/>
      <use x="356.640625" xlink:href="#DejaVuSans-105"/>
      <use x="384.423828" xlink:href="#DejaVuSans-102"/>
      <use x="417.878906" xlink:href="#DejaVuSans-116"/>
     </g>
    </g>
    <g id="line2d_61"/>
    <g id="line2d_62"/>
    <g id="text_27">
     <!-- end -->
     <g transform="translate(48.8 98.604219)scale(0.13 -0.13)">
      <use xlink:href="#DejaVuSans-101"/>
      <use x="61.523438" xlink:href="#DejaVuSans-110"/>
      <use x="124.902344" xlink:href="#DejaVuSans-100"/>
     </g>
    </g>
    <g id="line2d_63">
     <path d="M 102.738313 17.727969 
L 128.738313 17.727969 
" style="fill:none;stroke:#cc3311;stroke-linecap:square;stroke-width:0.5;"/>
    </g>
    <g id="line2d_64">
     <g>
      <use style="fill:#cc3311;stroke:#cc3311;" x="115.738313" xlink:href="#m120b6bcc76" y="17.727969"/>
     </g>
    </g>
    <g id="text_28">
     <!-- UOB -->
     <g transform="translate(139.138313 22.277969)scale(0.13 -0.13)">
      <defs>
       <path d="M 8.6875 72.90625 
L 18.609375 72.90625 
L 18.609375 28.609375 
Q 18.609375 16.890625 22.84375 11.734375 
Q 27.09375 6.59375 36.625 6.59375 
Q 46.09375 6.59375 50.34375 11.734375 
Q 54.59375 16.890625 54.59375 28.609375 
L 54.59375 72.90625 
L 64.5 72.90625 
L 64.5 27.390625 
Q 64.5 13.140625 57.4375 5.859375 
Q 50.390625 -1.421875 36.625 -1.421875 
Q 22.796875 -1.421875 15.734375 5.859375 
Q 8.6875 13.140625 8.6875 27.390625 
z
" id="DejaVuSans-85"/>
       <path d="M 39.40625 66.21875 
Q 28.65625 66.21875 22.328125 58.203125 
Q 16.015625 50.203125 16.015625 36.375 
Q 16.015625 22.609375 22.328125 14.59375 
Q 28.65625 6.59375 39.40625 6.59375 
Q 50.140625 6.59375 56.421875 14.59375 
Q 62.703125 22.609375 62.703125 36.375 
Q 62.703125 50.203125 56.421875 58.203125 
Q 50.140625 66.21875 39.40625 66.21875 
z
M 39.40625 74.21875 
Q 54.734375 74.21875 63.90625 63.9375 
Q 73.09375 53.65625 73.09375 36.375 
Q 73.09375 19.140625 63.90625 8.859375 
Q 54.734375 -1.421875 39.40625 -1.421875 
Q 24.03125 -1.421875 14.8125 8.828125 
Q 5.609375 19.09375 5.609375 36.375 
Q 5.609375 53.65625 14.8125 63.9375 
Q 24.03125 74.21875 39.40625 74.21875 
z
" id="DejaVuSans-79"/>
       <path d="M 19.671875 34.8125 
L 19.671875 8.109375 
L 35.5 8.109375 
Q 43.453125 8.109375 47.28125 11.40625 
Q 51.125 14.703125 51.125 21.484375 
Q 51.125 28.328125 47.28125 31.5625 
Q 43.453125 34.8125 35.5 34.8125 
z
M 19.671875 64.796875 
L 19.671875 42.828125 
L 34.28125 42.828125 
Q 41.5 42.828125 45.03125 45.53125 
Q 48.578125 48.25 48.578125 53.8125 
Q 48.578125 59.328125 45.03125 62.0625 
Q 41.5 64.796875 34.28125 64.796875 
z
M 9.8125 72.90625 
L 35.015625 72.90625 
Q 46.296875 72.90625 52.390625 68.21875 
Q 58.5 63.53125 58.5 54.890625 
Q 58.5 48.1875 55.375 44.234375 
Q 52.25 40.28125 46.1875 39.3125 
Q 53.46875 37.75 57.5 32.78125 
Q 61.53125 27.828125 61.53125 20.40625 
Q 61.53125 10.640625 54.890625 5.3125 
Q 48.25 0 35.984375 0 
L 9.8125 0 
z
" id="DejaVuSans-66"/>
      </defs>
      <use xlink:href="#DejaVuSans-85"/>
      <use x="73.193359" xlink:href="#DejaVuSans-79"/>
      <use x="151.904297" xlink:href="#DejaVuSans-66"/>
     </g>
    </g>
    <g id="line2d_65"/>
    <g id="line2d_66"/>
    <g id="text_29">
     <!-- 0.9978 -->
     <g transform="translate(139.138313 41.359531)scale(0.13 -0.13)">
      <use xlink:href="#DejaVuSans-48"/>
      <use x="63.623047" xlink:href="#DejaVuSans-46"/>
      <use x="95.410156" xlink:href="#DejaVuSans-57"/>
      <use x="159.033203" xlink:href="#DejaVuSans-57"/>
      <use x="222.65625" xlink:href="#DejaVuSans-55"/>
      <use x="286.279297" xlink:href="#DejaVuSans-56"/>
     </g>
    </g>
    <g id="line2d_67"/>
    <g id="line2d_68"/>
    <g id="text_30">
     <!-- 0.9956 -->
     <g transform="translate(139.138313 60.441094)scale(0.13 -0.13)">
      <use xlink:href="#DejaVuSans-48"/>
      <use x="63.623047" xlink:href="#DejaVuSans-46"/>
      <use x="95.410156" xlink:href="#DejaVuSans-57"/>
      <use x="159.033203" xlink:href="#DejaVuSans-57"/>
      <use x="222.65625" xlink:href="#DejaVuSans-53"/>
      <use x="286.279297" xlink:href="#DejaVuSans-54"/>
     </g>
    </g>
    <g id="line2d_69"/>
    <g id="line2d_70"/>
    <g id="text_31">
     <!-- 0.9518 -->
     <g transform="translate(139.138313 79.522656)scale(0.13 -0.13)">
      <use xlink:href="#DejaVuSans-48"/>
      <use x="63.623047" xlink:href="#DejaVuSans-46"/>
      <use x="95.410156" xlink:href="#DejaVuSans-57"/>
      <use x="159.033203" xlink:href="#DejaVuSans-53"/>
      <use x="222.65625" xlink:href="#DejaVuSans-49"/>
      <use x="286.279297" xlink:href="#DejaVuSans-56"/>
     </g>
    </g>
    <g id="line2d_71"/>
    <g id="line2d_72"/>
    <g id="text_32">
     <!-- 0.9683 -->
     <g transform="translate(139.138313 98.604219)scale(0.13 -0.13)">
      <use xlink:href="#DejaVuSans-48"/>
      <use x="63.623047" xlink:href="#DejaVuSans-46"/>
      <use x="95.410156" xlink:href="#DejaVuSans-57"/>
      <use x="159.033203" xlink:href="#DejaVuSans-54"/>
      <use x="222.65625" xlink:href="#DejaVuSans-56"/>
      <use x="286.279297" xlink:href="#DejaVuSans-51"/>
     </g>
    </g>
    <g id="line2d_73">
     <path d="M 179.144281 17.727969 
L 205.144281 17.727969 
" style="fill:none;stroke:#009988;stroke-dasharray:1.85,0.8;stroke-dashoffset:0;stroke-width:0.5;"/>
    </g>
    <g id="line2d_74">
     <g>
      <use style="fill:#009988;stroke:#009988;stroke-linejoin:miter;" x="192.144281" xlink:href="#m54b1796fac" y="17.727969"/>
     </g>
    </g>
    <g id="text_33">
     <!-- OOB -->
     <g transform="translate(215.544281 22.277969)scale(0.13 -0.13)">
      <use xlink:href="#DejaVuSans-79"/>
      <use x="78.710938" xlink:href="#DejaVuSans-79"/>
      <use x="157.421875" xlink:href="#DejaVuSans-66"/>
     </g>
    </g>
    <g id="line2d_75"/>
    <g id="line2d_76"/>
    <g id="text_34">
     <!-- 0.9795 -->
     <g transform="translate(215.544281 41.359531)scale(0.13 -0.13)">
      <use xlink:href="#DejaVuSans-48"/>
      <use x="63.623047" xlink:href="#DejaVuSans-46"/>
      <use x="95.410156" xlink:href="#DejaVuSans-57"/>
      <use x="159.033203" xlink:href="#DejaVuSans-55"/>
      <use x="222.65625" xlink:href="#DejaVuSans-57"/>
      <use x="286.279297" xlink:href="#DejaVuSans-53"/>
     </g>
    </g>
    <g id="line2d_77"/>
    <g id="line2d_78"/>
    <g id="text_35">
     <!-- 0.9930 -->
     <g transform="translate(215.544281 60.441094)scale(0.13 -0.13)">
      <use xlink:href="#DejaVuSans-48"/>
      <use x="63.623047" xlink:href="#DejaVuSans-46"/>
      <use x="95.410156" xlink:href="#DejaVuSans-57"/>
      <use x="159.033203" xlink:href="#DejaVuSans-57"/>
      <use x="222.65625" xlink:href="#DejaVuSans-51"/>
      <use x="286.279297" xlink:href="#DejaVuSans-48"/>
     </g>
    </g>
    <g id="line2d_79"/>
    <g id="line2d_80"/>
    <g id="text_36">
     <!-- 0.9267 -->
     <g transform="translate(215.544281 79.522656)scale(0.13 -0.13)">
      <use xlink:href="#DejaVuSans-48"/>
      <use x="63.623047" xlink:href="#DejaVuSans-46"/>
      <use x="95.410156" xlink:href="#DejaVuSans-57"/>
      <use x="159.033203" xlink:href="#DejaVuSans-50"/>
      <use x="222.65625" xlink:href="#DejaVuSans-54"/>
      <use x="286.279297" xlink:href="#DejaVuSans-55"/>
     </g>
    </g>
    <g id="line2d_81"/>
    <g id="line2d_82"/>
    <g id="text_37">
     <!-- 0.9226 -->
     <g transform="translate(215.544281 98.604219)scale(0.13 -0.13)">
      <use xlink:href="#DejaVuSans-48"/>
      <use x="63.623047" xlink:href="#DejaVuSans-46"/>
      <use x="95.410156" xlink:href="#DejaVuSans-57"/>
      <use x="159.033203" xlink:href="#DejaVuSans-50"/>
      <use x="222.65625" xlink:href="#DejaVuSans-50"/>
      <use x="286.279297" xlink:href="#DejaVuSans-54"/>
     </g>
    </g>
    <g id="line2d_83">
     <path d="M 255.55025 17.727969 
L 281.55025 17.727969 
" style="fill:none;stroke:#0077bb;stroke-dasharray:3.2,0.8,0.5,0.8;stroke-dashoffset:0;stroke-width:0.5;"/>
    </g>
    <g id="line2d_84">
     <g>
      <use style="fill:#0077bb;stroke:#0077bb;stroke-linejoin:miter;" x="268.55025" xlink:href="#mef1b356b16" y="17.727969"/>
     </g>
    </g>
    <g id="text_38">
     <!-- NUOB -->
     <g transform="translate(291.95025 22.277969)scale(0.13 -0.13)">
      <use xlink:href="#DejaVuSans-78"/>
      <use x="74.804688" xlink:href="#DejaVuSans-85"/>
      <use x="147.998047" xlink:href="#DejaVuSans-79"/>
      <use x="226.708984" xlink:href="#DejaVuSans-66"/>
     </g>
    </g>
    <g id="line2d_85"/>
    <g id="line2d_86"/>
    <g id="text_39">
     <!-- 0.9978 -->
     <g transform="translate(291.95025 41.359531)scale(0.13 -0.13)">
      <use xlink:href="#DejaVuSans-48"/>
      <use x="63.623047" xlink:href="#DejaVuSans-46"/>
      <use x="95.410156" xlink:href="#DejaVuSans-57"/>
      <use x="159.033203" xlink:href="#DejaVuSans-57"/>
      <use x="222.65625" xlink:href="#DejaVuSans-55"/>
      <use x="286.279297" xlink:href="#DejaVuSans-56"/>
     </g>
    </g>
    <g id="line2d_87"/>
    <g id="line2d_88"/>
    <g id="text_40">
     <!-- 0.9963 -->
     <g transform="translate(291.95025 60.441094)scale(0.13 -0.13)">
      <use xlink:href="#DejaVuSans-48"/>
      <use x="63.623047" xlink:href="#DejaVuSans-46"/>
      <use x="95.410156" xlink:href="#DejaVuSans-57"/>
      <use x="159.033203" xlink:href="#DejaVuSans-57"/>
      <use x="222.65625" xlink:href="#DejaVuSans-54"/>
      <use x="286.279297" xlink:href="#DejaVuSans-51"/>
     </g>
    </g>
    <g id="line2d_89"/>
    <g id="line2d_90"/>
    <g id="text_41">
     <!-- 0.9539 -->
     <g transform="translate(291.95025 79.522656)scale(0.13 -0.13)">
      <use xlink:href="#DejaVuSans-48"/>
      <use x="63.623047" xlink:href="#DejaVuSans-46"/>
      <use x="95.410156" xlink:href="#DejaVuSans-57"/>
      <use x="159.033203" xlink:href="#DejaVuSans-53"/>
      <use x="222.65625" xlink:href="#DejaVuSans-51"/>
      <use x="286.279297" xlink:href="#DejaVuSans-57"/>
     </g>
    </g>
    <g id="line2d_91"/>
    <g id="line2d_92"/>
    <g id="text_42">
     <!-- 0.9673 -->
     <g transform="translate(291.95025 98.604219)scale(0.13 -0.13)">
      <use xlink:href="#DejaVuSans-48"/>
      <use x="63.623047" xlink:href="#DejaVuSans-46"/>
      <use x="95.410156" xlink:href="#DejaVuSans-57"/>
      <use x="159.033203" xlink:href="#DejaVuSans-54"/>
      <use x="222.65625" xlink:href="#DejaVuSans-55"/>
      <use x="286.279297" xlink:href="#DejaVuSans-51"/>
     </g>
    </g>
    <g id="line2d_93">
     <path d="M 331.956219 17.727969 
L 357.956219 17.727969 
" style="fill:none;stroke:#ee7733;stroke-dasharray:0.5,0.825;stroke-dashoffset:0;stroke-width:0.5;"/>
    </g>
    <g id="line2d_94">
     <g>
      <use style="fill:#ee7733;stroke:#ee7733;stroke-linejoin:bevel;" x="344.956219" xlink:href="#mded7999f06" y="17.727969"/>
     </g>
    </g>
    <g id="text_43">
     <!-- NOOB -->
     <g transform="translate(368.356219 22.277969)scale(0.13 -0.13)">
      <use xlink:href="#DejaVuSans-78"/>
      <use x="74.804688" xlink:href="#DejaVuSans-79"/>
      <use x="153.515625" xlink:href="#DejaVuSans-79"/>
      <use x="232.226562" xlink:href="#DejaVuSans-66"/>
     </g>
    </g>
    <g id="line2d_95"/>
    <g id="line2d_96"/>
    <g id="text_44">
     <!-- 0.9795 -->
     <g transform="translate(368.356219 41.359531)scale(0.13 -0.13)">
      <use xlink:href="#DejaVuSans-48"/>
      <use x="63.623047" xlink:href="#DejaVuSans-46"/>
      <use x="95.410156" xlink:href="#DejaVuSans-57"/>
      <use x="159.033203" xlink:href="#DejaVuSans-55"/>
      <use x="222.65625" xlink:href="#DejaVuSans-57"/>
      <use x="286.279297" xlink:href="#DejaVuSans-53"/>
     </g>
    </g>
    <g id="line2d_97"/>
    <g id="line2d_98"/>
    <g id="text_45">
     <!-- 0.9949 -->
     <g transform="translate(368.356219 60.441094)scale(0.13 -0.13)">
      <use xlink:href="#DejaVuSans-48"/>
      <use x="63.623047" xlink:href="#DejaVuSans-46"/>
      <use x="95.410156" xlink:href="#DejaVuSans-57"/>
      <use x="159.033203" xlink:href="#DejaVuSans-57"/>
      <use x="222.65625" xlink:href="#DejaVuSans-52"/>
      <use x="286.279297" xlink:href="#DejaVuSans-57"/>
     </g>
    </g>
    <g id="line2d_99"/>
    <g id="line2d_100"/>
    <g id="text_46">
     <!-- 0.9390 -->
     <g transform="translate(368.356219 79.522656)scale(0.13 -0.13)">
      <use xlink:href="#DejaVuSans-48"/>
      <use x="63.623047" xlink:href="#DejaVuSans-46"/>
      <use x="95.410156" xlink:href="#DejaVuSans-57"/>
      <use x="159.033203" xlink:href="#DejaVuSans-51"/>
      <use x="222.65625" xlink:href="#DejaVuSans-57"/>
      <use x="286.279297" xlink:href="#DejaVuSans-48"/>
     </g>
    </g>
    <g id="line2d_101"/>
    <g id="line2d_102"/>
    <g id="text_47">
     <!-- 0.9422 -->
     <g transform="translate(368.356219 98.604219)scale(0.13 -0.13)">
      <use xlink:href="#DejaVuSans-48"/>
      <use x="63.623047" xlink:href="#DejaVuSans-46"/>
      <use x="95.410156" xlink:href="#DejaVuSans-57"/>
      <use x="159.033203" xlink:href="#DejaVuSans-52"/>
      <use x="222.65625" xlink:href="#DejaVuSans-50"/>
      <use x="286.279297" xlink:href="#DejaVuSans-50"/>
     </g>
    </g>
    <g id="line2d_103">
     <path d="M 408.362188 17.727969 
L 434.362188 17.727969 
" style="fill:none;stroke:#ee3377;stroke-dasharray:3.2,0.8,0.5,0.8;stroke-dashoffset:0;stroke-width:0.5;"/>
    </g>
    <g id="line2d_104">
     <g>
      <use style="fill:#ee3377;stroke:#ee3377;stroke-linejoin:miter;" x="421.362188" xlink:href="#mbd4bfd76ec" y="17.727969"/>
     </g>
    </g>
    <g id="text_48">
     <!-- HNOB -->
     <g transform="translate(444.762188 22.277969)scale(0.13 -0.13)">
      <defs>
       <path d="M 9.8125 72.90625 
L 19.671875 72.90625 
L 19.671875 43.015625 
L 55.515625 43.015625 
L 55.515625 72.90625 
L 65.375 72.90625 
L 65.375 0 
L 55.515625 0 
L 55.515625 34.71875 
L 19.671875 34.71875 
L 19.671875 0 
L 9.8125 0 
z
" id="DejaVuSans-72"/>
      </defs>
      <use xlink:href="#DejaVuSans-72"/>
      <use x="75.195312" xlink:href="#DejaVuSans-78"/>
      <use x="150" xlink:href="#DejaVuSans-79"/>
      <use x="228.710938" xlink:href="#DejaVuSans-66"/>
     </g>
    </g>
    <g id="line2d_105"/>
    <g id="line2d_106"/>
    <g id="text_49">
     <!-- 0.9978 -->
     <g transform="translate(444.762188 41.359531)scale(0.13 -0.13)">
      <use xlink:href="#DejaVuSans-48"/>
      <use x="63.623047" xlink:href="#DejaVuSans-46"/>
      <use x="95.410156" xlink:href="#DejaVuSans-57"/>
      <use x="159.033203" xlink:href="#DejaVuSans-57"/>
      <use x="222.65625" xlink:href="#DejaVuSans-55"/>
      <use x="286.279297" xlink:href="#DejaVuSans-56"/>
     </g>
    </g>
    <g id="line2d_107"/>
    <g id="line2d_108"/>
    <g id="text_50">
     <!-- 0.9952 -->
     <g transform="translate(444.762188 60.441094)scale(0.13 -0.13)">
      <use xlink:href="#DejaVuSans-48"/>
      <use x="63.623047" xlink:href="#DejaVuSans-46"/>
      <use x="95.410156" xlink:href="#DejaVuSans-57"/>
      <use x="159.033203" xlink:href="#DejaVuSans-57"/>
      <use x="222.65625" xlink:href="#DejaVuSans-53"/>
      <use x="286.279297" xlink:href="#DejaVuSans-50"/>
     </g>
    </g>
    <g id="line2d_109"/>
    <g id="line2d_110"/>
    <g id="text_51">
     <!-- 0.9491 -->
     <g transform="translate(444.762188 79.522656)scale(0.13 -0.13)">
      <use xlink:href="#DejaVuSans-48"/>
      <use x="63.623047" xlink:href="#DejaVuSans-46"/>
      <use x="95.410156" xlink:href="#DejaVuSans-57"/>
      <use x="159.033203" xlink:href="#DejaVuSans-52"/>
      <use x="222.65625" xlink:href="#DejaVuSans-57"/>
      <use x="286.279297" xlink:href="#DejaVuSans-49"/>
     </g>
    </g>
    <g id="line2d_111"/>
    <g id="line2d_112"/>
    <g id="text_52">
     <!-- 0.9517 -->
     <g transform="translate(444.762188 98.604219)scale(0.13 -0.13)">
      <use xlink:href="#DejaVuSans-48"/>
      <use x="63.623047" xlink:href="#DejaVuSans-46"/>
      <use x="95.410156" xlink:href="#DejaVuSans-57"/>
      <use x="159.033203" xlink:href="#DejaVuSans-53"/>
      <use x="222.65625" xlink:href="#DejaVuSans-49"/>
      <use x="286.279297" xlink:href="#DejaVuSans-55"/>
     </g>
    </g>
   </g>
  </g>
 </g>
 <defs>
  <clipPath id="pc7b18c6e9b">
   <rect height="277.2" width="390.6" x="104.85" y="112.051812"/>
  </clipPath>
 </defs>
</svg>
