<?xml version="1.0" encoding="utf-8" standalone="no"?>
<!DOCTYPE svg PUBLIC "-//W3C//DTD SVG 1.1//EN"
  "http://www.w3.org/Graphics/SVG/1.1/DTD/svg11.dtd">
<!-- Created with matplotlib (https://matplotlib.org/) -->
<svg height="432.614937pt" version="1.1" viewBox="0 0 502.65 432.614937" width="502.65pt" xmlns="http://www.w3.org/2000/svg" xmlns:xlink="http://www.w3.org/1999/xlink">
 <metadata>
  <rdf:RDF xmlns:cc="http://creativecommons.org/ns#" xmlns:dc="http://purl.org/dc/elements/1.1/" xmlns:rdf="http://www.w3.org/1999/02/22-rdf-syntax-ns#">
   <cc:Work>
    <dc:type rdf:resource="http://purl.org/dc/dcmitype/StillImage"/>
    <dc:date>2022-06-16T22:23:37.067106</dc:date>
    <dc:format>image/svg+xml</dc:format>
    <dc:creator>
     <cc:Agent>
      <dc:title>Matplotlib v3.3.3, https://matplotlib.org/</dc:title>
     </cc:Agent>
    </dc:creator>
   </cc:Work>
  </rdf:RDF>
 </metadata>
 <defs>
  <style type="text/css">*{stroke-linecap:butt;stroke-linejoin:round;}</style>
 </defs>
 <g id="figure_1">
  <g id="patch_1">
   <path d="M 0 432.614937 
L 502.65 432.614937 
L 502.65 0 
L 0 0 
z
" style="fill:#ffffff;"/>
  </g>
  <g id="axes_1">
   <g id="patch_2">
    <path d="M 104.85 389.251812 
L 495.45 389.251812 
L 495.45 112.051812 
L 104.85 112.051812 
z
" style="fill:#ffffff;"/>
   </g>
   <g id="patch_3">
    <path clip-path="url(#p05debaabcd)" d="M 297.446262 389.251812 
L 297.446262 112.051812 
L 243.371504 112.051812 
L 243.371504 389.251812 
z
" style="fill:#d3d3d3;opacity:0.5;"/>
   </g>
   <g id="matplotlib.axis_1">
    <g id="xtick_1">
     <g id="line2d_1">
      <defs>
       <path d="M 0 0 
L 0 3.5 
" id="ma0e710b7de" style="stroke:#000000;stroke-width:0.8;"/>
      </defs>
      <g>
       <use style="stroke:#000000;stroke-width:0.8;" x="117.19707" xlink:href="#ma0e710b7de" y="389.251812"/>
      </g>
     </g>
     <g id="text_1">
      <!-- 0 -->
      <g transform="translate(113.061445 406.129781)scale(0.13 -0.13)">
       <defs>
        <path d="M 31.78125 66.40625 
Q 24.171875 66.40625 20.328125 58.90625 
Q 16.5 51.421875 16.5 36.375 
Q 16.5 21.390625 20.328125 13.890625 
Q 24.171875 6.390625 31.78125 6.390625 
Q 39.453125 6.390625 43.28125 13.890625 
Q 47.125 21.390625 47.125 36.375 
Q 47.125 51.421875 43.28125 58.90625 
Q 39.453125 66.40625 31.78125 66.40625 
z
M 31.78125 74.21875 
Q 44.046875 74.21875 50.515625 64.515625 
Q 56.984375 54.828125 56.984375 36.375 
Q 56.984375 17.96875 50.515625 8.265625 
Q 44.046875 -1.421875 31.78125 -1.421875 
Q 19.53125 -1.421875 13.0625 8.265625 
Q 6.59375 17.96875 6.59375 36.375 
Q 6.59375 54.828125 13.0625 64.515625 
Q 19.53125 74.21875 31.78125 74.21875 
z
" id="DejaVuSans-48"/>
       </defs>
       <use xlink:href="#DejaVuSans-48"/>
      </g>
     </g>
    </g>
    <g id="xtick_2">
     <g id="line2d_2">
      <g>
       <use style="stroke:#000000;stroke-width:0.8;" x="162.259368" xlink:href="#ma0e710b7de" y="389.251812"/>
      </g>
     </g>
     <g id="text_2">
      <!-- 25 -->
      <g transform="translate(153.988118 406.129781)scale(0.13 -0.13)">
       <defs>
        <path d="M 19.1875 8.296875 
L 53.609375 8.296875 
L 53.609375 0 
L 7.328125 0 
L 7.328125 8.296875 
Q 12.9375 14.109375 22.625 23.890625 
Q 32.328125 33.6875 34.8125 36.53125 
Q 39.546875 41.84375 41.421875 45.53125 
Q 43.3125 49.21875 43.3125 52.78125 
Q 43.3125 58.59375 39.234375 62.25 
Q 35.15625 65.921875 28.609375 65.921875 
Q 23.96875 65.921875 18.8125 64.3125 
Q 13.671875 62.703125 7.8125 59.421875 
L 7.8125 69.390625 
Q 13.765625 71.78125 18.9375 73 
Q 24.125 74.21875 28.421875 74.21875 
Q 39.75 74.21875 46.484375 68.546875 
Q 53.21875 62.890625 53.21875 53.421875 
Q 53.21875 48.921875 51.53125 44.890625 
Q 49.859375 40.875 45.40625 35.40625 
Q 44.1875 33.984375 37.640625 27.21875 
Q 31.109375 20.453125 19.1875 8.296875 
z
" id="DejaVuSans-50"/>
        <path d="M 10.796875 72.90625 
L 49.515625 72.90625 
L 49.515625 64.59375 
L 19.828125 64.59375 
L 19.828125 46.734375 
Q 21.96875 47.46875 24.109375 47.828125 
Q 26.265625 48.1875 28.421875 48.1875 
Q 40.625 48.1875 47.75 41.5 
Q 54.890625 34.8125 54.890625 23.390625 
Q 54.890625 11.625 47.5625 5.09375 
Q 40.234375 -1.421875 26.90625 -1.421875 
Q 22.3125 -1.421875 17.546875 -0.640625 
Q 12.796875 0.140625 7.71875 1.703125 
L 7.71875 11.625 
Q 12.109375 9.234375 16.796875 8.0625 
Q 21.484375 6.890625 26.703125 6.890625 
Q 35.15625 6.890625 40.078125 11.328125 
Q 45.015625 15.765625 45.015625 23.390625 
Q 45.015625 31 40.078125 35.4375 
Q 35.15625 39.890625 26.703125 39.890625 
Q 22.75 39.890625 18.8125 39.015625 
Q 14.890625 38.140625 10.796875 36.28125 
z
" id="DejaVuSans-53"/>
       </defs>
       <use xlink:href="#DejaVuSans-50"/>
       <use x="63.623047" xlink:href="#DejaVuSans-53"/>
      </g>
     </g>
    </g>
    <g id="xtick_3">
     <g id="line2d_3">
      <g>
       <use style="stroke:#000000;stroke-width:0.8;" x="207.321666" xlink:href="#ma0e710b7de" y="389.251812"/>
      </g>
     </g>
     <g id="text_3">
      <!-- 50 -->
      <g transform="translate(199.050416 406.129781)scale(0.13 -0.13)">
       <use xlink:href="#DejaVuSans-53"/>
       <use x="63.623047" xlink:href="#DejaVuSans-48"/>
      </g>
     </g>
    </g>
    <g id="xtick_4">
     <g id="line2d_4">
      <g>
       <use style="stroke:#000000;stroke-width:0.8;" x="252.383964" xlink:href="#ma0e710b7de" y="389.251812"/>
      </g>
     </g>
     <g id="text_4">
      <!-- 75 -->
      <g transform="translate(244.112714 406.129781)scale(0.13 -0.13)">
       <defs>
        <path d="M 8.203125 72.90625 
L 55.078125 72.90625 
L 55.078125 68.703125 
L 28.609375 0 
L 18.3125 0 
L 43.21875 64.59375 
L 8.203125 64.59375 
z
" id="DejaVuSans-55"/>
       </defs>
       <use xlink:href="#DejaVuSans-55"/>
       <use x="63.623047" xlink:href="#DejaVuSans-53"/>
      </g>
     </g>
    </g>
    <g id="xtick_5">
     <g id="line2d_5">
      <g>
       <use style="stroke:#000000;stroke-width:0.8;" x="297.446262" xlink:href="#ma0e710b7de" y="389.251812"/>
      </g>
     </g>
     <g id="text_5">
      <!-- 100 -->
      <g transform="translate(285.039387 406.129781)scale(0.13 -0.13)">
       <defs>
        <path d="M 12.40625 8.296875 
L 28.515625 8.296875 
L 28.515625 63.921875 
L 10.984375 60.40625 
L 10.984375 69.390625 
L 28.421875 72.90625 
L 38.28125 72.90625 
L 38.28125 8.296875 
L 54.390625 8.296875 
L 54.390625 0 
L 12.40625 0 
z
" id="DejaVuSans-49"/>
       </defs>
       <use xlink:href="#DejaVuSans-49"/>
       <use x="63.623047" xlink:href="#DejaVuSans-48"/>
       <use x="127.246094" xlink:href="#DejaVuSans-48"/>
      </g>
     </g>
    </g>
    <g id="xtick_6">
     <g id="line2d_6">
      <g>
       <use style="stroke:#000000;stroke-width:0.8;" x="342.50856" xlink:href="#ma0e710b7de" y="389.251812"/>
      </g>
     </g>
     <g id="text_6">
      <!-- 125 -->
      <g transform="translate(330.101685 406.129781)scale(0.13 -0.13)">
       <use xlink:href="#DejaVuSans-49"/>
       <use x="63.623047" xlink:href="#DejaVuSans-50"/>
       <use x="127.246094" xlink:href="#DejaVuSans-53"/>
      </g>
     </g>
    </g>
    <g id="xtick_7">
     <g id="line2d_7">
      <g>
       <use style="stroke:#000000;stroke-width:0.8;" x="387.570858" xlink:href="#ma0e710b7de" y="389.251812"/>
      </g>
     </g>
     <g id="text_7">
      <!-- 150 -->
      <g transform="translate(375.163983 406.129781)scale(0.13 -0.13)">
       <use xlink:href="#DejaVuSans-49"/>
       <use x="63.623047" xlink:href="#DejaVuSans-53"/>
       <use x="127.246094" xlink:href="#DejaVuSans-48"/>
      </g>
     </g>
    </g>
    <g id="xtick_8">
     <g id="line2d_8">
      <g>
       <use style="stroke:#000000;stroke-width:0.8;" x="432.633156" xlink:href="#ma0e710b7de" y="389.251812"/>
      </g>
     </g>
     <g id="text_8">
      <!-- 175 -->
      <g transform="translate(420.226281 406.129781)scale(0.13 -0.13)">
       <use xlink:href="#DejaVuSans-49"/>
       <use x="63.623047" xlink:href="#DejaVuSans-55"/>
       <use x="127.246094" xlink:href="#DejaVuSans-53"/>
      </g>
     </g>
    </g>
    <g id="xtick_9">
     <g id="line2d_9">
      <g>
       <use style="stroke:#000000;stroke-width:0.8;" x="477.695455" xlink:href="#ma0e710b7de" y="389.251812"/>
      </g>
     </g>
     <g id="text_9">
      <!-- 200 -->
      <g transform="translate(465.28858 406.129781)scale(0.13 -0.13)">
       <use xlink:href="#DejaVuSans-50"/>
       <use x="63.623047" xlink:href="#DejaVuSans-48"/>
       <use x="127.246094" xlink:href="#DejaVuSans-48"/>
      </g>
     </g>
    </g>
    <g id="text_10">
     <!-- Number of processed instances [x1000] -->
     <g transform="translate(170.025078 422.711344)scale(0.13 -0.13)">
      <defs>
       <path d="M 9.8125 72.90625 
L 23.09375 72.90625 
L 55.421875 11.921875 
L 55.421875 72.90625 
L 64.984375 72.90625 
L 64.984375 0 
L 51.703125 0 
L 19.390625 60.984375 
L 19.390625 0 
L 9.8125 0 
z
" id="DejaVuSans-78"/>
       <path d="M 8.5 21.578125 
L 8.5 54.6875 
L 17.484375 54.6875 
L 17.484375 21.921875 
Q 17.484375 14.15625 20.5 10.265625 
Q 23.53125 6.390625 29.59375 6.390625 
Q 36.859375 6.390625 41.078125 11.03125 
Q 45.3125 15.671875 45.3125 23.6875 
L 45.3125 54.6875 
L 54.296875 54.6875 
L 54.296875 0 
L 45.3125 0 
L 45.3125 8.40625 
Q 42.046875 3.421875 37.71875 1 
Q 33.40625 -1.421875 27.6875 -1.421875 
Q 18.265625 -1.421875 13.375 4.4375 
Q 8.5 10.296875 8.5 21.578125 
z
M 31.109375 56 
z
" id="DejaVuSans-117"/>
       <path d="M 52 44.1875 
Q 55.375 50.25 60.0625 53.125 
Q 64.75 56 71.09375 56 
Q 79.640625 56 84.28125 50.015625 
Q 88.921875 44.046875 88.921875 33.015625 
L 88.921875 0 
L 79.890625 0 
L 79.890625 32.71875 
Q 79.890625 40.578125 77.09375 44.375 
Q 74.3125 48.1875 68.609375 48.1875 
Q 61.625 48.1875 57.5625 43.546875 
Q 53.515625 38.921875 53.515625 30.90625 
L 53.515625 0 
L 44.484375 0 
L 44.484375 32.71875 
Q 44.484375 40.625 41.703125 44.40625 
Q 38.921875 48.1875 33.109375 48.1875 
Q 26.21875 48.1875 22.15625 43.53125 
Q 18.109375 38.875 18.109375 30.90625 
L 18.109375 0 
L 9.078125 0 
L 9.078125 54.6875 
L 18.109375 54.6875 
L 18.109375 46.1875 
Q 21.1875 51.21875 25.484375 53.609375 
Q 29.78125 56 35.6875 56 
Q 41.65625 56 45.828125 52.96875 
Q 50 49.953125 52 44.1875 
z
" id="DejaVuSans-109"/>
       <path d="M 48.6875 27.296875 
Q 48.6875 37.203125 44.609375 42.84375 
Q 40.53125 48.484375 33.40625 48.484375 
Q 26.265625 48.484375 22.1875 42.84375 
Q 18.109375 37.203125 18.109375 27.296875 
Q 18.109375 17.390625 22.1875 11.75 
Q 26.265625 6.109375 33.40625 6.109375 
Q 40.53125 6.109375 44.609375 11.75 
Q 48.6875 17.390625 48.6875 27.296875 
z
M 18.109375 46.390625 
Q 20.953125 51.265625 25.265625 53.625 
Q 29.59375 56 35.59375 56 
Q 45.5625 56 51.78125 48.09375 
Q 58.015625 40.1875 58.015625 27.296875 
Q 58.015625 14.40625 51.78125 6.484375 
Q 45.5625 -1.421875 35.59375 -1.421875 
Q 29.59375 -1.421875 25.265625 0.953125 
Q 20.953125 3.328125 18.109375 8.203125 
L 18.109375 0 
L 9.078125 0 
L 9.078125 75.984375 
L 18.109375 75.984375 
z
" id="DejaVuSans-98"/>
       <path d="M 56.203125 29.59375 
L 56.203125 25.203125 
L 14.890625 25.203125 
Q 15.484375 15.921875 20.484375 11.0625 
Q 25.484375 6.203125 34.421875 6.203125 
Q 39.59375 6.203125 44.453125 7.46875 
Q 49.3125 8.734375 54.109375 11.28125 
L 54.109375 2.78125 
Q 49.265625 0.734375 44.1875 -0.34375 
Q 39.109375 -1.421875 33.890625 -1.421875 
Q 20.796875 -1.421875 13.15625 6.1875 
Q 5.515625 13.8125 5.515625 26.8125 
Q 5.515625 40.234375 12.765625 48.109375 
Q 20.015625 56 32.328125 56 
Q 43.359375 56 49.78125 48.890625 
Q 56.203125 41.796875 56.203125 29.59375 
z
M 47.21875 32.234375 
Q 47.125 39.59375 43.09375 43.984375 
Q 39.0625 48.390625 32.421875 48.390625 
Q 24.90625 48.390625 20.390625 44.140625 
Q 15.875 39.890625 15.1875 32.171875 
z
" id="DejaVuSans-101"/>
       <path d="M 41.109375 46.296875 
Q 39.59375 47.171875 37.8125 47.578125 
Q 36.03125 48 33.890625 48 
Q 26.265625 48 22.1875 43.046875 
Q 18.109375 38.09375 18.109375 28.8125 
L 18.109375 0 
L 9.078125 0 
L 9.078125 54.6875 
L 18.109375 54.6875 
L 18.109375 46.1875 
Q 20.953125 51.171875 25.484375 53.578125 
Q 30.03125 56 36.53125 56 
Q 37.453125 56 38.578125 55.875 
Q 39.703125 55.765625 41.0625 55.515625 
z
" id="DejaVuSans-114"/>
       <path id="DejaVuSans-32"/>
       <path d="M 30.609375 48.390625 
Q 23.390625 48.390625 19.1875 42.75 
Q 14.984375 37.109375 14.984375 27.296875 
Q 14.984375 17.484375 19.15625 11.84375 
Q 23.34375 6.203125 30.609375 6.203125 
Q 37.796875 6.203125 41.984375 11.859375 
Q 46.1875 17.53125 46.1875 27.296875 
Q 46.1875 37.015625 41.984375 42.703125 
Q 37.796875 48.390625 30.609375 48.390625 
z
M 30.609375 56 
Q 42.328125 56 49.015625 48.375 
Q 55.71875 40.765625 55.71875 27.296875 
Q 55.71875 13.875 49.015625 6.21875 
Q 42.328125 -1.421875 30.609375 -1.421875 
Q 18.84375 -1.421875 12.171875 6.21875 
Q 5.515625 13.875 5.515625 27.296875 
Q 5.515625 40.765625 12.171875 48.375 
Q 18.84375 56 30.609375 56 
z
" id="DejaVuSans-111"/>
       <path d="M 37.109375 75.984375 
L 37.109375 68.5 
L 28.515625 68.5 
Q 23.6875 68.5 21.796875 66.546875 
Q 19.921875 64.59375 19.921875 59.515625 
L 19.921875 54.6875 
L 34.71875 54.6875 
L 34.71875 47.703125 
L 19.921875 47.703125 
L 19.921875 0 
L 10.890625 0 
L 10.890625 47.703125 
L 2.296875 47.703125 
L 2.296875 54.6875 
L 10.890625 54.6875 
L 10.890625 58.5 
Q 10.890625 67.625 15.140625 71.796875 
Q 19.390625 75.984375 28.609375 75.984375 
z
" id="DejaVuSans-102"/>
       <path d="M 18.109375 8.203125 
L 18.109375 -20.796875 
L 9.078125 -20.796875 
L 9.078125 54.6875 
L 18.109375 54.6875 
L 18.109375 46.390625 
Q 20.953125 51.265625 25.265625 53.625 
Q 29.59375 56 35.59375 56 
Q 45.5625 56 51.78125 48.09375 
Q 58.015625 40.1875 58.015625 27.296875 
Q 58.015625 14.40625 51.78125 6.484375 
Q 45.5625 -1.421875 35.59375 -1.421875 
Q 29.59375 -1.421875 25.265625 0.953125 
Q 20.953125 3.328125 18.109375 8.203125 
z
M 48.6875 27.296875 
Q 48.6875 37.203125 44.609375 42.84375 
Q 40.53125 48.484375 33.40625 48.484375 
Q 26.265625 48.484375 22.1875 42.84375 
Q 18.109375 37.203125 18.109375 27.296875 
Q 18.109375 17.390625 22.1875 11.75 
Q 26.265625 6.109375 33.40625 6.109375 
Q 40.53125 6.109375 44.609375 11.75 
Q 48.6875 17.390625 48.6875 27.296875 
z
" id="DejaVuSans-112"/>
       <path d="M 48.78125 52.59375 
L 48.78125 44.1875 
Q 44.96875 46.296875 41.140625 47.34375 
Q 37.3125 48.390625 33.40625 48.390625 
Q 24.65625 48.390625 19.8125 42.84375 
Q 14.984375 37.3125 14.984375 27.296875 
Q 14.984375 17.28125 19.8125 11.734375 
Q 24.65625 6.203125 33.40625 6.203125 
Q 37.3125 6.203125 41.140625 7.25 
Q 44.96875 8.296875 48.78125 10.40625 
L 48.78125 2.09375 
Q 45.015625 0.34375 40.984375 -0.53125 
Q 36.96875 -1.421875 32.421875 -1.421875 
Q 20.0625 -1.421875 12.78125 6.34375 
Q 5.515625 14.109375 5.515625 27.296875 
Q 5.515625 40.671875 12.859375 48.328125 
Q 20.21875 56 33.015625 56 
Q 37.15625 56 41.109375 55.140625 
Q 45.0625 54.296875 48.78125 52.59375 
z
" id="DejaVuSans-99"/>
       <path d="M 44.28125 53.078125 
L 44.28125 44.578125 
Q 40.484375 46.53125 36.375 47.5 
Q 32.28125 48.484375 27.875 48.484375 
Q 21.1875 48.484375 17.84375 46.4375 
Q 14.5 44.390625 14.5 40.28125 
Q 14.5 37.15625 16.890625 35.375 
Q 19.28125 33.59375 26.515625 31.984375 
L 29.59375 31.296875 
Q 39.15625 29.25 43.1875 25.515625 
Q 47.21875 21.78125 47.21875 15.09375 
Q 47.21875 7.46875 41.1875 3.015625 
Q 35.15625 -1.421875 24.609375 -1.421875 
Q 20.21875 -1.421875 15.453125 -0.5625 
Q 10.6875 0.296875 5.421875 2 
L 5.421875 11.28125 
Q 10.40625 8.6875 15.234375 7.390625 
Q 20.0625 6.109375 24.8125 6.109375 
Q 31.15625 6.109375 34.5625 8.28125 
Q 37.984375 10.453125 37.984375 14.40625 
Q 37.984375 18.0625 35.515625 20.015625 
Q 33.0625 21.96875 24.703125 23.78125 
L 21.578125 24.515625 
Q 13.234375 26.265625 9.515625 29.90625 
Q 5.8125 33.546875 5.8125 39.890625 
Q 5.8125 47.609375 11.28125 51.796875 
Q 16.75 56 26.8125 56 
Q 31.78125 56 36.171875 55.265625 
Q 40.578125 54.546875 44.28125 53.078125 
z
" id="DejaVuSans-115"/>
       <path d="M 45.40625 46.390625 
L 45.40625 75.984375 
L 54.390625 75.984375 
L 54.390625 0 
L 45.40625 0 
L 45.40625 8.203125 
Q 42.578125 3.328125 38.25 0.953125 
Q 33.9375 -1.421875 27.875 -1.421875 
Q 17.96875 -1.421875 11.734375 6.484375 
Q 5.515625 14.40625 5.515625 27.296875 
Q 5.515625 40.1875 11.734375 48.09375 
Q 17.96875 56 27.875 56 
Q 33.9375 56 38.25 53.625 
Q 42.578125 51.265625 45.40625 46.390625 
z
M 14.796875 27.296875 
Q 14.796875 17.390625 18.875 11.75 
Q 22.953125 6.109375 30.078125 6.109375 
Q 37.203125 6.109375 41.296875 11.75 
Q 45.40625 17.390625 45.40625 27.296875 
Q 45.40625 37.203125 41.296875 42.84375 
Q 37.203125 48.484375 30.078125 48.484375 
Q 22.953125 48.484375 18.875 42.84375 
Q 14.796875 37.203125 14.796875 27.296875 
z
" id="DejaVuSans-100"/>
       <path d="M 9.421875 54.6875 
L 18.40625 54.6875 
L 18.40625 0 
L 9.421875 0 
z
M 9.421875 75.984375 
L 18.40625 75.984375 
L 18.40625 64.59375 
L 9.421875 64.59375 
z
" id="DejaVuSans-105"/>
       <path d="M 54.890625 33.015625 
L 54.890625 0 
L 45.90625 0 
L 45.90625 32.71875 
Q 45.90625 40.484375 42.875 44.328125 
Q 39.84375 48.1875 33.796875 48.1875 
Q 26.515625 48.1875 22.3125 43.546875 
Q 18.109375 38.921875 18.109375 30.90625 
L 18.109375 0 
L 9.078125 0 
L 9.078125 54.6875 
L 18.109375 54.6875 
L 18.109375 46.1875 
Q 21.34375 51.125 25.703125 53.5625 
Q 30.078125 56 35.796875 56 
Q 45.21875 56 50.046875 50.171875 
Q 54.890625 44.34375 54.890625 33.015625 
z
" id="DejaVuSans-110"/>
       <path d="M 18.3125 70.21875 
L 18.3125 54.6875 
L 36.8125 54.6875 
L 36.8125 47.703125 
L 18.3125 47.703125 
L 18.3125 18.015625 
Q 18.3125 11.328125 20.140625 9.421875 
Q 21.96875 7.515625 27.59375 7.515625 
L 36.8125 7.515625 
L 36.8125 0 
L 27.59375 0 
Q 17.1875 0 13.234375 3.875 
Q 9.28125 7.765625 9.28125 18.015625 
L 9.28125 47.703125 
L 2.6875 47.703125 
L 2.6875 54.6875 
L 9.28125 54.6875 
L 9.28125 70.21875 
z
" id="DejaVuSans-116"/>
       <path d="M 34.28125 27.484375 
Q 23.390625 27.484375 19.1875 25 
Q 14.984375 22.515625 14.984375 16.5 
Q 14.984375 11.71875 18.140625 8.90625 
Q 21.296875 6.109375 26.703125 6.109375 
Q 34.1875 6.109375 38.703125 11.40625 
Q 43.21875 16.703125 43.21875 25.484375 
L 43.21875 27.484375 
z
M 52.203125 31.203125 
L 52.203125 0 
L 43.21875 0 
L 43.21875 8.296875 
Q 40.140625 3.328125 35.546875 0.953125 
Q 30.953125 -1.421875 24.3125 -1.421875 
Q 15.921875 -1.421875 10.953125 3.296875 
Q 6 8.015625 6 15.921875 
Q 6 25.140625 12.171875 29.828125 
Q 18.359375 34.515625 30.609375 34.515625 
L 43.21875 34.515625 
L 43.21875 35.40625 
Q 43.21875 41.609375 39.140625 45 
Q 35.0625 48.390625 27.6875 48.390625 
Q 23 48.390625 18.546875 47.265625 
Q 14.109375 46.140625 10.015625 43.890625 
L 10.015625 52.203125 
Q 14.9375 54.109375 19.578125 55.046875 
Q 24.21875 56 28.609375 56 
Q 40.484375 56 46.34375 49.84375 
Q 52.203125 43.703125 52.203125 31.203125 
z
" id="DejaVuSans-97"/>
       <path d="M 8.59375 75.984375 
L 29.296875 75.984375 
L 29.296875 69 
L 17.578125 69 
L 17.578125 -6.203125 
L 29.296875 -6.203125 
L 29.296875 -13.1875 
L 8.59375 -13.1875 
z
" id="DejaVuSans-91"/>
       <path d="M 54.890625 54.6875 
L 35.109375 28.078125 
L 55.90625 0 
L 45.3125 0 
L 29.390625 21.484375 
L 13.484375 0 
L 2.875 0 
L 24.125 28.609375 
L 4.6875 54.6875 
L 15.28125 54.6875 
L 29.78125 35.203125 
L 44.28125 54.6875 
z
" id="DejaVuSans-120"/>
       <path d="M 30.421875 75.984375 
L 30.421875 -13.1875 
L 9.71875 -13.1875 
L 9.71875 -6.203125 
L 21.390625 -6.203125 
L 21.390625 69 
L 9.71875 69 
L 9.71875 75.984375 
z
" id="DejaVuSans-93"/>
      </defs>
      <use xlink:href="#DejaVuSans-78"/>
      <use x="74.804688" xlink:href="#DejaVuSans-117"/>
      <use x="138.183594" xlink:href="#DejaVuSans-109"/>
      <use x="235.595703" xlink:href="#DejaVuSans-98"/>
      <use x="299.072266" xlink:href="#DejaVuSans-101"/>
      <use x="360.595703" xlink:href="#DejaVuSans-114"/>
      <use x="401.708984" xlink:href="#DejaVuSans-32"/>
      <use x="433.496094" xlink:href="#DejaVuSans-111"/>
      <use x="494.677734" xlink:href="#DejaVuSans-102"/>
      <use x="529.882812" xlink:href="#DejaVuSans-32"/>
      <use x="561.669922" xlink:href="#DejaVuSans-112"/>
      <use x="625.146484" xlink:href="#DejaVuSans-114"/>
      <use x="664.009766" xlink:href="#DejaVuSans-111"/>
      <use x="725.191406" xlink:href="#DejaVuSans-99"/>
      <use x="780.171875" xlink:href="#DejaVuSans-101"/>
      <use x="841.695312" xlink:href="#DejaVuSans-115"/>
      <use x="893.794922" xlink:href="#DejaVuSans-115"/>
      <use x="945.894531" xlink:href="#DejaVuSans-101"/>
      <use x="1007.417969" xlink:href="#DejaVuSans-100"/>
      <use x="1070.894531" xlink:href="#DejaVuSans-32"/>
      <use x="1102.681641" xlink:href="#DejaVuSans-105"/>
      <use x="1130.464844" xlink:href="#DejaVuSans-110"/>
      <use x="1193.84375" xlink:href="#DejaVuSans-115"/>
      <use x="1245.943359" xlink:href="#DejaVuSans-116"/>
      <use x="1285.152344" xlink:href="#DejaVuSans-97"/>
      <use x="1346.431641" xlink:href="#DejaVuSans-110"/>
      <use x="1409.810547" xlink:href="#DejaVuSans-99"/>
      <use x="1464.791016" xlink:href="#DejaVuSans-101"/>
      <use x="1526.314453" xlink:href="#DejaVuSans-115"/>
      <use x="1578.414062" xlink:href="#DejaVuSans-32"/>
      <use x="1610.201172" xlink:href="#DejaVuSans-91"/>
      <use x="1649.214844" xlink:href="#DejaVuSans-120"/>
      <use x="1708.394531" xlink:href="#DejaVuSans-49"/>
      <use x="1772.017578" xlink:href="#DejaVuSans-48"/>
      <use x="1835.640625" xlink:href="#DejaVuSans-48"/>
      <use x="1899.263672" xlink:href="#DejaVuSans-48"/>
      <use x="1962.886719" xlink:href="#DejaVuSans-93"/>
     </g>
    </g>
   </g>
   <g id="matplotlib.axis_2">
    <g id="ytick_1">
     <g id="line2d_10">
      <defs>
       <path d="M 0 0 
L -3.5 0 
" id="m0a19ab9077" style="stroke:#000000;stroke-width:0.8;"/>
      </defs>
      <g>
       <use style="stroke:#000000;stroke-width:0.8;" x="104.85" xlink:href="#m0a19ab9077" y="376.651813"/>
      </g>
     </g>
     <g id="text_11">
      <!-- 0.0 -->
      <g transform="translate(77.175937 381.590797)scale(0.13 -0.13)">
       <defs>
        <path d="M 10.6875 12.40625 
L 21 12.40625 
L 21 0 
L 10.6875 0 
z
" id="DejaVuSans-46"/>
       </defs>
       <use xlink:href="#DejaVuSans-48"/>
       <use x="63.623047" xlink:href="#DejaVuSans-46"/>
       <use x="95.410156" xlink:href="#DejaVuSans-48"/>
      </g>
     </g>
    </g>
    <g id="ytick_2">
     <g id="line2d_11">
      <g>
       <use style="stroke:#000000;stroke-width:0.8;" x="104.85" xlink:href="#m0a19ab9077" y="351.451813"/>
      </g>
     </g>
     <g id="text_12">
      <!-- 0.1 -->
      <g transform="translate(77.175937 356.390797)scale(0.13 -0.13)">
       <use xlink:href="#DejaVuSans-48"/>
       <use x="63.623047" xlink:href="#DejaVuSans-46"/>
       <use x="95.410156" xlink:href="#DejaVuSans-49"/>
      </g>
     </g>
    </g>
    <g id="ytick_3">
     <g id="line2d_12">
      <g>
       <use style="stroke:#000000;stroke-width:0.8;" x="104.85" xlink:href="#m0a19ab9077" y="326.251813"/>
      </g>
     </g>
     <g id="text_13">
      <!-- 0.2 -->
      <g transform="translate(77.175937 331.190797)scale(0.13 -0.13)">
       <use xlink:href="#DejaVuSans-48"/>
       <use x="63.623047" xlink:href="#DejaVuSans-46"/>
       <use x="95.410156" xlink:href="#DejaVuSans-50"/>
      </g>
     </g>
    </g>
    <g id="ytick_4">
     <g id="line2d_13">
      <g>
       <use style="stroke:#000000;stroke-width:0.8;" x="104.85" xlink:href="#m0a19ab9077" y="301.051812"/>
      </g>
     </g>
     <g id="text_14">
      <!-- 0.3 -->
      <g transform="translate(77.175937 305.990797)scale(0.13 -0.13)">
       <defs>
        <path d="M 40.578125 39.3125 
Q 47.65625 37.796875 51.625 33 
Q 55.609375 28.21875 55.609375 21.1875 
Q 55.609375 10.40625 48.1875 4.484375 
Q 40.765625 -1.421875 27.09375 -1.421875 
Q 22.515625 -1.421875 17.65625 -0.515625 
Q 12.796875 0.390625 7.625 2.203125 
L 7.625 11.71875 
Q 11.71875 9.328125 16.59375 8.109375 
Q 21.484375 6.890625 26.8125 6.890625 
Q 36.078125 6.890625 40.9375 10.546875 
Q 45.796875 14.203125 45.796875 21.1875 
Q 45.796875 27.640625 41.28125 31.265625 
Q 36.765625 34.90625 28.71875 34.90625 
L 20.21875 34.90625 
L 20.21875 43.015625 
L 29.109375 43.015625 
Q 36.375 43.015625 40.234375 45.921875 
Q 44.09375 48.828125 44.09375 54.296875 
Q 44.09375 59.90625 40.109375 62.90625 
Q 36.140625 65.921875 28.71875 65.921875 
Q 24.65625 65.921875 20.015625 65.03125 
Q 15.375 64.15625 9.8125 62.3125 
L 9.8125 71.09375 
Q 15.4375 72.65625 20.34375 73.4375 
Q 25.25 74.21875 29.59375 74.21875 
Q 40.828125 74.21875 47.359375 69.109375 
Q 53.90625 64.015625 53.90625 55.328125 
Q 53.90625 49.265625 50.4375 45.09375 
Q 46.96875 40.921875 40.578125 39.3125 
z
" id="DejaVuSans-51"/>
       </defs>
       <use xlink:href="#DejaVuSans-48"/>
       <use x="63.623047" xlink:href="#DejaVuSans-46"/>
       <use x="95.410156" xlink:href="#DejaVuSans-51"/>
      </g>
     </g>
    </g>
    <g id="ytick_5">
     <g id="line2d_14">
      <g>
       <use style="stroke:#000000;stroke-width:0.8;" x="104.85" xlink:href="#m0a19ab9077" y="275.851812"/>
      </g>
     </g>
     <g id="text_15">
      <!-- 0.4 -->
      <g transform="translate(77.175937 280.790797)scale(0.13 -0.13)">
       <defs>
        <path d="M 37.796875 64.3125 
L 12.890625 25.390625 
L 37.796875 25.390625 
z
M 35.203125 72.90625 
L 47.609375 72.90625 
L 47.609375 25.390625 
L 58.015625 25.390625 
L 58.015625 17.1875 
L 47.609375 17.1875 
L 47.609375 0 
L 37.796875 0 
L 37.796875 17.1875 
L 4.890625 17.1875 
L 4.890625 26.703125 
z
" id="DejaVuSans-52"/>
       </defs>
       <use xlink:href="#DejaVuSans-48"/>
       <use x="63.623047" xlink:href="#DejaVuSans-46"/>
       <use x="95.410156" xlink:href="#DejaVuSans-52"/>
      </g>
     </g>
    </g>
    <g id="ytick_6">
     <g id="line2d_15">
      <g>
       <use style="stroke:#000000;stroke-width:0.8;" x="104.85" xlink:href="#m0a19ab9077" y="250.651813"/>
      </g>
     </g>
     <g id="text_16">
      <!-- 0.5 -->
      <g transform="translate(77.175937 255.590797)scale(0.13 -0.13)">
       <use xlink:href="#DejaVuSans-48"/>
       <use x="63.623047" xlink:href="#DejaVuSans-46"/>
       <use x="95.410156" xlink:href="#DejaVuSans-53"/>
      </g>
     </g>
    </g>
    <g id="ytick_7">
     <g id="line2d_16">
      <g>
       <use style="stroke:#000000;stroke-width:0.8;" x="104.85" xlink:href="#m0a19ab9077" y="225.451812"/>
      </g>
     </g>
     <g id="text_17">
      <!-- 0.6 -->
      <g transform="translate(77.175937 230.390797)scale(0.13 -0.13)">
       <defs>
        <path d="M 33.015625 40.375 
Q 26.375 40.375 22.484375 35.828125 
Q 18.609375 31.296875 18.609375 23.390625 
Q 18.609375 15.53125 22.484375 10.953125 
Q 26.375 6.390625 33.015625 6.390625 
Q 39.65625 6.390625 43.53125 10.953125 
Q 47.40625 15.53125 47.40625 23.390625 
Q 47.40625 31.296875 43.53125 35.828125 
Q 39.65625 40.375 33.015625 40.375 
z
M 52.59375 71.296875 
L 52.59375 62.3125 
Q 48.875 64.0625 45.09375 64.984375 
Q 41.3125 65.921875 37.59375 65.921875 
Q 27.828125 65.921875 22.671875 59.328125 
Q 17.53125 52.734375 16.796875 39.40625 
Q 19.671875 43.65625 24.015625 45.921875 
Q 28.375 48.1875 33.59375 48.1875 
Q 44.578125 48.1875 50.953125 41.515625 
Q 57.328125 34.859375 57.328125 23.390625 
Q 57.328125 12.15625 50.6875 5.359375 
Q 44.046875 -1.421875 33.015625 -1.421875 
Q 20.359375 -1.421875 13.671875 8.265625 
Q 6.984375 17.96875 6.984375 36.375 
Q 6.984375 53.65625 15.1875 63.9375 
Q 23.390625 74.21875 37.203125 74.21875 
Q 40.921875 74.21875 44.703125 73.484375 
Q 48.484375 72.75 52.59375 71.296875 
z
" id="DejaVuSans-54"/>
       </defs>
       <use xlink:href="#DejaVuSans-48"/>
       <use x="63.623047" xlink:href="#DejaVuSans-46"/>
       <use x="95.410156" xlink:href="#DejaVuSans-54"/>
      </g>
     </g>
    </g>
    <g id="ytick_8">
     <g id="line2d_17">
      <g>
       <use style="stroke:#000000;stroke-width:0.8;" x="104.85" xlink:href="#m0a19ab9077" y="200.251812"/>
      </g>
     </g>
     <g id="text_18">
      <!-- 0.7 -->
      <g transform="translate(77.175937 205.190797)scale(0.13 -0.13)">
       <use xlink:href="#DejaVuSans-48"/>
       <use x="63.623047" xlink:href="#DejaVuSans-46"/>
       <use x="95.410156" xlink:href="#DejaVuSans-55"/>
      </g>
     </g>
    </g>
    <g id="ytick_9">
     <g id="line2d_18">
      <g>
       <use style="stroke:#000000;stroke-width:0.8;" x="104.85" xlink:href="#m0a19ab9077" y="175.051813"/>
      </g>
     </g>
     <g id="text_19">
      <!-- 0.8 -->
      <g transform="translate(77.175937 179.990797)scale(0.13 -0.13)">
       <defs>
        <path d="M 31.78125 34.625 
Q 24.75 34.625 20.71875 30.859375 
Q 16.703125 27.09375 16.703125 20.515625 
Q 16.703125 13.921875 20.71875 10.15625 
Q 24.75 6.390625 31.78125 6.390625 
Q 38.8125 6.390625 42.859375 10.171875 
Q 46.921875 13.96875 46.921875 20.515625 
Q 46.921875 27.09375 42.890625 30.859375 
Q 38.875 34.625 31.78125 34.625 
z
M 21.921875 38.8125 
Q 15.578125 40.375 12.03125 44.71875 
Q 8.5 49.078125 8.5 55.328125 
Q 8.5 64.0625 14.71875 69.140625 
Q 20.953125 74.21875 31.78125 74.21875 
Q 42.671875 74.21875 48.875 69.140625 
Q 55.078125 64.0625 55.078125 55.328125 
Q 55.078125 49.078125 51.53125 44.71875 
Q 48 40.375 41.703125 38.8125 
Q 48.828125 37.15625 52.796875 32.3125 
Q 56.78125 27.484375 56.78125 20.515625 
Q 56.78125 9.90625 50.3125 4.234375 
Q 43.84375 -1.421875 31.78125 -1.421875 
Q 19.734375 -1.421875 13.25 4.234375 
Q 6.78125 9.90625 6.78125 20.515625 
Q 6.78125 27.484375 10.78125 32.3125 
Q 14.796875 37.15625 21.921875 38.8125 
z
M 18.3125 54.390625 
Q 18.3125 48.734375 21.84375 45.5625 
Q 25.390625 42.390625 31.78125 42.390625 
Q 38.140625 42.390625 41.71875 45.5625 
Q 45.3125 48.734375 45.3125 54.390625 
Q 45.3125 60.0625 41.71875 63.234375 
Q 38.140625 66.40625 31.78125 66.40625 
Q 25.390625 66.40625 21.84375 63.234375 
Q 18.3125 60.0625 18.3125 54.390625 
z
" id="DejaVuSans-56"/>
       </defs>
       <use xlink:href="#DejaVuSans-48"/>
       <use x="63.623047" xlink:href="#DejaVuSans-46"/>
       <use x="95.410156" xlink:href="#DejaVuSans-56"/>
      </g>
     </g>
    </g>
    <g id="ytick_10">
     <g id="line2d_19">
      <g>
       <use style="stroke:#000000;stroke-width:0.8;" x="104.85" xlink:href="#m0a19ab9077" y="149.851813"/>
      </g>
     </g>
     <g id="text_20">
      <!-- 0.9 -->
      <g transform="translate(77.175937 154.790797)scale(0.13 -0.13)">
       <defs>
        <path d="M 10.984375 1.515625 
L 10.984375 10.5 
Q 14.703125 8.734375 18.5 7.8125 
Q 22.3125 6.890625 25.984375 6.890625 
Q 35.75 6.890625 40.890625 13.453125 
Q 46.046875 20.015625 46.78125 33.40625 
Q 43.953125 29.203125 39.59375 26.953125 
Q 35.25 24.703125 29.984375 24.703125 
Q 19.046875 24.703125 12.671875 31.3125 
Q 6.296875 37.9375 6.296875 49.421875 
Q 6.296875 60.640625 12.9375 67.421875 
Q 19.578125 74.21875 30.609375 74.21875 
Q 43.265625 74.21875 49.921875 64.515625 
Q 56.59375 54.828125 56.59375 36.375 
Q 56.59375 19.140625 48.40625 8.859375 
Q 40.234375 -1.421875 26.421875 -1.421875 
Q 22.703125 -1.421875 18.890625 -0.6875 
Q 15.09375 0.046875 10.984375 1.515625 
z
M 30.609375 32.421875 
Q 37.25 32.421875 41.125 36.953125 
Q 45.015625 41.5 45.015625 49.421875 
Q 45.015625 57.28125 41.125 61.84375 
Q 37.25 66.40625 30.609375 66.40625 
Q 23.96875 66.40625 20.09375 61.84375 
Q 16.21875 57.28125 16.21875 49.421875 
Q 16.21875 41.5 20.09375 36.953125 
Q 23.96875 32.421875 30.609375 32.421875 
z
" id="DejaVuSans-57"/>
       </defs>
       <use xlink:href="#DejaVuSans-48"/>
       <use x="63.623047" xlink:href="#DejaVuSans-46"/>
       <use x="95.410156" xlink:href="#DejaVuSans-57"/>
      </g>
     </g>
    </g>
    <g id="ytick_11">
     <g id="line2d_20">
      <g>
       <use style="stroke:#000000;stroke-width:0.8;" x="104.85" xlink:href="#m0a19ab9077" y="124.651813"/>
      </g>
     </g>
     <g id="text_21">
      <!-- 1.0 -->
      <g transform="translate(77.175937 129.590797)scale(0.13 -0.13)">
       <use xlink:href="#DejaVuSans-49"/>
       <use x="63.623047" xlink:href="#DejaVuSans-46"/>
       <use x="95.410156" xlink:href="#DejaVuSans-48"/>
      </g>
     </g>
    </g>
    <g id="text_22">
     <!-- Recall -->
     <g transform="translate(70.472344 270.044156)rotate(-90)scale(0.13 -0.13)">
      <defs>
       <path d="M 44.390625 34.1875 
Q 47.5625 33.109375 50.5625 29.59375 
Q 53.5625 26.078125 56.59375 19.921875 
L 66.609375 0 
L 56 0 
L 46.6875 18.703125 
Q 43.0625 26.03125 39.671875 28.421875 
Q 36.28125 30.8125 30.421875 30.8125 
L 19.671875 30.8125 
L 19.671875 0 
L 9.8125 0 
L 9.8125 72.90625 
L 32.078125 72.90625 
Q 44.578125 72.90625 50.734375 67.671875 
Q 56.890625 62.453125 56.890625 51.90625 
Q 56.890625 45.015625 53.6875 40.46875 
Q 50.484375 35.9375 44.390625 34.1875 
z
M 19.671875 64.796875 
L 19.671875 38.921875 
L 32.078125 38.921875 
Q 39.203125 38.921875 42.84375 42.21875 
Q 46.484375 45.515625 46.484375 51.90625 
Q 46.484375 58.296875 42.84375 61.546875 
Q 39.203125 64.796875 32.078125 64.796875 
z
" id="DejaVuSans-82"/>
       <path d="M 9.421875 75.984375 
L 18.40625 75.984375 
L 18.40625 0 
L 9.421875 0 
z
" id="DejaVuSans-108"/>
      </defs>
      <use xlink:href="#DejaVuSans-82"/>
      <use x="64.982422" xlink:href="#DejaVuSans-101"/>
      <use x="126.505859" xlink:href="#DejaVuSans-99"/>
      <use x="181.486328" xlink:href="#DejaVuSans-97"/>
      <use x="242.765625" xlink:href="#DejaVuSans-108"/>
      <use x="270.548828" xlink:href="#DejaVuSans-108"/>
     </g>
    </g>
   </g>
   <g id="line2d_21"/>
   <g id="line2d_22"/>
   <g id="line2d_23"/>
   <g id="line2d_24"/>
   <g id="line2d_25"/>
   <g id="line2d_26">
    <path clip-path="url(#p05debaabcd)" d="M 122.604545 124.651813 
L 124.407037 124.911606 
L 126.209529 124.991016 
L 128.012021 125.436742 
L 129.814513 125.279756 
L 131.617005 125.583659 
L 133.419497 125.73682 
L 137.024481 125.601568 
L 144.234449 125.513486 
L 147.839432 125.699631 
L 156.851892 125.634516 
L 162.259368 125.683561 
L 164.06186 125.602606 
L 165.864352 125.652212 
L 171.271827 125.432058 
L 176.679303 125.479483 
L 196.506714 125.489749 
L 207.321666 125.719166 
L 214.531634 125.722201 
L 228.951569 125.669291 
L 232.556553 125.519772 
L 246.976488 125.371806 
L 248.77898 125.692145 
L 250.581472 126.432475 
L 252.383964 127.680116 
L 257.79144 132.715085 
L 261.396424 135.643775 
L 265.001407 138.082427 
L 266.803899 139.451993 
L 270.408883 141.603865 
L 272.211375 142.614873 
L 274.013867 143.377173 
L 275.816359 143.919721 
L 277.618851 144.783981 
L 279.421343 145.511981 
L 281.223835 146.085137 
L 283.026327 146.922593 
L 284.828819 147.121841 
L 286.631311 147.045229 
L 288.433802 146.137253 
L 290.236294 145.442016 
L 292.038786 144.184203 
L 293.841278 143.400418 
L 295.64377 143.68408 
L 297.446262 143.492073 
L 299.248754 144.2538 
L 301.051246 144.086754 
L 302.853738 143.519007 
L 306.458722 143.793434 
L 308.261214 143.626783 
L 310.063706 143.797979 
L 311.866198 144.330528 
L 313.668689 144.237697 
L 315.471181 143.994312 
L 317.273673 144.391893 
L 319.076165 144.333912 
L 320.878657 144.983396 
L 322.681149 145.158583 
L 324.483641 145.69205 
L 326.286133 145.253761 
L 328.088625 145.609651 
L 329.891117 145.197461 
L 331.693609 144.076819 
L 333.496101 143.786393 
L 335.298593 142.772291 
L 337.101084 142.276137 
L 338.903576 142.149319 
L 340.706068 141.447989 
L 342.50856 140.355877 
L 346.113544 140.542618 
L 347.916036 140.323647 
L 349.718528 139.972218 
L 351.52102 140.518512 
L 353.323512 140.160139 
L 356.928496 139.730355 
L 358.730988 138.960503 
L 360.533479 138.807161 
L 362.335971 139.527276 
L 364.138463 139.118734 
L 365.940955 139.365162 
L 373.150923 138.164557 
L 374.953415 137.793171 
L 376.755907 138.457001 
L 378.558399 138.576319 
L 380.360891 138.277241 
L 382.163383 138.375273 
L 383.965874 137.628757 
L 385.768366 137.598448 
L 387.570858 137.121385 
L 389.37335 137.102668 
L 391.175842 136.968961 
L 392.978334 136.199639 
L 396.583318 136.601755 
L 398.38581 135.624169 
L 400.188302 136.092742 
L 401.990794 135.604459 
L 403.793286 135.872544 
L 405.595778 135.309467 
L 407.398269 134.972172 
L 409.200761 136.187223 
L 411.003253 136.285737 
L 412.805745 135.36266 
L 414.608237 135.736523 
L 416.410729 135.669483 
L 418.213221 135.070138 
L 420.015713 135.722154 
L 421.818205 135.981948 
L 423.620697 135.975928 
L 425.423189 136.240281 
L 427.225681 135.913989 
L 429.028173 137.105724 
L 430.830665 137.020748 
L 432.633156 136.464406 
L 434.435648 137.253588 
L 436.23814 137.222002 
L 438.040632 137.506423 
L 441.645616 137.039287 
L 443.448108 137.582391 
L 445.2506 136.755671 
L 447.053092 136.857544 
L 448.855584 137.221299 
L 452.460568 136.910669 
L 454.26306 137.148405 
L 457.868043 137.443496 
L 459.670535 137.266258 
L 461.473027 136.646758 
L 463.275519 137.154215 
L 465.078011 136.4037 
L 468.682995 136.974447 
L 472.287979 136.638225 
L 474.090471 136.685292 
L 477.695455 137.422195 
L 477.695455 137.422195 
" style="fill:none;stroke:#cc3311;stroke-linecap:square;stroke-width:0.5;"/>
    <defs>
     <path d="M 0 2.5 
C 0.663008 2.5 1.29895 2.236584 1.767767 1.767767 
C 2.236584 1.29895 2.5 0.663008 2.5 0 
C 2.5 -0.663008 2.236584 -1.29895 1.767767 -1.767767 
C 1.29895 -2.236584 0.663008 -2.5 0 -2.5 
C -0.663008 -2.5 -1.29895 -2.236584 -1.767767 -1.767767 
C -2.236584 -1.29895 -2.5 -0.663008 -2.5 0 
C -2.5 0.663008 -2.236584 1.29895 -1.767767 1.767767 
C -1.29895 2.236584 -0.663008 2.5 0 2.5 
z
" id="mbd61c522e7" style="stroke:#cc3311;"/>
    </defs>
    <g clip-path="url(#p05debaabcd)">
     <use style="fill:#cc3311;stroke:#cc3311;" x="122.604545" xlink:href="#mbd61c522e7" y="124.651813"/>
     <use style="fill:#cc3311;stroke:#cc3311;" x="140.629465" xlink:href="#mbd61c522e7" y="125.525041"/>
     <use style="fill:#cc3311;stroke:#cc3311;" x="158.654384" xlink:href="#mbd61c522e7" y="125.660178"/>
     <use style="fill:#cc3311;stroke:#cc3311;" x="176.679303" xlink:href="#mbd61c522e7" y="125.479483"/>
     <use style="fill:#cc3311;stroke:#cc3311;" x="194.704222" xlink:href="#mbd61c522e7" y="125.488855"/>
     <use style="fill:#cc3311;stroke:#cc3311;" x="212.729142" xlink:href="#mbd61c522e7" y="125.692742"/>
     <use style="fill:#cc3311;stroke:#cc3311;" x="230.754061" xlink:href="#mbd61c522e7" y="125.570273"/>
     <use style="fill:#cc3311;stroke:#cc3311;" x="248.77898" xlink:href="#mbd61c522e7" y="125.692145"/>
     <use style="fill:#cc3311;stroke:#cc3311;" x="266.803899" xlink:href="#mbd61c522e7" y="139.451993"/>
     <use style="fill:#cc3311;stroke:#cc3311;" x="284.828819" xlink:href="#mbd61c522e7" y="147.121841"/>
     <use style="fill:#cc3311;stroke:#cc3311;" x="302.853738" xlink:href="#mbd61c522e7" y="143.519007"/>
     <use style="fill:#cc3311;stroke:#cc3311;" x="320.878657" xlink:href="#mbd61c522e7" y="144.983396"/>
     <use style="fill:#cc3311;stroke:#cc3311;" x="338.903576" xlink:href="#mbd61c522e7" y="142.149319"/>
     <use style="fill:#cc3311;stroke:#cc3311;" x="356.928496" xlink:href="#mbd61c522e7" y="139.730355"/>
     <use style="fill:#cc3311;stroke:#cc3311;" x="374.953415" xlink:href="#mbd61c522e7" y="137.793171"/>
     <use style="fill:#cc3311;stroke:#cc3311;" x="392.978334" xlink:href="#mbd61c522e7" y="136.199639"/>
     <use style="fill:#cc3311;stroke:#cc3311;" x="411.003253" xlink:href="#mbd61c522e7" y="136.285737"/>
     <use style="fill:#cc3311;stroke:#cc3311;" x="429.028173" xlink:href="#mbd61c522e7" y="137.105724"/>
     <use style="fill:#cc3311;stroke:#cc3311;" x="447.053092" xlink:href="#mbd61c522e7" y="136.857544"/>
     <use style="fill:#cc3311;stroke:#cc3311;" x="465.078011" xlink:href="#mbd61c522e7" y="136.4037"/>
    </g>
   </g>
   <g id="line2d_27"/>
   <g id="line2d_28"/>
   <g id="line2d_29"/>
   <g id="line2d_30"/>
   <g id="line2d_31">
    <path clip-path="url(#p05debaabcd)" d="M 122.604545 124.651813 
L 126.209529 125.157024 
L 128.012021 125.561248 
L 129.814513 125.379361 
L 131.617005 125.748375 
L 133.419497 125.878005 
L 146.03694 125.632065 
L 147.839432 125.730458 
L 156.851892 125.657636 
L 160.456876 125.733446 
L 180.284287 125.517683 
L 187.494255 125.588011 
L 196.506714 125.612848 
L 198.309206 125.741849 
L 203.716682 125.816032 
L 212.729142 125.969606 
L 218.136617 125.885019 
L 232.556553 125.644245 
L 234.359045 125.513834 
L 237.964029 125.51303 
L 241.569012 125.33855 
L 246.976488 125.216107 
L 248.77898 125.537215 
L 250.581472 126.277544 
L 252.383964 127.520789 
L 257.79144 132.3415 
L 261.396424 135.228777 
L 263.198916 136.345674 
L 265.001407 136.989992 
L 266.803899 138.061035 
L 270.408883 139.695726 
L 272.211375 140.207466 
L 274.013867 140.838516 
L 275.816359 141.333696 
L 277.618851 142.106982 
L 279.421343 142.554982 
L 281.223835 142.85356 
L 283.026327 143.796898 
L 284.828819 143.904503 
L 286.631311 143.642597 
L 290.236294 141.787257 
L 292.038786 140.587778 
L 293.841278 139.822787 
L 295.64377 139.290622 
L 297.446262 139.03268 
L 299.248754 139.665783 
L 301.051246 139.940215 
L 302.853738 139.302744 
L 304.65623 139.104853 
L 306.458722 139.184512 
L 310.063706 138.949612 
L 311.866198 139.16254 
L 313.668689 138.90354 
L 315.471181 138.778617 
L 317.273673 139.143197 
L 319.076165 138.549045 
L 320.878657 138.224303 
L 322.681149 138.355694 
L 324.483641 138.657967 
L 326.286133 138.326886 
L 328.088625 138.440468 
L 331.693609 137.018461 
L 333.496101 136.127078 
L 335.298593 134.740539 
L 337.101084 133.960251 
L 340.706068 133.207654 
L 342.50856 132.48613 
L 344.311052 132.314147 
L 346.113544 132.314147 
L 349.718528 131.583881 
L 351.52102 131.948077 
L 353.323512 131.412192 
L 355.126004 131.010064 
L 356.928496 130.988788 
L 358.730988 130.301515 
L 360.533479 129.736508 
L 362.335971 129.820991 
L 364.138463 129.508245 
L 365.940955 129.634138 
L 369.545939 129.316258 
L 371.348431 129.063322 
L 373.150923 129.084354 
L 376.755907 129.487384 
L 380.360891 129.419509 
L 382.163383 129.269578 
L 383.965874 128.891578 
L 385.768366 128.881475 
L 387.570858 128.471125 
L 389.37335 128.467382 
L 391.175842 128.608955 
L 392.978334 128.604467 
L 394.780826 128.856467 
L 398.38581 128.510654 
L 403.793286 128.074001 
L 407.398269 127.823475 
L 409.200761 127.893072 
L 411.003253 127.589458 
L 412.805745 127.109458 
L 416.410729 127.247248 
L 418.213221 126.849354 
L 420.015713 127.243104 
L 421.818205 127.113207 
L 427.225681 127.091094 
L 429.028173 127.336962 
L 430.830665 127.084962 
L 438.040632 127.090729 
L 439.843124 126.956687 
L 441.645616 126.956687 
L 443.448108 127.246342 
L 445.2506 127.154208 
L 447.053092 127.490208 
L 448.855584 127.596987 
L 452.460568 127.373793 
L 454.26306 127.730397 
L 456.065551 127.636647 
L 457.868043 128.112119 
L 459.670535 127.961735 
L 463.275519 127.953765 
L 465.078011 127.603765 
L 466.880503 127.603765 
L 472.287979 128.280752 
L 474.090471 128.167238 
L 475.892963 128.541496 
L 477.695455 128.541496 
L 477.695455 128.541496 
" style="fill:none;stroke:#009988;stroke-dasharray:1.85,0.8;stroke-dashoffset:0;stroke-width:0.5;"/>
    <defs>
     <path d="M -2.5 2.5 
L 2.5 2.5 
L 2.5 -2.5 
L -2.5 -2.5 
z
" id="m172e4be9fc" style="stroke:#009988;stroke-linejoin:miter;"/>
    </defs>
    <g clip-path="url(#p05debaabcd)">
     <use style="fill:#009988;stroke:#009988;stroke-linejoin:miter;" x="122.604545" xlink:href="#m172e4be9fc" y="124.651813"/>
     <use style="fill:#009988;stroke:#009988;stroke-linejoin:miter;" x="140.629465" xlink:href="#m172e4be9fc" y="125.661544"/>
     <use style="fill:#009988;stroke:#009988;stroke-linejoin:miter;" x="158.654384" xlink:href="#m172e4be9fc" y="125.734622"/>
     <use style="fill:#009988;stroke:#009988;stroke-linejoin:miter;" x="176.679303" xlink:href="#m172e4be9fc" y="125.477859"/>
     <use style="fill:#009988;stroke:#009988;stroke-linejoin:miter;" x="194.704222" xlink:href="#m172e4be9fc" y="125.536649"/>
     <use style="fill:#009988;stroke:#009988;stroke-linejoin:miter;" x="212.729142" xlink:href="#m172e4be9fc" y="125.969606"/>
     <use style="fill:#009988;stroke:#009988;stroke-linejoin:miter;" x="230.754061" xlink:href="#m172e4be9fc" y="125.745247"/>
     <use style="fill:#009988;stroke:#009988;stroke-linejoin:miter;" x="248.77898" xlink:href="#m172e4be9fc" y="125.537215"/>
     <use style="fill:#009988;stroke:#009988;stroke-linejoin:miter;" x="266.803899" xlink:href="#m172e4be9fc" y="138.061035"/>
     <use style="fill:#009988;stroke:#009988;stroke-linejoin:miter;" x="284.828819" xlink:href="#m172e4be9fc" y="143.904503"/>
     <use style="fill:#009988;stroke:#009988;stroke-linejoin:miter;" x="302.853738" xlink:href="#m172e4be9fc" y="139.302744"/>
     <use style="fill:#009988;stroke:#009988;stroke-linejoin:miter;" x="320.878657" xlink:href="#m172e4be9fc" y="138.224303"/>
     <use style="fill:#009988;stroke:#009988;stroke-linejoin:miter;" x="338.903576" xlink:href="#m172e4be9fc" y="133.614569"/>
     <use style="fill:#009988;stroke:#009988;stroke-linejoin:miter;" x="356.928496" xlink:href="#m172e4be9fc" y="130.988788"/>
     <use style="fill:#009988;stroke:#009988;stroke-linejoin:miter;" x="374.953415" xlink:href="#m172e4be9fc" y="129.275469"/>
     <use style="fill:#009988;stroke:#009988;stroke-linejoin:miter;" x="392.978334" xlink:href="#m172e4be9fc" y="128.604467"/>
     <use style="fill:#009988;stroke:#009988;stroke-linejoin:miter;" x="411.003253" xlink:href="#m172e4be9fc" y="127.589458"/>
     <use style="fill:#009988;stroke:#009988;stroke-linejoin:miter;" x="429.028173" xlink:href="#m172e4be9fc" y="127.336962"/>
     <use style="fill:#009988;stroke:#009988;stroke-linejoin:miter;" x="447.053092" xlink:href="#m172e4be9fc" y="127.490208"/>
     <use style="fill:#009988;stroke:#009988;stroke-linejoin:miter;" x="465.078011" xlink:href="#m172e4be9fc" y="127.603765"/>
    </g>
   </g>
   <g id="line2d_32"/>
   <g id="line2d_33"/>
   <g id="line2d_34"/>
   <g id="line2d_35"/>
   <g id="line2d_36">
    <path clip-path="url(#p05debaabcd)" d="M 122.604545 124.651813 
L 124.407037 125.431194 
L 126.209529 125.337408 
L 128.012021 125.696535 
L 129.814513 125.592373 
L 133.419497 125.890079 
L 135.221989 125.913935 
L 138.826973 125.71434 
L 144.234449 125.632654 
L 149.641924 125.728485 
L 153.246908 125.637081 
L 158.654384 125.711801 
L 176.679303 125.528199 
L 201.91419 125.521036 
L 205.519174 125.646286 
L 210.92665 125.595385 
L 232.556553 125.517703 
L 236.161537 125.436301 
L 239.766521 125.338604 
L 245.173996 125.235106 
L 246.976488 125.296003 
L 248.77898 125.643037 
L 250.581472 126.413655 
L 252.383964 127.570648 
L 254.186456 129.260642 
L 257.79144 132.150902 
L 259.593932 133.421222 
L 263.198916 135.478807 
L 270.408883 139.671514 
L 274.013867 140.856256 
L 275.816359 141.304068 
L 277.618851 142.031866 
L 281.223835 142.72616 
L 283.026327 143.472876 
L 284.828819 143.515533 
L 286.631311 143.223339 
L 288.433802 142.40601 
L 290.236294 141.455367 
L 292.038786 140.314221 
L 297.446262 138.435282 
L 299.248754 138.519954 
L 302.853738 137.16324 
L 304.65623 136.963993 
L 306.458722 136.561079 
L 308.261214 136.305151 
L 310.063706 136.284227 
L 311.866198 136.544523 
L 313.668689 136.20244 
L 315.471181 136.189517 
L 317.273673 136.328591 
L 320.878657 135.461958 
L 322.681149 135.249712 
L 324.483641 135.43639 
L 326.286133 135.020173 
L 328.088625 134.770294 
L 329.891117 134.303868 
L 331.693609 133.71715 
L 333.496101 133.525022 
L 335.298593 132.964125 
L 337.101084 132.847298 
L 338.903576 132.501616 
L 340.706068 131.982201 
L 342.50856 131.650918 
L 344.311052 132.003935 
L 346.113544 131.866978 
L 347.916036 131.510998 
L 349.718528 131.405283 
L 351.52102 131.654934 
L 355.126004 131.149983 
L 356.928496 131.367224 
L 360.533479 130.702749 
L 364.138463 130.546608 
L 365.940955 130.669823 
L 367.743447 131.067531 
L 369.545939 131.137531 
L 371.348431 130.752815 
L 378.558399 130.902238 
L 380.360891 130.424574 
L 382.163383 130.676862 
L 383.965874 130.298862 
L 385.768366 130.148759 
L 387.570858 129.852955 
L 389.37335 130.092527 
L 391.175842 130.0941 
L 392.978334 129.980991 
L 394.780826 130.358991 
L 396.583318 130.455119 
L 398.38581 130.274084 
L 400.188302 130.3546 
L 401.990794 130.110459 
L 403.793286 130.110459 
L 407.398269 129.609406 
L 409.200761 129.863146 
L 411.003253 129.979424 
L 412.805745 129.757885 
L 414.608237 130.004476 
L 416.410729 130.136745 
L 418.213221 129.592455 
L 421.818205 130.375896 
L 427.225681 130.864152 
L 429.028173 131.576686 
L 430.830665 131.49171 
L 432.633156 131.524153 
L 436.23814 132.291914 
L 438.040632 132.717909 
L 439.843124 132.541738 
L 441.645616 132.659495 
L 443.448108 133.093978 
L 445.2506 132.795164 
L 448.855584 132.938177 
L 452.460568 132.360538 
L 454.26306 132.717142 
L 457.868043 132.729276 
L 459.670535 132.565465 
L 461.473027 132.197965 
L 463.275519 132.265084 
L 465.078011 131.448417 
L 468.682995 131.179474 
L 470.485487 131.396614 
L 472.287979 130.98153 
L 474.090471 130.72128 
L 477.695455 130.493028 
L 477.695455 130.493028 
" style="fill:none;stroke:#0077bb;stroke-dasharray:3.2,0.8,0.5,0.8;stroke-dashoffset:0;stroke-width:0.5;"/>
    <defs>
     <path d="M 0 -2.5 
L -2.5 2.5 
L 2.5 2.5 
z
" id="mc4cc5efe76" style="stroke:#0077bb;stroke-linejoin:miter;"/>
    </defs>
    <g clip-path="url(#p05debaabcd)">
     <use style="fill:#0077bb;stroke:#0077bb;stroke-linejoin:miter;" x="122.604545" xlink:href="#mc4cc5efe76" y="124.651813"/>
     <use style="fill:#0077bb;stroke:#0077bb;stroke-linejoin:miter;" x="140.629465" xlink:href="#mc4cc5efe76" y="125.665875"/>
     <use style="fill:#0077bb;stroke:#0077bb;stroke-linejoin:miter;" x="158.654384" xlink:href="#mc4cc5efe76" y="125.711801"/>
     <use style="fill:#0077bb;stroke:#0077bb;stroke-linejoin:miter;" x="176.679303" xlink:href="#mc4cc5efe76" y="125.528199"/>
     <use style="fill:#0077bb;stroke:#0077bb;stroke-linejoin:miter;" x="194.704222" xlink:href="#mc4cc5efe76" y="125.441425"/>
     <use style="fill:#0077bb;stroke:#0077bb;stroke-linejoin:miter;" x="212.729142" xlink:href="#mc4cc5efe76" y="125.595385"/>
     <use style="fill:#0077bb;stroke:#0077bb;stroke-linejoin:miter;" x="230.754061" xlink:href="#mc4cc5efe76" y="125.568204"/>
     <use style="fill:#0077bb;stroke:#0077bb;stroke-linejoin:miter;" x="248.77898" xlink:href="#mc4cc5efe76" y="125.643037"/>
     <use style="fill:#0077bb;stroke:#0077bb;stroke-linejoin:miter;" x="266.803899" xlink:href="#mc4cc5efe76" y="137.687454"/>
     <use style="fill:#0077bb;stroke:#0077bb;stroke-linejoin:miter;" x="284.828819" xlink:href="#mc4cc5efe76" y="143.515533"/>
     <use style="fill:#0077bb;stroke:#0077bb;stroke-linejoin:miter;" x="302.853738" xlink:href="#mc4cc5efe76" y="137.16324"/>
     <use style="fill:#0077bb;stroke:#0077bb;stroke-linejoin:miter;" x="320.878657" xlink:href="#mc4cc5efe76" y="135.461958"/>
     <use style="fill:#0077bb;stroke:#0077bb;stroke-linejoin:miter;" x="338.903576" xlink:href="#mc4cc5efe76" y="132.501616"/>
     <use style="fill:#0077bb;stroke:#0077bb;stroke-linejoin:miter;" x="356.928496" xlink:href="#mc4cc5efe76" y="131.367224"/>
     <use style="fill:#0077bb;stroke:#0077bb;stroke-linejoin:miter;" x="374.953415" xlink:href="#mc4cc5efe76" y="130.834186"/>
     <use style="fill:#0077bb;stroke:#0077bb;stroke-linejoin:miter;" x="392.978334" xlink:href="#mc4cc5efe76" y="129.980991"/>
     <use style="fill:#0077bb;stroke:#0077bb;stroke-linejoin:miter;" x="411.003253" xlink:href="#mc4cc5efe76" y="129.979424"/>
     <use style="fill:#0077bb;stroke:#0077bb;stroke-linejoin:miter;" x="429.028173" xlink:href="#mc4cc5efe76" y="131.576686"/>
     <use style="fill:#0077bb;stroke:#0077bb;stroke-linejoin:miter;" x="447.053092" xlink:href="#mc4cc5efe76" y="132.863079"/>
     <use style="fill:#0077bb;stroke:#0077bb;stroke-linejoin:miter;" x="465.078011" xlink:href="#mc4cc5efe76" y="131.448417"/>
    </g>
   </g>
   <g id="line2d_37"/>
   <g id="line2d_38"/>
   <g id="line2d_39"/>
   <g id="line2d_40"/>
   <g id="line2d_41">
    <path clip-path="url(#p05debaabcd)" d="M 122.604545 124.651813 
L 124.407037 124.911606 
L 126.209529 124.991016 
L 128.012021 125.30411 
L 129.814513 125.173651 
L 133.419497 125.236202 
L 135.221989 125.282246 
L 144.234449 125.039772 
L 151.444416 125.124085 
L 196.506714 125.222775 
L 200.111698 125.300169 
L 228.951569 125.260816 
L 234.359045 125.08247 
L 246.976488 125.087113 
L 248.77898 125.407452 
L 250.581472 125.991871 
L 252.383964 127.049425 
L 255.988948 129.943724 
L 259.593932 132.052454 
L 270.408883 136.462462 
L 272.211375 136.955661 
L 274.013867 137.324211 
L 275.816359 137.487812 
L 277.618851 137.988173 
L 281.223835 138.483035 
L 283.026327 139.053938 
L 286.631311 138.786504 
L 290.236294 137.075614 
L 292.038786 136.080302 
L 293.841278 135.556085 
L 297.446262 135.095041 
L 299.248754 135.424035 
L 301.051246 135.340512 
L 302.853738 135.094346 
L 304.65623 135.048261 
L 306.458722 134.802357 
L 308.261214 134.719032 
L 310.063706 134.873108 
L 311.866198 135.295285 
L 313.668689 135.180638 
L 315.471181 135.223715 
L 317.273673 135.64801 
L 319.076165 135.078797 
L 322.681149 134.618925 
L 324.483641 134.846527 
L 326.286133 134.600581 
L 328.088625 134.229548 
L 329.891117 133.708887 
L 331.693609 133.031521 
L 333.496101 132.600351 
L 335.298593 131.797146 
L 340.706068 130.65801 
L 342.50856 130.040363 
L 344.311052 129.737131 
L 346.113544 129.874087 
L 347.916036 129.262437 
L 349.718528 129.016722 
L 351.52102 129.151827 
L 353.323512 128.615942 
L 355.126004 128.621899 
L 356.928496 128.839141 
L 362.335971 128.199635 
L 364.138463 128.078481 
L 365.940955 128.207053 
L 369.545939 128.237634 
L 371.348431 127.984698 
L 373.150923 128.005731 
L 378.558399 128.54001 
L 380.360891 128.615317 
L 382.163383 128.328429 
L 383.965874 128.328429 
L 385.768366 128.188429 
L 387.570858 127.868709 
L 389.37335 127.988495 
L 391.175842 127.990068 
L 392.978334 127.876959 
L 394.780826 128.128959 
L 396.583318 127.871816 
L 398.38581 127.726989 
L 400.188302 127.954016 
L 401.990794 127.825444 
L 403.793286 127.825444 
L 407.398269 127.574918 
L 409.200761 127.644515 
L 411.003253 127.340901 
L 412.805745 126.860901 
L 416.410729 126.871419 
L 418.213221 126.473524 
L 420.015713 126.736024 
L 423.620697 126.734519 
L 427.225681 126.591887 
L 429.028173 126.721088 
L 430.830665 126.469088 
L 434.435648 126.709164 
L 436.23814 126.591702 
L 438.040632 126.705216 
L 439.843124 126.571173 
L 441.645616 126.571173 
L 443.448108 126.716001 
L 447.053092 126.623866 
L 448.855584 126.730646 
L 452.460568 126.634725 
L 454.26306 126.87246 
L 456.065551 126.75996 
L 457.868043 126.997696 
L 459.670535 126.86074 
L 463.275519 126.852769 
L 465.078011 126.619436 
L 468.682995 126.620762 
L 472.287979 126.907263 
L 474.090471 126.793749 
L 477.695455 126.793749 
L 477.695455 126.793749 
" style="fill:none;stroke:#ee7733;stroke-dasharray:0.5,0.825;stroke-dashoffset:0;stroke-width:0.5;"/>
    <defs>
     <path d="M 0 -2.5 
L -0.561285 -0.772542 
L -2.377641 -0.772542 
L -0.908178 0.295085 
L -1.469463 2.022542 
L -0 0.954915 
L 1.469463 2.022542 
L 0.908178 0.295085 
L 2.377641 -0.772542 
L 0.561285 -0.772542 
z
" id="m91af4af885" style="stroke:#ee7733;stroke-linejoin:bevel;"/>
    </defs>
    <g clip-path="url(#p05debaabcd)">
     <use style="fill:#ee7733;stroke:#ee7733;stroke-linejoin:bevel;" x="122.604545" xlink:href="#m91af4af885" y="124.651813"/>
     <use style="fill:#ee7733;stroke:#ee7733;stroke-linejoin:bevel;" x="140.629465" xlink:href="#m91af4af885" y="125.11031"/>
     <use style="fill:#ee7733;stroke:#ee7733;stroke-linejoin:bevel;" x="158.654384" xlink:href="#m91af4af885" y="125.176339"/>
     <use style="fill:#ee7733;stroke:#ee7733;stroke-linejoin:bevel;" x="176.679303" xlink:href="#m91af4af885" y="125.14973"/>
     <use style="fill:#ee7733;stroke:#ee7733;stroke-linejoin:bevel;" x="194.704222" xlink:href="#m91af4af885" y="125.197078"/>
     <use style="fill:#ee7733;stroke:#ee7733;stroke-linejoin:bevel;" x="212.729142" xlink:href="#m91af4af885" y="125.326235"/>
     <use style="fill:#ee7733;stroke:#ee7733;stroke-linejoin:bevel;" x="230.754061" xlink:href="#m91af4af885" y="125.186553"/>
     <use style="fill:#ee7733;stroke:#ee7733;stroke-linejoin:bevel;" x="248.77898" xlink:href="#m91af4af885" y="125.407452"/>
     <use style="fill:#ee7733;stroke:#ee7733;stroke-linejoin:bevel;" x="266.803899" xlink:href="#m91af4af885" y="134.901073"/>
     <use style="fill:#ee7733;stroke:#ee7733;stroke-linejoin:bevel;" x="284.828819" xlink:href="#m91af4af885" y="138.928444"/>
     <use style="fill:#ee7733;stroke:#ee7733;stroke-linejoin:bevel;" x="302.853738" xlink:href="#m91af4af885" y="135.094346"/>
     <use style="fill:#ee7733;stroke:#ee7733;stroke-linejoin:bevel;" x="320.878657" xlink:href="#m91af4af885" y="134.883951"/>
     <use style="fill:#ee7733;stroke:#ee7733;stroke-linejoin:bevel;" x="338.903576" xlink:href="#m91af4af885" y="131.064925"/>
     <use style="fill:#ee7733;stroke:#ee7733;stroke-linejoin:bevel;" x="356.928496" xlink:href="#m91af4af885" y="128.839141"/>
     <use style="fill:#ee7733;stroke:#ee7733;stroke-linejoin:bevel;" x="374.953415" xlink:href="#m91af4af885" y="128.196845"/>
     <use style="fill:#ee7733;stroke:#ee7733;stroke-linejoin:bevel;" x="392.978334" xlink:href="#m91af4af885" y="127.876959"/>
     <use style="fill:#ee7733;stroke:#ee7733;stroke-linejoin:bevel;" x="411.003253" xlink:href="#m91af4af885" y="127.340901"/>
     <use style="fill:#ee7733;stroke:#ee7733;stroke-linejoin:bevel;" x="429.028173" xlink:href="#m91af4af885" y="126.721088"/>
     <use style="fill:#ee7733;stroke:#ee7733;stroke-linejoin:bevel;" x="447.053092" xlink:href="#m91af4af885" y="126.623866"/>
     <use style="fill:#ee7733;stroke:#ee7733;stroke-linejoin:bevel;" x="465.078011" xlink:href="#m91af4af885" y="126.619436"/>
    </g>
   </g>
   <g id="line2d_42"/>
   <g id="line2d_43"/>
   <g id="line2d_44"/>
   <g id="line2d_45"/>
   <g id="line2d_46">
    <path clip-path="url(#p05debaabcd)" d="M 122.604545 126.137078 
L 124.407037 126.43362 
L 126.209529 126.1717 
L 128.012021 126.587518 
L 129.814513 126.305158 
L 131.617005 126.438161 
L 142.431957 126.096867 
L 146.03694 126.037164 
L 147.839432 126.141298 
L 173.074319 125.77864 
L 187.494255 125.86664 
L 196.506714 125.965101 
L 203.716682 126.169616 
L 207.321666 126.222994 
L 212.729142 126.248462 
L 225.346585 126.247719 
L 234.359045 125.941889 
L 237.964029 125.888406 
L 243.371504 125.688008 
L 246.976488 125.670337 
L 248.77898 126.07153 
L 250.581472 127.028347 
L 252.383964 128.547931 
L 254.186456 130.499818 
L 257.79144 133.909502 
L 259.593932 135.372299 
L 270.408883 140.642899 
L 272.211375 141.278023 
L 274.013867 141.690323 
L 275.816359 141.970156 
L 277.618851 142.490653 
L 279.421343 142.826653 
L 281.223835 142.9818 
L 283.026327 143.494098 
L 284.828819 143.326773 
L 286.631311 142.760795 
L 288.433802 141.502615 
L 290.236294 139.949538 
L 292.038786 138.575059 
L 293.841278 137.374744 
L 297.446262 135.917645 
L 299.248754 135.943499 
L 302.853738 134.637358 
L 308.261214 133.286025 
L 310.063706 133.122438 
L 311.866198 133.402509 
L 313.668689 133.242375 
L 315.471181 132.906375 
L 317.273673 133.224597 
L 319.076165 132.713988 
L 320.878657 132.843885 
L 322.681149 132.464313 
L 324.483641 132.613655 
L 326.286133 132.537979 
L 328.088625 132.166945 
L 331.693609 131.059566 
L 333.496101 130.896481 
L 335.298593 130.326609 
L 337.101084 130.341032 
L 340.706068 129.906438 
L 342.50856 129.412321 
L 344.311052 129.385165 
L 346.113544 129.522122 
L 347.916036 128.910471 
L 349.718528 128.524757 
L 351.52102 128.868393 
L 353.323512 128.371025 
L 364.138463 127.563247 
L 369.545939 127.856442 
L 373.150923 127.326583 
L 374.953415 127.36589 
L 378.558399 127.974348 
L 380.360891 127.815127 
L 382.163383 127.934783 
L 383.965874 127.934783 
L 385.768366 128.06468 
L 389.37335 127.997967 
L 391.175842 128.281113 
L 392.978334 128.168004 
L 394.780826 128.294004 
L 396.583318 128.272375 
L 398.38581 128.091341 
L 401.990794 128.217856 
L 403.793286 128.217856 
L 405.595778 128.077856 
L 407.398269 128.07595 
L 409.200761 128.305041 
L 411.003253 128.287276 
L 412.805745 127.807276 
L 416.410729 127.56877 
L 418.213221 127.038244 
L 420.015713 127.431994 
L 423.620697 127.428984 
L 425.423189 127.806984 
L 429.028173 127.776372 
L 432.633156 127.818513 
L 434.435648 128.044405 
L 436.23814 128.150022 
L 438.040632 128.121963 
L 439.843124 127.973878 
L 443.448108 128.127842 
L 445.2506 128.035707 
L 447.053092 128.069665 
L 448.855584 128.283224 
L 450.658076 128.155951 
L 454.26306 128.406069 
L 459.670535 128.155568 
L 461.473027 127.908818 
L 465.078011 127.765711 
L 466.880503 127.619199 
L 470.485487 127.5526 
L 472.287979 127.454623 
L 474.090471 127.648427 
L 477.695455 127.41067 
L 477.695455 127.41067 
" style="fill:none;stroke:#ee3377;stroke-dasharray:3.2,0.8,0.5,0.8;stroke-dashoffset:0;stroke-width:0.5;"/>
    <defs>
     <path d="M -1.25 2.5 
L 0 1.25 
L 1.25 2.5 
L 2.5 1.25 
L 1.25 0 
L 2.5 -1.25 
L 1.25 -2.5 
L 0 -1.25 
L -1.25 -2.5 
L -2.5 -1.25 
L -1.25 0 
L -2.5 1.25 
z
" id="m896aa2329e" style="stroke:#ee3377;stroke-linejoin:miter;"/>
    </defs>
    <g clip-path="url(#p05debaabcd)">
     <use style="fill:#ee3377;stroke:#ee3377;stroke-linejoin:miter;" x="122.604545" xlink:href="#m896aa2329e" y="126.137078"/>
     <use style="fill:#ee3377;stroke:#ee3377;stroke-linejoin:miter;" x="140.629465" xlink:href="#m896aa2329e" y="126.13075"/>
     <use style="fill:#ee3377;stroke:#ee3377;stroke-linejoin:miter;" x="158.654384" xlink:href="#m896aa2329e" y="126.01759"/>
     <use style="fill:#ee3377;stroke:#ee3377;stroke-linejoin:miter;" x="176.679303" xlink:href="#m896aa2329e" y="125.827298"/>
     <use style="fill:#ee3377;stroke:#ee3377;stroke-linejoin:miter;" x="194.704222" xlink:href="#m896aa2329e" y="125.938956"/>
     <use style="fill:#ee3377;stroke:#ee3377;stroke-linejoin:miter;" x="212.729142" xlink:href="#m896aa2329e" y="126.248462"/>
     <use style="fill:#ee3377;stroke:#ee3377;stroke-linejoin:miter;" x="230.754061" xlink:href="#m896aa2329e" y="126.075948"/>
     <use style="fill:#ee3377;stroke:#ee3377;stroke-linejoin:miter;" x="248.77898" xlink:href="#m896aa2329e" y="126.07153"/>
     <use style="fill:#ee3377;stroke:#ee3377;stroke-linejoin:miter;" x="266.803899" xlink:href="#m896aa2329e" y="138.973596"/>
     <use style="fill:#ee3377;stroke:#ee3377;stroke-linejoin:miter;" x="284.828819" xlink:href="#m896aa2329e" y="143.326773"/>
     <use style="fill:#ee3377;stroke:#ee3377;stroke-linejoin:miter;" x="302.853738" xlink:href="#m896aa2329e" y="134.637358"/>
     <use style="fill:#ee3377;stroke:#ee3377;stroke-linejoin:miter;" x="320.878657" xlink:href="#m896aa2329e" y="132.843885"/>
     <use style="fill:#ee3377;stroke:#ee3377;stroke-linejoin:miter;" x="338.903576" xlink:href="#m896aa2329e" y="130.109896"/>
     <use style="fill:#ee3377;stroke:#ee3377;stroke-linejoin:miter;" x="356.928496" xlink:href="#m896aa2329e" y="128.064533"/>
     <use style="fill:#ee3377;stroke:#ee3377;stroke-linejoin:miter;" x="374.953415" xlink:href="#m896aa2329e" y="127.36589"/>
     <use style="fill:#ee3377;stroke:#ee3377;stroke-linejoin:miter;" x="392.978334" xlink:href="#m896aa2329e" y="128.168004"/>
     <use style="fill:#ee3377;stroke:#ee3377;stroke-linejoin:miter;" x="411.003253" xlink:href="#m896aa2329e" y="128.287276"/>
     <use style="fill:#ee3377;stroke:#ee3377;stroke-linejoin:miter;" x="429.028173" xlink:href="#m896aa2329e" y="127.776372"/>
     <use style="fill:#ee3377;stroke:#ee3377;stroke-linejoin:miter;" x="447.053092" xlink:href="#m896aa2329e" y="128.069665"/>
     <use style="fill:#ee3377;stroke:#ee3377;stroke-linejoin:miter;" x="465.078011" xlink:href="#m896aa2329e" y="127.765711"/>
    </g>
   </g>
   <g id="line2d_47"/>
   <g id="line2d_48"/>
   <g id="line2d_49"/>
   <g id="line2d_50"/>
   <g id="line2d_51">
    <path clip-path="url(#p05debaabcd)" d="M 243.371504 389.251812 
L 243.371504 112.051812 
" style="fill:none;stroke:#000000;stroke-dasharray:2.5,5;stroke-dashoffset:0;stroke-width:0.5;"/>
   </g>
   <g id="line2d_52">
    <path clip-path="url(#p05debaabcd)" d="M 297.446262 389.251812 
L 297.446262 112.051812 
" style="fill:none;stroke:#000000;stroke-dasharray:2.5,5;stroke-dashoffset:0;stroke-width:0.5;"/>
   </g>
   <g id="patch_4">
    <path d="M 104.85 389.251813 
L 104.85 112.051813 
" style="fill:none;stroke:#000000;stroke-linecap:square;stroke-linejoin:miter;stroke-width:0.8;"/>
   </g>
   <g id="patch_5">
    <path d="M 495.45 389.251813 
L 495.45 112.051813 
" style="fill:none;stroke:#000000;stroke-linecap:square;stroke-linejoin:miter;stroke-width:0.8;"/>
   </g>
   <g id="patch_6">
    <path d="M 104.85 389.251812 
L 495.45 389.251812 
" style="fill:none;stroke:#000000;stroke-linecap:square;stroke-linejoin:miter;stroke-width:0.8;"/>
   </g>
   <g id="patch_7">
    <path d="M 104.85 112.051812 
L 495.45 112.051812 
" style="fill:none;stroke:#000000;stroke-linecap:square;stroke-linejoin:miter;stroke-width:0.8;"/>
   </g>
   <g id="legend_1">
    <g id="line2d_53"/>
    <g id="line2d_54"/>
    <g id="text_23">
     <!--   -->
     <g transform="translate(48.8 22.277969)scale(0.13 -0.13)">
      <use xlink:href="#DejaVuSans-32"/>
     </g>
    </g>
    <g id="line2d_55"/>
    <g id="line2d_56"/>
    <g id="text_24">
     <!-- start -->
     <g transform="translate(48.8 41.359531)scale(0.13 -0.13)">
      <use xlink:href="#DejaVuSans-115"/>
      <use x="52.099609" xlink:href="#DejaVuSans-116"/>
      <use x="91.308594" xlink:href="#DejaVuSans-97"/>
      <use x="152.587891" xlink:href="#DejaVuSans-114"/>
      <use x="193.701172" xlink:href="#DejaVuSans-116"/>
     </g>
    </g>
    <g id="line2d_57"/>
    <g id="line2d_58"/>
    <g id="text_25">
     <!-- pre-dirft -->
     <g transform="translate(48.8 60.441094)scale(0.13 -0.13)">
      <defs>
       <path d="M 4.890625 31.390625 
L 31.203125 31.390625 
L 31.203125 23.390625 
L 4.890625 23.390625 
z
" id="DejaVuSans-45"/>
      </defs>
      <use xlink:href="#DejaVuSans-112"/>
      <use x="63.476562" xlink:href="#DejaVuSans-114"/>
      <use x="102.339844" xlink:href="#DejaVuSans-101"/>
      <use x="163.863281" xlink:href="#DejaVuSans-45"/>
      <use x="199.947266" xlink:href="#DejaVuSans-100"/>
      <use x="263.423828" xlink:href="#DejaVuSans-105"/>
      <use x="291.207031" xlink:href="#DejaVuSans-114"/>
      <use x="332.320312" xlink:href="#DejaVuSans-102"/>
      <use x="365.775391" xlink:href="#DejaVuSans-116"/>
     </g>
    </g>
    <g id="line2d_59"/>
    <g id="line2d_60"/>
    <g id="text_26">
     <!-- post-drift -->
     <g transform="translate(48.8 79.522656)scale(0.13 -0.13)">
      <use xlink:href="#DejaVuSans-112"/>
      <use x="63.476562" xlink:href="#DejaVuSans-111"/>
      <use x="124.658203" xlink:href="#DejaVuSans-115"/>
      <use x="176.757812" xlink:href="#DejaVuSans-116"/>
      <use x="215.966797" xlink:href="#DejaVuSans-45"/>
      <use x="252.050781" xlink:href="#DejaVuSans-100"/>
      <use x="315.527344" xlink:href="#DejaVuSans-114"/>
      <use x="356.640625" xlink:href="#DejaVuSans-105"/>
      <use x="384.423828" xlink:href="#DejaVuSans-102"/>
      <use x="417.878906" xlink:href="#DejaVuSans-116"/>
     </g>
    </g>
    <g id="line2d_61"/>
    <g id="line2d_62"/>
    <g id="text_27">
     <!-- end -->
     <g transform="translate(48.8 98.604219)scale(0.13 -0.13)">
      <use xlink:href="#DejaVuSans-101"/>
      <use x="61.523438" xlink:href="#DejaVuSans-110"/>
      <use x="124.902344" xlink:href="#DejaVuSans-100"/>
     </g>
    </g>
    <g id="line2d_63">
     <path d="M 102.738313 17.727969 
L 128.738313 17.727969 
" style="fill:none;stroke:#cc3311;stroke-linecap:square;stroke-width:0.5;"/>
    </g>
    <g id="line2d_64">
     <g>
      <use style="fill:#cc3311;stroke:#cc3311;" x="115.738313" xlink:href="#mbd61c522e7" y="17.727969"/>
     </g>
    </g>
    <g id="text_28">
     <!-- OB -->
     <g transform="translate(139.138313 22.277969)scale(0.13 -0.13)">
      <defs>
       <path d="M 39.40625 66.21875 
Q 28.65625 66.21875 22.328125 58.203125 
Q 16.015625 50.203125 16.015625 36.375 
Q 16.015625 22.609375 22.328125 14.59375 
Q 28.65625 6.59375 39.40625 6.59375 
Q 50.140625 6.59375 56.421875 14.59375 
Q 62.703125 22.609375 62.703125 36.375 
Q 62.703125 50.203125 56.421875 58.203125 
Q 50.140625 66.21875 39.40625 66.21875 
z
M 39.40625 74.21875 
Q 54.734375 74.21875 63.90625 63.9375 
Q 73.09375 53.65625 73.09375 36.375 
Q 73.09375 19.140625 63.90625 8.859375 
Q 54.734375 -1.421875 39.40625 -1.421875 
Q 24.03125 -1.421875 14.8125 8.828125 
Q 5.609375 19.09375 5.609375 36.375 
Q 5.609375 53.65625 14.8125 63.9375 
Q 24.03125 74.21875 39.40625 74.21875 
z
" id="DejaVuSans-79"/>
       <path d="M 19.671875 34.8125 
L 19.671875 8.109375 
L 35.5 8.109375 
Q 43.453125 8.109375 47.28125 11.40625 
Q 51.125 14.703125 51.125 21.484375 
Q 51.125 28.328125 47.28125 31.5625 
Q 43.453125 34.8125 35.5 34.8125 
z
M 19.671875 64.796875 
L 19.671875 42.828125 
L 34.28125 42.828125 
Q 41.5 42.828125 45.03125 45.53125 
Q 48.578125 48.25 48.578125 53.8125 
Q 48.578125 59.328125 45.03125 62.0625 
Q 41.5 64.796875 34.28125 64.796875 
z
M 9.8125 72.90625 
L 35.015625 72.90625 
Q 46.296875 72.90625 52.390625 68.21875 
Q 58.5 63.53125 58.5 54.890625 
Q 58.5 48.1875 55.375 44.234375 
Q 52.25 40.28125 46.1875 39.3125 
Q 53.46875 37.75 57.5 32.78125 
Q 61.53125 27.828125 61.53125 20.40625 
Q 61.53125 10.640625 54.890625 5.3125 
Q 48.25 0 35.984375 0 
L 9.8125 0 
z
" id="DejaVuSans-66"/>
      </defs>
      <use xlink:href="#DejaVuSans-79"/>
      <use x="78.710938" xlink:href="#DejaVuSans-66"/>
     </g>
    </g>
    <g id="line2d_65"/>
    <g id="line2d_66"/>
    <g id="text_29">
     <!-- 1.0000 -->
     <g transform="translate(139.138313 41.359531)scale(0.13 -0.13)">
      <use xlink:href="#DejaVuSans-49"/>
      <use x="63.623047" xlink:href="#DejaVuSans-46"/>
      <use x="95.410156" xlink:href="#DejaVuSans-48"/>
      <use x="159.033203" xlink:href="#DejaVuSans-48"/>
      <use x="222.65625" xlink:href="#DejaVuSans-48"/>
      <use x="286.279297" xlink:href="#DejaVuSans-48"/>
     </g>
    </g>
    <g id="line2d_67"/>
    <g id="line2d_68"/>
    <g id="text_30">
     <!-- 0.9976 -->
     <g transform="translate(139.138313 60.441094)scale(0.13 -0.13)">
      <use xlink:href="#DejaVuSans-48"/>
      <use x="63.623047" xlink:href="#DejaVuSans-46"/>
      <use x="95.410156" xlink:href="#DejaVuSans-57"/>
      <use x="159.033203" xlink:href="#DejaVuSans-57"/>
      <use x="222.65625" xlink:href="#DejaVuSans-55"/>
      <use x="286.279297" xlink:href="#DejaVuSans-54"/>
     </g>
    </g>
    <g id="line2d_69"/>
    <g id="line2d_70"/>
    <g id="text_31">
     <!-- 0.9252 -->
     <g transform="translate(139.138313 79.522656)scale(0.13 -0.13)">
      <use xlink:href="#DejaVuSans-48"/>
      <use x="63.623047" xlink:href="#DejaVuSans-46"/>
      <use x="95.410156" xlink:href="#DejaVuSans-57"/>
      <use x="159.033203" xlink:href="#DejaVuSans-50"/>
      <use x="222.65625" xlink:href="#DejaVuSans-53"/>
      <use x="286.279297" xlink:href="#DejaVuSans-50"/>
     </g>
    </g>
    <g id="line2d_71"/>
    <g id="line2d_72"/>
    <g id="text_32">
     <!-- 0.9493 -->
     <g transform="translate(139.138313 98.604219)scale(0.13 -0.13)">
      <use xlink:href="#DejaVuSans-48"/>
      <use x="63.623047" xlink:href="#DejaVuSans-46"/>
      <use x="95.410156" xlink:href="#DejaVuSans-57"/>
      <use x="159.033203" xlink:href="#DejaVuSans-52"/>
      <use x="222.65625" xlink:href="#DejaVuSans-57"/>
      <use x="286.279297" xlink:href="#DejaVuSans-51"/>
     </g>
    </g>
    <g id="line2d_73">
     <path d="M 179.144281 17.727969 
L 205.144281 17.727969 
" style="fill:none;stroke:#009988;stroke-dasharray:1.85,0.8;stroke-dashoffset:0;stroke-width:0.5;"/>
    </g>
    <g id="line2d_74">
     <g>
      <use style="fill:#009988;stroke:#009988;stroke-linejoin:miter;" x="192.144281" xlink:href="#m172e4be9fc" y="17.727969"/>
     </g>
    </g>
    <g id="text_33">
     <!-- UOB -->
     <g transform="translate(215.544281 22.277969)scale(0.13 -0.13)">
      <defs>
       <path d="M 8.6875 72.90625 
L 18.609375 72.90625 
L 18.609375 28.609375 
Q 18.609375 16.890625 22.84375 11.734375 
Q 27.09375 6.59375 36.625 6.59375 
Q 46.09375 6.59375 50.34375 11.734375 
Q 54.59375 16.890625 54.59375 28.609375 
L 54.59375 72.90625 
L 64.5 72.90625 
L 64.5 27.390625 
Q 64.5 13.140625 57.4375 5.859375 
Q 50.390625 -1.421875 36.625 -1.421875 
Q 22.796875 -1.421875 15.734375 5.859375 
Q 8.6875 13.140625 8.6875 27.390625 
z
" id="DejaVuSans-85"/>
      </defs>
      <use xlink:href="#DejaVuSans-85"/>
      <use x="73.193359" xlink:href="#DejaVuSans-79"/>
      <use x="151.904297" xlink:href="#DejaVuSans-66"/>
     </g>
    </g>
    <g id="line2d_75"/>
    <g id="line2d_76"/>
    <g id="text_34">
     <!-- 1.0000 -->
     <g transform="translate(215.544281 41.359531)scale(0.13 -0.13)">
      <use xlink:href="#DejaVuSans-49"/>
      <use x="63.623047" xlink:href="#DejaVuSans-46"/>
      <use x="95.410156" xlink:href="#DejaVuSans-48"/>
      <use x="159.033203" xlink:href="#DejaVuSans-48"/>
      <use x="222.65625" xlink:href="#DejaVuSans-48"/>
      <use x="286.279297" xlink:href="#DejaVuSans-48"/>
     </g>
    </g>
    <g id="line2d_77"/>
    <g id="line2d_78"/>
    <g id="text_35">
     <!-- 0.9975 -->
     <g transform="translate(215.544281 60.441094)scale(0.13 -0.13)">
      <use xlink:href="#DejaVuSans-48"/>
      <use x="63.623047" xlink:href="#DejaVuSans-46"/>
      <use x="95.410156" xlink:href="#DejaVuSans-57"/>
      <use x="159.033203" xlink:href="#DejaVuSans-57"/>
      <use x="222.65625" xlink:href="#DejaVuSans-55"/>
      <use x="286.279297" xlink:href="#DejaVuSans-53"/>
     </g>
    </g>
    <g id="line2d_79"/>
    <g id="line2d_80"/>
    <g id="text_36">
     <!-- 0.9429 -->
     <g transform="translate(215.544281 79.522656)scale(0.13 -0.13)">
      <use xlink:href="#DejaVuSans-48"/>
      <use x="63.623047" xlink:href="#DejaVuSans-46"/>
      <use x="95.410156" xlink:href="#DejaVuSans-57"/>
      <use x="159.033203" xlink:href="#DejaVuSans-52"/>
      <use x="222.65625" xlink:href="#DejaVuSans-50"/>
      <use x="286.279297" xlink:href="#DejaVuSans-57"/>
     </g>
    </g>
    <g id="line2d_81"/>
    <g id="line2d_82"/>
    <g id="text_37">
     <!-- 0.9846 -->
     <g transform="translate(215.544281 98.604219)scale(0.13 -0.13)">
      <use xlink:href="#DejaVuSans-48"/>
      <use x="63.623047" xlink:href="#DejaVuSans-46"/>
      <use x="95.410156" xlink:href="#DejaVuSans-57"/>
      <use x="159.033203" xlink:href="#DejaVuSans-56"/>
      <use x="222.65625" xlink:href="#DejaVuSans-52"/>
      <use x="286.279297" xlink:href="#DejaVuSans-54"/>
     </g>
    </g>
    <g id="line2d_83">
     <path d="M 255.55025 17.727969 
L 281.55025 17.727969 
" style="fill:none;stroke:#0077bb;stroke-dasharray:3.2,0.8,0.5,0.8;stroke-dashoffset:0;stroke-width:0.5;"/>
    </g>
    <g id="line2d_84">
     <g>
      <use style="fill:#0077bb;stroke:#0077bb;stroke-linejoin:miter;" x="268.55025" xlink:href="#mc4cc5efe76" y="17.727969"/>
     </g>
    </g>
    <g id="text_38">
     <!-- OOB -->
     <g transform="translate(291.95025 22.277969)scale(0.13 -0.13)">
      <use xlink:href="#DejaVuSans-79"/>
      <use x="78.710938" xlink:href="#DejaVuSans-79"/>
      <use x="157.421875" xlink:href="#DejaVuSans-66"/>
     </g>
    </g>
    <g id="line2d_85"/>
    <g id="line2d_86"/>
    <g id="text_39">
     <!-- 1.0000 -->
     <g transform="translate(291.95025 41.359531)scale(0.13 -0.13)">
      <use xlink:href="#DejaVuSans-49"/>
      <use x="63.623047" xlink:href="#DejaVuSans-46"/>
      <use x="95.410156" xlink:href="#DejaVuSans-48"/>
      <use x="159.033203" xlink:href="#DejaVuSans-48"/>
      <use x="222.65625" xlink:href="#DejaVuSans-48"/>
      <use x="286.279297" xlink:href="#DejaVuSans-48"/>
     </g>
    </g>
    <g id="line2d_87"/>
    <g id="line2d_88"/>
    <g id="text_40">
     <!-- 0.9976 -->
     <g transform="translate(291.95025 60.441094)scale(0.13 -0.13)">
      <use xlink:href="#DejaVuSans-48"/>
      <use x="63.623047" xlink:href="#DejaVuSans-46"/>
      <use x="95.410156" xlink:href="#DejaVuSans-57"/>
      <use x="159.033203" xlink:href="#DejaVuSans-57"/>
      <use x="222.65625" xlink:href="#DejaVuSans-55"/>
      <use x="286.279297" xlink:href="#DejaVuSans-54"/>
     </g>
    </g>
    <g id="line2d_89"/>
    <g id="line2d_90"/>
    <g id="text_41">
     <!-- 0.9453 -->
     <g transform="translate(291.95025 79.522656)scale(0.13 -0.13)">
      <use xlink:href="#DejaVuSans-48"/>
      <use x="63.623047" xlink:href="#DejaVuSans-46"/>
      <use x="95.410156" xlink:href="#DejaVuSans-57"/>
      <use x="159.033203" xlink:href="#DejaVuSans-52"/>
      <use x="222.65625" xlink:href="#DejaVuSans-53"/>
      <use x="286.279297" xlink:href="#DejaVuSans-51"/>
     </g>
    </g>
    <g id="line2d_91"/>
    <g id="line2d_92"/>
    <g id="text_42">
     <!-- 0.9768 -->
     <g transform="translate(291.95025 98.604219)scale(0.13 -0.13)">
      <use xlink:href="#DejaVuSans-48"/>
      <use x="63.623047" xlink:href="#DejaVuSans-46"/>
      <use x="95.410156" xlink:href="#DejaVuSans-57"/>
      <use x="159.033203" xlink:href="#DejaVuSans-55"/>
      <use x="222.65625" xlink:href="#DejaVuSans-54"/>
      <use x="286.279297" xlink:href="#DejaVuSans-56"/>
     </g>
    </g>
    <g id="line2d_93">
     <path d="M 331.956219 17.727969 
L 357.956219 17.727969 
" style="fill:none;stroke:#ee7733;stroke-dasharray:0.5,0.825;stroke-dashoffset:0;stroke-width:0.5;"/>
    </g>
    <g id="line2d_94">
     <g>
      <use style="fill:#ee7733;stroke:#ee7733;stroke-linejoin:bevel;" x="344.956219" xlink:href="#m91af4af885" y="17.727969"/>
     </g>
    </g>
    <g id="text_43">
     <!-- NUOB -->
     <g transform="translate(368.356219 22.277969)scale(0.13 -0.13)">
      <use xlink:href="#DejaVuSans-78"/>
      <use x="74.804688" xlink:href="#DejaVuSans-85"/>
      <use x="147.998047" xlink:href="#DejaVuSans-79"/>
      <use x="226.708984" xlink:href="#DejaVuSans-66"/>
     </g>
    </g>
    <g id="line2d_95"/>
    <g id="line2d_96"/>
    <g id="text_44">
     <!-- 1.0000 -->
     <g transform="translate(368.356219 41.359531)scale(0.13 -0.13)">
      <use xlink:href="#DejaVuSans-49"/>
      <use x="63.623047" xlink:href="#DejaVuSans-46"/>
      <use x="95.410156" xlink:href="#DejaVuSans-48"/>
      <use x="159.033203" xlink:href="#DejaVuSans-48"/>
      <use x="222.65625" xlink:href="#DejaVuSans-48"/>
      <use x="286.279297" xlink:href="#DejaVuSans-48"/>
     </g>
    </g>
    <g id="line2d_97"/>
    <g id="line2d_98"/>
    <g id="text_45">
     <!-- 0.9987 -->
     <g transform="translate(368.356219 60.441094)scale(0.13 -0.13)">
      <use xlink:href="#DejaVuSans-48"/>
      <use x="63.623047" xlink:href="#DejaVuSans-46"/>
      <use x="95.410156" xlink:href="#DejaVuSans-57"/>
      <use x="159.033203" xlink:href="#DejaVuSans-57"/>
      <use x="222.65625" xlink:href="#DejaVuSans-56"/>
      <use x="286.279297" xlink:href="#DejaVuSans-55"/>
     </g>
    </g>
    <g id="line2d_99"/>
    <g id="line2d_100"/>
    <g id="text_46">
     <!-- 0.9586 -->
     <g transform="translate(368.356219 79.522656)scale(0.13 -0.13)">
      <use xlink:href="#DejaVuSans-48"/>
      <use x="63.623047" xlink:href="#DejaVuSans-46"/>
      <use x="95.410156" xlink:href="#DejaVuSans-57"/>
      <use x="159.033203" xlink:href="#DejaVuSans-53"/>
      <use x="222.65625" xlink:href="#DejaVuSans-56"/>
      <use x="286.279297" xlink:href="#DejaVuSans-54"/>
     </g>
    </g>
    <g id="line2d_101"/>
    <g id="line2d_102"/>
    <g id="text_47">
     <!-- 0.9915 -->
     <g transform="translate(368.356219 98.604219)scale(0.13 -0.13)">
      <use xlink:href="#DejaVuSans-48"/>
      <use x="63.623047" xlink:href="#DejaVuSans-46"/>
      <use x="95.410156" xlink:href="#DejaVuSans-57"/>
      <use x="159.033203" xlink:href="#DejaVuSans-57"/>
      <use x="222.65625" xlink:href="#DejaVuSans-49"/>
      <use x="286.279297" xlink:href="#DejaVuSans-53"/>
     </g>
    </g>
    <g id="line2d_103">
     <path d="M 408.362188 17.727969 
L 434.362188 17.727969 
" style="fill:none;stroke:#ee3377;stroke-dasharray:3.2,0.8,0.5,0.8;stroke-dashoffset:0;stroke-width:0.5;"/>
    </g>
    <g id="line2d_104">
     <g>
      <use style="fill:#ee3377;stroke:#ee3377;stroke-linejoin:miter;" x="421.362188" xlink:href="#m896aa2329e" y="17.727969"/>
     </g>
    </g>
    <g id="text_48">
     <!-- NOOB -->
     <g transform="translate(444.762188 22.277969)scale(0.13 -0.13)">
      <use xlink:href="#DejaVuSans-78"/>
      <use x="74.804688" xlink:href="#DejaVuSans-79"/>
      <use x="153.515625" xlink:href="#DejaVuSans-79"/>
      <use x="232.226562" xlink:href="#DejaVuSans-66"/>
     </g>
    </g>
    <g id="line2d_105"/>
    <g id="line2d_106"/>
    <g id="text_49">
     <!-- 0.9941 -->
     <g transform="translate(444.762188 41.359531)scale(0.13 -0.13)">
      <use xlink:href="#DejaVuSans-48"/>
      <use x="63.623047" xlink:href="#DejaVuSans-46"/>
      <use x="95.410156" xlink:href="#DejaVuSans-57"/>
      <use x="159.033203" xlink:href="#DejaVuSans-57"/>
      <use x="222.65625" xlink:href="#DejaVuSans-52"/>
      <use x="286.279297" xlink:href="#DejaVuSans-49"/>
     </g>
    </g>
    <g id="line2d_107"/>
    <g id="line2d_108"/>
    <g id="text_50">
     <!-- 0.9959 -->
     <g transform="translate(444.762188 60.441094)scale(0.13 -0.13)">
      <use xlink:href="#DejaVuSans-48"/>
      <use x="63.623047" xlink:href="#DejaVuSans-46"/>
      <use x="95.410156" xlink:href="#DejaVuSans-57"/>
      <use x="159.033203" xlink:href="#DejaVuSans-57"/>
      <use x="222.65625" xlink:href="#DejaVuSans-53"/>
      <use x="286.279297" xlink:href="#DejaVuSans-57"/>
     </g>
    </g>
    <g id="line2d_109"/>
    <g id="line2d_110"/>
    <g id="text_51">
     <!-- 0.9553 -->
     <g transform="translate(444.762188 79.522656)scale(0.13 -0.13)">
      <use xlink:href="#DejaVuSans-48"/>
      <use x="63.623047" xlink:href="#DejaVuSans-46"/>
      <use x="95.410156" xlink:href="#DejaVuSans-57"/>
      <use x="159.033203" xlink:href="#DejaVuSans-53"/>
      <use x="222.65625" xlink:href="#DejaVuSans-53"/>
      <use x="286.279297" xlink:href="#DejaVuSans-51"/>
     </g>
    </g>
    <g id="line2d_111"/>
    <g id="line2d_112"/>
    <g id="text_52">
     <!-- 0.9891 -->
     <g transform="translate(444.762188 98.604219)scale(0.13 -0.13)">
      <use xlink:href="#DejaVuSans-48"/>
      <use x="63.623047" xlink:href="#DejaVuSans-46"/>
      <use x="95.410156" xlink:href="#DejaVuSans-57"/>
      <use x="159.033203" xlink:href="#DejaVuSans-56"/>
      <use x="222.65625" xlink:href="#DejaVuSans-57"/>
      <use x="286.279297" xlink:href="#DejaVuSans-49"/>
     </g>
    </g>
   </g>
  </g>
 </g>
 <defs>
  <clipPath id="p05debaabcd">
   <rect height="277.2" width="390.6" x="104.85" y="112.051812"/>
  </clipPath>
 </defs>
</svg>
