<?xml version="1.0" encoding="utf-8" standalone="no"?>
<!DOCTYPE svg PUBLIC "-//W3C//DTD SVG 1.1//EN"
  "http://www.w3.org/Graphics/SVG/1.1/DTD/svg11.dtd">
<!-- Created with matplotlib (https://matplotlib.org/) -->
<svg height="432.614937pt" version="1.1" viewBox="0 0 502.65 432.614937" width="502.65pt" xmlns="http://www.w3.org/2000/svg" xmlns:xlink="http://www.w3.org/1999/xlink">
 <metadata>
  <rdf:RDF xmlns:cc="http://creativecommons.org/ns#" xmlns:dc="http://purl.org/dc/elements/1.1/" xmlns:rdf="http://www.w3.org/1999/02/22-rdf-syntax-ns#">
   <cc:Work>
    <dc:type rdf:resource="http://purl.org/dc/dcmitype/StillImage"/>
    <dc:date>2022-06-16T22:41:38.702618</dc:date>
    <dc:format>image/svg+xml</dc:format>
    <dc:creator>
     <cc:Agent>
      <dc:title>Matplotlib v3.3.3, https://matplotlib.org/</dc:title>
     </cc:Agent>
    </dc:creator>
   </cc:Work>
  </rdf:RDF>
 </metadata>
 <defs>
  <style type="text/css">*{stroke-linecap:butt;stroke-linejoin:round;}</style>
 </defs>
 <g id="figure_1">
  <g id="patch_1">
   <path d="M 0 432.614937 
L 502.65 432.614937 
L 502.65 0 
L 0 0 
z
" style="fill:#ffffff;"/>
  </g>
  <g id="axes_1">
   <g id="patch_2">
    <path d="M 104.85 389.251812 
L 495.45 389.251812 
L 495.45 112.051812 
L 104.85 112.051812 
z
" style="fill:#ffffff;"/>
   </g>
   <g id="matplotlib.axis_1">
    <g id="xtick_1">
     <g id="line2d_1">
      <defs>
       <path d="M 0 0 
L 0 3.5 
" id="m972897c49e" style="stroke:#000000;stroke-width:0.8;"/>
      </defs>
      <g>
       <use style="stroke:#000000;stroke-width:0.8;" x="117.19707" xlink:href="#m972897c49e" y="389.251812"/>
      </g>
     </g>
     <g id="text_1">
      <!-- 0 -->
      <g transform="translate(113.061445 406.129781)scale(0.13 -0.13)">
       <defs>
        <path d="M 31.78125 66.40625 
Q 24.171875 66.40625 20.328125 58.90625 
Q 16.5 51.421875 16.5 36.375 
Q 16.5 21.390625 20.328125 13.890625 
Q 24.171875 6.390625 31.78125 6.390625 
Q 39.453125 6.390625 43.28125 13.890625 
Q 47.125 21.390625 47.125 36.375 
Q 47.125 51.421875 43.28125 58.90625 
Q 39.453125 66.40625 31.78125 66.40625 
z
M 31.78125 74.21875 
Q 44.046875 74.21875 50.515625 64.515625 
Q 56.984375 54.828125 56.984375 36.375 
Q 56.984375 17.96875 50.515625 8.265625 
Q 44.046875 -1.421875 31.78125 -1.421875 
Q 19.53125 -1.421875 13.0625 8.265625 
Q 6.59375 17.96875 6.59375 36.375 
Q 6.59375 54.828125 13.0625 64.515625 
Q 19.53125 74.21875 31.78125 74.21875 
z
" id="DejaVuSans-48"/>
       </defs>
       <use xlink:href="#DejaVuSans-48"/>
      </g>
     </g>
    </g>
    <g id="xtick_2">
     <g id="line2d_2">
      <g>
       <use style="stroke:#000000;stroke-width:0.8;" x="162.259368" xlink:href="#m972897c49e" y="389.251812"/>
      </g>
     </g>
     <g id="text_2">
      <!-- 25 -->
      <g transform="translate(153.988118 406.129781)scale(0.13 -0.13)">
       <defs>
        <path d="M 19.1875 8.296875 
L 53.609375 8.296875 
L 53.609375 0 
L 7.328125 0 
L 7.328125 8.296875 
Q 12.9375 14.109375 22.625 23.890625 
Q 32.328125 33.6875 34.8125 36.53125 
Q 39.546875 41.84375 41.421875 45.53125 
Q 43.3125 49.21875 43.3125 52.78125 
Q 43.3125 58.59375 39.234375 62.25 
Q 35.15625 65.921875 28.609375 65.921875 
Q 23.96875 65.921875 18.8125 64.3125 
Q 13.671875 62.703125 7.8125 59.421875 
L 7.8125 69.390625 
Q 13.765625 71.78125 18.9375 73 
Q 24.125 74.21875 28.421875 74.21875 
Q 39.75 74.21875 46.484375 68.546875 
Q 53.21875 62.890625 53.21875 53.421875 
Q 53.21875 48.921875 51.53125 44.890625 
Q 49.859375 40.875 45.40625 35.40625 
Q 44.1875 33.984375 37.640625 27.21875 
Q 31.109375 20.453125 19.1875 8.296875 
z
" id="DejaVuSans-50"/>
        <path d="M 10.796875 72.90625 
L 49.515625 72.90625 
L 49.515625 64.59375 
L 19.828125 64.59375 
L 19.828125 46.734375 
Q 21.96875 47.46875 24.109375 47.828125 
Q 26.265625 48.1875 28.421875 48.1875 
Q 40.625 48.1875 47.75 41.5 
Q 54.890625 34.8125 54.890625 23.390625 
Q 54.890625 11.625 47.5625 5.09375 
Q 40.234375 -1.421875 26.90625 -1.421875 
Q 22.3125 -1.421875 17.546875 -0.640625 
Q 12.796875 0.140625 7.71875 1.703125 
L 7.71875 11.625 
Q 12.109375 9.234375 16.796875 8.0625 
Q 21.484375 6.890625 26.703125 6.890625 
Q 35.15625 6.890625 40.078125 11.328125 
Q 45.015625 15.765625 45.015625 23.390625 
Q 45.015625 31 40.078125 35.4375 
Q 35.15625 39.890625 26.703125 39.890625 
Q 22.75 39.890625 18.8125 39.015625 
Q 14.890625 38.140625 10.796875 36.28125 
z
" id="DejaVuSans-53"/>
       </defs>
       <use xlink:href="#DejaVuSans-50"/>
       <use x="63.623047" xlink:href="#DejaVuSans-53"/>
      </g>
     </g>
    </g>
    <g id="xtick_3">
     <g id="line2d_3">
      <g>
       <use style="stroke:#000000;stroke-width:0.8;" x="207.321666" xlink:href="#m972897c49e" y="389.251812"/>
      </g>
     </g>
     <g id="text_3">
      <!-- 50 -->
      <g transform="translate(199.050416 406.129781)scale(0.13 -0.13)">
       <use xlink:href="#DejaVuSans-53"/>
       <use x="63.623047" xlink:href="#DejaVuSans-48"/>
      </g>
     </g>
    </g>
    <g id="xtick_4">
     <g id="line2d_4">
      <g>
       <use style="stroke:#000000;stroke-width:0.8;" x="252.383964" xlink:href="#m972897c49e" y="389.251812"/>
      </g>
     </g>
     <g id="text_4">
      <!-- 75 -->
      <g transform="translate(244.112714 406.129781)scale(0.13 -0.13)">
       <defs>
        <path d="M 8.203125 72.90625 
L 55.078125 72.90625 
L 55.078125 68.703125 
L 28.609375 0 
L 18.3125 0 
L 43.21875 64.59375 
L 8.203125 64.59375 
z
" id="DejaVuSans-55"/>
       </defs>
       <use xlink:href="#DejaVuSans-55"/>
       <use x="63.623047" xlink:href="#DejaVuSans-53"/>
      </g>
     </g>
    </g>
    <g id="xtick_5">
     <g id="line2d_5">
      <g>
       <use style="stroke:#000000;stroke-width:0.8;" x="297.446262" xlink:href="#m972897c49e" y="389.251812"/>
      </g>
     </g>
     <g id="text_5">
      <!-- 100 -->
      <g transform="translate(285.039387 406.129781)scale(0.13 -0.13)">
       <defs>
        <path d="M 12.40625 8.296875 
L 28.515625 8.296875 
L 28.515625 63.921875 
L 10.984375 60.40625 
L 10.984375 69.390625 
L 28.421875 72.90625 
L 38.28125 72.90625 
L 38.28125 8.296875 
L 54.390625 8.296875 
L 54.390625 0 
L 12.40625 0 
z
" id="DejaVuSans-49"/>
       </defs>
       <use xlink:href="#DejaVuSans-49"/>
       <use x="63.623047" xlink:href="#DejaVuSans-48"/>
       <use x="127.246094" xlink:href="#DejaVuSans-48"/>
      </g>
     </g>
    </g>
    <g id="xtick_6">
     <g id="line2d_6">
      <g>
       <use style="stroke:#000000;stroke-width:0.8;" x="342.50856" xlink:href="#m972897c49e" y="389.251812"/>
      </g>
     </g>
     <g id="text_6">
      <!-- 125 -->
      <g transform="translate(330.101685 406.129781)scale(0.13 -0.13)">
       <use xlink:href="#DejaVuSans-49"/>
       <use x="63.623047" xlink:href="#DejaVuSans-50"/>
       <use x="127.246094" xlink:href="#DejaVuSans-53"/>
      </g>
     </g>
    </g>
    <g id="xtick_7">
     <g id="line2d_7">
      <g>
       <use style="stroke:#000000;stroke-width:0.8;" x="387.570858" xlink:href="#m972897c49e" y="389.251812"/>
      </g>
     </g>
     <g id="text_7">
      <!-- 150 -->
      <g transform="translate(375.163983 406.129781)scale(0.13 -0.13)">
       <use xlink:href="#DejaVuSans-49"/>
       <use x="63.623047" xlink:href="#DejaVuSans-53"/>
       <use x="127.246094" xlink:href="#DejaVuSans-48"/>
      </g>
     </g>
    </g>
    <g id="xtick_8">
     <g id="line2d_8">
      <g>
       <use style="stroke:#000000;stroke-width:0.8;" x="432.633156" xlink:href="#m972897c49e" y="389.251812"/>
      </g>
     </g>
     <g id="text_8">
      <!-- 175 -->
      <g transform="translate(420.226281 406.129781)scale(0.13 -0.13)">
       <use xlink:href="#DejaVuSans-49"/>
       <use x="63.623047" xlink:href="#DejaVuSans-55"/>
       <use x="127.246094" xlink:href="#DejaVuSans-53"/>
      </g>
     </g>
    </g>
    <g id="xtick_9">
     <g id="line2d_9">
      <g>
       <use style="stroke:#000000;stroke-width:0.8;" x="477.695455" xlink:href="#m972897c49e" y="389.251812"/>
      </g>
     </g>
     <g id="text_9">
      <!-- 200 -->
      <g transform="translate(465.28858 406.129781)scale(0.13 -0.13)">
       <use xlink:href="#DejaVuSans-50"/>
       <use x="63.623047" xlink:href="#DejaVuSans-48"/>
       <use x="127.246094" xlink:href="#DejaVuSans-48"/>
      </g>
     </g>
    </g>
    <g id="text_10">
     <!-- Number of processed instances [x1000] -->
     <g transform="translate(170.025078 422.711344)scale(0.13 -0.13)">
      <defs>
       <path d="M 9.8125 72.90625 
L 23.09375 72.90625 
L 55.421875 11.921875 
L 55.421875 72.90625 
L 64.984375 72.90625 
L 64.984375 0 
L 51.703125 0 
L 19.390625 60.984375 
L 19.390625 0 
L 9.8125 0 
z
" id="DejaVuSans-78"/>
       <path d="M 8.5 21.578125 
L 8.5 54.6875 
L 17.484375 54.6875 
L 17.484375 21.921875 
Q 17.484375 14.15625 20.5 10.265625 
Q 23.53125 6.390625 29.59375 6.390625 
Q 36.859375 6.390625 41.078125 11.03125 
Q 45.3125 15.671875 45.3125 23.6875 
L 45.3125 54.6875 
L 54.296875 54.6875 
L 54.296875 0 
L 45.3125 0 
L 45.3125 8.40625 
Q 42.046875 3.421875 37.71875 1 
Q 33.40625 -1.421875 27.6875 -1.421875 
Q 18.265625 -1.421875 13.375 4.4375 
Q 8.5 10.296875 8.5 21.578125 
z
M 31.109375 56 
z
" id="DejaVuSans-117"/>
       <path d="M 52 44.1875 
Q 55.375 50.25 60.0625 53.125 
Q 64.75 56 71.09375 56 
Q 79.640625 56 84.28125 50.015625 
Q 88.921875 44.046875 88.921875 33.015625 
L 88.921875 0 
L 79.890625 0 
L 79.890625 32.71875 
Q 79.890625 40.578125 77.09375 44.375 
Q 74.3125 48.1875 68.609375 48.1875 
Q 61.625 48.1875 57.5625 43.546875 
Q 53.515625 38.921875 53.515625 30.90625 
L 53.515625 0 
L 44.484375 0 
L 44.484375 32.71875 
Q 44.484375 40.625 41.703125 44.40625 
Q 38.921875 48.1875 33.109375 48.1875 
Q 26.21875 48.1875 22.15625 43.53125 
Q 18.109375 38.875 18.109375 30.90625 
L 18.109375 0 
L 9.078125 0 
L 9.078125 54.6875 
L 18.109375 54.6875 
L 18.109375 46.1875 
Q 21.1875 51.21875 25.484375 53.609375 
Q 29.78125 56 35.6875 56 
Q 41.65625 56 45.828125 52.96875 
Q 50 49.953125 52 44.1875 
z
" id="DejaVuSans-109"/>
       <path d="M 48.6875 27.296875 
Q 48.6875 37.203125 44.609375 42.84375 
Q 40.53125 48.484375 33.40625 48.484375 
Q 26.265625 48.484375 22.1875 42.84375 
Q 18.109375 37.203125 18.109375 27.296875 
Q 18.109375 17.390625 22.1875 11.75 
Q 26.265625 6.109375 33.40625 6.109375 
Q 40.53125 6.109375 44.609375 11.75 
Q 48.6875 17.390625 48.6875 27.296875 
z
M 18.109375 46.390625 
Q 20.953125 51.265625 25.265625 53.625 
Q 29.59375 56 35.59375 56 
Q 45.5625 56 51.78125 48.09375 
Q 58.015625 40.1875 58.015625 27.296875 
Q 58.015625 14.40625 51.78125 6.484375 
Q 45.5625 -1.421875 35.59375 -1.421875 
Q 29.59375 -1.421875 25.265625 0.953125 
Q 20.953125 3.328125 18.109375 8.203125 
L 18.109375 0 
L 9.078125 0 
L 9.078125 75.984375 
L 18.109375 75.984375 
z
" id="DejaVuSans-98"/>
       <path d="M 56.203125 29.59375 
L 56.203125 25.203125 
L 14.890625 25.203125 
Q 15.484375 15.921875 20.484375 11.0625 
Q 25.484375 6.203125 34.421875 6.203125 
Q 39.59375 6.203125 44.453125 7.46875 
Q 49.3125 8.734375 54.109375 11.28125 
L 54.109375 2.78125 
Q 49.265625 0.734375 44.1875 -0.34375 
Q 39.109375 -1.421875 33.890625 -1.421875 
Q 20.796875 -1.421875 13.15625 6.1875 
Q 5.515625 13.8125 5.515625 26.8125 
Q 5.515625 40.234375 12.765625 48.109375 
Q 20.015625 56 32.328125 56 
Q 43.359375 56 49.78125 48.890625 
Q 56.203125 41.796875 56.203125 29.59375 
z
M 47.21875 32.234375 
Q 47.125 39.59375 43.09375 43.984375 
Q 39.0625 48.390625 32.421875 48.390625 
Q 24.90625 48.390625 20.390625 44.140625 
Q 15.875 39.890625 15.1875 32.171875 
z
" id="DejaVuSans-101"/>
       <path d="M 41.109375 46.296875 
Q 39.59375 47.171875 37.8125 47.578125 
Q 36.03125 48 33.890625 48 
Q 26.265625 48 22.1875 43.046875 
Q 18.109375 38.09375 18.109375 28.8125 
L 18.109375 0 
L 9.078125 0 
L 9.078125 54.6875 
L 18.109375 54.6875 
L 18.109375 46.1875 
Q 20.953125 51.171875 25.484375 53.578125 
Q 30.03125 56 36.53125 56 
Q 37.453125 56 38.578125 55.875 
Q 39.703125 55.765625 41.0625 55.515625 
z
" id="DejaVuSans-114"/>
       <path id="DejaVuSans-32"/>
       <path d="M 30.609375 48.390625 
Q 23.390625 48.390625 19.1875 42.75 
Q 14.984375 37.109375 14.984375 27.296875 
Q 14.984375 17.484375 19.15625 11.84375 
Q 23.34375 6.203125 30.609375 6.203125 
Q 37.796875 6.203125 41.984375 11.859375 
Q 46.1875 17.53125 46.1875 27.296875 
Q 46.1875 37.015625 41.984375 42.703125 
Q 37.796875 48.390625 30.609375 48.390625 
z
M 30.609375 56 
Q 42.328125 56 49.015625 48.375 
Q 55.71875 40.765625 55.71875 27.296875 
Q 55.71875 13.875 49.015625 6.21875 
Q 42.328125 -1.421875 30.609375 -1.421875 
Q 18.84375 -1.421875 12.171875 6.21875 
Q 5.515625 13.875 5.515625 27.296875 
Q 5.515625 40.765625 12.171875 48.375 
Q 18.84375 56 30.609375 56 
z
" id="DejaVuSans-111"/>
       <path d="M 37.109375 75.984375 
L 37.109375 68.5 
L 28.515625 68.5 
Q 23.6875 68.5 21.796875 66.546875 
Q 19.921875 64.59375 19.921875 59.515625 
L 19.921875 54.6875 
L 34.71875 54.6875 
L 34.71875 47.703125 
L 19.921875 47.703125 
L 19.921875 0 
L 10.890625 0 
L 10.890625 47.703125 
L 2.296875 47.703125 
L 2.296875 54.6875 
L 10.890625 54.6875 
L 10.890625 58.5 
Q 10.890625 67.625 15.140625 71.796875 
Q 19.390625 75.984375 28.609375 75.984375 
z
" id="DejaVuSans-102"/>
       <path d="M 18.109375 8.203125 
L 18.109375 -20.796875 
L 9.078125 -20.796875 
L 9.078125 54.6875 
L 18.109375 54.6875 
L 18.109375 46.390625 
Q 20.953125 51.265625 25.265625 53.625 
Q 29.59375 56 35.59375 56 
Q 45.5625 56 51.78125 48.09375 
Q 58.015625 40.1875 58.015625 27.296875 
Q 58.015625 14.40625 51.78125 6.484375 
Q 45.5625 -1.421875 35.59375 -1.421875 
Q 29.59375 -1.421875 25.265625 0.953125 
Q 20.953125 3.328125 18.109375 8.203125 
z
M 48.6875 27.296875 
Q 48.6875 37.203125 44.609375 42.84375 
Q 40.53125 48.484375 33.40625 48.484375 
Q 26.265625 48.484375 22.1875 42.84375 
Q 18.109375 37.203125 18.109375 27.296875 
Q 18.109375 17.390625 22.1875 11.75 
Q 26.265625 6.109375 33.40625 6.109375 
Q 40.53125 6.109375 44.609375 11.75 
Q 48.6875 17.390625 48.6875 27.296875 
z
" id="DejaVuSans-112"/>
       <path d="M 48.78125 52.59375 
L 48.78125 44.1875 
Q 44.96875 46.296875 41.140625 47.34375 
Q 37.3125 48.390625 33.40625 48.390625 
Q 24.65625 48.390625 19.8125 42.84375 
Q 14.984375 37.3125 14.984375 27.296875 
Q 14.984375 17.28125 19.8125 11.734375 
Q 24.65625 6.203125 33.40625 6.203125 
Q 37.3125 6.203125 41.140625 7.25 
Q 44.96875 8.296875 48.78125 10.40625 
L 48.78125 2.09375 
Q 45.015625 0.34375 40.984375 -0.53125 
Q 36.96875 -1.421875 32.421875 -1.421875 
Q 20.0625 -1.421875 12.78125 6.34375 
Q 5.515625 14.109375 5.515625 27.296875 
Q 5.515625 40.671875 12.859375 48.328125 
Q 20.21875 56 33.015625 56 
Q 37.15625 56 41.109375 55.140625 
Q 45.0625 54.296875 48.78125 52.59375 
z
" id="DejaVuSans-99"/>
       <path d="M 44.28125 53.078125 
L 44.28125 44.578125 
Q 40.484375 46.53125 36.375 47.5 
Q 32.28125 48.484375 27.875 48.484375 
Q 21.1875 48.484375 17.84375 46.4375 
Q 14.5 44.390625 14.5 40.28125 
Q 14.5 37.15625 16.890625 35.375 
Q 19.28125 33.59375 26.515625 31.984375 
L 29.59375 31.296875 
Q 39.15625 29.25 43.1875 25.515625 
Q 47.21875 21.78125 47.21875 15.09375 
Q 47.21875 7.46875 41.1875 3.015625 
Q 35.15625 -1.421875 24.609375 -1.421875 
Q 20.21875 -1.421875 15.453125 -0.5625 
Q 10.6875 0.296875 5.421875 2 
L 5.421875 11.28125 
Q 10.40625 8.6875 15.234375 7.390625 
Q 20.0625 6.109375 24.8125 6.109375 
Q 31.15625 6.109375 34.5625 8.28125 
Q 37.984375 10.453125 37.984375 14.40625 
Q 37.984375 18.0625 35.515625 20.015625 
Q 33.0625 21.96875 24.703125 23.78125 
L 21.578125 24.515625 
Q 13.234375 26.265625 9.515625 29.90625 
Q 5.8125 33.546875 5.8125 39.890625 
Q 5.8125 47.609375 11.28125 51.796875 
Q 16.75 56 26.8125 56 
Q 31.78125 56 36.171875 55.265625 
Q 40.578125 54.546875 44.28125 53.078125 
z
" id="DejaVuSans-115"/>
       <path d="M 45.40625 46.390625 
L 45.40625 75.984375 
L 54.390625 75.984375 
L 54.390625 0 
L 45.40625 0 
L 45.40625 8.203125 
Q 42.578125 3.328125 38.25 0.953125 
Q 33.9375 -1.421875 27.875 -1.421875 
Q 17.96875 -1.421875 11.734375 6.484375 
Q 5.515625 14.40625 5.515625 27.296875 
Q 5.515625 40.1875 11.734375 48.09375 
Q 17.96875 56 27.875 56 
Q 33.9375 56 38.25 53.625 
Q 42.578125 51.265625 45.40625 46.390625 
z
M 14.796875 27.296875 
Q 14.796875 17.390625 18.875 11.75 
Q 22.953125 6.109375 30.078125 6.109375 
Q 37.203125 6.109375 41.296875 11.75 
Q 45.40625 17.390625 45.40625 27.296875 
Q 45.40625 37.203125 41.296875 42.84375 
Q 37.203125 48.484375 30.078125 48.484375 
Q 22.953125 48.484375 18.875 42.84375 
Q 14.796875 37.203125 14.796875 27.296875 
z
" id="DejaVuSans-100"/>
       <path d="M 9.421875 54.6875 
L 18.40625 54.6875 
L 18.40625 0 
L 9.421875 0 
z
M 9.421875 75.984375 
L 18.40625 75.984375 
L 18.40625 64.59375 
L 9.421875 64.59375 
z
" id="DejaVuSans-105"/>
       <path d="M 54.890625 33.015625 
L 54.890625 0 
L 45.90625 0 
L 45.90625 32.71875 
Q 45.90625 40.484375 42.875 44.328125 
Q 39.84375 48.1875 33.796875 48.1875 
Q 26.515625 48.1875 22.3125 43.546875 
Q 18.109375 38.921875 18.109375 30.90625 
L 18.109375 0 
L 9.078125 0 
L 9.078125 54.6875 
L 18.109375 54.6875 
L 18.109375 46.1875 
Q 21.34375 51.125 25.703125 53.5625 
Q 30.078125 56 35.796875 56 
Q 45.21875 56 50.046875 50.171875 
Q 54.890625 44.34375 54.890625 33.015625 
z
" id="DejaVuSans-110"/>
       <path d="M 18.3125 70.21875 
L 18.3125 54.6875 
L 36.8125 54.6875 
L 36.8125 47.703125 
L 18.3125 47.703125 
L 18.3125 18.015625 
Q 18.3125 11.328125 20.140625 9.421875 
Q 21.96875 7.515625 27.59375 7.515625 
L 36.8125 7.515625 
L 36.8125 0 
L 27.59375 0 
Q 17.1875 0 13.234375 3.875 
Q 9.28125 7.765625 9.28125 18.015625 
L 9.28125 47.703125 
L 2.6875 47.703125 
L 2.6875 54.6875 
L 9.28125 54.6875 
L 9.28125 70.21875 
z
" id="DejaVuSans-116"/>
       <path d="M 34.28125 27.484375 
Q 23.390625 27.484375 19.1875 25 
Q 14.984375 22.515625 14.984375 16.5 
Q 14.984375 11.71875 18.140625 8.90625 
Q 21.296875 6.109375 26.703125 6.109375 
Q 34.1875 6.109375 38.703125 11.40625 
Q 43.21875 16.703125 43.21875 25.484375 
L 43.21875 27.484375 
z
M 52.203125 31.203125 
L 52.203125 0 
L 43.21875 0 
L 43.21875 8.296875 
Q 40.140625 3.328125 35.546875 0.953125 
Q 30.953125 -1.421875 24.3125 -1.421875 
Q 15.921875 -1.421875 10.953125 3.296875 
Q 6 8.015625 6 15.921875 
Q 6 25.140625 12.171875 29.828125 
Q 18.359375 34.515625 30.609375 34.515625 
L 43.21875 34.515625 
L 43.21875 35.40625 
Q 43.21875 41.609375 39.140625 45 
Q 35.0625 48.390625 27.6875 48.390625 
Q 23 48.390625 18.546875 47.265625 
Q 14.109375 46.140625 10.015625 43.890625 
L 10.015625 52.203125 
Q 14.9375 54.109375 19.578125 55.046875 
Q 24.21875 56 28.609375 56 
Q 40.484375 56 46.34375 49.84375 
Q 52.203125 43.703125 52.203125 31.203125 
z
" id="DejaVuSans-97"/>
       <path d="M 8.59375 75.984375 
L 29.296875 75.984375 
L 29.296875 69 
L 17.578125 69 
L 17.578125 -6.203125 
L 29.296875 -6.203125 
L 29.296875 -13.1875 
L 8.59375 -13.1875 
z
" id="DejaVuSans-91"/>
       <path d="M 54.890625 54.6875 
L 35.109375 28.078125 
L 55.90625 0 
L 45.3125 0 
L 29.390625 21.484375 
L 13.484375 0 
L 2.875 0 
L 24.125 28.609375 
L 4.6875 54.6875 
L 15.28125 54.6875 
L 29.78125 35.203125 
L 44.28125 54.6875 
z
" id="DejaVuSans-120"/>
       <path d="M 30.421875 75.984375 
L 30.421875 -13.1875 
L 9.71875 -13.1875 
L 9.71875 -6.203125 
L 21.390625 -6.203125 
L 21.390625 69 
L 9.71875 69 
L 9.71875 75.984375 
z
" id="DejaVuSans-93"/>
      </defs>
      <use xlink:href="#DejaVuSans-78"/>
      <use x="74.804688" xlink:href="#DejaVuSans-117"/>
      <use x="138.183594" xlink:href="#DejaVuSans-109"/>
      <use x="235.595703" xlink:href="#DejaVuSans-98"/>
      <use x="299.072266" xlink:href="#DejaVuSans-101"/>
      <use x="360.595703" xlink:href="#DejaVuSans-114"/>
      <use x="401.708984" xlink:href="#DejaVuSans-32"/>
      <use x="433.496094" xlink:href="#DejaVuSans-111"/>
      <use x="494.677734" xlink:href="#DejaVuSans-102"/>
      <use x="529.882812" xlink:href="#DejaVuSans-32"/>
      <use x="561.669922" xlink:href="#DejaVuSans-112"/>
      <use x="625.146484" xlink:href="#DejaVuSans-114"/>
      <use x="664.009766" xlink:href="#DejaVuSans-111"/>
      <use x="725.191406" xlink:href="#DejaVuSans-99"/>
      <use x="780.171875" xlink:href="#DejaVuSans-101"/>
      <use x="841.695312" xlink:href="#DejaVuSans-115"/>
      <use x="893.794922" xlink:href="#DejaVuSans-115"/>
      <use x="945.894531" xlink:href="#DejaVuSans-101"/>
      <use x="1007.417969" xlink:href="#DejaVuSans-100"/>
      <use x="1070.894531" xlink:href="#DejaVuSans-32"/>
      <use x="1102.681641" xlink:href="#DejaVuSans-105"/>
      <use x="1130.464844" xlink:href="#DejaVuSans-110"/>
      <use x="1193.84375" xlink:href="#DejaVuSans-115"/>
      <use x="1245.943359" xlink:href="#DejaVuSans-116"/>
      <use x="1285.152344" xlink:href="#DejaVuSans-97"/>
      <use x="1346.431641" xlink:href="#DejaVuSans-110"/>
      <use x="1409.810547" xlink:href="#DejaVuSans-99"/>
      <use x="1464.791016" xlink:href="#DejaVuSans-101"/>
      <use x="1526.314453" xlink:href="#DejaVuSans-115"/>
      <use x="1578.414062" xlink:href="#DejaVuSans-32"/>
      <use x="1610.201172" xlink:href="#DejaVuSans-91"/>
      <use x="1649.214844" xlink:href="#DejaVuSans-120"/>
      <use x="1708.394531" xlink:href="#DejaVuSans-49"/>
      <use x="1772.017578" xlink:href="#DejaVuSans-48"/>
      <use x="1835.640625" xlink:href="#DejaVuSans-48"/>
      <use x="1899.263672" xlink:href="#DejaVuSans-48"/>
      <use x="1962.886719" xlink:href="#DejaVuSans-93"/>
     </g>
    </g>
   </g>
   <g id="matplotlib.axis_2">
    <g id="ytick_1">
     <g id="line2d_10">
      <defs>
       <path d="M 0 0 
L -3.5 0 
" id="m1c2f0791c2" style="stroke:#000000;stroke-width:0.8;"/>
      </defs>
      <g>
       <use style="stroke:#000000;stroke-width:0.8;" x="104.85" xlink:href="#m1c2f0791c2" y="383.749705"/>
      </g>
     </g>
     <g id="text_11">
      <!-- 0.2 -->
      <g transform="translate(77.175937 388.68869)scale(0.13 -0.13)">
       <defs>
        <path d="M 10.6875 12.40625 
L 21 12.40625 
L 21 0 
L 10.6875 0 
z
" id="DejaVuSans-46"/>
       </defs>
       <use xlink:href="#DejaVuSans-48"/>
       <use x="63.623047" xlink:href="#DejaVuSans-46"/>
       <use x="95.410156" xlink:href="#DejaVuSans-50"/>
      </g>
     </g>
    </g>
    <g id="ytick_2">
     <g id="line2d_11">
      <g>
       <use style="stroke:#000000;stroke-width:0.8;" x="104.85" xlink:href="#m1c2f0791c2" y="322.748489"/>
      </g>
     </g>
     <g id="text_12">
      <!-- 0.3 -->
      <g transform="translate(77.175937 327.687473)scale(0.13 -0.13)">
       <defs>
        <path d="M 40.578125 39.3125 
Q 47.65625 37.796875 51.625 33 
Q 55.609375 28.21875 55.609375 21.1875 
Q 55.609375 10.40625 48.1875 4.484375 
Q 40.765625 -1.421875 27.09375 -1.421875 
Q 22.515625 -1.421875 17.65625 -0.515625 
Q 12.796875 0.390625 7.625 2.203125 
L 7.625 11.71875 
Q 11.71875 9.328125 16.59375 8.109375 
Q 21.484375 6.890625 26.8125 6.890625 
Q 36.078125 6.890625 40.9375 10.546875 
Q 45.796875 14.203125 45.796875 21.1875 
Q 45.796875 27.640625 41.28125 31.265625 
Q 36.765625 34.90625 28.71875 34.90625 
L 20.21875 34.90625 
L 20.21875 43.015625 
L 29.109375 43.015625 
Q 36.375 43.015625 40.234375 45.921875 
Q 44.09375 48.828125 44.09375 54.296875 
Q 44.09375 59.90625 40.109375 62.90625 
Q 36.140625 65.921875 28.71875 65.921875 
Q 24.65625 65.921875 20.015625 65.03125 
Q 15.375 64.15625 9.8125 62.3125 
L 9.8125 71.09375 
Q 15.4375 72.65625 20.34375 73.4375 
Q 25.25 74.21875 29.59375 74.21875 
Q 40.828125 74.21875 47.359375 69.109375 
Q 53.90625 64.015625 53.90625 55.328125 
Q 53.90625 49.265625 50.4375 45.09375 
Q 46.96875 40.921875 40.578125 39.3125 
z
" id="DejaVuSans-51"/>
       </defs>
       <use xlink:href="#DejaVuSans-48"/>
       <use x="63.623047" xlink:href="#DejaVuSans-46"/>
       <use x="95.410156" xlink:href="#DejaVuSans-51"/>
      </g>
     </g>
    </g>
    <g id="ytick_3">
     <g id="line2d_12">
      <g>
       <use style="stroke:#000000;stroke-width:0.8;" x="104.85" xlink:href="#m1c2f0791c2" y="261.747273"/>
      </g>
     </g>
     <g id="text_13">
      <!-- 0.4 -->
      <g transform="translate(77.175937 266.686257)scale(0.13 -0.13)">
       <defs>
        <path d="M 37.796875 64.3125 
L 12.890625 25.390625 
L 37.796875 25.390625 
z
M 35.203125 72.90625 
L 47.609375 72.90625 
L 47.609375 25.390625 
L 58.015625 25.390625 
L 58.015625 17.1875 
L 47.609375 17.1875 
L 47.609375 0 
L 37.796875 0 
L 37.796875 17.1875 
L 4.890625 17.1875 
L 4.890625 26.703125 
z
" id="DejaVuSans-52"/>
       </defs>
       <use xlink:href="#DejaVuSans-48"/>
       <use x="63.623047" xlink:href="#DejaVuSans-46"/>
       <use x="95.410156" xlink:href="#DejaVuSans-52"/>
      </g>
     </g>
    </g>
    <g id="ytick_4">
     <g id="line2d_13">
      <g>
       <use style="stroke:#000000;stroke-width:0.8;" x="104.85" xlink:href="#m1c2f0791c2" y="200.746056"/>
      </g>
     </g>
     <g id="text_14">
      <!-- 0.5 -->
      <g transform="translate(77.175937 205.68504)scale(0.13 -0.13)">
       <use xlink:href="#DejaVuSans-48"/>
       <use x="63.623047" xlink:href="#DejaVuSans-46"/>
       <use x="95.410156" xlink:href="#DejaVuSans-53"/>
      </g>
     </g>
    </g>
    <g id="ytick_5">
     <g id="line2d_14">
      <g>
       <use style="stroke:#000000;stroke-width:0.8;" x="104.85" xlink:href="#m1c2f0791c2" y="139.74484"/>
      </g>
     </g>
     <g id="text_15">
      <!-- 0.6 -->
      <g transform="translate(77.175937 144.683824)scale(0.13 -0.13)">
       <defs>
        <path d="M 33.015625 40.375 
Q 26.375 40.375 22.484375 35.828125 
Q 18.609375 31.296875 18.609375 23.390625 
Q 18.609375 15.53125 22.484375 10.953125 
Q 26.375 6.390625 33.015625 6.390625 
Q 39.65625 6.390625 43.53125 10.953125 
Q 47.40625 15.53125 47.40625 23.390625 
Q 47.40625 31.296875 43.53125 35.828125 
Q 39.65625 40.375 33.015625 40.375 
z
M 52.59375 71.296875 
L 52.59375 62.3125 
Q 48.875 64.0625 45.09375 64.984375 
Q 41.3125 65.921875 37.59375 65.921875 
Q 27.828125 65.921875 22.671875 59.328125 
Q 17.53125 52.734375 16.796875 39.40625 
Q 19.671875 43.65625 24.015625 45.921875 
Q 28.375 48.1875 33.59375 48.1875 
Q 44.578125 48.1875 50.953125 41.515625 
Q 57.328125 34.859375 57.328125 23.390625 
Q 57.328125 12.15625 50.6875 5.359375 
Q 44.046875 -1.421875 33.015625 -1.421875 
Q 20.359375 -1.421875 13.671875 8.265625 
Q 6.984375 17.96875 6.984375 36.375 
Q 6.984375 53.65625 15.1875 63.9375 
Q 23.390625 74.21875 37.203125 74.21875 
Q 40.921875 74.21875 44.703125 73.484375 
Q 48.484375 72.75 52.59375 71.296875 
z
" id="DejaVuSans-54"/>
       </defs>
       <use xlink:href="#DejaVuSans-48"/>
       <use x="63.623047" xlink:href="#DejaVuSans-46"/>
       <use x="95.410156" xlink:href="#DejaVuSans-54"/>
      </g>
     </g>
    </g>
    <g id="text_16">
     <!-- G-Mean -->
     <g transform="translate(70.472344 275.743844)rotate(-90)scale(0.13 -0.13)">
      <defs>
       <path d="M 59.515625 10.40625 
L 59.515625 29.984375 
L 43.40625 29.984375 
L 43.40625 38.09375 
L 69.28125 38.09375 
L 69.28125 6.78125 
Q 63.578125 2.734375 56.6875 0.65625 
Q 49.8125 -1.421875 42 -1.421875 
Q 24.90625 -1.421875 15.25 8.5625 
Q 5.609375 18.5625 5.609375 36.375 
Q 5.609375 54.25 15.25 64.234375 
Q 24.90625 74.21875 42 74.21875 
Q 49.125 74.21875 55.546875 72.453125 
Q 61.96875 70.703125 67.390625 67.28125 
L 67.390625 56.78125 
Q 61.921875 61.421875 55.765625 63.765625 
Q 49.609375 66.109375 42.828125 66.109375 
Q 29.4375 66.109375 22.71875 58.640625 
Q 16.015625 51.171875 16.015625 36.375 
Q 16.015625 21.625 22.71875 14.15625 
Q 29.4375 6.6875 42.828125 6.6875 
Q 48.046875 6.6875 52.140625 7.59375 
Q 56.25 8.5 59.515625 10.40625 
z
" id="DejaVuSans-71"/>
       <path d="M 4.890625 31.390625 
L 31.203125 31.390625 
L 31.203125 23.390625 
L 4.890625 23.390625 
z
" id="DejaVuSans-45"/>
       <path d="M 9.8125 72.90625 
L 24.515625 72.90625 
L 43.109375 23.296875 
L 61.8125 72.90625 
L 76.515625 72.90625 
L 76.515625 0 
L 66.890625 0 
L 66.890625 64.015625 
L 48.09375 14.015625 
L 38.1875 14.015625 
L 19.390625 64.015625 
L 19.390625 0 
L 9.8125 0 
z
" id="DejaVuSans-77"/>
      </defs>
      <use xlink:href="#DejaVuSans-71"/>
      <use x="77.490234" xlink:href="#DejaVuSans-45"/>
      <use x="113.574219" xlink:href="#DejaVuSans-77"/>
      <use x="199.853516" xlink:href="#DejaVuSans-101"/>
      <use x="261.376953" xlink:href="#DejaVuSans-97"/>
      <use x="322.65625" xlink:href="#DejaVuSans-110"/>
     </g>
    </g>
   </g>
   <g id="line2d_15"/>
   <g id="line2d_16"/>
   <g id="line2d_17"/>
   <g id="line2d_18"/>
   <g id="line2d_19"/>
   <g id="line2d_20">
    <path clip-path="url(#pc097e7547b)" d="M 122.604545 185.014007 
L 124.407037 185.711966 
L 126.209529 188.103362 
L 129.814513 186.150524 
L 131.617005 183.58862 
L 133.419497 185.901354 
L 135.221989 186.534879 
L 137.024481 186.7884 
L 138.826973 185.450284 
L 140.629465 185.118463 
L 144.234449 189.083284 
L 146.03694 189.899114 
L 147.839432 189.731157 
L 149.641924 186.285723 
L 151.444416 181.433474 
L 153.246908 179.439905 
L 155.0494 177.828218 
L 156.851892 175.27254 
L 158.654384 173.354753 
L 160.456876 171.17395 
L 164.06186 167.777373 
L 165.864352 165.473857 
L 167.666844 164.224473 
L 169.469335 162.673021 
L 171.271827 160.369921 
L 173.074319 160.453097 
L 174.876811 162.247297 
L 176.679303 161.622387 
L 178.481795 160.340398 
L 180.284287 159.32487 
L 182.086779 158.753332 
L 183.889271 158.71061 
L 185.691763 159.993922 
L 187.494255 163.313815 
L 189.296747 165.011758 
L 191.099239 166.108969 
L 192.901731 168.021758 
L 194.704222 170.743062 
L 196.506714 171.592757 
L 198.309206 170.005517 
L 200.111698 169.056592 
L 201.91419 171.052617 
L 203.716682 171.093559 
L 205.519174 170.686216 
L 207.321666 169.778737 
L 209.124158 166.742925 
L 210.92665 161.441778 
L 212.729142 159.717816 
L 214.531634 157.008935 
L 216.334126 153.540925 
L 218.136617 149.760067 
L 219.939109 147.28102 
L 221.741601 146.572345 
L 223.544093 144.782904 
L 225.346585 144.625504 
L 227.149077 143.79002 
L 228.951569 145.445182 
L 230.754061 142.434373 
L 232.556553 143.84916 
L 234.359045 146.444546 
L 236.161537 147.782808 
L 237.964029 147.735989 
L 239.766521 146.406943 
L 241.569012 144.930686 
L 243.371504 146.500691 
L 245.173996 146.100997 
L 248.77898 151.627384 
L 250.581472 151.226868 
L 252.383964 152.363254 
L 254.186456 152.933511 
L 255.988948 155.356898 
L 259.593932 154.322303 
L 261.396424 151.282032 
L 263.198916 150.134389 
L 265.001407 147.289489 
L 266.803899 148.354124 
L 268.606391 144.257334 
L 270.408883 140.794936 
L 272.211375 138.702106 
L 274.013867 138.198646 
L 275.816359 136.843494 
L 277.618851 137.794823 
L 279.421343 137.219866 
L 281.223835 135.940162 
L 283.026327 131.283799 
L 284.828819 129.665538 
L 286.631311 130.253839 
L 288.433802 129.809915 
L 290.236294 131.687189 
L 292.038786 129.168115 
L 293.841278 128.870673 
L 295.64377 131.198083 
L 299.248754 131.819458 
L 301.051246 130.207736 
L 302.853738 129.290857 
L 304.65623 130.123531 
L 306.458722 130.094414 
L 308.261214 132.471475 
L 310.063706 130.294319 
L 311.866198 133.078606 
L 313.668689 132.304496 
L 315.471181 132.842422 
L 317.273673 133.073847 
L 319.076165 138.711294 
L 320.878657 136.875353 
L 322.681149 137.808402 
L 324.483641 140.645882 
L 326.286133 139.555625 
L 328.088625 138.832351 
L 329.891117 139.668208 
L 331.693609 137.884117 
L 333.496101 139.181274 
L 335.298593 139.030382 
L 337.101084 138.149844 
L 338.903576 138.720856 
L 340.706068 140.438832 
L 342.50856 142.694767 
L 346.113544 145.392524 
L 347.916036 146.431877 
L 349.718528 149.691064 
L 351.52102 150.570059 
L 353.323512 153.527709 
L 355.126004 152.491783 
L 356.928496 155.732696 
L 358.730988 156.761318 
L 360.533479 153.81123 
L 362.335971 154.595117 
L 364.138463 155.964303 
L 365.940955 155.349056 
L 369.545939 156.339322 
L 373.150923 159.059687 
L 374.953415 156.857025 
L 376.755907 153.943054 
L 378.558399 154.004178 
L 380.360891 151.249346 
L 382.163383 150.192262 
L 383.965874 146.93899 
L 385.768366 142.860921 
L 387.570858 140.554608 
L 389.37335 143.809946 
L 391.175842 143.985 
L 392.978334 142.253397 
L 394.780826 140.729784 
L 396.583318 138.886568 
L 398.38581 138.690444 
L 400.188302 135.400242 
L 401.990794 134.658737 
L 403.793286 132.352717 
L 407.398269 131.739176 
L 409.200761 132.031661 
L 411.003253 133.576469 
L 412.805745 136.200903 
L 414.608237 133.161975 
L 416.410729 136.054873 
L 418.213221 135.224764 
L 420.015713 137.063208 
L 421.818205 139.846486 
L 423.620697 138.994791 
L 425.423189 136.661505 
L 427.225681 135.76957 
L 429.028173 135.805332 
L 430.830665 132.837701 
L 432.633156 136.519824 
L 434.435648 135.378746 
L 436.23814 139.290338 
L 438.040632 138.127108 
L 439.843124 136.687898 
L 441.645616 135.498192 
L 443.448108 132.754272 
L 447.053092 132.857858 
L 448.855584 132.602632 
L 450.658076 135.591986 
L 452.460568 132.256051 
L 454.26306 132.371811 
L 457.868043 129.037546 
L 459.670535 128.189172 
L 461.473027 126.578379 
L 463.275519 127.2014 
L 465.078011 124.773916 
L 466.880503 126.055801 
L 468.682995 124.651813 
L 470.485487 126.033784 
L 472.287979 124.893542 
L 474.090471 127.880971 
L 475.892963 131.326279 
L 477.695455 130.163297 
L 477.695455 130.163297 
" style="fill:none;stroke:#cc3311;stroke-linecap:square;stroke-width:0.5;"/>
    <defs>
     <path d="M 0 2.5 
C 0.663008 2.5 1.29895 2.236584 1.767767 1.767767 
C 2.236584 1.29895 2.5 0.663008 2.5 0 
C 2.5 -0.663008 2.236584 -1.29895 1.767767 -1.767767 
C 1.29895 -2.236584 0.663008 -2.5 0 -2.5 
C -0.663008 -2.5 -1.29895 -2.236584 -1.767767 -1.767767 
C -2.236584 -1.29895 -2.5 -0.663008 -2.5 0 
C -2.5 0.663008 -2.236584 1.29895 -1.767767 1.767767 
C -1.29895 2.236584 -0.663008 2.5 0 2.5 
z
" id="m7dddf06953" style="stroke:#cc3311;"/>
    </defs>
    <g clip-path="url(#pc097e7547b)">
     <use style="fill:#cc3311;stroke:#cc3311;" x="122.604545" xlink:href="#m7dddf06953" y="185.014007"/>
     <use style="fill:#cc3311;stroke:#cc3311;" x="140.629465" xlink:href="#m7dddf06953" y="185.118463"/>
     <use style="fill:#cc3311;stroke:#cc3311;" x="158.654384" xlink:href="#m7dddf06953" y="173.354753"/>
     <use style="fill:#cc3311;stroke:#cc3311;" x="176.679303" xlink:href="#m7dddf06953" y="161.622387"/>
     <use style="fill:#cc3311;stroke:#cc3311;" x="194.704222" xlink:href="#m7dddf06953" y="170.743062"/>
     <use style="fill:#cc3311;stroke:#cc3311;" x="212.729142" xlink:href="#m7dddf06953" y="159.717816"/>
     <use style="fill:#cc3311;stroke:#cc3311;" x="230.754061" xlink:href="#m7dddf06953" y="142.434373"/>
     <use style="fill:#cc3311;stroke:#cc3311;" x="248.77898" xlink:href="#m7dddf06953" y="151.627384"/>
     <use style="fill:#cc3311;stroke:#cc3311;" x="266.803899" xlink:href="#m7dddf06953" y="148.354124"/>
     <use style="fill:#cc3311;stroke:#cc3311;" x="284.828819" xlink:href="#m7dddf06953" y="129.665538"/>
     <use style="fill:#cc3311;stroke:#cc3311;" x="302.853738" xlink:href="#m7dddf06953" y="129.290857"/>
     <use style="fill:#cc3311;stroke:#cc3311;" x="320.878657" xlink:href="#m7dddf06953" y="136.875353"/>
     <use style="fill:#cc3311;stroke:#cc3311;" x="338.903576" xlink:href="#m7dddf06953" y="138.720856"/>
     <use style="fill:#cc3311;stroke:#cc3311;" x="356.928496" xlink:href="#m7dddf06953" y="155.732696"/>
     <use style="fill:#cc3311;stroke:#cc3311;" x="374.953415" xlink:href="#m7dddf06953" y="156.857025"/>
     <use style="fill:#cc3311;stroke:#cc3311;" x="392.978334" xlink:href="#m7dddf06953" y="142.253397"/>
     <use style="fill:#cc3311;stroke:#cc3311;" x="411.003253" xlink:href="#m7dddf06953" y="133.576469"/>
     <use style="fill:#cc3311;stroke:#cc3311;" x="429.028173" xlink:href="#m7dddf06953" y="135.805332"/>
     <use style="fill:#cc3311;stroke:#cc3311;" x="447.053092" xlink:href="#m7dddf06953" y="132.857858"/>
     <use style="fill:#cc3311;stroke:#cc3311;" x="465.078011" xlink:href="#m7dddf06953" y="124.773916"/>
    </g>
   </g>
   <g id="line2d_21"/>
   <g id="line2d_22"/>
   <g id="line2d_23"/>
   <g id="line2d_24"/>
   <g id="line2d_25">
    <path clip-path="url(#pc097e7547b)" d="M 122.604545 279.776307 
L 124.407037 277.222856 
L 126.209529 311.313062 
L 128.012021 359.922831 
L 129.814513 376.163561 
L 131.617005 373.798116 
L 133.419497 372.914326 
L 135.221989 376.651813 
L 137.024481 369.151195 
L 138.826973 363.54222 
L 140.629465 356.237594 
L 142.431957 354.399464 
L 146.03694 344.152504 
L 149.641924 331.542217 
L 151.444416 322.802868 
L 153.246908 318.692521 
L 156.851892 309.355059 
L 158.654384 308.840949 
L 160.456876 307.000804 
L 162.259368 298.831792 
L 164.06186 286.891216 
L 165.864352 276.686162 
L 167.666844 269.925487 
L 169.469335 263.980091 
L 171.271827 254.818476 
L 173.074319 251.203149 
L 174.876811 249.835943 
L 176.679303 245.764374 
L 178.481795 243.19977 
L 182.086779 240.909041 
L 183.889271 240.107039 
L 185.691763 238.968156 
L 187.494255 243.54354 
L 189.296747 244.752626 
L 191.099239 245.272314 
L 192.901731 246.768061 
L 194.704222 246.805836 
L 196.506714 247.731435 
L 198.309206 248.839358 
L 200.111698 246.495225 
L 201.91419 246.116535 
L 203.716682 246.274861 
L 205.519174 246.696142 
L 207.321666 244.857926 
L 209.124158 245.570235 
L 210.92665 241.204215 
L 212.729142 242.42343 
L 214.531634 239.609031 
L 216.334126 236.15242 
L 218.136617 231.79437 
L 219.939109 229.68508 
L 221.741601 228.572796 
L 223.544093 226.401249 
L 225.346585 225.762746 
L 227.149077 225.86186 
L 228.951569 224.717157 
L 230.754061 222.890365 
L 232.556553 222.705038 
L 234.359045 222.988641 
L 237.964029 226.477637 
L 239.766521 227.343088 
L 241.569012 226.781225 
L 243.371504 231.038691 
L 245.173996 229.310893 
L 246.976488 230.593173 
L 250.581472 232.70099 
L 252.383964 234.467347 
L 254.186456 235.932471 
L 255.988948 239.27878 
L 259.593932 240.24294 
L 261.396424 238.502209 
L 263.198916 237.857616 
L 265.001407 240.299799 
L 266.803899 240.866308 
L 268.606391 237.323024 
L 270.408883 234.435664 
L 272.211375 233.23559 
L 274.013867 230.060698 
L 275.816359 231.683648 
L 277.618851 228.365148 
L 279.421343 226.559312 
L 281.223835 227.183821 
L 283.026327 226.953895 
L 284.828819 227.404502 
L 286.631311 225.969858 
L 288.433802 228.110697 
L 290.236294 229.0288 
L 292.038786 228.288969 
L 293.841278 228.990656 
L 295.64377 228.560891 
L 297.446262 228.491126 
L 299.248754 228.033315 
L 301.051246 224.265199 
L 302.853738 224.638058 
L 304.65623 224.857573 
L 306.458722 228.662251 
L 308.261214 231.30152 
L 310.063706 229.803527 
L 311.866198 226.71323 
L 313.668689 229.737136 
L 315.471181 227.230429 
L 317.273673 224.056381 
L 319.076165 224.918764 
L 320.878657 226.089623 
L 322.681149 226.101571 
L 324.483641 224.812219 
L 326.286133 225.132695 
L 328.088625 222.807561 
L 329.891117 223.869826 
L 331.693609 222.813938 
L 333.496101 222.231409 
L 335.298593 221.920723 
L 337.101084 222.831139 
L 338.903576 221.497416 
L 340.706068 224.098859 
L 342.50856 222.669829 
L 344.311052 217.87489 
L 346.113544 221.23443 
L 349.718528 224.841535 
L 351.52102 227.991747 
L 353.323512 230.029044 
L 355.126004 230.52781 
L 356.928496 228.927991 
L 358.730988 231.470035 
L 360.533479 231.240057 
L 362.335971 230.549316 
L 364.138463 231.781606 
L 365.940955 230.939634 
L 367.743447 231.423046 
L 369.545939 235.470795 
L 371.348431 237.288253 
L 373.150923 237.110353 
L 374.953415 234.735513 
L 376.755907 233.376773 
L 378.558399 232.914859 
L 380.360891 236.487448 
L 382.163383 236.498651 
L 383.965874 235.077117 
L 385.768366 232.108602 
L 387.570858 228.716618 
L 389.37335 230.958001 
L 391.175842 230.693312 
L 392.978334 230.742932 
L 394.780826 229.871915 
L 396.583318 227.347944 
L 398.38581 225.497883 
L 400.188302 223.968862 
L 401.990794 225.30665 
L 403.793286 223.998338 
L 405.595778 220.041562 
L 409.200761 223.726619 
L 411.003253 224.754238 
L 412.805745 227.294115 
L 414.608237 228.388358 
L 416.410729 228.103963 
L 418.213221 228.983635 
L 420.015713 230.06777 
L 421.818205 231.997793 
L 423.620697 234.129901 
L 425.423189 234.207859 
L 427.225681 233.48855 
L 429.028173 233.681738 
L 430.830665 232.937827 
L 432.633156 233.11599 
L 434.435648 236.07524 
L 436.23814 236.872409 
L 438.040632 234.867141 
L 439.843124 237.832725 
L 441.645616 239.480098 
L 443.448108 234.304491 
L 445.2506 232.013805 
L 447.053092 232.174326 
L 448.855584 229.832676 
L 450.658076 231.574561 
L 452.460568 229.913837 
L 454.26306 228.412297 
L 456.065551 227.328169 
L 457.868043 226.102904 
L 459.670535 226.476117 
L 461.473027 226.422373 
L 463.275519 228.661433 
L 465.078011 228.089986 
L 466.880503 228.461502 
L 468.682995 231.654704 
L 470.485487 232.288753 
L 472.287979 233.952866 
L 474.090471 234.783559 
L 475.892963 233.596655 
L 477.695455 232.132416 
L 477.695455 232.132416 
" style="fill:none;stroke:#009988;stroke-dasharray:1.85,0.8;stroke-dashoffset:0;stroke-width:0.5;"/>
    <defs>
     <path d="M -2.5 2.5 
L 2.5 2.5 
L 2.5 -2.5 
L -2.5 -2.5 
z
" id="m7777d49862" style="stroke:#009988;stroke-linejoin:miter;"/>
    </defs>
    <g clip-path="url(#pc097e7547b)">
     <use style="fill:#009988;stroke:#009988;stroke-linejoin:miter;" x="122.604545" xlink:href="#m7777d49862" y="279.776307"/>
     <use style="fill:#009988;stroke:#009988;stroke-linejoin:miter;" x="140.629465" xlink:href="#m7777d49862" y="356.237594"/>
     <use style="fill:#009988;stroke:#009988;stroke-linejoin:miter;" x="158.654384" xlink:href="#m7777d49862" y="308.840949"/>
     <use style="fill:#009988;stroke:#009988;stroke-linejoin:miter;" x="176.679303" xlink:href="#m7777d49862" y="245.764374"/>
     <use style="fill:#009988;stroke:#009988;stroke-linejoin:miter;" x="194.704222" xlink:href="#m7777d49862" y="246.805836"/>
     <use style="fill:#009988;stroke:#009988;stroke-linejoin:miter;" x="212.729142" xlink:href="#m7777d49862" y="242.42343"/>
     <use style="fill:#009988;stroke:#009988;stroke-linejoin:miter;" x="230.754061" xlink:href="#m7777d49862" y="222.890365"/>
     <use style="fill:#009988;stroke:#009988;stroke-linejoin:miter;" x="248.77898" xlink:href="#m7777d49862" y="231.669252"/>
     <use style="fill:#009988;stroke:#009988;stroke-linejoin:miter;" x="266.803899" xlink:href="#m7777d49862" y="240.866308"/>
     <use style="fill:#009988;stroke:#009988;stroke-linejoin:miter;" x="284.828819" xlink:href="#m7777d49862" y="227.404502"/>
     <use style="fill:#009988;stroke:#009988;stroke-linejoin:miter;" x="302.853738" xlink:href="#m7777d49862" y="224.638058"/>
     <use style="fill:#009988;stroke:#009988;stroke-linejoin:miter;" x="320.878657" xlink:href="#m7777d49862" y="226.089623"/>
     <use style="fill:#009988;stroke:#009988;stroke-linejoin:miter;" x="338.903576" xlink:href="#m7777d49862" y="221.497416"/>
     <use style="fill:#009988;stroke:#009988;stroke-linejoin:miter;" x="356.928496" xlink:href="#m7777d49862" y="228.927991"/>
     <use style="fill:#009988;stroke:#009988;stroke-linejoin:miter;" x="374.953415" xlink:href="#m7777d49862" y="234.735513"/>
     <use style="fill:#009988;stroke:#009988;stroke-linejoin:miter;" x="392.978334" xlink:href="#m7777d49862" y="230.742932"/>
     <use style="fill:#009988;stroke:#009988;stroke-linejoin:miter;" x="411.003253" xlink:href="#m7777d49862" y="224.754238"/>
     <use style="fill:#009988;stroke:#009988;stroke-linejoin:miter;" x="429.028173" xlink:href="#m7777d49862" y="233.681738"/>
     <use style="fill:#009988;stroke:#009988;stroke-linejoin:miter;" x="447.053092" xlink:href="#m7777d49862" y="232.174326"/>
     <use style="fill:#009988;stroke:#009988;stroke-linejoin:miter;" x="465.078011" xlink:href="#m7777d49862" y="228.089986"/>
    </g>
   </g>
   <g id="line2d_26"/>
   <g id="line2d_27"/>
   <g id="line2d_28"/>
   <g id="line2d_29"/>
   <g id="line2d_30">
    <path clip-path="url(#pc097e7547b)" d="M 122.604545 185.416136 
L 124.407037 194.721617 
L 126.209529 199.821077 
L 128.012021 205.985264 
L 129.814513 206.106903 
L 131.617005 205.876929 
L 133.419497 208.964509 
L 135.221989 211.457956 
L 137.024481 212.307565 
L 138.826973 211.725112 
L 140.629465 211.767774 
L 142.431957 212.815446 
L 144.234449 216.058631 
L 146.03694 218.274706 
L 147.839432 219.604008 
L 149.641924 218.758154 
L 151.444416 213.129574 
L 153.246908 210.442732 
L 155.0494 209.9429 
L 156.851892 206.720492 
L 158.654384 205.152354 
L 160.456876 202.262714 
L 162.259368 200.592992 
L 164.06186 197.627677 
L 165.864352 193.47825 
L 167.666844 190.68494 
L 171.271827 183.640246 
L 173.074319 183.134049 
L 174.876811 183.141069 
L 176.679303 181.614764 
L 178.481795 179.912263 
L 180.284287 177.487578 
L 182.086779 176.162715 
L 185.691763 174.306029 
L 187.494255 179.1619 
L 189.296747 181.198152 
L 191.099239 181.328394 
L 192.901731 184.588223 
L 194.704222 188.896804 
L 196.506714 192.060701 
L 198.309206 194.160656 
L 200.111698 195.944854 
L 201.91419 199.880248 
L 203.716682 199.702774 
L 205.519174 202.081736 
L 207.321666 203.645437 
L 209.124158 203.044673 
L 210.92665 200.437954 
L 212.729142 199.056483 
L 216.334126 194.81364 
L 218.136617 191.077284 
L 219.939109 187.688226 
L 221.741601 186.332268 
L 223.544093 182.507641 
L 225.346585 181.040852 
L 227.149077 179.196914 
L 228.951569 179.368735 
L 230.754061 175.473324 
L 232.556553 173.708077 
L 234.359045 171.294504 
L 236.161537 171.284581 
L 237.964029 171.506064 
L 239.766521 173.009876 
L 245.173996 169.408281 
L 246.976488 170.425225 
L 248.77898 171.077633 
L 250.581472 171.196622 
L 252.383964 172.186071 
L 255.988948 175.376876 
L 257.79144 175.584549 
L 259.593932 177.478977 
L 261.396424 178.0043 
L 263.198916 179.245194 
L 265.001407 177.854714 
L 266.803899 178.358074 
L 268.606391 177.701646 
L 270.408883 176.770701 
L 272.211375 173.150435 
L 274.013867 171.293461 
L 275.816359 170.104538 
L 277.618851 170.961771 
L 279.421343 170.86155 
L 281.223835 169.146623 
L 283.026327 166.899579 
L 284.828819 166.454075 
L 286.631311 167.207991 
L 288.433802 164.353073 
L 290.236294 163.360407 
L 292.038786 161.12801 
L 293.841278 162.045368 
L 295.64377 161.686203 
L 297.446262 157.973263 
L 299.248754 156.19965 
L 301.051246 152.399278 
L 306.458722 148.472588 
L 308.261214 149.224426 
L 310.063706 147.992953 
L 311.866198 147.610732 
L 313.668689 144.859662 
L 315.471181 147.110162 
L 317.273673 146.246512 
L 319.076165 149.760978 
L 320.878657 148.099259 
L 322.681149 147.061711 
L 324.483641 149.825595 
L 326.286133 150.605056 
L 328.088625 151.11658 
L 329.891117 150.932864 
L 331.693609 150.255008 
L 333.496101 152.388778 
L 335.298593 150.148711 
L 337.101084 150.021829 
L 338.903576 150.543763 
L 340.706068 151.470542 
L 342.50856 152.049637 
L 344.311052 151.208923 
L 346.113544 151.934784 
L 347.916036 154.028106 
L 349.718528 154.763043 
L 351.52102 151.230595 
L 353.323512 153.487707 
L 355.126004 151.416086 
L 356.928496 154.606679 
L 358.730988 156.312729 
L 364.138463 157.408158 
L 365.940955 156.769673 
L 367.743447 157.16326 
L 369.545939 158.763801 
L 371.348431 161.359044 
L 373.150923 163.027491 
L 374.953415 163.029121 
L 376.755907 161.535816 
L 378.558399 161.815351 
L 380.360891 164.21332 
L 382.163383 164.143978 
L 383.965874 161.758604 
L 385.768366 160.106327 
L 387.570858 160.166017 
L 389.37335 159.708862 
L 392.978334 157.072965 
L 394.780826 154.791297 
L 396.583318 153.170944 
L 398.38581 150.094199 
L 401.990794 145.263755 
L 403.793286 142.344111 
L 405.595778 139.205983 
L 407.398269 140.507841 
L 409.200761 140.892465 
L 411.003253 139.338472 
L 412.805745 140.46507 
L 414.608237 139.445018 
L 416.410729 139.593182 
L 418.213221 137.740049 
L 420.015713 136.784701 
L 421.818205 138.161196 
L 423.620697 137.642536 
L 425.423189 137.861323 
L 427.225681 138.814503 
L 429.028173 140.435685 
L 430.830665 140.870677 
L 432.633156 140.117252 
L 434.435648 139.993254 
L 436.23814 142.192084 
L 439.843124 144.136679 
L 441.645616 143.971083 
L 443.448108 139.96537 
L 445.2506 138.718087 
L 447.053092 139.807559 
L 448.855584 139.041658 
L 450.658076 140.608369 
L 452.460568 139.466673 
L 454.26306 138.734093 
L 456.065551 139.887878 
L 457.868043 139.605701 
L 459.670535 139.852393 
L 461.473027 140.915618 
L 463.275519 139.888317 
L 465.078011 137.161143 
L 466.880503 138.194343 
L 468.682995 138.16576 
L 470.485487 138.640655 
L 472.287979 137.903586 
L 474.090471 137.004698 
L 475.892963 136.564089 
L 477.695455 136.8501 
L 477.695455 136.8501 
" style="fill:none;stroke:#0077bb;stroke-dasharray:3.2,0.8,0.5,0.8;stroke-dashoffset:0;stroke-width:0.5;"/>
    <defs>
     <path d="M 0 -2.5 
L -2.5 2.5 
L 2.5 2.5 
z
" id="ma600b05102" style="stroke:#0077bb;stroke-linejoin:miter;"/>
    </defs>
    <g clip-path="url(#pc097e7547b)">
     <use style="fill:#0077bb;stroke:#0077bb;stroke-linejoin:miter;" x="122.604545" xlink:href="#ma600b05102" y="185.416136"/>
     <use style="fill:#0077bb;stroke:#0077bb;stroke-linejoin:miter;" x="140.629465" xlink:href="#ma600b05102" y="211.767774"/>
     <use style="fill:#0077bb;stroke:#0077bb;stroke-linejoin:miter;" x="158.654384" xlink:href="#ma600b05102" y="205.152354"/>
     <use style="fill:#0077bb;stroke:#0077bb;stroke-linejoin:miter;" x="176.679303" xlink:href="#ma600b05102" y="181.614764"/>
     <use style="fill:#0077bb;stroke:#0077bb;stroke-linejoin:miter;" x="194.704222" xlink:href="#ma600b05102" y="188.896804"/>
     <use style="fill:#0077bb;stroke:#0077bb;stroke-linejoin:miter;" x="212.729142" xlink:href="#ma600b05102" y="199.056483"/>
     <use style="fill:#0077bb;stroke:#0077bb;stroke-linejoin:miter;" x="230.754061" xlink:href="#ma600b05102" y="175.473324"/>
     <use style="fill:#0077bb;stroke:#0077bb;stroke-linejoin:miter;" x="248.77898" xlink:href="#ma600b05102" y="171.077633"/>
     <use style="fill:#0077bb;stroke:#0077bb;stroke-linejoin:miter;" x="266.803899" xlink:href="#ma600b05102" y="178.358074"/>
     <use style="fill:#0077bb;stroke:#0077bb;stroke-linejoin:miter;" x="284.828819" xlink:href="#ma600b05102" y="166.454075"/>
     <use style="fill:#0077bb;stroke:#0077bb;stroke-linejoin:miter;" x="302.853738" xlink:href="#ma600b05102" y="151.05507"/>
     <use style="fill:#0077bb;stroke:#0077bb;stroke-linejoin:miter;" x="320.878657" xlink:href="#ma600b05102" y="148.099259"/>
     <use style="fill:#0077bb;stroke:#0077bb;stroke-linejoin:miter;" x="338.903576" xlink:href="#ma600b05102" y="150.543763"/>
     <use style="fill:#0077bb;stroke:#0077bb;stroke-linejoin:miter;" x="356.928496" xlink:href="#ma600b05102" y="154.606679"/>
     <use style="fill:#0077bb;stroke:#0077bb;stroke-linejoin:miter;" x="374.953415" xlink:href="#ma600b05102" y="163.029121"/>
     <use style="fill:#0077bb;stroke:#0077bb;stroke-linejoin:miter;" x="392.978334" xlink:href="#ma600b05102" y="157.072965"/>
     <use style="fill:#0077bb;stroke:#0077bb;stroke-linejoin:miter;" x="411.003253" xlink:href="#ma600b05102" y="139.338472"/>
     <use style="fill:#0077bb;stroke:#0077bb;stroke-linejoin:miter;" x="429.028173" xlink:href="#ma600b05102" y="140.435685"/>
     <use style="fill:#0077bb;stroke:#0077bb;stroke-linejoin:miter;" x="447.053092" xlink:href="#ma600b05102" y="139.807559"/>
     <use style="fill:#0077bb;stroke:#0077bb;stroke-linejoin:miter;" x="465.078011" xlink:href="#ma600b05102" y="137.161143"/>
    </g>
   </g>
   <g id="line2d_31"/>
   <g id="line2d_32"/>
   <g id="line2d_33"/>
   <g id="line2d_34"/>
   <g id="line2d_35">
    <path clip-path="url(#pc097e7547b)" d="M 122.604545 209.296515 
L 124.407037 235.581345 
L 126.209529 246.346884 
L 128.012021 245.369477 
L 129.814513 248.518502 
L 131.617005 244.094584 
L 133.419497 243.639146 
L 135.221989 240.649815 
L 137.024481 244.502759 
L 138.826973 242.014002 
L 140.629465 237.937553 
L 142.431957 237.863393 
L 144.234449 236.502444 
L 146.03694 235.324975 
L 147.839432 232.720428 
L 149.641924 229.683775 
L 151.444416 227.798686 
L 153.246908 225.143581 
L 155.0494 221.700712 
L 156.851892 219.379696 
L 158.654384 217.547157 
L 160.456876 213.482459 
L 162.259368 208.32872 
L 164.06186 204.392861 
L 165.864352 198.85349 
L 167.666844 195.73051 
L 169.469335 191.586286 
L 171.271827 187.852637 
L 173.074319 180.862043 
L 176.679303 174.952149 
L 178.481795 170.832636 
L 180.284287 167.437679 
L 182.086779 164.610195 
L 183.889271 163.020927 
L 187.494255 158.492599 
L 189.296747 156.138194 
L 191.099239 155.48021 
L 192.901731 153.480125 
L 194.704222 153.127731 
L 196.506714 151.678031 
L 198.309206 151.588563 
L 200.111698 150.117721 
L 201.91419 150.5103 
L 203.716682 149.789298 
L 205.519174 149.31663 
L 207.321666 150.428091 
L 209.124158 151.372409 
L 210.92665 150.345271 
L 212.729142 150.414063 
L 214.531634 149.112331 
L 216.334126 149.706172 
L 218.136617 148.712172 
L 219.939109 148.841506 
L 221.741601 148.852847 
L 223.544093 147.634391 
L 225.346585 148.810651 
L 227.149077 148.156421 
L 228.951569 148.884876 
L 230.754061 148.008198 
L 232.556553 148.356342 
L 234.359045 148.009908 
L 236.161537 149.941833 
L 237.964029 149.321697 
L 239.766521 148.934555 
L 241.569012 149.291196 
L 243.371504 149.145395 
L 245.173996 149.145395 
L 248.77898 150.645612 
L 250.581472 151.774787 
L 252.383964 150.878001 
L 255.988948 150.66296 
L 257.79144 150.990788 
L 259.593932 151.924614 
L 261.396424 151.407143 
L 263.198916 151.754058 
L 265.001407 151.784984 
L 266.803899 152.917833 
L 268.606391 152.597818 
L 270.408883 152.930427 
L 272.211375 152.089509 
L 274.013867 152.331663 
L 275.816359 153.533056 
L 279.421343 153.967279 
L 281.223835 154.780343 
L 283.026327 154.913013 
L 284.828819 154.702542 
L 286.631311 153.937986 
L 288.433802 153.787821 
L 290.236294 154.292781 
L 293.841278 153.699552 
L 295.64377 154.710793 
L 299.248754 155.856272 
L 301.051246 155.913874 
L 302.853738 155.237139 
L 304.65623 155.190522 
L 306.458722 155.010404 
L 308.261214 153.98822 
L 310.063706 153.723645 
L 313.668689 151.258301 
L 315.471181 150.46746 
L 317.273673 148.43195 
L 319.076165 147.927134 
L 320.878657 146.660665 
L 322.681149 146.174398 
L 328.088625 146.777754 
L 329.891117 147.12877 
L 331.693609 147.15227 
L 335.298593 146.724206 
L 337.101084 145.966779 
L 338.903576 145.776752 
L 340.706068 145.962993 
L 342.50856 145.957109 
L 344.311052 146.162589 
L 346.113544 145.499383 
L 347.916036 146.787951 
L 349.718528 147.669035 
L 351.52102 146.846612 
L 353.323512 147.096582 
L 355.126004 146.774276 
L 356.928496 147.455505 
L 358.730988 149.241127 
L 362.335971 149.496551 
L 365.940955 148.918308 
L 369.545939 147.592725 
L 371.348431 148.163735 
L 373.150923 148.517914 
L 374.953415 147.274767 
L 376.755907 147.360242 
L 378.558399 146.30784 
L 380.360891 147.262692 
L 382.163383 147.891646 
L 383.965874 146.953912 
L 385.768366 146.560914 
L 387.570858 147.082005 
L 389.37335 148.513651 
L 391.175842 149.204421 
L 392.978334 149.555874 
L 394.780826 149.030815 
L 396.583318 147.691634 
L 398.38581 147.730922 
L 400.188302 146.876164 
L 401.990794 147.010841 
L 403.793286 146.124997 
L 407.398269 146.031685 
L 411.003253 147.158286 
L 412.805745 146.609382 
L 414.608237 147.180899 
L 416.410729 145.805647 
L 418.213221 145.446457 
L 420.015713 145.790674 
L 421.818205 145.601331 
L 423.620697 146.376767 
L 425.423189 145.261606 
L 427.225681 144.778954 
L 429.028173 145.526123 
L 430.830665 146.003658 
L 432.633156 147.000106 
L 434.435648 146.452718 
L 436.23814 147.109986 
L 438.040632 147.022419 
L 441.645616 147.766868 
L 445.2506 146.411963 
L 447.053092 147.107086 
L 448.855584 147.007134 
L 450.658076 147.11249 
L 452.460568 147.838574 
L 454.26306 149.173205 
L 456.065551 148.76918 
L 457.868043 148.987762 
L 459.670535 148.429196 
L 461.473027 148.417639 
L 463.275519 148.657278 
L 465.078011 149.275273 
L 466.880503 148.033403 
L 470.485487 148.027049 
L 472.287979 149.029668 
L 474.090471 148.763493 
L 475.892963 149.505756 
L 477.695455 149.242583 
L 477.695455 149.242583 
" style="fill:none;stroke:#ee7733;stroke-dasharray:0.5,0.825;stroke-dashoffset:0;stroke-width:0.5;"/>
    <defs>
     <path d="M 0 -2.5 
L -0.561285 -0.772542 
L -2.377641 -0.772542 
L -0.908178 0.295085 
L -1.469463 2.022542 
L -0 0.954915 
L 1.469463 2.022542 
L 0.908178 0.295085 
L 2.377641 -0.772542 
L 0.561285 -0.772542 
z
" id="mf08404850c" style="stroke:#ee7733;stroke-linejoin:bevel;"/>
    </defs>
    <g clip-path="url(#pc097e7547b)">
     <use style="fill:#ee7733;stroke:#ee7733;stroke-linejoin:bevel;" x="122.604545" xlink:href="#mf08404850c" y="209.296515"/>
     <use style="fill:#ee7733;stroke:#ee7733;stroke-linejoin:bevel;" x="140.629465" xlink:href="#mf08404850c" y="237.937553"/>
     <use style="fill:#ee7733;stroke:#ee7733;stroke-linejoin:bevel;" x="158.654384" xlink:href="#mf08404850c" y="217.547157"/>
     <use style="fill:#ee7733;stroke:#ee7733;stroke-linejoin:bevel;" x="176.679303" xlink:href="#mf08404850c" y="174.952149"/>
     <use style="fill:#ee7733;stroke:#ee7733;stroke-linejoin:bevel;" x="194.704222" xlink:href="#mf08404850c" y="153.127731"/>
     <use style="fill:#ee7733;stroke:#ee7733;stroke-linejoin:bevel;" x="212.729142" xlink:href="#mf08404850c" y="150.414063"/>
     <use style="fill:#ee7733;stroke:#ee7733;stroke-linejoin:bevel;" x="230.754061" xlink:href="#mf08404850c" y="148.008198"/>
     <use style="fill:#ee7733;stroke:#ee7733;stroke-linejoin:bevel;" x="248.77898" xlink:href="#mf08404850c" y="150.645612"/>
     <use style="fill:#ee7733;stroke:#ee7733;stroke-linejoin:bevel;" x="266.803899" xlink:href="#mf08404850c" y="152.917833"/>
     <use style="fill:#ee7733;stroke:#ee7733;stroke-linejoin:bevel;" x="284.828819" xlink:href="#mf08404850c" y="154.702542"/>
     <use style="fill:#ee7733;stroke:#ee7733;stroke-linejoin:bevel;" x="302.853738" xlink:href="#mf08404850c" y="155.237139"/>
     <use style="fill:#ee7733;stroke:#ee7733;stroke-linejoin:bevel;" x="320.878657" xlink:href="#mf08404850c" y="146.660665"/>
     <use style="fill:#ee7733;stroke:#ee7733;stroke-linejoin:bevel;" x="338.903576" xlink:href="#mf08404850c" y="145.776752"/>
     <use style="fill:#ee7733;stroke:#ee7733;stroke-linejoin:bevel;" x="356.928496" xlink:href="#mf08404850c" y="147.455505"/>
     <use style="fill:#ee7733;stroke:#ee7733;stroke-linejoin:bevel;" x="374.953415" xlink:href="#mf08404850c" y="147.274767"/>
     <use style="fill:#ee7733;stroke:#ee7733;stroke-linejoin:bevel;" x="392.978334" xlink:href="#mf08404850c" y="149.555874"/>
     <use style="fill:#ee7733;stroke:#ee7733;stroke-linejoin:bevel;" x="411.003253" xlink:href="#mf08404850c" y="147.158286"/>
     <use style="fill:#ee7733;stroke:#ee7733;stroke-linejoin:bevel;" x="429.028173" xlink:href="#mf08404850c" y="145.526123"/>
     <use style="fill:#ee7733;stroke:#ee7733;stroke-linejoin:bevel;" x="447.053092" xlink:href="#mf08404850c" y="147.107086"/>
     <use style="fill:#ee7733;stroke:#ee7733;stroke-linejoin:bevel;" x="465.078011" xlink:href="#mf08404850c" y="149.275273"/>
    </g>
   </g>
   <g id="line2d_36"/>
   <g id="line2d_37"/>
   <g id="line2d_38"/>
   <g id="line2d_39"/>
   <g id="line2d_40">
    <path clip-path="url(#pc097e7547b)" d="M 122.604545 188.775557 
L 124.407037 196.401328 
L 126.209529 200.940884 
L 128.012021 206.82512 
L 129.814513 206.778787 
L 131.617005 207.382807 
L 133.419497 210.255261 
L 135.221989 211.550707 
L 137.024481 214.963532 
L 138.826973 214.115482 
L 140.629465 213.984156 
L 142.431957 215.750069 
L 144.234449 216.583652 
L 146.03694 216.828955 
L 147.839432 215.457475 
L 149.641924 213.499757 
L 151.444416 208.127931 
L 153.246908 205.718959 
L 156.851892 201.358007 
L 158.654384 199.621897 
L 160.456876 196.732258 
L 162.259368 195.548804 
L 164.06186 192.28601 
L 165.864352 188.625633 
L 169.469335 182.391995 
L 171.271827 178.622631 
L 173.074319 173.285046 
L 174.876811 171.077993 
L 180.284287 159.515245 
L 182.086779 156.687761 
L 183.889271 155.098492 
L 185.691763 152.891657 
L 187.494255 154.343091 
L 189.296747 152.750705 
L 191.099239 151.848254 
L 192.901731 150.632166 
L 194.704222 151.209389 
L 196.506714 151.476585 
L 200.111698 149.063795 
L 201.91419 150.303437 
L 203.716682 150.550726 
L 205.519174 149.87319 
L 207.321666 150.975649 
L 209.124158 151.919967 
L 210.92665 150.89283 
L 212.729142 151.051027 
L 214.531634 149.749295 
L 216.334126 150.865962 
L 218.136617 150.22437 
L 219.939109 149.718669 
L 221.741601 149.66677 
L 223.544093 148.448314 
L 225.346585 149.753092 
L 227.149077 149.098863 
L 228.951569 149.827318 
L 230.754061 148.950639 
L 232.556553 149.220758 
L 234.359045 148.848782 
L 236.161537 150.780707 
L 237.964029 150.160571 
L 239.766521 149.337865 
L 241.569012 149.582512 
L 245.173996 149.524199 
L 246.976488 150.977641 
L 248.77898 151.569838 
L 250.581472 153.219068 
L 252.383964 151.878943 
L 254.186456 151.466307 
L 257.79144 152.337596 
L 259.593932 153.271422 
L 261.396424 152.625432 
L 263.198916 152.972347 
L 265.001407 153.003273 
L 266.803899 154.074667 
L 270.408883 153.753434 
L 272.211375 151.518933 
L 274.013867 151.707816 
L 275.816359 152.710144 
L 277.618851 153.408069 
L 281.223835 153.044529 
L 283.026327 150.995478 
L 284.828819 150.53769 
L 286.631311 149.253078 
L 288.433802 148.917917 
L 290.236294 150.077703 
L 292.038786 148.37528 
L 293.841278 148.823012 
L 295.64377 149.990442 
L 297.446262 148.397452 
L 299.248754 149.177179 
L 301.051246 147.208129 
L 302.853738 146.008511 
L 304.65623 145.396431 
L 306.458722 144.142245 
L 308.261214 145.022683 
L 310.063706 144.770895 
L 311.866198 143.643688 
L 313.668689 141.467072 
L 315.471181 140.967064 
L 317.273673 140.592265 
L 319.076165 141.810937 
L 322.681149 141.053203 
L 324.483641 141.367321 
L 326.286133 140.832903 
L 328.088625 142.269766 
L 331.693609 142.104954 
L 333.496101 144.40779 
L 335.298593 142.188544 
L 337.101084 142.02293 
L 338.903576 142.664528 
L 340.706068 142.520505 
L 342.50856 143.515034 
L 344.311052 142.54572 
L 346.113544 142.940459 
L 349.718528 145.650946 
L 351.52102 144.2422 
L 353.323512 143.976495 
L 355.126004 143.424446 
L 356.928496 143.571532 
L 358.730988 145.264611 
L 364.138463 145.806744 
L 367.743447 144.495606 
L 369.545939 143.557285 
L 371.348431 145.921646 
L 373.150923 147.848804 
L 374.953415 146.483444 
L 376.755907 146.284719 
L 378.558399 145.752833 
L 380.360891 147.255767 
L 382.163383 146.884115 
L 383.965874 146.323844 
L 385.768366 145.091824 
L 387.570858 145.762453 
L 389.37335 146.641045 
L 391.175842 146.162749 
L 392.978334 146.381147 
L 394.780826 145.230718 
L 398.38581 143.388723 
L 400.188302 140.614495 
L 401.990794 139.391192 
L 403.793286 137.302937 
L 405.595778 136.345398 
L 407.398269 137.17031 
L 409.200761 137.419247 
L 411.003253 137.11258 
L 412.805745 138.03917 
L 414.608237 138.063863 
L 416.410729 137.154193 
L 418.213221 136.658136 
L 420.015713 135.009447 
L 421.818205 135.994656 
L 425.423189 135.067005 
L 429.028173 136.838964 
L 430.830665 137.707619 
L 432.633156 138.337196 
L 434.435648 136.996002 
L 438.040632 140.208907 
L 439.843124 141.357831 
L 441.645616 141.289875 
L 443.448108 137.971171 
L 445.2506 136.82499 
L 447.053092 137.914462 
L 448.855584 136.726051 
L 450.658076 137.644262 
L 452.460568 137.153009 
L 454.26306 136.431375 
L 456.065551 137.587137 
L 457.868043 137.634376 
L 459.670535 138.130121 
L 461.473027 138.300106 
L 463.275519 137.440189 
L 465.078011 136.348531 
L 466.880503 135.702329 
L 468.682995 135.336207 
L 470.485487 136.248389 
L 472.287979 136.064528 
L 474.090471 134.549629 
L 475.892963 133.953419 
L 477.695455 134.23943 
L 477.695455 134.23943 
" style="fill:none;stroke:#ee3377;stroke-dasharray:3.2,0.8,0.5,0.8;stroke-dashoffset:0;stroke-width:0.5;"/>
    <defs>
     <path d="M -1.25 2.5 
L 0 1.25 
L 1.25 2.5 
L 2.5 1.25 
L 1.25 0 
L 2.5 -1.25 
L 1.25 -2.5 
L 0 -1.25 
L -1.25 -2.5 
L -2.5 -1.25 
L -1.25 0 
L -2.5 1.25 
z
" id="m1739ad13d2" style="stroke:#ee3377;stroke-linejoin:miter;"/>
    </defs>
    <g clip-path="url(#pc097e7547b)">
     <use style="fill:#ee3377;stroke:#ee3377;stroke-linejoin:miter;" x="122.604545" xlink:href="#m1739ad13d2" y="188.775557"/>
     <use style="fill:#ee3377;stroke:#ee3377;stroke-linejoin:miter;" x="140.629465" xlink:href="#m1739ad13d2" y="213.984156"/>
     <use style="fill:#ee3377;stroke:#ee3377;stroke-linejoin:miter;" x="158.654384" xlink:href="#m1739ad13d2" y="199.621897"/>
     <use style="fill:#ee3377;stroke:#ee3377;stroke-linejoin:miter;" x="176.679303" xlink:href="#m1739ad13d2" y="167.256869"/>
     <use style="fill:#ee3377;stroke:#ee3377;stroke-linejoin:miter;" x="194.704222" xlink:href="#m1739ad13d2" y="151.209389"/>
     <use style="fill:#ee3377;stroke:#ee3377;stroke-linejoin:miter;" x="212.729142" xlink:href="#m1739ad13d2" y="151.051027"/>
     <use style="fill:#ee3377;stroke:#ee3377;stroke-linejoin:miter;" x="230.754061" xlink:href="#m1739ad13d2" y="148.950639"/>
     <use style="fill:#ee3377;stroke:#ee3377;stroke-linejoin:miter;" x="248.77898" xlink:href="#m1739ad13d2" y="151.569838"/>
     <use style="fill:#ee3377;stroke:#ee3377;stroke-linejoin:miter;" x="266.803899" xlink:href="#m1739ad13d2" y="154.074667"/>
     <use style="fill:#ee3377;stroke:#ee3377;stroke-linejoin:miter;" x="284.828819" xlink:href="#m1739ad13d2" y="150.53769"/>
     <use style="fill:#ee3377;stroke:#ee3377;stroke-linejoin:miter;" x="302.853738" xlink:href="#m1739ad13d2" y="146.008511"/>
     <use style="fill:#ee3377;stroke:#ee3377;stroke-linejoin:miter;" x="320.878657" xlink:href="#m1739ad13d2" y="141.446927"/>
     <use style="fill:#ee3377;stroke:#ee3377;stroke-linejoin:miter;" x="338.903576" xlink:href="#m1739ad13d2" y="142.664528"/>
     <use style="fill:#ee3377;stroke:#ee3377;stroke-linejoin:miter;" x="356.928496" xlink:href="#m1739ad13d2" y="143.571532"/>
     <use style="fill:#ee3377;stroke:#ee3377;stroke-linejoin:miter;" x="374.953415" xlink:href="#m1739ad13d2" y="146.483444"/>
     <use style="fill:#ee3377;stroke:#ee3377;stroke-linejoin:miter;" x="392.978334" xlink:href="#m1739ad13d2" y="146.381147"/>
     <use style="fill:#ee3377;stroke:#ee3377;stroke-linejoin:miter;" x="411.003253" xlink:href="#m1739ad13d2" y="137.11258"/>
     <use style="fill:#ee3377;stroke:#ee3377;stroke-linejoin:miter;" x="429.028173" xlink:href="#m1739ad13d2" y="136.838964"/>
     <use style="fill:#ee3377;stroke:#ee3377;stroke-linejoin:miter;" x="447.053092" xlink:href="#m1739ad13d2" y="137.914462"/>
     <use style="fill:#ee3377;stroke:#ee3377;stroke-linejoin:miter;" x="465.078011" xlink:href="#m1739ad13d2" y="136.348531"/>
    </g>
   </g>
   <g id="line2d_41"/>
   <g id="line2d_42"/>
   <g id="line2d_43"/>
   <g id="line2d_44"/>
   <g id="patch_3">
    <path d="M 104.85 389.251813 
L 104.85 112.051813 
" style="fill:none;stroke:#000000;stroke-linecap:square;stroke-linejoin:miter;stroke-width:0.8;"/>
   </g>
   <g id="patch_4">
    <path d="M 495.45 389.251813 
L 495.45 112.051813 
" style="fill:none;stroke:#000000;stroke-linecap:square;stroke-linejoin:miter;stroke-width:0.8;"/>
   </g>
   <g id="patch_5">
    <path d="M 104.85 389.251812 
L 495.45 389.251812 
" style="fill:none;stroke:#000000;stroke-linecap:square;stroke-linejoin:miter;stroke-width:0.8;"/>
   </g>
   <g id="patch_6">
    <path d="M 104.85 112.051812 
L 495.45 112.051812 
" style="fill:none;stroke:#000000;stroke-linecap:square;stroke-linejoin:miter;stroke-width:0.8;"/>
   </g>
   <g id="legend_1">
    <g id="line2d_45"/>
    <g id="line2d_46"/>
    <g id="text_17">
     <!--   -->
     <g transform="translate(48.8 22.277969)scale(0.13 -0.13)">
      <use xlink:href="#DejaVuSans-32"/>
     </g>
    </g>
    <g id="line2d_47"/>
    <g id="line2d_48"/>
    <g id="text_18">
     <!-- start -->
     <g transform="translate(48.8 41.359531)scale(0.13 -0.13)">
      <use xlink:href="#DejaVuSans-115"/>
      <use x="52.099609" xlink:href="#DejaVuSans-116"/>
      <use x="91.308594" xlink:href="#DejaVuSans-97"/>
      <use x="152.587891" xlink:href="#DejaVuSans-114"/>
      <use x="193.701172" xlink:href="#DejaVuSans-116"/>
     </g>
    </g>
    <g id="line2d_49"/>
    <g id="line2d_50"/>
    <g id="text_19">
     <!-- pre-dirft -->
     <g transform="translate(48.8 60.441094)scale(0.13 -0.13)">
      <use xlink:href="#DejaVuSans-112"/>
      <use x="63.476562" xlink:href="#DejaVuSans-114"/>
      <use x="102.339844" xlink:href="#DejaVuSans-101"/>
      <use x="163.863281" xlink:href="#DejaVuSans-45"/>
      <use x="199.947266" xlink:href="#DejaVuSans-100"/>
      <use x="263.423828" xlink:href="#DejaVuSans-105"/>
      <use x="291.207031" xlink:href="#DejaVuSans-114"/>
      <use x="332.320312" xlink:href="#DejaVuSans-102"/>
      <use x="365.775391" xlink:href="#DejaVuSans-116"/>
     </g>
    </g>
    <g id="line2d_51"/>
    <g id="line2d_52"/>
    <g id="text_20">
     <!-- post-drift -->
     <g transform="translate(48.8 79.522656)scale(0.13 -0.13)">
      <use xlink:href="#DejaVuSans-112"/>
      <use x="63.476562" xlink:href="#DejaVuSans-111"/>
      <use x="124.658203" xlink:href="#DejaVuSans-115"/>
      <use x="176.757812" xlink:href="#DejaVuSans-116"/>
      <use x="215.966797" xlink:href="#DejaVuSans-45"/>
      <use x="252.050781" xlink:href="#DejaVuSans-100"/>
      <use x="315.527344" xlink:href="#DejaVuSans-114"/>
      <use x="356.640625" xlink:href="#DejaVuSans-105"/>
      <use x="384.423828" xlink:href="#DejaVuSans-102"/>
      <use x="417.878906" xlink:href="#DejaVuSans-116"/>
     </g>
    </g>
    <g id="line2d_53"/>
    <g id="line2d_54"/>
    <g id="text_21">
     <!-- end -->
     <g transform="translate(48.8 98.604219)scale(0.13 -0.13)">
      <use xlink:href="#DejaVuSans-101"/>
      <use x="61.523438" xlink:href="#DejaVuSans-110"/>
      <use x="124.902344" xlink:href="#DejaVuSans-100"/>
     </g>
    </g>
    <g id="line2d_55">
     <path d="M 102.738313 17.727969 
L 128.738313 17.727969 
" style="fill:none;stroke:#cc3311;stroke-linecap:square;stroke-width:0.5;"/>
    </g>
    <g id="line2d_56">
     <g>
      <use style="fill:#cc3311;stroke:#cc3311;" x="115.738313" xlink:href="#m7dddf06953" y="17.727969"/>
     </g>
    </g>
    <g id="text_22">
     <!-- UOB -->
     <g transform="translate(139.138313 22.277969)scale(0.13 -0.13)">
      <defs>
       <path d="M 8.6875 72.90625 
L 18.609375 72.90625 
L 18.609375 28.609375 
Q 18.609375 16.890625 22.84375 11.734375 
Q 27.09375 6.59375 36.625 6.59375 
Q 46.09375 6.59375 50.34375 11.734375 
Q 54.59375 16.890625 54.59375 28.609375 
L 54.59375 72.90625 
L 64.5 72.90625 
L 64.5 27.390625 
Q 64.5 13.140625 57.4375 5.859375 
Q 50.390625 -1.421875 36.625 -1.421875 
Q 22.796875 -1.421875 15.734375 5.859375 
Q 8.6875 13.140625 8.6875 27.390625 
z
" id="DejaVuSans-85"/>
       <path d="M 39.40625 66.21875 
Q 28.65625 66.21875 22.328125 58.203125 
Q 16.015625 50.203125 16.015625 36.375 
Q 16.015625 22.609375 22.328125 14.59375 
Q 28.65625 6.59375 39.40625 6.59375 
Q 50.140625 6.59375 56.421875 14.59375 
Q 62.703125 22.609375 62.703125 36.375 
Q 62.703125 50.203125 56.421875 58.203125 
Q 50.140625 66.21875 39.40625 66.21875 
z
M 39.40625 74.21875 
Q 54.734375 74.21875 63.90625 63.9375 
Q 73.09375 53.65625 73.09375 36.375 
Q 73.09375 19.140625 63.90625 8.859375 
Q 54.734375 -1.421875 39.40625 -1.421875 
Q 24.03125 -1.421875 14.8125 8.828125 
Q 5.609375 19.09375 5.609375 36.375 
Q 5.609375 53.65625 14.8125 63.9375 
Q 24.03125 74.21875 39.40625 74.21875 
z
" id="DejaVuSans-79"/>
       <path d="M 19.671875 34.8125 
L 19.671875 8.109375 
L 35.5 8.109375 
Q 43.453125 8.109375 47.28125 11.40625 
Q 51.125 14.703125 51.125 21.484375 
Q 51.125 28.328125 47.28125 31.5625 
Q 43.453125 34.8125 35.5 34.8125 
z
M 19.671875 64.796875 
L 19.671875 42.828125 
L 34.28125 42.828125 
Q 41.5 42.828125 45.03125 45.53125 
Q 48.578125 48.25 48.578125 53.8125 
Q 48.578125 59.328125 45.03125 62.0625 
Q 41.5 64.796875 34.28125 64.796875 
z
M 9.8125 72.90625 
L 35.015625 72.90625 
Q 46.296875 72.90625 52.390625 68.21875 
Q 58.5 63.53125 58.5 54.890625 
Q 58.5 48.1875 55.375 44.234375 
Q 52.25 40.28125 46.1875 39.3125 
Q 53.46875 37.75 57.5 32.78125 
Q 61.53125 27.828125 61.53125 20.40625 
Q 61.53125 10.640625 54.890625 5.3125 
Q 48.25 0 35.984375 0 
L 9.8125 0 
z
" id="DejaVuSans-66"/>
      </defs>
      <use xlink:href="#DejaVuSans-85"/>
      <use x="73.193359" xlink:href="#DejaVuSans-79"/>
      <use x="151.904297" xlink:href="#DejaVuSans-66"/>
     </g>
    </g>
    <g id="line2d_57"/>
    <g id="line2d_58"/>
    <g id="text_23">
     <!-- 0.5258 -->
     <g transform="translate(139.138313 41.359531)scale(0.13 -0.13)">
      <defs>
       <path d="M 31.78125 34.625 
Q 24.75 34.625 20.71875 30.859375 
Q 16.703125 27.09375 16.703125 20.515625 
Q 16.703125 13.921875 20.71875 10.15625 
Q 24.75 6.390625 31.78125 6.390625 
Q 38.8125 6.390625 42.859375 10.171875 
Q 46.921875 13.96875 46.921875 20.515625 
Q 46.921875 27.09375 42.890625 30.859375 
Q 38.875 34.625 31.78125 34.625 
z
M 21.921875 38.8125 
Q 15.578125 40.375 12.03125 44.71875 
Q 8.5 49.078125 8.5 55.328125 
Q 8.5 64.0625 14.71875 69.140625 
Q 20.953125 74.21875 31.78125 74.21875 
Q 42.671875 74.21875 48.875 69.140625 
Q 55.078125 64.0625 55.078125 55.328125 
Q 55.078125 49.078125 51.53125 44.71875 
Q 48 40.375 41.703125 38.8125 
Q 48.828125 37.15625 52.796875 32.3125 
Q 56.78125 27.484375 56.78125 20.515625 
Q 56.78125 9.90625 50.3125 4.234375 
Q 43.84375 -1.421875 31.78125 -1.421875 
Q 19.734375 -1.421875 13.25 4.234375 
Q 6.78125 9.90625 6.78125 20.515625 
Q 6.78125 27.484375 10.78125 32.3125 
Q 14.796875 37.15625 21.921875 38.8125 
z
M 18.3125 54.390625 
Q 18.3125 48.734375 21.84375 45.5625 
Q 25.390625 42.390625 31.78125 42.390625 
Q 38.140625 42.390625 41.71875 45.5625 
Q 45.3125 48.734375 45.3125 54.390625 
Q 45.3125 60.0625 41.71875 63.234375 
Q 38.140625 66.40625 31.78125 66.40625 
Q 25.390625 66.40625 21.84375 63.234375 
Q 18.3125 60.0625 18.3125 54.390625 
z
" id="DejaVuSans-56"/>
      </defs>
      <use xlink:href="#DejaVuSans-48"/>
      <use x="63.623047" xlink:href="#DejaVuSans-46"/>
      <use x="95.410156" xlink:href="#DejaVuSans-53"/>
      <use x="159.033203" xlink:href="#DejaVuSans-50"/>
      <use x="222.65625" xlink:href="#DejaVuSans-53"/>
      <use x="286.279297" xlink:href="#DejaVuSans-56"/>
     </g>
    </g>
    <g id="line2d_59"/>
    <g id="line2d_60"/>
    <g id="text_24">
     <!-- 0.5889 -->
     <g transform="translate(139.138313 60.441094)scale(0.13 -0.13)">
      <defs>
       <path d="M 10.984375 1.515625 
L 10.984375 10.5 
Q 14.703125 8.734375 18.5 7.8125 
Q 22.3125 6.890625 25.984375 6.890625 
Q 35.75 6.890625 40.890625 13.453125 
Q 46.046875 20.015625 46.78125 33.40625 
Q 43.953125 29.203125 39.59375 26.953125 
Q 35.25 24.703125 29.984375 24.703125 
Q 19.046875 24.703125 12.671875 31.3125 
Q 6.296875 37.9375 6.296875 49.421875 
Q 6.296875 60.640625 12.9375 67.421875 
Q 19.578125 74.21875 30.609375 74.21875 
Q 43.265625 74.21875 49.921875 64.515625 
Q 56.59375 54.828125 56.59375 36.375 
Q 56.59375 19.140625 48.40625 8.859375 
Q 40.234375 -1.421875 26.421875 -1.421875 
Q 22.703125 -1.421875 18.890625 -0.6875 
Q 15.09375 0.046875 10.984375 1.515625 
z
M 30.609375 32.421875 
Q 37.25 32.421875 41.125 36.953125 
Q 45.015625 41.5 45.015625 49.421875 
Q 45.015625 57.28125 41.125 61.84375 
Q 37.25 66.40625 30.609375 66.40625 
Q 23.96875 66.40625 20.09375 61.84375 
Q 16.21875 57.28125 16.21875 49.421875 
Q 16.21875 41.5 20.09375 36.953125 
Q 23.96875 32.421875 30.609375 32.421875 
z
" id="DejaVuSans-57"/>
      </defs>
      <use xlink:href="#DejaVuSans-48"/>
      <use x="63.623047" xlink:href="#DejaVuSans-46"/>
      <use x="95.410156" xlink:href="#DejaVuSans-53"/>
      <use x="159.033203" xlink:href="#DejaVuSans-56"/>
      <use x="222.65625" xlink:href="#DejaVuSans-56"/>
      <use x="286.279297" xlink:href="#DejaVuSans-57"/>
     </g>
    </g>
    <g id="line2d_61"/>
    <g id="line2d_62"/>
    <g id="text_25">
     <!-- 0.6135 -->
     <g transform="translate(139.138313 79.522656)scale(0.13 -0.13)">
      <use xlink:href="#DejaVuSans-48"/>
      <use x="63.623047" xlink:href="#DejaVuSans-46"/>
      <use x="95.410156" xlink:href="#DejaVuSans-54"/>
      <use x="159.033203" xlink:href="#DejaVuSans-49"/>
      <use x="222.65625" xlink:href="#DejaVuSans-51"/>
      <use x="286.279297" xlink:href="#DejaVuSans-53"/>
     </g>
    </g>
    <g id="line2d_63"/>
    <g id="line2d_64"/>
    <g id="text_26">
     <!-- 0.6157 -->
     <g transform="translate(139.138313 98.604219)scale(0.13 -0.13)">
      <use xlink:href="#DejaVuSans-48"/>
      <use x="63.623047" xlink:href="#DejaVuSans-46"/>
      <use x="95.410156" xlink:href="#DejaVuSans-54"/>
      <use x="159.033203" xlink:href="#DejaVuSans-49"/>
      <use x="222.65625" xlink:href="#DejaVuSans-53"/>
      <use x="286.279297" xlink:href="#DejaVuSans-55"/>
     </g>
    </g>
    <g id="line2d_65">
     <path d="M 179.144281 17.727969 
L 205.144281 17.727969 
" style="fill:none;stroke:#009988;stroke-dasharray:1.85,0.8;stroke-dashoffset:0;stroke-width:0.5;"/>
    </g>
    <g id="line2d_66">
     <g>
      <use style="fill:#009988;stroke:#009988;stroke-linejoin:miter;" x="192.144281" xlink:href="#m7777d49862" y="17.727969"/>
     </g>
    </g>
    <g id="text_27">
     <!-- OOB -->
     <g transform="translate(215.544281 22.277969)scale(0.13 -0.13)">
      <use xlink:href="#DejaVuSans-79"/>
      <use x="78.710938" xlink:href="#DejaVuSans-79"/>
      <use x="157.421875" xlink:href="#DejaVuSans-66"/>
     </g>
    </g>
    <g id="line2d_67"/>
    <g id="line2d_68"/>
    <g id="text_28">
     <!-- 0.3704 -->
     <g transform="translate(215.544281 41.359531)scale(0.13 -0.13)">
      <use xlink:href="#DejaVuSans-48"/>
      <use x="63.623047" xlink:href="#DejaVuSans-46"/>
      <use x="95.410156" xlink:href="#DejaVuSans-51"/>
      <use x="159.033203" xlink:href="#DejaVuSans-55"/>
      <use x="222.65625" xlink:href="#DejaVuSans-48"/>
      <use x="286.279297" xlink:href="#DejaVuSans-52"/>
     </g>
    </g>
    <g id="line2d_69"/>
    <g id="line2d_70"/>
    <g id="text_29">
     <!-- 0.4503 -->
     <g transform="translate(215.544281 60.441094)scale(0.13 -0.13)">
      <use xlink:href="#DejaVuSans-48"/>
      <use x="63.623047" xlink:href="#DejaVuSans-46"/>
      <use x="95.410156" xlink:href="#DejaVuSans-52"/>
      <use x="159.033203" xlink:href="#DejaVuSans-53"/>
      <use x="222.65625" xlink:href="#DejaVuSans-48"/>
      <use x="286.279297" xlink:href="#DejaVuSans-51"/>
     </g>
    </g>
    <g id="line2d_71"/>
    <g id="line2d_72"/>
    <g id="text_30">
     <!-- 0.4545 -->
     <g transform="translate(215.544281 79.522656)scale(0.13 -0.13)">
      <use xlink:href="#DejaVuSans-48"/>
      <use x="63.623047" xlink:href="#DejaVuSans-46"/>
      <use x="95.410156" xlink:href="#DejaVuSans-52"/>
      <use x="159.033203" xlink:href="#DejaVuSans-53"/>
      <use x="222.65625" xlink:href="#DejaVuSans-52"/>
      <use x="286.279297" xlink:href="#DejaVuSans-53"/>
     </g>
    </g>
    <g id="line2d_73"/>
    <g id="line2d_74"/>
    <g id="text_31">
     <!-- 0.4485 -->
     <g transform="translate(215.544281 98.604219)scale(0.13 -0.13)">
      <use xlink:href="#DejaVuSans-48"/>
      <use x="63.623047" xlink:href="#DejaVuSans-46"/>
      <use x="95.410156" xlink:href="#DejaVuSans-52"/>
      <use x="159.033203" xlink:href="#DejaVuSans-52"/>
      <use x="222.65625" xlink:href="#DejaVuSans-56"/>
      <use x="286.279297" xlink:href="#DejaVuSans-53"/>
     </g>
    </g>
    <g id="line2d_75">
     <path d="M 255.55025 17.727969 
L 281.55025 17.727969 
" style="fill:none;stroke:#0077bb;stroke-dasharray:3.2,0.8,0.5,0.8;stroke-dashoffset:0;stroke-width:0.5;"/>
    </g>
    <g id="line2d_76">
     <g>
      <use style="fill:#0077bb;stroke:#0077bb;stroke-linejoin:miter;" x="268.55025" xlink:href="#ma600b05102" y="17.727969"/>
     </g>
    </g>
    <g id="text_32">
     <!-- NUOB -->
     <g transform="translate(291.95025 22.277969)scale(0.13 -0.13)">
      <use xlink:href="#DejaVuSans-78"/>
      <use x="74.804688" xlink:href="#DejaVuSans-85"/>
      <use x="147.998047" xlink:href="#DejaVuSans-79"/>
      <use x="226.708984" xlink:href="#DejaVuSans-66"/>
     </g>
    </g>
    <g id="line2d_77"/>
    <g id="line2d_78"/>
    <g id="text_33">
     <!-- 0.5251 -->
     <g transform="translate(291.95025 41.359531)scale(0.13 -0.13)">
      <use xlink:href="#DejaVuSans-48"/>
      <use x="63.623047" xlink:href="#DejaVuSans-46"/>
      <use x="95.410156" xlink:href="#DejaVuSans-53"/>
      <use x="159.033203" xlink:href="#DejaVuSans-50"/>
      <use x="222.65625" xlink:href="#DejaVuSans-53"/>
      <use x="286.279297" xlink:href="#DejaVuSans-49"/>
     </g>
    </g>
    <g id="line2d_79"/>
    <g id="line2d_80"/>
    <g id="text_34">
     <!-- 0.5495 -->
     <g transform="translate(291.95025 60.441094)scale(0.13 -0.13)">
      <use xlink:href="#DejaVuSans-48"/>
      <use x="63.623047" xlink:href="#DejaVuSans-46"/>
      <use x="95.410156" xlink:href="#DejaVuSans-53"/>
      <use x="159.033203" xlink:href="#DejaVuSans-52"/>
      <use x="222.65625" xlink:href="#DejaVuSans-57"/>
      <use x="286.279297" xlink:href="#DejaVuSans-53"/>
     </g>
    </g>
    <g id="line2d_81"/>
    <g id="line2d_82"/>
    <g id="text_35">
     <!-- 0.5701 -->
     <g transform="translate(291.95025 79.522656)scale(0.13 -0.13)">
      <use xlink:href="#DejaVuSans-48"/>
      <use x="63.623047" xlink:href="#DejaVuSans-46"/>
      <use x="95.410156" xlink:href="#DejaVuSans-53"/>
      <use x="159.033203" xlink:href="#DejaVuSans-55"/>
      <use x="222.65625" xlink:href="#DejaVuSans-48"/>
      <use x="286.279297" xlink:href="#DejaVuSans-49"/>
     </g>
    </g>
    <g id="line2d_83"/>
    <g id="line2d_84"/>
    <g id="text_36">
     <!-- 0.6047 -->
     <g transform="translate(291.95025 98.604219)scale(0.13 -0.13)">
      <use xlink:href="#DejaVuSans-48"/>
      <use x="63.623047" xlink:href="#DejaVuSans-46"/>
      <use x="95.410156" xlink:href="#DejaVuSans-54"/>
      <use x="159.033203" xlink:href="#DejaVuSans-48"/>
      <use x="222.65625" xlink:href="#DejaVuSans-52"/>
      <use x="286.279297" xlink:href="#DejaVuSans-55"/>
     </g>
    </g>
    <g id="line2d_85">
     <path d="M 331.956219 17.727969 
L 357.956219 17.727969 
" style="fill:none;stroke:#ee7733;stroke-dasharray:0.5,0.825;stroke-dashoffset:0;stroke-width:0.5;"/>
    </g>
    <g id="line2d_86">
     <g>
      <use style="fill:#ee7733;stroke:#ee7733;stroke-linejoin:bevel;" x="344.956219" xlink:href="#mf08404850c" y="17.727969"/>
     </g>
    </g>
    <g id="text_37">
     <!-- NOOB -->
     <g transform="translate(368.356219 22.277969)scale(0.13 -0.13)">
      <use xlink:href="#DejaVuSans-78"/>
      <use x="74.804688" xlink:href="#DejaVuSans-79"/>
      <use x="153.515625" xlink:href="#DejaVuSans-79"/>
      <use x="232.226562" xlink:href="#DejaVuSans-66"/>
     </g>
    </g>
    <g id="line2d_87"/>
    <g id="line2d_88"/>
    <g id="text_38">
     <!-- 0.4860 -->
     <g transform="translate(368.356219 41.359531)scale(0.13 -0.13)">
      <use xlink:href="#DejaVuSans-48"/>
      <use x="63.623047" xlink:href="#DejaVuSans-46"/>
      <use x="95.410156" xlink:href="#DejaVuSans-52"/>
      <use x="159.033203" xlink:href="#DejaVuSans-56"/>
      <use x="222.65625" xlink:href="#DejaVuSans-54"/>
      <use x="286.279297" xlink:href="#DejaVuSans-48"/>
     </g>
    </g>
    <g id="line2d_89"/>
    <g id="line2d_90"/>
    <g id="text_39">
     <!-- 0.5846 -->
     <g transform="translate(368.356219 60.441094)scale(0.13 -0.13)">
      <use xlink:href="#DejaVuSans-48"/>
      <use x="63.623047" xlink:href="#DejaVuSans-46"/>
      <use x="95.410156" xlink:href="#DejaVuSans-53"/>
      <use x="159.033203" xlink:href="#DejaVuSans-56"/>
      <use x="222.65625" xlink:href="#DejaVuSans-52"/>
      <use x="286.279297" xlink:href="#DejaVuSans-54"/>
     </g>
    </g>
    <g id="line2d_91"/>
    <g id="line2d_92"/>
    <g id="text_40">
     <!-- 0.5745 -->
     <g transform="translate(368.356219 79.522656)scale(0.13 -0.13)">
      <use xlink:href="#DejaVuSans-48"/>
      <use x="63.623047" xlink:href="#DejaVuSans-46"/>
      <use x="95.410156" xlink:href="#DejaVuSans-53"/>
      <use x="159.033203" xlink:href="#DejaVuSans-55"/>
      <use x="222.65625" xlink:href="#DejaVuSans-52"/>
      <use x="286.279297" xlink:href="#DejaVuSans-53"/>
     </g>
    </g>
    <g id="line2d_93"/>
    <g id="line2d_94"/>
    <g id="text_41">
     <!-- 0.5844 -->
     <g transform="translate(368.356219 98.604219)scale(0.13 -0.13)">
      <use xlink:href="#DejaVuSans-48"/>
      <use x="63.623047" xlink:href="#DejaVuSans-46"/>
      <use x="95.410156" xlink:href="#DejaVuSans-53"/>
      <use x="159.033203" xlink:href="#DejaVuSans-56"/>
      <use x="222.65625" xlink:href="#DejaVuSans-52"/>
      <use x="286.279297" xlink:href="#DejaVuSans-52"/>
     </g>
    </g>
    <g id="line2d_95">
     <path d="M 408.362188 17.727969 
L 434.362188 17.727969 
" style="fill:none;stroke:#ee3377;stroke-dasharray:3.2,0.8,0.5,0.8;stroke-dashoffset:0;stroke-width:0.5;"/>
    </g>
    <g id="line2d_96">
     <g>
      <use style="fill:#ee3377;stroke:#ee3377;stroke-linejoin:miter;" x="421.362188" xlink:href="#m1739ad13d2" y="17.727969"/>
     </g>
    </g>
    <g id="text_42">
     <!-- HNOB -->
     <g transform="translate(444.762188 22.277969)scale(0.13 -0.13)">
      <defs>
       <path d="M 9.8125 72.90625 
L 19.671875 72.90625 
L 19.671875 43.015625 
L 55.515625 43.015625 
L 55.515625 72.90625 
L 65.375 72.90625 
L 65.375 0 
L 55.515625 0 
L 55.515625 34.71875 
L 19.671875 34.71875 
L 19.671875 0 
L 9.8125 0 
z
" id="DejaVuSans-72"/>
      </defs>
      <use xlink:href="#DejaVuSans-72"/>
      <use x="75.195312" xlink:href="#DejaVuSans-78"/>
      <use x="150" xlink:href="#DejaVuSans-79"/>
      <use x="228.710938" xlink:href="#DejaVuSans-66"/>
     </g>
    </g>
    <g id="line2d_97"/>
    <g id="line2d_98"/>
    <g id="text_43">
     <!-- 0.5196 -->
     <g transform="translate(444.762188 41.359531)scale(0.13 -0.13)">
      <use xlink:href="#DejaVuSans-48"/>
      <use x="63.623047" xlink:href="#DejaVuSans-46"/>
      <use x="95.410156" xlink:href="#DejaVuSans-53"/>
      <use x="159.033203" xlink:href="#DejaVuSans-49"/>
      <use x="222.65625" xlink:href="#DejaVuSans-57"/>
      <use x="286.279297" xlink:href="#DejaVuSans-54"/>
     </g>
    </g>
    <g id="line2d_99"/>
    <g id="line2d_100"/>
    <g id="text_44">
     <!-- 0.5840 -->
     <g transform="translate(444.762188 60.441094)scale(0.13 -0.13)">
      <use xlink:href="#DejaVuSans-48"/>
      <use x="63.623047" xlink:href="#DejaVuSans-46"/>
      <use x="95.410156" xlink:href="#DejaVuSans-53"/>
      <use x="159.033203" xlink:href="#DejaVuSans-56"/>
      <use x="222.65625" xlink:href="#DejaVuSans-52"/>
      <use x="286.279297" xlink:href="#DejaVuSans-48"/>
     </g>
    </g>
    <g id="line2d_101"/>
    <g id="line2d_102"/>
    <g id="text_45">
     <!-- 0.5858 -->
     <g transform="translate(444.762188 79.522656)scale(0.13 -0.13)">
      <use xlink:href="#DejaVuSans-48"/>
      <use x="63.623047" xlink:href="#DejaVuSans-46"/>
      <use x="95.410156" xlink:href="#DejaVuSans-53"/>
      <use x="159.033203" xlink:href="#DejaVuSans-56"/>
      <use x="222.65625" xlink:href="#DejaVuSans-53"/>
      <use x="286.279297" xlink:href="#DejaVuSans-56"/>
     </g>
    </g>
    <g id="line2d_103"/>
    <g id="line2d_104"/>
    <g id="text_46">
     <!-- 0.6090 -->
     <g transform="translate(444.762188 98.604219)scale(0.13 -0.13)">
      <use xlink:href="#DejaVuSans-48"/>
      <use x="63.623047" xlink:href="#DejaVuSans-46"/>
      <use x="95.410156" xlink:href="#DejaVuSans-54"/>
      <use x="159.033203" xlink:href="#DejaVuSans-48"/>
      <use x="222.65625" xlink:href="#DejaVuSans-57"/>
      <use x="286.279297" xlink:href="#DejaVuSans-48"/>
     </g>
    </g>
   </g>
  </g>
 </g>
 <defs>
  <clipPath id="pc097e7547b">
   <rect height="277.2" width="390.6" x="104.85" y="112.051812"/>
  </clipPath>
 </defs>
</svg>
