<?xml version="1.0" encoding="utf-8" standalone="no"?>
<!DOCTYPE svg PUBLIC "-//W3C//DTD SVG 1.1//EN"
  "http://www.w3.org/Graphics/SVG/1.1/DTD/svg11.dtd">
<!-- Created with matplotlib (https://matplotlib.org/) -->
<svg height="432.614937pt" version="1.1" viewBox="0 0 502.65 432.614937" width="502.65pt" xmlns="http://www.w3.org/2000/svg" xmlns:xlink="http://www.w3.org/1999/xlink">
 <metadata>
  <rdf:RDF xmlns:cc="http://creativecommons.org/ns#" xmlns:dc="http://purl.org/dc/elements/1.1/" xmlns:rdf="http://www.w3.org/1999/02/22-rdf-syntax-ns#">
   <cc:Work>
    <dc:type rdf:resource="http://purl.org/dc/dcmitype/StillImage"/>
    <dc:date>2022-05-31T17:25:12.534195</dc:date>
    <dc:format>image/svg+xml</dc:format>
    <dc:creator>
     <cc:Agent>
      <dc:title>Matplotlib v3.3.3, https://matplotlib.org/</dc:title>
     </cc:Agent>
    </dc:creator>
   </cc:Work>
  </rdf:RDF>
 </metadata>
 <defs>
  <style type="text/css">*{stroke-linecap:butt;stroke-linejoin:round;}</style>
 </defs>
 <g id="figure_1">
  <g id="patch_1">
   <path d="M 0 432.614937 
L 502.65 432.614937 
L 502.65 0 
L 0 0 
z
" style="fill:#ffffff;"/>
  </g>
  <g id="axes_1">
   <g id="patch_2">
    <path d="M 104.85 389.251812 
L 495.45 389.251812 
L 495.45 112.051812 
L 104.85 112.051812 
z
" style="fill:#ffffff;"/>
   </g>
   <g id="matplotlib.axis_1">
    <g id="xtick_1">
     <g id="line2d_1">
      <defs>
       <path d="M 0 0 
L 0 3.5 
" id="mfc00a230e7" style="stroke:#000000;stroke-width:0.8;"/>
      </defs>
      <g>
       <use style="stroke:#000000;stroke-width:0.8;" x="117.19707" xlink:href="#mfc00a230e7" y="389.251812"/>
      </g>
     </g>
     <g id="text_1">
      <!-- 0 -->
      <g transform="translate(113.061445 406.129781)scale(0.13 -0.13)">
       <defs>
        <path d="M 31.78125 66.40625 
Q 24.171875 66.40625 20.328125 58.90625 
Q 16.5 51.421875 16.5 36.375 
Q 16.5 21.390625 20.328125 13.890625 
Q 24.171875 6.390625 31.78125 6.390625 
Q 39.453125 6.390625 43.28125 13.890625 
Q 47.125 21.390625 47.125 36.375 
Q 47.125 51.421875 43.28125 58.90625 
Q 39.453125 66.40625 31.78125 66.40625 
z
M 31.78125 74.21875 
Q 44.046875 74.21875 50.515625 64.515625 
Q 56.984375 54.828125 56.984375 36.375 
Q 56.984375 17.96875 50.515625 8.265625 
Q 44.046875 -1.421875 31.78125 -1.421875 
Q 19.53125 -1.421875 13.0625 8.265625 
Q 6.59375 17.96875 6.59375 36.375 
Q 6.59375 54.828125 13.0625 64.515625 
Q 19.53125 74.21875 31.78125 74.21875 
z
" id="DejaVuSans-48"/>
       </defs>
       <use xlink:href="#DejaVuSans-48"/>
      </g>
     </g>
    </g>
    <g id="xtick_2">
     <g id="line2d_2">
      <g>
       <use style="stroke:#000000;stroke-width:0.8;" x="162.259368" xlink:href="#mfc00a230e7" y="389.251812"/>
      </g>
     </g>
     <g id="text_2">
      <!-- 25 -->
      <g transform="translate(153.988118 406.129781)scale(0.13 -0.13)">
       <defs>
        <path d="M 19.1875 8.296875 
L 53.609375 8.296875 
L 53.609375 0 
L 7.328125 0 
L 7.328125 8.296875 
Q 12.9375 14.109375 22.625 23.890625 
Q 32.328125 33.6875 34.8125 36.53125 
Q 39.546875 41.84375 41.421875 45.53125 
Q 43.3125 49.21875 43.3125 52.78125 
Q 43.3125 58.59375 39.234375 62.25 
Q 35.15625 65.921875 28.609375 65.921875 
Q 23.96875 65.921875 18.8125 64.3125 
Q 13.671875 62.703125 7.8125 59.421875 
L 7.8125 69.390625 
Q 13.765625 71.78125 18.9375 73 
Q 24.125 74.21875 28.421875 74.21875 
Q 39.75 74.21875 46.484375 68.546875 
Q 53.21875 62.890625 53.21875 53.421875 
Q 53.21875 48.921875 51.53125 44.890625 
Q 49.859375 40.875 45.40625 35.40625 
Q 44.1875 33.984375 37.640625 27.21875 
Q 31.109375 20.453125 19.1875 8.296875 
z
" id="DejaVuSans-50"/>
        <path d="M 10.796875 72.90625 
L 49.515625 72.90625 
L 49.515625 64.59375 
L 19.828125 64.59375 
L 19.828125 46.734375 
Q 21.96875 47.46875 24.109375 47.828125 
Q 26.265625 48.1875 28.421875 48.1875 
Q 40.625 48.1875 47.75 41.5 
Q 54.890625 34.8125 54.890625 23.390625 
Q 54.890625 11.625 47.5625 5.09375 
Q 40.234375 -1.421875 26.90625 -1.421875 
Q 22.3125 -1.421875 17.546875 -0.640625 
Q 12.796875 0.140625 7.71875 1.703125 
L 7.71875 11.625 
Q 12.109375 9.234375 16.796875 8.0625 
Q 21.484375 6.890625 26.703125 6.890625 
Q 35.15625 6.890625 40.078125 11.328125 
Q 45.015625 15.765625 45.015625 23.390625 
Q 45.015625 31 40.078125 35.4375 
Q 35.15625 39.890625 26.703125 39.890625 
Q 22.75 39.890625 18.8125 39.015625 
Q 14.890625 38.140625 10.796875 36.28125 
z
" id="DejaVuSans-53"/>
       </defs>
       <use xlink:href="#DejaVuSans-50"/>
       <use x="63.623047" xlink:href="#DejaVuSans-53"/>
      </g>
     </g>
    </g>
    <g id="xtick_3">
     <g id="line2d_3">
      <g>
       <use style="stroke:#000000;stroke-width:0.8;" x="207.321666" xlink:href="#mfc00a230e7" y="389.251812"/>
      </g>
     </g>
     <g id="text_3">
      <!-- 50 -->
      <g transform="translate(199.050416 406.129781)scale(0.13 -0.13)">
       <use xlink:href="#DejaVuSans-53"/>
       <use x="63.623047" xlink:href="#DejaVuSans-48"/>
      </g>
     </g>
    </g>
    <g id="xtick_4">
     <g id="line2d_4">
      <g>
       <use style="stroke:#000000;stroke-width:0.8;" x="252.383964" xlink:href="#mfc00a230e7" y="389.251812"/>
      </g>
     </g>
     <g id="text_4">
      <!-- 75 -->
      <g transform="translate(244.112714 406.129781)scale(0.13 -0.13)">
       <defs>
        <path d="M 8.203125 72.90625 
L 55.078125 72.90625 
L 55.078125 68.703125 
L 28.609375 0 
L 18.3125 0 
L 43.21875 64.59375 
L 8.203125 64.59375 
z
" id="DejaVuSans-55"/>
       </defs>
       <use xlink:href="#DejaVuSans-55"/>
       <use x="63.623047" xlink:href="#DejaVuSans-53"/>
      </g>
     </g>
    </g>
    <g id="xtick_5">
     <g id="line2d_5">
      <g>
       <use style="stroke:#000000;stroke-width:0.8;" x="297.446262" xlink:href="#mfc00a230e7" y="389.251812"/>
      </g>
     </g>
     <g id="text_5">
      <!-- 100 -->
      <g transform="translate(285.039387 406.129781)scale(0.13 -0.13)">
       <defs>
        <path d="M 12.40625 8.296875 
L 28.515625 8.296875 
L 28.515625 63.921875 
L 10.984375 60.40625 
L 10.984375 69.390625 
L 28.421875 72.90625 
L 38.28125 72.90625 
L 38.28125 8.296875 
L 54.390625 8.296875 
L 54.390625 0 
L 12.40625 0 
z
" id="DejaVuSans-49"/>
       </defs>
       <use xlink:href="#DejaVuSans-49"/>
       <use x="63.623047" xlink:href="#DejaVuSans-48"/>
       <use x="127.246094" xlink:href="#DejaVuSans-48"/>
      </g>
     </g>
    </g>
    <g id="xtick_6">
     <g id="line2d_6">
      <g>
       <use style="stroke:#000000;stroke-width:0.8;" x="342.50856" xlink:href="#mfc00a230e7" y="389.251812"/>
      </g>
     </g>
     <g id="text_6">
      <!-- 125 -->
      <g transform="translate(330.101685 406.129781)scale(0.13 -0.13)">
       <use xlink:href="#DejaVuSans-49"/>
       <use x="63.623047" xlink:href="#DejaVuSans-50"/>
       <use x="127.246094" xlink:href="#DejaVuSans-53"/>
      </g>
     </g>
    </g>
    <g id="xtick_7">
     <g id="line2d_7">
      <g>
       <use style="stroke:#000000;stroke-width:0.8;" x="387.570858" xlink:href="#mfc00a230e7" y="389.251812"/>
      </g>
     </g>
     <g id="text_7">
      <!-- 150 -->
      <g transform="translate(375.163983 406.129781)scale(0.13 -0.13)">
       <use xlink:href="#DejaVuSans-49"/>
       <use x="63.623047" xlink:href="#DejaVuSans-53"/>
       <use x="127.246094" xlink:href="#DejaVuSans-48"/>
      </g>
     </g>
    </g>
    <g id="xtick_8">
     <g id="line2d_8">
      <g>
       <use style="stroke:#000000;stroke-width:0.8;" x="432.633156" xlink:href="#mfc00a230e7" y="389.251812"/>
      </g>
     </g>
     <g id="text_8">
      <!-- 175 -->
      <g transform="translate(420.226281 406.129781)scale(0.13 -0.13)">
       <use xlink:href="#DejaVuSans-49"/>
       <use x="63.623047" xlink:href="#DejaVuSans-55"/>
       <use x="127.246094" xlink:href="#DejaVuSans-53"/>
      </g>
     </g>
    </g>
    <g id="xtick_9">
     <g id="line2d_9">
      <g>
       <use style="stroke:#000000;stroke-width:0.8;" x="477.695455" xlink:href="#mfc00a230e7" y="389.251812"/>
      </g>
     </g>
     <g id="text_9">
      <!-- 200 -->
      <g transform="translate(465.28858 406.129781)scale(0.13 -0.13)">
       <use xlink:href="#DejaVuSans-50"/>
       <use x="63.623047" xlink:href="#DejaVuSans-48"/>
       <use x="127.246094" xlink:href="#DejaVuSans-48"/>
      </g>
     </g>
    </g>
    <g id="text_10">
     <!-- Number of processed instances [x1000] -->
     <g transform="translate(170.025078 422.711344)scale(0.13 -0.13)">
      <defs>
       <path d="M 9.8125 72.90625 
L 23.09375 72.90625 
L 55.421875 11.921875 
L 55.421875 72.90625 
L 64.984375 72.90625 
L 64.984375 0 
L 51.703125 0 
L 19.390625 60.984375 
L 19.390625 0 
L 9.8125 0 
z
" id="DejaVuSans-78"/>
       <path d="M 8.5 21.578125 
L 8.5 54.6875 
L 17.484375 54.6875 
L 17.484375 21.921875 
Q 17.484375 14.15625 20.5 10.265625 
Q 23.53125 6.390625 29.59375 6.390625 
Q 36.859375 6.390625 41.078125 11.03125 
Q 45.3125 15.671875 45.3125 23.6875 
L 45.3125 54.6875 
L 54.296875 54.6875 
L 54.296875 0 
L 45.3125 0 
L 45.3125 8.40625 
Q 42.046875 3.421875 37.71875 1 
Q 33.40625 -1.421875 27.6875 -1.421875 
Q 18.265625 -1.421875 13.375 4.4375 
Q 8.5 10.296875 8.5 21.578125 
z
M 31.109375 56 
z
" id="DejaVuSans-117"/>
       <path d="M 52 44.1875 
Q 55.375 50.25 60.0625 53.125 
Q 64.75 56 71.09375 56 
Q 79.640625 56 84.28125 50.015625 
Q 88.921875 44.046875 88.921875 33.015625 
L 88.921875 0 
L 79.890625 0 
L 79.890625 32.71875 
Q 79.890625 40.578125 77.09375 44.375 
Q 74.3125 48.1875 68.609375 48.1875 
Q 61.625 48.1875 57.5625 43.546875 
Q 53.515625 38.921875 53.515625 30.90625 
L 53.515625 0 
L 44.484375 0 
L 44.484375 32.71875 
Q 44.484375 40.625 41.703125 44.40625 
Q 38.921875 48.1875 33.109375 48.1875 
Q 26.21875 48.1875 22.15625 43.53125 
Q 18.109375 38.875 18.109375 30.90625 
L 18.109375 0 
L 9.078125 0 
L 9.078125 54.6875 
L 18.109375 54.6875 
L 18.109375 46.1875 
Q 21.1875 51.21875 25.484375 53.609375 
Q 29.78125 56 35.6875 56 
Q 41.65625 56 45.828125 52.96875 
Q 50 49.953125 52 44.1875 
z
" id="DejaVuSans-109"/>
       <path d="M 48.6875 27.296875 
Q 48.6875 37.203125 44.609375 42.84375 
Q 40.53125 48.484375 33.40625 48.484375 
Q 26.265625 48.484375 22.1875 42.84375 
Q 18.109375 37.203125 18.109375 27.296875 
Q 18.109375 17.390625 22.1875 11.75 
Q 26.265625 6.109375 33.40625 6.109375 
Q 40.53125 6.109375 44.609375 11.75 
Q 48.6875 17.390625 48.6875 27.296875 
z
M 18.109375 46.390625 
Q 20.953125 51.265625 25.265625 53.625 
Q 29.59375 56 35.59375 56 
Q 45.5625 56 51.78125 48.09375 
Q 58.015625 40.1875 58.015625 27.296875 
Q 58.015625 14.40625 51.78125 6.484375 
Q 45.5625 -1.421875 35.59375 -1.421875 
Q 29.59375 -1.421875 25.265625 0.953125 
Q 20.953125 3.328125 18.109375 8.203125 
L 18.109375 0 
L 9.078125 0 
L 9.078125 75.984375 
L 18.109375 75.984375 
z
" id="DejaVuSans-98"/>
       <path d="M 56.203125 29.59375 
L 56.203125 25.203125 
L 14.890625 25.203125 
Q 15.484375 15.921875 20.484375 11.0625 
Q 25.484375 6.203125 34.421875 6.203125 
Q 39.59375 6.203125 44.453125 7.46875 
Q 49.3125 8.734375 54.109375 11.28125 
L 54.109375 2.78125 
Q 49.265625 0.734375 44.1875 -0.34375 
Q 39.109375 -1.421875 33.890625 -1.421875 
Q 20.796875 -1.421875 13.15625 6.1875 
Q 5.515625 13.8125 5.515625 26.8125 
Q 5.515625 40.234375 12.765625 48.109375 
Q 20.015625 56 32.328125 56 
Q 43.359375 56 49.78125 48.890625 
Q 56.203125 41.796875 56.203125 29.59375 
z
M 47.21875 32.234375 
Q 47.125 39.59375 43.09375 43.984375 
Q 39.0625 48.390625 32.421875 48.390625 
Q 24.90625 48.390625 20.390625 44.140625 
Q 15.875 39.890625 15.1875 32.171875 
z
" id="DejaVuSans-101"/>
       <path d="M 41.109375 46.296875 
Q 39.59375 47.171875 37.8125 47.578125 
Q 36.03125 48 33.890625 48 
Q 26.265625 48 22.1875 43.046875 
Q 18.109375 38.09375 18.109375 28.8125 
L 18.109375 0 
L 9.078125 0 
L 9.078125 54.6875 
L 18.109375 54.6875 
L 18.109375 46.1875 
Q 20.953125 51.171875 25.484375 53.578125 
Q 30.03125 56 36.53125 56 
Q 37.453125 56 38.578125 55.875 
Q 39.703125 55.765625 41.0625 55.515625 
z
" id="DejaVuSans-114"/>
       <path id="DejaVuSans-32"/>
       <path d="M 30.609375 48.390625 
Q 23.390625 48.390625 19.1875 42.75 
Q 14.984375 37.109375 14.984375 27.296875 
Q 14.984375 17.484375 19.15625 11.84375 
Q 23.34375 6.203125 30.609375 6.203125 
Q 37.796875 6.203125 41.984375 11.859375 
Q 46.1875 17.53125 46.1875 27.296875 
Q 46.1875 37.015625 41.984375 42.703125 
Q 37.796875 48.390625 30.609375 48.390625 
z
M 30.609375 56 
Q 42.328125 56 49.015625 48.375 
Q 55.71875 40.765625 55.71875 27.296875 
Q 55.71875 13.875 49.015625 6.21875 
Q 42.328125 -1.421875 30.609375 -1.421875 
Q 18.84375 -1.421875 12.171875 6.21875 
Q 5.515625 13.875 5.515625 27.296875 
Q 5.515625 40.765625 12.171875 48.375 
Q 18.84375 56 30.609375 56 
z
" id="DejaVuSans-111"/>
       <path d="M 37.109375 75.984375 
L 37.109375 68.5 
L 28.515625 68.5 
Q 23.6875 68.5 21.796875 66.546875 
Q 19.921875 64.59375 19.921875 59.515625 
L 19.921875 54.6875 
L 34.71875 54.6875 
L 34.71875 47.703125 
L 19.921875 47.703125 
L 19.921875 0 
L 10.890625 0 
L 10.890625 47.703125 
L 2.296875 47.703125 
L 2.296875 54.6875 
L 10.890625 54.6875 
L 10.890625 58.5 
Q 10.890625 67.625 15.140625 71.796875 
Q 19.390625 75.984375 28.609375 75.984375 
z
" id="DejaVuSans-102"/>
       <path d="M 18.109375 8.203125 
L 18.109375 -20.796875 
L 9.078125 -20.796875 
L 9.078125 54.6875 
L 18.109375 54.6875 
L 18.109375 46.390625 
Q 20.953125 51.265625 25.265625 53.625 
Q 29.59375 56 35.59375 56 
Q 45.5625 56 51.78125 48.09375 
Q 58.015625 40.1875 58.015625 27.296875 
Q 58.015625 14.40625 51.78125 6.484375 
Q 45.5625 -1.421875 35.59375 -1.421875 
Q 29.59375 -1.421875 25.265625 0.953125 
Q 20.953125 3.328125 18.109375 8.203125 
z
M 48.6875 27.296875 
Q 48.6875 37.203125 44.609375 42.84375 
Q 40.53125 48.484375 33.40625 48.484375 
Q 26.265625 48.484375 22.1875 42.84375 
Q 18.109375 37.203125 18.109375 27.296875 
Q 18.109375 17.390625 22.1875 11.75 
Q 26.265625 6.109375 33.40625 6.109375 
Q 40.53125 6.109375 44.609375 11.75 
Q 48.6875 17.390625 48.6875 27.296875 
z
" id="DejaVuSans-112"/>
       <path d="M 48.78125 52.59375 
L 48.78125 44.1875 
Q 44.96875 46.296875 41.140625 47.34375 
Q 37.3125 48.390625 33.40625 48.390625 
Q 24.65625 48.390625 19.8125 42.84375 
Q 14.984375 37.3125 14.984375 27.296875 
Q 14.984375 17.28125 19.8125 11.734375 
Q 24.65625 6.203125 33.40625 6.203125 
Q 37.3125 6.203125 41.140625 7.25 
Q 44.96875 8.296875 48.78125 10.40625 
L 48.78125 2.09375 
Q 45.015625 0.34375 40.984375 -0.53125 
Q 36.96875 -1.421875 32.421875 -1.421875 
Q 20.0625 -1.421875 12.78125 6.34375 
Q 5.515625 14.109375 5.515625 27.296875 
Q 5.515625 40.671875 12.859375 48.328125 
Q 20.21875 56 33.015625 56 
Q 37.15625 56 41.109375 55.140625 
Q 45.0625 54.296875 48.78125 52.59375 
z
" id="DejaVuSans-99"/>
       <path d="M 44.28125 53.078125 
L 44.28125 44.578125 
Q 40.484375 46.53125 36.375 47.5 
Q 32.28125 48.484375 27.875 48.484375 
Q 21.1875 48.484375 17.84375 46.4375 
Q 14.5 44.390625 14.5 40.28125 
Q 14.5 37.15625 16.890625 35.375 
Q 19.28125 33.59375 26.515625 31.984375 
L 29.59375 31.296875 
Q 39.15625 29.25 43.1875 25.515625 
Q 47.21875 21.78125 47.21875 15.09375 
Q 47.21875 7.46875 41.1875 3.015625 
Q 35.15625 -1.421875 24.609375 -1.421875 
Q 20.21875 -1.421875 15.453125 -0.5625 
Q 10.6875 0.296875 5.421875 2 
L 5.421875 11.28125 
Q 10.40625 8.6875 15.234375 7.390625 
Q 20.0625 6.109375 24.8125 6.109375 
Q 31.15625 6.109375 34.5625 8.28125 
Q 37.984375 10.453125 37.984375 14.40625 
Q 37.984375 18.0625 35.515625 20.015625 
Q 33.0625 21.96875 24.703125 23.78125 
L 21.578125 24.515625 
Q 13.234375 26.265625 9.515625 29.90625 
Q 5.8125 33.546875 5.8125 39.890625 
Q 5.8125 47.609375 11.28125 51.796875 
Q 16.75 56 26.8125 56 
Q 31.78125 56 36.171875 55.265625 
Q 40.578125 54.546875 44.28125 53.078125 
z
" id="DejaVuSans-115"/>
       <path d="M 45.40625 46.390625 
L 45.40625 75.984375 
L 54.390625 75.984375 
L 54.390625 0 
L 45.40625 0 
L 45.40625 8.203125 
Q 42.578125 3.328125 38.25 0.953125 
Q 33.9375 -1.421875 27.875 -1.421875 
Q 17.96875 -1.421875 11.734375 6.484375 
Q 5.515625 14.40625 5.515625 27.296875 
Q 5.515625 40.1875 11.734375 48.09375 
Q 17.96875 56 27.875 56 
Q 33.9375 56 38.25 53.625 
Q 42.578125 51.265625 45.40625 46.390625 
z
M 14.796875 27.296875 
Q 14.796875 17.390625 18.875 11.75 
Q 22.953125 6.109375 30.078125 6.109375 
Q 37.203125 6.109375 41.296875 11.75 
Q 45.40625 17.390625 45.40625 27.296875 
Q 45.40625 37.203125 41.296875 42.84375 
Q 37.203125 48.484375 30.078125 48.484375 
Q 22.953125 48.484375 18.875 42.84375 
Q 14.796875 37.203125 14.796875 27.296875 
z
" id="DejaVuSans-100"/>
       <path d="M 9.421875 54.6875 
L 18.40625 54.6875 
L 18.40625 0 
L 9.421875 0 
z
M 9.421875 75.984375 
L 18.40625 75.984375 
L 18.40625 64.59375 
L 9.421875 64.59375 
z
" id="DejaVuSans-105"/>
       <path d="M 54.890625 33.015625 
L 54.890625 0 
L 45.90625 0 
L 45.90625 32.71875 
Q 45.90625 40.484375 42.875 44.328125 
Q 39.84375 48.1875 33.796875 48.1875 
Q 26.515625 48.1875 22.3125 43.546875 
Q 18.109375 38.921875 18.109375 30.90625 
L 18.109375 0 
L 9.078125 0 
L 9.078125 54.6875 
L 18.109375 54.6875 
L 18.109375 46.1875 
Q 21.34375 51.125 25.703125 53.5625 
Q 30.078125 56 35.796875 56 
Q 45.21875 56 50.046875 50.171875 
Q 54.890625 44.34375 54.890625 33.015625 
z
" id="DejaVuSans-110"/>
       <path d="M 18.3125 70.21875 
L 18.3125 54.6875 
L 36.8125 54.6875 
L 36.8125 47.703125 
L 18.3125 47.703125 
L 18.3125 18.015625 
Q 18.3125 11.328125 20.140625 9.421875 
Q 21.96875 7.515625 27.59375 7.515625 
L 36.8125 7.515625 
L 36.8125 0 
L 27.59375 0 
Q 17.1875 0 13.234375 3.875 
Q 9.28125 7.765625 9.28125 18.015625 
L 9.28125 47.703125 
L 2.6875 47.703125 
L 2.6875 54.6875 
L 9.28125 54.6875 
L 9.28125 70.21875 
z
" id="DejaVuSans-116"/>
       <path d="M 34.28125 27.484375 
Q 23.390625 27.484375 19.1875 25 
Q 14.984375 22.515625 14.984375 16.5 
Q 14.984375 11.71875 18.140625 8.90625 
Q 21.296875 6.109375 26.703125 6.109375 
Q 34.1875 6.109375 38.703125 11.40625 
Q 43.21875 16.703125 43.21875 25.484375 
L 43.21875 27.484375 
z
M 52.203125 31.203125 
L 52.203125 0 
L 43.21875 0 
L 43.21875 8.296875 
Q 40.140625 3.328125 35.546875 0.953125 
Q 30.953125 -1.421875 24.3125 -1.421875 
Q 15.921875 -1.421875 10.953125 3.296875 
Q 6 8.015625 6 15.921875 
Q 6 25.140625 12.171875 29.828125 
Q 18.359375 34.515625 30.609375 34.515625 
L 43.21875 34.515625 
L 43.21875 35.40625 
Q 43.21875 41.609375 39.140625 45 
Q 35.0625 48.390625 27.6875 48.390625 
Q 23 48.390625 18.546875 47.265625 
Q 14.109375 46.140625 10.015625 43.890625 
L 10.015625 52.203125 
Q 14.9375 54.109375 19.578125 55.046875 
Q 24.21875 56 28.609375 56 
Q 40.484375 56 46.34375 49.84375 
Q 52.203125 43.703125 52.203125 31.203125 
z
" id="DejaVuSans-97"/>
       <path d="M 8.59375 75.984375 
L 29.296875 75.984375 
L 29.296875 69 
L 17.578125 69 
L 17.578125 -6.203125 
L 29.296875 -6.203125 
L 29.296875 -13.1875 
L 8.59375 -13.1875 
z
" id="DejaVuSans-91"/>
       <path d="M 54.890625 54.6875 
L 35.109375 28.078125 
L 55.90625 0 
L 45.3125 0 
L 29.390625 21.484375 
L 13.484375 0 
L 2.875 0 
L 24.125 28.609375 
L 4.6875 54.6875 
L 15.28125 54.6875 
L 29.78125 35.203125 
L 44.28125 54.6875 
z
" id="DejaVuSans-120"/>
       <path d="M 30.421875 75.984375 
L 30.421875 -13.1875 
L 9.71875 -13.1875 
L 9.71875 -6.203125 
L 21.390625 -6.203125 
L 21.390625 69 
L 9.71875 69 
L 9.71875 75.984375 
z
" id="DejaVuSans-93"/>
      </defs>
      <use xlink:href="#DejaVuSans-78"/>
      <use x="74.804688" xlink:href="#DejaVuSans-117"/>
      <use x="138.183594" xlink:href="#DejaVuSans-109"/>
      <use x="235.595703" xlink:href="#DejaVuSans-98"/>
      <use x="299.072266" xlink:href="#DejaVuSans-101"/>
      <use x="360.595703" xlink:href="#DejaVuSans-114"/>
      <use x="401.708984" xlink:href="#DejaVuSans-32"/>
      <use x="433.496094" xlink:href="#DejaVuSans-111"/>
      <use x="494.677734" xlink:href="#DejaVuSans-102"/>
      <use x="529.882812" xlink:href="#DejaVuSans-32"/>
      <use x="561.669922" xlink:href="#DejaVuSans-112"/>
      <use x="625.146484" xlink:href="#DejaVuSans-114"/>
      <use x="664.009766" xlink:href="#DejaVuSans-111"/>
      <use x="725.191406" xlink:href="#DejaVuSans-99"/>
      <use x="780.171875" xlink:href="#DejaVuSans-101"/>
      <use x="841.695312" xlink:href="#DejaVuSans-115"/>
      <use x="893.794922" xlink:href="#DejaVuSans-115"/>
      <use x="945.894531" xlink:href="#DejaVuSans-101"/>
      <use x="1007.417969" xlink:href="#DejaVuSans-100"/>
      <use x="1070.894531" xlink:href="#DejaVuSans-32"/>
      <use x="1102.681641" xlink:href="#DejaVuSans-105"/>
      <use x="1130.464844" xlink:href="#DejaVuSans-110"/>
      <use x="1193.84375" xlink:href="#DejaVuSans-115"/>
      <use x="1245.943359" xlink:href="#DejaVuSans-116"/>
      <use x="1285.152344" xlink:href="#DejaVuSans-97"/>
      <use x="1346.431641" xlink:href="#DejaVuSans-110"/>
      <use x="1409.810547" xlink:href="#DejaVuSans-99"/>
      <use x="1464.791016" xlink:href="#DejaVuSans-101"/>
      <use x="1526.314453" xlink:href="#DejaVuSans-115"/>
      <use x="1578.414062" xlink:href="#DejaVuSans-32"/>
      <use x="1610.201172" xlink:href="#DejaVuSans-91"/>
      <use x="1649.214844" xlink:href="#DejaVuSans-120"/>
      <use x="1708.394531" xlink:href="#DejaVuSans-49"/>
      <use x="1772.017578" xlink:href="#DejaVuSans-48"/>
      <use x="1835.640625" xlink:href="#DejaVuSans-48"/>
      <use x="1899.263672" xlink:href="#DejaVuSans-48"/>
      <use x="1962.886719" xlink:href="#DejaVuSans-93"/>
     </g>
    </g>
   </g>
   <g id="matplotlib.axis_2">
    <g id="ytick_1">
     <g id="line2d_10">
      <defs>
       <path d="M 0 0 
L -3.5 0 
" id="m91fa171a9f" style="stroke:#000000;stroke-width:0.8;"/>
      </defs>
      <g>
       <use style="stroke:#000000;stroke-width:0.8;" x="104.85" xlink:href="#m91fa171a9f" y="380.746921"/>
      </g>
     </g>
     <g id="text_11">
      <!-- 0.46 -->
      <g transform="translate(68.904687 385.685905)scale(0.13 -0.13)">
       <defs>
        <path d="M 10.6875 12.40625 
L 21 12.40625 
L 21 0 
L 10.6875 0 
z
" id="DejaVuSans-46"/>
        <path d="M 37.796875 64.3125 
L 12.890625 25.390625 
L 37.796875 25.390625 
z
M 35.203125 72.90625 
L 47.609375 72.90625 
L 47.609375 25.390625 
L 58.015625 25.390625 
L 58.015625 17.1875 
L 47.609375 17.1875 
L 47.609375 0 
L 37.796875 0 
L 37.796875 17.1875 
L 4.890625 17.1875 
L 4.890625 26.703125 
z
" id="DejaVuSans-52"/>
        <path d="M 33.015625 40.375 
Q 26.375 40.375 22.484375 35.828125 
Q 18.609375 31.296875 18.609375 23.390625 
Q 18.609375 15.53125 22.484375 10.953125 
Q 26.375 6.390625 33.015625 6.390625 
Q 39.65625 6.390625 43.53125 10.953125 
Q 47.40625 15.53125 47.40625 23.390625 
Q 47.40625 31.296875 43.53125 35.828125 
Q 39.65625 40.375 33.015625 40.375 
z
M 52.59375 71.296875 
L 52.59375 62.3125 
Q 48.875 64.0625 45.09375 64.984375 
Q 41.3125 65.921875 37.59375 65.921875 
Q 27.828125 65.921875 22.671875 59.328125 
Q 17.53125 52.734375 16.796875 39.40625 
Q 19.671875 43.65625 24.015625 45.921875 
Q 28.375 48.1875 33.59375 48.1875 
Q 44.578125 48.1875 50.953125 41.515625 
Q 57.328125 34.859375 57.328125 23.390625 
Q 57.328125 12.15625 50.6875 5.359375 
Q 44.046875 -1.421875 33.015625 -1.421875 
Q 20.359375 -1.421875 13.671875 8.265625 
Q 6.984375 17.96875 6.984375 36.375 
Q 6.984375 53.65625 15.1875 63.9375 
Q 23.390625 74.21875 37.203125 74.21875 
Q 40.921875 74.21875 44.703125 73.484375 
Q 48.484375 72.75 52.59375 71.296875 
z
" id="DejaVuSans-54"/>
       </defs>
       <use xlink:href="#DejaVuSans-48"/>
       <use x="63.623047" xlink:href="#DejaVuSans-46"/>
       <use x="95.410156" xlink:href="#DejaVuSans-52"/>
       <use x="159.033203" xlink:href="#DejaVuSans-54"/>
      </g>
     </g>
    </g>
    <g id="ytick_2">
     <g id="line2d_11">
      <g>
       <use style="stroke:#000000;stroke-width:0.8;" x="104.85" xlink:href="#m91fa171a9f" y="344.643427"/>
      </g>
     </g>
     <g id="text_12">
      <!-- 0.48 -->
      <g transform="translate(68.904687 349.582411)scale(0.13 -0.13)">
       <defs>
        <path d="M 31.78125 34.625 
Q 24.75 34.625 20.71875 30.859375 
Q 16.703125 27.09375 16.703125 20.515625 
Q 16.703125 13.921875 20.71875 10.15625 
Q 24.75 6.390625 31.78125 6.390625 
Q 38.8125 6.390625 42.859375 10.171875 
Q 46.921875 13.96875 46.921875 20.515625 
Q 46.921875 27.09375 42.890625 30.859375 
Q 38.875 34.625 31.78125 34.625 
z
M 21.921875 38.8125 
Q 15.578125 40.375 12.03125 44.71875 
Q 8.5 49.078125 8.5 55.328125 
Q 8.5 64.0625 14.71875 69.140625 
Q 20.953125 74.21875 31.78125 74.21875 
Q 42.671875 74.21875 48.875 69.140625 
Q 55.078125 64.0625 55.078125 55.328125 
Q 55.078125 49.078125 51.53125 44.71875 
Q 48 40.375 41.703125 38.8125 
Q 48.828125 37.15625 52.796875 32.3125 
Q 56.78125 27.484375 56.78125 20.515625 
Q 56.78125 9.90625 50.3125 4.234375 
Q 43.84375 -1.421875 31.78125 -1.421875 
Q 19.734375 -1.421875 13.25 4.234375 
Q 6.78125 9.90625 6.78125 20.515625 
Q 6.78125 27.484375 10.78125 32.3125 
Q 14.796875 37.15625 21.921875 38.8125 
z
M 18.3125 54.390625 
Q 18.3125 48.734375 21.84375 45.5625 
Q 25.390625 42.390625 31.78125 42.390625 
Q 38.140625 42.390625 41.71875 45.5625 
Q 45.3125 48.734375 45.3125 54.390625 
Q 45.3125 60.0625 41.71875 63.234375 
Q 38.140625 66.40625 31.78125 66.40625 
Q 25.390625 66.40625 21.84375 63.234375 
Q 18.3125 60.0625 18.3125 54.390625 
z
" id="DejaVuSans-56"/>
       </defs>
       <use xlink:href="#DejaVuSans-48"/>
       <use x="63.623047" xlink:href="#DejaVuSans-46"/>
       <use x="95.410156" xlink:href="#DejaVuSans-52"/>
       <use x="159.033203" xlink:href="#DejaVuSans-56"/>
      </g>
     </g>
    </g>
    <g id="ytick_3">
     <g id="line2d_12">
      <g>
       <use style="stroke:#000000;stroke-width:0.8;" x="104.85" xlink:href="#m91fa171a9f" y="308.539932"/>
      </g>
     </g>
     <g id="text_13">
      <!-- 0.50 -->
      <g transform="translate(68.904687 313.478917)scale(0.13 -0.13)">
       <use xlink:href="#DejaVuSans-48"/>
       <use x="63.623047" xlink:href="#DejaVuSans-46"/>
       <use x="95.410156" xlink:href="#DejaVuSans-53"/>
       <use x="159.033203" xlink:href="#DejaVuSans-48"/>
      </g>
     </g>
    </g>
    <g id="ytick_4">
     <g id="line2d_13">
      <g>
       <use style="stroke:#000000;stroke-width:0.8;" x="104.85" xlink:href="#m91fa171a9f" y="272.436438"/>
      </g>
     </g>
     <g id="text_14">
      <!-- 0.52 -->
      <g transform="translate(68.904687 277.375422)scale(0.13 -0.13)">
       <use xlink:href="#DejaVuSans-48"/>
       <use x="63.623047" xlink:href="#DejaVuSans-46"/>
       <use x="95.410156" xlink:href="#DejaVuSans-53"/>
       <use x="159.033203" xlink:href="#DejaVuSans-50"/>
      </g>
     </g>
    </g>
    <g id="ytick_5">
     <g id="line2d_14">
      <g>
       <use style="stroke:#000000;stroke-width:0.8;" x="104.85" xlink:href="#m91fa171a9f" y="236.332943"/>
      </g>
     </g>
     <g id="text_15">
      <!-- 0.54 -->
      <g transform="translate(68.904687 241.271928)scale(0.13 -0.13)">
       <use xlink:href="#DejaVuSans-48"/>
       <use x="63.623047" xlink:href="#DejaVuSans-46"/>
       <use x="95.410156" xlink:href="#DejaVuSans-53"/>
       <use x="159.033203" xlink:href="#DejaVuSans-52"/>
      </g>
     </g>
    </g>
    <g id="ytick_6">
     <g id="line2d_15">
      <g>
       <use style="stroke:#000000;stroke-width:0.8;" x="104.85" xlink:href="#m91fa171a9f" y="200.229449"/>
      </g>
     </g>
     <g id="text_16">
      <!-- 0.56 -->
      <g transform="translate(68.904687 205.168433)scale(0.13 -0.13)">
       <use xlink:href="#DejaVuSans-48"/>
       <use x="63.623047" xlink:href="#DejaVuSans-46"/>
       <use x="95.410156" xlink:href="#DejaVuSans-53"/>
       <use x="159.033203" xlink:href="#DejaVuSans-54"/>
      </g>
     </g>
    </g>
    <g id="ytick_7">
     <g id="line2d_16">
      <g>
       <use style="stroke:#000000;stroke-width:0.8;" x="104.85" xlink:href="#m91fa171a9f" y="164.125954"/>
      </g>
     </g>
     <g id="text_17">
      <!-- 0.58 -->
      <g transform="translate(68.904687 169.064939)scale(0.13 -0.13)">
       <use xlink:href="#DejaVuSans-48"/>
       <use x="63.623047" xlink:href="#DejaVuSans-46"/>
       <use x="95.410156" xlink:href="#DejaVuSans-53"/>
       <use x="159.033203" xlink:href="#DejaVuSans-56"/>
      </g>
     </g>
    </g>
    <g id="ytick_8">
     <g id="line2d_17">
      <g>
       <use style="stroke:#000000;stroke-width:0.8;" x="104.85" xlink:href="#m91fa171a9f" y="128.02246"/>
      </g>
     </g>
     <g id="text_18">
      <!-- 0.60 -->
      <g transform="translate(68.904687 132.961444)scale(0.13 -0.13)">
       <use xlink:href="#DejaVuSans-48"/>
       <use x="63.623047" xlink:href="#DejaVuSans-46"/>
       <use x="95.410156" xlink:href="#DejaVuSans-54"/>
       <use x="159.033203" xlink:href="#DejaVuSans-48"/>
      </g>
     </g>
    </g>
    <g id="text_19">
     <!-- G-Mean -->
     <g transform="translate(62.201094 275.743844)rotate(-90)scale(0.13 -0.13)">
      <defs>
       <path d="M 59.515625 10.40625 
L 59.515625 29.984375 
L 43.40625 29.984375 
L 43.40625 38.09375 
L 69.28125 38.09375 
L 69.28125 6.78125 
Q 63.578125 2.734375 56.6875 0.65625 
Q 49.8125 -1.421875 42 -1.421875 
Q 24.90625 -1.421875 15.25 8.5625 
Q 5.609375 18.5625 5.609375 36.375 
Q 5.609375 54.25 15.25 64.234375 
Q 24.90625 74.21875 42 74.21875 
Q 49.125 74.21875 55.546875 72.453125 
Q 61.96875 70.703125 67.390625 67.28125 
L 67.390625 56.78125 
Q 61.921875 61.421875 55.765625 63.765625 
Q 49.609375 66.109375 42.828125 66.109375 
Q 29.4375 66.109375 22.71875 58.640625 
Q 16.015625 51.171875 16.015625 36.375 
Q 16.015625 21.625 22.71875 14.15625 
Q 29.4375 6.6875 42.828125 6.6875 
Q 48.046875 6.6875 52.140625 7.59375 
Q 56.25 8.5 59.515625 10.40625 
z
" id="DejaVuSans-71"/>
       <path d="M 4.890625 31.390625 
L 31.203125 31.390625 
L 31.203125 23.390625 
L 4.890625 23.390625 
z
" id="DejaVuSans-45"/>
       <path d="M 9.8125 72.90625 
L 24.515625 72.90625 
L 43.109375 23.296875 
L 61.8125 72.90625 
L 76.515625 72.90625 
L 76.515625 0 
L 66.890625 0 
L 66.890625 64.015625 
L 48.09375 14.015625 
L 38.1875 14.015625 
L 19.390625 64.015625 
L 19.390625 0 
L 9.8125 0 
z
" id="DejaVuSans-77"/>
      </defs>
      <use xlink:href="#DejaVuSans-71"/>
      <use x="77.490234" xlink:href="#DejaVuSans-45"/>
      <use x="113.574219" xlink:href="#DejaVuSans-77"/>
      <use x="199.853516" xlink:href="#DejaVuSans-101"/>
      <use x="261.376953" xlink:href="#DejaVuSans-97"/>
      <use x="322.65625" xlink:href="#DejaVuSans-110"/>
     </g>
    </g>
   </g>
   <g id="line2d_18"/>
   <g id="line2d_19"/>
   <g id="line2d_20"/>
   <g id="line2d_21"/>
   <g id="line2d_22"/>
   <g id="line2d_23">
    <path clip-path="url(#pd4d806f5c6)" d="M 122.604545 157.05982 
L 124.407037 204.013639 
L 126.209529 198.194953 
L 128.012021 217.312772 
L 129.814513 215.872027 
L 131.617005 232.746337 
L 133.419497 232.114854 
L 135.221989 230.198618 
L 137.024481 233.232651 
L 138.826973 231.277344 
L 140.629465 233.181779 
L 142.431957 235.764942 
L 144.234449 238.944797 
L 146.03694 235.594618 
L 147.839432 235.622148 
L 149.641924 239.69467 
L 151.444416 237.756581 
L 153.246908 241.038273 
L 155.0494 246.41108 
L 156.851892 248.111509 
L 158.654384 250.102783 
L 160.456876 247.157854 
L 162.259368 252.741174 
L 164.06186 255.527874 
L 165.864352 259.26129 
L 167.666844 258.040968 
L 169.469335 260.580574 
L 171.271827 265.261056 
L 173.074319 266.689573 
L 174.876811 267.731626 
L 176.679303 268.00767 
L 178.481795 265.938089 
L 180.284287 266.811133 
L 182.086779 270.947922 
L 183.889271 272.189039 
L 185.691763 269.981394 
L 187.494255 275.064887 
L 189.296747 274.892121 
L 191.099239 269.847759 
L 192.901731 268.427729 
L 194.704222 270.4146 
L 196.506714 273.918288 
L 198.309206 270.318797 
L 200.111698 265.217737 
L 201.91419 262.106801 
L 203.716682 260.38448 
L 207.321666 254.684371 
L 209.124158 256.971213 
L 210.92665 260.144096 
L 212.729142 262.374129 
L 214.531634 261.7517 
L 216.334126 259.790912 
L 218.136617 258.223917 
L 219.939109 257.749283 
L 221.741601 260.380571 
L 223.544093 257.368127 
L 225.346585 255.54404 
L 227.149077 255.624025 
L 228.951569 252.663341 
L 230.754061 255.782305 
L 232.556553 257.170352 
L 234.359045 257.228494 
L 236.161537 259.327114 
L 237.964029 259.552186 
L 239.766521 259.179799 
L 241.569012 257.109675 
L 243.371504 256.266745 
L 245.173996 247.073389 
L 246.976488 244.379623 
L 248.77898 240.92916 
L 250.581472 243.026585 
L 252.383964 244.25377 
L 254.186456 243.934845 
L 255.988948 246.709067 
L 257.79144 243.568871 
L 259.593932 243.833965 
L 261.396424 243.209397 
L 263.198916 242.104736 
L 265.001407 244.765378 
L 266.803899 242.956531 
L 268.606391 239.877824 
L 272.211375 241.930079 
L 274.013867 246.698308 
L 277.618851 253.605723 
L 279.421343 255.651959 
L 281.223835 258.383434 
L 283.026327 257.575832 
L 284.828819 254.282883 
L 286.631311 253.097335 
L 288.433802 249.396426 
L 290.236294 250.610353 
L 292.038786 248.30066 
L 293.841278 247.542711 
L 295.64377 249.176529 
L 297.446262 248.985993 
L 299.248754 249.814956 
L 301.051246 250.2417 
L 302.853738 248.678089 
L 304.65623 250.008009 
L 306.458722 252.028046 
L 308.261214 250.843866 
L 310.063706 244.470644 
L 311.866198 237.476166 
L 313.668689 237.736298 
L 315.471181 235.907686 
L 317.273673 238.607492 
L 319.076165 238.178458 
L 320.878657 249.323981 
L 322.681149 248.673557 
L 324.483641 252.228883 
L 326.286133 249.952053 
L 328.088625 251.29482 
L 329.891117 250.439546 
L 331.693609 248.912037 
L 333.496101 251.089455 
L 335.298593 252.313932 
L 337.101084 255.798446 
L 338.903576 258.197341 
L 340.706068 254.181594 
L 342.50856 251.27945 
L 344.311052 249.983352 
L 346.113544 252.636493 
L 347.916036 254.845774 
L 349.718528 251.790897 
L 351.52102 249.347239 
L 353.323512 249.026255 
L 355.126004 253.500286 
L 356.928496 241.663354 
L 358.730988 245.523709 
L 360.533479 243.129972 
L 362.335971 242.109051 
L 364.138463 241.285768 
L 365.940955 243.567031 
L 367.743447 242.399849 
L 369.545939 241.945381 
L 371.348431 240.589697 
L 373.150923 236.680609 
L 374.953415 233.382791 
L 376.755907 240.306509 
L 378.558399 244.111319 
L 380.360891 244.267475 
L 382.163383 243.377824 
L 383.965874 247.964301 
L 385.768366 247.286112 
L 387.570858 251.955285 
L 389.37335 252.392082 
L 391.175842 249.325275 
L 392.978334 252.120493 
L 394.780826 250.663454 
L 396.583318 252.044341 
L 398.38581 258.227961 
L 400.188302 255.532109 
L 401.990794 254.685382 
L 403.793286 257.456058 
L 405.595778 257.346256 
L 407.398269 261.897674 
L 409.200761 260.840125 
L 411.003253 261.540369 
L 412.805745 255.754926 
L 414.608237 251.304713 
L 416.410729 251.088836 
L 418.213221 253.036522 
L 420.015713 248.279667 
L 421.818205 251.555281 
L 423.620697 249.682345 
L 427.225681 254.115342 
L 429.028173 258.240854 
L 430.830665 260.43333 
L 432.633156 259.76237 
L 434.435648 256.726072 
L 438.040632 265.249078 
L 439.843124 264.237632 
L 441.645616 262.284591 
L 443.448108 260.69632 
L 445.2506 258.081572 
L 447.053092 261.145833 
L 448.855584 262.690264 
L 452.460568 266.26704 
L 454.26306 267.027672 
L 456.065551 269.31357 
L 457.868043 269.33613 
L 459.670535 272.047142 
L 461.473027 269.85109 
L 463.275519 267.310562 
L 465.078011 265.39636 
L 466.880503 264.371303 
L 468.682995 264.329621 
L 470.485487 265.333899 
L 472.287979 261.784758 
L 474.090471 259.548841 
L 475.892963 260.446541 
L 477.695455 257.755035 
L 477.695455 257.755035 
" style="fill:none;stroke:#cc3311;stroke-linecap:square;stroke-width:0.5;"/>
    <defs>
     <path d="M 0 2.5 
C 0.663008 2.5 1.29895 2.236584 1.767767 1.767767 
C 2.236584 1.29895 2.5 0.663008 2.5 0 
C 2.5 -0.663008 2.236584 -1.29895 1.767767 -1.767767 
C 1.29895 -2.236584 0.663008 -2.5 0 -2.5 
C -0.663008 -2.5 -1.29895 -2.236584 -1.767767 -1.767767 
C -2.236584 -1.29895 -2.5 -0.663008 -2.5 0 
C -2.5 0.663008 -2.236584 1.29895 -1.767767 1.767767 
C -1.29895 2.236584 -0.663008 2.5 0 2.5 
z
" id="mcb9299acdd" style="stroke:#cc3311;"/>
    </defs>
    <g clip-path="url(#pd4d806f5c6)">
     <use style="fill:#cc3311;stroke:#cc3311;" x="122.604545" xlink:href="#mcb9299acdd" y="157.05982"/>
     <use style="fill:#cc3311;stroke:#cc3311;" x="140.629465" xlink:href="#mcb9299acdd" y="233.181779"/>
     <use style="fill:#cc3311;stroke:#cc3311;" x="158.654384" xlink:href="#mcb9299acdd" y="250.102783"/>
     <use style="fill:#cc3311;stroke:#cc3311;" x="176.679303" xlink:href="#mcb9299acdd" y="268.00767"/>
     <use style="fill:#cc3311;stroke:#cc3311;" x="194.704222" xlink:href="#mcb9299acdd" y="270.4146"/>
     <use style="fill:#cc3311;stroke:#cc3311;" x="212.729142" xlink:href="#mcb9299acdd" y="262.374129"/>
     <use style="fill:#cc3311;stroke:#cc3311;" x="230.754061" xlink:href="#mcb9299acdd" y="255.782305"/>
     <use style="fill:#cc3311;stroke:#cc3311;" x="248.77898" xlink:href="#mcb9299acdd" y="240.92916"/>
     <use style="fill:#cc3311;stroke:#cc3311;" x="266.803899" xlink:href="#mcb9299acdd" y="242.956531"/>
     <use style="fill:#cc3311;stroke:#cc3311;" x="284.828819" xlink:href="#mcb9299acdd" y="254.282883"/>
     <use style="fill:#cc3311;stroke:#cc3311;" x="302.853738" xlink:href="#mcb9299acdd" y="248.678089"/>
     <use style="fill:#cc3311;stroke:#cc3311;" x="320.878657" xlink:href="#mcb9299acdd" y="249.323981"/>
     <use style="fill:#cc3311;stroke:#cc3311;" x="338.903576" xlink:href="#mcb9299acdd" y="258.197341"/>
     <use style="fill:#cc3311;stroke:#cc3311;" x="356.928496" xlink:href="#mcb9299acdd" y="241.663354"/>
     <use style="fill:#cc3311;stroke:#cc3311;" x="374.953415" xlink:href="#mcb9299acdd" y="233.382791"/>
     <use style="fill:#cc3311;stroke:#cc3311;" x="392.978334" xlink:href="#mcb9299acdd" y="252.120493"/>
     <use style="fill:#cc3311;stroke:#cc3311;" x="411.003253" xlink:href="#mcb9299acdd" y="261.540369"/>
     <use style="fill:#cc3311;stroke:#cc3311;" x="429.028173" xlink:href="#mcb9299acdd" y="258.240854"/>
     <use style="fill:#cc3311;stroke:#cc3311;" x="447.053092" xlink:href="#mcb9299acdd" y="261.145833"/>
     <use style="fill:#cc3311;stroke:#cc3311;" x="465.078011" xlink:href="#mcb9299acdd" y="265.39636"/>
    </g>
   </g>
   <g id="line2d_24"/>
   <g id="line2d_25"/>
   <g id="line2d_26"/>
   <g id="line2d_27"/>
   <g id="line2d_28">
    <path clip-path="url(#pd4d806f5c6)" d="M 122.604545 161.018197 
L 124.407037 217.601473 
L 126.209529 214.340277 
L 128.012021 217.329052 
L 129.814513 211.433476 
L 131.617005 228.128962 
L 133.419497 228.500527 
L 135.221989 231.34829 
L 137.024481 244.18691 
L 138.826973 242.200468 
L 140.629465 244.720637 
L 142.431957 242.351904 
L 144.234449 244.3092 
L 146.03694 245.28449 
L 149.641924 253.013121 
L 151.444416 249.999934 
L 153.246908 251.19124 
L 155.0494 254.092297 
L 156.851892 256.020163 
L 158.654384 264.734765 
L 160.456876 262.164541 
L 162.259368 266.176578 
L 164.06186 272.085258 
L 165.864352 277.455186 
L 167.666844 274.739833 
L 169.469335 276.8109 
L 171.271827 277.850239 
L 173.074319 276.386013 
L 174.876811 277.372104 
L 176.679303 278.648389 
L 178.481795 279.767045 
L 180.284287 281.219406 
L 182.086779 281.079226 
L 183.889271 281.281937 
L 185.691763 279.904922 
L 187.494255 285.348879 
L 189.296747 285.913227 
L 191.099239 284.850323 
L 192.901731 282.677229 
L 194.704222 280.836746 
L 196.506714 286.641371 
L 198.309206 288.440283 
L 201.91419 285.565215 
L 203.716682 289.641753 
L 205.519174 291.151395 
L 207.321666 292.459287 
L 209.124158 290.7687 
L 210.92665 293.539738 
L 212.729142 297.281364 
L 214.531634 298.689898 
L 216.334126 300.775924 
L 218.136617 302.170057 
L 219.939109 299.845389 
L 221.741601 299.915451 
L 223.544093 297.464573 
L 225.346585 297.301752 
L 227.149077 298.104929 
L 228.951569 299.03669 
L 230.754061 301.379637 
L 232.556553 300.9003 
L 234.359045 298.536909 
L 236.161537 298.96547 
L 237.964029 300.210121 
L 241.569012 298.446316 
L 243.371504 299.576735 
L 245.173996 297.482461 
L 246.976488 294.691762 
L 248.77898 291.009565 
L 250.581472 294.669854 
L 252.383964 296.18823 
L 254.186456 296.272482 
L 255.988948 298.457932 
L 257.79144 298.786417 
L 259.593932 302.935843 
L 261.396424 303.808549 
L 263.198916 301.722093 
L 265.001407 303.753521 
L 266.803899 302.010494 
L 268.606391 300.86861 
L 270.408883 303.117665 
L 272.211375 303.694261 
L 274.013867 305.411028 
L 275.816359 305.234584 
L 277.618851 307.877952 
L 279.421343 306.942328 
L 281.223835 307.48665 
L 283.026327 310.081262 
L 284.828819 306.865803 
L 288.433802 299.368735 
L 290.236294 300.010869 
L 292.038786 302.833299 
L 293.841278 305.104274 
L 295.64377 298.497075 
L 297.446262 294.485128 
L 299.248754 296.155082 
L 301.051246 295.040711 
L 302.853738 294.270421 
L 304.65623 293.760827 
L 306.458722 291.62784 
L 313.668689 276.879732 
L 315.471181 276.82213 
L 317.273673 278.689112 
L 319.076165 274.651223 
L 320.878657 279.066754 
L 322.681149 279.088588 
L 326.286133 280.204768 
L 328.088625 276.537667 
L 329.891117 271.867983 
L 331.693609 271.197663 
L 333.496101 276.701939 
L 335.298593 276.424209 
L 337.101084 273.940292 
L 338.903576 270.966801 
L 340.706068 268.960725 
L 342.50856 268.618023 
L 344.311052 270.160711 
L 346.113544 268.03025 
L 347.916036 270.89922 
L 349.718528 270.278581 
L 351.52102 269.072407 
L 353.323512 271.737796 
L 355.126004 276.641125 
L 356.928496 272.94326 
L 358.730988 275.792728 
L 360.533479 274.484068 
L 362.335971 271.110317 
L 364.138463 272.337734 
L 365.940955 272.567217 
L 367.743447 275.093741 
L 369.545939 271.255292 
L 371.348431 269.086839 
L 373.150923 268.701183 
L 374.953415 271.674056 
L 376.755907 272.635017 
L 378.558399 273.758616 
L 380.360891 275.621394 
L 382.163383 278.957803 
L 383.965874 280.013432 
L 385.768366 279.801515 
L 387.570858 278.624033 
L 389.37335 276.460869 
L 391.175842 271.77865 
L 392.978334 271.861569 
L 396.583318 270.04899 
L 398.38581 274.934695 
L 400.188302 271.993001 
L 401.990794 272.399082 
L 403.793286 276.673335 
L 405.595778 278.536973 
L 407.398269 282.019995 
L 409.200761 283.046853 
L 411.003253 281.099558 
L 412.805745 279.405187 
L 416.410729 272.557102 
L 418.213221 273.48094 
L 420.015713 270.087332 
L 421.818205 271.617762 
L 423.620697 270.212019 
L 425.423189 269.752877 
L 427.225681 274.638714 
L 429.028173 277.778105 
L 430.830665 278.183125 
L 432.633156 279.218224 
L 434.435648 275.863756 
L 436.23814 277.121386 
L 438.040632 279.31698 
L 439.843124 279.845555 
L 443.448108 277.343649 
L 445.2506 278.360924 
L 447.053092 277.730145 
L 448.855584 280.335284 
L 450.658076 283.909066 
L 452.460568 286.878415 
L 454.26306 287.644199 
L 456.065551 289.092531 
L 457.868043 290.162715 
L 459.670535 294.219124 
L 461.473027 292.237439 
L 463.275519 293.491518 
L 465.078011 290.21379 
L 466.880503 288.314115 
L 468.682995 285.956956 
L 470.485487 285.655487 
L 472.287979 284.615399 
L 474.090471 286.039651 
L 475.892963 281.170892 
L 477.695455 279.746627 
L 477.695455 279.746627 
" style="fill:none;stroke:#009988;stroke-dasharray:1.85,0.8;stroke-dashoffset:0;stroke-width:0.5;"/>
    <defs>
     <path d="M -2.5 2.5 
L 2.5 2.5 
L 2.5 -2.5 
L -2.5 -2.5 
z
" id="mcac4f0fc8b" style="stroke:#009988;stroke-linejoin:miter;"/>
    </defs>
    <g clip-path="url(#pd4d806f5c6)">
     <use style="fill:#009988;stroke:#009988;stroke-linejoin:miter;" x="122.604545" xlink:href="#mcac4f0fc8b" y="161.018197"/>
     <use style="fill:#009988;stroke:#009988;stroke-linejoin:miter;" x="140.629465" xlink:href="#mcac4f0fc8b" y="244.720637"/>
     <use style="fill:#009988;stroke:#009988;stroke-linejoin:miter;" x="158.654384" xlink:href="#mcac4f0fc8b" y="264.734765"/>
     <use style="fill:#009988;stroke:#009988;stroke-linejoin:miter;" x="176.679303" xlink:href="#mcac4f0fc8b" y="278.648389"/>
     <use style="fill:#009988;stroke:#009988;stroke-linejoin:miter;" x="194.704222" xlink:href="#mcac4f0fc8b" y="280.836746"/>
     <use style="fill:#009988;stroke:#009988;stroke-linejoin:miter;" x="212.729142" xlink:href="#mcac4f0fc8b" y="297.281364"/>
     <use style="fill:#009988;stroke:#009988;stroke-linejoin:miter;" x="230.754061" xlink:href="#mcac4f0fc8b" y="301.379637"/>
     <use style="fill:#009988;stroke:#009988;stroke-linejoin:miter;" x="248.77898" xlink:href="#mcac4f0fc8b" y="291.009565"/>
     <use style="fill:#009988;stroke:#009988;stroke-linejoin:miter;" x="266.803899" xlink:href="#mcac4f0fc8b" y="302.010494"/>
     <use style="fill:#009988;stroke:#009988;stroke-linejoin:miter;" x="284.828819" xlink:href="#mcac4f0fc8b" y="306.865803"/>
     <use style="fill:#009988;stroke:#009988;stroke-linejoin:miter;" x="302.853738" xlink:href="#mcac4f0fc8b" y="294.270421"/>
     <use style="fill:#009988;stroke:#009988;stroke-linejoin:miter;" x="320.878657" xlink:href="#mcac4f0fc8b" y="279.066754"/>
     <use style="fill:#009988;stroke:#009988;stroke-linejoin:miter;" x="338.903576" xlink:href="#mcac4f0fc8b" y="270.966801"/>
     <use style="fill:#009988;stroke:#009988;stroke-linejoin:miter;" x="356.928496" xlink:href="#mcac4f0fc8b" y="272.94326"/>
     <use style="fill:#009988;stroke:#009988;stroke-linejoin:miter;" x="374.953415" xlink:href="#mcac4f0fc8b" y="271.674056"/>
     <use style="fill:#009988;stroke:#009988;stroke-linejoin:miter;" x="392.978334" xlink:href="#mcac4f0fc8b" y="271.861569"/>
     <use style="fill:#009988;stroke:#009988;stroke-linejoin:miter;" x="411.003253" xlink:href="#mcac4f0fc8b" y="281.099558"/>
     <use style="fill:#009988;stroke:#009988;stroke-linejoin:miter;" x="429.028173" xlink:href="#mcac4f0fc8b" y="277.778105"/>
     <use style="fill:#009988;stroke:#009988;stroke-linejoin:miter;" x="447.053092" xlink:href="#mcac4f0fc8b" y="277.730145"/>
     <use style="fill:#009988;stroke:#009988;stroke-linejoin:miter;" x="465.078011" xlink:href="#mcac4f0fc8b" y="290.21379"/>
    </g>
   </g>
   <g id="line2d_29"/>
   <g id="line2d_30"/>
   <g id="line2d_31"/>
   <g id="line2d_32"/>
   <g id="line2d_33">
    <path clip-path="url(#pd4d806f5c6)" d="M 122.604545 146.355729 
L 124.407037 180.27872 
L 126.209529 187.516558 
L 128.012021 186.686343 
L 129.814513 182.113903 
L 131.617005 182.117869 
L 133.419497 171.933607 
L 135.221989 181.071809 
L 137.024481 185.279722 
L 138.826973 178.769103 
L 140.629465 178.402319 
L 142.431957 174.133671 
L 144.234449 175.222949 
L 147.839432 176.274923 
L 149.641924 176.155943 
L 151.444416 169.959092 
L 153.246908 167.609217 
L 155.0494 165.052069 
L 156.851892 163.314002 
L 158.654384 161.147042 
L 160.456876 157.725629 
L 162.259368 155.358787 
L 164.06186 150.893946 
L 165.864352 147.475375 
L 167.666844 147.261637 
L 169.469335 147.207973 
L 171.271827 142.46728 
L 173.074319 141.406862 
L 174.876811 141.134505 
L 176.679303 142.70335 
L 178.481795 142.832599 
L 180.284287 139.899896 
L 182.086779 138.075354 
L 183.889271 138.195555 
L 185.691763 136.696116 
L 187.494255 143.58795 
L 189.296747 144.307768 
L 191.099239 146.290739 
L 192.901731 149.289181 
L 194.704222 153.857629 
L 196.506714 154.418146 
L 198.309206 154.713843 
L 200.111698 157.867454 
L 201.91419 159.055863 
L 203.716682 158.750171 
L 205.519174 159.440638 
L 207.321666 158.539436 
L 209.124158 157.142317 
L 210.92665 161.99723 
L 212.729142 162.173374 
L 216.334126 164.809802 
L 218.136617 161.760275 
L 219.939109 155.663317 
L 221.741601 158.045086 
L 225.346585 153.94765 
L 227.149077 153.512439 
L 228.951569 148.332114 
L 230.754061 149.612481 
L 232.556553 148.416402 
L 236.161537 147.070935 
L 237.964029 150.066729 
L 239.766521 150.404605 
L 241.569012 150.598378 
L 245.173996 142.733299 
L 246.976488 138.025494 
L 248.77898 134.411811 
L 250.581472 139.121199 
L 252.383964 140.586013 
L 254.186456 143.409469 
L 255.988948 149.824216 
L 257.79144 146.861922 
L 261.396424 155.044086 
L 263.198916 154.661424 
L 265.001407 157.723085 
L 266.803899 154.07596 
L 268.606391 153.252938 
L 270.408883 149.427222 
L 274.013867 148.590043 
L 275.816359 146.281252 
L 277.618851 146.53863 
L 279.421343 150.557175 
L 281.223835 150.886243 
L 283.026327 150.363324 
L 284.828819 148.91436 
L 286.631311 141.584375 
L 288.433802 139.199746 
L 290.236294 141.001862 
L 292.038786 141.827871 
L 293.841278 143.32452 
L 299.248754 132.435989 
L 301.051246 133.092479 
L 302.853738 134.742162 
L 304.65623 135.535723 
L 306.458722 139.691649 
L 308.261214 142.66409 
L 310.063706 140.373715 
L 311.866198 136.930302 
L 313.668689 139.063275 
L 315.471181 138.626487 
L 317.273673 144.294621 
L 319.076165 146.616013 
L 320.878657 154.757365 
L 322.681149 156.91425 
L 324.483641 155.695519 
L 326.286133 156.625954 
L 328.088625 152.69058 
L 329.891117 152.240335 
L 331.693609 144.763437 
L 333.496101 146.942685 
L 335.298593 153.125836 
L 337.101084 149.093036 
L 338.903576 145.380104 
L 340.706068 143.657712 
L 342.50856 143.789347 
L 344.311052 140.070691 
L 346.113544 142.7135 
L 347.916036 144.089828 
L 349.718528 141.899497 
L 351.52102 142.106902 
L 353.323512 137.953385 
L 355.126004 138.339597 
L 356.928496 131.578146 
L 358.730988 129.830414 
L 360.533479 130.025406 
L 362.335971 124.651813 
L 364.138463 130.261044 
L 365.940955 129.842059 
L 367.743447 132.212688 
L 369.545939 132.072707 
L 371.348431 129.214647 
L 373.150923 129.080416 
L 374.953415 127.800638 
L 376.755907 130.273609 
L 378.558399 130.105083 
L 380.360891 131.711871 
L 382.163383 130.531839 
L 383.965874 133.847434 
L 385.768366 131.291345 
L 387.570858 130.216858 
L 389.37335 131.158295 
L 391.175842 128.960941 
L 392.978334 128.559672 
L 394.780826 130.251558 
L 396.583318 133.329163 
L 398.38581 134.803431 
L 400.188302 134.59257 
L 401.990794 137.083334 
L 403.793286 144.788776 
L 405.595778 144.763929 
L 407.398269 147.876403 
L 409.200761 151.531436 
L 411.003253 155.543307 
L 412.805745 151.691594 
L 414.608237 150.104346 
L 416.410729 151.170986 
L 418.213221 150.519072 
L 420.015713 148.574935 
L 423.620697 153.023626 
L 425.423189 154.993592 
L 427.225681 158.050476 
L 429.028173 158.760071 
L 430.830665 160.265912 
L 432.633156 159.303674 
L 434.435648 158.717128 
L 436.23814 154.719698 
L 438.040632 152.90636 
L 439.843124 150.037145 
L 441.645616 148.973522 
L 443.448108 148.528564 
L 445.2506 146.946615 
L 447.053092 146.407018 
L 448.855584 152.20886 
L 450.658076 157.020937 
L 452.460568 155.604203 
L 454.26306 158.593908 
L 456.065551 158.168268 
L 457.868043 160.190459 
L 459.670535 162.040912 
L 461.473027 158.582018 
L 463.275519 156.076323 
L 465.078011 155.82404 
L 466.880503 156.712124 
L 468.682995 156.261479 
L 470.485487 157.421709 
L 472.287979 153.559167 
L 474.090471 152.663527 
L 475.892963 151.204698 
L 477.695455 149.423888 
L 477.695455 149.423888 
" style="fill:none;stroke:#0077bb;stroke-dasharray:3.2,0.8,0.5,0.8;stroke-dashoffset:0;stroke-width:0.5;"/>
    <defs>
     <path d="M 0 -2.5 
L -2.5 2.5 
L 2.5 2.5 
z
" id="m47ef84e72b" style="stroke:#0077bb;stroke-linejoin:miter;"/>
    </defs>
    <g clip-path="url(#pd4d806f5c6)">
     <use style="fill:#0077bb;stroke:#0077bb;stroke-linejoin:miter;" x="122.604545" xlink:href="#m47ef84e72b" y="146.355729"/>
     <use style="fill:#0077bb;stroke:#0077bb;stroke-linejoin:miter;" x="140.629465" xlink:href="#m47ef84e72b" y="178.402319"/>
     <use style="fill:#0077bb;stroke:#0077bb;stroke-linejoin:miter;" x="158.654384" xlink:href="#m47ef84e72b" y="161.147042"/>
     <use style="fill:#0077bb;stroke:#0077bb;stroke-linejoin:miter;" x="176.679303" xlink:href="#m47ef84e72b" y="142.70335"/>
     <use style="fill:#0077bb;stroke:#0077bb;stroke-linejoin:miter;" x="194.704222" xlink:href="#m47ef84e72b" y="153.857629"/>
     <use style="fill:#0077bb;stroke:#0077bb;stroke-linejoin:miter;" x="212.729142" xlink:href="#m47ef84e72b" y="162.173374"/>
     <use style="fill:#0077bb;stroke:#0077bb;stroke-linejoin:miter;" x="230.754061" xlink:href="#m47ef84e72b" y="149.612481"/>
     <use style="fill:#0077bb;stroke:#0077bb;stroke-linejoin:miter;" x="248.77898" xlink:href="#m47ef84e72b" y="134.411811"/>
     <use style="fill:#0077bb;stroke:#0077bb;stroke-linejoin:miter;" x="266.803899" xlink:href="#m47ef84e72b" y="154.07596"/>
     <use style="fill:#0077bb;stroke:#0077bb;stroke-linejoin:miter;" x="284.828819" xlink:href="#m47ef84e72b" y="148.91436"/>
     <use style="fill:#0077bb;stroke:#0077bb;stroke-linejoin:miter;" x="302.853738" xlink:href="#m47ef84e72b" y="134.742162"/>
     <use style="fill:#0077bb;stroke:#0077bb;stroke-linejoin:miter;" x="320.878657" xlink:href="#m47ef84e72b" y="154.757365"/>
     <use style="fill:#0077bb;stroke:#0077bb;stroke-linejoin:miter;" x="338.903576" xlink:href="#m47ef84e72b" y="145.380104"/>
     <use style="fill:#0077bb;stroke:#0077bb;stroke-linejoin:miter;" x="356.928496" xlink:href="#m47ef84e72b" y="131.578146"/>
     <use style="fill:#0077bb;stroke:#0077bb;stroke-linejoin:miter;" x="374.953415" xlink:href="#m47ef84e72b" y="127.800638"/>
     <use style="fill:#0077bb;stroke:#0077bb;stroke-linejoin:miter;" x="392.978334" xlink:href="#m47ef84e72b" y="128.559672"/>
     <use style="fill:#0077bb;stroke:#0077bb;stroke-linejoin:miter;" x="411.003253" xlink:href="#m47ef84e72b" y="155.543307"/>
     <use style="fill:#0077bb;stroke:#0077bb;stroke-linejoin:miter;" x="429.028173" xlink:href="#m47ef84e72b" y="158.760071"/>
     <use style="fill:#0077bb;stroke:#0077bb;stroke-linejoin:miter;" x="447.053092" xlink:href="#m47ef84e72b" y="146.407018"/>
     <use style="fill:#0077bb;stroke:#0077bb;stroke-linejoin:miter;" x="465.078011" xlink:href="#m47ef84e72b" y="155.82404"/>
    </g>
   </g>
   <g id="line2d_34"/>
   <g id="line2d_35"/>
   <g id="line2d_36"/>
   <g id="line2d_37"/>
   <g id="line2d_38">
    <path clip-path="url(#pd4d806f5c6)" d="M 122.604545 171.045834 
L 124.407037 238.234943 
L 126.209529 265.405768 
L 128.012021 255.115701 
L 129.814513 253.029682 
L 131.617005 254.610713 
L 133.419497 246.450649 
L 135.221989 247.161926 
L 137.024481 258.149602 
L 138.826973 250.697499 
L 140.629465 253.022475 
L 142.431957 257.291985 
L 144.234449 262.999097 
L 146.03694 263.113026 
L 149.641924 270.655377 
L 151.444416 268.599217 
L 153.246908 270.45029 
L 155.0494 270.31035 
L 156.851892 274.171314 
L 158.654384 282.577023 
L 160.456876 280.545744 
L 162.259368 278.880487 
L 164.06186 284.825052 
L 165.864352 289.316776 
L 167.666844 296.0277 
L 169.469335 301.361561 
L 171.271827 304.404979 
L 173.074319 304.64404 
L 174.876811 310.007733 
L 176.679303 310.172687 
L 178.481795 310.552941 
L 180.284287 311.10595 
L 182.086779 313.06634 
L 183.889271 313.012444 
L 185.691763 310.227093 
L 187.494255 312.634772 
L 189.296747 313.685933 
L 191.099239 314.190274 
L 192.901731 314.983413 
L 194.704222 314.371637 
L 196.506714 317.263899 
L 198.309206 318.004791 
L 200.111698 317.160307 
L 201.91419 314.870364 
L 203.716682 311.734582 
L 205.519174 311.768728 
L 207.321666 310.932617 
L 209.124158 310.997319 
L 210.92665 316.55575 
L 212.729142 321.320751 
L 214.531634 317.11696 
L 216.334126 316.560267 
L 218.136617 317.108375 
L 219.939109 316.051662 
L 221.741601 319.535602 
L 223.544093 319.163602 
L 225.346585 315.818563 
L 227.149077 317.511548 
L 228.951569 309.920429 
L 230.754061 312.572463 
L 232.556553 314.024821 
L 234.359045 312.046379 
L 236.161537 311.701615 
L 239.766521 314.414252 
L 241.569012 314.737659 
L 243.371504 313.051327 
L 245.173996 308.73875 
L 246.976488 307.027354 
L 248.77898 304.423342 
L 250.581472 311.671916 
L 252.383964 313.842379 
L 254.186456 314.657939 
L 255.988948 315.243825 
L 257.79144 313.496895 
L 259.593932 317.89838 
L 261.396424 321.527461 
L 263.198916 320.549365 
L 265.001407 326.808404 
L 266.803899 324.73176 
L 268.606391 319.899499 
L 270.408883 323.963948 
L 272.211375 326.07512 
L 274.013867 329.810606 
L 275.816359 334.022777 
L 277.618851 336.14497 
L 279.421343 340.060558 
L 281.223835 340.452093 
L 283.026327 338.811502 
L 284.828819 336.847958 
L 286.631311 335.893085 
L 288.433802 329.193015 
L 290.236294 328.719885 
L 292.038786 331.658385 
L 293.841278 331.026269 
L 295.64377 329.581891 
L 297.446262 328.419374 
L 299.248754 329.558645 
L 301.051246 330.043542 
L 302.853738 331.14294 
L 304.65623 334.771302 
L 306.458722 336.601498 
L 308.261214 332.882997 
L 310.063706 328.556975 
L 311.866198 320.484394 
L 313.668689 320.120281 
L 315.471181 320.309909 
L 317.273673 325.760062 
L 319.076165 323.09765 
L 320.878657 329.280679 
L 322.681149 328.987088 
L 324.483641 333.923002 
L 326.286133 334.180809 
L 328.088625 334.161537 
L 329.891117 338.331148 
L 331.693609 334.813469 
L 333.496101 339.532226 
L 335.298593 343.212121 
L 337.101084 342.255028 
L 338.903576 340.24791 
L 340.706068 341.67226 
L 342.50856 339.771809 
L 344.311052 343.006184 
L 346.113544 345.076485 
L 347.916036 345.820916 
L 349.718528 344.76059 
L 351.52102 342.201249 
L 353.323512 340.017057 
L 355.126004 343.692555 
L 356.928496 336.455391 
L 358.730988 334.938793 
L 360.533479 335.303794 
L 362.335971 332.887337 
L 364.138463 333.88204 
L 365.940955 330.539827 
L 367.743447 334.18653 
L 369.545939 330.943853 
L 371.348431 325.959738 
L 373.150923 324.582692 
L 374.953415 324.668855 
L 376.755907 323.336128 
L 378.558399 322.442272 
L 380.360891 323.595996 
L 382.163383 322.235843 
L 383.965874 327.03208 
L 385.768366 325.534108 
L 387.570858 326.297339 
L 389.37335 327.265966 
L 391.175842 325.746311 
L 392.978334 329.343865 
L 394.780826 330.350034 
L 396.583318 330.420909 
L 398.38581 338.302201 
L 400.188302 333.395392 
L 401.990794 336.34033 
L 403.793286 336.846465 
L 405.595778 338.309753 
L 407.398269 342.174269 
L 409.200761 344.690357 
L 411.003253 346.530135 
L 412.805745 344.216184 
L 414.608237 343.323272 
L 416.410729 341.536399 
L 418.213221 342.563169 
L 420.015713 335.365612 
L 421.818205 334.58737 
L 423.620697 333.971092 
L 425.423189 333.148165 
L 427.225681 336.697768 
L 429.028173 337.532485 
L 430.830665 341.489532 
L 432.633156 342.261691 
L 434.435648 338.76095 
L 436.23814 345.175186 
L 438.040632 344.66312 
L 439.843124 346.840277 
L 441.645616 347.689361 
L 443.448108 349.134019 
L 445.2506 349.351049 
L 447.053092 348.508541 
L 448.855584 352.022518 
L 450.658076 355.190065 
L 452.460568 358.897343 
L 454.26306 362.021871 
L 456.065551 366.643242 
L 457.868043 370.774278 
L 459.670535 376.511942 
L 461.473027 376.651813 
L 463.275519 375.115012 
L 465.078011 373.860546 
L 466.880503 370.667856 
L 468.682995 371.726178 
L 470.485487 371.279658 
L 472.287979 368.086309 
L 474.090471 369.448206 
L 475.892963 366.242947 
L 477.695455 361.356406 
L 477.695455 361.356406 
" style="fill:none;stroke:#ee7733;stroke-dasharray:0.5,0.825;stroke-dashoffset:0;stroke-width:0.5;"/>
    <defs>
     <path d="M 0 -2.5 
L -0.561285 -0.772542 
L -2.377641 -0.772542 
L -0.908178 0.295085 
L -1.469463 2.022542 
L -0 0.954915 
L 1.469463 2.022542 
L 0.908178 0.295085 
L 2.377641 -0.772542 
L 0.561285 -0.772542 
z
" id="m8bf0823a19" style="stroke:#ee7733;stroke-linejoin:bevel;"/>
    </defs>
    <g clip-path="url(#pd4d806f5c6)">
     <use style="fill:#ee7733;stroke:#ee7733;stroke-linejoin:bevel;" x="122.604545" xlink:href="#m8bf0823a19" y="171.045834"/>
     <use style="fill:#ee7733;stroke:#ee7733;stroke-linejoin:bevel;" x="140.629465" xlink:href="#m8bf0823a19" y="253.022475"/>
     <use style="fill:#ee7733;stroke:#ee7733;stroke-linejoin:bevel;" x="158.654384" xlink:href="#m8bf0823a19" y="282.577023"/>
     <use style="fill:#ee7733;stroke:#ee7733;stroke-linejoin:bevel;" x="176.679303" xlink:href="#m8bf0823a19" y="310.172687"/>
     <use style="fill:#ee7733;stroke:#ee7733;stroke-linejoin:bevel;" x="194.704222" xlink:href="#m8bf0823a19" y="314.371637"/>
     <use style="fill:#ee7733;stroke:#ee7733;stroke-linejoin:bevel;" x="212.729142" xlink:href="#m8bf0823a19" y="321.320751"/>
     <use style="fill:#ee7733;stroke:#ee7733;stroke-linejoin:bevel;" x="230.754061" xlink:href="#m8bf0823a19" y="312.572463"/>
     <use style="fill:#ee7733;stroke:#ee7733;stroke-linejoin:bevel;" x="248.77898" xlink:href="#m8bf0823a19" y="304.423342"/>
     <use style="fill:#ee7733;stroke:#ee7733;stroke-linejoin:bevel;" x="266.803899" xlink:href="#m8bf0823a19" y="324.73176"/>
     <use style="fill:#ee7733;stroke:#ee7733;stroke-linejoin:bevel;" x="284.828819" xlink:href="#m8bf0823a19" y="336.847958"/>
     <use style="fill:#ee7733;stroke:#ee7733;stroke-linejoin:bevel;" x="302.853738" xlink:href="#m8bf0823a19" y="331.14294"/>
     <use style="fill:#ee7733;stroke:#ee7733;stroke-linejoin:bevel;" x="320.878657" xlink:href="#m8bf0823a19" y="329.280679"/>
     <use style="fill:#ee7733;stroke:#ee7733;stroke-linejoin:bevel;" x="338.903576" xlink:href="#m8bf0823a19" y="340.24791"/>
     <use style="fill:#ee7733;stroke:#ee7733;stroke-linejoin:bevel;" x="356.928496" xlink:href="#m8bf0823a19" y="336.455391"/>
     <use style="fill:#ee7733;stroke:#ee7733;stroke-linejoin:bevel;" x="374.953415" xlink:href="#m8bf0823a19" y="324.668855"/>
     <use style="fill:#ee7733;stroke:#ee7733;stroke-linejoin:bevel;" x="392.978334" xlink:href="#m8bf0823a19" y="329.343865"/>
     <use style="fill:#ee7733;stroke:#ee7733;stroke-linejoin:bevel;" x="411.003253" xlink:href="#m8bf0823a19" y="346.530135"/>
     <use style="fill:#ee7733;stroke:#ee7733;stroke-linejoin:bevel;" x="429.028173" xlink:href="#m8bf0823a19" y="337.532485"/>
     <use style="fill:#ee7733;stroke:#ee7733;stroke-linejoin:bevel;" x="447.053092" xlink:href="#m8bf0823a19" y="348.508541"/>
     <use style="fill:#ee7733;stroke:#ee7733;stroke-linejoin:bevel;" x="465.078011" xlink:href="#m8bf0823a19" y="373.860546"/>
    </g>
   </g>
   <g id="line2d_39"/>
   <g id="line2d_40"/>
   <g id="line2d_41"/>
   <g id="line2d_42"/>
   <g id="patch_3">
    <path d="M 104.85 389.251813 
L 104.85 112.051813 
" style="fill:none;stroke:#000000;stroke-linecap:square;stroke-linejoin:miter;stroke-width:0.8;"/>
   </g>
   <g id="patch_4">
    <path d="M 495.45 389.251813 
L 495.45 112.051813 
" style="fill:none;stroke:#000000;stroke-linecap:square;stroke-linejoin:miter;stroke-width:0.8;"/>
   </g>
   <g id="patch_5">
    <path d="M 104.85 389.251812 
L 495.45 389.251812 
" style="fill:none;stroke:#000000;stroke-linecap:square;stroke-linejoin:miter;stroke-width:0.8;"/>
   </g>
   <g id="patch_6">
    <path d="M 104.85 112.051812 
L 495.45 112.051812 
" style="fill:none;stroke:#000000;stroke-linecap:square;stroke-linejoin:miter;stroke-width:0.8;"/>
   </g>
   <g id="legend_1">
    <g id="line2d_43"/>
    <g id="line2d_44"/>
    <g id="text_20">
     <!--   -->
     <g transform="translate(48.8 22.277969)scale(0.13 -0.13)">
      <use xlink:href="#DejaVuSans-32"/>
     </g>
    </g>
    <g id="line2d_45"/>
    <g id="line2d_46"/>
    <g id="text_21">
     <!-- start -->
     <g transform="translate(48.8 41.359531)scale(0.13 -0.13)">
      <use xlink:href="#DejaVuSans-115"/>
      <use x="52.099609" xlink:href="#DejaVuSans-116"/>
      <use x="91.308594" xlink:href="#DejaVuSans-97"/>
      <use x="152.587891" xlink:href="#DejaVuSans-114"/>
      <use x="193.701172" xlink:href="#DejaVuSans-116"/>
     </g>
    </g>
    <g id="line2d_47"/>
    <g id="line2d_48"/>
    <g id="text_22">
     <!-- pre-dirft -->
     <g transform="translate(48.8 60.441094)scale(0.13 -0.13)">
      <use xlink:href="#DejaVuSans-112"/>
      <use x="63.476562" xlink:href="#DejaVuSans-114"/>
      <use x="102.339844" xlink:href="#DejaVuSans-101"/>
      <use x="163.863281" xlink:href="#DejaVuSans-45"/>
      <use x="199.947266" xlink:href="#DejaVuSans-100"/>
      <use x="263.423828" xlink:href="#DejaVuSans-105"/>
      <use x="291.207031" xlink:href="#DejaVuSans-114"/>
      <use x="332.320312" xlink:href="#DejaVuSans-102"/>
      <use x="365.775391" xlink:href="#DejaVuSans-116"/>
     </g>
    </g>
    <g id="line2d_49"/>
    <g id="line2d_50"/>
    <g id="text_23">
     <!-- post-drift -->
     <g transform="translate(48.8 79.522656)scale(0.13 -0.13)">
      <use xlink:href="#DejaVuSans-112"/>
      <use x="63.476562" xlink:href="#DejaVuSans-111"/>
      <use x="124.658203" xlink:href="#DejaVuSans-115"/>
      <use x="176.757812" xlink:href="#DejaVuSans-116"/>
      <use x="215.966797" xlink:href="#DejaVuSans-45"/>
      <use x="252.050781" xlink:href="#DejaVuSans-100"/>
      <use x="315.527344" xlink:href="#DejaVuSans-114"/>
      <use x="356.640625" xlink:href="#DejaVuSans-105"/>
      <use x="384.423828" xlink:href="#DejaVuSans-102"/>
      <use x="417.878906" xlink:href="#DejaVuSans-116"/>
     </g>
    </g>
    <g id="line2d_51"/>
    <g id="line2d_52"/>
    <g id="text_24">
     <!-- end -->
     <g transform="translate(48.8 98.604219)scale(0.13 -0.13)">
      <use xlink:href="#DejaVuSans-101"/>
      <use x="61.523438" xlink:href="#DejaVuSans-110"/>
      <use x="124.902344" xlink:href="#DejaVuSans-100"/>
     </g>
    </g>
    <g id="line2d_53">
     <path d="M 121.839805 17.727969 
L 147.839805 17.727969 
" style="fill:none;stroke:#cc3311;stroke-linecap:square;stroke-width:0.5;"/>
    </g>
    <g id="line2d_54">
     <g>
      <use style="fill:#cc3311;stroke:#cc3311;" x="134.839805" xlink:href="#mcb9299acdd" y="17.727969"/>
     </g>
    </g>
    <g id="text_25">
     <!-- OOB -->
     <g transform="translate(158.239805 22.277969)scale(0.13 -0.13)">
      <defs>
       <path d="M 39.40625 66.21875 
Q 28.65625 66.21875 22.328125 58.203125 
Q 16.015625 50.203125 16.015625 36.375 
Q 16.015625 22.609375 22.328125 14.59375 
Q 28.65625 6.59375 39.40625 6.59375 
Q 50.140625 6.59375 56.421875 14.59375 
Q 62.703125 22.609375 62.703125 36.375 
Q 62.703125 50.203125 56.421875 58.203125 
Q 50.140625 66.21875 39.40625 66.21875 
z
M 39.40625 74.21875 
Q 54.734375 74.21875 63.90625 63.9375 
Q 73.09375 53.65625 73.09375 36.375 
Q 73.09375 19.140625 63.90625 8.859375 
Q 54.734375 -1.421875 39.40625 -1.421875 
Q 24.03125 -1.421875 14.8125 8.828125 
Q 5.609375 19.09375 5.609375 36.375 
Q 5.609375 53.65625 14.8125 63.9375 
Q 24.03125 74.21875 39.40625 74.21875 
z
" id="DejaVuSans-79"/>
       <path d="M 19.671875 34.8125 
L 19.671875 8.109375 
L 35.5 8.109375 
Q 43.453125 8.109375 47.28125 11.40625 
Q 51.125 14.703125 51.125 21.484375 
Q 51.125 28.328125 47.28125 31.5625 
Q 43.453125 34.8125 35.5 34.8125 
z
M 19.671875 64.796875 
L 19.671875 42.828125 
L 34.28125 42.828125 
Q 41.5 42.828125 45.03125 45.53125 
Q 48.578125 48.25 48.578125 53.8125 
Q 48.578125 59.328125 45.03125 62.0625 
Q 41.5 64.796875 34.28125 64.796875 
z
M 9.8125 72.90625 
L 35.015625 72.90625 
Q 46.296875 72.90625 52.390625 68.21875 
Q 58.5 63.53125 58.5 54.890625 
Q 58.5 48.1875 55.375 44.234375 
Q 52.25 40.28125 46.1875 39.3125 
Q 53.46875 37.75 57.5 32.78125 
Q 61.53125 27.828125 61.53125 20.40625 
Q 61.53125 10.640625 54.890625 5.3125 
Q 48.25 0 35.984375 0 
L 9.8125 0 
z
" id="DejaVuSans-66"/>
      </defs>
      <use xlink:href="#DejaVuSans-79"/>
      <use x="78.710938" xlink:href="#DejaVuSans-79"/>
      <use x="157.421875" xlink:href="#DejaVuSans-66"/>
     </g>
    </g>
    <g id="line2d_55"/>
    <g id="line2d_56"/>
    <g id="text_26">
     <!-- 0.5839 -->
     <g transform="translate(158.239805 41.359531)scale(0.13 -0.13)">
      <defs>
       <path d="M 40.578125 39.3125 
Q 47.65625 37.796875 51.625 33 
Q 55.609375 28.21875 55.609375 21.1875 
Q 55.609375 10.40625 48.1875 4.484375 
Q 40.765625 -1.421875 27.09375 -1.421875 
Q 22.515625 -1.421875 17.65625 -0.515625 
Q 12.796875 0.390625 7.625 2.203125 
L 7.625 11.71875 
Q 11.71875 9.328125 16.59375 8.109375 
Q 21.484375 6.890625 26.8125 6.890625 
Q 36.078125 6.890625 40.9375 10.546875 
Q 45.796875 14.203125 45.796875 21.1875 
Q 45.796875 27.640625 41.28125 31.265625 
Q 36.765625 34.90625 28.71875 34.90625 
L 20.21875 34.90625 
L 20.21875 43.015625 
L 29.109375 43.015625 
Q 36.375 43.015625 40.234375 45.921875 
Q 44.09375 48.828125 44.09375 54.296875 
Q 44.09375 59.90625 40.109375 62.90625 
Q 36.140625 65.921875 28.71875 65.921875 
Q 24.65625 65.921875 20.015625 65.03125 
Q 15.375 64.15625 9.8125 62.3125 
L 9.8125 71.09375 
Q 15.4375 72.65625 20.34375 73.4375 
Q 25.25 74.21875 29.59375 74.21875 
Q 40.828125 74.21875 47.359375 69.109375 
Q 53.90625 64.015625 53.90625 55.328125 
Q 53.90625 49.265625 50.4375 45.09375 
Q 46.96875 40.921875 40.578125 39.3125 
z
" id="DejaVuSans-51"/>
       <path d="M 10.984375 1.515625 
L 10.984375 10.5 
Q 14.703125 8.734375 18.5 7.8125 
Q 22.3125 6.890625 25.984375 6.890625 
Q 35.75 6.890625 40.890625 13.453125 
Q 46.046875 20.015625 46.78125 33.40625 
Q 43.953125 29.203125 39.59375 26.953125 
Q 35.25 24.703125 29.984375 24.703125 
Q 19.046875 24.703125 12.671875 31.3125 
Q 6.296875 37.9375 6.296875 49.421875 
Q 6.296875 60.640625 12.9375 67.421875 
Q 19.578125 74.21875 30.609375 74.21875 
Q 43.265625 74.21875 49.921875 64.515625 
Q 56.59375 54.828125 56.59375 36.375 
Q 56.59375 19.140625 48.40625 8.859375 
Q 40.234375 -1.421875 26.421875 -1.421875 
Q 22.703125 -1.421875 18.890625 -0.6875 
Q 15.09375 0.046875 10.984375 1.515625 
z
M 30.609375 32.421875 
Q 37.25 32.421875 41.125 36.953125 
Q 45.015625 41.5 45.015625 49.421875 
Q 45.015625 57.28125 41.125 61.84375 
Q 37.25 66.40625 30.609375 66.40625 
Q 23.96875 66.40625 20.09375 61.84375 
Q 16.21875 57.28125 16.21875 49.421875 
Q 16.21875 41.5 20.09375 36.953125 
Q 23.96875 32.421875 30.609375 32.421875 
z
" id="DejaVuSans-57"/>
      </defs>
      <use xlink:href="#DejaVuSans-48"/>
      <use x="63.623047" xlink:href="#DejaVuSans-46"/>
      <use x="95.410156" xlink:href="#DejaVuSans-53"/>
      <use x="159.033203" xlink:href="#DejaVuSans-56"/>
      <use x="222.65625" xlink:href="#DejaVuSans-51"/>
      <use x="286.279297" xlink:href="#DejaVuSans-57"/>
     </g>
    </g>
    <g id="line2d_57"/>
    <g id="line2d_58"/>
    <g id="text_27">
     <!-- 0.5290 -->
     <g transform="translate(158.239805 60.441094)scale(0.13 -0.13)">
      <use xlink:href="#DejaVuSans-48"/>
      <use x="63.623047" xlink:href="#DejaVuSans-46"/>
      <use x="95.410156" xlink:href="#DejaVuSans-53"/>
      <use x="159.033203" xlink:href="#DejaVuSans-50"/>
      <use x="222.65625" xlink:href="#DejaVuSans-57"/>
      <use x="286.279297" xlink:href="#DejaVuSans-48"/>
     </g>
    </g>
    <g id="line2d_59"/>
    <g id="line2d_60"/>
    <g id="text_28">
     <!-- 0.5330 -->
     <g transform="translate(158.239805 79.522656)scale(0.13 -0.13)">
      <use xlink:href="#DejaVuSans-48"/>
      <use x="63.623047" xlink:href="#DejaVuSans-46"/>
      <use x="95.410156" xlink:href="#DejaVuSans-53"/>
      <use x="159.033203" xlink:href="#DejaVuSans-51"/>
      <use x="222.65625" xlink:href="#DejaVuSans-51"/>
      <use x="286.279297" xlink:href="#DejaVuSans-48"/>
     </g>
    </g>
    <g id="line2d_61"/>
    <g id="line2d_62"/>
    <g id="text_29">
     <!-- 0.5281 -->
     <g transform="translate(158.239805 98.604219)scale(0.13 -0.13)">
      <use xlink:href="#DejaVuSans-48"/>
      <use x="63.623047" xlink:href="#DejaVuSans-46"/>
      <use x="95.410156" xlink:href="#DejaVuSans-53"/>
      <use x="159.033203" xlink:href="#DejaVuSans-50"/>
      <use x="222.65625" xlink:href="#DejaVuSans-56"/>
      <use x="286.279297" xlink:href="#DejaVuSans-49"/>
     </g>
    </g>
    <g id="line2d_63">
     <path d="M 217.347266 17.727969 
L 243.347266 17.727969 
" style="fill:none;stroke:#009988;stroke-dasharray:1.85,0.8;stroke-dashoffset:0;stroke-width:0.5;"/>
    </g>
    <g id="line2d_64">
     <g>
      <use style="fill:#009988;stroke:#009988;stroke-linejoin:miter;" x="230.347266" xlink:href="#mcac4f0fc8b" y="17.727969"/>
     </g>
    </g>
    <g id="text_30">
     <!-- UOB -->
     <g transform="translate(253.747266 22.277969)scale(0.13 -0.13)">
      <defs>
       <path d="M 8.6875 72.90625 
L 18.609375 72.90625 
L 18.609375 28.609375 
Q 18.609375 16.890625 22.84375 11.734375 
Q 27.09375 6.59375 36.625 6.59375 
Q 46.09375 6.59375 50.34375 11.734375 
Q 54.59375 16.890625 54.59375 28.609375 
L 54.59375 72.90625 
L 64.5 72.90625 
L 64.5 27.390625 
Q 64.5 13.140625 57.4375 5.859375 
Q 50.390625 -1.421875 36.625 -1.421875 
Q 22.796875 -1.421875 15.734375 5.859375 
Q 8.6875 13.140625 8.6875 27.390625 
z
" id="DejaVuSans-85"/>
      </defs>
      <use xlink:href="#DejaVuSans-85"/>
      <use x="73.193359" xlink:href="#DejaVuSans-79"/>
      <use x="151.904297" xlink:href="#DejaVuSans-66"/>
     </g>
    </g>
    <g id="line2d_65"/>
    <g id="line2d_66"/>
    <g id="text_31">
     <!-- 0.5817 -->
     <g transform="translate(253.747266 41.359531)scale(0.13 -0.13)">
      <use xlink:href="#DejaVuSans-48"/>
      <use x="63.623047" xlink:href="#DejaVuSans-46"/>
      <use x="95.410156" xlink:href="#DejaVuSans-53"/>
      <use x="159.033203" xlink:href="#DejaVuSans-56"/>
      <use x="222.65625" xlink:href="#DejaVuSans-49"/>
      <use x="286.279297" xlink:href="#DejaVuSans-55"/>
     </g>
    </g>
    <g id="line2d_67"/>
    <g id="line2d_68"/>
    <g id="text_32">
     <!-- 0.5050 -->
     <g transform="translate(253.747266 60.441094)scale(0.13 -0.13)">
      <use xlink:href="#DejaVuSans-48"/>
      <use x="63.623047" xlink:href="#DejaVuSans-46"/>
      <use x="95.410156" xlink:href="#DejaVuSans-53"/>
      <use x="159.033203" xlink:href="#DejaVuSans-48"/>
      <use x="222.65625" xlink:href="#DejaVuSans-53"/>
      <use x="286.279297" xlink:href="#DejaVuSans-48"/>
     </g>
    </g>
    <g id="line2d_69"/>
    <g id="line2d_70"/>
    <g id="text_33">
     <!-- 0.5078 -->
     <g transform="translate(253.747266 79.522656)scale(0.13 -0.13)">
      <use xlink:href="#DejaVuSans-48"/>
      <use x="63.623047" xlink:href="#DejaVuSans-46"/>
      <use x="95.410156" xlink:href="#DejaVuSans-53"/>
      <use x="159.033203" xlink:href="#DejaVuSans-48"/>
      <use x="222.65625" xlink:href="#DejaVuSans-55"/>
      <use x="286.279297" xlink:href="#DejaVuSans-56"/>
     </g>
    </g>
    <g id="line2d_71"/>
    <g id="line2d_72"/>
    <g id="text_34">
     <!-- 0.5160 -->
     <g transform="translate(253.747266 98.604219)scale(0.13 -0.13)">
      <use xlink:href="#DejaVuSans-48"/>
      <use x="63.623047" xlink:href="#DejaVuSans-46"/>
      <use x="95.410156" xlink:href="#DejaVuSans-53"/>
      <use x="159.033203" xlink:href="#DejaVuSans-49"/>
      <use x="222.65625" xlink:href="#DejaVuSans-54"/>
      <use x="286.279297" xlink:href="#DejaVuSans-48"/>
     </g>
    </g>
    <g id="line2d_73">
     <path d="M 312.854727 17.727969 
L 338.854727 17.727969 
" style="fill:none;stroke:#0077bb;stroke-dasharray:3.2,0.8,0.5,0.8;stroke-dashoffset:0;stroke-width:0.5;"/>
    </g>
    <g id="line2d_74">
     <g>
      <use style="fill:#0077bb;stroke:#0077bb;stroke-linejoin:miter;" x="325.854727" xlink:href="#m47ef84e72b" y="17.727969"/>
     </g>
    </g>
    <g id="text_35">
     <!-- NOOB -->
     <g transform="translate(349.254727 22.277969)scale(0.13 -0.13)">
      <use xlink:href="#DejaVuSans-78"/>
      <use x="74.804688" xlink:href="#DejaVuSans-79"/>
      <use x="153.515625" xlink:href="#DejaVuSans-79"/>
      <use x="232.226562" xlink:href="#DejaVuSans-66"/>
     </g>
    </g>
    <g id="line2d_75"/>
    <g id="line2d_76"/>
    <g id="text_36">
     <!-- 0.5898 -->
     <g transform="translate(349.254727 41.359531)scale(0.13 -0.13)">
      <use xlink:href="#DejaVuSans-48"/>
      <use x="63.623047" xlink:href="#DejaVuSans-46"/>
      <use x="95.410156" xlink:href="#DejaVuSans-53"/>
      <use x="159.033203" xlink:href="#DejaVuSans-56"/>
      <use x="222.65625" xlink:href="#DejaVuSans-57"/>
      <use x="286.279297" xlink:href="#DejaVuSans-56"/>
     </g>
    </g>
    <g id="line2d_77"/>
    <g id="line2d_78"/>
    <g id="text_37">
     <!-- 0.5896 -->
     <g transform="translate(349.254727 60.441094)scale(0.13 -0.13)">
      <use xlink:href="#DejaVuSans-48"/>
      <use x="63.623047" xlink:href="#DejaVuSans-46"/>
      <use x="95.410156" xlink:href="#DejaVuSans-53"/>
      <use x="159.033203" xlink:href="#DejaVuSans-56"/>
      <use x="222.65625" xlink:href="#DejaVuSans-57"/>
      <use x="286.279297" xlink:href="#DejaVuSans-54"/>
     </g>
    </g>
    <g id="line2d_79"/>
    <g id="line2d_80"/>
    <g id="text_38">
     <!-- 0.5956 -->
     <g transform="translate(349.254727 79.522656)scale(0.13 -0.13)">
      <use xlink:href="#DejaVuSans-48"/>
      <use x="63.623047" xlink:href="#DejaVuSans-46"/>
      <use x="95.410156" xlink:href="#DejaVuSans-53"/>
      <use x="159.033203" xlink:href="#DejaVuSans-57"/>
      <use x="222.65625" xlink:href="#DejaVuSans-53"/>
      <use x="286.279297" xlink:href="#DejaVuSans-54"/>
     </g>
    </g>
    <g id="line2d_81"/>
    <g id="line2d_82"/>
    <g id="text_39">
     <!-- 0.5881 -->
     <g transform="translate(349.254727 98.604219)scale(0.13 -0.13)">
      <use xlink:href="#DejaVuSans-48"/>
      <use x="63.623047" xlink:href="#DejaVuSans-46"/>
      <use x="95.410156" xlink:href="#DejaVuSans-53"/>
      <use x="159.033203" xlink:href="#DejaVuSans-56"/>
      <use x="222.65625" xlink:href="#DejaVuSans-56"/>
      <use x="286.279297" xlink:href="#DejaVuSans-49"/>
     </g>
    </g>
    <g id="line2d_83">
     <path d="M 408.362188 17.727969 
L 434.362188 17.727969 
" style="fill:none;stroke:#ee7733;stroke-dasharray:0.5,0.825;stroke-dashoffset:0;stroke-width:0.5;"/>
    </g>
    <g id="line2d_84">
     <g>
      <use style="fill:#ee7733;stroke:#ee7733;stroke-linejoin:bevel;" x="421.362188" xlink:href="#m8bf0823a19" y="17.727969"/>
     </g>
    </g>
    <g id="text_40">
     <!-- NUOB -->
     <g transform="translate(444.762188 22.277969)scale(0.13 -0.13)">
      <use xlink:href="#DejaVuSans-78"/>
      <use x="74.804688" xlink:href="#DejaVuSans-85"/>
      <use x="147.998047" xlink:href="#DejaVuSans-79"/>
      <use x="226.708984" xlink:href="#DejaVuSans-66"/>
     </g>
    </g>
    <g id="line2d_85"/>
    <g id="line2d_86"/>
    <g id="text_41">
     <!-- 0.5762 -->
     <g transform="translate(444.762188 41.359531)scale(0.13 -0.13)">
      <use xlink:href="#DejaVuSans-48"/>
      <use x="63.623047" xlink:href="#DejaVuSans-46"/>
      <use x="95.410156" xlink:href="#DejaVuSans-53"/>
      <use x="159.033203" xlink:href="#DejaVuSans-55"/>
      <use x="222.65625" xlink:href="#DejaVuSans-54"/>
      <use x="286.279297" xlink:href="#DejaVuSans-50"/>
     </g>
    </g>
    <g id="line2d_87"/>
    <g id="line2d_88"/>
    <g id="text_42">
     <!-- 0.4975 -->
     <g transform="translate(444.762188 60.441094)scale(0.13 -0.13)">
      <use xlink:href="#DejaVuSans-48"/>
      <use x="63.623047" xlink:href="#DejaVuSans-46"/>
      <use x="95.410156" xlink:href="#DejaVuSans-52"/>
      <use x="159.033203" xlink:href="#DejaVuSans-57"/>
      <use x="222.65625" xlink:href="#DejaVuSans-55"/>
      <use x="286.279297" xlink:href="#DejaVuSans-53"/>
     </g>
    </g>
    <g id="line2d_89"/>
    <g id="line2d_90"/>
    <g id="text_43">
     <!-- 0.4890 -->
     <g transform="translate(444.762188 79.522656)scale(0.13 -0.13)">
      <use xlink:href="#DejaVuSans-48"/>
      <use x="63.623047" xlink:href="#DejaVuSans-46"/>
      <use x="95.410156" xlink:href="#DejaVuSans-52"/>
      <use x="159.033203" xlink:href="#DejaVuSans-56"/>
      <use x="222.65625" xlink:href="#DejaVuSans-57"/>
      <use x="286.279297" xlink:href="#DejaVuSans-48"/>
     </g>
    </g>
    <g id="line2d_91"/>
    <g id="line2d_92"/>
    <g id="text_44">
     <!-- 0.4707 -->
     <g transform="translate(444.762188 98.604219)scale(0.13 -0.13)">
      <use xlink:href="#DejaVuSans-48"/>
      <use x="63.623047" xlink:href="#DejaVuSans-46"/>
      <use x="95.410156" xlink:href="#DejaVuSans-52"/>
      <use x="159.033203" xlink:href="#DejaVuSans-55"/>
      <use x="222.65625" xlink:href="#DejaVuSans-48"/>
      <use x="286.279297" xlink:href="#DejaVuSans-55"/>
     </g>
    </g>
   </g>
  </g>
 </g>
 <defs>
  <clipPath id="pd4d806f5c6">
   <rect height="277.2" width="390.6" x="104.85" y="112.051812"/>
  </clipPath>
 </defs>
</svg>
