<?xml version="1.0" encoding="utf-8" standalone="no"?>
<!DOCTYPE svg PUBLIC "-//W3C//DTD SVG 1.1//EN"
  "http://www.w3.org/Graphics/SVG/1.1/DTD/svg11.dtd">
<!-- Created with matplotlib (https://matplotlib.org/) -->
<svg height="432.614937pt" version="1.1" viewBox="0 0 502.65 432.614937" width="502.65pt" xmlns="http://www.w3.org/2000/svg" xmlns:xlink="http://www.w3.org/1999/xlink">
 <metadata>
  <rdf:RDF xmlns:cc="http://creativecommons.org/ns#" xmlns:dc="http://purl.org/dc/elements/1.1/" xmlns:rdf="http://www.w3.org/1999/02/22-rdf-syntax-ns#">
   <cc:Work>
    <dc:type rdf:resource="http://purl.org/dc/dcmitype/StillImage"/>
    <dc:date>2022-06-04T22:53:28.316010</dc:date>
    <dc:format>image/svg+xml</dc:format>
    <dc:creator>
     <cc:Agent>
      <dc:title>Matplotlib v3.3.3, https://matplotlib.org/</dc:title>
     </cc:Agent>
    </dc:creator>
   </cc:Work>
  </rdf:RDF>
 </metadata>
 <defs>
  <style type="text/css">*{stroke-linecap:butt;stroke-linejoin:round;}</style>
 </defs>
 <g id="figure_1">
  <g id="patch_1">
   <path d="M 0 432.614937 
L 502.65 432.614937 
L 502.65 0 
L 0 0 
z
" style="fill:#ffffff;"/>
  </g>
  <g id="axes_1">
   <g id="patch_2">
    <path d="M 104.85 389.251812 
L 495.45 389.251812 
L 495.45 112.051812 
L 104.85 112.051812 
z
" style="fill:#ffffff;"/>
   </g>
   <g id="patch_3">
    <path clip-path="url(#p214774c0c1)" d="M 297.446262 389.251812 
L 297.446262 112.051812 
L 243.371504 112.051812 
L 243.371504 389.251812 
z
" style="fill:#d3d3d3;opacity:0.5;"/>
   </g>
   <g id="matplotlib.axis_1">
    <g id="xtick_1">
     <g id="line2d_1">
      <defs>
       <path d="M 0 0 
L 0 3.5 
" id="m0eaa825083" style="stroke:#000000;stroke-width:0.8;"/>
      </defs>
      <g>
       <use style="stroke:#000000;stroke-width:0.8;" x="117.19707" xlink:href="#m0eaa825083" y="389.251812"/>
      </g>
     </g>
     <g id="text_1">
      <!-- 0 -->
      <g transform="translate(113.061445 406.129781)scale(0.13 -0.13)">
       <defs>
        <path d="M 31.78125 66.40625 
Q 24.171875 66.40625 20.328125 58.90625 
Q 16.5 51.421875 16.5 36.375 
Q 16.5 21.390625 20.328125 13.890625 
Q 24.171875 6.390625 31.78125 6.390625 
Q 39.453125 6.390625 43.28125 13.890625 
Q 47.125 21.390625 47.125 36.375 
Q 47.125 51.421875 43.28125 58.90625 
Q 39.453125 66.40625 31.78125 66.40625 
z
M 31.78125 74.21875 
Q 44.046875 74.21875 50.515625 64.515625 
Q 56.984375 54.828125 56.984375 36.375 
Q 56.984375 17.96875 50.515625 8.265625 
Q 44.046875 -1.421875 31.78125 -1.421875 
Q 19.53125 -1.421875 13.0625 8.265625 
Q 6.59375 17.96875 6.59375 36.375 
Q 6.59375 54.828125 13.0625 64.515625 
Q 19.53125 74.21875 31.78125 74.21875 
z
" id="DejaVuSans-48"/>
       </defs>
       <use xlink:href="#DejaVuSans-48"/>
      </g>
     </g>
    </g>
    <g id="xtick_2">
     <g id="line2d_2">
      <g>
       <use style="stroke:#000000;stroke-width:0.8;" x="162.259368" xlink:href="#m0eaa825083" y="389.251812"/>
      </g>
     </g>
     <g id="text_2">
      <!-- 25 -->
      <g transform="translate(153.988118 406.129781)scale(0.13 -0.13)">
       <defs>
        <path d="M 19.1875 8.296875 
L 53.609375 8.296875 
L 53.609375 0 
L 7.328125 0 
L 7.328125 8.296875 
Q 12.9375 14.109375 22.625 23.890625 
Q 32.328125 33.6875 34.8125 36.53125 
Q 39.546875 41.84375 41.421875 45.53125 
Q 43.3125 49.21875 43.3125 52.78125 
Q 43.3125 58.59375 39.234375 62.25 
Q 35.15625 65.921875 28.609375 65.921875 
Q 23.96875 65.921875 18.8125 64.3125 
Q 13.671875 62.703125 7.8125 59.421875 
L 7.8125 69.390625 
Q 13.765625 71.78125 18.9375 73 
Q 24.125 74.21875 28.421875 74.21875 
Q 39.75 74.21875 46.484375 68.546875 
Q 53.21875 62.890625 53.21875 53.421875 
Q 53.21875 48.921875 51.53125 44.890625 
Q 49.859375 40.875 45.40625 35.40625 
Q 44.1875 33.984375 37.640625 27.21875 
Q 31.109375 20.453125 19.1875 8.296875 
z
" id="DejaVuSans-50"/>
        <path d="M 10.796875 72.90625 
L 49.515625 72.90625 
L 49.515625 64.59375 
L 19.828125 64.59375 
L 19.828125 46.734375 
Q 21.96875 47.46875 24.109375 47.828125 
Q 26.265625 48.1875 28.421875 48.1875 
Q 40.625 48.1875 47.75 41.5 
Q 54.890625 34.8125 54.890625 23.390625 
Q 54.890625 11.625 47.5625 5.09375 
Q 40.234375 -1.421875 26.90625 -1.421875 
Q 22.3125 -1.421875 17.546875 -0.640625 
Q 12.796875 0.140625 7.71875 1.703125 
L 7.71875 11.625 
Q 12.109375 9.234375 16.796875 8.0625 
Q 21.484375 6.890625 26.703125 6.890625 
Q 35.15625 6.890625 40.078125 11.328125 
Q 45.015625 15.765625 45.015625 23.390625 
Q 45.015625 31 40.078125 35.4375 
Q 35.15625 39.890625 26.703125 39.890625 
Q 22.75 39.890625 18.8125 39.015625 
Q 14.890625 38.140625 10.796875 36.28125 
z
" id="DejaVuSans-53"/>
       </defs>
       <use xlink:href="#DejaVuSans-50"/>
       <use x="63.623047" xlink:href="#DejaVuSans-53"/>
      </g>
     </g>
    </g>
    <g id="xtick_3">
     <g id="line2d_3">
      <g>
       <use style="stroke:#000000;stroke-width:0.8;" x="207.321666" xlink:href="#m0eaa825083" y="389.251812"/>
      </g>
     </g>
     <g id="text_3">
      <!-- 50 -->
      <g transform="translate(199.050416 406.129781)scale(0.13 -0.13)">
       <use xlink:href="#DejaVuSans-53"/>
       <use x="63.623047" xlink:href="#DejaVuSans-48"/>
      </g>
     </g>
    </g>
    <g id="xtick_4">
     <g id="line2d_4">
      <g>
       <use style="stroke:#000000;stroke-width:0.8;" x="252.383964" xlink:href="#m0eaa825083" y="389.251812"/>
      </g>
     </g>
     <g id="text_4">
      <!-- 75 -->
      <g transform="translate(244.112714 406.129781)scale(0.13 -0.13)">
       <defs>
        <path d="M 8.203125 72.90625 
L 55.078125 72.90625 
L 55.078125 68.703125 
L 28.609375 0 
L 18.3125 0 
L 43.21875 64.59375 
L 8.203125 64.59375 
z
" id="DejaVuSans-55"/>
       </defs>
       <use xlink:href="#DejaVuSans-55"/>
       <use x="63.623047" xlink:href="#DejaVuSans-53"/>
      </g>
     </g>
    </g>
    <g id="xtick_5">
     <g id="line2d_5">
      <g>
       <use style="stroke:#000000;stroke-width:0.8;" x="297.446262" xlink:href="#m0eaa825083" y="389.251812"/>
      </g>
     </g>
     <g id="text_5">
      <!-- 100 -->
      <g transform="translate(285.039387 406.129781)scale(0.13 -0.13)">
       <defs>
        <path d="M 12.40625 8.296875 
L 28.515625 8.296875 
L 28.515625 63.921875 
L 10.984375 60.40625 
L 10.984375 69.390625 
L 28.421875 72.90625 
L 38.28125 72.90625 
L 38.28125 8.296875 
L 54.390625 8.296875 
L 54.390625 0 
L 12.40625 0 
z
" id="DejaVuSans-49"/>
       </defs>
       <use xlink:href="#DejaVuSans-49"/>
       <use x="63.623047" xlink:href="#DejaVuSans-48"/>
       <use x="127.246094" xlink:href="#DejaVuSans-48"/>
      </g>
     </g>
    </g>
    <g id="xtick_6">
     <g id="line2d_6">
      <g>
       <use style="stroke:#000000;stroke-width:0.8;" x="342.50856" xlink:href="#m0eaa825083" y="389.251812"/>
      </g>
     </g>
     <g id="text_6">
      <!-- 125 -->
      <g transform="translate(330.101685 406.129781)scale(0.13 -0.13)">
       <use xlink:href="#DejaVuSans-49"/>
       <use x="63.623047" xlink:href="#DejaVuSans-50"/>
       <use x="127.246094" xlink:href="#DejaVuSans-53"/>
      </g>
     </g>
    </g>
    <g id="xtick_7">
     <g id="line2d_7">
      <g>
       <use style="stroke:#000000;stroke-width:0.8;" x="387.570858" xlink:href="#m0eaa825083" y="389.251812"/>
      </g>
     </g>
     <g id="text_7">
      <!-- 150 -->
      <g transform="translate(375.163983 406.129781)scale(0.13 -0.13)">
       <use xlink:href="#DejaVuSans-49"/>
       <use x="63.623047" xlink:href="#DejaVuSans-53"/>
       <use x="127.246094" xlink:href="#DejaVuSans-48"/>
      </g>
     </g>
    </g>
    <g id="xtick_8">
     <g id="line2d_8">
      <g>
       <use style="stroke:#000000;stroke-width:0.8;" x="432.633156" xlink:href="#m0eaa825083" y="389.251812"/>
      </g>
     </g>
     <g id="text_8">
      <!-- 175 -->
      <g transform="translate(420.226281 406.129781)scale(0.13 -0.13)">
       <use xlink:href="#DejaVuSans-49"/>
       <use x="63.623047" xlink:href="#DejaVuSans-55"/>
       <use x="127.246094" xlink:href="#DejaVuSans-53"/>
      </g>
     </g>
    </g>
    <g id="xtick_9">
     <g id="line2d_9">
      <g>
       <use style="stroke:#000000;stroke-width:0.8;" x="477.695455" xlink:href="#m0eaa825083" y="389.251812"/>
      </g>
     </g>
     <g id="text_9">
      <!-- 200 -->
      <g transform="translate(465.28858 406.129781)scale(0.13 -0.13)">
       <use xlink:href="#DejaVuSans-50"/>
       <use x="63.623047" xlink:href="#DejaVuSans-48"/>
       <use x="127.246094" xlink:href="#DejaVuSans-48"/>
      </g>
     </g>
    </g>
    <g id="text_10">
     <!-- Number of processed instances [x1000] -->
     <g transform="translate(170.025078 422.711344)scale(0.13 -0.13)">
      <defs>
       <path d="M 9.8125 72.90625 
L 23.09375 72.90625 
L 55.421875 11.921875 
L 55.421875 72.90625 
L 64.984375 72.90625 
L 64.984375 0 
L 51.703125 0 
L 19.390625 60.984375 
L 19.390625 0 
L 9.8125 0 
z
" id="DejaVuSans-78"/>
       <path d="M 8.5 21.578125 
L 8.5 54.6875 
L 17.484375 54.6875 
L 17.484375 21.921875 
Q 17.484375 14.15625 20.5 10.265625 
Q 23.53125 6.390625 29.59375 6.390625 
Q 36.859375 6.390625 41.078125 11.03125 
Q 45.3125 15.671875 45.3125 23.6875 
L 45.3125 54.6875 
L 54.296875 54.6875 
L 54.296875 0 
L 45.3125 0 
L 45.3125 8.40625 
Q 42.046875 3.421875 37.71875 1 
Q 33.40625 -1.421875 27.6875 -1.421875 
Q 18.265625 -1.421875 13.375 4.4375 
Q 8.5 10.296875 8.5 21.578125 
z
M 31.109375 56 
z
" id="DejaVuSans-117"/>
       <path d="M 52 44.1875 
Q 55.375 50.25 60.0625 53.125 
Q 64.75 56 71.09375 56 
Q 79.640625 56 84.28125 50.015625 
Q 88.921875 44.046875 88.921875 33.015625 
L 88.921875 0 
L 79.890625 0 
L 79.890625 32.71875 
Q 79.890625 40.578125 77.09375 44.375 
Q 74.3125 48.1875 68.609375 48.1875 
Q 61.625 48.1875 57.5625 43.546875 
Q 53.515625 38.921875 53.515625 30.90625 
L 53.515625 0 
L 44.484375 0 
L 44.484375 32.71875 
Q 44.484375 40.625 41.703125 44.40625 
Q 38.921875 48.1875 33.109375 48.1875 
Q 26.21875 48.1875 22.15625 43.53125 
Q 18.109375 38.875 18.109375 30.90625 
L 18.109375 0 
L 9.078125 0 
L 9.078125 54.6875 
L 18.109375 54.6875 
L 18.109375 46.1875 
Q 21.1875 51.21875 25.484375 53.609375 
Q 29.78125 56 35.6875 56 
Q 41.65625 56 45.828125 52.96875 
Q 50 49.953125 52 44.1875 
z
" id="DejaVuSans-109"/>
       <path d="M 48.6875 27.296875 
Q 48.6875 37.203125 44.609375 42.84375 
Q 40.53125 48.484375 33.40625 48.484375 
Q 26.265625 48.484375 22.1875 42.84375 
Q 18.109375 37.203125 18.109375 27.296875 
Q 18.109375 17.390625 22.1875 11.75 
Q 26.265625 6.109375 33.40625 6.109375 
Q 40.53125 6.109375 44.609375 11.75 
Q 48.6875 17.390625 48.6875 27.296875 
z
M 18.109375 46.390625 
Q 20.953125 51.265625 25.265625 53.625 
Q 29.59375 56 35.59375 56 
Q 45.5625 56 51.78125 48.09375 
Q 58.015625 40.1875 58.015625 27.296875 
Q 58.015625 14.40625 51.78125 6.484375 
Q 45.5625 -1.421875 35.59375 -1.421875 
Q 29.59375 -1.421875 25.265625 0.953125 
Q 20.953125 3.328125 18.109375 8.203125 
L 18.109375 0 
L 9.078125 0 
L 9.078125 75.984375 
L 18.109375 75.984375 
z
" id="DejaVuSans-98"/>
       <path d="M 56.203125 29.59375 
L 56.203125 25.203125 
L 14.890625 25.203125 
Q 15.484375 15.921875 20.484375 11.0625 
Q 25.484375 6.203125 34.421875 6.203125 
Q 39.59375 6.203125 44.453125 7.46875 
Q 49.3125 8.734375 54.109375 11.28125 
L 54.109375 2.78125 
Q 49.265625 0.734375 44.1875 -0.34375 
Q 39.109375 -1.421875 33.890625 -1.421875 
Q 20.796875 -1.421875 13.15625 6.1875 
Q 5.515625 13.8125 5.515625 26.8125 
Q 5.515625 40.234375 12.765625 48.109375 
Q 20.015625 56 32.328125 56 
Q 43.359375 56 49.78125 48.890625 
Q 56.203125 41.796875 56.203125 29.59375 
z
M 47.21875 32.234375 
Q 47.125 39.59375 43.09375 43.984375 
Q 39.0625 48.390625 32.421875 48.390625 
Q 24.90625 48.390625 20.390625 44.140625 
Q 15.875 39.890625 15.1875 32.171875 
z
" id="DejaVuSans-101"/>
       <path d="M 41.109375 46.296875 
Q 39.59375 47.171875 37.8125 47.578125 
Q 36.03125 48 33.890625 48 
Q 26.265625 48 22.1875 43.046875 
Q 18.109375 38.09375 18.109375 28.8125 
L 18.109375 0 
L 9.078125 0 
L 9.078125 54.6875 
L 18.109375 54.6875 
L 18.109375 46.1875 
Q 20.953125 51.171875 25.484375 53.578125 
Q 30.03125 56 36.53125 56 
Q 37.453125 56 38.578125 55.875 
Q 39.703125 55.765625 41.0625 55.515625 
z
" id="DejaVuSans-114"/>
       <path id="DejaVuSans-32"/>
       <path d="M 30.609375 48.390625 
Q 23.390625 48.390625 19.1875 42.75 
Q 14.984375 37.109375 14.984375 27.296875 
Q 14.984375 17.484375 19.15625 11.84375 
Q 23.34375 6.203125 30.609375 6.203125 
Q 37.796875 6.203125 41.984375 11.859375 
Q 46.1875 17.53125 46.1875 27.296875 
Q 46.1875 37.015625 41.984375 42.703125 
Q 37.796875 48.390625 30.609375 48.390625 
z
M 30.609375 56 
Q 42.328125 56 49.015625 48.375 
Q 55.71875 40.765625 55.71875 27.296875 
Q 55.71875 13.875 49.015625 6.21875 
Q 42.328125 -1.421875 30.609375 -1.421875 
Q 18.84375 -1.421875 12.171875 6.21875 
Q 5.515625 13.875 5.515625 27.296875 
Q 5.515625 40.765625 12.171875 48.375 
Q 18.84375 56 30.609375 56 
z
" id="DejaVuSans-111"/>
       <path d="M 37.109375 75.984375 
L 37.109375 68.5 
L 28.515625 68.5 
Q 23.6875 68.5 21.796875 66.546875 
Q 19.921875 64.59375 19.921875 59.515625 
L 19.921875 54.6875 
L 34.71875 54.6875 
L 34.71875 47.703125 
L 19.921875 47.703125 
L 19.921875 0 
L 10.890625 0 
L 10.890625 47.703125 
L 2.296875 47.703125 
L 2.296875 54.6875 
L 10.890625 54.6875 
L 10.890625 58.5 
Q 10.890625 67.625 15.140625 71.796875 
Q 19.390625 75.984375 28.609375 75.984375 
z
" id="DejaVuSans-102"/>
       <path d="M 18.109375 8.203125 
L 18.109375 -20.796875 
L 9.078125 -20.796875 
L 9.078125 54.6875 
L 18.109375 54.6875 
L 18.109375 46.390625 
Q 20.953125 51.265625 25.265625 53.625 
Q 29.59375 56 35.59375 56 
Q 45.5625 56 51.78125 48.09375 
Q 58.015625 40.1875 58.015625 27.296875 
Q 58.015625 14.40625 51.78125 6.484375 
Q 45.5625 -1.421875 35.59375 -1.421875 
Q 29.59375 -1.421875 25.265625 0.953125 
Q 20.953125 3.328125 18.109375 8.203125 
z
M 48.6875 27.296875 
Q 48.6875 37.203125 44.609375 42.84375 
Q 40.53125 48.484375 33.40625 48.484375 
Q 26.265625 48.484375 22.1875 42.84375 
Q 18.109375 37.203125 18.109375 27.296875 
Q 18.109375 17.390625 22.1875 11.75 
Q 26.265625 6.109375 33.40625 6.109375 
Q 40.53125 6.109375 44.609375 11.75 
Q 48.6875 17.390625 48.6875 27.296875 
z
" id="DejaVuSans-112"/>
       <path d="M 48.78125 52.59375 
L 48.78125 44.1875 
Q 44.96875 46.296875 41.140625 47.34375 
Q 37.3125 48.390625 33.40625 48.390625 
Q 24.65625 48.390625 19.8125 42.84375 
Q 14.984375 37.3125 14.984375 27.296875 
Q 14.984375 17.28125 19.8125 11.734375 
Q 24.65625 6.203125 33.40625 6.203125 
Q 37.3125 6.203125 41.140625 7.25 
Q 44.96875 8.296875 48.78125 10.40625 
L 48.78125 2.09375 
Q 45.015625 0.34375 40.984375 -0.53125 
Q 36.96875 -1.421875 32.421875 -1.421875 
Q 20.0625 -1.421875 12.78125 6.34375 
Q 5.515625 14.109375 5.515625 27.296875 
Q 5.515625 40.671875 12.859375 48.328125 
Q 20.21875 56 33.015625 56 
Q 37.15625 56 41.109375 55.140625 
Q 45.0625 54.296875 48.78125 52.59375 
z
" id="DejaVuSans-99"/>
       <path d="M 44.28125 53.078125 
L 44.28125 44.578125 
Q 40.484375 46.53125 36.375 47.5 
Q 32.28125 48.484375 27.875 48.484375 
Q 21.1875 48.484375 17.84375 46.4375 
Q 14.5 44.390625 14.5 40.28125 
Q 14.5 37.15625 16.890625 35.375 
Q 19.28125 33.59375 26.515625 31.984375 
L 29.59375 31.296875 
Q 39.15625 29.25 43.1875 25.515625 
Q 47.21875 21.78125 47.21875 15.09375 
Q 47.21875 7.46875 41.1875 3.015625 
Q 35.15625 -1.421875 24.609375 -1.421875 
Q 20.21875 -1.421875 15.453125 -0.5625 
Q 10.6875 0.296875 5.421875 2 
L 5.421875 11.28125 
Q 10.40625 8.6875 15.234375 7.390625 
Q 20.0625 6.109375 24.8125 6.109375 
Q 31.15625 6.109375 34.5625 8.28125 
Q 37.984375 10.453125 37.984375 14.40625 
Q 37.984375 18.0625 35.515625 20.015625 
Q 33.0625 21.96875 24.703125 23.78125 
L 21.578125 24.515625 
Q 13.234375 26.265625 9.515625 29.90625 
Q 5.8125 33.546875 5.8125 39.890625 
Q 5.8125 47.609375 11.28125 51.796875 
Q 16.75 56 26.8125 56 
Q 31.78125 56 36.171875 55.265625 
Q 40.578125 54.546875 44.28125 53.078125 
z
" id="DejaVuSans-115"/>
       <path d="M 45.40625 46.390625 
L 45.40625 75.984375 
L 54.390625 75.984375 
L 54.390625 0 
L 45.40625 0 
L 45.40625 8.203125 
Q 42.578125 3.328125 38.25 0.953125 
Q 33.9375 -1.421875 27.875 -1.421875 
Q 17.96875 -1.421875 11.734375 6.484375 
Q 5.515625 14.40625 5.515625 27.296875 
Q 5.515625 40.1875 11.734375 48.09375 
Q 17.96875 56 27.875 56 
Q 33.9375 56 38.25 53.625 
Q 42.578125 51.265625 45.40625 46.390625 
z
M 14.796875 27.296875 
Q 14.796875 17.390625 18.875 11.75 
Q 22.953125 6.109375 30.078125 6.109375 
Q 37.203125 6.109375 41.296875 11.75 
Q 45.40625 17.390625 45.40625 27.296875 
Q 45.40625 37.203125 41.296875 42.84375 
Q 37.203125 48.484375 30.078125 48.484375 
Q 22.953125 48.484375 18.875 42.84375 
Q 14.796875 37.203125 14.796875 27.296875 
z
" id="DejaVuSans-100"/>
       <path d="M 9.421875 54.6875 
L 18.40625 54.6875 
L 18.40625 0 
L 9.421875 0 
z
M 9.421875 75.984375 
L 18.40625 75.984375 
L 18.40625 64.59375 
L 9.421875 64.59375 
z
" id="DejaVuSans-105"/>
       <path d="M 54.890625 33.015625 
L 54.890625 0 
L 45.90625 0 
L 45.90625 32.71875 
Q 45.90625 40.484375 42.875 44.328125 
Q 39.84375 48.1875 33.796875 48.1875 
Q 26.515625 48.1875 22.3125 43.546875 
Q 18.109375 38.921875 18.109375 30.90625 
L 18.109375 0 
L 9.078125 0 
L 9.078125 54.6875 
L 18.109375 54.6875 
L 18.109375 46.1875 
Q 21.34375 51.125 25.703125 53.5625 
Q 30.078125 56 35.796875 56 
Q 45.21875 56 50.046875 50.171875 
Q 54.890625 44.34375 54.890625 33.015625 
z
" id="DejaVuSans-110"/>
       <path d="M 18.3125 70.21875 
L 18.3125 54.6875 
L 36.8125 54.6875 
L 36.8125 47.703125 
L 18.3125 47.703125 
L 18.3125 18.015625 
Q 18.3125 11.328125 20.140625 9.421875 
Q 21.96875 7.515625 27.59375 7.515625 
L 36.8125 7.515625 
L 36.8125 0 
L 27.59375 0 
Q 17.1875 0 13.234375 3.875 
Q 9.28125 7.765625 9.28125 18.015625 
L 9.28125 47.703125 
L 2.6875 47.703125 
L 2.6875 54.6875 
L 9.28125 54.6875 
L 9.28125 70.21875 
z
" id="DejaVuSans-116"/>
       <path d="M 34.28125 27.484375 
Q 23.390625 27.484375 19.1875 25 
Q 14.984375 22.515625 14.984375 16.5 
Q 14.984375 11.71875 18.140625 8.90625 
Q 21.296875 6.109375 26.703125 6.109375 
Q 34.1875 6.109375 38.703125 11.40625 
Q 43.21875 16.703125 43.21875 25.484375 
L 43.21875 27.484375 
z
M 52.203125 31.203125 
L 52.203125 0 
L 43.21875 0 
L 43.21875 8.296875 
Q 40.140625 3.328125 35.546875 0.953125 
Q 30.953125 -1.421875 24.3125 -1.421875 
Q 15.921875 -1.421875 10.953125 3.296875 
Q 6 8.015625 6 15.921875 
Q 6 25.140625 12.171875 29.828125 
Q 18.359375 34.515625 30.609375 34.515625 
L 43.21875 34.515625 
L 43.21875 35.40625 
Q 43.21875 41.609375 39.140625 45 
Q 35.0625 48.390625 27.6875 48.390625 
Q 23 48.390625 18.546875 47.265625 
Q 14.109375 46.140625 10.015625 43.890625 
L 10.015625 52.203125 
Q 14.9375 54.109375 19.578125 55.046875 
Q 24.21875 56 28.609375 56 
Q 40.484375 56 46.34375 49.84375 
Q 52.203125 43.703125 52.203125 31.203125 
z
" id="DejaVuSans-97"/>
       <path d="M 8.59375 75.984375 
L 29.296875 75.984375 
L 29.296875 69 
L 17.578125 69 
L 17.578125 -6.203125 
L 29.296875 -6.203125 
L 29.296875 -13.1875 
L 8.59375 -13.1875 
z
" id="DejaVuSans-91"/>
       <path d="M 54.890625 54.6875 
L 35.109375 28.078125 
L 55.90625 0 
L 45.3125 0 
L 29.390625 21.484375 
L 13.484375 0 
L 2.875 0 
L 24.125 28.609375 
L 4.6875 54.6875 
L 15.28125 54.6875 
L 29.78125 35.203125 
L 44.28125 54.6875 
z
" id="DejaVuSans-120"/>
       <path d="M 30.421875 75.984375 
L 30.421875 -13.1875 
L 9.71875 -13.1875 
L 9.71875 -6.203125 
L 21.390625 -6.203125 
L 21.390625 69 
L 9.71875 69 
L 9.71875 75.984375 
z
" id="DejaVuSans-93"/>
      </defs>
      <use xlink:href="#DejaVuSans-78"/>
      <use x="74.804688" xlink:href="#DejaVuSans-117"/>
      <use x="138.183594" xlink:href="#DejaVuSans-109"/>
      <use x="235.595703" xlink:href="#DejaVuSans-98"/>
      <use x="299.072266" xlink:href="#DejaVuSans-101"/>
      <use x="360.595703" xlink:href="#DejaVuSans-114"/>
      <use x="401.708984" xlink:href="#DejaVuSans-32"/>
      <use x="433.496094" xlink:href="#DejaVuSans-111"/>
      <use x="494.677734" xlink:href="#DejaVuSans-102"/>
      <use x="529.882812" xlink:href="#DejaVuSans-32"/>
      <use x="561.669922" xlink:href="#DejaVuSans-112"/>
      <use x="625.146484" xlink:href="#DejaVuSans-114"/>
      <use x="664.009766" xlink:href="#DejaVuSans-111"/>
      <use x="725.191406" xlink:href="#DejaVuSans-99"/>
      <use x="780.171875" xlink:href="#DejaVuSans-101"/>
      <use x="841.695312" xlink:href="#DejaVuSans-115"/>
      <use x="893.794922" xlink:href="#DejaVuSans-115"/>
      <use x="945.894531" xlink:href="#DejaVuSans-101"/>
      <use x="1007.417969" xlink:href="#DejaVuSans-100"/>
      <use x="1070.894531" xlink:href="#DejaVuSans-32"/>
      <use x="1102.681641" xlink:href="#DejaVuSans-105"/>
      <use x="1130.464844" xlink:href="#DejaVuSans-110"/>
      <use x="1193.84375" xlink:href="#DejaVuSans-115"/>
      <use x="1245.943359" xlink:href="#DejaVuSans-116"/>
      <use x="1285.152344" xlink:href="#DejaVuSans-97"/>
      <use x="1346.431641" xlink:href="#DejaVuSans-110"/>
      <use x="1409.810547" xlink:href="#DejaVuSans-99"/>
      <use x="1464.791016" xlink:href="#DejaVuSans-101"/>
      <use x="1526.314453" xlink:href="#DejaVuSans-115"/>
      <use x="1578.414062" xlink:href="#DejaVuSans-32"/>
      <use x="1610.201172" xlink:href="#DejaVuSans-91"/>
      <use x="1649.214844" xlink:href="#DejaVuSans-120"/>
      <use x="1708.394531" xlink:href="#DejaVuSans-49"/>
      <use x="1772.017578" xlink:href="#DejaVuSans-48"/>
      <use x="1835.640625" xlink:href="#DejaVuSans-48"/>
      <use x="1899.263672" xlink:href="#DejaVuSans-48"/>
      <use x="1962.886719" xlink:href="#DejaVuSans-93"/>
     </g>
    </g>
   </g>
   <g id="matplotlib.axis_2">
    <g id="ytick_1">
     <g id="line2d_10">
      <defs>
       <path d="M 0 0 
L -3.5 0 
" id="ma8e7d1e1e8" style="stroke:#000000;stroke-width:0.8;"/>
      </defs>
      <g>
       <use style="stroke:#000000;stroke-width:0.8;" x="104.85" xlink:href="#ma8e7d1e1e8" y="374.049571"/>
      </g>
     </g>
     <g id="text_11">
      <!-- 0.987 -->
      <g transform="translate(60.633437 378.988555)scale(0.13 -0.13)">
       <defs>
        <path d="M 10.6875 12.40625 
L 21 12.40625 
L 21 0 
L 10.6875 0 
z
" id="DejaVuSans-46"/>
        <path d="M 10.984375 1.515625 
L 10.984375 10.5 
Q 14.703125 8.734375 18.5 7.8125 
Q 22.3125 6.890625 25.984375 6.890625 
Q 35.75 6.890625 40.890625 13.453125 
Q 46.046875 20.015625 46.78125 33.40625 
Q 43.953125 29.203125 39.59375 26.953125 
Q 35.25 24.703125 29.984375 24.703125 
Q 19.046875 24.703125 12.671875 31.3125 
Q 6.296875 37.9375 6.296875 49.421875 
Q 6.296875 60.640625 12.9375 67.421875 
Q 19.578125 74.21875 30.609375 74.21875 
Q 43.265625 74.21875 49.921875 64.515625 
Q 56.59375 54.828125 56.59375 36.375 
Q 56.59375 19.140625 48.40625 8.859375 
Q 40.234375 -1.421875 26.421875 -1.421875 
Q 22.703125 -1.421875 18.890625 -0.6875 
Q 15.09375 0.046875 10.984375 1.515625 
z
M 30.609375 32.421875 
Q 37.25 32.421875 41.125 36.953125 
Q 45.015625 41.5 45.015625 49.421875 
Q 45.015625 57.28125 41.125 61.84375 
Q 37.25 66.40625 30.609375 66.40625 
Q 23.96875 66.40625 20.09375 61.84375 
Q 16.21875 57.28125 16.21875 49.421875 
Q 16.21875 41.5 20.09375 36.953125 
Q 23.96875 32.421875 30.609375 32.421875 
z
" id="DejaVuSans-57"/>
        <path d="M 31.78125 34.625 
Q 24.75 34.625 20.71875 30.859375 
Q 16.703125 27.09375 16.703125 20.515625 
Q 16.703125 13.921875 20.71875 10.15625 
Q 24.75 6.390625 31.78125 6.390625 
Q 38.8125 6.390625 42.859375 10.171875 
Q 46.921875 13.96875 46.921875 20.515625 
Q 46.921875 27.09375 42.890625 30.859375 
Q 38.875 34.625 31.78125 34.625 
z
M 21.921875 38.8125 
Q 15.578125 40.375 12.03125 44.71875 
Q 8.5 49.078125 8.5 55.328125 
Q 8.5 64.0625 14.71875 69.140625 
Q 20.953125 74.21875 31.78125 74.21875 
Q 42.671875 74.21875 48.875 69.140625 
Q 55.078125 64.0625 55.078125 55.328125 
Q 55.078125 49.078125 51.53125 44.71875 
Q 48 40.375 41.703125 38.8125 
Q 48.828125 37.15625 52.796875 32.3125 
Q 56.78125 27.484375 56.78125 20.515625 
Q 56.78125 9.90625 50.3125 4.234375 
Q 43.84375 -1.421875 31.78125 -1.421875 
Q 19.734375 -1.421875 13.25 4.234375 
Q 6.78125 9.90625 6.78125 20.515625 
Q 6.78125 27.484375 10.78125 32.3125 
Q 14.796875 37.15625 21.921875 38.8125 
z
M 18.3125 54.390625 
Q 18.3125 48.734375 21.84375 45.5625 
Q 25.390625 42.390625 31.78125 42.390625 
Q 38.140625 42.390625 41.71875 45.5625 
Q 45.3125 48.734375 45.3125 54.390625 
Q 45.3125 60.0625 41.71875 63.234375 
Q 38.140625 66.40625 31.78125 66.40625 
Q 25.390625 66.40625 21.84375 63.234375 
Q 18.3125 60.0625 18.3125 54.390625 
z
" id="DejaVuSans-56"/>
       </defs>
       <use xlink:href="#DejaVuSans-48"/>
       <use x="63.623047" xlink:href="#DejaVuSans-46"/>
       <use x="95.410156" xlink:href="#DejaVuSans-57"/>
       <use x="159.033203" xlink:href="#DejaVuSans-56"/>
       <use x="222.65625" xlink:href="#DejaVuSans-55"/>
      </g>
     </g>
    </g>
    <g id="ytick_2">
     <g id="line2d_11">
      <g>
       <use style="stroke:#000000;stroke-width:0.8;" x="104.85" xlink:href="#ma8e7d1e1e8" y="341.591106"/>
      </g>
     </g>
     <g id="text_12">
      <!-- 0.988 -->
      <g transform="translate(60.633437 346.530091)scale(0.13 -0.13)">
       <use xlink:href="#DejaVuSans-48"/>
       <use x="63.623047" xlink:href="#DejaVuSans-46"/>
       <use x="95.410156" xlink:href="#DejaVuSans-57"/>
       <use x="159.033203" xlink:href="#DejaVuSans-56"/>
       <use x="222.65625" xlink:href="#DejaVuSans-56"/>
      </g>
     </g>
    </g>
    <g id="ytick_3">
     <g id="line2d_12">
      <g>
       <use style="stroke:#000000;stroke-width:0.8;" x="104.85" xlink:href="#ma8e7d1e1e8" y="309.132642"/>
      </g>
     </g>
     <g id="text_13">
      <!-- 0.989 -->
      <g transform="translate(60.633437 314.071626)scale(0.13 -0.13)">
       <use xlink:href="#DejaVuSans-48"/>
       <use x="63.623047" xlink:href="#DejaVuSans-46"/>
       <use x="95.410156" xlink:href="#DejaVuSans-57"/>
       <use x="159.033203" xlink:href="#DejaVuSans-56"/>
       <use x="222.65625" xlink:href="#DejaVuSans-57"/>
      </g>
     </g>
    </g>
    <g id="ytick_4">
     <g id="line2d_13">
      <g>
       <use style="stroke:#000000;stroke-width:0.8;" x="104.85" xlink:href="#ma8e7d1e1e8" y="276.674178"/>
      </g>
     </g>
     <g id="text_14">
      <!-- 0.990 -->
      <g transform="translate(60.633437 281.613162)scale(0.13 -0.13)">
       <use xlink:href="#DejaVuSans-48"/>
       <use x="63.623047" xlink:href="#DejaVuSans-46"/>
       <use x="95.410156" xlink:href="#DejaVuSans-57"/>
       <use x="159.033203" xlink:href="#DejaVuSans-57"/>
       <use x="222.65625" xlink:href="#DejaVuSans-48"/>
      </g>
     </g>
    </g>
    <g id="ytick_5">
     <g id="line2d_14">
      <g>
       <use style="stroke:#000000;stroke-width:0.8;" x="104.85" xlink:href="#ma8e7d1e1e8" y="244.215714"/>
      </g>
     </g>
     <g id="text_15">
      <!-- 0.991 -->
      <g transform="translate(60.633437 249.154698)scale(0.13 -0.13)">
       <use xlink:href="#DejaVuSans-48"/>
       <use x="63.623047" xlink:href="#DejaVuSans-46"/>
       <use x="95.410156" xlink:href="#DejaVuSans-57"/>
       <use x="159.033203" xlink:href="#DejaVuSans-57"/>
       <use x="222.65625" xlink:href="#DejaVuSans-49"/>
      </g>
     </g>
    </g>
    <g id="ytick_6">
     <g id="line2d_15">
      <g>
       <use style="stroke:#000000;stroke-width:0.8;" x="104.85" xlink:href="#ma8e7d1e1e8" y="211.757249"/>
      </g>
     </g>
     <g id="text_16">
      <!-- 0.992 -->
      <g transform="translate(60.633437 216.696234)scale(0.13 -0.13)">
       <use xlink:href="#DejaVuSans-48"/>
       <use x="63.623047" xlink:href="#DejaVuSans-46"/>
       <use x="95.410156" xlink:href="#DejaVuSans-57"/>
       <use x="159.033203" xlink:href="#DejaVuSans-57"/>
       <use x="222.65625" xlink:href="#DejaVuSans-50"/>
      </g>
     </g>
    </g>
    <g id="ytick_7">
     <g id="line2d_16">
      <g>
       <use style="stroke:#000000;stroke-width:0.8;" x="104.85" xlink:href="#ma8e7d1e1e8" y="179.298785"/>
      </g>
     </g>
     <g id="text_17">
      <!-- 0.993 -->
      <g transform="translate(60.633437 184.23777)scale(0.13 -0.13)">
       <defs>
        <path d="M 40.578125 39.3125 
Q 47.65625 37.796875 51.625 33 
Q 55.609375 28.21875 55.609375 21.1875 
Q 55.609375 10.40625 48.1875 4.484375 
Q 40.765625 -1.421875 27.09375 -1.421875 
Q 22.515625 -1.421875 17.65625 -0.515625 
Q 12.796875 0.390625 7.625 2.203125 
L 7.625 11.71875 
Q 11.71875 9.328125 16.59375 8.109375 
Q 21.484375 6.890625 26.8125 6.890625 
Q 36.078125 6.890625 40.9375 10.546875 
Q 45.796875 14.203125 45.796875 21.1875 
Q 45.796875 27.640625 41.28125 31.265625 
Q 36.765625 34.90625 28.71875 34.90625 
L 20.21875 34.90625 
L 20.21875 43.015625 
L 29.109375 43.015625 
Q 36.375 43.015625 40.234375 45.921875 
Q 44.09375 48.828125 44.09375 54.296875 
Q 44.09375 59.90625 40.109375 62.90625 
Q 36.140625 65.921875 28.71875 65.921875 
Q 24.65625 65.921875 20.015625 65.03125 
Q 15.375 64.15625 9.8125 62.3125 
L 9.8125 71.09375 
Q 15.4375 72.65625 20.34375 73.4375 
Q 25.25 74.21875 29.59375 74.21875 
Q 40.828125 74.21875 47.359375 69.109375 
Q 53.90625 64.015625 53.90625 55.328125 
Q 53.90625 49.265625 50.4375 45.09375 
Q 46.96875 40.921875 40.578125 39.3125 
z
" id="DejaVuSans-51"/>
       </defs>
       <use xlink:href="#DejaVuSans-48"/>
       <use x="63.623047" xlink:href="#DejaVuSans-46"/>
       <use x="95.410156" xlink:href="#DejaVuSans-57"/>
       <use x="159.033203" xlink:href="#DejaVuSans-57"/>
       <use x="222.65625" xlink:href="#DejaVuSans-51"/>
      </g>
     </g>
    </g>
    <g id="ytick_8">
     <g id="line2d_17">
      <g>
       <use style="stroke:#000000;stroke-width:0.8;" x="104.85" xlink:href="#ma8e7d1e1e8" y="146.840321"/>
      </g>
     </g>
     <g id="text_18">
      <!-- 0.994 -->
      <g transform="translate(60.633437 151.779305)scale(0.13 -0.13)">
       <defs>
        <path d="M 37.796875 64.3125 
L 12.890625 25.390625 
L 37.796875 25.390625 
z
M 35.203125 72.90625 
L 47.609375 72.90625 
L 47.609375 25.390625 
L 58.015625 25.390625 
L 58.015625 17.1875 
L 47.609375 17.1875 
L 47.609375 0 
L 37.796875 0 
L 37.796875 17.1875 
L 4.890625 17.1875 
L 4.890625 26.703125 
z
" id="DejaVuSans-52"/>
       </defs>
       <use xlink:href="#DejaVuSans-48"/>
       <use x="63.623047" xlink:href="#DejaVuSans-46"/>
       <use x="95.410156" xlink:href="#DejaVuSans-57"/>
       <use x="159.033203" xlink:href="#DejaVuSans-57"/>
       <use x="222.65625" xlink:href="#DejaVuSans-52"/>
      </g>
     </g>
    </g>
    <g id="ytick_9">
     <g id="line2d_18">
      <g>
       <use style="stroke:#000000;stroke-width:0.8;" x="104.85" xlink:href="#ma8e7d1e1e8" y="114.381857"/>
      </g>
     </g>
     <g id="text_19">
      <!-- 0.995 -->
      <g transform="translate(60.633437 119.320841)scale(0.13 -0.13)">
       <use xlink:href="#DejaVuSans-48"/>
       <use x="63.623047" xlink:href="#DejaVuSans-46"/>
       <use x="95.410156" xlink:href="#DejaVuSans-57"/>
       <use x="159.033203" xlink:href="#DejaVuSans-57"/>
       <use x="222.65625" xlink:href="#DejaVuSans-53"/>
      </g>
     </g>
    </g>
    <g id="text_20">
     <!-- G-Mean -->
     <g transform="translate(53.929844 275.743844)rotate(-90)scale(0.13 -0.13)">
      <defs>
       <path d="M 59.515625 10.40625 
L 59.515625 29.984375 
L 43.40625 29.984375 
L 43.40625 38.09375 
L 69.28125 38.09375 
L 69.28125 6.78125 
Q 63.578125 2.734375 56.6875 0.65625 
Q 49.8125 -1.421875 42 -1.421875 
Q 24.90625 -1.421875 15.25 8.5625 
Q 5.609375 18.5625 5.609375 36.375 
Q 5.609375 54.25 15.25 64.234375 
Q 24.90625 74.21875 42 74.21875 
Q 49.125 74.21875 55.546875 72.453125 
Q 61.96875 70.703125 67.390625 67.28125 
L 67.390625 56.78125 
Q 61.921875 61.421875 55.765625 63.765625 
Q 49.609375 66.109375 42.828125 66.109375 
Q 29.4375 66.109375 22.71875 58.640625 
Q 16.015625 51.171875 16.015625 36.375 
Q 16.015625 21.625 22.71875 14.15625 
Q 29.4375 6.6875 42.828125 6.6875 
Q 48.046875 6.6875 52.140625 7.59375 
Q 56.25 8.5 59.515625 10.40625 
z
" id="DejaVuSans-71"/>
       <path d="M 4.890625 31.390625 
L 31.203125 31.390625 
L 31.203125 23.390625 
L 4.890625 23.390625 
z
" id="DejaVuSans-45"/>
       <path d="M 9.8125 72.90625 
L 24.515625 72.90625 
L 43.109375 23.296875 
L 61.8125 72.90625 
L 76.515625 72.90625 
L 76.515625 0 
L 66.890625 0 
L 66.890625 64.015625 
L 48.09375 14.015625 
L 38.1875 14.015625 
L 19.390625 64.015625 
L 19.390625 0 
L 9.8125 0 
z
" id="DejaVuSans-77"/>
      </defs>
      <use xlink:href="#DejaVuSans-71"/>
      <use x="77.490234" xlink:href="#DejaVuSans-45"/>
      <use x="113.574219" xlink:href="#DejaVuSans-77"/>
      <use x="199.853516" xlink:href="#DejaVuSans-101"/>
      <use x="261.376953" xlink:href="#DejaVuSans-97"/>
      <use x="322.65625" xlink:href="#DejaVuSans-110"/>
     </g>
    </g>
   </g>
   <g id="line2d_19"/>
   <g id="line2d_20"/>
   <g id="line2d_21"/>
   <g id="line2d_22"/>
   <g id="line2d_23"/>
   <g id="line2d_24">
    <path clip-path="url(#p214774c0c1)" d="M 122.604545 228.152606 
L 124.407037 260.290759 
L 126.209529 323.245596 
L 128.012021 284.097671 
L 129.814513 283.34648 
L 131.617005 274.834112 
L 133.419497 294.88689 
L 135.221989 304.451854 
L 137.024481 305.698534 
L 138.826973 292.981904 
L 140.629465 308.299301 
L 142.431957 320.301058 
L 146.03694 289.173196 
L 147.839432 286.246412 
L 149.641924 284.314594 
L 151.444416 276.146029 
L 153.246908 279.033519 
L 155.0494 276.926227 
L 156.851892 287.772635 
L 158.654384 289.314594 
L 160.456876 289.976054 
L 162.259368 280.678907 
L 164.06186 289.31232 
L 165.864352 306.564202 
L 167.666844 309.29901 
L 169.469335 306.062848 
L 171.271827 296.714347 
L 173.074319 291.374085 
L 174.876811 294.315681 
L 176.679303 283.662112 
L 178.481795 280.274495 
L 180.284287 285.225822 
L 182.086779 303.571531 
L 183.889271 311.67492 
L 185.691763 315.577437 
L 187.494255 325.26792 
L 189.296747 324.663242 
L 191.099239 329.865049 
L 192.901731 323.250729 
L 194.704222 328.772736 
L 196.506714 327.705749 
L 198.309206 331.097983 
L 200.111698 331.64377 
L 201.91419 320.795352 
L 203.716682 330.184467 
L 205.519174 330.593427 
L 207.321666 342.869861 
L 209.124158 343.466549 
L 210.92665 338.932368 
L 212.729142 344.661249 
L 214.531634 343.792654 
L 216.334126 355.402851 
L 218.136617 354.868136 
L 219.939109 350.292268 
L 221.741601 337.152622 
L 223.544093 328.055111 
L 225.346585 322.986005 
L 227.149077 319.015586 
L 228.951569 321.752506 
L 232.556553 337.151988 
L 234.359045 332.661864 
L 236.161537 331.804342 
L 237.964029 323.325587 
L 239.766521 313.880959 
L 243.371504 302.064427 
L 246.976488 321.374119 
L 248.77898 318.936432 
L 250.581472 321.323405 
L 254.186456 308.6907 
L 255.988948 300.84128 
L 257.79144 305.770109 
L 259.593932 312.035293 
L 261.396424 308.125 
L 263.198916 305.640972 
L 265.001407 291.468562 
L 266.803899 286.094652 
L 268.606391 283.475087 
L 270.408883 281.796622 
L 274.013867 272.353775 
L 275.816359 265.415946 
L 277.618851 270.295398 
L 279.421343 268.767864 
L 281.223835 262.951118 
L 283.026327 258.360361 
L 284.828819 256.444478 
L 286.631311 243.132569 
L 288.433802 237.47136 
L 290.236294 231.065261 
L 292.038786 233.29399 
L 293.841278 231.628237 
L 295.64377 221.864854 
L 297.446262 224.595429 
L 299.248754 225.659407 
L 301.051246 231.152402 
L 302.853738 224.863147 
L 304.65623 212.167667 
L 306.458722 208.59263 
L 308.261214 199.579678 
L 310.063706 210.280765 
L 311.866198 206.59376 
L 313.668689 201.919859 
L 315.471181 201.548728 
L 317.273673 200.475491 
L 319.076165 193.964826 
L 320.878657 191.702663 
L 322.681149 195.354675 
L 324.483641 192.082447 
L 326.286133 190.771679 
L 328.088625 191.221549 
L 329.891117 193.443083 
L 331.693609 196.14341 
L 333.496101 195.78541 
L 335.298593 190.330088 
L 337.101084 183.991103 
L 338.903576 176.477633 
L 340.706068 177.159008 
L 342.50856 171.907795 
L 344.311052 184.203965 
L 346.113544 174.34062 
L 347.916036 177.599457 
L 349.718528 174.383692 
L 351.52102 161.953969 
L 353.323512 155.799675 
L 355.126004 154.8611 
L 356.928496 151.111596 
L 358.730988 154.767018 
L 360.533479 157.572404 
L 362.335971 151.535303 
L 364.138463 141.177861 
L 365.940955 141.860363 
L 367.743447 144.456962 
L 369.545939 134.266574 
L 371.348431 130.946115 
L 373.150923 139.367683 
L 374.953415 146.921957 
L 376.755907 146.912755 
L 378.558399 155.293463 
L 380.360891 151.97042 
L 382.163383 150.455053 
L 383.965874 154.494656 
L 387.570858 164.992287 
L 389.37335 165.02464 
L 391.175842 171.129698 
L 392.978334 169.692201 
L 394.780826 168.949076 
L 396.583318 166.072663 
L 398.38581 167.456375 
L 400.188302 171.533349 
L 401.990794 166.181657 
L 403.793286 171.037395 
L 405.595778 185.548869 
L 407.398269 194.944151 
L 409.200761 189.005832 
L 411.003253 186.32802 
L 412.805745 185.634533 
L 414.608237 180.338148 
L 416.410729 184.384335 
L 418.213221 186.790822 
L 420.015713 180.629995 
L 421.818205 179.195465 
L 423.620697 179.914235 
L 425.423189 181.2823 
L 427.225681 182.485136 
L 429.028173 190.475697 
L 430.830665 180.838125 
L 432.633156 179.080953 
L 434.435648 184.413336 
L 436.23814 186.78575 
L 438.040632 185.612576 
L 439.843124 176.69191 
L 441.645616 181.989764 
L 443.448108 173.302616 
L 445.2506 175.471331 
L 447.053092 169.084692 
L 448.855584 163.710384 
L 450.658076 172.265714 
L 452.460568 167.450918 
L 454.26306 165.571306 
L 456.065551 166.306199 
L 457.868043 164.684023 
L 459.670535 162.586172 
L 461.473027 161.72234 
L 463.275519 155.2634 
L 465.078011 150.667886 
L 466.880503 155.303208 
L 468.682995 158.527232 
L 470.485487 159.371231 
L 472.287979 158.508271 
L 474.090471 167.152422 
L 475.892963 168.186019 
L 477.695455 159.223584 
L 477.695455 159.223584 
" style="fill:none;stroke:#cc3311;stroke-linecap:square;stroke-width:0.5;"/>
    <defs>
     <path d="M 0 2.5 
C 0.663008 2.5 1.29895 2.236584 1.767767 1.767767 
C 2.236584 1.29895 2.5 0.663008 2.5 0 
C 2.5 -0.663008 2.236584 -1.29895 1.767767 -1.767767 
C 1.29895 -2.236584 0.663008 -2.5 0 -2.5 
C -0.663008 -2.5 -1.29895 -2.236584 -1.767767 -1.767767 
C -2.236584 -1.29895 -2.5 -0.663008 -2.5 0 
C -2.5 0.663008 -2.236584 1.29895 -1.767767 1.767767 
C -1.29895 2.236584 -0.663008 2.5 0 2.5 
z
" id="mf91d329a5b" style="stroke:#cc3311;"/>
    </defs>
    <g clip-path="url(#p214774c0c1)">
     <use style="fill:#cc3311;stroke:#cc3311;" x="122.604545" xlink:href="#mf91d329a5b" y="228.152606"/>
     <use style="fill:#cc3311;stroke:#cc3311;" x="140.629465" xlink:href="#mf91d329a5b" y="308.299301"/>
     <use style="fill:#cc3311;stroke:#cc3311;" x="158.654384" xlink:href="#mf91d329a5b" y="289.314594"/>
     <use style="fill:#cc3311;stroke:#cc3311;" x="176.679303" xlink:href="#mf91d329a5b" y="283.662112"/>
     <use style="fill:#cc3311;stroke:#cc3311;" x="194.704222" xlink:href="#mf91d329a5b" y="328.772736"/>
     <use style="fill:#cc3311;stroke:#cc3311;" x="212.729142" xlink:href="#mf91d329a5b" y="344.661249"/>
     <use style="fill:#cc3311;stroke:#cc3311;" x="230.754061" xlink:href="#mf91d329a5b" y="329.654009"/>
     <use style="fill:#cc3311;stroke:#cc3311;" x="248.77898" xlink:href="#mf91d329a5b" y="318.936432"/>
     <use style="fill:#cc3311;stroke:#cc3311;" x="266.803899" xlink:href="#mf91d329a5b" y="286.094652"/>
     <use style="fill:#cc3311;stroke:#cc3311;" x="284.828819" xlink:href="#mf91d329a5b" y="256.444478"/>
     <use style="fill:#cc3311;stroke:#cc3311;" x="302.853738" xlink:href="#mf91d329a5b" y="224.863147"/>
     <use style="fill:#cc3311;stroke:#cc3311;" x="320.878657" xlink:href="#mf91d329a5b" y="191.702663"/>
     <use style="fill:#cc3311;stroke:#cc3311;" x="338.903576" xlink:href="#mf91d329a5b" y="176.477633"/>
     <use style="fill:#cc3311;stroke:#cc3311;" x="356.928496" xlink:href="#mf91d329a5b" y="151.111596"/>
     <use style="fill:#cc3311;stroke:#cc3311;" x="374.953415" xlink:href="#mf91d329a5b" y="146.921957"/>
     <use style="fill:#cc3311;stroke:#cc3311;" x="392.978334" xlink:href="#mf91d329a5b" y="169.692201"/>
     <use style="fill:#cc3311;stroke:#cc3311;" x="411.003253" xlink:href="#mf91d329a5b" y="186.32802"/>
     <use style="fill:#cc3311;stroke:#cc3311;" x="429.028173" xlink:href="#mf91d329a5b" y="190.475697"/>
     <use style="fill:#cc3311;stroke:#cc3311;" x="447.053092" xlink:href="#mf91d329a5b" y="169.084692"/>
     <use style="fill:#cc3311;stroke:#cc3311;" x="465.078011" xlink:href="#mf91d329a5b" y="150.667886"/>
    </g>
   </g>
   <g id="line2d_25"/>
   <g id="line2d_26"/>
   <g id="line2d_27"/>
   <g id="line2d_28"/>
   <g id="line2d_29">
    <path clip-path="url(#p214774c0c1)" d="M 122.604545 364.637643 
L 124.407037 293.760817 
L 126.209529 292.04116 
L 128.012021 261.48668 
L 129.814513 240.331964 
L 131.617005 231.33265 
L 133.419497 244.096897 
L 135.221989 238.769584 
L 137.024481 254.05143 
L 138.826973 250.932788 
L 142.431957 264.766306 
L 144.234449 256.053121 
L 146.03694 243.280478 
L 147.839432 237.16144 
L 149.641924 232.883517 
L 151.444416 225.427283 
L 153.246908 219.711063 
L 155.0494 220.211927 
L 156.851892 217.598777 
L 158.654384 206.103015 
L 160.456876 207.854988 
L 162.259368 198.35762 
L 164.06186 200.087559 
L 165.864352 208.290012 
L 167.666844 200.151097 
L 169.469335 201.087586 
L 171.271827 196.364134 
L 173.074319 183.656048 
L 174.876811 178.629612 
L 176.679303 164.298711 
L 178.481795 153.465667 
L 180.284287 150.037355 
L 182.086779 161.957751 
L 183.889271 163.344544 
L 185.691763 170.16495 
L 187.494255 172.443854 
L 191.099239 179.875683 
L 192.901731 186.156373 
L 194.704222 195.263576 
L 196.506714 192.371233 
L 198.309206 193.54946 
L 200.111698 192.912894 
L 201.91419 186.928615 
L 203.716682 198.187411 
L 205.519174 197.525533 
L 207.321666 203.513763 
L 209.124158 202.496497 
L 210.92665 201.337677 
L 212.729142 214.401356 
L 214.531634 221.695555 
L 216.334126 230.613802 
L 218.136617 226.686411 
L 219.939109 227.209018 
L 221.741601 211.92486 
L 223.544093 207.636543 
L 225.346585 207.075688 
L 227.149077 198.038852 
L 228.951569 196.070312 
L 230.754061 200.74061 
L 232.556553 196.842329 
L 234.359045 198.028273 
L 236.161537 202.217318 
L 237.964029 203.693176 
L 239.766521 203.880904 
L 241.569012 193.728906 
L 243.371504 189.659617 
L 245.173996 202.966502 
L 246.976488 209.622121 
L 248.77898 202.962054 
L 250.581472 200.608336 
L 252.383964 198.543854 
L 254.186456 195.323622 
L 255.988948 189.502059 
L 259.593932 204.00108 
L 261.396424 199.668205 
L 263.198916 203.411506 
L 266.803899 185.421112 
L 268.606391 188.251177 
L 270.408883 188.816866 
L 272.211375 182.71445 
L 274.013867 172.043436 
L 275.816359 165.13893 
L 277.618851 171.220241 
L 279.421343 176.153139 
L 281.223835 173.355129 
L 283.026327 172.289389 
L 284.828819 179.212375 
L 286.631311 173.86283 
L 288.433802 173.6608 
L 290.236294 172.687605 
L 292.038786 185.210299 
L 293.841278 184.80941 
L 295.64377 179.281558 
L 297.446262 184.584218 
L 299.248754 186.537359 
L 301.051246 195.408403 
L 302.853738 194.525907 
L 304.65623 193.349524 
L 306.458722 191.161164 
L 308.261214 188.602256 
L 310.063706 202.993971 
L 311.866198 208.835721 
L 313.668689 208.340568 
L 315.471181 203.770968 
L 317.273673 196.59837 
L 319.076165 195.774775 
L 320.878657 186.975204 
L 322.681149 192.360581 
L 324.483641 189.24672 
L 326.286133 191.377603 
L 328.088625 183.6126 
L 329.891117 183.884329 
L 331.693609 185.400572 
L 333.496101 184.199276 
L 335.298593 180.837624 
L 337.101084 174.487779 
L 338.903576 170.991459 
L 340.706068 173.631868 
L 342.50856 175.02237 
L 344.311052 180.362874 
L 347.916036 167.348382 
L 349.718528 165.35046 
L 351.52102 164.363655 
L 353.323512 171.229303 
L 355.126004 168.569557 
L 356.928496 164.910976 
L 358.730988 168.425575 
L 360.533479 171.079104 
L 362.335971 162.867451 
L 364.138463 160.039839 
L 365.940955 163.549563 
L 367.743447 168.02142 
L 369.545939 163.551104 
L 371.348431 160.905056 
L 373.150923 161.674803 
L 374.953415 168.824567 
L 376.755907 169.568631 
L 378.558399 166.762462 
L 380.360891 171.26776 
L 382.163383 172.97544 
L 383.965874 179.834619 
L 385.768366 185.205178 
L 387.570858 191.096196 
L 389.37335 186.953895 
L 391.175842 187.755975 
L 392.978334 195.936488 
L 394.780826 199.263736 
L 396.583318 199.308833 
L 401.990794 193.33833 
L 403.793286 196.803221 
L 407.398269 211.921433 
L 409.200761 211.324582 
L 411.003253 210.258505 
L 412.805745 208.903386 
L 414.608237 215.027449 
L 416.410729 213.229873 
L 418.213221 211.142913 
L 420.015713 205.013525 
L 421.818205 202.4883 
L 423.620697 197.016393 
L 425.423189 197.004741 
L 427.225681 203.699799 
L 429.028173 205.585145 
L 430.830665 195.424204 
L 432.633156 196.151886 
L 434.435648 209.052818 
L 436.23814 218.964159 
L 438.040632 217.892789 
L 439.843124 211.829919 
L 441.645616 215.446 
L 443.448108 210.047989 
L 445.2506 210.651139 
L 447.053092 207.312368 
L 448.855584 205.233148 
L 450.658076 209.361874 
L 452.460568 205.955965 
L 454.26306 205.943108 
L 456.065551 208.125282 
L 457.868043 208.416005 
L 459.670535 211.538072 
L 461.473027 213.580179 
L 463.275519 210.113989 
L 465.078011 208.862726 
L 466.880503 209.038845 
L 468.682995 209.859203 
L 470.485487 209.139856 
L 472.287979 206.543921 
L 474.090471 213.646564 
L 475.892963 216.254452 
L 477.695455 214.780805 
L 477.695455 214.780805 
" style="fill:none;stroke:#009988;stroke-dasharray:1.85,0.8;stroke-dashoffset:0;stroke-width:0.5;"/>
    <defs>
     <path d="M -2.5 2.5 
L 2.5 2.5 
L 2.5 -2.5 
L -2.5 -2.5 
z
" id="m81f93e667c" style="stroke:#009988;stroke-linejoin:miter;"/>
    </defs>
    <g clip-path="url(#p214774c0c1)">
     <use style="fill:#009988;stroke:#009988;stroke-linejoin:miter;" x="122.604545" xlink:href="#m81f93e667c" y="364.637643"/>
     <use style="fill:#009988;stroke:#009988;stroke-linejoin:miter;" x="140.629465" xlink:href="#m81f93e667c" y="258.0294"/>
     <use style="fill:#009988;stroke:#009988;stroke-linejoin:miter;" x="158.654384" xlink:href="#m81f93e667c" y="206.103015"/>
     <use style="fill:#009988;stroke:#009988;stroke-linejoin:miter;" x="176.679303" xlink:href="#m81f93e667c" y="164.298711"/>
     <use style="fill:#009988;stroke:#009988;stroke-linejoin:miter;" x="194.704222" xlink:href="#m81f93e667c" y="195.263576"/>
     <use style="fill:#009988;stroke:#009988;stroke-linejoin:miter;" x="212.729142" xlink:href="#m81f93e667c" y="214.401356"/>
     <use style="fill:#009988;stroke:#009988;stroke-linejoin:miter;" x="230.754061" xlink:href="#m81f93e667c" y="200.74061"/>
     <use style="fill:#009988;stroke:#009988;stroke-linejoin:miter;" x="248.77898" xlink:href="#m81f93e667c" y="202.962054"/>
     <use style="fill:#009988;stroke:#009988;stroke-linejoin:miter;" x="266.803899" xlink:href="#m81f93e667c" y="185.421112"/>
     <use style="fill:#009988;stroke:#009988;stroke-linejoin:miter;" x="284.828819" xlink:href="#m81f93e667c" y="179.212375"/>
     <use style="fill:#009988;stroke:#009988;stroke-linejoin:miter;" x="302.853738" xlink:href="#m81f93e667c" y="194.525907"/>
     <use style="fill:#009988;stroke:#009988;stroke-linejoin:miter;" x="320.878657" xlink:href="#m81f93e667c" y="186.975204"/>
     <use style="fill:#009988;stroke:#009988;stroke-linejoin:miter;" x="338.903576" xlink:href="#m81f93e667c" y="170.991459"/>
     <use style="fill:#009988;stroke:#009988;stroke-linejoin:miter;" x="356.928496" xlink:href="#m81f93e667c" y="164.910976"/>
     <use style="fill:#009988;stroke:#009988;stroke-linejoin:miter;" x="374.953415" xlink:href="#m81f93e667c" y="168.824567"/>
     <use style="fill:#009988;stroke:#009988;stroke-linejoin:miter;" x="392.978334" xlink:href="#m81f93e667c" y="195.936488"/>
     <use style="fill:#009988;stroke:#009988;stroke-linejoin:miter;" x="411.003253" xlink:href="#m81f93e667c" y="210.258505"/>
     <use style="fill:#009988;stroke:#009988;stroke-linejoin:miter;" x="429.028173" xlink:href="#m81f93e667c" y="205.585145"/>
     <use style="fill:#009988;stroke:#009988;stroke-linejoin:miter;" x="447.053092" xlink:href="#m81f93e667c" y="207.312368"/>
     <use style="fill:#009988;stroke:#009988;stroke-linejoin:miter;" x="465.078011" xlink:href="#m81f93e667c" y="208.862726"/>
    </g>
   </g>
   <g id="line2d_30"/>
   <g id="line2d_31"/>
   <g id="line2d_32"/>
   <g id="line2d_33"/>
   <g id="line2d_34">
    <path clip-path="url(#p214774c0c1)" d="M 122.604545 228.152606 
L 124.407037 260.290759 
L 126.209529 330.912958 
L 128.012021 289.848193 
L 129.814513 276.722361 
L 131.617005 269.314012 
L 133.419497 282.127673 
L 135.221989 304.695396 
L 137.024481 305.179725 
L 138.826973 297.083656 
L 140.629465 312.028166 
L 142.431957 330.404824 
L 144.234449 321.198825 
L 146.03694 311.08118 
L 147.839432 308.259656 
L 149.641924 306.41734 
L 151.444416 299.693298 
L 153.246908 301.272606 
L 155.0494 299.227628 
L 156.851892 310.097628 
L 158.654384 316.200102 
L 160.456876 315.713728 
L 162.259368 307.62505 
L 164.06186 315.992133 
L 165.864352 336.050148 
L 167.666844 335.182307 
L 169.469335 336.449568 
L 171.271827 325.234673 
L 173.074319 322.893205 
L 174.876811 325.856784 
L 176.679303 318.594659 
L 178.481795 309.986674 
L 180.284287 311.392127 
L 182.086779 327.880194 
L 183.889271 334.809239 
L 185.691763 341.076118 
L 187.494255 348.155205 
L 189.296747 344.972652 
L 191.099239 350.160561 
L 192.901731 342.407579 
L 194.704222 343.369071 
L 196.506714 344.610967 
L 198.309206 346.809038 
L 200.111698 345.909049 
L 201.91419 333.505247 
L 203.716682 346.497011 
L 205.519174 346.39979 
L 207.321666 357.169674 
L 209.124158 352.553802 
L 210.92665 345.713298 
L 212.729142 349.231126 
L 214.531634 350.802532 
L 216.334126 362.412784 
L 218.136617 361.49156 
L 219.939109 358.060705 
L 221.741601 344.950033 
L 223.544093 337.275075 
L 225.346585 339.416359 
L 227.149077 336.654171 
L 228.951569 339.391091 
L 230.754061 349.591303 
L 232.556553 356.902797 
L 234.359045 353.636482 
L 236.161537 354.491067 
L 239.766521 340.46965 
L 241.569012 336.936688 
L 243.371504 334.335348 
L 245.173996 349.006234 
L 246.976488 360.927419 
L 248.77898 358.523733 
L 250.581472 357.22047 
L 252.383964 359.345471 
L 254.186456 353.572279 
L 255.988948 348.471418 
L 257.79144 354.904059 
L 259.593932 363.967189 
L 263.198916 359.988431 
L 265.001407 346.826744 
L 266.803899 343.578831 
L 268.606391 339.236918 
L 270.408883 336.255006 
L 272.211375 334.533006 
L 274.013867 334.664832 
L 275.816359 327.010711 
L 277.618851 328.493163 
L 279.421343 323.972454 
L 281.223835 321.80614 
L 283.026327 318.212152 
L 284.828819 318.314714 
L 286.631311 310.764162 
L 288.433802 299.490558 
L 290.236294 293.960254 
L 292.038786 297.030904 
L 293.841278 290.8665 
L 295.64377 279.192662 
L 299.248754 275.573623 
L 301.051246 285.128042 
L 302.853738 273.083107 
L 304.65623 259.78637 
L 306.458722 259.048116 
L 308.261214 247.01996 
L 310.063706 254.226345 
L 311.866198 246.286404 
L 313.668689 242.292516 
L 315.471181 240.829181 
L 317.273673 235.723652 
L 319.076165 226.786606 
L 320.878657 221.291609 
L 322.681149 223.654542 
L 324.483641 216.195228 
L 326.286133 211.340273 
L 328.088625 205.724696 
L 329.891117 205.98683 
L 331.693609 205.762875 
L 333.496101 203.404905 
L 335.298593 199.938767 
L 337.101084 187.217509 
L 338.903576 178.967962 
L 340.706068 183.057662 
L 342.50856 173.884892 
L 344.311052 186.181061 
L 346.113544 174.974951 
L 347.916036 182.849764 
L 349.718528 181.063306 
L 351.52102 168.046133 
L 353.323512 163.217261 
L 355.126004 163.368949 
L 356.928496 157.568912 
L 358.730988 159.211274 
L 360.533479 163.348432 
L 362.335971 159.408777 
L 364.138463 152.465231 
L 365.940955 158.872397 
L 367.743447 160.992448 
L 369.545939 153.605041 
L 371.348431 148.295399 
L 373.150923 156.040316 
L 374.953415 165.66164 
L 376.755907 162.237877 
L 378.558399 170.618586 
L 380.360891 167.295542 
L 382.163383 168.419538 
L 383.965874 176.33657 
L 387.570858 186.758808 
L 389.37335 184.094811 
L 391.175842 189.602171 
L 392.978334 192.939567 
L 394.780826 192.196442 
L 396.583318 186.130277 
L 398.38581 187.464416 
L 400.188302 188.095299 
L 401.990794 178.407581 
L 403.793286 184.632519 
L 405.595778 196.341012 
L 407.398269 205.736294 
L 409.200761 196.44483 
L 411.003253 195.873706 
L 412.805745 198.559509 
L 414.608237 193.263124 
L 416.410729 198.651514 
L 418.213221 198.418639 
L 420.015713 186.387052 
L 421.818205 182.928451 
L 423.620697 185.587645 
L 425.423189 186.286418 
L 427.225681 186.110648 
L 429.028173 191.37685 
L 430.830665 181.739278 
L 432.633156 183.901875 
L 434.435648 189.18696 
L 436.23814 192.921522 
L 438.040632 191.748348 
L 439.843124 182.827682 
L 441.645616 186.800162 
L 443.448108 180.135322 
L 445.2506 187.643959 
L 447.053092 179.150633 
L 448.855584 171.752311 
L 450.658076 179.671713 
L 452.460568 173.514713 
L 454.26306 170.302228 
L 456.065551 171.037121 
L 457.868043 168.107218 
L 459.670535 162.766597 
L 461.473027 167.224869 
L 463.275519 160.765929 
L 465.078011 156.170415 
L 466.880503 157.474636 
L 468.682995 160.643327 
L 470.485487 159.486751 
L 472.287979 157.334627 
L 474.090471 164.636506 
L 475.892963 165.670103 
L 477.695455 158.758545 
L 477.695455 158.758545 
" style="fill:none;stroke:#0077bb;stroke-dasharray:3.2,0.8,0.5,0.8;stroke-dashoffset:0;stroke-width:0.5;"/>
    <defs>
     <path d="M 0 -2.5 
L -2.5 2.5 
L 2.5 2.5 
z
" id="m762168ecf1" style="stroke:#0077bb;stroke-linejoin:miter;"/>
    </defs>
    <g clip-path="url(#p214774c0c1)">
     <use style="fill:#0077bb;stroke:#0077bb;stroke-linejoin:miter;" x="122.604545" xlink:href="#m762168ecf1" y="228.152606"/>
     <use style="fill:#0077bb;stroke:#0077bb;stroke-linejoin:miter;" x="140.629465" xlink:href="#m762168ecf1" y="312.028166"/>
     <use style="fill:#0077bb;stroke:#0077bb;stroke-linejoin:miter;" x="158.654384" xlink:href="#m762168ecf1" y="316.200102"/>
     <use style="fill:#0077bb;stroke:#0077bb;stroke-linejoin:miter;" x="176.679303" xlink:href="#m762168ecf1" y="318.594659"/>
     <use style="fill:#0077bb;stroke:#0077bb;stroke-linejoin:miter;" x="194.704222" xlink:href="#m762168ecf1" y="343.369071"/>
     <use style="fill:#0077bb;stroke:#0077bb;stroke-linejoin:miter;" x="212.729142" xlink:href="#m762168ecf1" y="349.231126"/>
     <use style="fill:#0077bb;stroke:#0077bb;stroke-linejoin:miter;" x="230.754061" xlink:href="#m762168ecf1" y="349.591303"/>
     <use style="fill:#0077bb;stroke:#0077bb;stroke-linejoin:miter;" x="248.77898" xlink:href="#m762168ecf1" y="358.523733"/>
     <use style="fill:#0077bb;stroke:#0077bb;stroke-linejoin:miter;" x="266.803899" xlink:href="#m762168ecf1" y="343.578831"/>
     <use style="fill:#0077bb;stroke:#0077bb;stroke-linejoin:miter;" x="284.828819" xlink:href="#m762168ecf1" y="318.314714"/>
     <use style="fill:#0077bb;stroke:#0077bb;stroke-linejoin:miter;" x="302.853738" xlink:href="#m762168ecf1" y="273.083107"/>
     <use style="fill:#0077bb;stroke:#0077bb;stroke-linejoin:miter;" x="320.878657" xlink:href="#m762168ecf1" y="221.291609"/>
     <use style="fill:#0077bb;stroke:#0077bb;stroke-linejoin:miter;" x="338.903576" xlink:href="#m762168ecf1" y="178.967962"/>
     <use style="fill:#0077bb;stroke:#0077bb;stroke-linejoin:miter;" x="356.928496" xlink:href="#m762168ecf1" y="157.568912"/>
     <use style="fill:#0077bb;stroke:#0077bb;stroke-linejoin:miter;" x="374.953415" xlink:href="#m762168ecf1" y="165.66164"/>
     <use style="fill:#0077bb;stroke:#0077bb;stroke-linejoin:miter;" x="392.978334" xlink:href="#m762168ecf1" y="192.939567"/>
     <use style="fill:#0077bb;stroke:#0077bb;stroke-linejoin:miter;" x="411.003253" xlink:href="#m762168ecf1" y="195.873706"/>
     <use style="fill:#0077bb;stroke:#0077bb;stroke-linejoin:miter;" x="429.028173" xlink:href="#m762168ecf1" y="191.37685"/>
     <use style="fill:#0077bb;stroke:#0077bb;stroke-linejoin:miter;" x="447.053092" xlink:href="#m762168ecf1" y="179.150633"/>
     <use style="fill:#0077bb;stroke:#0077bb;stroke-linejoin:miter;" x="465.078011" xlink:href="#m762168ecf1" y="156.170415"/>
    </g>
   </g>
   <g id="line2d_35"/>
   <g id="line2d_36"/>
   <g id="line2d_37"/>
   <g id="line2d_38"/>
   <g id="line2d_39">
    <path clip-path="url(#p214774c0c1)" d="M 122.604545 228.152606 
L 124.407037 260.290759 
L 126.209529 330.912958 
L 128.012021 295.830365 
L 129.814513 283.611208 
L 131.617005 284.245893 
L 133.419497 298.927552 
L 135.221989 305.026329 
L 137.024481 308.805537 
L 138.826973 302.633661 
L 140.629465 349.436327 
L 142.431957 371.302276 
L 144.234449 357.135068 
L 146.03694 341.191928 
L 147.839432 332.853131 
L 149.641924 329.473723 
L 151.444416 318.247856 
L 153.246908 318.224663 
L 155.0494 314.054679 
L 156.851892 323.044665 
L 158.654384 334.272967 
L 160.456876 341.838737 
L 162.259368 334.679795 
L 164.06186 345.397432 
L 165.864352 366.137773 
L 167.666844 373.344879 
L 169.469335 374.352688 
L 171.271827 366.188629 
L 173.074319 364.374139 
L 174.876811 365.040756 
L 176.679303 334.829734 
L 178.481795 324.676648 
L 180.284287 327.262014 
L 182.086779 344.496584 
L 183.889271 354.058047 
L 185.691763 359.145183 
L 187.494255 367.719138 
L 189.296747 366.240382 
L 191.099239 372.599444 
L 192.901731 365.985124 
L 194.704222 363.059332 
L 196.506714 358.573706 
L 198.309206 359.84204 
L 200.111698 354.83418 
L 201.91419 345.101709 
L 203.716682 345.507593 
L 205.519174 344.269432 
L 207.321666 356.545866 
L 209.124158 353.641075 
L 210.92665 347.954146 
L 212.729142 356.621385 
L 214.531634 355.773909 
L 216.334126 368.553679 
L 218.136617 368.009217 
L 219.939109 364.578363 
L 221.741601 355.028885 
L 223.544093 354.265709 
L 225.346585 354.058337 
L 227.149077 351.296149 
L 228.951569 355.194385 
L 230.754061 366.458088 
L 232.556553 374.032554 
L 234.359045 373.158016 
L 236.161537 374.573483 
L 237.964029 361.100825 
L 239.766521 354.279633 
L 241.569012 350.74667 
L 243.371504 348.997937 
L 245.173996 363.571545 
L 246.976488 376.651812 
L 248.77898 374.248126 
L 250.581472 375.389167 
L 252.383964 373.889145 
L 254.186456 369.27372 
L 255.988948 364.172859 
L 257.79144 365.96861 
L 259.593932 367.983718 
L 261.396424 367.216579 
L 263.198916 365.16434 
L 265.001407 350.841338 
L 266.803899 346.769022 
L 268.606391 339.839514 
L 270.408883 334.465826 
L 272.211375 332.743826 
L 274.013867 335.545506 
L 275.816359 331.000054 
L 277.618851 335.738261 
L 279.421343 334.847374 
L 281.223835 330.73635 
L 283.026327 329.302552 
L 284.828819 326.162443 
L 288.433802 309.003101 
L 290.236294 303.472797 
L 292.038786 303.246414 
L 293.841278 304.638393 
L 295.64377 292.24803 
L 297.446262 288.362318 
L 299.248754 286.629021 
L 301.051246 291.924947 
L 302.853738 281.804041 
L 304.65623 270.543193 
L 306.458722 267.842968 
L 308.261214 255.814811 
L 310.063706 263.021197 
L 311.866198 254.760105 
L 313.668689 244.821319 
L 315.471181 241.444067 
L 317.273673 232.603003 
L 319.076165 220.346685 
L 320.878657 215.897778 
L 322.681149 215.953939 
L 324.483641 208.494626 
L 326.286133 205.661166 
L 328.088625 204.672574 
L 329.891117 201.022403 
L 331.693609 204.234473 
L 333.496101 205.215346 
L 335.298593 199.760024 
L 337.101084 192.607385 
L 338.903576 178.89177 
L 340.706068 175.488416 
L 342.50856 169.652538 
L 344.311052 179.912781 
L 346.113544 165.216337 
L 347.916036 171.780358 
L 349.718528 170.583579 
L 351.52102 156.188092 
L 353.323512 151.398866 
L 355.126004 149.57425 
L 356.928496 145.970793 
L 358.730988 148.266316 
L 360.533479 154.484207 
L 364.138463 133.973438 
L 365.940955 134.655941 
L 367.743447 136.740796 
L 369.545939 126.61242 
L 371.348431 124.651812 
L 373.150923 129.102276 
L 374.953415 140.788007 
L 376.755907 144.176687 
L 378.558399 152.507516 
L 380.360891 151.220399 
L 382.163383 155.83473 
L 383.965874 159.83554 
L 385.768366 167.096901 
L 387.570858 172.357242 
L 389.37335 171.024527 
L 391.175842 177.129585 
L 392.978334 178.463925 
L 394.780826 177.720801 
L 396.583318 171.014396 
L 398.38581 174.492838 
L 400.188302 177.207664 
L 401.990794 173.216968 
L 403.793286 179.418335 
L 405.595778 194.494689 
L 407.398269 205.90142 
L 411.003253 200.645318 
L 412.805745 203.328867 
L 414.608237 196.70744 
L 416.410729 203.439158 
L 418.213221 203.206283 
L 420.015713 196.48679 
L 421.818205 191.049684 
L 423.620697 191.768453 
L 425.423189 194.488955 
L 427.225681 195.691791 
L 429.028173 204.320499 
L 430.830665 196.709468 
L 432.633156 198.767681 
L 434.435648 204.100063 
L 436.23814 203.97843 
L 438.040632 202.839133 
L 439.843124 190.570447 
L 441.645616 191.252883 
L 443.448108 182.57202 
L 445.2506 182.643518 
L 447.053092 179.608974 
L 448.855584 172.196633 
L 450.658076 178.015155 
L 452.460568 168.484014 
L 454.26306 163.939756 
L 456.065551 163.278776 
L 457.868043 160.684687 
L 459.670535 158.586836 
L 461.473027 157.749185 
L 463.275519 151.290244 
L 465.078011 143.318013 
L 466.880503 145.396843 
L 468.682995 145.22297 
L 470.485487 147.39641 
L 472.287979 150.389646 
L 474.090471 155.588302 
L 475.892963 159.930559 
L 477.695455 153.617778 
L 477.695455 153.617778 
" style="fill:none;stroke:#ee7733;stroke-dasharray:0.5,0.825;stroke-dashoffset:0;stroke-width:0.5;"/>
    <defs>
     <path d="M 0 -2.5 
L -0.561285 -0.772542 
L -2.377641 -0.772542 
L -0.908178 0.295085 
L -1.469463 2.022542 
L -0 0.954915 
L 1.469463 2.022542 
L 0.908178 0.295085 
L 2.377641 -0.772542 
L 0.561285 -0.772542 
z
" id="m212db27ff1" style="stroke:#ee7733;stroke-linejoin:bevel;"/>
    </defs>
    <g clip-path="url(#p214774c0c1)">
     <use style="fill:#ee7733;stroke:#ee7733;stroke-linejoin:bevel;" x="122.604545" xlink:href="#m212db27ff1" y="228.152606"/>
     <use style="fill:#ee7733;stroke:#ee7733;stroke-linejoin:bevel;" x="140.629465" xlink:href="#m212db27ff1" y="349.436327"/>
     <use style="fill:#ee7733;stroke:#ee7733;stroke-linejoin:bevel;" x="158.654384" xlink:href="#m212db27ff1" y="334.272967"/>
     <use style="fill:#ee7733;stroke:#ee7733;stroke-linejoin:bevel;" x="176.679303" xlink:href="#m212db27ff1" y="334.829734"/>
     <use style="fill:#ee7733;stroke:#ee7733;stroke-linejoin:bevel;" x="194.704222" xlink:href="#m212db27ff1" y="363.059332"/>
     <use style="fill:#ee7733;stroke:#ee7733;stroke-linejoin:bevel;" x="212.729142" xlink:href="#m212db27ff1" y="356.621385"/>
     <use style="fill:#ee7733;stroke:#ee7733;stroke-linejoin:bevel;" x="230.754061" xlink:href="#m212db27ff1" y="366.458088"/>
     <use style="fill:#ee7733;stroke:#ee7733;stroke-linejoin:bevel;" x="248.77898" xlink:href="#m212db27ff1" y="374.248126"/>
     <use style="fill:#ee7733;stroke:#ee7733;stroke-linejoin:bevel;" x="266.803899" xlink:href="#m212db27ff1" y="346.769022"/>
     <use style="fill:#ee7733;stroke:#ee7733;stroke-linejoin:bevel;" x="284.828819" xlink:href="#m212db27ff1" y="326.162443"/>
     <use style="fill:#ee7733;stroke:#ee7733;stroke-linejoin:bevel;" x="302.853738" xlink:href="#m212db27ff1" y="281.804041"/>
     <use style="fill:#ee7733;stroke:#ee7733;stroke-linejoin:bevel;" x="320.878657" xlink:href="#m212db27ff1" y="215.897778"/>
     <use style="fill:#ee7733;stroke:#ee7733;stroke-linejoin:bevel;" x="338.903576" xlink:href="#m212db27ff1" y="178.89177"/>
     <use style="fill:#ee7733;stroke:#ee7733;stroke-linejoin:bevel;" x="356.928496" xlink:href="#m212db27ff1" y="145.970793"/>
     <use style="fill:#ee7733;stroke:#ee7733;stroke-linejoin:bevel;" x="374.953415" xlink:href="#m212db27ff1" y="140.788007"/>
     <use style="fill:#ee7733;stroke:#ee7733;stroke-linejoin:bevel;" x="392.978334" xlink:href="#m212db27ff1" y="178.463925"/>
     <use style="fill:#ee7733;stroke:#ee7733;stroke-linejoin:bevel;" x="411.003253" xlink:href="#m212db27ff1" y="200.645318"/>
     <use style="fill:#ee7733;stroke:#ee7733;stroke-linejoin:bevel;" x="429.028173" xlink:href="#m212db27ff1" y="204.320499"/>
     <use style="fill:#ee7733;stroke:#ee7733;stroke-linejoin:bevel;" x="447.053092" xlink:href="#m212db27ff1" y="179.608974"/>
     <use style="fill:#ee7733;stroke:#ee7733;stroke-linejoin:bevel;" x="465.078011" xlink:href="#m212db27ff1" y="143.318013"/>
    </g>
   </g>
   <g id="line2d_40"/>
   <g id="line2d_41"/>
   <g id="line2d_42"/>
   <g id="line2d_43"/>
   <g id="line2d_44">
    <path clip-path="url(#p214774c0c1)" d="M 243.371504 389.251812 
L 243.371504 112.051812 
" style="fill:none;stroke:#000000;stroke-dasharray:2.5,5;stroke-dashoffset:0;stroke-width:0.5;"/>
   </g>
   <g id="line2d_45">
    <path clip-path="url(#p214774c0c1)" d="M 297.446262 389.251812 
L 297.446262 112.051812 
" style="fill:none;stroke:#000000;stroke-dasharray:2.5,5;stroke-dashoffset:0;stroke-width:0.5;"/>
   </g>
   <g id="patch_4">
    <path d="M 104.85 389.251812 
L 104.85 112.051812 
" style="fill:none;stroke:#000000;stroke-linecap:square;stroke-linejoin:miter;stroke-width:0.8;"/>
   </g>
   <g id="patch_5">
    <path d="M 495.45 389.251812 
L 495.45 112.051812 
" style="fill:none;stroke:#000000;stroke-linecap:square;stroke-linejoin:miter;stroke-width:0.8;"/>
   </g>
   <g id="patch_6">
    <path d="M 104.85 389.251812 
L 495.45 389.251812 
" style="fill:none;stroke:#000000;stroke-linecap:square;stroke-linejoin:miter;stroke-width:0.8;"/>
   </g>
   <g id="patch_7">
    <path d="M 104.85 112.051812 
L 495.45 112.051812 
" style="fill:none;stroke:#000000;stroke-linecap:square;stroke-linejoin:miter;stroke-width:0.8;"/>
   </g>
   <g id="legend_1">
    <g id="line2d_46"/>
    <g id="line2d_47"/>
    <g id="text_21">
     <!--   -->
     <g transform="translate(48.8 22.277969)scale(0.13 -0.13)">
      <use xlink:href="#DejaVuSans-32"/>
     </g>
    </g>
    <g id="line2d_48"/>
    <g id="line2d_49"/>
    <g id="text_22">
     <!-- start -->
     <g transform="translate(48.8 41.359531)scale(0.13 -0.13)">
      <use xlink:href="#DejaVuSans-115"/>
      <use x="52.099609" xlink:href="#DejaVuSans-116"/>
      <use x="91.308594" xlink:href="#DejaVuSans-97"/>
      <use x="152.587891" xlink:href="#DejaVuSans-114"/>
      <use x="193.701172" xlink:href="#DejaVuSans-116"/>
     </g>
    </g>
    <g id="line2d_50"/>
    <g id="line2d_51"/>
    <g id="text_23">
     <!-- pre-dirft -->
     <g transform="translate(48.8 60.441094)scale(0.13 -0.13)">
      <use xlink:href="#DejaVuSans-112"/>
      <use x="63.476562" xlink:href="#DejaVuSans-114"/>
      <use x="102.339844" xlink:href="#DejaVuSans-101"/>
      <use x="163.863281" xlink:href="#DejaVuSans-45"/>
      <use x="199.947266" xlink:href="#DejaVuSans-100"/>
      <use x="263.423828" xlink:href="#DejaVuSans-105"/>
      <use x="291.207031" xlink:href="#DejaVuSans-114"/>
      <use x="332.320312" xlink:href="#DejaVuSans-102"/>
      <use x="365.775391" xlink:href="#DejaVuSans-116"/>
     </g>
    </g>
    <g id="line2d_52"/>
    <g id="line2d_53"/>
    <g id="text_24">
     <!-- post-drift -->
     <g transform="translate(48.8 79.522656)scale(0.13 -0.13)">
      <use xlink:href="#DejaVuSans-112"/>
      <use x="63.476562" xlink:href="#DejaVuSans-111"/>
      <use x="124.658203" xlink:href="#DejaVuSans-115"/>
      <use x="176.757812" xlink:href="#DejaVuSans-116"/>
      <use x="215.966797" xlink:href="#DejaVuSans-45"/>
      <use x="252.050781" xlink:href="#DejaVuSans-100"/>
      <use x="315.527344" xlink:href="#DejaVuSans-114"/>
      <use x="356.640625" xlink:href="#DejaVuSans-105"/>
      <use x="384.423828" xlink:href="#DejaVuSans-102"/>
      <use x="417.878906" xlink:href="#DejaVuSans-116"/>
     </g>
    </g>
    <g id="line2d_54"/>
    <g id="line2d_55"/>
    <g id="text_25">
     <!-- end -->
     <g transform="translate(48.8 98.604219)scale(0.13 -0.13)">
      <use xlink:href="#DejaVuSans-101"/>
      <use x="61.523438" xlink:href="#DejaVuSans-110"/>
      <use x="124.902344" xlink:href="#DejaVuSans-100"/>
     </g>
    </g>
    <g id="line2d_56">
     <path d="M 121.251758 17.727969 
L 147.251758 17.727969 
" style="fill:none;stroke:#cc3311;stroke-linecap:square;stroke-width:0.5;"/>
    </g>
    <g id="line2d_57">
     <g>
      <use style="fill:#cc3311;stroke:#cc3311;" x="134.251758" xlink:href="#mf91d329a5b" y="17.727969"/>
     </g>
    </g>
    <g id="text_26">
     <!-- NUOB -->
     <g transform="translate(157.651758 22.277969)scale(0.13 -0.13)">
      <defs>
       <path d="M 8.6875 72.90625 
L 18.609375 72.90625 
L 18.609375 28.609375 
Q 18.609375 16.890625 22.84375 11.734375 
Q 27.09375 6.59375 36.625 6.59375 
Q 46.09375 6.59375 50.34375 11.734375 
Q 54.59375 16.890625 54.59375 28.609375 
L 54.59375 72.90625 
L 64.5 72.90625 
L 64.5 27.390625 
Q 64.5 13.140625 57.4375 5.859375 
Q 50.390625 -1.421875 36.625 -1.421875 
Q 22.796875 -1.421875 15.734375 5.859375 
Q 8.6875 13.140625 8.6875 27.390625 
z
" id="DejaVuSans-85"/>
       <path d="M 39.40625 66.21875 
Q 28.65625 66.21875 22.328125 58.203125 
Q 16.015625 50.203125 16.015625 36.375 
Q 16.015625 22.609375 22.328125 14.59375 
Q 28.65625 6.59375 39.40625 6.59375 
Q 50.140625 6.59375 56.421875 14.59375 
Q 62.703125 22.609375 62.703125 36.375 
Q 62.703125 50.203125 56.421875 58.203125 
Q 50.140625 66.21875 39.40625 66.21875 
z
M 39.40625 74.21875 
Q 54.734375 74.21875 63.90625 63.9375 
Q 73.09375 53.65625 73.09375 36.375 
Q 73.09375 19.140625 63.90625 8.859375 
Q 54.734375 -1.421875 39.40625 -1.421875 
Q 24.03125 -1.421875 14.8125 8.828125 
Q 5.609375 19.09375 5.609375 36.375 
Q 5.609375 53.65625 14.8125 63.9375 
Q 24.03125 74.21875 39.40625 74.21875 
z
" id="DejaVuSans-79"/>
       <path d="M 19.671875 34.8125 
L 19.671875 8.109375 
L 35.5 8.109375 
Q 43.453125 8.109375 47.28125 11.40625 
Q 51.125 14.703125 51.125 21.484375 
Q 51.125 28.328125 47.28125 31.5625 
Q 43.453125 34.8125 35.5 34.8125 
z
M 19.671875 64.796875 
L 19.671875 42.828125 
L 34.28125 42.828125 
Q 41.5 42.828125 45.03125 45.53125 
Q 48.578125 48.25 48.578125 53.8125 
Q 48.578125 59.328125 45.03125 62.0625 
Q 41.5 64.796875 34.28125 64.796875 
z
M 9.8125 72.90625 
L 35.015625 72.90625 
Q 46.296875 72.90625 52.390625 68.21875 
Q 58.5 63.53125 58.5 54.890625 
Q 58.5 48.1875 55.375 44.234375 
Q 52.25 40.28125 46.1875 39.3125 
Q 53.46875 37.75 57.5 32.78125 
Q 61.53125 27.828125 61.53125 20.40625 
Q 61.53125 10.640625 54.890625 5.3125 
Q 48.25 0 35.984375 0 
L 9.8125 0 
z
" id="DejaVuSans-66"/>
      </defs>
      <use xlink:href="#DejaVuSans-78"/>
      <use x="74.804688" xlink:href="#DejaVuSans-85"/>
      <use x="147.998047" xlink:href="#DejaVuSans-79"/>
      <use x="226.708984" xlink:href="#DejaVuSans-66"/>
     </g>
    </g>
    <g id="line2d_58"/>
    <g id="line2d_59"/>
    <g id="text_27">
     <!-- 0.9915 -->
     <g transform="translate(157.651758 41.359531)scale(0.13 -0.13)">
      <use xlink:href="#DejaVuSans-48"/>
      <use x="63.623047" xlink:href="#DejaVuSans-46"/>
      <use x="95.410156" xlink:href="#DejaVuSans-57"/>
      <use x="159.033203" xlink:href="#DejaVuSans-57"/>
      <use x="222.65625" xlink:href="#DejaVuSans-49"/>
      <use x="286.279297" xlink:href="#DejaVuSans-53"/>
     </g>
    </g>
    <g id="line2d_60"/>
    <g id="line2d_61"/>
    <g id="text_28">
     <!-- 0.9892 -->
     <g transform="translate(157.651758 60.441094)scale(0.13 -0.13)">
      <use xlink:href="#DejaVuSans-48"/>
      <use x="63.623047" xlink:href="#DejaVuSans-46"/>
      <use x="95.410156" xlink:href="#DejaVuSans-57"/>
      <use x="159.033203" xlink:href="#DejaVuSans-56"/>
      <use x="222.65625" xlink:href="#DejaVuSans-57"/>
      <use x="286.279297" xlink:href="#DejaVuSans-50"/>
     </g>
    </g>
    <g id="line2d_62"/>
    <g id="line2d_63"/>
    <g id="text_29">
     <!-- 0.9916 -->
     <g transform="translate(157.651758 79.522656)scale(0.13 -0.13)">
      <defs>
       <path d="M 33.015625 40.375 
Q 26.375 40.375 22.484375 35.828125 
Q 18.609375 31.296875 18.609375 23.390625 
Q 18.609375 15.53125 22.484375 10.953125 
Q 26.375 6.390625 33.015625 6.390625 
Q 39.65625 6.390625 43.53125 10.953125 
Q 47.40625 15.53125 47.40625 23.390625 
Q 47.40625 31.296875 43.53125 35.828125 
Q 39.65625 40.375 33.015625 40.375 
z
M 52.59375 71.296875 
L 52.59375 62.3125 
Q 48.875 64.0625 45.09375 64.984375 
Q 41.3125 65.921875 37.59375 65.921875 
Q 27.828125 65.921875 22.671875 59.328125 
Q 17.53125 52.734375 16.796875 39.40625 
Q 19.671875 43.65625 24.015625 45.921875 
Q 28.375 48.1875 33.59375 48.1875 
Q 44.578125 48.1875 50.953125 41.515625 
Q 57.328125 34.859375 57.328125 23.390625 
Q 57.328125 12.15625 50.6875 5.359375 
Q 44.046875 -1.421875 33.015625 -1.421875 
Q 20.359375 -1.421875 13.671875 8.265625 
Q 6.984375 17.96875 6.984375 36.375 
Q 6.984375 53.65625 15.1875 63.9375 
Q 23.390625 74.21875 37.203125 74.21875 
Q 40.921875 74.21875 44.703125 73.484375 
Q 48.484375 72.75 52.59375 71.296875 
z
" id="DejaVuSans-54"/>
      </defs>
      <use xlink:href="#DejaVuSans-48"/>
      <use x="63.623047" xlink:href="#DejaVuSans-46"/>
      <use x="95.410156" xlink:href="#DejaVuSans-57"/>
      <use x="159.033203" xlink:href="#DejaVuSans-57"/>
      <use x="222.65625" xlink:href="#DejaVuSans-49"/>
      <use x="286.279297" xlink:href="#DejaVuSans-54"/>
     </g>
    </g>
    <g id="line2d_64"/>
    <g id="line2d_65"/>
    <g id="text_30">
     <!-- 0.9936 -->
     <g transform="translate(157.651758 98.604219)scale(0.13 -0.13)">
      <use xlink:href="#DejaVuSans-48"/>
      <use x="63.623047" xlink:href="#DejaVuSans-46"/>
      <use x="95.410156" xlink:href="#DejaVuSans-57"/>
      <use x="159.033203" xlink:href="#DejaVuSans-57"/>
      <use x="222.65625" xlink:href="#DejaVuSans-51"/>
      <use x="286.279297" xlink:href="#DejaVuSans-54"/>
     </g>
    </g>
    <g id="line2d_66">
     <path d="M 216.171172 17.727969 
L 242.171172 17.727969 
" style="fill:none;stroke:#009988;stroke-dasharray:1.85,0.8;stroke-dashoffset:0;stroke-width:0.5;"/>
    </g>
    <g id="line2d_67">
     <g>
      <use style="fill:#009988;stroke:#009988;stroke-linejoin:miter;" x="229.171172" xlink:href="#m81f93e667c" y="17.727969"/>
     </g>
    </g>
    <g id="text_31">
     <!-- NOOB -->
     <g transform="translate(252.571172 22.277969)scale(0.13 -0.13)">
      <use xlink:href="#DejaVuSans-78"/>
      <use x="74.804688" xlink:href="#DejaVuSans-79"/>
      <use x="153.515625" xlink:href="#DejaVuSans-79"/>
      <use x="232.226562" xlink:href="#DejaVuSans-66"/>
     </g>
    </g>
    <g id="line2d_68"/>
    <g id="line2d_69"/>
    <g id="text_32">
     <!-- 0.9873 -->
     <g transform="translate(252.571172 41.359531)scale(0.13 -0.13)">
      <use xlink:href="#DejaVuSans-48"/>
      <use x="63.623047" xlink:href="#DejaVuSans-46"/>
      <use x="95.410156" xlink:href="#DejaVuSans-57"/>
      <use x="159.033203" xlink:href="#DejaVuSans-56"/>
      <use x="222.65625" xlink:href="#DejaVuSans-55"/>
      <use x="286.279297" xlink:href="#DejaVuSans-51"/>
     </g>
    </g>
    <g id="line2d_70"/>
    <g id="line2d_71"/>
    <g id="text_33">
     <!-- 0.9927 -->
     <g transform="translate(252.571172 60.441094)scale(0.13 -0.13)">
      <use xlink:href="#DejaVuSans-48"/>
      <use x="63.623047" xlink:href="#DejaVuSans-46"/>
      <use x="95.410156" xlink:href="#DejaVuSans-57"/>
      <use x="159.033203" xlink:href="#DejaVuSans-57"/>
      <use x="222.65625" xlink:href="#DejaVuSans-50"/>
      <use x="286.279297" xlink:href="#DejaVuSans-55"/>
     </g>
    </g>
    <g id="line2d_72"/>
    <g id="line2d_73"/>
    <g id="text_34">
     <!-- 0.9928 -->
     <g transform="translate(252.571172 79.522656)scale(0.13 -0.13)">
      <use xlink:href="#DejaVuSans-48"/>
      <use x="63.623047" xlink:href="#DejaVuSans-46"/>
      <use x="95.410156" xlink:href="#DejaVuSans-57"/>
      <use x="159.033203" xlink:href="#DejaVuSans-57"/>
      <use x="222.65625" xlink:href="#DejaVuSans-50"/>
      <use x="286.279297" xlink:href="#DejaVuSans-56"/>
     </g>
    </g>
    <g id="line2d_74"/>
    <g id="line2d_75"/>
    <g id="text_35">
     <!-- 0.9919 -->
     <g transform="translate(252.571172 98.604219)scale(0.13 -0.13)">
      <use xlink:href="#DejaVuSans-48"/>
      <use x="63.623047" xlink:href="#DejaVuSans-46"/>
      <use x="95.410156" xlink:href="#DejaVuSans-57"/>
      <use x="159.033203" xlink:href="#DejaVuSans-57"/>
      <use x="222.65625" xlink:href="#DejaVuSans-49"/>
      <use x="286.279297" xlink:href="#DejaVuSans-57"/>
     </g>
    </g>
    <g id="line2d_76">
     <path d="M 311.090586 17.727969 
L 337.090586 17.727969 
" style="fill:none;stroke:#0077bb;stroke-dasharray:3.2,0.8,0.5,0.8;stroke-dashoffset:0;stroke-width:0.5;"/>
    </g>
    <g id="line2d_77">
     <g>
      <use style="fill:#0077bb;stroke:#0077bb;stroke-linejoin:miter;" x="324.090586" xlink:href="#m762168ecf1" y="17.727969"/>
     </g>
    </g>
    <g id="text_36">
     <!-- NUOB2 -->
     <g transform="translate(347.490586 22.277969)scale(0.13 -0.13)">
      <use xlink:href="#DejaVuSans-78"/>
      <use x="74.804688" xlink:href="#DejaVuSans-85"/>
      <use x="147.998047" xlink:href="#DejaVuSans-79"/>
      <use x="226.708984" xlink:href="#DejaVuSans-66"/>
      <use x="295.3125" xlink:href="#DejaVuSans-50"/>
     </g>
    </g>
    <g id="line2d_78"/>
    <g id="line2d_79"/>
    <g id="text_37">
     <!-- 0.9915 -->
     <g transform="translate(347.490586 41.359531)scale(0.13 -0.13)">
      <use xlink:href="#DejaVuSans-48"/>
      <use x="63.623047" xlink:href="#DejaVuSans-46"/>
      <use x="95.410156" xlink:href="#DejaVuSans-57"/>
      <use x="159.033203" xlink:href="#DejaVuSans-57"/>
      <use x="222.65625" xlink:href="#DejaVuSans-49"/>
      <use x="286.279297" xlink:href="#DejaVuSans-53"/>
     </g>
    </g>
    <g id="line2d_80"/>
    <g id="line2d_81"/>
    <g id="text_38">
     <!-- 0.9882 -->
     <g transform="translate(347.490586 60.441094)scale(0.13 -0.13)">
      <use xlink:href="#DejaVuSans-48"/>
      <use x="63.623047" xlink:href="#DejaVuSans-46"/>
      <use x="95.410156" xlink:href="#DejaVuSans-57"/>
      <use x="159.033203" xlink:href="#DejaVuSans-56"/>
      <use x="222.65625" xlink:href="#DejaVuSans-56"/>
      <use x="286.279297" xlink:href="#DejaVuSans-50"/>
     </g>
    </g>
    <g id="line2d_82"/>
    <g id="line2d_83"/>
    <g id="text_39">
     <!-- 0.9900 -->
     <g transform="translate(347.490586 79.522656)scale(0.13 -0.13)">
      <use xlink:href="#DejaVuSans-48"/>
      <use x="63.623047" xlink:href="#DejaVuSans-46"/>
      <use x="95.410156" xlink:href="#DejaVuSans-57"/>
      <use x="159.033203" xlink:href="#DejaVuSans-57"/>
      <use x="222.65625" xlink:href="#DejaVuSans-48"/>
      <use x="286.279297" xlink:href="#DejaVuSans-48"/>
     </g>
    </g>
    <g id="line2d_84"/>
    <g id="line2d_85"/>
    <g id="text_40">
     <!-- 0.9936 -->
     <g transform="translate(347.490586 98.604219)scale(0.13 -0.13)">
      <use xlink:href="#DejaVuSans-48"/>
      <use x="63.623047" xlink:href="#DejaVuSans-46"/>
      <use x="95.410156" xlink:href="#DejaVuSans-57"/>
      <use x="159.033203" xlink:href="#DejaVuSans-57"/>
      <use x="222.65625" xlink:href="#DejaVuSans-51"/>
      <use x="286.279297" xlink:href="#DejaVuSans-54"/>
     </g>
    </g>
    <g id="line2d_86">
     <path d="M 407.186094 17.727969 
L 433.186094 17.727969 
" style="fill:none;stroke:#ee7733;stroke-dasharray:0.5,0.825;stroke-dashoffset:0;stroke-width:0.5;"/>
    </g>
    <g id="line2d_87">
     <g>
      <use style="fill:#ee7733;stroke:#ee7733;stroke-linejoin:bevel;" x="420.186094" xlink:href="#m212db27ff1" y="17.727969"/>
     </g>
    </g>
    <g id="text_41">
     <!-- NUOB3 -->
     <g transform="translate(443.586094 22.277969)scale(0.13 -0.13)">
      <use xlink:href="#DejaVuSans-78"/>
      <use x="74.804688" xlink:href="#DejaVuSans-85"/>
      <use x="147.998047" xlink:href="#DejaVuSans-79"/>
      <use x="226.708984" xlink:href="#DejaVuSans-66"/>
      <use x="295.3125" xlink:href="#DejaVuSans-51"/>
     </g>
    </g>
    <g id="line2d_88"/>
    <g id="line2d_89"/>
    <g id="text_42">
     <!-- 0.9915 -->
     <g transform="translate(443.586094 41.359531)scale(0.13 -0.13)">
      <use xlink:href="#DejaVuSans-48"/>
      <use x="63.623047" xlink:href="#DejaVuSans-46"/>
      <use x="95.410156" xlink:href="#DejaVuSans-57"/>
      <use x="159.033203" xlink:href="#DejaVuSans-57"/>
      <use x="222.65625" xlink:href="#DejaVuSans-49"/>
      <use x="286.279297" xlink:href="#DejaVuSans-53"/>
     </g>
    </g>
    <g id="line2d_90"/>
    <g id="line2d_91"/>
    <g id="text_43">
     <!-- 0.9878 -->
     <g transform="translate(443.586094 60.441094)scale(0.13 -0.13)">
      <use xlink:href="#DejaVuSans-48"/>
      <use x="63.623047" xlink:href="#DejaVuSans-46"/>
      <use x="95.410156" xlink:href="#DejaVuSans-57"/>
      <use x="159.033203" xlink:href="#DejaVuSans-56"/>
      <use x="222.65625" xlink:href="#DejaVuSans-55"/>
      <use x="286.279297" xlink:href="#DejaVuSans-56"/>
     </g>
    </g>
    <g id="line2d_92"/>
    <g id="line2d_93"/>
    <g id="text_44">
     <!-- 0.9896 -->
     <g transform="translate(443.586094 79.522656)scale(0.13 -0.13)">
      <use xlink:href="#DejaVuSans-48"/>
      <use x="63.623047" xlink:href="#DejaVuSans-46"/>
      <use x="95.410156" xlink:href="#DejaVuSans-57"/>
      <use x="159.033203" xlink:href="#DejaVuSans-56"/>
      <use x="222.65625" xlink:href="#DejaVuSans-57"/>
      <use x="286.279297" xlink:href="#DejaVuSans-54"/>
     </g>
    </g>
    <g id="line2d_94"/>
    <g id="line2d_95"/>
    <g id="text_45">
     <!-- 0.9938 -->
     <g transform="translate(443.586094 98.604219)scale(0.13 -0.13)">
      <use xlink:href="#DejaVuSans-48"/>
      <use x="63.623047" xlink:href="#DejaVuSans-46"/>
      <use x="95.410156" xlink:href="#DejaVuSans-57"/>
      <use x="159.033203" xlink:href="#DejaVuSans-57"/>
      <use x="222.65625" xlink:href="#DejaVuSans-51"/>
      <use x="286.279297" xlink:href="#DejaVuSans-56"/>
     </g>
    </g>
   </g>
  </g>
 </g>
 <defs>
  <clipPath id="p214774c0c1">
   <rect height="277.2" width="390.6" x="104.85" y="112.051812"/>
  </clipPath>
 </defs>
</svg>
