<?xml version="1.0" encoding="utf-8" standalone="no"?>
<!DOCTYPE svg PUBLIC "-//W3C//DTD SVG 1.1//EN"
  "http://www.w3.org/Graphics/SVG/1.1/DTD/svg11.dtd">
<!-- Created with matplotlib (https://matplotlib.org/) -->
<svg height="432.614937pt" version="1.1" viewBox="0 0 502.65 432.614937" width="502.65pt" xmlns="http://www.w3.org/2000/svg" xmlns:xlink="http://www.w3.org/1999/xlink">
 <metadata>
  <rdf:RDF xmlns:cc="http://creativecommons.org/ns#" xmlns:dc="http://purl.org/dc/elements/1.1/" xmlns:rdf="http://www.w3.org/1999/02/22-rdf-syntax-ns#">
   <cc:Work>
    <dc:type rdf:resource="http://purl.org/dc/dcmitype/StillImage"/>
    <dc:date>2022-06-16T22:15:16.460352</dc:date>
    <dc:format>image/svg+xml</dc:format>
    <dc:creator>
     <cc:Agent>
      <dc:title>Matplotlib v3.3.3, https://matplotlib.org/</dc:title>
     </cc:Agent>
    </dc:creator>
   </cc:Work>
  </rdf:RDF>
 </metadata>
 <defs>
  <style type="text/css">*{stroke-linecap:butt;stroke-linejoin:round;}</style>
 </defs>
 <g id="figure_1">
  <g id="patch_1">
   <path d="M 0 432.614937 
L 502.65 432.614937 
L 502.65 0 
L 0 0 
z
" style="fill:#ffffff;"/>
  </g>
  <g id="axes_1">
   <g id="patch_2">
    <path d="M 104.85 389.251812 
L 495.45 389.251812 
L 495.45 112.051812 
L 104.85 112.051812 
z
" style="fill:#ffffff;"/>
   </g>
   <g id="matplotlib.axis_1">
    <g id="xtick_1">
     <g id="line2d_1">
      <defs>
       <path d="M 0 0 
L 0 3.5 
" id="m890680d383" style="stroke:#000000;stroke-width:0.8;"/>
      </defs>
      <g>
       <use style="stroke:#000000;stroke-width:0.8;" x="117.19707" xlink:href="#m890680d383" y="389.251812"/>
      </g>
     </g>
     <g id="text_1">
      <!-- 0 -->
      <g transform="translate(113.061445 406.129781)scale(0.13 -0.13)">
       <defs>
        <path d="M 31.78125 66.40625 
Q 24.171875 66.40625 20.328125 58.90625 
Q 16.5 51.421875 16.5 36.375 
Q 16.5 21.390625 20.328125 13.890625 
Q 24.171875 6.390625 31.78125 6.390625 
Q 39.453125 6.390625 43.28125 13.890625 
Q 47.125 21.390625 47.125 36.375 
Q 47.125 51.421875 43.28125 58.90625 
Q 39.453125 66.40625 31.78125 66.40625 
z
M 31.78125 74.21875 
Q 44.046875 74.21875 50.515625 64.515625 
Q 56.984375 54.828125 56.984375 36.375 
Q 56.984375 17.96875 50.515625 8.265625 
Q 44.046875 -1.421875 31.78125 -1.421875 
Q 19.53125 -1.421875 13.0625 8.265625 
Q 6.59375 17.96875 6.59375 36.375 
Q 6.59375 54.828125 13.0625 64.515625 
Q 19.53125 74.21875 31.78125 74.21875 
z
" id="DejaVuSans-48"/>
       </defs>
       <use xlink:href="#DejaVuSans-48"/>
      </g>
     </g>
    </g>
    <g id="xtick_2">
     <g id="line2d_2">
      <g>
       <use style="stroke:#000000;stroke-width:0.8;" x="162.259368" xlink:href="#m890680d383" y="389.251812"/>
      </g>
     </g>
     <g id="text_2">
      <!-- 25 -->
      <g transform="translate(153.988118 406.129781)scale(0.13 -0.13)">
       <defs>
        <path d="M 19.1875 8.296875 
L 53.609375 8.296875 
L 53.609375 0 
L 7.328125 0 
L 7.328125 8.296875 
Q 12.9375 14.109375 22.625 23.890625 
Q 32.328125 33.6875 34.8125 36.53125 
Q 39.546875 41.84375 41.421875 45.53125 
Q 43.3125 49.21875 43.3125 52.78125 
Q 43.3125 58.59375 39.234375 62.25 
Q 35.15625 65.921875 28.609375 65.921875 
Q 23.96875 65.921875 18.8125 64.3125 
Q 13.671875 62.703125 7.8125 59.421875 
L 7.8125 69.390625 
Q 13.765625 71.78125 18.9375 73 
Q 24.125 74.21875 28.421875 74.21875 
Q 39.75 74.21875 46.484375 68.546875 
Q 53.21875 62.890625 53.21875 53.421875 
Q 53.21875 48.921875 51.53125 44.890625 
Q 49.859375 40.875 45.40625 35.40625 
Q 44.1875 33.984375 37.640625 27.21875 
Q 31.109375 20.453125 19.1875 8.296875 
z
" id="DejaVuSans-50"/>
        <path d="M 10.796875 72.90625 
L 49.515625 72.90625 
L 49.515625 64.59375 
L 19.828125 64.59375 
L 19.828125 46.734375 
Q 21.96875 47.46875 24.109375 47.828125 
Q 26.265625 48.1875 28.421875 48.1875 
Q 40.625 48.1875 47.75 41.5 
Q 54.890625 34.8125 54.890625 23.390625 
Q 54.890625 11.625 47.5625 5.09375 
Q 40.234375 -1.421875 26.90625 -1.421875 
Q 22.3125 -1.421875 17.546875 -0.640625 
Q 12.796875 0.140625 7.71875 1.703125 
L 7.71875 11.625 
Q 12.109375 9.234375 16.796875 8.0625 
Q 21.484375 6.890625 26.703125 6.890625 
Q 35.15625 6.890625 40.078125 11.328125 
Q 45.015625 15.765625 45.015625 23.390625 
Q 45.015625 31 40.078125 35.4375 
Q 35.15625 39.890625 26.703125 39.890625 
Q 22.75 39.890625 18.8125 39.015625 
Q 14.890625 38.140625 10.796875 36.28125 
z
" id="DejaVuSans-53"/>
       </defs>
       <use xlink:href="#DejaVuSans-50"/>
       <use x="63.623047" xlink:href="#DejaVuSans-53"/>
      </g>
     </g>
    </g>
    <g id="xtick_3">
     <g id="line2d_3">
      <g>
       <use style="stroke:#000000;stroke-width:0.8;" x="207.321666" xlink:href="#m890680d383" y="389.251812"/>
      </g>
     </g>
     <g id="text_3">
      <!-- 50 -->
      <g transform="translate(199.050416 406.129781)scale(0.13 -0.13)">
       <use xlink:href="#DejaVuSans-53"/>
       <use x="63.623047" xlink:href="#DejaVuSans-48"/>
      </g>
     </g>
    </g>
    <g id="xtick_4">
     <g id="line2d_4">
      <g>
       <use style="stroke:#000000;stroke-width:0.8;" x="252.383964" xlink:href="#m890680d383" y="389.251812"/>
      </g>
     </g>
     <g id="text_4">
      <!-- 75 -->
      <g transform="translate(244.112714 406.129781)scale(0.13 -0.13)">
       <defs>
        <path d="M 8.203125 72.90625 
L 55.078125 72.90625 
L 55.078125 68.703125 
L 28.609375 0 
L 18.3125 0 
L 43.21875 64.59375 
L 8.203125 64.59375 
z
" id="DejaVuSans-55"/>
       </defs>
       <use xlink:href="#DejaVuSans-55"/>
       <use x="63.623047" xlink:href="#DejaVuSans-53"/>
      </g>
     </g>
    </g>
    <g id="xtick_5">
     <g id="line2d_5">
      <g>
       <use style="stroke:#000000;stroke-width:0.8;" x="297.446262" xlink:href="#m890680d383" y="389.251812"/>
      </g>
     </g>
     <g id="text_5">
      <!-- 100 -->
      <g transform="translate(285.039387 406.129781)scale(0.13 -0.13)">
       <defs>
        <path d="M 12.40625 8.296875 
L 28.515625 8.296875 
L 28.515625 63.921875 
L 10.984375 60.40625 
L 10.984375 69.390625 
L 28.421875 72.90625 
L 38.28125 72.90625 
L 38.28125 8.296875 
L 54.390625 8.296875 
L 54.390625 0 
L 12.40625 0 
z
" id="DejaVuSans-49"/>
       </defs>
       <use xlink:href="#DejaVuSans-49"/>
       <use x="63.623047" xlink:href="#DejaVuSans-48"/>
       <use x="127.246094" xlink:href="#DejaVuSans-48"/>
      </g>
     </g>
    </g>
    <g id="xtick_6">
     <g id="line2d_6">
      <g>
       <use style="stroke:#000000;stroke-width:0.8;" x="342.50856" xlink:href="#m890680d383" y="389.251812"/>
      </g>
     </g>
     <g id="text_6">
      <!-- 125 -->
      <g transform="translate(330.101685 406.129781)scale(0.13 -0.13)">
       <use xlink:href="#DejaVuSans-49"/>
       <use x="63.623047" xlink:href="#DejaVuSans-50"/>
       <use x="127.246094" xlink:href="#DejaVuSans-53"/>
      </g>
     </g>
    </g>
    <g id="xtick_7">
     <g id="line2d_7">
      <g>
       <use style="stroke:#000000;stroke-width:0.8;" x="387.570858" xlink:href="#m890680d383" y="389.251812"/>
      </g>
     </g>
     <g id="text_7">
      <!-- 150 -->
      <g transform="translate(375.163983 406.129781)scale(0.13 -0.13)">
       <use xlink:href="#DejaVuSans-49"/>
       <use x="63.623047" xlink:href="#DejaVuSans-53"/>
       <use x="127.246094" xlink:href="#DejaVuSans-48"/>
      </g>
     </g>
    </g>
    <g id="xtick_8">
     <g id="line2d_8">
      <g>
       <use style="stroke:#000000;stroke-width:0.8;" x="432.633156" xlink:href="#m890680d383" y="389.251812"/>
      </g>
     </g>
     <g id="text_8">
      <!-- 175 -->
      <g transform="translate(420.226281 406.129781)scale(0.13 -0.13)">
       <use xlink:href="#DejaVuSans-49"/>
       <use x="63.623047" xlink:href="#DejaVuSans-55"/>
       <use x="127.246094" xlink:href="#DejaVuSans-53"/>
      </g>
     </g>
    </g>
    <g id="xtick_9">
     <g id="line2d_9">
      <g>
       <use style="stroke:#000000;stroke-width:0.8;" x="477.695455" xlink:href="#m890680d383" y="389.251812"/>
      </g>
     </g>
     <g id="text_9">
      <!-- 200 -->
      <g transform="translate(465.28858 406.129781)scale(0.13 -0.13)">
       <use xlink:href="#DejaVuSans-50"/>
       <use x="63.623047" xlink:href="#DejaVuSans-48"/>
       <use x="127.246094" xlink:href="#DejaVuSans-48"/>
      </g>
     </g>
    </g>
    <g id="text_10">
     <!-- Number of processed instances [x1000] -->
     <g transform="translate(170.025078 422.711344)scale(0.13 -0.13)">
      <defs>
       <path d="M 9.8125 72.90625 
L 23.09375 72.90625 
L 55.421875 11.921875 
L 55.421875 72.90625 
L 64.984375 72.90625 
L 64.984375 0 
L 51.703125 0 
L 19.390625 60.984375 
L 19.390625 0 
L 9.8125 0 
z
" id="DejaVuSans-78"/>
       <path d="M 8.5 21.578125 
L 8.5 54.6875 
L 17.484375 54.6875 
L 17.484375 21.921875 
Q 17.484375 14.15625 20.5 10.265625 
Q 23.53125 6.390625 29.59375 6.390625 
Q 36.859375 6.390625 41.078125 11.03125 
Q 45.3125 15.671875 45.3125 23.6875 
L 45.3125 54.6875 
L 54.296875 54.6875 
L 54.296875 0 
L 45.3125 0 
L 45.3125 8.40625 
Q 42.046875 3.421875 37.71875 1 
Q 33.40625 -1.421875 27.6875 -1.421875 
Q 18.265625 -1.421875 13.375 4.4375 
Q 8.5 10.296875 8.5 21.578125 
z
M 31.109375 56 
z
" id="DejaVuSans-117"/>
       <path d="M 52 44.1875 
Q 55.375 50.25 60.0625 53.125 
Q 64.75 56 71.09375 56 
Q 79.640625 56 84.28125 50.015625 
Q 88.921875 44.046875 88.921875 33.015625 
L 88.921875 0 
L 79.890625 0 
L 79.890625 32.71875 
Q 79.890625 40.578125 77.09375 44.375 
Q 74.3125 48.1875 68.609375 48.1875 
Q 61.625 48.1875 57.5625 43.546875 
Q 53.515625 38.921875 53.515625 30.90625 
L 53.515625 0 
L 44.484375 0 
L 44.484375 32.71875 
Q 44.484375 40.625 41.703125 44.40625 
Q 38.921875 48.1875 33.109375 48.1875 
Q 26.21875 48.1875 22.15625 43.53125 
Q 18.109375 38.875 18.109375 30.90625 
L 18.109375 0 
L 9.078125 0 
L 9.078125 54.6875 
L 18.109375 54.6875 
L 18.109375 46.1875 
Q 21.1875 51.21875 25.484375 53.609375 
Q 29.78125 56 35.6875 56 
Q 41.65625 56 45.828125 52.96875 
Q 50 49.953125 52 44.1875 
z
" id="DejaVuSans-109"/>
       <path d="M 48.6875 27.296875 
Q 48.6875 37.203125 44.609375 42.84375 
Q 40.53125 48.484375 33.40625 48.484375 
Q 26.265625 48.484375 22.1875 42.84375 
Q 18.109375 37.203125 18.109375 27.296875 
Q 18.109375 17.390625 22.1875 11.75 
Q 26.265625 6.109375 33.40625 6.109375 
Q 40.53125 6.109375 44.609375 11.75 
Q 48.6875 17.390625 48.6875 27.296875 
z
M 18.109375 46.390625 
Q 20.953125 51.265625 25.265625 53.625 
Q 29.59375 56 35.59375 56 
Q 45.5625 56 51.78125 48.09375 
Q 58.015625 40.1875 58.015625 27.296875 
Q 58.015625 14.40625 51.78125 6.484375 
Q 45.5625 -1.421875 35.59375 -1.421875 
Q 29.59375 -1.421875 25.265625 0.953125 
Q 20.953125 3.328125 18.109375 8.203125 
L 18.109375 0 
L 9.078125 0 
L 9.078125 75.984375 
L 18.109375 75.984375 
z
" id="DejaVuSans-98"/>
       <path d="M 56.203125 29.59375 
L 56.203125 25.203125 
L 14.890625 25.203125 
Q 15.484375 15.921875 20.484375 11.0625 
Q 25.484375 6.203125 34.421875 6.203125 
Q 39.59375 6.203125 44.453125 7.46875 
Q 49.3125 8.734375 54.109375 11.28125 
L 54.109375 2.78125 
Q 49.265625 0.734375 44.1875 -0.34375 
Q 39.109375 -1.421875 33.890625 -1.421875 
Q 20.796875 -1.421875 13.15625 6.1875 
Q 5.515625 13.8125 5.515625 26.8125 
Q 5.515625 40.234375 12.765625 48.109375 
Q 20.015625 56 32.328125 56 
Q 43.359375 56 49.78125 48.890625 
Q 56.203125 41.796875 56.203125 29.59375 
z
M 47.21875 32.234375 
Q 47.125 39.59375 43.09375 43.984375 
Q 39.0625 48.390625 32.421875 48.390625 
Q 24.90625 48.390625 20.390625 44.140625 
Q 15.875 39.890625 15.1875 32.171875 
z
" id="DejaVuSans-101"/>
       <path d="M 41.109375 46.296875 
Q 39.59375 47.171875 37.8125 47.578125 
Q 36.03125 48 33.890625 48 
Q 26.265625 48 22.1875 43.046875 
Q 18.109375 38.09375 18.109375 28.8125 
L 18.109375 0 
L 9.078125 0 
L 9.078125 54.6875 
L 18.109375 54.6875 
L 18.109375 46.1875 
Q 20.953125 51.171875 25.484375 53.578125 
Q 30.03125 56 36.53125 56 
Q 37.453125 56 38.578125 55.875 
Q 39.703125 55.765625 41.0625 55.515625 
z
" id="DejaVuSans-114"/>
       <path id="DejaVuSans-32"/>
       <path d="M 30.609375 48.390625 
Q 23.390625 48.390625 19.1875 42.75 
Q 14.984375 37.109375 14.984375 27.296875 
Q 14.984375 17.484375 19.15625 11.84375 
Q 23.34375 6.203125 30.609375 6.203125 
Q 37.796875 6.203125 41.984375 11.859375 
Q 46.1875 17.53125 46.1875 27.296875 
Q 46.1875 37.015625 41.984375 42.703125 
Q 37.796875 48.390625 30.609375 48.390625 
z
M 30.609375 56 
Q 42.328125 56 49.015625 48.375 
Q 55.71875 40.765625 55.71875 27.296875 
Q 55.71875 13.875 49.015625 6.21875 
Q 42.328125 -1.421875 30.609375 -1.421875 
Q 18.84375 -1.421875 12.171875 6.21875 
Q 5.515625 13.875 5.515625 27.296875 
Q 5.515625 40.765625 12.171875 48.375 
Q 18.84375 56 30.609375 56 
z
" id="DejaVuSans-111"/>
       <path d="M 37.109375 75.984375 
L 37.109375 68.5 
L 28.515625 68.5 
Q 23.6875 68.5 21.796875 66.546875 
Q 19.921875 64.59375 19.921875 59.515625 
L 19.921875 54.6875 
L 34.71875 54.6875 
L 34.71875 47.703125 
L 19.921875 47.703125 
L 19.921875 0 
L 10.890625 0 
L 10.890625 47.703125 
L 2.296875 47.703125 
L 2.296875 54.6875 
L 10.890625 54.6875 
L 10.890625 58.5 
Q 10.890625 67.625 15.140625 71.796875 
Q 19.390625 75.984375 28.609375 75.984375 
z
" id="DejaVuSans-102"/>
       <path d="M 18.109375 8.203125 
L 18.109375 -20.796875 
L 9.078125 -20.796875 
L 9.078125 54.6875 
L 18.109375 54.6875 
L 18.109375 46.390625 
Q 20.953125 51.265625 25.265625 53.625 
Q 29.59375 56 35.59375 56 
Q 45.5625 56 51.78125 48.09375 
Q 58.015625 40.1875 58.015625 27.296875 
Q 58.015625 14.40625 51.78125 6.484375 
Q 45.5625 -1.421875 35.59375 -1.421875 
Q 29.59375 -1.421875 25.265625 0.953125 
Q 20.953125 3.328125 18.109375 8.203125 
z
M 48.6875 27.296875 
Q 48.6875 37.203125 44.609375 42.84375 
Q 40.53125 48.484375 33.40625 48.484375 
Q 26.265625 48.484375 22.1875 42.84375 
Q 18.109375 37.203125 18.109375 27.296875 
Q 18.109375 17.390625 22.1875 11.75 
Q 26.265625 6.109375 33.40625 6.109375 
Q 40.53125 6.109375 44.609375 11.75 
Q 48.6875 17.390625 48.6875 27.296875 
z
" id="DejaVuSans-112"/>
       <path d="M 48.78125 52.59375 
L 48.78125 44.1875 
Q 44.96875 46.296875 41.140625 47.34375 
Q 37.3125 48.390625 33.40625 48.390625 
Q 24.65625 48.390625 19.8125 42.84375 
Q 14.984375 37.3125 14.984375 27.296875 
Q 14.984375 17.28125 19.8125 11.734375 
Q 24.65625 6.203125 33.40625 6.203125 
Q 37.3125 6.203125 41.140625 7.25 
Q 44.96875 8.296875 48.78125 10.40625 
L 48.78125 2.09375 
Q 45.015625 0.34375 40.984375 -0.53125 
Q 36.96875 -1.421875 32.421875 -1.421875 
Q 20.0625 -1.421875 12.78125 6.34375 
Q 5.515625 14.109375 5.515625 27.296875 
Q 5.515625 40.671875 12.859375 48.328125 
Q 20.21875 56 33.015625 56 
Q 37.15625 56 41.109375 55.140625 
Q 45.0625 54.296875 48.78125 52.59375 
z
" id="DejaVuSans-99"/>
       <path d="M 44.28125 53.078125 
L 44.28125 44.578125 
Q 40.484375 46.53125 36.375 47.5 
Q 32.28125 48.484375 27.875 48.484375 
Q 21.1875 48.484375 17.84375 46.4375 
Q 14.5 44.390625 14.5 40.28125 
Q 14.5 37.15625 16.890625 35.375 
Q 19.28125 33.59375 26.515625 31.984375 
L 29.59375 31.296875 
Q 39.15625 29.25 43.1875 25.515625 
Q 47.21875 21.78125 47.21875 15.09375 
Q 47.21875 7.46875 41.1875 3.015625 
Q 35.15625 -1.421875 24.609375 -1.421875 
Q 20.21875 -1.421875 15.453125 -0.5625 
Q 10.6875 0.296875 5.421875 2 
L 5.421875 11.28125 
Q 10.40625 8.6875 15.234375 7.390625 
Q 20.0625 6.109375 24.8125 6.109375 
Q 31.15625 6.109375 34.5625 8.28125 
Q 37.984375 10.453125 37.984375 14.40625 
Q 37.984375 18.0625 35.515625 20.015625 
Q 33.0625 21.96875 24.703125 23.78125 
L 21.578125 24.515625 
Q 13.234375 26.265625 9.515625 29.90625 
Q 5.8125 33.546875 5.8125 39.890625 
Q 5.8125 47.609375 11.28125 51.796875 
Q 16.75 56 26.8125 56 
Q 31.78125 56 36.171875 55.265625 
Q 40.578125 54.546875 44.28125 53.078125 
z
" id="DejaVuSans-115"/>
       <path d="M 45.40625 46.390625 
L 45.40625 75.984375 
L 54.390625 75.984375 
L 54.390625 0 
L 45.40625 0 
L 45.40625 8.203125 
Q 42.578125 3.328125 38.25 0.953125 
Q 33.9375 -1.421875 27.875 -1.421875 
Q 17.96875 -1.421875 11.734375 6.484375 
Q 5.515625 14.40625 5.515625 27.296875 
Q 5.515625 40.1875 11.734375 48.09375 
Q 17.96875 56 27.875 56 
Q 33.9375 56 38.25 53.625 
Q 42.578125 51.265625 45.40625 46.390625 
z
M 14.796875 27.296875 
Q 14.796875 17.390625 18.875 11.75 
Q 22.953125 6.109375 30.078125 6.109375 
Q 37.203125 6.109375 41.296875 11.75 
Q 45.40625 17.390625 45.40625 27.296875 
Q 45.40625 37.203125 41.296875 42.84375 
Q 37.203125 48.484375 30.078125 48.484375 
Q 22.953125 48.484375 18.875 42.84375 
Q 14.796875 37.203125 14.796875 27.296875 
z
" id="DejaVuSans-100"/>
       <path d="M 9.421875 54.6875 
L 18.40625 54.6875 
L 18.40625 0 
L 9.421875 0 
z
M 9.421875 75.984375 
L 18.40625 75.984375 
L 18.40625 64.59375 
L 9.421875 64.59375 
z
" id="DejaVuSans-105"/>
       <path d="M 54.890625 33.015625 
L 54.890625 0 
L 45.90625 0 
L 45.90625 32.71875 
Q 45.90625 40.484375 42.875 44.328125 
Q 39.84375 48.1875 33.796875 48.1875 
Q 26.515625 48.1875 22.3125 43.546875 
Q 18.109375 38.921875 18.109375 30.90625 
L 18.109375 0 
L 9.078125 0 
L 9.078125 54.6875 
L 18.109375 54.6875 
L 18.109375 46.1875 
Q 21.34375 51.125 25.703125 53.5625 
Q 30.078125 56 35.796875 56 
Q 45.21875 56 50.046875 50.171875 
Q 54.890625 44.34375 54.890625 33.015625 
z
" id="DejaVuSans-110"/>
       <path d="M 18.3125 70.21875 
L 18.3125 54.6875 
L 36.8125 54.6875 
L 36.8125 47.703125 
L 18.3125 47.703125 
L 18.3125 18.015625 
Q 18.3125 11.328125 20.140625 9.421875 
Q 21.96875 7.515625 27.59375 7.515625 
L 36.8125 7.515625 
L 36.8125 0 
L 27.59375 0 
Q 17.1875 0 13.234375 3.875 
Q 9.28125 7.765625 9.28125 18.015625 
L 9.28125 47.703125 
L 2.6875 47.703125 
L 2.6875 54.6875 
L 9.28125 54.6875 
L 9.28125 70.21875 
z
" id="DejaVuSans-116"/>
       <path d="M 34.28125 27.484375 
Q 23.390625 27.484375 19.1875 25 
Q 14.984375 22.515625 14.984375 16.5 
Q 14.984375 11.71875 18.140625 8.90625 
Q 21.296875 6.109375 26.703125 6.109375 
Q 34.1875 6.109375 38.703125 11.40625 
Q 43.21875 16.703125 43.21875 25.484375 
L 43.21875 27.484375 
z
M 52.203125 31.203125 
L 52.203125 0 
L 43.21875 0 
L 43.21875 8.296875 
Q 40.140625 3.328125 35.546875 0.953125 
Q 30.953125 -1.421875 24.3125 -1.421875 
Q 15.921875 -1.421875 10.953125 3.296875 
Q 6 8.015625 6 15.921875 
Q 6 25.140625 12.171875 29.828125 
Q 18.359375 34.515625 30.609375 34.515625 
L 43.21875 34.515625 
L 43.21875 35.40625 
Q 43.21875 41.609375 39.140625 45 
Q 35.0625 48.390625 27.6875 48.390625 
Q 23 48.390625 18.546875 47.265625 
Q 14.109375 46.140625 10.015625 43.890625 
L 10.015625 52.203125 
Q 14.9375 54.109375 19.578125 55.046875 
Q 24.21875 56 28.609375 56 
Q 40.484375 56 46.34375 49.84375 
Q 52.203125 43.703125 52.203125 31.203125 
z
" id="DejaVuSans-97"/>
       <path d="M 8.59375 75.984375 
L 29.296875 75.984375 
L 29.296875 69 
L 17.578125 69 
L 17.578125 -6.203125 
L 29.296875 -6.203125 
L 29.296875 -13.1875 
L 8.59375 -13.1875 
z
" id="DejaVuSans-91"/>
       <path d="M 54.890625 54.6875 
L 35.109375 28.078125 
L 55.90625 0 
L 45.3125 0 
L 29.390625 21.484375 
L 13.484375 0 
L 2.875 0 
L 24.125 28.609375 
L 4.6875 54.6875 
L 15.28125 54.6875 
L 29.78125 35.203125 
L 44.28125 54.6875 
z
" id="DejaVuSans-120"/>
       <path d="M 30.421875 75.984375 
L 30.421875 -13.1875 
L 9.71875 -13.1875 
L 9.71875 -6.203125 
L 21.390625 -6.203125 
L 21.390625 69 
L 9.71875 69 
L 9.71875 75.984375 
z
" id="DejaVuSans-93"/>
      </defs>
      <use xlink:href="#DejaVuSans-78"/>
      <use x="74.804688" xlink:href="#DejaVuSans-117"/>
      <use x="138.183594" xlink:href="#DejaVuSans-109"/>
      <use x="235.595703" xlink:href="#DejaVuSans-98"/>
      <use x="299.072266" xlink:href="#DejaVuSans-101"/>
      <use x="360.595703" xlink:href="#DejaVuSans-114"/>
      <use x="401.708984" xlink:href="#DejaVuSans-32"/>
      <use x="433.496094" xlink:href="#DejaVuSans-111"/>
      <use x="494.677734" xlink:href="#DejaVuSans-102"/>
      <use x="529.882812" xlink:href="#DejaVuSans-32"/>
      <use x="561.669922" xlink:href="#DejaVuSans-112"/>
      <use x="625.146484" xlink:href="#DejaVuSans-114"/>
      <use x="664.009766" xlink:href="#DejaVuSans-111"/>
      <use x="725.191406" xlink:href="#DejaVuSans-99"/>
      <use x="780.171875" xlink:href="#DejaVuSans-101"/>
      <use x="841.695312" xlink:href="#DejaVuSans-115"/>
      <use x="893.794922" xlink:href="#DejaVuSans-115"/>
      <use x="945.894531" xlink:href="#DejaVuSans-101"/>
      <use x="1007.417969" xlink:href="#DejaVuSans-100"/>
      <use x="1070.894531" xlink:href="#DejaVuSans-32"/>
      <use x="1102.681641" xlink:href="#DejaVuSans-105"/>
      <use x="1130.464844" xlink:href="#DejaVuSans-110"/>
      <use x="1193.84375" xlink:href="#DejaVuSans-115"/>
      <use x="1245.943359" xlink:href="#DejaVuSans-116"/>
      <use x="1285.152344" xlink:href="#DejaVuSans-97"/>
      <use x="1346.431641" xlink:href="#DejaVuSans-110"/>
      <use x="1409.810547" xlink:href="#DejaVuSans-99"/>
      <use x="1464.791016" xlink:href="#DejaVuSans-101"/>
      <use x="1526.314453" xlink:href="#DejaVuSans-115"/>
      <use x="1578.414062" xlink:href="#DejaVuSans-32"/>
      <use x="1610.201172" xlink:href="#DejaVuSans-91"/>
      <use x="1649.214844" xlink:href="#DejaVuSans-120"/>
      <use x="1708.394531" xlink:href="#DejaVuSans-49"/>
      <use x="1772.017578" xlink:href="#DejaVuSans-48"/>
      <use x="1835.640625" xlink:href="#DejaVuSans-48"/>
      <use x="1899.263672" xlink:href="#DejaVuSans-48"/>
      <use x="1962.886719" xlink:href="#DejaVuSans-93"/>
     </g>
    </g>
   </g>
   <g id="matplotlib.axis_2">
    <g id="ytick_1">
     <g id="line2d_10">
      <defs>
       <path d="M 0 0 
L -3.5 0 
" id="m679d7001be" style="stroke:#000000;stroke-width:0.8;"/>
      </defs>
      <g>
       <use style="stroke:#000000;stroke-width:0.8;" x="104.85" xlink:href="#m679d7001be" y="376.651813"/>
      </g>
     </g>
     <g id="text_11">
      <!-- 0.0 -->
      <g transform="translate(77.175937 381.590797)scale(0.13 -0.13)">
       <defs>
        <path d="M 10.6875 12.40625 
L 21 12.40625 
L 21 0 
L 10.6875 0 
z
" id="DejaVuSans-46"/>
       </defs>
       <use xlink:href="#DejaVuSans-48"/>
       <use x="63.623047" xlink:href="#DejaVuSans-46"/>
       <use x="95.410156" xlink:href="#DejaVuSans-48"/>
      </g>
     </g>
    </g>
    <g id="ytick_2">
     <g id="line2d_11">
      <g>
       <use style="stroke:#000000;stroke-width:0.8;" x="104.85" xlink:href="#m679d7001be" y="319.116529"/>
      </g>
     </g>
     <g id="text_12">
      <!-- 0.2 -->
      <g transform="translate(77.175937 324.055513)scale(0.13 -0.13)">
       <use xlink:href="#DejaVuSans-48"/>
       <use x="63.623047" xlink:href="#DejaVuSans-46"/>
       <use x="95.410156" xlink:href="#DejaVuSans-50"/>
      </g>
     </g>
    </g>
    <g id="ytick_3">
     <g id="line2d_12">
      <g>
       <use style="stroke:#000000;stroke-width:0.8;" x="104.85" xlink:href="#m679d7001be" y="261.581245"/>
      </g>
     </g>
     <g id="text_13">
      <!-- 0.4 -->
      <g transform="translate(77.175937 266.520229)scale(0.13 -0.13)">
       <defs>
        <path d="M 37.796875 64.3125 
L 12.890625 25.390625 
L 37.796875 25.390625 
z
M 35.203125 72.90625 
L 47.609375 72.90625 
L 47.609375 25.390625 
L 58.015625 25.390625 
L 58.015625 17.1875 
L 47.609375 17.1875 
L 47.609375 0 
L 37.796875 0 
L 37.796875 17.1875 
L 4.890625 17.1875 
L 4.890625 26.703125 
z
" id="DejaVuSans-52"/>
       </defs>
       <use xlink:href="#DejaVuSans-48"/>
       <use x="63.623047" xlink:href="#DejaVuSans-46"/>
       <use x="95.410156" xlink:href="#DejaVuSans-52"/>
      </g>
     </g>
    </g>
    <g id="ytick_4">
     <g id="line2d_13">
      <g>
       <use style="stroke:#000000;stroke-width:0.8;" x="104.85" xlink:href="#m679d7001be" y="204.045961"/>
      </g>
     </g>
     <g id="text_14">
      <!-- 0.6 -->
      <g transform="translate(77.175937 208.984945)scale(0.13 -0.13)">
       <defs>
        <path d="M 33.015625 40.375 
Q 26.375 40.375 22.484375 35.828125 
Q 18.609375 31.296875 18.609375 23.390625 
Q 18.609375 15.53125 22.484375 10.953125 
Q 26.375 6.390625 33.015625 6.390625 
Q 39.65625 6.390625 43.53125 10.953125 
Q 47.40625 15.53125 47.40625 23.390625 
Q 47.40625 31.296875 43.53125 35.828125 
Q 39.65625 40.375 33.015625 40.375 
z
M 52.59375 71.296875 
L 52.59375 62.3125 
Q 48.875 64.0625 45.09375 64.984375 
Q 41.3125 65.921875 37.59375 65.921875 
Q 27.828125 65.921875 22.671875 59.328125 
Q 17.53125 52.734375 16.796875 39.40625 
Q 19.671875 43.65625 24.015625 45.921875 
Q 28.375 48.1875 33.59375 48.1875 
Q 44.578125 48.1875 50.953125 41.515625 
Q 57.328125 34.859375 57.328125 23.390625 
Q 57.328125 12.15625 50.6875 5.359375 
Q 44.046875 -1.421875 33.015625 -1.421875 
Q 20.359375 -1.421875 13.671875 8.265625 
Q 6.984375 17.96875 6.984375 36.375 
Q 6.984375 53.65625 15.1875 63.9375 
Q 23.390625 74.21875 37.203125 74.21875 
Q 40.921875 74.21875 44.703125 73.484375 
Q 48.484375 72.75 52.59375 71.296875 
z
" id="DejaVuSans-54"/>
       </defs>
       <use xlink:href="#DejaVuSans-48"/>
       <use x="63.623047" xlink:href="#DejaVuSans-46"/>
       <use x="95.410156" xlink:href="#DejaVuSans-54"/>
      </g>
     </g>
    </g>
    <g id="ytick_5">
     <g id="line2d_14">
      <g>
       <use style="stroke:#000000;stroke-width:0.8;" x="104.85" xlink:href="#m679d7001be" y="146.510677"/>
      </g>
     </g>
     <g id="text_15">
      <!-- 0.8 -->
      <g transform="translate(77.175937 151.449661)scale(0.13 -0.13)">
       <defs>
        <path d="M 31.78125 34.625 
Q 24.75 34.625 20.71875 30.859375 
Q 16.703125 27.09375 16.703125 20.515625 
Q 16.703125 13.921875 20.71875 10.15625 
Q 24.75 6.390625 31.78125 6.390625 
Q 38.8125 6.390625 42.859375 10.171875 
Q 46.921875 13.96875 46.921875 20.515625 
Q 46.921875 27.09375 42.890625 30.859375 
Q 38.875 34.625 31.78125 34.625 
z
M 21.921875 38.8125 
Q 15.578125 40.375 12.03125 44.71875 
Q 8.5 49.078125 8.5 55.328125 
Q 8.5 64.0625 14.71875 69.140625 
Q 20.953125 74.21875 31.78125 74.21875 
Q 42.671875 74.21875 48.875 69.140625 
Q 55.078125 64.0625 55.078125 55.328125 
Q 55.078125 49.078125 51.53125 44.71875 
Q 48 40.375 41.703125 38.8125 
Q 48.828125 37.15625 52.796875 32.3125 
Q 56.78125 27.484375 56.78125 20.515625 
Q 56.78125 9.90625 50.3125 4.234375 
Q 43.84375 -1.421875 31.78125 -1.421875 
Q 19.734375 -1.421875 13.25 4.234375 
Q 6.78125 9.90625 6.78125 20.515625 
Q 6.78125 27.484375 10.78125 32.3125 
Q 14.796875 37.15625 21.921875 38.8125 
z
M 18.3125 54.390625 
Q 18.3125 48.734375 21.84375 45.5625 
Q 25.390625 42.390625 31.78125 42.390625 
Q 38.140625 42.390625 41.71875 45.5625 
Q 45.3125 48.734375 45.3125 54.390625 
Q 45.3125 60.0625 41.71875 63.234375 
Q 38.140625 66.40625 31.78125 66.40625 
Q 25.390625 66.40625 21.84375 63.234375 
Q 18.3125 60.0625 18.3125 54.390625 
z
" id="DejaVuSans-56"/>
       </defs>
       <use xlink:href="#DejaVuSans-48"/>
       <use x="63.623047" xlink:href="#DejaVuSans-46"/>
       <use x="95.410156" xlink:href="#DejaVuSans-56"/>
      </g>
     </g>
    </g>
    <g id="text_16">
     <!-- G-Mean -->
     <g transform="translate(70.472344 275.743844)rotate(-90)scale(0.13 -0.13)">
      <defs>
       <path d="M 59.515625 10.40625 
L 59.515625 29.984375 
L 43.40625 29.984375 
L 43.40625 38.09375 
L 69.28125 38.09375 
L 69.28125 6.78125 
Q 63.578125 2.734375 56.6875 0.65625 
Q 49.8125 -1.421875 42 -1.421875 
Q 24.90625 -1.421875 15.25 8.5625 
Q 5.609375 18.5625 5.609375 36.375 
Q 5.609375 54.25 15.25 64.234375 
Q 24.90625 74.21875 42 74.21875 
Q 49.125 74.21875 55.546875 72.453125 
Q 61.96875 70.703125 67.390625 67.28125 
L 67.390625 56.78125 
Q 61.921875 61.421875 55.765625 63.765625 
Q 49.609375 66.109375 42.828125 66.109375 
Q 29.4375 66.109375 22.71875 58.640625 
Q 16.015625 51.171875 16.015625 36.375 
Q 16.015625 21.625 22.71875 14.15625 
Q 29.4375 6.6875 42.828125 6.6875 
Q 48.046875 6.6875 52.140625 7.59375 
Q 56.25 8.5 59.515625 10.40625 
z
" id="DejaVuSans-71"/>
       <path d="M 4.890625 31.390625 
L 31.203125 31.390625 
L 31.203125 23.390625 
L 4.890625 23.390625 
z
" id="DejaVuSans-45"/>
       <path d="M 9.8125 72.90625 
L 24.515625 72.90625 
L 43.109375 23.296875 
L 61.8125 72.90625 
L 76.515625 72.90625 
L 76.515625 0 
L 66.890625 0 
L 66.890625 64.015625 
L 48.09375 14.015625 
L 38.1875 14.015625 
L 19.390625 64.015625 
L 19.390625 0 
L 9.8125 0 
z
" id="DejaVuSans-77"/>
      </defs>
      <use xlink:href="#DejaVuSans-71"/>
      <use x="77.490234" xlink:href="#DejaVuSans-45"/>
      <use x="113.574219" xlink:href="#DejaVuSans-77"/>
      <use x="199.853516" xlink:href="#DejaVuSans-101"/>
      <use x="261.376953" xlink:href="#DejaVuSans-97"/>
      <use x="322.65625" xlink:href="#DejaVuSans-110"/>
     </g>
    </g>
   </g>
   <g id="line2d_15"/>
   <g id="line2d_16"/>
   <g id="line2d_17"/>
   <g id="line2d_18"/>
   <g id="line2d_19"/>
   <g id="line2d_20">
    <path clip-path="url(#pf1c2c6d13c)" d="M 122.604545 376.651813 
L 126.209529 334.494212 
L 128.012021 308.23105 
L 129.814513 293.341249 
L 131.617005 282.585779 
L 133.419497 274.119134 
L 135.221989 277.128191 
L 137.024481 273.422091 
L 138.826973 266.436073 
L 140.629465 262.387679 
L 142.431957 259.007862 
L 144.234449 257.074507 
L 146.03694 253.772067 
L 147.839432 249.744809 
L 149.641924 246.932112 
L 151.444416 243.406013 
L 153.246908 240.208193 
L 156.851892 234.587742 
L 158.654384 225.740197 
L 160.456876 219.239383 
L 162.259368 213.950887 
L 164.06186 212.532424 
L 165.864352 210.222632 
L 169.469335 204.988629 
L 171.271827 199.033809 
L 173.074319 195.519682 
L 174.876811 193.68762 
L 176.679303 191.445399 
L 178.481795 189.69884 
L 180.284287 186.976788 
L 182.086779 185.679245 
L 183.889271 185.503279 
L 185.691763 184.446636 
L 187.494255 184.550566 
L 189.296747 182.693739 
L 191.099239 181.472776 
L 192.901731 181.838793 
L 194.704222 179.754264 
L 196.506714 178.210246 
L 198.309206 177.822346 
L 200.111698 175.451884 
L 203.716682 174.397067 
L 205.519174 175.03051 
L 207.321666 175.182576 
L 210.92665 175.72329 
L 212.729142 175.359446 
L 214.531634 173.983921 
L 216.334126 173.357723 
L 218.136617 172.525563 
L 219.939109 171.31837 
L 221.741601 170.327523 
L 223.544093 168.529344 
L 225.346585 169.01115 
L 227.149077 169.749263 
L 228.951569 168.153564 
L 230.754061 169.142404 
L 232.556553 169.039097 
L 234.359045 168.792625 
L 236.161537 169.877402 
L 237.964029 169.242111 
L 239.766521 169.190056 
L 241.569012 167.873948 
L 243.371504 167.950699 
L 245.173996 167.171142 
L 246.976488 166.882696 
L 248.77898 166.26021 
L 250.581472 165.959184 
L 252.383964 165.779468 
L 254.186456 165.114245 
L 255.988948 164.838033 
L 257.79144 165.658404 
L 259.593932 165.075206 
L 261.396424 164.287921 
L 263.198916 163.31716 
L 265.001407 163.519678 
L 266.803899 163.360099 
L 268.606391 162.703531 
L 270.408883 162.560362 
L 272.211375 161.437542 
L 274.013867 160.946262 
L 275.816359 161.06981 
L 277.618851 161.056356 
L 279.421343 160.251245 
L 281.223835 160.20533 
L 283.026327 159.707042 
L 284.828819 159.567743 
L 286.631311 159.863584 
L 288.433802 159.184205 
L 290.236294 158.995408 
L 292.038786 159.774978 
L 293.841278 158.510879 
L 297.446262 160.782558 
L 299.248754 160.648828 
L 301.051246 160.837724 
L 304.65623 159.317004 
L 306.458722 158.627974 
L 310.063706 159.295689 
L 311.866198 159.265507 
L 313.668689 158.715914 
L 315.471181 157.439346 
L 317.273673 156.901602 
L 319.076165 157.289603 
L 320.878657 157.46654 
L 322.681149 157.00889 
L 324.483641 156.790764 
L 326.286133 156.819305 
L 328.088625 155.918971 
L 329.891117 155.612986 
L 331.693609 155.100152 
L 333.496101 154.825609 
L 335.298593 154.698449 
L 337.101084 153.270616 
L 338.903576 152.630499 
L 340.706068 153.525615 
L 342.50856 152.8137 
L 344.311052 152.710005 
L 346.113544 152.329352 
L 347.916036 151.74595 
L 349.718528 152.386839 
L 353.323512 153.044055 
L 356.928496 152.91161 
L 358.730988 153.323352 
L 360.533479 154.045669 
L 362.335971 154.431918 
L 364.138463 153.759429 
L 365.940955 154.575788 
L 367.743447 154.826162 
L 369.545939 154.400348 
L 371.348431 154.297587 
L 373.150923 155.058094 
L 374.953415 155.229968 
L 376.755907 154.437031 
L 378.558399 155.601227 
L 380.360891 155.644779 
L 382.163383 155.970327 
L 383.965874 155.199141 
L 385.768366 154.669104 
L 387.570858 155.424955 
L 389.37335 155.549988 
L 391.175842 154.913641 
L 392.978334 154.713033 
L 394.780826 154.724346 
L 396.583318 153.115907 
L 398.38581 152.92031 
L 400.188302 153.656836 
L 403.793286 154.866631 
L 405.595778 154.851172 
L 407.398269 155.931345 
L 409.200761 155.56449 
L 412.805745 156.718498 
L 414.608237 157.305462 
L 416.410729 156.252314 
L 418.213221 156.455325 
L 421.818205 156.718865 
L 425.423189 154.790052 
L 427.225681 155.063348 
L 429.028173 154.94955 
L 430.830665 155.29181 
L 432.633156 156.942561 
L 434.435648 156.480661 
L 436.23814 156.294729 
L 439.843124 152.874229 
L 441.645616 152.657292 
L 443.448108 151.459243 
L 445.2506 151.651877 
L 447.053092 151.560837 
L 448.855584 151.828772 
L 450.658076 150.924659 
L 452.460568 151.994857 
L 454.26306 151.551263 
L 456.065551 152.672967 
L 459.670535 155.323119 
L 461.473027 156.214203 
L 463.275519 155.904026 
L 466.880503 155.738034 
L 468.682995 156.411862 
L 470.485487 157.31063 
L 472.287979 156.534407 
L 474.090471 157.242177 
L 475.892963 158.405605 
L 477.695455 158.716024 
L 477.695455 158.716024 
" style="fill:none;stroke:#cc3311;stroke-linecap:square;stroke-width:0.5;"/>
    <defs>
     <path d="M 0 2.5 
C 0.663008 2.5 1.29895 2.236584 1.767767 1.767767 
C 2.236584 1.29895 2.5 0.663008 2.5 0 
C 2.5 -0.663008 2.236584 -1.29895 1.767767 -1.767767 
C 1.29895 -2.236584 0.663008 -2.5 0 -2.5 
C -0.663008 -2.5 -1.29895 -2.236584 -1.767767 -1.767767 
C -2.236584 -1.29895 -2.5 -0.663008 -2.5 0 
C -2.5 0.663008 -2.236584 1.29895 -1.767767 1.767767 
C -1.29895 2.236584 -0.663008 2.5 0 2.5 
z
" id="md7e09cc25d" style="stroke:#cc3311;"/>
    </defs>
    <g clip-path="url(#pf1c2c6d13c)">
     <use style="fill:#cc3311;stroke:#cc3311;" x="122.604545" xlink:href="#md7e09cc25d" y="376.651813"/>
     <use style="fill:#cc3311;stroke:#cc3311;" x="140.629465" xlink:href="#md7e09cc25d" y="262.387679"/>
     <use style="fill:#cc3311;stroke:#cc3311;" x="158.654384" xlink:href="#md7e09cc25d" y="225.740197"/>
     <use style="fill:#cc3311;stroke:#cc3311;" x="176.679303" xlink:href="#md7e09cc25d" y="191.445399"/>
     <use style="fill:#cc3311;stroke:#cc3311;" x="194.704222" xlink:href="#md7e09cc25d" y="179.754264"/>
     <use style="fill:#cc3311;stroke:#cc3311;" x="212.729142" xlink:href="#md7e09cc25d" y="175.359446"/>
     <use style="fill:#cc3311;stroke:#cc3311;" x="230.754061" xlink:href="#md7e09cc25d" y="169.142404"/>
     <use style="fill:#cc3311;stroke:#cc3311;" x="248.77898" xlink:href="#md7e09cc25d" y="166.26021"/>
     <use style="fill:#cc3311;stroke:#cc3311;" x="266.803899" xlink:href="#md7e09cc25d" y="163.360099"/>
     <use style="fill:#cc3311;stroke:#cc3311;" x="284.828819" xlink:href="#md7e09cc25d" y="159.567743"/>
     <use style="fill:#cc3311;stroke:#cc3311;" x="302.853738" xlink:href="#md7e09cc25d" y="160.042175"/>
     <use style="fill:#cc3311;stroke:#cc3311;" x="320.878657" xlink:href="#md7e09cc25d" y="157.46654"/>
     <use style="fill:#cc3311;stroke:#cc3311;" x="338.903576" xlink:href="#md7e09cc25d" y="152.630499"/>
     <use style="fill:#cc3311;stroke:#cc3311;" x="356.928496" xlink:href="#md7e09cc25d" y="152.91161"/>
     <use style="fill:#cc3311;stroke:#cc3311;" x="374.953415" xlink:href="#md7e09cc25d" y="155.229968"/>
     <use style="fill:#cc3311;stroke:#cc3311;" x="392.978334" xlink:href="#md7e09cc25d" y="154.713033"/>
     <use style="fill:#cc3311;stroke:#cc3311;" x="411.003253" xlink:href="#md7e09cc25d" y="156.089401"/>
     <use style="fill:#cc3311;stroke:#cc3311;" x="429.028173" xlink:href="#md7e09cc25d" y="154.94955"/>
     <use style="fill:#cc3311;stroke:#cc3311;" x="447.053092" xlink:href="#md7e09cc25d" y="151.560837"/>
     <use style="fill:#cc3311;stroke:#cc3311;" x="465.078011" xlink:href="#md7e09cc25d" y="155.855831"/>
    </g>
   </g>
   <g id="line2d_21"/>
   <g id="line2d_22"/>
   <g id="line2d_23"/>
   <g id="line2d_24"/>
   <g id="line2d_25">
    <path clip-path="url(#pf1c2c6d13c)" d="M 122.604545 156.747181 
L 124.407037 150.402126 
L 126.209529 152.526218 
L 128.012021 152.322607 
L 129.814513 151.781278 
L 131.617005 150.981914 
L 133.419497 150.789884 
L 135.221989 151.241178 
L 137.024481 151.462125 
L 138.826973 152.589861 
L 140.629465 152.048768 
L 142.431957 152.155199 
L 144.234449 152.806907 
L 146.03694 152.814238 
L 147.839432 153.127479 
L 149.641924 152.244768 
L 151.444416 150.313183 
L 153.246908 149.45116 
L 155.0494 149.148111 
L 156.851892 148.636776 
L 158.654384 147.777368 
L 160.456876 147.715914 
L 162.259368 146.898568 
L 164.06186 145.925314 
L 165.864352 146.148716 
L 169.469335 145.352541 
L 173.074319 144.220889 
L 174.876811 142.818138 
L 176.679303 142.921046 
L 178.481795 142.12737 
L 180.284287 140.774637 
L 182.086779 140.757081 
L 183.889271 139.783956 
L 185.691763 139.824161 
L 187.494255 141.470316 
L 191.099239 141.438115 
L 192.901731 142.169778 
L 194.704222 141.984074 
L 196.506714 142.131256 
L 198.309206 142.418618 
L 200.111698 142.951893 
L 201.91419 142.804934 
L 203.716682 143.103259 
L 205.519174 143.18245 
L 207.321666 143.744163 
L 209.124158 144.534108 
L 210.92665 144.57923 
L 212.729142 143.825459 
L 214.531634 143.47479 
L 216.334126 143.934412 
L 218.136617 142.661312 
L 219.939109 143.632767 
L 221.741601 143.674629 
L 223.544093 143.342476 
L 227.149077 143.241044 
L 228.951569 142.694335 
L 230.754061 143.491043 
L 234.359045 143.909158 
L 236.161537 144.44409 
L 237.964029 143.335472 
L 239.766521 143.200863 
L 243.371504 143.147181 
L 246.976488 142.760496 
L 248.77898 143.261691 
L 250.581472 143.946991 
L 252.383964 144.342479 
L 254.186456 144.908205 
L 255.988948 144.169648 
L 257.79144 145.126308 
L 259.593932 144.389454 
L 261.396424 144.843437 
L 263.198916 144.556912 
L 266.803899 144.573826 
L 268.606391 143.855264 
L 272.211375 142.847098 
L 275.816359 143.889227 
L 277.618851 144.168419 
L 279.421343 144.124287 
L 281.223835 143.801756 
L 283.026327 144.191441 
L 284.828819 144.126038 
L 286.631311 144.458796 
L 288.433802 143.814426 
L 290.236294 143.689822 
L 292.038786 144.187257 
L 293.841278 143.195081 
L 295.64377 143.867362 
L 297.446262 144.12736 
L 299.248754 144.712674 
L 302.853738 143.70656 
L 304.65623 143.627158 
L 306.458722 143.861023 
L 308.261214 143.185403 
L 310.063706 143.59782 
L 311.866198 143.101734 
L 313.668689 142.36901 
L 315.471181 141.273574 
L 317.273673 140.608171 
L 319.076165 141.06434 
L 322.681149 139.524365 
L 326.286133 140.303238 
L 328.088625 139.331391 
L 329.891117 139.286724 
L 331.693609 139.588874 
L 333.496101 139.636337 
L 335.298593 139.098923 
L 337.101084 139.32424 
L 338.903576 138.937331 
L 340.706068 139.259633 
L 342.50856 138.931155 
L 344.311052 139.658996 
L 346.113544 139.101385 
L 349.718528 139.039253 
L 353.323512 140.209811 
L 355.126004 140.537589 
L 356.928496 141.136692 
L 358.730988 141.475509 
L 360.533479 141.046251 
L 365.940955 141.059678 
L 367.743447 140.714799 
L 369.545939 140.101361 
L 374.953415 140.284411 
L 376.755907 139.754667 
L 378.558399 140.47886 
L 380.360891 140.630771 
L 382.163383 140.504035 
L 383.965874 140.256121 
L 385.768366 140.618393 
L 389.37335 140.649472 
L 391.175842 140.214445 
L 392.978334 140.565306 
L 394.780826 140.758057 
L 396.583318 140.059635 
L 398.38581 139.934939 
L 401.990794 140.904474 
L 405.595778 141.271473 
L 407.398269 141.828331 
L 409.200761 141.256373 
L 411.003253 141.675232 
L 412.805745 142.50986 
L 414.608237 142.009244 
L 416.410729 141.273287 
L 427.225681 140.271225 
L 429.028173 139.754599 
L 430.830665 139.649532 
L 432.633156 140.906595 
L 434.435648 140.547605 
L 436.23814 140.560184 
L 439.843124 139.12913 
L 441.645616 138.666814 
L 443.448108 137.960945 
L 445.2506 138.662805 
L 447.053092 138.652373 
L 448.855584 138.920725 
L 450.658076 139.37269 
L 452.460568 139.475824 
L 454.26306 140.132441 
L 456.065551 140.454109 
L 459.670535 141.768797 
L 461.473027 141.378259 
L 463.275519 140.762917 
L 468.682995 140.284818 
L 470.485487 140.219173 
L 472.287979 139.692917 
L 474.090471 140.074991 
L 475.892963 140.305874 
L 477.695455 140.8185 
L 477.695455 140.8185 
" style="fill:none;stroke:#009988;stroke-dasharray:1.85,0.8;stroke-dashoffset:0;stroke-width:0.5;"/>
    <defs>
     <path d="M -2.5 2.5 
L 2.5 2.5 
L 2.5 -2.5 
L -2.5 -2.5 
z
" id="m0a74629727" style="stroke:#009988;stroke-linejoin:miter;"/>
    </defs>
    <g clip-path="url(#pf1c2c6d13c)">
     <use style="fill:#009988;stroke:#009988;stroke-linejoin:miter;" x="122.604545" xlink:href="#m0a74629727" y="156.747181"/>
     <use style="fill:#009988;stroke:#009988;stroke-linejoin:miter;" x="140.629465" xlink:href="#m0a74629727" y="152.048768"/>
     <use style="fill:#009988;stroke:#009988;stroke-linejoin:miter;" x="158.654384" xlink:href="#m0a74629727" y="147.777368"/>
     <use style="fill:#009988;stroke:#009988;stroke-linejoin:miter;" x="176.679303" xlink:href="#m0a74629727" y="142.921046"/>
     <use style="fill:#009988;stroke:#009988;stroke-linejoin:miter;" x="194.704222" xlink:href="#m0a74629727" y="141.984074"/>
     <use style="fill:#009988;stroke:#009988;stroke-linejoin:miter;" x="212.729142" xlink:href="#m0a74629727" y="143.825459"/>
     <use style="fill:#009988;stroke:#009988;stroke-linejoin:miter;" x="230.754061" xlink:href="#m0a74629727" y="143.491043"/>
     <use style="fill:#009988;stroke:#009988;stroke-linejoin:miter;" x="248.77898" xlink:href="#m0a74629727" y="143.261691"/>
     <use style="fill:#009988;stroke:#009988;stroke-linejoin:miter;" x="266.803899" xlink:href="#m0a74629727" y="144.573826"/>
     <use style="fill:#009988;stroke:#009988;stroke-linejoin:miter;" x="284.828819" xlink:href="#m0a74629727" y="144.126038"/>
     <use style="fill:#009988;stroke:#009988;stroke-linejoin:miter;" x="302.853738" xlink:href="#m0a74629727" y="143.70656"/>
     <use style="fill:#009988;stroke:#009988;stroke-linejoin:miter;" x="320.878657" xlink:href="#m0a74629727" y="140.353591"/>
     <use style="fill:#009988;stroke:#009988;stroke-linejoin:miter;" x="338.903576" xlink:href="#m0a74629727" y="138.937331"/>
     <use style="fill:#009988;stroke:#009988;stroke-linejoin:miter;" x="356.928496" xlink:href="#m0a74629727" y="141.136692"/>
     <use style="fill:#009988;stroke:#009988;stroke-linejoin:miter;" x="374.953415" xlink:href="#m0a74629727" y="140.284411"/>
     <use style="fill:#009988;stroke:#009988;stroke-linejoin:miter;" x="392.978334" xlink:href="#m0a74629727" y="140.565306"/>
     <use style="fill:#009988;stroke:#009988;stroke-linejoin:miter;" x="411.003253" xlink:href="#m0a74629727" y="141.675232"/>
     <use style="fill:#009988;stroke:#009988;stroke-linejoin:miter;" x="429.028173" xlink:href="#m0a74629727" y="139.754599"/>
     <use style="fill:#009988;stroke:#009988;stroke-linejoin:miter;" x="447.053092" xlink:href="#m0a74629727" y="138.652373"/>
     <use style="fill:#009988;stroke:#009988;stroke-linejoin:miter;" x="465.078011" xlink:href="#m0a74629727" y="140.590002"/>
    </g>
   </g>
   <g id="line2d_26"/>
   <g id="line2d_27"/>
   <g id="line2d_28"/>
   <g id="line2d_29"/>
   <g id="line2d_30">
    <path clip-path="url(#pf1c2c6d13c)" d="M 122.604545 170.147269 
L 124.407037 158.718881 
L 126.209529 159.2721 
L 128.012021 155.649029 
L 129.814513 156.894342 
L 131.617005 154.855298 
L 133.419497 153.520674 
L 135.221989 154.780839 
L 137.024481 153.76702 
L 138.826973 153.635077 
L 140.629465 154.462634 
L 142.431957 155.008821 
L 144.234449 154.802939 
L 146.03694 154.279656 
L 147.839432 154.21248 
L 149.641924 153.276394 
L 151.444416 151.625167 
L 153.246908 150.846025 
L 156.851892 150.252693 
L 158.654384 149.614698 
L 160.456876 149.822688 
L 162.259368 148.972534 
L 164.06186 148.845974 
L 165.864352 148.266264 
L 167.666844 148.060604 
L 169.469335 147.648859 
L 171.271827 146.236177 
L 173.074319 145.924487 
L 174.876811 144.767896 
L 176.679303 144.313882 
L 178.481795 143.34865 
L 180.284287 142.635856 
L 182.086779 142.825501 
L 183.889271 142.745902 
L 185.691763 142.90889 
L 187.494255 144.20728 
L 189.296747 144.044001 
L 191.099239 143.7142 
L 192.901731 144.539111 
L 194.704222 143.352225 
L 196.506714 143.087131 
L 198.309206 143.625881 
L 200.111698 143.659968 
L 201.91419 143.453132 
L 203.716682 143.800983 
L 205.519174 144.267411 
L 209.124158 146.851885 
L 210.92665 147.498677 
L 212.729142 146.953068 
L 214.531634 146.83745 
L 216.334126 147.048686 
L 218.136617 146.483815 
L 219.939109 146.463156 
L 221.741601 146.982522 
L 223.544093 146.442891 
L 225.346585 146.349928 
L 227.149077 146.690213 
L 228.951569 145.636897 
L 230.754061 146.874454 
L 232.556553 147.058301 
L 234.359045 146.949402 
L 236.161537 147.601686 
L 237.964029 147.155267 
L 241.569012 146.920489 
L 243.371504 146.36255 
L 245.173996 145.979436 
L 246.976488 146.146296 
L 248.77898 145.993778 
L 250.581472 146.404452 
L 254.186456 146.660899 
L 255.988948 146.055025 
L 257.79144 146.554221 
L 259.593932 145.825632 
L 261.396424 146.099369 
L 263.198916 145.761364 
L 265.001407 145.913872 
L 266.803899 145.640271 
L 268.606391 145.010468 
L 272.211375 144.004639 
L 274.013867 144.091295 
L 275.816359 144.330993 
L 277.618851 144.706097 
L 279.421343 144.792574 
L 283.026327 144.004145 
L 284.828819 144.367835 
L 288.433802 144.217837 
L 290.236294 143.905417 
L 292.038786 144.750629 
L 293.841278 143.429552 
L 295.64377 144.529311 
L 299.248754 145.286876 
L 301.051246 145.173205 
L 302.853738 144.647858 
L 304.65623 144.308329 
L 306.458722 144.540787 
L 308.261214 144.046518 
L 310.063706 144.554623 
L 311.866198 144.655401 
L 313.668689 143.852574 
L 315.471181 142.63632 
L 317.273673 142.078936 
L 319.076165 142.490431 
L 320.878657 142.119776 
L 322.681149 141.294921 
L 324.483641 141.120269 
L 326.286133 141.1315 
L 328.088625 140.670537 
L 333.496101 141.182251 
L 337.101084 140.639009 
L 338.903576 140.281805 
L 340.706068 141.256056 
L 342.50856 140.47974 
L 344.311052 141.243528 
L 346.113544 140.812583 
L 347.916036 140.665753 
L 349.718528 140.801248 
L 351.52102 141.53017 
L 353.323512 141.666254 
L 355.126004 142.104236 
L 356.928496 142.265108 
L 358.730988 142.908794 
L 360.533479 142.995964 
L 362.335971 143.319636 
L 364.138463 142.368681 
L 365.940955 143.248178 
L 367.743447 142.893002 
L 369.545939 142.665266 
L 371.348431 142.635878 
L 373.150923 142.900903 
L 374.953415 143.047614 
L 376.755907 142.290264 
L 378.558399 143.16893 
L 380.360891 143.153626 
L 382.163383 143.538068 
L 383.965874 142.969152 
L 385.768366 142.697412 
L 387.570858 143.263188 
L 389.37335 144.070278 
L 391.175842 143.804923 
L 392.978334 143.790436 
L 394.780826 144.090818 
L 396.583318 142.871775 
L 398.38581 143.019086 
L 400.188302 144.155895 
L 403.793286 144.863661 
L 405.595778 144.998347 
L 407.398269 145.602697 
L 409.200761 145.036736 
L 411.003253 145.588121 
L 412.805745 146.270493 
L 414.608237 147.11666 
L 416.410729 146.010026 
L 418.213221 146.187915 
L 420.015713 145.917193 
L 421.818205 146.377275 
L 425.423189 144.728949 
L 429.028173 144.199165 
L 430.830665 144.287008 
L 432.633156 145.779982 
L 436.23814 144.960187 
L 438.040632 143.347685 
L 439.843124 142.461376 
L 441.645616 141.883383 
L 443.448108 141.076713 
L 445.2506 141.693699 
L 447.053092 141.500373 
L 448.855584 141.622554 
L 450.658076 140.899001 
L 452.460568 141.56052 
L 454.26306 141.381822 
L 457.868043 142.690956 
L 459.670535 143.742073 
L 463.275519 142.722509 
L 465.078011 142.764464 
L 466.880503 142.480866 
L 468.682995 142.414956 
L 470.485487 142.937096 
L 472.287979 142.32083 
L 474.090471 142.930803 
L 475.892963 143.731421 
L 477.695455 144.105597 
L 477.695455 144.105597 
" style="fill:none;stroke:#0077bb;stroke-dasharray:3.2,0.8,0.5,0.8;stroke-dashoffset:0;stroke-width:0.5;"/>
    <defs>
     <path d="M 0 -2.5 
L -2.5 2.5 
L 2.5 2.5 
z
" id="m3cb30de8ce" style="stroke:#0077bb;stroke-linejoin:miter;"/>
    </defs>
    <g clip-path="url(#pf1c2c6d13c)">
     <use style="fill:#0077bb;stroke:#0077bb;stroke-linejoin:miter;" x="122.604545" xlink:href="#m3cb30de8ce" y="170.147269"/>
     <use style="fill:#0077bb;stroke:#0077bb;stroke-linejoin:miter;" x="140.629465" xlink:href="#m3cb30de8ce" y="154.462634"/>
     <use style="fill:#0077bb;stroke:#0077bb;stroke-linejoin:miter;" x="158.654384" xlink:href="#m3cb30de8ce" y="149.614698"/>
     <use style="fill:#0077bb;stroke:#0077bb;stroke-linejoin:miter;" x="176.679303" xlink:href="#m3cb30de8ce" y="144.313882"/>
     <use style="fill:#0077bb;stroke:#0077bb;stroke-linejoin:miter;" x="194.704222" xlink:href="#m3cb30de8ce" y="143.352225"/>
     <use style="fill:#0077bb;stroke:#0077bb;stroke-linejoin:miter;" x="212.729142" xlink:href="#m3cb30de8ce" y="146.953068"/>
     <use style="fill:#0077bb;stroke:#0077bb;stroke-linejoin:miter;" x="230.754061" xlink:href="#m3cb30de8ce" y="146.874454"/>
     <use style="fill:#0077bb;stroke:#0077bb;stroke-linejoin:miter;" x="248.77898" xlink:href="#m3cb30de8ce" y="145.993778"/>
     <use style="fill:#0077bb;stroke:#0077bb;stroke-linejoin:miter;" x="266.803899" xlink:href="#m3cb30de8ce" y="145.640271"/>
     <use style="fill:#0077bb;stroke:#0077bb;stroke-linejoin:miter;" x="284.828819" xlink:href="#m3cb30de8ce" y="144.367835"/>
     <use style="fill:#0077bb;stroke:#0077bb;stroke-linejoin:miter;" x="302.853738" xlink:href="#m3cb30de8ce" y="144.647858"/>
     <use style="fill:#0077bb;stroke:#0077bb;stroke-linejoin:miter;" x="320.878657" xlink:href="#m3cb30de8ce" y="142.119776"/>
     <use style="fill:#0077bb;stroke:#0077bb;stroke-linejoin:miter;" x="338.903576" xlink:href="#m3cb30de8ce" y="140.281805"/>
     <use style="fill:#0077bb;stroke:#0077bb;stroke-linejoin:miter;" x="356.928496" xlink:href="#m3cb30de8ce" y="142.265108"/>
     <use style="fill:#0077bb;stroke:#0077bb;stroke-linejoin:miter;" x="374.953415" xlink:href="#m3cb30de8ce" y="143.047614"/>
     <use style="fill:#0077bb;stroke:#0077bb;stroke-linejoin:miter;" x="392.978334" xlink:href="#m3cb30de8ce" y="143.790436"/>
     <use style="fill:#0077bb;stroke:#0077bb;stroke-linejoin:miter;" x="411.003253" xlink:href="#m3cb30de8ce" y="145.588121"/>
     <use style="fill:#0077bb;stroke:#0077bb;stroke-linejoin:miter;" x="429.028173" xlink:href="#m3cb30de8ce" y="144.199165"/>
     <use style="fill:#0077bb;stroke:#0077bb;stroke-linejoin:miter;" x="447.053092" xlink:href="#m3cb30de8ce" y="141.500373"/>
     <use style="fill:#0077bb;stroke:#0077bb;stroke-linejoin:miter;" x="465.078011" xlink:href="#m3cb30de8ce" y="142.764464"/>
    </g>
   </g>
   <g id="line2d_31"/>
   <g id="line2d_32"/>
   <g id="line2d_33"/>
   <g id="line2d_34"/>
   <g id="line2d_35">
    <path clip-path="url(#pf1c2c6d13c)" d="M 122.604545 160.843338 
L 124.407037 155.722236 
L 126.209529 156.843561 
L 128.012021 156.992807 
L 129.814513 156.178421 
L 133.419497 154.985821 
L 135.221989 155.428979 
L 137.024481 155.639817 
L 138.826973 156.502567 
L 140.629465 155.790586 
L 142.431957 156.01806 
L 144.234449 156.540513 
L 146.03694 156.561665 
L 147.839432 156.839885 
L 149.641924 156.324031 
L 151.444416 154.499816 
L 153.246908 153.621182 
L 155.0494 153.280113 
L 156.851892 152.674282 
L 158.654384 151.755987 
L 160.456876 151.364441 
L 162.259368 150.659693 
L 164.06186 149.513778 
L 165.864352 149.681692 
L 169.469335 148.839944 
L 173.074319 147.418262 
L 174.876811 145.867652 
L 176.679303 145.976273 
L 178.481795 145.103647 
L 180.284287 143.786436 
L 182.086779 143.767403 
L 183.889271 142.720235 
L 185.691763 142.321686 
L 187.494255 143.641622 
L 191.099239 143.495289 
L 192.901731 144.044793 
L 194.704222 143.669037 
L 200.111698 144.515992 
L 201.91419 144.211599 
L 203.716682 144.458283 
L 205.519174 144.566237 
L 207.321666 145.341687 
L 209.124158 145.960279 
L 210.92665 145.957991 
L 212.729142 145.258836 
L 214.531634 144.942397 
L 216.334126 145.46178 
L 218.136617 144.081198 
L 219.939109 145.02139 
L 221.741601 145.122206 
L 223.544093 144.973621 
L 225.346585 145.062293 
L 227.149077 144.850277 
L 228.951569 144.179215 
L 230.754061 145.016785 
L 232.556553 145.10484 
L 234.359045 145.074095 
L 236.161537 145.607552 
L 237.964029 144.699554 
L 239.766521 144.190367 
L 241.569012 144.113316 
L 243.371504 143.696365 
L 246.976488 143.228048 
L 248.77898 143.617752 
L 252.383964 144.107053 
L 254.186456 144.462372 
L 255.988948 143.667469 
L 257.79144 144.371991 
L 259.593932 143.626849 
L 261.396424 144.064604 
L 263.198916 143.780921 
L 265.001407 143.830237 
L 266.803899 143.697455 
L 268.606391 142.961787 
L 270.408883 142.651755 
L 272.211375 142.116173 
L 274.013867 142.564809 
L 275.816359 143.20796 
L 277.618851 143.458729 
L 279.421343 143.426725 
L 281.223835 142.883629 
L 283.026327 143.404214 
L 284.828819 143.29595 
L 286.631311 143.807114 
L 288.433802 143.275926 
L 290.236294 143.311097 
L 292.038786 143.871424 
L 293.841278 143.139832 
L 295.64377 143.608326 
L 297.446262 143.670502 
L 299.248754 144.188812 
L 301.051246 143.584739 
L 302.853738 143.146336 
L 306.458722 143.526738 
L 308.261214 142.929032 
L 310.063706 143.294118 
L 311.866198 142.48244 
L 313.668689 141.983591 
L 315.471181 141.037534 
L 317.273673 140.562069 
L 319.076165 140.7398 
L 322.681149 139.325824 
L 324.483641 139.709306 
L 326.286133 139.910966 
L 328.088625 138.883609 
L 329.891117 138.804938 
L 333.496101 139.101424 
L 335.298593 138.867801 
L 337.101084 139.489299 
L 338.903576 139.164533 
L 340.706068 139.419681 
L 342.50856 138.841592 
L 344.311052 139.365006 
L 346.113544 138.774113 
L 347.916036 139.263661 
L 349.718528 139.078846 
L 351.52102 139.687826 
L 353.323512 140.645753 
L 355.126004 141.399083 
L 356.928496 141.9472 
L 358.730988 142.261016 
L 360.533479 141.713501 
L 364.138463 141.696967 
L 365.940955 141.430127 
L 367.743447 141.312814 
L 369.545939 140.57267 
L 373.150923 140.220222 
L 374.953415 140.159607 
L 376.755907 139.598893 
L 378.558399 140.372174 
L 380.360891 140.689362 
L 382.163383 140.58093 
L 383.965874 140.212559 
L 385.768366 140.435736 
L 389.37335 140.17572 
L 391.175842 139.565036 
L 392.978334 140.146163 
L 394.780826 140.332141 
L 396.583318 139.680607 
L 400.188302 140.097685 
L 401.990794 140.750275 
L 403.793286 140.795476 
L 407.398269 141.195489 
L 409.200761 140.694626 
L 411.003253 141.238043 
L 412.805745 141.946625 
L 414.608237 141.461561 
L 416.410729 140.699853 
L 420.015713 140.067762 
L 421.818205 140.205204 
L 423.620697 140.141257 
L 427.225681 139.638117 
L 429.028173 138.85813 
L 430.830665 138.825468 
L 432.633156 139.741728 
L 434.435648 139.250755 
L 436.23814 139.492204 
L 438.040632 138.653913 
L 439.843124 137.983375 
L 443.448108 137.178555 
L 445.2506 138.006526 
L 447.053092 137.943639 
L 448.855584 138.252519 
L 450.658076 138.964881 
L 452.460568 138.937253 
L 454.26306 139.654894 
L 456.065551 140.093261 
L 457.868043 140.7616 
L 459.670535 141.211743 
L 461.473027 140.638601 
L 463.275519 140.215263 
L 465.078011 140.206489 
L 466.880503 140.02907 
L 468.682995 140.065792 
L 470.485487 139.959787 
L 472.287979 139.560328 
L 474.090471 140.283866 
L 475.892963 140.574907 
L 477.695455 141.048678 
L 477.695455 141.048678 
" style="fill:none;stroke:#ee7733;stroke-dasharray:0.5,0.825;stroke-dashoffset:0;stroke-width:0.5;"/>
    <defs>
     <path d="M 0 -2.5 
L -0.561285 -0.772542 
L -2.377641 -0.772542 
L -0.908178 0.295085 
L -1.469463 2.022542 
L -0 0.954915 
L 1.469463 2.022542 
L 0.908178 0.295085 
L 2.377641 -0.772542 
L 0.561285 -0.772542 
z
" id="mc6abea0138" style="stroke:#ee7733;stroke-linejoin:bevel;"/>
    </defs>
    <g clip-path="url(#pf1c2c6d13c)">
     <use style="fill:#ee7733;stroke:#ee7733;stroke-linejoin:bevel;" x="122.604545" xlink:href="#mc6abea0138" y="160.843338"/>
     <use style="fill:#ee7733;stroke:#ee7733;stroke-linejoin:bevel;" x="140.629465" xlink:href="#mc6abea0138" y="155.790586"/>
     <use style="fill:#ee7733;stroke:#ee7733;stroke-linejoin:bevel;" x="158.654384" xlink:href="#mc6abea0138" y="151.755987"/>
     <use style="fill:#ee7733;stroke:#ee7733;stroke-linejoin:bevel;" x="176.679303" xlink:href="#mc6abea0138" y="145.976273"/>
     <use style="fill:#ee7733;stroke:#ee7733;stroke-linejoin:bevel;" x="194.704222" xlink:href="#mc6abea0138" y="143.669037"/>
     <use style="fill:#ee7733;stroke:#ee7733;stroke-linejoin:bevel;" x="212.729142" xlink:href="#mc6abea0138" y="145.258836"/>
     <use style="fill:#ee7733;stroke:#ee7733;stroke-linejoin:bevel;" x="230.754061" xlink:href="#mc6abea0138" y="145.016785"/>
     <use style="fill:#ee7733;stroke:#ee7733;stroke-linejoin:bevel;" x="248.77898" xlink:href="#mc6abea0138" y="143.617752"/>
     <use style="fill:#ee7733;stroke:#ee7733;stroke-linejoin:bevel;" x="266.803899" xlink:href="#mc6abea0138" y="143.697455"/>
     <use style="fill:#ee7733;stroke:#ee7733;stroke-linejoin:bevel;" x="284.828819" xlink:href="#mc6abea0138" y="143.29595"/>
     <use style="fill:#ee7733;stroke:#ee7733;stroke-linejoin:bevel;" x="302.853738" xlink:href="#mc6abea0138" y="143.146336"/>
     <use style="fill:#ee7733;stroke:#ee7733;stroke-linejoin:bevel;" x="320.878657" xlink:href="#mc6abea0138" y="140.021085"/>
     <use style="fill:#ee7733;stroke:#ee7733;stroke-linejoin:bevel;" x="338.903576" xlink:href="#mc6abea0138" y="139.164533"/>
     <use style="fill:#ee7733;stroke:#ee7733;stroke-linejoin:bevel;" x="356.928496" xlink:href="#mc6abea0138" y="141.9472"/>
     <use style="fill:#ee7733;stroke:#ee7733;stroke-linejoin:bevel;" x="374.953415" xlink:href="#mc6abea0138" y="140.159607"/>
     <use style="fill:#ee7733;stroke:#ee7733;stroke-linejoin:bevel;" x="392.978334" xlink:href="#mc6abea0138" y="140.146163"/>
     <use style="fill:#ee7733;stroke:#ee7733;stroke-linejoin:bevel;" x="411.003253" xlink:href="#mc6abea0138" y="141.238043"/>
     <use style="fill:#ee7733;stroke:#ee7733;stroke-linejoin:bevel;" x="429.028173" xlink:href="#mc6abea0138" y="138.85813"/>
     <use style="fill:#ee7733;stroke:#ee7733;stroke-linejoin:bevel;" x="447.053092" xlink:href="#mc6abea0138" y="137.943639"/>
     <use style="fill:#ee7733;stroke:#ee7733;stroke-linejoin:bevel;" x="465.078011" xlink:href="#mc6abea0138" y="140.206489"/>
    </g>
   </g>
   <g id="line2d_36"/>
   <g id="line2d_37"/>
   <g id="line2d_38"/>
   <g id="line2d_39"/>
   <g id="line2d_40">
    <path clip-path="url(#pf1c2c6d13c)" d="M 122.604545 193.917171 
L 124.407037 181.858165 
L 126.209529 178.7862 
L 128.012021 174.374405 
L 129.814513 170.506083 
L 131.617005 168.223391 
L 135.221989 162.95263 
L 137.024481 160.63449 
L 138.826973 159.185324 
L 140.629465 157.229357 
L 142.431957 155.775157 
L 144.234449 154.898142 
L 146.03694 153.696342 
L 147.839432 152.64569 
L 149.641924 151.361902 
L 151.444416 149.855983 
L 153.246908 148.662512 
L 155.0494 148.061391 
L 156.851892 147.081398 
L 158.654384 144.010583 
L 160.456876 142.407117 
L 164.06186 138.384857 
L 165.864352 137.875637 
L 167.666844 136.594289 
L 169.469335 135.58332 
L 171.271827 134.863908 
L 173.074319 134.481719 
L 174.876811 133.817778 
L 176.679303 133.843728 
L 178.481795 133.188201 
L 180.284287 132.157264 
L 182.086779 132.803753 
L 183.889271 132.367969 
L 187.494255 132.860767 
L 189.296747 132.859975 
L 191.099239 132.492179 
L 192.901731 132.639868 
L 196.506714 132.02816 
L 198.309206 131.797034 
L 200.111698 132.358698 
L 201.91419 131.894783 
L 203.716682 131.857921 
L 205.519174 131.665042 
L 207.321666 132.102256 
L 209.124158 132.382653 
L 214.531634 131.675684 
L 216.334126 132.177897 
L 218.136617 130.748208 
L 219.939109 131.085314 
L 221.741601 130.496166 
L 223.544093 130.447543 
L 225.346585 130.568392 
L 228.951569 130.125293 
L 230.754061 130.599517 
L 232.556553 130.533172 
L 234.359045 130.933874 
L 236.161537 130.98415 
L 237.964029 130.80379 
L 239.766521 130.368966 
L 241.569012 130.515357 
L 243.371504 130.332722 
L 245.173996 129.980279 
L 246.976488 129.937724 
L 248.77898 130.15857 
L 250.581472 130.51142 
L 252.383964 130.595707 
L 254.186456 131.475081 
L 255.988948 131.189237 
L 257.79144 131.639726 
L 261.396424 131.137678 
L 263.198916 131.433936 
L 266.803899 131.358047 
L 268.606391 131.086937 
L 272.211375 130.859988 
L 274.013867 130.919676 
L 275.816359 131.85475 
L 277.618851 132.116889 
L 279.421343 131.779466 
L 281.223835 131.20423 
L 283.026327 130.97353 
L 284.828819 130.405273 
L 288.433802 129.974656 
L 290.236294 129.408141 
L 292.038786 129.622716 
L 295.64377 129.353313 
L 297.446262 129.637182 
L 299.248754 129.694356 
L 301.051246 129.891939 
L 302.853738 129.501673 
L 304.65623 129.381833 
L 306.458722 129.487445 
L 313.668689 126.951367 
L 315.471181 126.471238 
L 317.273673 126.216035 
L 319.076165 126.595619 
L 326.286133 125.808687 
L 328.088625 125.241049 
L 329.891117 125.002356 
L 331.693609 125.807188 
L 333.496101 126.112997 
L 335.298593 125.500911 
L 337.101084 125.446623 
L 338.903576 124.998853 
L 340.706068 125.478062 
L 342.50856 124.651813 
L 344.311052 125.576739 
L 346.113544 126.119019 
L 347.916036 126.256036 
L 349.718528 126.22984 
L 355.126004 127.748117 
L 356.928496 128.051399 
L 360.533479 128.216785 
L 362.335971 128.467456 
L 365.940955 128.421053 
L 367.743447 127.854225 
L 369.545939 127.043336 
L 371.348431 127.213886 
L 373.150923 126.853546 
L 374.953415 126.836329 
L 376.755907 126.570818 
L 378.558399 127.647854 
L 380.360891 127.061894 
L 382.163383 126.791786 
L 383.965874 126.692657 
L 387.570858 127.033032 
L 389.37335 127.170162 
L 391.175842 126.908254 
L 394.780826 127.516336 
L 398.38581 126.581495 
L 400.188302 126.710471 
L 401.990794 127.052922 
L 403.793286 127.12777 
L 405.595778 127.340454 
L 407.398269 127.903405 
L 409.200761 127.620831 
L 411.003253 127.858851 
L 412.805745 127.730577 
L 414.608237 126.901835 
L 420.015713 126.562949 
L 421.818205 126.382981 
L 425.423189 126.384389 
L 427.225681 126.681404 
L 429.028173 126.423661 
L 430.830665 126.885109 
L 432.633156 127.468843 
L 434.435648 127.79866 
L 436.23814 127.679033 
L 439.843124 126.697264 
L 441.645616 126.686058 
L 443.448108 126.396792 
L 445.2506 126.794709 
L 447.053092 127.365007 
L 448.855584 127.376652 
L 450.658076 128.193933 
L 452.460568 128.09173 
L 454.26306 128.571119 
L 459.670535 129.264747 
L 463.275519 128.381637 
L 465.078011 128.463168 
L 466.880503 127.880635 
L 470.485487 127.648811 
L 472.287979 127.466605 
L 475.892963 128.512898 
L 477.695455 128.272006 
L 477.695455 128.272006 
" style="fill:none;stroke:#ee3377;stroke-dasharray:3.2,0.8,0.5,0.8;stroke-dashoffset:0;stroke-width:0.5;"/>
    <defs>
     <path d="M -1.25 2.5 
L 0 1.25 
L 1.25 2.5 
L 2.5 1.25 
L 1.25 0 
L 2.5 -1.25 
L 1.25 -2.5 
L 0 -1.25 
L -1.25 -2.5 
L -2.5 -1.25 
L -1.25 0 
L -2.5 1.25 
z
" id="m5a8e85f84f" style="stroke:#ee3377;stroke-linejoin:miter;"/>
    </defs>
    <g clip-path="url(#pf1c2c6d13c)">
     <use style="fill:#ee3377;stroke:#ee3377;stroke-linejoin:miter;" x="122.604545" xlink:href="#m5a8e85f84f" y="193.917171"/>
     <use style="fill:#ee3377;stroke:#ee3377;stroke-linejoin:miter;" x="140.629465" xlink:href="#m5a8e85f84f" y="157.229357"/>
     <use style="fill:#ee3377;stroke:#ee3377;stroke-linejoin:miter;" x="158.654384" xlink:href="#m5a8e85f84f" y="144.010583"/>
     <use style="fill:#ee3377;stroke:#ee3377;stroke-linejoin:miter;" x="176.679303" xlink:href="#m5a8e85f84f" y="133.843728"/>
     <use style="fill:#ee3377;stroke:#ee3377;stroke-linejoin:miter;" x="194.704222" xlink:href="#m5a8e85f84f" y="132.299727"/>
     <use style="fill:#ee3377;stroke:#ee3377;stroke-linejoin:miter;" x="212.729142" xlink:href="#m5a8e85f84f" y="131.74065"/>
     <use style="fill:#ee3377;stroke:#ee3377;stroke-linejoin:miter;" x="230.754061" xlink:href="#m5a8e85f84f" y="130.599517"/>
     <use style="fill:#ee3377;stroke:#ee3377;stroke-linejoin:miter;" x="248.77898" xlink:href="#m5a8e85f84f" y="130.15857"/>
     <use style="fill:#ee3377;stroke:#ee3377;stroke-linejoin:miter;" x="266.803899" xlink:href="#m5a8e85f84f" y="131.358047"/>
     <use style="fill:#ee3377;stroke:#ee3377;stroke-linejoin:miter;" x="284.828819" xlink:href="#m5a8e85f84f" y="130.405273"/>
     <use style="fill:#ee3377;stroke:#ee3377;stroke-linejoin:miter;" x="302.853738" xlink:href="#m5a8e85f84f" y="129.501673"/>
     <use style="fill:#ee3377;stroke:#ee3377;stroke-linejoin:miter;" x="320.878657" xlink:href="#m5a8e85f84f" y="126.423893"/>
     <use style="fill:#ee3377;stroke:#ee3377;stroke-linejoin:miter;" x="338.903576" xlink:href="#m5a8e85f84f" y="124.998853"/>
     <use style="fill:#ee3377;stroke:#ee3377;stroke-linejoin:miter;" x="356.928496" xlink:href="#m5a8e85f84f" y="128.051399"/>
     <use style="fill:#ee3377;stroke:#ee3377;stroke-linejoin:miter;" x="374.953415" xlink:href="#m5a8e85f84f" y="126.836329"/>
     <use style="fill:#ee3377;stroke:#ee3377;stroke-linejoin:miter;" x="392.978334" xlink:href="#m5a8e85f84f" y="127.244392"/>
     <use style="fill:#ee3377;stroke:#ee3377;stroke-linejoin:miter;" x="411.003253" xlink:href="#m5a8e85f84f" y="127.858851"/>
     <use style="fill:#ee3377;stroke:#ee3377;stroke-linejoin:miter;" x="429.028173" xlink:href="#m5a8e85f84f" y="126.423661"/>
     <use style="fill:#ee3377;stroke:#ee3377;stroke-linejoin:miter;" x="447.053092" xlink:href="#m5a8e85f84f" y="127.365007"/>
     <use style="fill:#ee3377;stroke:#ee3377;stroke-linejoin:miter;" x="465.078011" xlink:href="#m5a8e85f84f" y="128.463168"/>
    </g>
   </g>
   <g id="line2d_41"/>
   <g id="line2d_42"/>
   <g id="line2d_43"/>
   <g id="line2d_44"/>
   <g id="patch_3">
    <path d="M 104.85 389.251813 
L 104.85 112.051813 
" style="fill:none;stroke:#000000;stroke-linecap:square;stroke-linejoin:miter;stroke-width:0.8;"/>
   </g>
   <g id="patch_4">
    <path d="M 495.45 389.251813 
L 495.45 112.051813 
" style="fill:none;stroke:#000000;stroke-linecap:square;stroke-linejoin:miter;stroke-width:0.8;"/>
   </g>
   <g id="patch_5">
    <path d="M 104.85 389.251812 
L 495.45 389.251812 
" style="fill:none;stroke:#000000;stroke-linecap:square;stroke-linejoin:miter;stroke-width:0.8;"/>
   </g>
   <g id="patch_6">
    <path d="M 104.85 112.051812 
L 495.45 112.051812 
" style="fill:none;stroke:#000000;stroke-linecap:square;stroke-linejoin:miter;stroke-width:0.8;"/>
   </g>
   <g id="legend_1">
    <g id="line2d_45"/>
    <g id="line2d_46"/>
    <g id="text_17">
     <!--   -->
     <g transform="translate(48.8 22.277969)scale(0.13 -0.13)">
      <use xlink:href="#DejaVuSans-32"/>
     </g>
    </g>
    <g id="line2d_47"/>
    <g id="line2d_48"/>
    <g id="text_18">
     <!-- start -->
     <g transform="translate(48.8 41.359531)scale(0.13 -0.13)">
      <use xlink:href="#DejaVuSans-115"/>
      <use x="52.099609" xlink:href="#DejaVuSans-116"/>
      <use x="91.308594" xlink:href="#DejaVuSans-97"/>
      <use x="152.587891" xlink:href="#DejaVuSans-114"/>
      <use x="193.701172" xlink:href="#DejaVuSans-116"/>
     </g>
    </g>
    <g id="line2d_49"/>
    <g id="line2d_50"/>
    <g id="text_19">
     <!-- pre-dirft -->
     <g transform="translate(48.8 60.441094)scale(0.13 -0.13)">
      <use xlink:href="#DejaVuSans-112"/>
      <use x="63.476562" xlink:href="#DejaVuSans-114"/>
      <use x="102.339844" xlink:href="#DejaVuSans-101"/>
      <use x="163.863281" xlink:href="#DejaVuSans-45"/>
      <use x="199.947266" xlink:href="#DejaVuSans-100"/>
      <use x="263.423828" xlink:href="#DejaVuSans-105"/>
      <use x="291.207031" xlink:href="#DejaVuSans-114"/>
      <use x="332.320312" xlink:href="#DejaVuSans-102"/>
      <use x="365.775391" xlink:href="#DejaVuSans-116"/>
     </g>
    </g>
    <g id="line2d_51"/>
    <g id="line2d_52"/>
    <g id="text_20">
     <!-- post-drift -->
     <g transform="translate(48.8 79.522656)scale(0.13 -0.13)">
      <use xlink:href="#DejaVuSans-112"/>
      <use x="63.476562" xlink:href="#DejaVuSans-111"/>
      <use x="124.658203" xlink:href="#DejaVuSans-115"/>
      <use x="176.757812" xlink:href="#DejaVuSans-116"/>
      <use x="215.966797" xlink:href="#DejaVuSans-45"/>
      <use x="252.050781" xlink:href="#DejaVuSans-100"/>
      <use x="315.527344" xlink:href="#DejaVuSans-114"/>
      <use x="356.640625" xlink:href="#DejaVuSans-105"/>
      <use x="384.423828" xlink:href="#DejaVuSans-102"/>
      <use x="417.878906" xlink:href="#DejaVuSans-116"/>
     </g>
    </g>
    <g id="line2d_53"/>
    <g id="line2d_54"/>
    <g id="text_21">
     <!-- end -->
     <g transform="translate(48.8 98.604219)scale(0.13 -0.13)">
      <use xlink:href="#DejaVuSans-101"/>
      <use x="61.523438" xlink:href="#DejaVuSans-110"/>
      <use x="124.902344" xlink:href="#DejaVuSans-100"/>
     </g>
    </g>
    <g id="line2d_55">
     <path d="M 102.738313 17.727969 
L 128.738313 17.727969 
" style="fill:none;stroke:#cc3311;stroke-linecap:square;stroke-width:0.5;"/>
    </g>
    <g id="line2d_56">
     <g>
      <use style="fill:#cc3311;stroke:#cc3311;" x="115.738313" xlink:href="#md7e09cc25d" y="17.727969"/>
     </g>
    </g>
    <g id="text_22">
     <!-- OB -->
     <g transform="translate(139.138313 22.277969)scale(0.13 -0.13)">
      <defs>
       <path d="M 39.40625 66.21875 
Q 28.65625 66.21875 22.328125 58.203125 
Q 16.015625 50.203125 16.015625 36.375 
Q 16.015625 22.609375 22.328125 14.59375 
Q 28.65625 6.59375 39.40625 6.59375 
Q 50.140625 6.59375 56.421875 14.59375 
Q 62.703125 22.609375 62.703125 36.375 
Q 62.703125 50.203125 56.421875 58.203125 
Q 50.140625 66.21875 39.40625 66.21875 
z
M 39.40625 74.21875 
Q 54.734375 74.21875 63.90625 63.9375 
Q 73.09375 53.65625 73.09375 36.375 
Q 73.09375 19.140625 63.90625 8.859375 
Q 54.734375 -1.421875 39.40625 -1.421875 
Q 24.03125 -1.421875 14.8125 8.828125 
Q 5.609375 19.09375 5.609375 36.375 
Q 5.609375 53.65625 14.8125 63.9375 
Q 24.03125 74.21875 39.40625 74.21875 
z
" id="DejaVuSans-79"/>
       <path d="M 19.671875 34.8125 
L 19.671875 8.109375 
L 35.5 8.109375 
Q 43.453125 8.109375 47.28125 11.40625 
Q 51.125 14.703125 51.125 21.484375 
Q 51.125 28.328125 47.28125 31.5625 
Q 43.453125 34.8125 35.5 34.8125 
z
M 19.671875 64.796875 
L 19.671875 42.828125 
L 34.28125 42.828125 
Q 41.5 42.828125 45.03125 45.53125 
Q 48.578125 48.25 48.578125 53.8125 
Q 48.578125 59.328125 45.03125 62.0625 
Q 41.5 64.796875 34.28125 64.796875 
z
M 9.8125 72.90625 
L 35.015625 72.90625 
Q 46.296875 72.90625 52.390625 68.21875 
Q 58.5 63.53125 58.5 54.890625 
Q 58.5 48.1875 55.375 44.234375 
Q 52.25 40.28125 46.1875 39.3125 
Q 53.46875 37.75 57.5 32.78125 
Q 61.53125 27.828125 61.53125 20.40625 
Q 61.53125 10.640625 54.890625 5.3125 
Q 48.25 0 35.984375 0 
L 9.8125 0 
z
" id="DejaVuSans-66"/>
      </defs>
      <use xlink:href="#DejaVuSans-79"/>
      <use x="78.710938" xlink:href="#DejaVuSans-66"/>
     </g>
    </g>
    <g id="line2d_57"/>
    <g id="line2d_58"/>
    <g id="text_23">
     <!-- 0.0000 -->
     <g transform="translate(139.138313 41.359531)scale(0.13 -0.13)">
      <use xlink:href="#DejaVuSans-48"/>
      <use x="63.623047" xlink:href="#DejaVuSans-46"/>
      <use x="95.410156" xlink:href="#DejaVuSans-48"/>
      <use x="159.033203" xlink:href="#DejaVuSans-48"/>
      <use x="222.65625" xlink:href="#DejaVuSans-48"/>
      <use x="286.279297" xlink:href="#DejaVuSans-48"/>
     </g>
    </g>
    <g id="line2d_59"/>
    <g id="line2d_60"/>
    <g id="text_24">
     <!-- 0.7255 -->
     <g transform="translate(139.138313 60.441094)scale(0.13 -0.13)">
      <use xlink:href="#DejaVuSans-48"/>
      <use x="63.623047" xlink:href="#DejaVuSans-46"/>
      <use x="95.410156" xlink:href="#DejaVuSans-55"/>
      <use x="159.033203" xlink:href="#DejaVuSans-50"/>
      <use x="222.65625" xlink:href="#DejaVuSans-53"/>
      <use x="286.279297" xlink:href="#DejaVuSans-53"/>
     </g>
    </g>
    <g id="line2d_61"/>
    <g id="line2d_62"/>
    <g id="text_25">
     <!-- 0.7504 -->
     <g transform="translate(139.138313 79.522656)scale(0.13 -0.13)">
      <use xlink:href="#DejaVuSans-48"/>
      <use x="63.623047" xlink:href="#DejaVuSans-46"/>
      <use x="95.410156" xlink:href="#DejaVuSans-55"/>
      <use x="159.033203" xlink:href="#DejaVuSans-53"/>
      <use x="222.65625" xlink:href="#DejaVuSans-48"/>
      <use x="286.279297" xlink:href="#DejaVuSans-52"/>
     </g>
    </g>
    <g id="line2d_63"/>
    <g id="line2d_64"/>
    <g id="text_26">
     <!-- 0.7576 -->
     <g transform="translate(139.138313 98.604219)scale(0.13 -0.13)">
      <use xlink:href="#DejaVuSans-48"/>
      <use x="63.623047" xlink:href="#DejaVuSans-46"/>
      <use x="95.410156" xlink:href="#DejaVuSans-55"/>
      <use x="159.033203" xlink:href="#DejaVuSans-53"/>
      <use x="222.65625" xlink:href="#DejaVuSans-55"/>
      <use x="286.279297" xlink:href="#DejaVuSans-54"/>
     </g>
    </g>
    <g id="line2d_65">
     <path d="M 179.144281 17.727969 
L 205.144281 17.727969 
" style="fill:none;stroke:#009988;stroke-dasharray:1.85,0.8;stroke-dashoffset:0;stroke-width:0.5;"/>
    </g>
    <g id="line2d_66">
     <g>
      <use style="fill:#009988;stroke:#009988;stroke-linejoin:miter;" x="192.144281" xlink:href="#m0a74629727" y="17.727969"/>
     </g>
    </g>
    <g id="text_27">
     <!-- UOB -->
     <g transform="translate(215.544281 22.277969)scale(0.13 -0.13)">
      <defs>
       <path d="M 8.6875 72.90625 
L 18.609375 72.90625 
L 18.609375 28.609375 
Q 18.609375 16.890625 22.84375 11.734375 
Q 27.09375 6.59375 36.625 6.59375 
Q 46.09375 6.59375 50.34375 11.734375 
Q 54.59375 16.890625 54.59375 28.609375 
L 54.59375 72.90625 
L 64.5 72.90625 
L 64.5 27.390625 
Q 64.5 13.140625 57.4375 5.859375 
Q 50.390625 -1.421875 36.625 -1.421875 
Q 22.796875 -1.421875 15.734375 5.859375 
Q 8.6875 13.140625 8.6875 27.390625 
z
" id="DejaVuSans-85"/>
      </defs>
      <use xlink:href="#DejaVuSans-85"/>
      <use x="73.193359" xlink:href="#DejaVuSans-79"/>
      <use x="151.904297" xlink:href="#DejaVuSans-66"/>
     </g>
    </g>
    <g id="line2d_67"/>
    <g id="line2d_68"/>
    <g id="text_28">
     <!-- 0.7644 -->
     <g transform="translate(215.544281 41.359531)scale(0.13 -0.13)">
      <use xlink:href="#DejaVuSans-48"/>
      <use x="63.623047" xlink:href="#DejaVuSans-46"/>
      <use x="95.410156" xlink:href="#DejaVuSans-55"/>
      <use x="159.033203" xlink:href="#DejaVuSans-54"/>
      <use x="222.65625" xlink:href="#DejaVuSans-52"/>
      <use x="286.279297" xlink:href="#DejaVuSans-52"/>
     </g>
    </g>
    <g id="line2d_69"/>
    <g id="line2d_70"/>
    <g id="text_29">
     <!-- 0.8117 -->
     <g transform="translate(215.544281 60.441094)scale(0.13 -0.13)">
      <use xlink:href="#DejaVuSans-48"/>
      <use x="63.623047" xlink:href="#DejaVuSans-46"/>
      <use x="95.410156" xlink:href="#DejaVuSans-56"/>
      <use x="159.033203" xlink:href="#DejaVuSans-49"/>
      <use x="222.65625" xlink:href="#DejaVuSans-49"/>
      <use x="286.279297" xlink:href="#DejaVuSans-55"/>
     </g>
    </g>
    <g id="line2d_71"/>
    <g id="line2d_72"/>
    <g id="text_30">
     <!-- 0.8083 -->
     <g transform="translate(215.544281 79.522656)scale(0.13 -0.13)">
      <defs>
       <path d="M 40.578125 39.3125 
Q 47.65625 37.796875 51.625 33 
Q 55.609375 28.21875 55.609375 21.1875 
Q 55.609375 10.40625 48.1875 4.484375 
Q 40.765625 -1.421875 27.09375 -1.421875 
Q 22.515625 -1.421875 17.65625 -0.515625 
Q 12.796875 0.390625 7.625 2.203125 
L 7.625 11.71875 
Q 11.71875 9.328125 16.59375 8.109375 
Q 21.484375 6.890625 26.8125 6.890625 
Q 36.078125 6.890625 40.9375 10.546875 
Q 45.796875 14.203125 45.796875 21.1875 
Q 45.796875 27.640625 41.28125 31.265625 
Q 36.765625 34.90625 28.71875 34.90625 
L 20.21875 34.90625 
L 20.21875 43.015625 
L 29.109375 43.015625 
Q 36.375 43.015625 40.234375 45.921875 
Q 44.09375 48.828125 44.09375 54.296875 
Q 44.09375 59.90625 40.109375 62.90625 
Q 36.140625 65.921875 28.71875 65.921875 
Q 24.65625 65.921875 20.015625 65.03125 
Q 15.375 64.15625 9.8125 62.3125 
L 9.8125 71.09375 
Q 15.4375 72.65625 20.34375 73.4375 
Q 25.25 74.21875 29.59375 74.21875 
Q 40.828125 74.21875 47.359375 69.109375 
Q 53.90625 64.015625 53.90625 55.328125 
Q 53.90625 49.265625 50.4375 45.09375 
Q 46.96875 40.921875 40.578125 39.3125 
z
" id="DejaVuSans-51"/>
      </defs>
      <use xlink:href="#DejaVuSans-48"/>
      <use x="63.623047" xlink:href="#DejaVuSans-46"/>
      <use x="95.410156" xlink:href="#DejaVuSans-56"/>
      <use x="159.033203" xlink:href="#DejaVuSans-48"/>
      <use x="222.65625" xlink:href="#DejaVuSans-56"/>
      <use x="286.279297" xlink:href="#DejaVuSans-51"/>
     </g>
    </g>
    <g id="line2d_73"/>
    <g id="line2d_74"/>
    <g id="text_31">
     <!-- 0.8198 -->
     <g transform="translate(215.544281 98.604219)scale(0.13 -0.13)">
      <defs>
       <path d="M 10.984375 1.515625 
L 10.984375 10.5 
Q 14.703125 8.734375 18.5 7.8125 
Q 22.3125 6.890625 25.984375 6.890625 
Q 35.75 6.890625 40.890625 13.453125 
Q 46.046875 20.015625 46.78125 33.40625 
Q 43.953125 29.203125 39.59375 26.953125 
Q 35.25 24.703125 29.984375 24.703125 
Q 19.046875 24.703125 12.671875 31.3125 
Q 6.296875 37.9375 6.296875 49.421875 
Q 6.296875 60.640625 12.9375 67.421875 
Q 19.578125 74.21875 30.609375 74.21875 
Q 43.265625 74.21875 49.921875 64.515625 
Q 56.59375 54.828125 56.59375 36.375 
Q 56.59375 19.140625 48.40625 8.859375 
Q 40.234375 -1.421875 26.421875 -1.421875 
Q 22.703125 -1.421875 18.890625 -0.6875 
Q 15.09375 0.046875 10.984375 1.515625 
z
M 30.609375 32.421875 
Q 37.25 32.421875 41.125 36.953125 
Q 45.015625 41.5 45.015625 49.421875 
Q 45.015625 57.28125 41.125 61.84375 
Q 37.25 66.40625 30.609375 66.40625 
Q 23.96875 66.40625 20.09375 61.84375 
Q 16.21875 57.28125 16.21875 49.421875 
Q 16.21875 41.5 20.09375 36.953125 
Q 23.96875 32.421875 30.609375 32.421875 
z
" id="DejaVuSans-57"/>
      </defs>
      <use xlink:href="#DejaVuSans-48"/>
      <use x="63.623047" xlink:href="#DejaVuSans-46"/>
      <use x="95.410156" xlink:href="#DejaVuSans-56"/>
      <use x="159.033203" xlink:href="#DejaVuSans-49"/>
      <use x="222.65625" xlink:href="#DejaVuSans-57"/>
      <use x="286.279297" xlink:href="#DejaVuSans-56"/>
     </g>
    </g>
    <g id="line2d_75">
     <path d="M 255.55025 17.727969 
L 281.55025 17.727969 
" style="fill:none;stroke:#0077bb;stroke-dasharray:3.2,0.8,0.5,0.8;stroke-dashoffset:0;stroke-width:0.5;"/>
    </g>
    <g id="line2d_76">
     <g>
      <use style="fill:#0077bb;stroke:#0077bb;stroke-linejoin:miter;" x="268.55025" xlink:href="#m3cb30de8ce" y="17.727969"/>
     </g>
    </g>
    <g id="text_32">
     <!-- OOB -->
     <g transform="translate(291.95025 22.277969)scale(0.13 -0.13)">
      <use xlink:href="#DejaVuSans-79"/>
      <use x="78.710938" xlink:href="#DejaVuSans-79"/>
      <use x="157.421875" xlink:href="#DejaVuSans-66"/>
     </g>
    </g>
    <g id="line2d_77"/>
    <g id="line2d_78"/>
    <g id="text_33">
     <!-- 0.7178 -->
     <g transform="translate(291.95025 41.359531)scale(0.13 -0.13)">
      <use xlink:href="#DejaVuSans-48"/>
      <use x="63.623047" xlink:href="#DejaVuSans-46"/>
      <use x="95.410156" xlink:href="#DejaVuSans-55"/>
      <use x="159.033203" xlink:href="#DejaVuSans-49"/>
      <use x="222.65625" xlink:href="#DejaVuSans-55"/>
      <use x="286.279297" xlink:href="#DejaVuSans-56"/>
     </g>
    </g>
    <g id="line2d_79"/>
    <g id="line2d_80"/>
    <g id="text_34">
     <!-- 0.8005 -->
     <g transform="translate(291.95025 60.441094)scale(0.13 -0.13)">
      <use xlink:href="#DejaVuSans-48"/>
      <use x="63.623047" xlink:href="#DejaVuSans-46"/>
      <use x="95.410156" xlink:href="#DejaVuSans-56"/>
      <use x="159.033203" xlink:href="#DejaVuSans-48"/>
      <use x="222.65625" xlink:href="#DejaVuSans-48"/>
      <use x="286.279297" xlink:href="#DejaVuSans-53"/>
     </g>
    </g>
    <g id="line2d_81"/>
    <g id="line2d_82"/>
    <g id="text_35">
     <!-- 0.8056 -->
     <g transform="translate(291.95025 79.522656)scale(0.13 -0.13)">
      <use xlink:href="#DejaVuSans-48"/>
      <use x="63.623047" xlink:href="#DejaVuSans-46"/>
      <use x="95.410156" xlink:href="#DejaVuSans-56"/>
      <use x="159.033203" xlink:href="#DejaVuSans-48"/>
      <use x="222.65625" xlink:href="#DejaVuSans-53"/>
      <use x="286.279297" xlink:href="#DejaVuSans-54"/>
     </g>
    </g>
    <g id="line2d_83"/>
    <g id="line2d_84"/>
    <g id="text_36">
     <!-- 0.8084 -->
     <g transform="translate(291.95025 98.604219)scale(0.13 -0.13)">
      <use xlink:href="#DejaVuSans-48"/>
      <use x="63.623047" xlink:href="#DejaVuSans-46"/>
      <use x="95.410156" xlink:href="#DejaVuSans-56"/>
      <use x="159.033203" xlink:href="#DejaVuSans-48"/>
      <use x="222.65625" xlink:href="#DejaVuSans-56"/>
      <use x="286.279297" xlink:href="#DejaVuSans-52"/>
     </g>
    </g>
    <g id="line2d_85">
     <path d="M 331.956219 17.727969 
L 357.956219 17.727969 
" style="fill:none;stroke:#ee7733;stroke-dasharray:0.5,0.825;stroke-dashoffset:0;stroke-width:0.5;"/>
    </g>
    <g id="line2d_86">
     <g>
      <use style="fill:#ee7733;stroke:#ee7733;stroke-linejoin:bevel;" x="344.956219" xlink:href="#mc6abea0138" y="17.727969"/>
     </g>
    </g>
    <g id="text_37">
     <!-- NUOB -->
     <g transform="translate(368.356219 22.277969)scale(0.13 -0.13)">
      <use xlink:href="#DejaVuSans-78"/>
      <use x="74.804688" xlink:href="#DejaVuSans-85"/>
      <use x="147.998047" xlink:href="#DejaVuSans-79"/>
      <use x="226.708984" xlink:href="#DejaVuSans-66"/>
     </g>
    </g>
    <g id="line2d_87"/>
    <g id="line2d_88"/>
    <g id="text_38">
     <!-- 0.7502 -->
     <g transform="translate(368.356219 41.359531)scale(0.13 -0.13)">
      <use xlink:href="#DejaVuSans-48"/>
      <use x="63.623047" xlink:href="#DejaVuSans-46"/>
      <use x="95.410156" xlink:href="#DejaVuSans-55"/>
      <use x="159.033203" xlink:href="#DejaVuSans-53"/>
      <use x="222.65625" xlink:href="#DejaVuSans-48"/>
      <use x="286.279297" xlink:href="#DejaVuSans-50"/>
     </g>
    </g>
    <g id="line2d_89"/>
    <g id="line2d_90"/>
    <g id="text_39">
     <!-- 0.8098 -->
     <g transform="translate(368.356219 60.441094)scale(0.13 -0.13)">
      <use xlink:href="#DejaVuSans-48"/>
      <use x="63.623047" xlink:href="#DejaVuSans-46"/>
      <use x="95.410156" xlink:href="#DejaVuSans-56"/>
      <use x="159.033203" xlink:href="#DejaVuSans-48"/>
      <use x="222.65625" xlink:href="#DejaVuSans-57"/>
      <use x="286.279297" xlink:href="#DejaVuSans-56"/>
     </g>
    </g>
    <g id="line2d_91"/>
    <g id="line2d_92"/>
    <g id="text_40">
     <!-- 0.8099 -->
     <g transform="translate(368.356219 79.522656)scale(0.13 -0.13)">
      <use xlink:href="#DejaVuSans-48"/>
      <use x="63.623047" xlink:href="#DejaVuSans-46"/>
      <use x="95.410156" xlink:href="#DejaVuSans-56"/>
      <use x="159.033203" xlink:href="#DejaVuSans-48"/>
      <use x="222.65625" xlink:href="#DejaVuSans-57"/>
      <use x="286.279297" xlink:href="#DejaVuSans-57"/>
     </g>
    </g>
    <g id="line2d_93"/>
    <g id="line2d_94"/>
    <g id="text_41">
     <!-- 0.8190 -->
     <g transform="translate(368.356219 98.604219)scale(0.13 -0.13)">
      <use xlink:href="#DejaVuSans-48"/>
      <use x="63.623047" xlink:href="#DejaVuSans-46"/>
      <use x="95.410156" xlink:href="#DejaVuSans-56"/>
      <use x="159.033203" xlink:href="#DejaVuSans-49"/>
      <use x="222.65625" xlink:href="#DejaVuSans-57"/>
      <use x="286.279297" xlink:href="#DejaVuSans-48"/>
     </g>
    </g>
    <g id="line2d_95">
     <path d="M 408.362188 17.727969 
L 434.362188 17.727969 
" style="fill:none;stroke:#ee3377;stroke-dasharray:3.2,0.8,0.5,0.8;stroke-dashoffset:0;stroke-width:0.5;"/>
    </g>
    <g id="line2d_96">
     <g>
      <use style="fill:#ee3377;stroke:#ee3377;stroke-linejoin:miter;" x="421.362188" xlink:href="#m5a8e85f84f" y="17.727969"/>
     </g>
    </g>
    <g id="text_42">
     <!-- NOOB -->
     <g transform="translate(444.762188 22.277969)scale(0.13 -0.13)">
      <use xlink:href="#DejaVuSans-78"/>
      <use x="74.804688" xlink:href="#DejaVuSans-79"/>
      <use x="153.515625" xlink:href="#DejaVuSans-79"/>
      <use x="232.226562" xlink:href="#DejaVuSans-66"/>
     </g>
    </g>
    <g id="line2d_97"/>
    <g id="line2d_98"/>
    <g id="text_43">
     <!-- 0.6352 -->
     <g transform="translate(444.762188 41.359531)scale(0.13 -0.13)">
      <use xlink:href="#DejaVuSans-48"/>
      <use x="63.623047" xlink:href="#DejaVuSans-46"/>
      <use x="95.410156" xlink:href="#DejaVuSans-54"/>
      <use x="159.033203" xlink:href="#DejaVuSans-51"/>
      <use x="222.65625" xlink:href="#DejaVuSans-53"/>
      <use x="286.279297" xlink:href="#DejaVuSans-50"/>
     </g>
    </g>
    <g id="line2d_99"/>
    <g id="line2d_100"/>
    <g id="text_44">
     <!-- 0.8562 -->
     <g transform="translate(444.762188 60.441094)scale(0.13 -0.13)">
      <use xlink:href="#DejaVuSans-48"/>
      <use x="63.623047" xlink:href="#DejaVuSans-46"/>
      <use x="95.410156" xlink:href="#DejaVuSans-56"/>
      <use x="159.033203" xlink:href="#DejaVuSans-53"/>
      <use x="222.65625" xlink:href="#DejaVuSans-54"/>
      <use x="286.279297" xlink:href="#DejaVuSans-50"/>
     </g>
    </g>
    <g id="line2d_101"/>
    <g id="line2d_102"/>
    <g id="text_45">
     <!-- 0.8587 -->
     <g transform="translate(444.762188 79.522656)scale(0.13 -0.13)">
      <use xlink:href="#DejaVuSans-48"/>
      <use x="63.623047" xlink:href="#DejaVuSans-46"/>
      <use x="95.410156" xlink:href="#DejaVuSans-56"/>
      <use x="159.033203" xlink:href="#DejaVuSans-53"/>
      <use x="222.65625" xlink:href="#DejaVuSans-56"/>
      <use x="286.279297" xlink:href="#DejaVuSans-55"/>
     </g>
    </g>
    <g id="line2d_103"/>
    <g id="line2d_104"/>
    <g id="text_46">
     <!-- 0.8634 -->
     <g transform="translate(444.762188 98.604219)scale(0.13 -0.13)">
      <use xlink:href="#DejaVuSans-48"/>
      <use x="63.623047" xlink:href="#DejaVuSans-46"/>
      <use x="95.410156" xlink:href="#DejaVuSans-56"/>
      <use x="159.033203" xlink:href="#DejaVuSans-54"/>
      <use x="222.65625" xlink:href="#DejaVuSans-51"/>
      <use x="286.279297" xlink:href="#DejaVuSans-52"/>
     </g>
    </g>
   </g>
  </g>
 </g>
 <defs>
  <clipPath id="pf1c2c6d13c">
   <rect height="277.2" width="390.6" x="104.85" y="112.051812"/>
  </clipPath>
 </defs>
</svg>
