<?xml version="1.0" encoding="utf-8" standalone="no"?>
<!DOCTYPE svg PUBLIC "-//W3C//DTD SVG 1.1//EN"
  "http://www.w3.org/Graphics/SVG/1.1/DTD/svg11.dtd">
<!-- Created with matplotlib (https://matplotlib.org/) -->
<svg height="432.614937pt" version="1.1" viewBox="0 0 502.65 432.614937" width="502.65pt" xmlns="http://www.w3.org/2000/svg" xmlns:xlink="http://www.w3.org/1999/xlink">
 <metadata>
  <rdf:RDF xmlns:cc="http://creativecommons.org/ns#" xmlns:dc="http://purl.org/dc/elements/1.1/" xmlns:rdf="http://www.w3.org/1999/02/22-rdf-syntax-ns#">
   <cc:Work>
    <dc:type rdf:resource="http://purl.org/dc/dcmitype/StillImage"/>
    <dc:date>2022-06-04T21:24:23.853824</dc:date>
    <dc:format>image/svg+xml</dc:format>
    <dc:creator>
     <cc:Agent>
      <dc:title>Matplotlib v3.3.3, https://matplotlib.org/</dc:title>
     </cc:Agent>
    </dc:creator>
   </cc:Work>
  </rdf:RDF>
 </metadata>
 <defs>
  <style type="text/css">*{stroke-linecap:butt;stroke-linejoin:round;}</style>
 </defs>
 <g id="figure_1">
  <g id="patch_1">
   <path d="M 0 432.614937 
L 502.65 432.614937 
L 502.65 0 
L 0 0 
z
" style="fill:#ffffff;"/>
  </g>
  <g id="axes_1">
   <g id="patch_2">
    <path d="M 104.85 389.251812 
L 495.45 389.251812 
L 495.45 112.051812 
L 104.85 112.051812 
z
" style="fill:#ffffff;"/>
   </g>
   <g id="matplotlib.axis_1">
    <g id="xtick_1">
     <g id="line2d_1">
      <defs>
       <path d="M 0 0 
L 0 3.5 
" id="m53e8ad0ee3" style="stroke:#000000;stroke-width:0.8;"/>
      </defs>
      <g>
       <use style="stroke:#000000;stroke-width:0.8;" x="117.19707" xlink:href="#m53e8ad0ee3" y="389.251812"/>
      </g>
     </g>
     <g id="text_1">
      <!-- 0 -->
      <g transform="translate(113.061445 406.129781)scale(0.13 -0.13)">
       <defs>
        <path d="M 31.78125 66.40625 
Q 24.171875 66.40625 20.328125 58.90625 
Q 16.5 51.421875 16.5 36.375 
Q 16.5 21.390625 20.328125 13.890625 
Q 24.171875 6.390625 31.78125 6.390625 
Q 39.453125 6.390625 43.28125 13.890625 
Q 47.125 21.390625 47.125 36.375 
Q 47.125 51.421875 43.28125 58.90625 
Q 39.453125 66.40625 31.78125 66.40625 
z
M 31.78125 74.21875 
Q 44.046875 74.21875 50.515625 64.515625 
Q 56.984375 54.828125 56.984375 36.375 
Q 56.984375 17.96875 50.515625 8.265625 
Q 44.046875 -1.421875 31.78125 -1.421875 
Q 19.53125 -1.421875 13.0625 8.265625 
Q 6.59375 17.96875 6.59375 36.375 
Q 6.59375 54.828125 13.0625 64.515625 
Q 19.53125 74.21875 31.78125 74.21875 
z
" id="DejaVuSans-48"/>
       </defs>
       <use xlink:href="#DejaVuSans-48"/>
      </g>
     </g>
    </g>
    <g id="xtick_2">
     <g id="line2d_2">
      <g>
       <use style="stroke:#000000;stroke-width:0.8;" x="162.259368" xlink:href="#m53e8ad0ee3" y="389.251812"/>
      </g>
     </g>
     <g id="text_2">
      <!-- 25 -->
      <g transform="translate(153.988118 406.129781)scale(0.13 -0.13)">
       <defs>
        <path d="M 19.1875 8.296875 
L 53.609375 8.296875 
L 53.609375 0 
L 7.328125 0 
L 7.328125 8.296875 
Q 12.9375 14.109375 22.625 23.890625 
Q 32.328125 33.6875 34.8125 36.53125 
Q 39.546875 41.84375 41.421875 45.53125 
Q 43.3125 49.21875 43.3125 52.78125 
Q 43.3125 58.59375 39.234375 62.25 
Q 35.15625 65.921875 28.609375 65.921875 
Q 23.96875 65.921875 18.8125 64.3125 
Q 13.671875 62.703125 7.8125 59.421875 
L 7.8125 69.390625 
Q 13.765625 71.78125 18.9375 73 
Q 24.125 74.21875 28.421875 74.21875 
Q 39.75 74.21875 46.484375 68.546875 
Q 53.21875 62.890625 53.21875 53.421875 
Q 53.21875 48.921875 51.53125 44.890625 
Q 49.859375 40.875 45.40625 35.40625 
Q 44.1875 33.984375 37.640625 27.21875 
Q 31.109375 20.453125 19.1875 8.296875 
z
" id="DejaVuSans-50"/>
        <path d="M 10.796875 72.90625 
L 49.515625 72.90625 
L 49.515625 64.59375 
L 19.828125 64.59375 
L 19.828125 46.734375 
Q 21.96875 47.46875 24.109375 47.828125 
Q 26.265625 48.1875 28.421875 48.1875 
Q 40.625 48.1875 47.75 41.5 
Q 54.890625 34.8125 54.890625 23.390625 
Q 54.890625 11.625 47.5625 5.09375 
Q 40.234375 -1.421875 26.90625 -1.421875 
Q 22.3125 -1.421875 17.546875 -0.640625 
Q 12.796875 0.140625 7.71875 1.703125 
L 7.71875 11.625 
Q 12.109375 9.234375 16.796875 8.0625 
Q 21.484375 6.890625 26.703125 6.890625 
Q 35.15625 6.890625 40.078125 11.328125 
Q 45.015625 15.765625 45.015625 23.390625 
Q 45.015625 31 40.078125 35.4375 
Q 35.15625 39.890625 26.703125 39.890625 
Q 22.75 39.890625 18.8125 39.015625 
Q 14.890625 38.140625 10.796875 36.28125 
z
" id="DejaVuSans-53"/>
       </defs>
       <use xlink:href="#DejaVuSans-50"/>
       <use x="63.623047" xlink:href="#DejaVuSans-53"/>
      </g>
     </g>
    </g>
    <g id="xtick_3">
     <g id="line2d_3">
      <g>
       <use style="stroke:#000000;stroke-width:0.8;" x="207.321666" xlink:href="#m53e8ad0ee3" y="389.251812"/>
      </g>
     </g>
     <g id="text_3">
      <!-- 50 -->
      <g transform="translate(199.050416 406.129781)scale(0.13 -0.13)">
       <use xlink:href="#DejaVuSans-53"/>
       <use x="63.623047" xlink:href="#DejaVuSans-48"/>
      </g>
     </g>
    </g>
    <g id="xtick_4">
     <g id="line2d_4">
      <g>
       <use style="stroke:#000000;stroke-width:0.8;" x="252.383964" xlink:href="#m53e8ad0ee3" y="389.251812"/>
      </g>
     </g>
     <g id="text_4">
      <!-- 75 -->
      <g transform="translate(244.112714 406.129781)scale(0.13 -0.13)">
       <defs>
        <path d="M 8.203125 72.90625 
L 55.078125 72.90625 
L 55.078125 68.703125 
L 28.609375 0 
L 18.3125 0 
L 43.21875 64.59375 
L 8.203125 64.59375 
z
" id="DejaVuSans-55"/>
       </defs>
       <use xlink:href="#DejaVuSans-55"/>
       <use x="63.623047" xlink:href="#DejaVuSans-53"/>
      </g>
     </g>
    </g>
    <g id="xtick_5">
     <g id="line2d_5">
      <g>
       <use style="stroke:#000000;stroke-width:0.8;" x="297.446262" xlink:href="#m53e8ad0ee3" y="389.251812"/>
      </g>
     </g>
     <g id="text_5">
      <!-- 100 -->
      <g transform="translate(285.039387 406.129781)scale(0.13 -0.13)">
       <defs>
        <path d="M 12.40625 8.296875 
L 28.515625 8.296875 
L 28.515625 63.921875 
L 10.984375 60.40625 
L 10.984375 69.390625 
L 28.421875 72.90625 
L 38.28125 72.90625 
L 38.28125 8.296875 
L 54.390625 8.296875 
L 54.390625 0 
L 12.40625 0 
z
" id="DejaVuSans-49"/>
       </defs>
       <use xlink:href="#DejaVuSans-49"/>
       <use x="63.623047" xlink:href="#DejaVuSans-48"/>
       <use x="127.246094" xlink:href="#DejaVuSans-48"/>
      </g>
     </g>
    </g>
    <g id="xtick_6">
     <g id="line2d_6">
      <g>
       <use style="stroke:#000000;stroke-width:0.8;" x="342.50856" xlink:href="#m53e8ad0ee3" y="389.251812"/>
      </g>
     </g>
     <g id="text_6">
      <!-- 125 -->
      <g transform="translate(330.101685 406.129781)scale(0.13 -0.13)">
       <use xlink:href="#DejaVuSans-49"/>
       <use x="63.623047" xlink:href="#DejaVuSans-50"/>
       <use x="127.246094" xlink:href="#DejaVuSans-53"/>
      </g>
     </g>
    </g>
    <g id="xtick_7">
     <g id="line2d_7">
      <g>
       <use style="stroke:#000000;stroke-width:0.8;" x="387.570858" xlink:href="#m53e8ad0ee3" y="389.251812"/>
      </g>
     </g>
     <g id="text_7">
      <!-- 150 -->
      <g transform="translate(375.163983 406.129781)scale(0.13 -0.13)">
       <use xlink:href="#DejaVuSans-49"/>
       <use x="63.623047" xlink:href="#DejaVuSans-53"/>
       <use x="127.246094" xlink:href="#DejaVuSans-48"/>
      </g>
     </g>
    </g>
    <g id="xtick_8">
     <g id="line2d_8">
      <g>
       <use style="stroke:#000000;stroke-width:0.8;" x="432.633156" xlink:href="#m53e8ad0ee3" y="389.251812"/>
      </g>
     </g>
     <g id="text_8">
      <!-- 175 -->
      <g transform="translate(420.226281 406.129781)scale(0.13 -0.13)">
       <use xlink:href="#DejaVuSans-49"/>
       <use x="63.623047" xlink:href="#DejaVuSans-55"/>
       <use x="127.246094" xlink:href="#DejaVuSans-53"/>
      </g>
     </g>
    </g>
    <g id="xtick_9">
     <g id="line2d_9">
      <g>
       <use style="stroke:#000000;stroke-width:0.8;" x="477.695455" xlink:href="#m53e8ad0ee3" y="389.251812"/>
      </g>
     </g>
     <g id="text_9">
      <!-- 200 -->
      <g transform="translate(465.28858 406.129781)scale(0.13 -0.13)">
       <use xlink:href="#DejaVuSans-50"/>
       <use x="63.623047" xlink:href="#DejaVuSans-48"/>
       <use x="127.246094" xlink:href="#DejaVuSans-48"/>
      </g>
     </g>
    </g>
    <g id="text_10">
     <!-- Number of processed instances [x1000] -->
     <g transform="translate(170.025078 422.711344)scale(0.13 -0.13)">
      <defs>
       <path d="M 9.8125 72.90625 
L 23.09375 72.90625 
L 55.421875 11.921875 
L 55.421875 72.90625 
L 64.984375 72.90625 
L 64.984375 0 
L 51.703125 0 
L 19.390625 60.984375 
L 19.390625 0 
L 9.8125 0 
z
" id="DejaVuSans-78"/>
       <path d="M 8.5 21.578125 
L 8.5 54.6875 
L 17.484375 54.6875 
L 17.484375 21.921875 
Q 17.484375 14.15625 20.5 10.265625 
Q 23.53125 6.390625 29.59375 6.390625 
Q 36.859375 6.390625 41.078125 11.03125 
Q 45.3125 15.671875 45.3125 23.6875 
L 45.3125 54.6875 
L 54.296875 54.6875 
L 54.296875 0 
L 45.3125 0 
L 45.3125 8.40625 
Q 42.046875 3.421875 37.71875 1 
Q 33.40625 -1.421875 27.6875 -1.421875 
Q 18.265625 -1.421875 13.375 4.4375 
Q 8.5 10.296875 8.5 21.578125 
z
M 31.109375 56 
z
" id="DejaVuSans-117"/>
       <path d="M 52 44.1875 
Q 55.375 50.25 60.0625 53.125 
Q 64.75 56 71.09375 56 
Q 79.640625 56 84.28125 50.015625 
Q 88.921875 44.046875 88.921875 33.015625 
L 88.921875 0 
L 79.890625 0 
L 79.890625 32.71875 
Q 79.890625 40.578125 77.09375 44.375 
Q 74.3125 48.1875 68.609375 48.1875 
Q 61.625 48.1875 57.5625 43.546875 
Q 53.515625 38.921875 53.515625 30.90625 
L 53.515625 0 
L 44.484375 0 
L 44.484375 32.71875 
Q 44.484375 40.625 41.703125 44.40625 
Q 38.921875 48.1875 33.109375 48.1875 
Q 26.21875 48.1875 22.15625 43.53125 
Q 18.109375 38.875 18.109375 30.90625 
L 18.109375 0 
L 9.078125 0 
L 9.078125 54.6875 
L 18.109375 54.6875 
L 18.109375 46.1875 
Q 21.1875 51.21875 25.484375 53.609375 
Q 29.78125 56 35.6875 56 
Q 41.65625 56 45.828125 52.96875 
Q 50 49.953125 52 44.1875 
z
" id="DejaVuSans-109"/>
       <path d="M 48.6875 27.296875 
Q 48.6875 37.203125 44.609375 42.84375 
Q 40.53125 48.484375 33.40625 48.484375 
Q 26.265625 48.484375 22.1875 42.84375 
Q 18.109375 37.203125 18.109375 27.296875 
Q 18.109375 17.390625 22.1875 11.75 
Q 26.265625 6.109375 33.40625 6.109375 
Q 40.53125 6.109375 44.609375 11.75 
Q 48.6875 17.390625 48.6875 27.296875 
z
M 18.109375 46.390625 
Q 20.953125 51.265625 25.265625 53.625 
Q 29.59375 56 35.59375 56 
Q 45.5625 56 51.78125 48.09375 
Q 58.015625 40.1875 58.015625 27.296875 
Q 58.015625 14.40625 51.78125 6.484375 
Q 45.5625 -1.421875 35.59375 -1.421875 
Q 29.59375 -1.421875 25.265625 0.953125 
Q 20.953125 3.328125 18.109375 8.203125 
L 18.109375 0 
L 9.078125 0 
L 9.078125 75.984375 
L 18.109375 75.984375 
z
" id="DejaVuSans-98"/>
       <path d="M 56.203125 29.59375 
L 56.203125 25.203125 
L 14.890625 25.203125 
Q 15.484375 15.921875 20.484375 11.0625 
Q 25.484375 6.203125 34.421875 6.203125 
Q 39.59375 6.203125 44.453125 7.46875 
Q 49.3125 8.734375 54.109375 11.28125 
L 54.109375 2.78125 
Q 49.265625 0.734375 44.1875 -0.34375 
Q 39.109375 -1.421875 33.890625 -1.421875 
Q 20.796875 -1.421875 13.15625 6.1875 
Q 5.515625 13.8125 5.515625 26.8125 
Q 5.515625 40.234375 12.765625 48.109375 
Q 20.015625 56 32.328125 56 
Q 43.359375 56 49.78125 48.890625 
Q 56.203125 41.796875 56.203125 29.59375 
z
M 47.21875 32.234375 
Q 47.125 39.59375 43.09375 43.984375 
Q 39.0625 48.390625 32.421875 48.390625 
Q 24.90625 48.390625 20.390625 44.140625 
Q 15.875 39.890625 15.1875 32.171875 
z
" id="DejaVuSans-101"/>
       <path d="M 41.109375 46.296875 
Q 39.59375 47.171875 37.8125 47.578125 
Q 36.03125 48 33.890625 48 
Q 26.265625 48 22.1875 43.046875 
Q 18.109375 38.09375 18.109375 28.8125 
L 18.109375 0 
L 9.078125 0 
L 9.078125 54.6875 
L 18.109375 54.6875 
L 18.109375 46.1875 
Q 20.953125 51.171875 25.484375 53.578125 
Q 30.03125 56 36.53125 56 
Q 37.453125 56 38.578125 55.875 
Q 39.703125 55.765625 41.0625 55.515625 
z
" id="DejaVuSans-114"/>
       <path id="DejaVuSans-32"/>
       <path d="M 30.609375 48.390625 
Q 23.390625 48.390625 19.1875 42.75 
Q 14.984375 37.109375 14.984375 27.296875 
Q 14.984375 17.484375 19.15625 11.84375 
Q 23.34375 6.203125 30.609375 6.203125 
Q 37.796875 6.203125 41.984375 11.859375 
Q 46.1875 17.53125 46.1875 27.296875 
Q 46.1875 37.015625 41.984375 42.703125 
Q 37.796875 48.390625 30.609375 48.390625 
z
M 30.609375 56 
Q 42.328125 56 49.015625 48.375 
Q 55.71875 40.765625 55.71875 27.296875 
Q 55.71875 13.875 49.015625 6.21875 
Q 42.328125 -1.421875 30.609375 -1.421875 
Q 18.84375 -1.421875 12.171875 6.21875 
Q 5.515625 13.875 5.515625 27.296875 
Q 5.515625 40.765625 12.171875 48.375 
Q 18.84375 56 30.609375 56 
z
" id="DejaVuSans-111"/>
       <path d="M 37.109375 75.984375 
L 37.109375 68.5 
L 28.515625 68.5 
Q 23.6875 68.5 21.796875 66.546875 
Q 19.921875 64.59375 19.921875 59.515625 
L 19.921875 54.6875 
L 34.71875 54.6875 
L 34.71875 47.703125 
L 19.921875 47.703125 
L 19.921875 0 
L 10.890625 0 
L 10.890625 47.703125 
L 2.296875 47.703125 
L 2.296875 54.6875 
L 10.890625 54.6875 
L 10.890625 58.5 
Q 10.890625 67.625 15.140625 71.796875 
Q 19.390625 75.984375 28.609375 75.984375 
z
" id="DejaVuSans-102"/>
       <path d="M 18.109375 8.203125 
L 18.109375 -20.796875 
L 9.078125 -20.796875 
L 9.078125 54.6875 
L 18.109375 54.6875 
L 18.109375 46.390625 
Q 20.953125 51.265625 25.265625 53.625 
Q 29.59375 56 35.59375 56 
Q 45.5625 56 51.78125 48.09375 
Q 58.015625 40.1875 58.015625 27.296875 
Q 58.015625 14.40625 51.78125 6.484375 
Q 45.5625 -1.421875 35.59375 -1.421875 
Q 29.59375 -1.421875 25.265625 0.953125 
Q 20.953125 3.328125 18.109375 8.203125 
z
M 48.6875 27.296875 
Q 48.6875 37.203125 44.609375 42.84375 
Q 40.53125 48.484375 33.40625 48.484375 
Q 26.265625 48.484375 22.1875 42.84375 
Q 18.109375 37.203125 18.109375 27.296875 
Q 18.109375 17.390625 22.1875 11.75 
Q 26.265625 6.109375 33.40625 6.109375 
Q 40.53125 6.109375 44.609375 11.75 
Q 48.6875 17.390625 48.6875 27.296875 
z
" id="DejaVuSans-112"/>
       <path d="M 48.78125 52.59375 
L 48.78125 44.1875 
Q 44.96875 46.296875 41.140625 47.34375 
Q 37.3125 48.390625 33.40625 48.390625 
Q 24.65625 48.390625 19.8125 42.84375 
Q 14.984375 37.3125 14.984375 27.296875 
Q 14.984375 17.28125 19.8125 11.734375 
Q 24.65625 6.203125 33.40625 6.203125 
Q 37.3125 6.203125 41.140625 7.25 
Q 44.96875 8.296875 48.78125 10.40625 
L 48.78125 2.09375 
Q 45.015625 0.34375 40.984375 -0.53125 
Q 36.96875 -1.421875 32.421875 -1.421875 
Q 20.0625 -1.421875 12.78125 6.34375 
Q 5.515625 14.109375 5.515625 27.296875 
Q 5.515625 40.671875 12.859375 48.328125 
Q 20.21875 56 33.015625 56 
Q 37.15625 56 41.109375 55.140625 
Q 45.0625 54.296875 48.78125 52.59375 
z
" id="DejaVuSans-99"/>
       <path d="M 44.28125 53.078125 
L 44.28125 44.578125 
Q 40.484375 46.53125 36.375 47.5 
Q 32.28125 48.484375 27.875 48.484375 
Q 21.1875 48.484375 17.84375 46.4375 
Q 14.5 44.390625 14.5 40.28125 
Q 14.5 37.15625 16.890625 35.375 
Q 19.28125 33.59375 26.515625 31.984375 
L 29.59375 31.296875 
Q 39.15625 29.25 43.1875 25.515625 
Q 47.21875 21.78125 47.21875 15.09375 
Q 47.21875 7.46875 41.1875 3.015625 
Q 35.15625 -1.421875 24.609375 -1.421875 
Q 20.21875 -1.421875 15.453125 -0.5625 
Q 10.6875 0.296875 5.421875 2 
L 5.421875 11.28125 
Q 10.40625 8.6875 15.234375 7.390625 
Q 20.0625 6.109375 24.8125 6.109375 
Q 31.15625 6.109375 34.5625 8.28125 
Q 37.984375 10.453125 37.984375 14.40625 
Q 37.984375 18.0625 35.515625 20.015625 
Q 33.0625 21.96875 24.703125 23.78125 
L 21.578125 24.515625 
Q 13.234375 26.265625 9.515625 29.90625 
Q 5.8125 33.546875 5.8125 39.890625 
Q 5.8125 47.609375 11.28125 51.796875 
Q 16.75 56 26.8125 56 
Q 31.78125 56 36.171875 55.265625 
Q 40.578125 54.546875 44.28125 53.078125 
z
" id="DejaVuSans-115"/>
       <path d="M 45.40625 46.390625 
L 45.40625 75.984375 
L 54.390625 75.984375 
L 54.390625 0 
L 45.40625 0 
L 45.40625 8.203125 
Q 42.578125 3.328125 38.25 0.953125 
Q 33.9375 -1.421875 27.875 -1.421875 
Q 17.96875 -1.421875 11.734375 6.484375 
Q 5.515625 14.40625 5.515625 27.296875 
Q 5.515625 40.1875 11.734375 48.09375 
Q 17.96875 56 27.875 56 
Q 33.9375 56 38.25 53.625 
Q 42.578125 51.265625 45.40625 46.390625 
z
M 14.796875 27.296875 
Q 14.796875 17.390625 18.875 11.75 
Q 22.953125 6.109375 30.078125 6.109375 
Q 37.203125 6.109375 41.296875 11.75 
Q 45.40625 17.390625 45.40625 27.296875 
Q 45.40625 37.203125 41.296875 42.84375 
Q 37.203125 48.484375 30.078125 48.484375 
Q 22.953125 48.484375 18.875 42.84375 
Q 14.796875 37.203125 14.796875 27.296875 
z
" id="DejaVuSans-100"/>
       <path d="M 9.421875 54.6875 
L 18.40625 54.6875 
L 18.40625 0 
L 9.421875 0 
z
M 9.421875 75.984375 
L 18.40625 75.984375 
L 18.40625 64.59375 
L 9.421875 64.59375 
z
" id="DejaVuSans-105"/>
       <path d="M 54.890625 33.015625 
L 54.890625 0 
L 45.90625 0 
L 45.90625 32.71875 
Q 45.90625 40.484375 42.875 44.328125 
Q 39.84375 48.1875 33.796875 48.1875 
Q 26.515625 48.1875 22.3125 43.546875 
Q 18.109375 38.921875 18.109375 30.90625 
L 18.109375 0 
L 9.078125 0 
L 9.078125 54.6875 
L 18.109375 54.6875 
L 18.109375 46.1875 
Q 21.34375 51.125 25.703125 53.5625 
Q 30.078125 56 35.796875 56 
Q 45.21875 56 50.046875 50.171875 
Q 54.890625 44.34375 54.890625 33.015625 
z
" id="DejaVuSans-110"/>
       <path d="M 18.3125 70.21875 
L 18.3125 54.6875 
L 36.8125 54.6875 
L 36.8125 47.703125 
L 18.3125 47.703125 
L 18.3125 18.015625 
Q 18.3125 11.328125 20.140625 9.421875 
Q 21.96875 7.515625 27.59375 7.515625 
L 36.8125 7.515625 
L 36.8125 0 
L 27.59375 0 
Q 17.1875 0 13.234375 3.875 
Q 9.28125 7.765625 9.28125 18.015625 
L 9.28125 47.703125 
L 2.6875 47.703125 
L 2.6875 54.6875 
L 9.28125 54.6875 
L 9.28125 70.21875 
z
" id="DejaVuSans-116"/>
       <path d="M 34.28125 27.484375 
Q 23.390625 27.484375 19.1875 25 
Q 14.984375 22.515625 14.984375 16.5 
Q 14.984375 11.71875 18.140625 8.90625 
Q 21.296875 6.109375 26.703125 6.109375 
Q 34.1875 6.109375 38.703125 11.40625 
Q 43.21875 16.703125 43.21875 25.484375 
L 43.21875 27.484375 
z
M 52.203125 31.203125 
L 52.203125 0 
L 43.21875 0 
L 43.21875 8.296875 
Q 40.140625 3.328125 35.546875 0.953125 
Q 30.953125 -1.421875 24.3125 -1.421875 
Q 15.921875 -1.421875 10.953125 3.296875 
Q 6 8.015625 6 15.921875 
Q 6 25.140625 12.171875 29.828125 
Q 18.359375 34.515625 30.609375 34.515625 
L 43.21875 34.515625 
L 43.21875 35.40625 
Q 43.21875 41.609375 39.140625 45 
Q 35.0625 48.390625 27.6875 48.390625 
Q 23 48.390625 18.546875 47.265625 
Q 14.109375 46.140625 10.015625 43.890625 
L 10.015625 52.203125 
Q 14.9375 54.109375 19.578125 55.046875 
Q 24.21875 56 28.609375 56 
Q 40.484375 56 46.34375 49.84375 
Q 52.203125 43.703125 52.203125 31.203125 
z
" id="DejaVuSans-97"/>
       <path d="M 8.59375 75.984375 
L 29.296875 75.984375 
L 29.296875 69 
L 17.578125 69 
L 17.578125 -6.203125 
L 29.296875 -6.203125 
L 29.296875 -13.1875 
L 8.59375 -13.1875 
z
" id="DejaVuSans-91"/>
       <path d="M 54.890625 54.6875 
L 35.109375 28.078125 
L 55.90625 0 
L 45.3125 0 
L 29.390625 21.484375 
L 13.484375 0 
L 2.875 0 
L 24.125 28.609375 
L 4.6875 54.6875 
L 15.28125 54.6875 
L 29.78125 35.203125 
L 44.28125 54.6875 
z
" id="DejaVuSans-120"/>
       <path d="M 30.421875 75.984375 
L 30.421875 -13.1875 
L 9.71875 -13.1875 
L 9.71875 -6.203125 
L 21.390625 -6.203125 
L 21.390625 69 
L 9.71875 69 
L 9.71875 75.984375 
z
" id="DejaVuSans-93"/>
      </defs>
      <use xlink:href="#DejaVuSans-78"/>
      <use x="74.804688" xlink:href="#DejaVuSans-117"/>
      <use x="138.183594" xlink:href="#DejaVuSans-109"/>
      <use x="235.595703" xlink:href="#DejaVuSans-98"/>
      <use x="299.072266" xlink:href="#DejaVuSans-101"/>
      <use x="360.595703" xlink:href="#DejaVuSans-114"/>
      <use x="401.708984" xlink:href="#DejaVuSans-32"/>
      <use x="433.496094" xlink:href="#DejaVuSans-111"/>
      <use x="494.677734" xlink:href="#DejaVuSans-102"/>
      <use x="529.882812" xlink:href="#DejaVuSans-32"/>
      <use x="561.669922" xlink:href="#DejaVuSans-112"/>
      <use x="625.146484" xlink:href="#DejaVuSans-114"/>
      <use x="664.009766" xlink:href="#DejaVuSans-111"/>
      <use x="725.191406" xlink:href="#DejaVuSans-99"/>
      <use x="780.171875" xlink:href="#DejaVuSans-101"/>
      <use x="841.695312" xlink:href="#DejaVuSans-115"/>
      <use x="893.794922" xlink:href="#DejaVuSans-115"/>
      <use x="945.894531" xlink:href="#DejaVuSans-101"/>
      <use x="1007.417969" xlink:href="#DejaVuSans-100"/>
      <use x="1070.894531" xlink:href="#DejaVuSans-32"/>
      <use x="1102.681641" xlink:href="#DejaVuSans-105"/>
      <use x="1130.464844" xlink:href="#DejaVuSans-110"/>
      <use x="1193.84375" xlink:href="#DejaVuSans-115"/>
      <use x="1245.943359" xlink:href="#DejaVuSans-116"/>
      <use x="1285.152344" xlink:href="#DejaVuSans-97"/>
      <use x="1346.431641" xlink:href="#DejaVuSans-110"/>
      <use x="1409.810547" xlink:href="#DejaVuSans-99"/>
      <use x="1464.791016" xlink:href="#DejaVuSans-101"/>
      <use x="1526.314453" xlink:href="#DejaVuSans-115"/>
      <use x="1578.414062" xlink:href="#DejaVuSans-32"/>
      <use x="1610.201172" xlink:href="#DejaVuSans-91"/>
      <use x="1649.214844" xlink:href="#DejaVuSans-120"/>
      <use x="1708.394531" xlink:href="#DejaVuSans-49"/>
      <use x="1772.017578" xlink:href="#DejaVuSans-48"/>
      <use x="1835.640625" xlink:href="#DejaVuSans-48"/>
      <use x="1899.263672" xlink:href="#DejaVuSans-48"/>
      <use x="1962.886719" xlink:href="#DejaVuSans-93"/>
     </g>
    </g>
   </g>
   <g id="matplotlib.axis_2">
    <g id="ytick_1">
     <g id="line2d_10">
      <defs>
       <path d="M 0 0 
L -3.5 0 
" id="m0a1d49a578" style="stroke:#000000;stroke-width:0.8;"/>
      </defs>
      <g>
       <use style="stroke:#000000;stroke-width:0.8;" x="104.85" xlink:href="#m0a1d49a578" y="363.118754"/>
      </g>
     </g>
     <g id="text_11">
      <!-- 0.950 -->
      <g transform="translate(60.633437 368.057739)scale(0.13 -0.13)">
       <defs>
        <path d="M 10.6875 12.40625 
L 21 12.40625 
L 21 0 
L 10.6875 0 
z
" id="DejaVuSans-46"/>
        <path d="M 10.984375 1.515625 
L 10.984375 10.5 
Q 14.703125 8.734375 18.5 7.8125 
Q 22.3125 6.890625 25.984375 6.890625 
Q 35.75 6.890625 40.890625 13.453125 
Q 46.046875 20.015625 46.78125 33.40625 
Q 43.953125 29.203125 39.59375 26.953125 
Q 35.25 24.703125 29.984375 24.703125 
Q 19.046875 24.703125 12.671875 31.3125 
Q 6.296875 37.9375 6.296875 49.421875 
Q 6.296875 60.640625 12.9375 67.421875 
Q 19.578125 74.21875 30.609375 74.21875 
Q 43.265625 74.21875 49.921875 64.515625 
Q 56.59375 54.828125 56.59375 36.375 
Q 56.59375 19.140625 48.40625 8.859375 
Q 40.234375 -1.421875 26.421875 -1.421875 
Q 22.703125 -1.421875 18.890625 -0.6875 
Q 15.09375 0.046875 10.984375 1.515625 
z
M 30.609375 32.421875 
Q 37.25 32.421875 41.125 36.953125 
Q 45.015625 41.5 45.015625 49.421875 
Q 45.015625 57.28125 41.125 61.84375 
Q 37.25 66.40625 30.609375 66.40625 
Q 23.96875 66.40625 20.09375 61.84375 
Q 16.21875 57.28125 16.21875 49.421875 
Q 16.21875 41.5 20.09375 36.953125 
Q 23.96875 32.421875 30.609375 32.421875 
z
" id="DejaVuSans-57"/>
       </defs>
       <use xlink:href="#DejaVuSans-48"/>
       <use x="63.623047" xlink:href="#DejaVuSans-46"/>
       <use x="95.410156" xlink:href="#DejaVuSans-57"/>
       <use x="159.033203" xlink:href="#DejaVuSans-53"/>
       <use x="222.65625" xlink:href="#DejaVuSans-48"/>
      </g>
     </g>
    </g>
    <g id="ytick_2">
     <g id="line2d_11">
      <g>
       <use style="stroke:#000000;stroke-width:0.8;" x="104.85" xlink:href="#m0a1d49a578" y="312.433863"/>
      </g>
     </g>
     <g id="text_12">
      <!-- 0.955 -->
      <g transform="translate(60.633437 317.372848)scale(0.13 -0.13)">
       <use xlink:href="#DejaVuSans-48"/>
       <use x="63.623047" xlink:href="#DejaVuSans-46"/>
       <use x="95.410156" xlink:href="#DejaVuSans-57"/>
       <use x="159.033203" xlink:href="#DejaVuSans-53"/>
       <use x="222.65625" xlink:href="#DejaVuSans-53"/>
      </g>
     </g>
    </g>
    <g id="ytick_3">
     <g id="line2d_12">
      <g>
       <use style="stroke:#000000;stroke-width:0.8;" x="104.85" xlink:href="#m0a1d49a578" y="261.748972"/>
      </g>
     </g>
     <g id="text_13">
      <!-- 0.960 -->
      <g transform="translate(60.633437 266.687956)scale(0.13 -0.13)">
       <defs>
        <path d="M 33.015625 40.375 
Q 26.375 40.375 22.484375 35.828125 
Q 18.609375 31.296875 18.609375 23.390625 
Q 18.609375 15.53125 22.484375 10.953125 
Q 26.375 6.390625 33.015625 6.390625 
Q 39.65625 6.390625 43.53125 10.953125 
Q 47.40625 15.53125 47.40625 23.390625 
Q 47.40625 31.296875 43.53125 35.828125 
Q 39.65625 40.375 33.015625 40.375 
z
M 52.59375 71.296875 
L 52.59375 62.3125 
Q 48.875 64.0625 45.09375 64.984375 
Q 41.3125 65.921875 37.59375 65.921875 
Q 27.828125 65.921875 22.671875 59.328125 
Q 17.53125 52.734375 16.796875 39.40625 
Q 19.671875 43.65625 24.015625 45.921875 
Q 28.375 48.1875 33.59375 48.1875 
Q 44.578125 48.1875 50.953125 41.515625 
Q 57.328125 34.859375 57.328125 23.390625 
Q 57.328125 12.15625 50.6875 5.359375 
Q 44.046875 -1.421875 33.015625 -1.421875 
Q 20.359375 -1.421875 13.671875 8.265625 
Q 6.984375 17.96875 6.984375 36.375 
Q 6.984375 53.65625 15.1875 63.9375 
Q 23.390625 74.21875 37.203125 74.21875 
Q 40.921875 74.21875 44.703125 73.484375 
Q 48.484375 72.75 52.59375 71.296875 
z
" id="DejaVuSans-54"/>
       </defs>
       <use xlink:href="#DejaVuSans-48"/>
       <use x="63.623047" xlink:href="#DejaVuSans-46"/>
       <use x="95.410156" xlink:href="#DejaVuSans-57"/>
       <use x="159.033203" xlink:href="#DejaVuSans-54"/>
       <use x="222.65625" xlink:href="#DejaVuSans-48"/>
      </g>
     </g>
    </g>
    <g id="ytick_4">
     <g id="line2d_13">
      <g>
       <use style="stroke:#000000;stroke-width:0.8;" x="104.85" xlink:href="#m0a1d49a578" y="211.064081"/>
      </g>
     </g>
     <g id="text_14">
      <!-- 0.965 -->
      <g transform="translate(60.633437 216.003065)scale(0.13 -0.13)">
       <use xlink:href="#DejaVuSans-48"/>
       <use x="63.623047" xlink:href="#DejaVuSans-46"/>
       <use x="95.410156" xlink:href="#DejaVuSans-57"/>
       <use x="159.033203" xlink:href="#DejaVuSans-54"/>
       <use x="222.65625" xlink:href="#DejaVuSans-53"/>
      </g>
     </g>
    </g>
    <g id="ytick_5">
     <g id="line2d_14">
      <g>
       <use style="stroke:#000000;stroke-width:0.8;" x="104.85" xlink:href="#m0a1d49a578" y="160.37919"/>
      </g>
     </g>
     <g id="text_15">
      <!-- 0.970 -->
      <g transform="translate(60.633437 165.318174)scale(0.13 -0.13)">
       <use xlink:href="#DejaVuSans-48"/>
       <use x="63.623047" xlink:href="#DejaVuSans-46"/>
       <use x="95.410156" xlink:href="#DejaVuSans-57"/>
       <use x="159.033203" xlink:href="#DejaVuSans-55"/>
       <use x="222.65625" xlink:href="#DejaVuSans-48"/>
      </g>
     </g>
    </g>
    <g id="text_16">
     <!-- G-Mean -->
     <g transform="translate(53.929844 275.743844)rotate(-90)scale(0.13 -0.13)">
      <defs>
       <path d="M 59.515625 10.40625 
L 59.515625 29.984375 
L 43.40625 29.984375 
L 43.40625 38.09375 
L 69.28125 38.09375 
L 69.28125 6.78125 
Q 63.578125 2.734375 56.6875 0.65625 
Q 49.8125 -1.421875 42 -1.421875 
Q 24.90625 -1.421875 15.25 8.5625 
Q 5.609375 18.5625 5.609375 36.375 
Q 5.609375 54.25 15.25 64.234375 
Q 24.90625 74.21875 42 74.21875 
Q 49.125 74.21875 55.546875 72.453125 
Q 61.96875 70.703125 67.390625 67.28125 
L 67.390625 56.78125 
Q 61.921875 61.421875 55.765625 63.765625 
Q 49.609375 66.109375 42.828125 66.109375 
Q 29.4375 66.109375 22.71875 58.640625 
Q 16.015625 51.171875 16.015625 36.375 
Q 16.015625 21.625 22.71875 14.15625 
Q 29.4375 6.6875 42.828125 6.6875 
Q 48.046875 6.6875 52.140625 7.59375 
Q 56.25 8.5 59.515625 10.40625 
z
" id="DejaVuSans-71"/>
       <path d="M 4.890625 31.390625 
L 31.203125 31.390625 
L 31.203125 23.390625 
L 4.890625 23.390625 
z
" id="DejaVuSans-45"/>
       <path d="M 9.8125 72.90625 
L 24.515625 72.90625 
L 43.109375 23.296875 
L 61.8125 72.90625 
L 76.515625 72.90625 
L 76.515625 0 
L 66.890625 0 
L 66.890625 64.015625 
L 48.09375 14.015625 
L 38.1875 14.015625 
L 19.390625 64.015625 
L 19.390625 0 
L 9.8125 0 
z
" id="DejaVuSans-77"/>
      </defs>
      <use xlink:href="#DejaVuSans-71"/>
      <use x="77.490234" xlink:href="#DejaVuSans-45"/>
      <use x="113.574219" xlink:href="#DejaVuSans-77"/>
      <use x="199.853516" xlink:href="#DejaVuSans-101"/>
      <use x="261.376953" xlink:href="#DejaVuSans-97"/>
      <use x="322.65625" xlink:href="#DejaVuSans-110"/>
     </g>
    </g>
   </g>
   <g id="line2d_15"/>
   <g id="line2d_16"/>
   <g id="line2d_17"/>
   <g id="line2d_18"/>
   <g id="line2d_19"/>
   <g id="line2d_20">
    <path clip-path="url(#pe5b88a7b57)" d="M 122.604545 252.33041 
L 124.407037 365.379915 
L 126.209529 310.453616 
L 128.012021 292.818387 
L 129.814513 283.053324 
L 131.617005 278.506487 
L 133.419497 296.239515 
L 135.221989 290.076981 
L 137.024481 304.502681 
L 138.826973 302.680175 
L 140.629465 313.64132 
L 142.431957 307.27418 
L 144.234449 314.602041 
L 149.641924 340.969766 
L 151.444416 342.400497 
L 153.246908 341.851461 
L 155.0494 332.019762 
L 156.851892 330.320909 
L 158.654384 330.725133 
L 160.456876 316.915362 
L 162.259368 327.872809 
L 164.06186 331.987058 
L 165.864352 330.559122 
L 167.666844 324.964234 
L 169.469335 314.054658 
L 171.271827 310.070959 
L 173.074319 305.485067 
L 174.876811 302.956378 
L 176.679303 294.675488 
L 178.481795 294.217707 
L 180.284287 283.896558 
L 182.086779 274.316326 
L 183.889271 263.393307 
L 185.691763 258.430933 
L 187.494255 251.622492 
L 189.296747 249.353928 
L 191.099239 248.357531 
L 192.901731 244.252567 
L 194.704222 246.569988 
L 196.506714 244.587655 
L 198.309206 230.488592 
L 200.111698 230.286208 
L 201.91419 228.594903 
L 203.716682 238.850307 
L 205.519174 243.825233 
L 207.321666 247.615266 
L 209.124158 242.219451 
L 210.92665 239.158545 
L 212.729142 234.56886 
L 214.531634 241.790907 
L 216.334126 237.603605 
L 218.136617 239.573579 
L 219.939109 234.019816 
L 221.741601 223.010828 
L 223.544093 224.826563 
L 225.346585 216.679474 
L 227.149077 220.444872 
L 228.951569 218.822802 
L 230.754061 208.66216 
L 232.556553 212.732446 
L 234.359045 218.203189 
L 236.161537 213.926872 
L 237.964029 211.633781 
L 239.766521 204.571547 
L 241.569012 198.524171 
L 243.371504 194.716852 
L 245.173996 193.176454 
L 246.976488 192.009397 
L 248.77898 186.240379 
L 250.581472 179.436467 
L 252.383964 188.912622 
L 254.186456 182.486717 
L 255.988948 186.109977 
L 257.79144 185.802162 
L 259.593932 184.389379 
L 261.396424 187.84949 
L 263.198916 189.280148 
L 265.001407 185.3793 
L 266.803899 188.501689 
L 268.606391 181.303222 
L 270.408883 181.083893 
L 272.211375 177.92666 
L 274.013867 185.213939 
L 275.816359 185.470669 
L 277.618851 187.125289 
L 279.421343 190.15128 
L 281.223835 185.833985 
L 283.026327 192.217192 
L 284.828819 205.116114 
L 286.631311 204.341989 
L 288.433802 198.863851 
L 290.236294 197.392478 
L 292.038786 196.798007 
L 293.841278 202.842823 
L 295.64377 200.473285 
L 297.446262 201.495015 
L 299.248754 202.926597 
L 301.051246 206.797007 
L 302.853738 209.968129 
L 304.65623 215.700112 
L 306.458722 210.136932 
L 308.261214 215.431397 
L 310.063706 208.894836 
L 311.866198 200.258106 
L 313.668689 198.99463 
L 315.471181 192.102496 
L 317.273673 195.532485 
L 319.076165 185.446858 
L 320.878657 176.296952 
L 322.681149 172.196428 
L 324.483641 168.95717 
L 326.286133 167.578236 
L 328.088625 168.51479 
L 329.891117 159.060175 
L 331.693609 158.854564 
L 333.496101 156.211754 
L 335.298593 149.491726 
L 337.101084 146.648976 
L 338.903576 149.046194 
L 340.706068 142.033782 
L 342.50856 142.912647 
L 344.311052 131.918607 
L 346.113544 128.675707 
L 347.916036 132.863994 
L 349.718528 137.336671 
L 351.52102 141.458697 
L 353.323512 136.526076 
L 355.126004 141.533993 
L 356.928496 140.691288 
L 358.730988 141.579913 
L 360.533479 144.709984 
L 362.335971 146.921629 
L 364.138463 144.566771 
L 365.940955 149.895705 
L 367.743447 150.581785 
L 369.545939 148.06518 
L 371.348431 159.651392 
L 373.150923 162.715195 
L 374.953415 157.751247 
L 376.755907 162.963368 
L 378.558399 167.078446 
L 380.360891 176.978623 
L 382.163383 176.587861 
L 383.965874 182.340119 
L 385.768366 188.631492 
L 387.570858 193.966908 
L 389.37335 200.412019 
L 391.175842 201.655212 
L 392.978334 202.04876 
L 394.780826 206.607531 
L 396.583318 203.522992 
L 398.38581 203.85658 
L 400.188302 204.890984 
L 401.990794 202.322282 
L 403.793286 202.425829 
L 405.595778 203.95547 
L 407.398269 193.303455 
L 409.200761 187.917303 
L 411.003253 190.540215 
L 412.805745 189.491039 
L 414.608237 192.459018 
L 416.410729 185.904887 
L 418.213221 198.026132 
L 420.015713 196.294957 
L 421.818205 182.695139 
L 423.620697 174.562403 
L 425.423189 170.734703 
L 427.225681 169.302946 
L 429.028173 168.078986 
L 430.830665 166.07551 
L 432.633156 170.167307 
L 434.435648 176.598595 
L 436.23814 175.536563 
L 438.040632 184.644298 
L 439.843124 182.079157 
L 441.645616 182.929551 
L 443.448108 188.53147 
L 445.2506 191.502287 
L 447.053092 188.5732 
L 448.855584 183.995542 
L 450.658076 174.843627 
L 452.460568 177.961445 
L 454.26306 170.17257 
L 456.065551 173.478495 
L 457.868043 173.005873 
L 459.670535 175.287099 
L 461.473027 179.865387 
L 463.275519 179.491136 
L 465.078011 181.132639 
L 466.880503 175.617449 
L 468.682995 174.888178 
L 470.485487 171.732226 
L 472.287979 173.273504 
L 474.090471 170.155299 
L 475.892963 172.758541 
L 477.695455 172.469361 
L 477.695455 172.469361 
" style="fill:none;stroke:#cc3311;stroke-linecap:square;stroke-width:0.5;"/>
    <defs>
     <path d="M 0 2.5 
C 0.663008 2.5 1.29895 2.236584 1.767767 1.767767 
C 2.236584 1.29895 2.5 0.663008 2.5 0 
C 2.5 -0.663008 2.236584 -1.29895 1.767767 -1.767767 
C 1.29895 -2.236584 0.663008 -2.5 0 -2.5 
C -0.663008 -2.5 -1.29895 -2.236584 -1.767767 -1.767767 
C -2.236584 -1.29895 -2.5 -0.663008 -2.5 0 
C -2.5 0.663008 -2.236584 1.29895 -1.767767 1.767767 
C -1.29895 2.236584 -0.663008 2.5 0 2.5 
z
" id="m4ae4efb420" style="stroke:#cc3311;"/>
    </defs>
    <g clip-path="url(#pe5b88a7b57)">
     <use style="fill:#cc3311;stroke:#cc3311;" x="122.604545" xlink:href="#m4ae4efb420" y="252.33041"/>
     <use style="fill:#cc3311;stroke:#cc3311;" x="140.629465" xlink:href="#m4ae4efb420" y="313.64132"/>
     <use style="fill:#cc3311;stroke:#cc3311;" x="158.654384" xlink:href="#m4ae4efb420" y="330.725133"/>
     <use style="fill:#cc3311;stroke:#cc3311;" x="176.679303" xlink:href="#m4ae4efb420" y="294.675488"/>
     <use style="fill:#cc3311;stroke:#cc3311;" x="194.704222" xlink:href="#m4ae4efb420" y="246.569988"/>
     <use style="fill:#cc3311;stroke:#cc3311;" x="212.729142" xlink:href="#m4ae4efb420" y="234.56886"/>
     <use style="fill:#cc3311;stroke:#cc3311;" x="230.754061" xlink:href="#m4ae4efb420" y="208.66216"/>
     <use style="fill:#cc3311;stroke:#cc3311;" x="248.77898" xlink:href="#m4ae4efb420" y="186.240379"/>
     <use style="fill:#cc3311;stroke:#cc3311;" x="266.803899" xlink:href="#m4ae4efb420" y="188.501689"/>
     <use style="fill:#cc3311;stroke:#cc3311;" x="284.828819" xlink:href="#m4ae4efb420" y="205.116114"/>
     <use style="fill:#cc3311;stroke:#cc3311;" x="302.853738" xlink:href="#m4ae4efb420" y="209.968129"/>
     <use style="fill:#cc3311;stroke:#cc3311;" x="320.878657" xlink:href="#m4ae4efb420" y="176.296952"/>
     <use style="fill:#cc3311;stroke:#cc3311;" x="338.903576" xlink:href="#m4ae4efb420" y="149.046194"/>
     <use style="fill:#cc3311;stroke:#cc3311;" x="356.928496" xlink:href="#m4ae4efb420" y="140.691288"/>
     <use style="fill:#cc3311;stroke:#cc3311;" x="374.953415" xlink:href="#m4ae4efb420" y="157.751247"/>
     <use style="fill:#cc3311;stroke:#cc3311;" x="392.978334" xlink:href="#m4ae4efb420" y="202.04876"/>
     <use style="fill:#cc3311;stroke:#cc3311;" x="411.003253" xlink:href="#m4ae4efb420" y="190.540215"/>
     <use style="fill:#cc3311;stroke:#cc3311;" x="429.028173" xlink:href="#m4ae4efb420" y="168.078986"/>
     <use style="fill:#cc3311;stroke:#cc3311;" x="447.053092" xlink:href="#m4ae4efb420" y="188.5732"/>
     <use style="fill:#cc3311;stroke:#cc3311;" x="465.078011" xlink:href="#m4ae4efb420" y="181.132639"/>
    </g>
   </g>
   <g id="line2d_21"/>
   <g id="line2d_22"/>
   <g id="line2d_23"/>
   <g id="line2d_24"/>
   <g id="line2d_25">
    <path clip-path="url(#pe5b88a7b57)" d="M 122.604545 374.256228 
L 124.407037 332.107603 
L 126.209529 263.777539 
L 128.012021 270.813855 
L 129.814513 302.779117 
L 131.617005 275.367189 
L 133.419497 291.005736 
L 135.221989 270.26903 
L 137.024481 277.669137 
L 140.629465 272.26822 
L 142.431957 273.179253 
L 146.03694 266.82368 
L 147.839432 264.077429 
L 149.641924 259.828555 
L 151.444416 256.416682 
L 153.246908 255.631445 
L 155.0494 250.893845 
L 156.851892 243.76425 
L 158.654384 232.922392 
L 160.456876 225.291931 
L 162.259368 235.531713 
L 164.06186 230.654484 
L 165.864352 217.272776 
L 167.666844 216.972771 
L 169.469335 201.347816 
L 171.271827 203.39519 
L 173.074319 197.33459 
L 176.679303 188.651632 
L 178.481795 183.460382 
L 180.284287 174.910101 
L 182.086779 173.143589 
L 183.889271 172.576461 
L 185.691763 172.958694 
L 187.494255 170.136891 
L 189.296747 168.221008 
L 191.099239 164.367823 
L 192.901731 164.744731 
L 194.704222 169.17211 
L 196.506714 167.802409 
L 198.309206 160.710937 
L 200.111698 157.414686 
L 201.91419 158.059659 
L 203.716682 157.685226 
L 205.519174 163.265184 
L 207.321666 162.370777 
L 209.124158 160.296624 
L 210.92665 163.815478 
L 214.531634 166.945919 
L 216.334126 170.919074 
L 218.136617 171.818234 
L 219.939109 165.983579 
L 221.741601 165.675433 
L 223.544093 169.379862 
L 225.346585 166.548846 
L 227.149077 168.21193 
L 228.951569 171.306588 
L 230.754061 165.040057 
L 232.556553 168.689819 
L 234.359045 168.98132 
L 236.161537 170.384238 
L 237.964029 165.990721 
L 239.766521 171.581251 
L 241.569012 166.65358 
L 243.371504 166.176423 
L 245.173996 162.441657 
L 246.976488 159.028244 
L 248.77898 151.840309 
L 250.581472 146.696517 
L 252.383964 158.98567 
L 254.186456 155.636568 
L 255.988948 156.590418 
L 257.79144 151.726394 
L 259.593932 150.271955 
L 261.396424 152.865794 
L 263.198916 160.021544 
L 265.001407 155.83593 
L 266.803899 155.821274 
L 268.606391 151.439387 
L 270.408883 147.669132 
L 272.211375 148.317505 
L 274.013867 150.402627 
L 275.816359 146.004243 
L 277.618851 153.300565 
L 279.421343 156.879178 
L 281.223835 155.872491 
L 283.026327 157.066382 
L 284.828819 161.816427 
L 286.631311 168.104037 
L 288.433802 155.039223 
L 290.236294 156.806503 
L 292.038786 157.528933 
L 293.841278 164.431182 
L 295.64377 163.231377 
L 297.446262 161.594487 
L 299.248754 159.629824 
L 301.051246 169.820254 
L 302.853738 173.07773 
L 304.65623 179.333608 
L 306.458722 180.954656 
L 308.261214 182.331914 
L 310.063706 185.849878 
L 311.866198 180.14261 
L 315.471181 167.105241 
L 317.273673 170.580581 
L 319.076165 164.250324 
L 320.878657 163.818045 
L 322.681149 160.249494 
L 324.483641 160.340603 
L 326.286133 156.01325 
L 328.088625 161.294985 
L 329.891117 151.559894 
L 331.693609 150.607398 
L 333.496101 150.913944 
L 335.298593 149.012046 
L 337.101084 140.137712 
L 338.903576 143.299583 
L 340.706068 137.83671 
L 342.50856 135.413526 
L 344.311052 128.616236 
L 346.113544 124.651813 
L 347.916036 131.071461 
L 349.718528 140.312065 
L 351.52102 145.596591 
L 353.323512 141.80734 
L 355.126004 147.108191 
L 356.928496 147.766945 
L 358.730988 145.076055 
L 360.533479 148.491183 
L 362.335971 150.400151 
L 364.138463 145.90824 
L 365.940955 151.803809 
L 367.743447 156.291717 
L 369.545939 155.033054 
L 371.348431 160.441296 
L 373.150923 166.775145 
L 374.953415 163.535507 
L 376.755907 166.909721 
L 378.558399 172.688501 
L 380.360891 180.570921 
L 382.163383 178.434878 
L 383.965874 181.3739 
L 385.768366 179.678096 
L 387.570858 180.968053 
L 389.37335 185.667149 
L 391.175842 187.185175 
L 392.978334 184.923049 
L 394.780826 190.826369 
L 396.583318 186.882236 
L 398.38581 188.093322 
L 400.188302 189.97924 
L 401.990794 187.99243 
L 403.793286 182.577479 
L 405.595778 185.356164 
L 407.398269 175.582818 
L 409.200761 169.289362 
L 411.003253 169.834942 
L 412.805745 168.785766 
L 414.608237 169.47696 
L 416.410729 164.948069 
L 418.213221 176.783561 
L 420.015713 176.210636 
L 421.818205 169.527589 
L 423.620697 167.574268 
L 425.423189 164.62266 
L 427.225681 162.905918 
L 429.028173 161.976637 
L 430.830665 160.23446 
L 432.633156 164.614826 
L 434.435648 164.367304 
L 436.23814 162.447768 
L 438.040632 171.27058 
L 439.843124 172.338858 
L 441.645616 167.792123 
L 443.448108 174.568262 
L 445.2506 177.605697 
L 447.053092 180.098698 
L 448.855584 178.371388 
L 450.658076 170.908596 
L 452.460568 172.216726 
L 454.26306 164.713603 
L 456.065551 169.132816 
L 457.868043 168.369888 
L 459.670535 164.679684 
L 461.473027 167.32665 
L 463.275519 167.241739 
L 465.078011 170.333659 
L 466.880503 164.238936 
L 468.682995 163.795633 
L 470.485487 166.749109 
L 472.287979 169.432168 
L 474.090471 161.748375 
L 475.892963 160.525936 
L 477.695455 161.390431 
L 477.695455 161.390431 
" style="fill:none;stroke:#009988;stroke-dasharray:1.85,0.8;stroke-dashoffset:0;stroke-width:0.5;"/>
    <defs>
     <path d="M -2.5 2.5 
L 2.5 2.5 
L 2.5 -2.5 
L -2.5 -2.5 
z
" id="mbfdb248279" style="stroke:#009988;stroke-linejoin:miter;"/>
    </defs>
    <g clip-path="url(#pe5b88a7b57)">
     <use style="fill:#009988;stroke:#009988;stroke-linejoin:miter;" x="122.604545" xlink:href="#mbfdb248279" y="374.256228"/>
     <use style="fill:#009988;stroke:#009988;stroke-linejoin:miter;" x="140.629465" xlink:href="#mbfdb248279" y="272.26822"/>
     <use style="fill:#009988;stroke:#009988;stroke-linejoin:miter;" x="158.654384" xlink:href="#mbfdb248279" y="232.922392"/>
     <use style="fill:#009988;stroke:#009988;stroke-linejoin:miter;" x="176.679303" xlink:href="#mbfdb248279" y="188.651632"/>
     <use style="fill:#009988;stroke:#009988;stroke-linejoin:miter;" x="194.704222" xlink:href="#mbfdb248279" y="169.17211"/>
     <use style="fill:#009988;stroke:#009988;stroke-linejoin:miter;" x="212.729142" xlink:href="#mbfdb248279" y="165.440696"/>
     <use style="fill:#009988;stroke:#009988;stroke-linejoin:miter;" x="230.754061" xlink:href="#mbfdb248279" y="165.040057"/>
     <use style="fill:#009988;stroke:#009988;stroke-linejoin:miter;" x="248.77898" xlink:href="#mbfdb248279" y="151.840309"/>
     <use style="fill:#009988;stroke:#009988;stroke-linejoin:miter;" x="266.803899" xlink:href="#mbfdb248279" y="155.821274"/>
     <use style="fill:#009988;stroke:#009988;stroke-linejoin:miter;" x="284.828819" xlink:href="#mbfdb248279" y="161.816427"/>
     <use style="fill:#009988;stroke:#009988;stroke-linejoin:miter;" x="302.853738" xlink:href="#mbfdb248279" y="173.07773"/>
     <use style="fill:#009988;stroke:#009988;stroke-linejoin:miter;" x="320.878657" xlink:href="#mbfdb248279" y="163.818045"/>
     <use style="fill:#009988;stroke:#009988;stroke-linejoin:miter;" x="338.903576" xlink:href="#mbfdb248279" y="143.299583"/>
     <use style="fill:#009988;stroke:#009988;stroke-linejoin:miter;" x="356.928496" xlink:href="#mbfdb248279" y="147.766945"/>
     <use style="fill:#009988;stroke:#009988;stroke-linejoin:miter;" x="374.953415" xlink:href="#mbfdb248279" y="163.535507"/>
     <use style="fill:#009988;stroke:#009988;stroke-linejoin:miter;" x="392.978334" xlink:href="#mbfdb248279" y="184.923049"/>
     <use style="fill:#009988;stroke:#009988;stroke-linejoin:miter;" x="411.003253" xlink:href="#mbfdb248279" y="169.834942"/>
     <use style="fill:#009988;stroke:#009988;stroke-linejoin:miter;" x="429.028173" xlink:href="#mbfdb248279" y="161.976637"/>
     <use style="fill:#009988;stroke:#009988;stroke-linejoin:miter;" x="447.053092" xlink:href="#mbfdb248279" y="180.098698"/>
     <use style="fill:#009988;stroke:#009988;stroke-linejoin:miter;" x="465.078011" xlink:href="#mbfdb248279" y="170.333659"/>
    </g>
   </g>
   <g id="line2d_26"/>
   <g id="line2d_27"/>
   <g id="line2d_28"/>
   <g id="line2d_29"/>
   <g id="line2d_30">
    <path clip-path="url(#pe5b88a7b57)" d="M 122.604545 376.651813 
L 124.407037 332.75127 
L 126.209529 298.927145 
L 128.012021 294.607811 
L 129.814513 319.519714 
L 131.617005 293.141543 
L 135.221989 261.623891 
L 137.024481 269.352131 
L 138.826973 267.982214 
L 140.629465 265.475646 
L 142.431957 268.393816 
L 144.234449 263.539434 
L 146.03694 265.532146 
L 147.839432 265.571579 
L 149.641924 260.543644 
L 151.444416 259.150414 
L 153.246908 257.91889 
L 155.0494 252.198756 
L 156.851892 247.963491 
L 158.654384 237.861379 
L 160.456876 232.326898 
L 162.259368 236.045342 
L 164.06186 230.364015 
L 165.864352 218.71109 
L 167.666844 217.842283 
L 169.469335 213.322255 
L 171.271827 214.506105 
L 173.074319 208.970003 
L 174.876811 205.091657 
L 176.679303 199.647826 
L 178.481795 195.037268 
L 182.086779 183.366102 
L 183.889271 182.186212 
L 185.691763 180.520281 
L 187.494255 176.810472 
L 189.296747 175.73304 
L 191.099239 174.996974 
L 192.901731 174.140127 
L 194.704222 177.995427 
L 196.506714 176.787168 
L 198.309206 171.883982 
L 200.111698 170.480687 
L 201.91419 171.683846 
L 203.716682 172.5166 
L 205.519174 177.526348 
L 207.321666 176.043838 
L 209.124158 175.746029 
L 210.92665 179.268021 
L 212.729142 183.825375 
L 214.531634 183.598254 
L 216.334126 186.995095 
L 218.136617 189.293432 
L 219.939109 183.184287 
L 221.741601 182.928498 
L 223.544093 182.081288 
L 225.346585 180.593543 
L 227.149077 183.818158 
L 228.951569 186.630883 
L 230.754061 182.075997 
L 232.556553 187.144987 
L 234.359045 187.729206 
L 236.161537 189.708762 
L 237.964029 183.887947 
L 239.766521 183.945877 
L 241.569012 179.595354 
L 243.371504 179.118196 
L 245.173996 173.653546 
L 246.976488 173.732575 
L 248.77898 165.121601 
L 250.581472 164.228465 
L 252.383964 173.933999 
L 254.186456 170.015912 
L 255.988948 170.119188 
L 257.79144 168.086847 
L 259.593932 172.949118 
L 261.396424 174.208145 
L 263.198916 178.072854 
L 265.001407 174.798341 
L 266.803899 172.499991 
L 268.606391 165.064733 
L 270.408883 161.000688 
L 272.211375 161.365809 
L 274.013867 163.449398 
L 275.816359 162.798072 
L 277.618851 172.726288 
L 279.421343 174.466616 
L 281.223835 173.47048 
L 283.026327 170.57867 
L 284.828819 179.203599 
L 286.631311 184.981878 
L 288.433802 173.631697 
L 290.236294 175.96773 
L 292.038786 179.744659 
L 293.841278 186.936445 
L 295.64377 180.919354 
L 299.248754 175.284568 
L 301.051246 180.387558 
L 302.853738 183.929638 
L 304.65623 189.617647 
L 306.458722 186.786855 
L 308.261214 188.161678 
L 310.063706 188.640969 
L 311.866198 185.700007 
L 313.668689 178.596284 
L 315.471181 173.541439 
L 317.273673 177.577144 
L 319.076165 170.960393 
L 320.878657 167.222636 
L 322.681149 161.654668 
L 324.483641 162.322799 
L 326.286133 160.555771 
L 328.088625 160.618823 
L 329.891117 150.880324 
L 331.693609 152.695959 
L 333.496101 153.585696 
L 335.298593 153.410644 
L 337.101084 147.268763 
L 338.903576 151.862392 
L 340.706068 143.714089 
L 342.50856 145.161101 
L 344.311052 137.777355 
L 346.113544 137.150241 
L 347.916036 141.951987 
L 349.718528 149.532199 
L 351.52102 153.271387 
L 353.323512 149.201948 
L 355.126004 154.785274 
L 356.928496 153.094882 
L 358.730988 152.289413 
L 360.533479 155.70322 
L 362.335971 155.365272 
L 364.138463 153.602199 
L 365.940955 159.792573 
L 367.743447 161.529605 
L 369.545939 161.9793 
L 371.348431 166.244193 
L 373.150923 168.34304 
L 374.953415 162.075171 
L 376.755907 169.006707 
L 378.558399 172.317018 
L 380.360891 181.367818 
L 382.163383 180.377031 
L 383.965874 181.490879 
L 385.768366 179.47782 
L 387.570858 183.454568 
L 389.37335 190.188309 
L 392.978334 192.699955 
L 394.780826 193.666314 
L 396.583318 190.011495 
L 398.38581 190.052236 
L 400.188302 192.23924 
L 401.990794 190.243792 
L 403.793286 187.294228 
L 405.595778 186.127146 
L 407.398269 176.069832 
L 409.200761 172.80277 
L 411.003253 174.647993 
L 412.805745 173.871929 
L 414.608237 175.658316 
L 416.410729 169.968538 
L 418.213221 172.572519 
L 420.015713 171.79102 
L 421.818205 164.255856 
L 423.620697 161.733198 
L 425.423189 157.039779 
L 427.225681 156.186187 
L 429.028173 154.080167 
L 430.830665 155.097476 
L 432.633156 158.903304 
L 434.435648 159.512269 
L 436.23814 157.297637 
L 438.040632 166.118021 
L 439.843124 167.758492 
L 441.645616 168.626424 
L 443.448108 174.208261 
L 445.2506 178.739269 
L 447.053092 182.394101 
L 448.855584 177.531925 
L 450.658076 175.023242 
L 452.460568 178.443381 
L 454.26306 179.605146 
L 456.065551 180.942349 
L 457.868043 180.179421 
L 459.670535 177.364788 
L 461.473027 179.428402 
L 463.275519 179.052358 
L 465.078011 182.434053 
L 466.880503 177.209648 
L 468.682995 177.059072 
L 470.485487 179.44067 
L 472.287979 185.220736 
L 474.090471 177.832977 
L 475.892963 176.616785 
L 477.695455 174.304022 
L 477.695455 174.304022 
" style="fill:none;stroke:#0077bb;stroke-dasharray:3.2,0.8,0.5,0.8;stroke-dashoffset:0;stroke-width:0.5;"/>
    <defs>
     <path d="M 0 -2.5 
L -2.5 2.5 
L 2.5 2.5 
z
" id="me9df896e52" style="stroke:#0077bb;stroke-linejoin:miter;"/>
    </defs>
    <g clip-path="url(#pe5b88a7b57)">
     <use style="fill:#0077bb;stroke:#0077bb;stroke-linejoin:miter;" x="122.604545" xlink:href="#me9df896e52" y="376.651813"/>
     <use style="fill:#0077bb;stroke:#0077bb;stroke-linejoin:miter;" x="140.629465" xlink:href="#me9df896e52" y="265.475646"/>
     <use style="fill:#0077bb;stroke:#0077bb;stroke-linejoin:miter;" x="158.654384" xlink:href="#me9df896e52" y="237.861379"/>
     <use style="fill:#0077bb;stroke:#0077bb;stroke-linejoin:miter;" x="176.679303" xlink:href="#me9df896e52" y="199.647826"/>
     <use style="fill:#0077bb;stroke:#0077bb;stroke-linejoin:miter;" x="194.704222" xlink:href="#me9df896e52" y="177.995427"/>
     <use style="fill:#0077bb;stroke:#0077bb;stroke-linejoin:miter;" x="212.729142" xlink:href="#me9df896e52" y="183.825375"/>
     <use style="fill:#0077bb;stroke:#0077bb;stroke-linejoin:miter;" x="230.754061" xlink:href="#me9df896e52" y="182.075997"/>
     <use style="fill:#0077bb;stroke:#0077bb;stroke-linejoin:miter;" x="248.77898" xlink:href="#me9df896e52" y="165.121601"/>
     <use style="fill:#0077bb;stroke:#0077bb;stroke-linejoin:miter;" x="266.803899" xlink:href="#me9df896e52" y="172.499991"/>
     <use style="fill:#0077bb;stroke:#0077bb;stroke-linejoin:miter;" x="284.828819" xlink:href="#me9df896e52" y="179.203599"/>
     <use style="fill:#0077bb;stroke:#0077bb;stroke-linejoin:miter;" x="302.853738" xlink:href="#me9df896e52" y="183.929638"/>
     <use style="fill:#0077bb;stroke:#0077bb;stroke-linejoin:miter;" x="320.878657" xlink:href="#me9df896e52" y="167.222636"/>
     <use style="fill:#0077bb;stroke:#0077bb;stroke-linejoin:miter;" x="338.903576" xlink:href="#me9df896e52" y="151.862392"/>
     <use style="fill:#0077bb;stroke:#0077bb;stroke-linejoin:miter;" x="356.928496" xlink:href="#me9df896e52" y="153.094882"/>
     <use style="fill:#0077bb;stroke:#0077bb;stroke-linejoin:miter;" x="374.953415" xlink:href="#me9df896e52" y="162.075171"/>
     <use style="fill:#0077bb;stroke:#0077bb;stroke-linejoin:miter;" x="392.978334" xlink:href="#me9df896e52" y="192.699955"/>
     <use style="fill:#0077bb;stroke:#0077bb;stroke-linejoin:miter;" x="411.003253" xlink:href="#me9df896e52" y="174.647993"/>
     <use style="fill:#0077bb;stroke:#0077bb;stroke-linejoin:miter;" x="429.028173" xlink:href="#me9df896e52" y="154.080167"/>
     <use style="fill:#0077bb;stroke:#0077bb;stroke-linejoin:miter;" x="447.053092" xlink:href="#me9df896e52" y="182.394101"/>
     <use style="fill:#0077bb;stroke:#0077bb;stroke-linejoin:miter;" x="465.078011" xlink:href="#me9df896e52" y="182.434053"/>
    </g>
   </g>
   <g id="line2d_31"/>
   <g id="line2d_32"/>
   <g id="line2d_33"/>
   <g id="line2d_34"/>
   <g id="line2d_35">
    <path clip-path="url(#pe5b88a7b57)" d="M 122.604545 354.873934 
L 124.407037 333.512284 
L 126.209529 316.93441 
L 128.012021 317.927808 
L 129.814513 337.029459 
L 131.617005 298.099368 
L 133.419497 286.837808 
L 135.221989 271.962666 
L 137.024481 277.278394 
L 138.826973 273.961423 
L 140.629465 270.39894 
L 142.431957 268.06719 
L 144.234449 266.657105 
L 146.03694 267.629214 
L 147.839432 267.528842 
L 149.641924 263.846863 
L 151.444416 263.29246 
L 153.246908 259.577112 
L 155.0494 254.68806 
L 156.851892 251.485664 
L 158.654384 249.034097 
L 160.456876 242.626823 
L 162.259368 244.868101 
L 164.06186 238.088507 
L 165.864352 227.590291 
L 167.666844 229.901004 
L 169.469335 224.281862 
L 171.271827 224.193006 
L 173.074319 219.515505 
L 174.876811 218.265923 
L 176.679303 213.685697 
L 178.481795 210.727953 
L 180.284287 202.773624 
L 182.086779 199.380131 
L 183.889271 197.917529 
L 185.691763 195.654182 
L 187.494255 192.220036 
L 189.296747 193.457934 
L 191.099239 191.849429 
L 192.901731 191.56714 
L 194.704222 184.25593 
L 196.506714 181.450581 
L 198.309206 175.107725 
L 200.111698 172.839786 
L 203.716682 173.401538 
L 205.519174 177.54684 
L 207.321666 179.612495 
L 209.124158 177.11707 
L 210.92665 178.881115 
L 212.729142 183.427035 
L 216.334126 188.416769 
L 218.136617 189.875641 
L 219.939109 184.049207 
L 221.741601 186.62361 
L 223.544093 190.575698 
L 225.346585 190.530696 
L 227.149077 191.903841 
L 228.951569 193.853054 
L 230.754061 194.762273 
L 232.556553 202.847558 
L 234.359045 203.723625 
L 236.161537 207.725441 
L 237.964029 202.477182 
L 239.766521 204.023518 
L 241.569012 199.963292 
L 243.371504 197.989489 
L 245.173996 195.005767 
L 246.976488 192.729371 
L 248.77898 183.548018 
L 250.581472 181.793416 
L 252.383964 191.513676 
L 254.186456 187.313787 
L 255.988948 187.70409 
L 257.79144 182.551848 
L 259.593932 181.750235 
L 261.396424 181.570757 
L 263.198916 187.002565 
L 265.001407 180.504684 
L 266.803899 177.91646 
L 268.606391 169.053974 
L 270.408883 164.98993 
L 272.211375 163.332791 
L 275.816359 161.53752 
L 277.618851 169.146062 
L 279.421343 169.711877 
L 281.223835 168.142521 
L 283.026327 168.173024 
L 284.828819 172.629717 
L 286.631311 172.649852 
L 288.433802 162.153933 
L 290.236294 164.199072 
L 292.038786 164.91408 
L 293.841278 171.17932 
L 295.64377 165.460177 
L 297.446262 162.950119 
L 299.248754 159.399172 
L 301.051246 166.277133 
L 302.853738 170.114977 
L 304.65623 173.296522 
L 306.458722 171.049812 
L 308.261214 172.135746 
L 310.063706 174.971715 
L 311.866198 168.672007 
L 315.471181 158.830031 
L 317.273673 162.57981 
L 319.076165 155.102569 
L 320.878657 155.817998 
L 322.681149 153.461786 
L 324.483641 154.126149 
L 326.286133 149.518364 
L 328.088625 152.652115 
L 329.891117 144.414099 
L 331.693609 145.932559 
L 333.496101 146.530087 
L 335.298593 144.361846 
L 337.101084 138.799981 
L 338.903576 142.528473 
L 340.706068 137.167311 
L 342.50856 139.970175 
L 344.311052 132.875318 
L 346.113544 131.956551 
L 349.718528 142.650084 
L 351.52102 145.51185 
L 353.323512 142.3061 
L 355.126004 148.172064 
L 356.928496 146.778172 
L 358.730988 148.519789 
L 360.533479 152.21783 
L 362.335971 153.84914 
L 364.138463 151.790264 
L 367.743447 161.298303 
L 369.545939 161.457016 
L 371.348431 169.001782 
L 373.150923 174.065682 
L 374.953415 170.272995 
L 376.755907 176.348874 
L 378.558399 177.433632 
L 380.360891 184.482845 
L 382.163383 183.78371 
L 383.965874 185.393506 
L 385.768366 185.322436 
L 387.570858 187.2985 
L 389.37335 193.743392 
L 391.175842 194.986584 
L 392.978334 195.387713 
L 394.780826 195.49303 
L 396.583318 191.554786 
L 398.38581 191.31748 
L 400.188302 193.504485 
L 401.990794 193.236568 
L 403.793286 186.975901 
L 405.595778 185.241307 
L 407.398269 175.762367 
L 409.200761 169.82038 
L 411.003253 170.081455 
L 412.805745 168.73719 
L 414.608237 168.60791 
L 416.410729 165.20708 
L 418.213221 168.972825 
L 420.015713 169.933337 
L 421.818205 162.107866 
L 423.620697 159.45641 
L 425.423189 153.893958 
L 427.225681 158.457227 
L 429.028173 157.227151 
L 430.830665 157.947817 
L 432.633156 162.611003 
L 434.435648 164.941515 
L 436.23814 163.872555 
L 438.040632 169.439049 
L 439.843124 170.790612 
L 441.645616 171.646845 
L 447.053092 186.068923 
L 448.855584 184.340958 
L 450.658076 184.033563 
L 452.460568 187.45887 
L 454.26306 186.877644 
L 456.065551 190.769872 
L 457.868043 193.021403 
L 459.670535 192.635886 
L 461.473027 195.853267 
L 463.275519 190.05634 
L 465.078011 192.564929 
L 466.880503 187.922298 
L 468.682995 186.334119 
L 472.287979 190.531199 
L 474.090471 185.248816 
L 475.892963 185.195541 
L 477.695455 184.039162 
L 477.695455 184.039162 
" style="fill:none;stroke:#ee7733;stroke-dasharray:0.5,0.825;stroke-dashoffset:0;stroke-width:0.5;"/>
    <defs>
     <path d="M 0 -2.5 
L -0.561285 -0.772542 
L -2.377641 -0.772542 
L -0.908178 0.295085 
L -1.469463 2.022542 
L -0 0.954915 
L 1.469463 2.022542 
L 0.908178 0.295085 
L 2.377641 -0.772542 
L 0.561285 -0.772542 
z
" id="m0fbef947c8" style="stroke:#ee7733;stroke-linejoin:bevel;"/>
    </defs>
    <g clip-path="url(#pe5b88a7b57)">
     <use style="fill:#ee7733;stroke:#ee7733;stroke-linejoin:bevel;" x="122.604545" xlink:href="#m0fbef947c8" y="354.873934"/>
     <use style="fill:#ee7733;stroke:#ee7733;stroke-linejoin:bevel;" x="140.629465" xlink:href="#m0fbef947c8" y="270.39894"/>
     <use style="fill:#ee7733;stroke:#ee7733;stroke-linejoin:bevel;" x="158.654384" xlink:href="#m0fbef947c8" y="249.034097"/>
     <use style="fill:#ee7733;stroke:#ee7733;stroke-linejoin:bevel;" x="176.679303" xlink:href="#m0fbef947c8" y="213.685697"/>
     <use style="fill:#ee7733;stroke:#ee7733;stroke-linejoin:bevel;" x="194.704222" xlink:href="#m0fbef947c8" y="184.25593"/>
     <use style="fill:#ee7733;stroke:#ee7733;stroke-linejoin:bevel;" x="212.729142" xlink:href="#m0fbef947c8" y="183.427035"/>
     <use style="fill:#ee7733;stroke:#ee7733;stroke-linejoin:bevel;" x="230.754061" xlink:href="#m0fbef947c8" y="194.762273"/>
     <use style="fill:#ee7733;stroke:#ee7733;stroke-linejoin:bevel;" x="248.77898" xlink:href="#m0fbef947c8" y="183.548018"/>
     <use style="fill:#ee7733;stroke:#ee7733;stroke-linejoin:bevel;" x="266.803899" xlink:href="#m0fbef947c8" y="177.91646"/>
     <use style="fill:#ee7733;stroke:#ee7733;stroke-linejoin:bevel;" x="284.828819" xlink:href="#m0fbef947c8" y="172.629717"/>
     <use style="fill:#ee7733;stroke:#ee7733;stroke-linejoin:bevel;" x="302.853738" xlink:href="#m0fbef947c8" y="170.114977"/>
     <use style="fill:#ee7733;stroke:#ee7733;stroke-linejoin:bevel;" x="320.878657" xlink:href="#m0fbef947c8" y="155.817998"/>
     <use style="fill:#ee7733;stroke:#ee7733;stroke-linejoin:bevel;" x="338.903576" xlink:href="#m0fbef947c8" y="142.528473"/>
     <use style="fill:#ee7733;stroke:#ee7733;stroke-linejoin:bevel;" x="356.928496" xlink:href="#m0fbef947c8" y="146.778172"/>
     <use style="fill:#ee7733;stroke:#ee7733;stroke-linejoin:bevel;" x="374.953415" xlink:href="#m0fbef947c8" y="170.272995"/>
     <use style="fill:#ee7733;stroke:#ee7733;stroke-linejoin:bevel;" x="392.978334" xlink:href="#m0fbef947c8" y="195.387713"/>
     <use style="fill:#ee7733;stroke:#ee7733;stroke-linejoin:bevel;" x="411.003253" xlink:href="#m0fbef947c8" y="170.081455"/>
     <use style="fill:#ee7733;stroke:#ee7733;stroke-linejoin:bevel;" x="429.028173" xlink:href="#m0fbef947c8" y="157.227151"/>
     <use style="fill:#ee7733;stroke:#ee7733;stroke-linejoin:bevel;" x="447.053092" xlink:href="#m0fbef947c8" y="186.068923"/>
     <use style="fill:#ee7733;stroke:#ee7733;stroke-linejoin:bevel;" x="465.078011" xlink:href="#m0fbef947c8" y="192.564929"/>
    </g>
   </g>
   <g id="line2d_36"/>
   <g id="line2d_37"/>
   <g id="line2d_38"/>
   <g id="line2d_39"/>
   <g id="patch_3">
    <path d="M 104.85 389.251813 
L 104.85 112.051813 
" style="fill:none;stroke:#000000;stroke-linecap:square;stroke-linejoin:miter;stroke-width:0.8;"/>
   </g>
   <g id="patch_4">
    <path d="M 495.45 389.251813 
L 495.45 112.051813 
" style="fill:none;stroke:#000000;stroke-linecap:square;stroke-linejoin:miter;stroke-width:0.8;"/>
   </g>
   <g id="patch_5">
    <path d="M 104.85 389.251812 
L 495.45 389.251812 
" style="fill:none;stroke:#000000;stroke-linecap:square;stroke-linejoin:miter;stroke-width:0.8;"/>
   </g>
   <g id="patch_6">
    <path d="M 104.85 112.051812 
L 495.45 112.051812 
" style="fill:none;stroke:#000000;stroke-linecap:square;stroke-linejoin:miter;stroke-width:0.8;"/>
   </g>
   <g id="legend_1">
    <g id="line2d_40"/>
    <g id="line2d_41"/>
    <g id="text_17">
     <!--   -->
     <g transform="translate(48.8 22.277969)scale(0.13 -0.13)">
      <use xlink:href="#DejaVuSans-32"/>
     </g>
    </g>
    <g id="line2d_42"/>
    <g id="line2d_43"/>
    <g id="text_18">
     <!-- start -->
     <g transform="translate(48.8 41.359531)scale(0.13 -0.13)">
      <use xlink:href="#DejaVuSans-115"/>
      <use x="52.099609" xlink:href="#DejaVuSans-116"/>
      <use x="91.308594" xlink:href="#DejaVuSans-97"/>
      <use x="152.587891" xlink:href="#DejaVuSans-114"/>
      <use x="193.701172" xlink:href="#DejaVuSans-116"/>
     </g>
    </g>
    <g id="line2d_44"/>
    <g id="line2d_45"/>
    <g id="text_19">
     <!-- pre-dirft -->
     <g transform="translate(48.8 60.441094)scale(0.13 -0.13)">
      <use xlink:href="#DejaVuSans-112"/>
      <use x="63.476562" xlink:href="#DejaVuSans-114"/>
      <use x="102.339844" xlink:href="#DejaVuSans-101"/>
      <use x="163.863281" xlink:href="#DejaVuSans-45"/>
      <use x="199.947266" xlink:href="#DejaVuSans-100"/>
      <use x="263.423828" xlink:href="#DejaVuSans-105"/>
      <use x="291.207031" xlink:href="#DejaVuSans-114"/>
      <use x="332.320312" xlink:href="#DejaVuSans-102"/>
      <use x="365.775391" xlink:href="#DejaVuSans-116"/>
     </g>
    </g>
    <g id="line2d_46"/>
    <g id="line2d_47"/>
    <g id="text_20">
     <!-- post-drift -->
     <g transform="translate(48.8 79.522656)scale(0.13 -0.13)">
      <use xlink:href="#DejaVuSans-112"/>
      <use x="63.476562" xlink:href="#DejaVuSans-111"/>
      <use x="124.658203" xlink:href="#DejaVuSans-115"/>
      <use x="176.757812" xlink:href="#DejaVuSans-116"/>
      <use x="215.966797" xlink:href="#DejaVuSans-45"/>
      <use x="252.050781" xlink:href="#DejaVuSans-100"/>
      <use x="315.527344" xlink:href="#DejaVuSans-114"/>
      <use x="356.640625" xlink:href="#DejaVuSans-105"/>
      <use x="384.423828" xlink:href="#DejaVuSans-102"/>
      <use x="417.878906" xlink:href="#DejaVuSans-116"/>
     </g>
    </g>
    <g id="line2d_48"/>
    <g id="line2d_49"/>
    <g id="text_21">
     <!-- end -->
     <g transform="translate(48.8 98.604219)scale(0.13 -0.13)">
      <use xlink:href="#DejaVuSans-101"/>
      <use x="61.523438" xlink:href="#DejaVuSans-110"/>
      <use x="124.902344" xlink:href="#DejaVuSans-100"/>
     </g>
    </g>
    <g id="line2d_50">
     <path d="M 120.892227 17.727969 
L 146.892227 17.727969 
" style="fill:none;stroke:#cc3311;stroke-linecap:square;stroke-width:0.5;"/>
    </g>
    <g id="line2d_51">
     <g>
      <use style="fill:#cc3311;stroke:#cc3311;" x="133.892227" xlink:href="#m4ae4efb420" y="17.727969"/>
     </g>
    </g>
    <g id="text_22">
     <!-- NUOB -->
     <g transform="translate(157.292227 22.277969)scale(0.13 -0.13)">
      <defs>
       <path d="M 8.6875 72.90625 
L 18.609375 72.90625 
L 18.609375 28.609375 
Q 18.609375 16.890625 22.84375 11.734375 
Q 27.09375 6.59375 36.625 6.59375 
Q 46.09375 6.59375 50.34375 11.734375 
Q 54.59375 16.890625 54.59375 28.609375 
L 54.59375 72.90625 
L 64.5 72.90625 
L 64.5 27.390625 
Q 64.5 13.140625 57.4375 5.859375 
Q 50.390625 -1.421875 36.625 -1.421875 
Q 22.796875 -1.421875 15.734375 5.859375 
Q 8.6875 13.140625 8.6875 27.390625 
z
" id="DejaVuSans-85"/>
       <path d="M 39.40625 66.21875 
Q 28.65625 66.21875 22.328125 58.203125 
Q 16.015625 50.203125 16.015625 36.375 
Q 16.015625 22.609375 22.328125 14.59375 
Q 28.65625 6.59375 39.40625 6.59375 
Q 50.140625 6.59375 56.421875 14.59375 
Q 62.703125 22.609375 62.703125 36.375 
Q 62.703125 50.203125 56.421875 58.203125 
Q 50.140625 66.21875 39.40625 66.21875 
z
M 39.40625 74.21875 
Q 54.734375 74.21875 63.90625 63.9375 
Q 73.09375 53.65625 73.09375 36.375 
Q 73.09375 19.140625 63.90625 8.859375 
Q 54.734375 -1.421875 39.40625 -1.421875 
Q 24.03125 -1.421875 14.8125 8.828125 
Q 5.609375 19.09375 5.609375 36.375 
Q 5.609375 53.65625 14.8125 63.9375 
Q 24.03125 74.21875 39.40625 74.21875 
z
" id="DejaVuSans-79"/>
       <path d="M 19.671875 34.8125 
L 19.671875 8.109375 
L 35.5 8.109375 
Q 43.453125 8.109375 47.28125 11.40625 
Q 51.125 14.703125 51.125 21.484375 
Q 51.125 28.328125 47.28125 31.5625 
Q 43.453125 34.8125 35.5 34.8125 
z
M 19.671875 64.796875 
L 19.671875 42.828125 
L 34.28125 42.828125 
Q 41.5 42.828125 45.03125 45.53125 
Q 48.578125 48.25 48.578125 53.8125 
Q 48.578125 59.328125 45.03125 62.0625 
Q 41.5 64.796875 34.28125 64.796875 
z
M 9.8125 72.90625 
L 35.015625 72.90625 
Q 46.296875 72.90625 52.390625 68.21875 
Q 58.5 63.53125 58.5 54.890625 
Q 58.5 48.1875 55.375 44.234375 
Q 52.25 40.28125 46.1875 39.3125 
Q 53.46875 37.75 57.5 32.78125 
Q 61.53125 27.828125 61.53125 20.40625 
Q 61.53125 10.640625 54.890625 5.3125 
Q 48.25 0 35.984375 0 
L 9.8125 0 
z
" id="DejaVuSans-66"/>
      </defs>
      <use xlink:href="#DejaVuSans-78"/>
      <use x="74.804688" xlink:href="#DejaVuSans-85"/>
      <use x="147.998047" xlink:href="#DejaVuSans-79"/>
      <use x="226.708984" xlink:href="#DejaVuSans-66"/>
     </g>
    </g>
    <g id="line2d_52"/>
    <g id="line2d_53"/>
    <g id="text_23">
     <!-- 0.9609 -->
     <g transform="translate(157.292227 41.359531)scale(0.13 -0.13)">
      <use xlink:href="#DejaVuSans-48"/>
      <use x="63.623047" xlink:href="#DejaVuSans-46"/>
      <use x="95.410156" xlink:href="#DejaVuSans-57"/>
      <use x="159.033203" xlink:href="#DejaVuSans-54"/>
      <use x="222.65625" xlink:href="#DejaVuSans-48"/>
      <use x="286.279297" xlink:href="#DejaVuSans-57"/>
     </g>
    </g>
    <g id="line2d_54"/>
    <g id="line2d_55"/>
    <g id="text_24">
     <!-- 0.9666 -->
     <g transform="translate(157.292227 60.441094)scale(0.13 -0.13)">
      <use xlink:href="#DejaVuSans-48"/>
      <use x="63.623047" xlink:href="#DejaVuSans-46"/>
      <use x="95.410156" xlink:href="#DejaVuSans-57"/>
      <use x="159.033203" xlink:href="#DejaVuSans-54"/>
      <use x="222.65625" xlink:href="#DejaVuSans-54"/>
      <use x="286.279297" xlink:href="#DejaVuSans-54"/>
     </g>
    </g>
    <g id="line2d_56"/>
    <g id="line2d_57"/>
    <g id="text_25">
     <!-- 0.9659 -->
     <g transform="translate(157.292227 79.522656)scale(0.13 -0.13)">
      <use xlink:href="#DejaVuSans-48"/>
      <use x="63.623047" xlink:href="#DejaVuSans-46"/>
      <use x="95.410156" xlink:href="#DejaVuSans-57"/>
      <use x="159.033203" xlink:href="#DejaVuSans-54"/>
      <use x="222.65625" xlink:href="#DejaVuSans-53"/>
      <use x="286.279297" xlink:href="#DejaVuSans-57"/>
     </g>
    </g>
    <g id="line2d_58"/>
    <g id="line2d_59"/>
    <g id="text_26">
     <!-- 0.9688 -->
     <g transform="translate(157.292227 98.604219)scale(0.13 -0.13)">
      <defs>
       <path d="M 31.78125 34.625 
Q 24.75 34.625 20.71875 30.859375 
Q 16.703125 27.09375 16.703125 20.515625 
Q 16.703125 13.921875 20.71875 10.15625 
Q 24.75 6.390625 31.78125 6.390625 
Q 38.8125 6.390625 42.859375 10.171875 
Q 46.921875 13.96875 46.921875 20.515625 
Q 46.921875 27.09375 42.890625 30.859375 
Q 38.875 34.625 31.78125 34.625 
z
M 21.921875 38.8125 
Q 15.578125 40.375 12.03125 44.71875 
Q 8.5 49.078125 8.5 55.328125 
Q 8.5 64.0625 14.71875 69.140625 
Q 20.953125 74.21875 31.78125 74.21875 
Q 42.671875 74.21875 48.875 69.140625 
Q 55.078125 64.0625 55.078125 55.328125 
Q 55.078125 49.078125 51.53125 44.71875 
Q 48 40.375 41.703125 38.8125 
Q 48.828125 37.15625 52.796875 32.3125 
Q 56.78125 27.484375 56.78125 20.515625 
Q 56.78125 9.90625 50.3125 4.234375 
Q 43.84375 -1.421875 31.78125 -1.421875 
Q 19.734375 -1.421875 13.25 4.234375 
Q 6.78125 9.90625 6.78125 20.515625 
Q 6.78125 27.484375 10.78125 32.3125 
Q 14.796875 37.15625 21.921875 38.8125 
z
M 18.3125 54.390625 
Q 18.3125 48.734375 21.84375 45.5625 
Q 25.390625 42.390625 31.78125 42.390625 
Q 38.140625 42.390625 41.71875 45.5625 
Q 45.3125 48.734375 45.3125 54.390625 
Q 45.3125 60.0625 41.71875 63.234375 
Q 38.140625 66.40625 31.78125 66.40625 
Q 25.390625 66.40625 21.84375 63.234375 
Q 18.3125 60.0625 18.3125 54.390625 
z
" id="DejaVuSans-56"/>
      </defs>
      <use xlink:href="#DejaVuSans-48"/>
      <use x="63.623047" xlink:href="#DejaVuSans-46"/>
      <use x="95.410156" xlink:href="#DejaVuSans-57"/>
      <use x="159.033203" xlink:href="#DejaVuSans-54"/>
      <use x="222.65625" xlink:href="#DejaVuSans-56"/>
      <use x="286.279297" xlink:href="#DejaVuSans-56"/>
     </g>
    </g>
    <g id="line2d_60">
     <path d="M 215.452109 17.727969 
L 241.452109 17.727969 
" style="fill:none;stroke:#009988;stroke-dasharray:1.85,0.8;stroke-dashoffset:0;stroke-width:0.5;"/>
    </g>
    <g id="line2d_61">
     <g>
      <use style="fill:#009988;stroke:#009988;stroke-linejoin:miter;" x="228.452109" xlink:href="#mbfdb248279" y="17.727969"/>
     </g>
    </g>
    <g id="text_27">
     <!-- NOOB -->
     <g transform="translate(251.852109 22.277969)scale(0.13 -0.13)">
      <use xlink:href="#DejaVuSans-78"/>
      <use x="74.804688" xlink:href="#DejaVuSans-79"/>
      <use x="153.515625" xlink:href="#DejaVuSans-79"/>
      <use x="232.226562" xlink:href="#DejaVuSans-66"/>
     </g>
    </g>
    <g id="line2d_62"/>
    <g id="line2d_63"/>
    <g id="text_28">
     <!-- 0.9489 -->
     <g transform="translate(251.852109 41.359531)scale(0.13 -0.13)">
      <defs>
       <path d="M 37.796875 64.3125 
L 12.890625 25.390625 
L 37.796875 25.390625 
z
M 35.203125 72.90625 
L 47.609375 72.90625 
L 47.609375 25.390625 
L 58.015625 25.390625 
L 58.015625 17.1875 
L 47.609375 17.1875 
L 47.609375 0 
L 37.796875 0 
L 37.796875 17.1875 
L 4.890625 17.1875 
L 4.890625 26.703125 
z
" id="DejaVuSans-52"/>
      </defs>
      <use xlink:href="#DejaVuSans-48"/>
      <use x="63.623047" xlink:href="#DejaVuSans-46"/>
      <use x="95.410156" xlink:href="#DejaVuSans-57"/>
      <use x="159.033203" xlink:href="#DejaVuSans-52"/>
      <use x="222.65625" xlink:href="#DejaVuSans-56"/>
      <use x="286.279297" xlink:href="#DejaVuSans-57"/>
     </g>
    </g>
    <g id="line2d_64"/>
    <g id="line2d_65"/>
    <g id="text_29">
     <!-- 0.9694 -->
     <g transform="translate(251.852109 60.441094)scale(0.13 -0.13)">
      <use xlink:href="#DejaVuSans-48"/>
      <use x="63.623047" xlink:href="#DejaVuSans-46"/>
      <use x="95.410156" xlink:href="#DejaVuSans-57"/>
      <use x="159.033203" xlink:href="#DejaVuSans-54"/>
      <use x="222.65625" xlink:href="#DejaVuSans-57"/>
      <use x="286.279297" xlink:href="#DejaVuSans-52"/>
     </g>
    </g>
    <g id="line2d_66"/>
    <g id="line2d_67"/>
    <g id="text_30">
     <!-- 0.9699 -->
     <g transform="translate(251.852109 79.522656)scale(0.13 -0.13)">
      <use xlink:href="#DejaVuSans-48"/>
      <use x="63.623047" xlink:href="#DejaVuSans-46"/>
      <use x="95.410156" xlink:href="#DejaVuSans-57"/>
      <use x="159.033203" xlink:href="#DejaVuSans-54"/>
      <use x="222.65625" xlink:href="#DejaVuSans-57"/>
      <use x="286.279297" xlink:href="#DejaVuSans-57"/>
     </g>
    </g>
    <g id="line2d_68"/>
    <g id="line2d_69"/>
    <g id="text_31">
     <!-- 0.9699 -->
     <g transform="translate(251.852109 98.604219)scale(0.13 -0.13)">
      <use xlink:href="#DejaVuSans-48"/>
      <use x="63.623047" xlink:href="#DejaVuSans-46"/>
      <use x="95.410156" xlink:href="#DejaVuSans-57"/>
      <use x="159.033203" xlink:href="#DejaVuSans-54"/>
      <use x="222.65625" xlink:href="#DejaVuSans-57"/>
      <use x="286.279297" xlink:href="#DejaVuSans-57"/>
     </g>
    </g>
    <g id="line2d_70">
     <path d="M 310.011992 17.727969 
L 336.011992 17.727969 
" style="fill:none;stroke:#0077bb;stroke-dasharray:3.2,0.8,0.5,0.8;stroke-dashoffset:0;stroke-width:0.5;"/>
    </g>
    <g id="line2d_71">
     <g>
      <use style="fill:#0077bb;stroke:#0077bb;stroke-linejoin:miter;" x="323.011992" xlink:href="#me9df896e52" y="17.727969"/>
     </g>
    </g>
    <g id="text_32">
     <!-- NOOB2 -->
     <g transform="translate(346.411992 22.277969)scale(0.13 -0.13)">
      <use xlink:href="#DejaVuSans-78"/>
      <use x="74.804688" xlink:href="#DejaVuSans-79"/>
      <use x="153.515625" xlink:href="#DejaVuSans-79"/>
      <use x="232.226562" xlink:href="#DejaVuSans-66"/>
      <use x="300.830078" xlink:href="#DejaVuSans-50"/>
     </g>
    </g>
    <g id="line2d_72"/>
    <g id="line2d_73"/>
    <g id="text_33">
     <!-- 0.9487 -->
     <g transform="translate(346.411992 41.359531)scale(0.13 -0.13)">
      <use xlink:href="#DejaVuSans-48"/>
      <use x="63.623047" xlink:href="#DejaVuSans-46"/>
      <use x="95.410156" xlink:href="#DejaVuSans-57"/>
      <use x="159.033203" xlink:href="#DejaVuSans-52"/>
      <use x="222.65625" xlink:href="#DejaVuSans-56"/>
      <use x="286.279297" xlink:href="#DejaVuSans-55"/>
     </g>
    </g>
    <g id="line2d_74"/>
    <g id="line2d_75"/>
    <g id="text_34">
     <!-- 0.9682 -->
     <g transform="translate(346.411992 60.441094)scale(0.13 -0.13)">
      <use xlink:href="#DejaVuSans-48"/>
      <use x="63.623047" xlink:href="#DejaVuSans-46"/>
      <use x="95.410156" xlink:href="#DejaVuSans-57"/>
      <use x="159.033203" xlink:href="#DejaVuSans-54"/>
      <use x="222.65625" xlink:href="#DejaVuSans-56"/>
      <use x="286.279297" xlink:href="#DejaVuSans-50"/>
     </g>
    </g>
    <g id="line2d_76"/>
    <g id="line2d_77"/>
    <g id="text_35">
     <!-- 0.9683 -->
     <g transform="translate(346.411992 79.522656)scale(0.13 -0.13)">
      <defs>
       <path d="M 40.578125 39.3125 
Q 47.65625 37.796875 51.625 33 
Q 55.609375 28.21875 55.609375 21.1875 
Q 55.609375 10.40625 48.1875 4.484375 
Q 40.765625 -1.421875 27.09375 -1.421875 
Q 22.515625 -1.421875 17.65625 -0.515625 
Q 12.796875 0.390625 7.625 2.203125 
L 7.625 11.71875 
Q 11.71875 9.328125 16.59375 8.109375 
Q 21.484375 6.890625 26.8125 6.890625 
Q 36.078125 6.890625 40.9375 10.546875 
Q 45.796875 14.203125 45.796875 21.1875 
Q 45.796875 27.640625 41.28125 31.265625 
Q 36.765625 34.90625 28.71875 34.90625 
L 20.21875 34.90625 
L 20.21875 43.015625 
L 29.109375 43.015625 
Q 36.375 43.015625 40.234375 45.921875 
Q 44.09375 48.828125 44.09375 54.296875 
Q 44.09375 59.90625 40.109375 62.90625 
Q 36.140625 65.921875 28.71875 65.921875 
Q 24.65625 65.921875 20.015625 65.03125 
Q 15.375 64.15625 9.8125 62.3125 
L 9.8125 71.09375 
Q 15.4375 72.65625 20.34375 73.4375 
Q 25.25 74.21875 29.59375 74.21875 
Q 40.828125 74.21875 47.359375 69.109375 
Q 53.90625 64.015625 53.90625 55.328125 
Q 53.90625 49.265625 50.4375 45.09375 
Q 46.96875 40.921875 40.578125 39.3125 
z
" id="DejaVuSans-51"/>
      </defs>
      <use xlink:href="#DejaVuSans-48"/>
      <use x="63.623047" xlink:href="#DejaVuSans-46"/>
      <use x="95.410156" xlink:href="#DejaVuSans-57"/>
      <use x="159.033203" xlink:href="#DejaVuSans-54"/>
      <use x="222.65625" xlink:href="#DejaVuSans-56"/>
      <use x="286.279297" xlink:href="#DejaVuSans-51"/>
     </g>
    </g>
    <g id="line2d_78"/>
    <g id="line2d_79"/>
    <g id="text_36">
     <!-- 0.9686 -->
     <g transform="translate(346.411992 98.604219)scale(0.13 -0.13)">
      <use xlink:href="#DejaVuSans-48"/>
      <use x="63.623047" xlink:href="#DejaVuSans-46"/>
      <use x="95.410156" xlink:href="#DejaVuSans-57"/>
      <use x="159.033203" xlink:href="#DejaVuSans-54"/>
      <use x="222.65625" xlink:href="#DejaVuSans-56"/>
      <use x="286.279297" xlink:href="#DejaVuSans-54"/>
     </g>
    </g>
    <g id="line2d_80">
     <path d="M 406.467031 17.727969 
L 432.467031 17.727969 
" style="fill:none;stroke:#ee7733;stroke-dasharray:0.5,0.825;stroke-dashoffset:0;stroke-width:0.5;"/>
    </g>
    <g id="line2d_81">
     <g>
      <use style="fill:#ee7733;stroke:#ee7733;stroke-linejoin:bevel;" x="419.467031" xlink:href="#m0fbef947c8" y="17.727969"/>
     </g>
    </g>
    <g id="text_37">
     <!-- NOOB3 -->
     <g transform="translate(442.867031 22.277969)scale(0.13 -0.13)">
      <use xlink:href="#DejaVuSans-78"/>
      <use x="74.804688" xlink:href="#DejaVuSans-79"/>
      <use x="153.515625" xlink:href="#DejaVuSans-79"/>
      <use x="232.226562" xlink:href="#DejaVuSans-66"/>
      <use x="300.830078" xlink:href="#DejaVuSans-51"/>
     </g>
    </g>
    <g id="line2d_82"/>
    <g id="line2d_83"/>
    <g id="text_38">
     <!-- 0.9508 -->
     <g transform="translate(442.867031 41.359531)scale(0.13 -0.13)">
      <use xlink:href="#DejaVuSans-48"/>
      <use x="63.623047" xlink:href="#DejaVuSans-46"/>
      <use x="95.410156" xlink:href="#DejaVuSans-57"/>
      <use x="159.033203" xlink:href="#DejaVuSans-53"/>
      <use x="222.65625" xlink:href="#DejaVuSans-48"/>
      <use x="286.279297" xlink:href="#DejaVuSans-56"/>
     </g>
    </g>
    <g id="line2d_84"/>
    <g id="line2d_85"/>
    <g id="text_39">
     <!-- 0.9663 -->
     <g transform="translate(442.867031 60.441094)scale(0.13 -0.13)">
      <use xlink:href="#DejaVuSans-48"/>
      <use x="63.623047" xlink:href="#DejaVuSans-46"/>
      <use x="95.410156" xlink:href="#DejaVuSans-57"/>
      <use x="159.033203" xlink:href="#DejaVuSans-54"/>
      <use x="222.65625" xlink:href="#DejaVuSans-54"/>
      <use x="286.279297" xlink:href="#DejaVuSans-51"/>
     </g>
    </g>
    <g id="line2d_86"/>
    <g id="line2d_87"/>
    <g id="text_40">
     <!-- 0.9697 -->
     <g transform="translate(442.867031 79.522656)scale(0.13 -0.13)">
      <use xlink:href="#DejaVuSans-48"/>
      <use x="63.623047" xlink:href="#DejaVuSans-46"/>
      <use x="95.410156" xlink:href="#DejaVuSans-57"/>
      <use x="159.033203" xlink:href="#DejaVuSans-54"/>
      <use x="222.65625" xlink:href="#DejaVuSans-57"/>
      <use x="286.279297" xlink:href="#DejaVuSans-55"/>
     </g>
    </g>
    <g id="line2d_88"/>
    <g id="line2d_89"/>
    <g id="text_41">
     <!-- 0.9677 -->
     <g transform="translate(442.867031 98.604219)scale(0.13 -0.13)">
      <use xlink:href="#DejaVuSans-48"/>
      <use x="63.623047" xlink:href="#DejaVuSans-46"/>
      <use x="95.410156" xlink:href="#DejaVuSans-57"/>
      <use x="159.033203" xlink:href="#DejaVuSans-54"/>
      <use x="222.65625" xlink:href="#DejaVuSans-55"/>
      <use x="286.279297" xlink:href="#DejaVuSans-55"/>
     </g>
    </g>
   </g>
  </g>
 </g>
 <defs>
  <clipPath id="pe5b88a7b57">
   <rect height="277.2" width="390.6" x="104.85" y="112.051812"/>
  </clipPath>
 </defs>
</svg>
