<?xml version="1.0" encoding="utf-8" standalone="no"?>
<!DOCTYPE svg PUBLIC "-//W3C//DTD SVG 1.1//EN"
  "http://www.w3.org/Graphics/SVG/1.1/DTD/svg11.dtd">
<!-- Created with matplotlib (https://matplotlib.org/) -->
<svg height="432.614937pt" version="1.1" viewBox="0 0 502.65 432.614937" width="502.65pt" xmlns="http://www.w3.org/2000/svg" xmlns:xlink="http://www.w3.org/1999/xlink">
 <metadata>
  <rdf:RDF xmlns:cc="http://creativecommons.org/ns#" xmlns:dc="http://purl.org/dc/elements/1.1/" xmlns:rdf="http://www.w3.org/1999/02/22-rdf-syntax-ns#">
   <cc:Work>
    <dc:type rdf:resource="http://purl.org/dc/dcmitype/StillImage"/>
    <dc:date>2022-05-31T17:42:18.296474</dc:date>
    <dc:format>image/svg+xml</dc:format>
    <dc:creator>
     <cc:Agent>
      <dc:title>Matplotlib v3.3.3, https://matplotlib.org/</dc:title>
     </cc:Agent>
    </dc:creator>
   </cc:Work>
  </rdf:RDF>
 </metadata>
 <defs>
  <style type="text/css">*{stroke-linecap:butt;stroke-linejoin:round;}</style>
 </defs>
 <g id="figure_1">
  <g id="patch_1">
   <path d="M 0 432.614937 
L 502.65 432.614937 
L 502.65 0 
L 0 0 
z
" style="fill:#ffffff;"/>
  </g>
  <g id="axes_1">
   <g id="patch_2">
    <path d="M 104.85 389.251812 
L 495.45 389.251812 
L 495.45 112.051812 
L 104.85 112.051812 
z
" style="fill:#ffffff;"/>
   </g>
   <g id="matplotlib.axis_1">
    <g id="xtick_1">
     <g id="line2d_1">
      <defs>
       <path d="M 0 0 
L 0 3.5 
" id="me321a816b5" style="stroke:#000000;stroke-width:0.8;"/>
      </defs>
      <g>
       <use style="stroke:#000000;stroke-width:0.8;" x="117.19707" xlink:href="#me321a816b5" y="389.251812"/>
      </g>
     </g>
     <g id="text_1">
      <!-- 0 -->
      <g transform="translate(113.061445 406.129781)scale(0.13 -0.13)">
       <defs>
        <path d="M 31.78125 66.40625 
Q 24.171875 66.40625 20.328125 58.90625 
Q 16.5 51.421875 16.5 36.375 
Q 16.5 21.390625 20.328125 13.890625 
Q 24.171875 6.390625 31.78125 6.390625 
Q 39.453125 6.390625 43.28125 13.890625 
Q 47.125 21.390625 47.125 36.375 
Q 47.125 51.421875 43.28125 58.90625 
Q 39.453125 66.40625 31.78125 66.40625 
z
M 31.78125 74.21875 
Q 44.046875 74.21875 50.515625 64.515625 
Q 56.984375 54.828125 56.984375 36.375 
Q 56.984375 17.96875 50.515625 8.265625 
Q 44.046875 -1.421875 31.78125 -1.421875 
Q 19.53125 -1.421875 13.0625 8.265625 
Q 6.59375 17.96875 6.59375 36.375 
Q 6.59375 54.828125 13.0625 64.515625 
Q 19.53125 74.21875 31.78125 74.21875 
z
" id="DejaVuSans-48"/>
       </defs>
       <use xlink:href="#DejaVuSans-48"/>
      </g>
     </g>
    </g>
    <g id="xtick_2">
     <g id="line2d_2">
      <g>
       <use style="stroke:#000000;stroke-width:0.8;" x="162.259368" xlink:href="#me321a816b5" y="389.251812"/>
      </g>
     </g>
     <g id="text_2">
      <!-- 25 -->
      <g transform="translate(153.988118 406.129781)scale(0.13 -0.13)">
       <defs>
        <path d="M 19.1875 8.296875 
L 53.609375 8.296875 
L 53.609375 0 
L 7.328125 0 
L 7.328125 8.296875 
Q 12.9375 14.109375 22.625 23.890625 
Q 32.328125 33.6875 34.8125 36.53125 
Q 39.546875 41.84375 41.421875 45.53125 
Q 43.3125 49.21875 43.3125 52.78125 
Q 43.3125 58.59375 39.234375 62.25 
Q 35.15625 65.921875 28.609375 65.921875 
Q 23.96875 65.921875 18.8125 64.3125 
Q 13.671875 62.703125 7.8125 59.421875 
L 7.8125 69.390625 
Q 13.765625 71.78125 18.9375 73 
Q 24.125 74.21875 28.421875 74.21875 
Q 39.75 74.21875 46.484375 68.546875 
Q 53.21875 62.890625 53.21875 53.421875 
Q 53.21875 48.921875 51.53125 44.890625 
Q 49.859375 40.875 45.40625 35.40625 
Q 44.1875 33.984375 37.640625 27.21875 
Q 31.109375 20.453125 19.1875 8.296875 
z
" id="DejaVuSans-50"/>
        <path d="M 10.796875 72.90625 
L 49.515625 72.90625 
L 49.515625 64.59375 
L 19.828125 64.59375 
L 19.828125 46.734375 
Q 21.96875 47.46875 24.109375 47.828125 
Q 26.265625 48.1875 28.421875 48.1875 
Q 40.625 48.1875 47.75 41.5 
Q 54.890625 34.8125 54.890625 23.390625 
Q 54.890625 11.625 47.5625 5.09375 
Q 40.234375 -1.421875 26.90625 -1.421875 
Q 22.3125 -1.421875 17.546875 -0.640625 
Q 12.796875 0.140625 7.71875 1.703125 
L 7.71875 11.625 
Q 12.109375 9.234375 16.796875 8.0625 
Q 21.484375 6.890625 26.703125 6.890625 
Q 35.15625 6.890625 40.078125 11.328125 
Q 45.015625 15.765625 45.015625 23.390625 
Q 45.015625 31 40.078125 35.4375 
Q 35.15625 39.890625 26.703125 39.890625 
Q 22.75 39.890625 18.8125 39.015625 
Q 14.890625 38.140625 10.796875 36.28125 
z
" id="DejaVuSans-53"/>
       </defs>
       <use xlink:href="#DejaVuSans-50"/>
       <use x="63.623047" xlink:href="#DejaVuSans-53"/>
      </g>
     </g>
    </g>
    <g id="xtick_3">
     <g id="line2d_3">
      <g>
       <use style="stroke:#000000;stroke-width:0.8;" x="207.321666" xlink:href="#me321a816b5" y="389.251812"/>
      </g>
     </g>
     <g id="text_3">
      <!-- 50 -->
      <g transform="translate(199.050416 406.129781)scale(0.13 -0.13)">
       <use xlink:href="#DejaVuSans-53"/>
       <use x="63.623047" xlink:href="#DejaVuSans-48"/>
      </g>
     </g>
    </g>
    <g id="xtick_4">
     <g id="line2d_4">
      <g>
       <use style="stroke:#000000;stroke-width:0.8;" x="252.383964" xlink:href="#me321a816b5" y="389.251812"/>
      </g>
     </g>
     <g id="text_4">
      <!-- 75 -->
      <g transform="translate(244.112714 406.129781)scale(0.13 -0.13)">
       <defs>
        <path d="M 8.203125 72.90625 
L 55.078125 72.90625 
L 55.078125 68.703125 
L 28.609375 0 
L 18.3125 0 
L 43.21875 64.59375 
L 8.203125 64.59375 
z
" id="DejaVuSans-55"/>
       </defs>
       <use xlink:href="#DejaVuSans-55"/>
       <use x="63.623047" xlink:href="#DejaVuSans-53"/>
      </g>
     </g>
    </g>
    <g id="xtick_5">
     <g id="line2d_5">
      <g>
       <use style="stroke:#000000;stroke-width:0.8;" x="297.446262" xlink:href="#me321a816b5" y="389.251812"/>
      </g>
     </g>
     <g id="text_5">
      <!-- 100 -->
      <g transform="translate(285.039387 406.129781)scale(0.13 -0.13)">
       <defs>
        <path d="M 12.40625 8.296875 
L 28.515625 8.296875 
L 28.515625 63.921875 
L 10.984375 60.40625 
L 10.984375 69.390625 
L 28.421875 72.90625 
L 38.28125 72.90625 
L 38.28125 8.296875 
L 54.390625 8.296875 
L 54.390625 0 
L 12.40625 0 
z
" id="DejaVuSans-49"/>
       </defs>
       <use xlink:href="#DejaVuSans-49"/>
       <use x="63.623047" xlink:href="#DejaVuSans-48"/>
       <use x="127.246094" xlink:href="#DejaVuSans-48"/>
      </g>
     </g>
    </g>
    <g id="xtick_6">
     <g id="line2d_6">
      <g>
       <use style="stroke:#000000;stroke-width:0.8;" x="342.50856" xlink:href="#me321a816b5" y="389.251812"/>
      </g>
     </g>
     <g id="text_6">
      <!-- 125 -->
      <g transform="translate(330.101685 406.129781)scale(0.13 -0.13)">
       <use xlink:href="#DejaVuSans-49"/>
       <use x="63.623047" xlink:href="#DejaVuSans-50"/>
       <use x="127.246094" xlink:href="#DejaVuSans-53"/>
      </g>
     </g>
    </g>
    <g id="xtick_7">
     <g id="line2d_7">
      <g>
       <use style="stroke:#000000;stroke-width:0.8;" x="387.570858" xlink:href="#me321a816b5" y="389.251812"/>
      </g>
     </g>
     <g id="text_7">
      <!-- 150 -->
      <g transform="translate(375.163983 406.129781)scale(0.13 -0.13)">
       <use xlink:href="#DejaVuSans-49"/>
       <use x="63.623047" xlink:href="#DejaVuSans-53"/>
       <use x="127.246094" xlink:href="#DejaVuSans-48"/>
      </g>
     </g>
    </g>
    <g id="xtick_8">
     <g id="line2d_8">
      <g>
       <use style="stroke:#000000;stroke-width:0.8;" x="432.633156" xlink:href="#me321a816b5" y="389.251812"/>
      </g>
     </g>
     <g id="text_8">
      <!-- 175 -->
      <g transform="translate(420.226281 406.129781)scale(0.13 -0.13)">
       <use xlink:href="#DejaVuSans-49"/>
       <use x="63.623047" xlink:href="#DejaVuSans-55"/>
       <use x="127.246094" xlink:href="#DejaVuSans-53"/>
      </g>
     </g>
    </g>
    <g id="xtick_9">
     <g id="line2d_9">
      <g>
       <use style="stroke:#000000;stroke-width:0.8;" x="477.695455" xlink:href="#me321a816b5" y="389.251812"/>
      </g>
     </g>
     <g id="text_9">
      <!-- 200 -->
      <g transform="translate(465.28858 406.129781)scale(0.13 -0.13)">
       <use xlink:href="#DejaVuSans-50"/>
       <use x="63.623047" xlink:href="#DejaVuSans-48"/>
       <use x="127.246094" xlink:href="#DejaVuSans-48"/>
      </g>
     </g>
    </g>
    <g id="text_10">
     <!-- Number of processed instances [x1000] -->
     <g transform="translate(170.025078 422.711344)scale(0.13 -0.13)">
      <defs>
       <path d="M 9.8125 72.90625 
L 23.09375 72.90625 
L 55.421875 11.921875 
L 55.421875 72.90625 
L 64.984375 72.90625 
L 64.984375 0 
L 51.703125 0 
L 19.390625 60.984375 
L 19.390625 0 
L 9.8125 0 
z
" id="DejaVuSans-78"/>
       <path d="M 8.5 21.578125 
L 8.5 54.6875 
L 17.484375 54.6875 
L 17.484375 21.921875 
Q 17.484375 14.15625 20.5 10.265625 
Q 23.53125 6.390625 29.59375 6.390625 
Q 36.859375 6.390625 41.078125 11.03125 
Q 45.3125 15.671875 45.3125 23.6875 
L 45.3125 54.6875 
L 54.296875 54.6875 
L 54.296875 0 
L 45.3125 0 
L 45.3125 8.40625 
Q 42.046875 3.421875 37.71875 1 
Q 33.40625 -1.421875 27.6875 -1.421875 
Q 18.265625 -1.421875 13.375 4.4375 
Q 8.5 10.296875 8.5 21.578125 
z
M 31.109375 56 
z
" id="DejaVuSans-117"/>
       <path d="M 52 44.1875 
Q 55.375 50.25 60.0625 53.125 
Q 64.75 56 71.09375 56 
Q 79.640625 56 84.28125 50.015625 
Q 88.921875 44.046875 88.921875 33.015625 
L 88.921875 0 
L 79.890625 0 
L 79.890625 32.71875 
Q 79.890625 40.578125 77.09375 44.375 
Q 74.3125 48.1875 68.609375 48.1875 
Q 61.625 48.1875 57.5625 43.546875 
Q 53.515625 38.921875 53.515625 30.90625 
L 53.515625 0 
L 44.484375 0 
L 44.484375 32.71875 
Q 44.484375 40.625 41.703125 44.40625 
Q 38.921875 48.1875 33.109375 48.1875 
Q 26.21875 48.1875 22.15625 43.53125 
Q 18.109375 38.875 18.109375 30.90625 
L 18.109375 0 
L 9.078125 0 
L 9.078125 54.6875 
L 18.109375 54.6875 
L 18.109375 46.1875 
Q 21.1875 51.21875 25.484375 53.609375 
Q 29.78125 56 35.6875 56 
Q 41.65625 56 45.828125 52.96875 
Q 50 49.953125 52 44.1875 
z
" id="DejaVuSans-109"/>
       <path d="M 48.6875 27.296875 
Q 48.6875 37.203125 44.609375 42.84375 
Q 40.53125 48.484375 33.40625 48.484375 
Q 26.265625 48.484375 22.1875 42.84375 
Q 18.109375 37.203125 18.109375 27.296875 
Q 18.109375 17.390625 22.1875 11.75 
Q 26.265625 6.109375 33.40625 6.109375 
Q 40.53125 6.109375 44.609375 11.75 
Q 48.6875 17.390625 48.6875 27.296875 
z
M 18.109375 46.390625 
Q 20.953125 51.265625 25.265625 53.625 
Q 29.59375 56 35.59375 56 
Q 45.5625 56 51.78125 48.09375 
Q 58.015625 40.1875 58.015625 27.296875 
Q 58.015625 14.40625 51.78125 6.484375 
Q 45.5625 -1.421875 35.59375 -1.421875 
Q 29.59375 -1.421875 25.265625 0.953125 
Q 20.953125 3.328125 18.109375 8.203125 
L 18.109375 0 
L 9.078125 0 
L 9.078125 75.984375 
L 18.109375 75.984375 
z
" id="DejaVuSans-98"/>
       <path d="M 56.203125 29.59375 
L 56.203125 25.203125 
L 14.890625 25.203125 
Q 15.484375 15.921875 20.484375 11.0625 
Q 25.484375 6.203125 34.421875 6.203125 
Q 39.59375 6.203125 44.453125 7.46875 
Q 49.3125 8.734375 54.109375 11.28125 
L 54.109375 2.78125 
Q 49.265625 0.734375 44.1875 -0.34375 
Q 39.109375 -1.421875 33.890625 -1.421875 
Q 20.796875 -1.421875 13.15625 6.1875 
Q 5.515625 13.8125 5.515625 26.8125 
Q 5.515625 40.234375 12.765625 48.109375 
Q 20.015625 56 32.328125 56 
Q 43.359375 56 49.78125 48.890625 
Q 56.203125 41.796875 56.203125 29.59375 
z
M 47.21875 32.234375 
Q 47.125 39.59375 43.09375 43.984375 
Q 39.0625 48.390625 32.421875 48.390625 
Q 24.90625 48.390625 20.390625 44.140625 
Q 15.875 39.890625 15.1875 32.171875 
z
" id="DejaVuSans-101"/>
       <path d="M 41.109375 46.296875 
Q 39.59375 47.171875 37.8125 47.578125 
Q 36.03125 48 33.890625 48 
Q 26.265625 48 22.1875 43.046875 
Q 18.109375 38.09375 18.109375 28.8125 
L 18.109375 0 
L 9.078125 0 
L 9.078125 54.6875 
L 18.109375 54.6875 
L 18.109375 46.1875 
Q 20.953125 51.171875 25.484375 53.578125 
Q 30.03125 56 36.53125 56 
Q 37.453125 56 38.578125 55.875 
Q 39.703125 55.765625 41.0625 55.515625 
z
" id="DejaVuSans-114"/>
       <path id="DejaVuSans-32"/>
       <path d="M 30.609375 48.390625 
Q 23.390625 48.390625 19.1875 42.75 
Q 14.984375 37.109375 14.984375 27.296875 
Q 14.984375 17.484375 19.15625 11.84375 
Q 23.34375 6.203125 30.609375 6.203125 
Q 37.796875 6.203125 41.984375 11.859375 
Q 46.1875 17.53125 46.1875 27.296875 
Q 46.1875 37.015625 41.984375 42.703125 
Q 37.796875 48.390625 30.609375 48.390625 
z
M 30.609375 56 
Q 42.328125 56 49.015625 48.375 
Q 55.71875 40.765625 55.71875 27.296875 
Q 55.71875 13.875 49.015625 6.21875 
Q 42.328125 -1.421875 30.609375 -1.421875 
Q 18.84375 -1.421875 12.171875 6.21875 
Q 5.515625 13.875 5.515625 27.296875 
Q 5.515625 40.765625 12.171875 48.375 
Q 18.84375 56 30.609375 56 
z
" id="DejaVuSans-111"/>
       <path d="M 37.109375 75.984375 
L 37.109375 68.5 
L 28.515625 68.5 
Q 23.6875 68.5 21.796875 66.546875 
Q 19.921875 64.59375 19.921875 59.515625 
L 19.921875 54.6875 
L 34.71875 54.6875 
L 34.71875 47.703125 
L 19.921875 47.703125 
L 19.921875 0 
L 10.890625 0 
L 10.890625 47.703125 
L 2.296875 47.703125 
L 2.296875 54.6875 
L 10.890625 54.6875 
L 10.890625 58.5 
Q 10.890625 67.625 15.140625 71.796875 
Q 19.390625 75.984375 28.609375 75.984375 
z
" id="DejaVuSans-102"/>
       <path d="M 18.109375 8.203125 
L 18.109375 -20.796875 
L 9.078125 -20.796875 
L 9.078125 54.6875 
L 18.109375 54.6875 
L 18.109375 46.390625 
Q 20.953125 51.265625 25.265625 53.625 
Q 29.59375 56 35.59375 56 
Q 45.5625 56 51.78125 48.09375 
Q 58.015625 40.1875 58.015625 27.296875 
Q 58.015625 14.40625 51.78125 6.484375 
Q 45.5625 -1.421875 35.59375 -1.421875 
Q 29.59375 -1.421875 25.265625 0.953125 
Q 20.953125 3.328125 18.109375 8.203125 
z
M 48.6875 27.296875 
Q 48.6875 37.203125 44.609375 42.84375 
Q 40.53125 48.484375 33.40625 48.484375 
Q 26.265625 48.484375 22.1875 42.84375 
Q 18.109375 37.203125 18.109375 27.296875 
Q 18.109375 17.390625 22.1875 11.75 
Q 26.265625 6.109375 33.40625 6.109375 
Q 40.53125 6.109375 44.609375 11.75 
Q 48.6875 17.390625 48.6875 27.296875 
z
" id="DejaVuSans-112"/>
       <path d="M 48.78125 52.59375 
L 48.78125 44.1875 
Q 44.96875 46.296875 41.140625 47.34375 
Q 37.3125 48.390625 33.40625 48.390625 
Q 24.65625 48.390625 19.8125 42.84375 
Q 14.984375 37.3125 14.984375 27.296875 
Q 14.984375 17.28125 19.8125 11.734375 
Q 24.65625 6.203125 33.40625 6.203125 
Q 37.3125 6.203125 41.140625 7.25 
Q 44.96875 8.296875 48.78125 10.40625 
L 48.78125 2.09375 
Q 45.015625 0.34375 40.984375 -0.53125 
Q 36.96875 -1.421875 32.421875 -1.421875 
Q 20.0625 -1.421875 12.78125 6.34375 
Q 5.515625 14.109375 5.515625 27.296875 
Q 5.515625 40.671875 12.859375 48.328125 
Q 20.21875 56 33.015625 56 
Q 37.15625 56 41.109375 55.140625 
Q 45.0625 54.296875 48.78125 52.59375 
z
" id="DejaVuSans-99"/>
       <path d="M 44.28125 53.078125 
L 44.28125 44.578125 
Q 40.484375 46.53125 36.375 47.5 
Q 32.28125 48.484375 27.875 48.484375 
Q 21.1875 48.484375 17.84375 46.4375 
Q 14.5 44.390625 14.5 40.28125 
Q 14.5 37.15625 16.890625 35.375 
Q 19.28125 33.59375 26.515625 31.984375 
L 29.59375 31.296875 
Q 39.15625 29.25 43.1875 25.515625 
Q 47.21875 21.78125 47.21875 15.09375 
Q 47.21875 7.46875 41.1875 3.015625 
Q 35.15625 -1.421875 24.609375 -1.421875 
Q 20.21875 -1.421875 15.453125 -0.5625 
Q 10.6875 0.296875 5.421875 2 
L 5.421875 11.28125 
Q 10.40625 8.6875 15.234375 7.390625 
Q 20.0625 6.109375 24.8125 6.109375 
Q 31.15625 6.109375 34.5625 8.28125 
Q 37.984375 10.453125 37.984375 14.40625 
Q 37.984375 18.0625 35.515625 20.015625 
Q 33.0625 21.96875 24.703125 23.78125 
L 21.578125 24.515625 
Q 13.234375 26.265625 9.515625 29.90625 
Q 5.8125 33.546875 5.8125 39.890625 
Q 5.8125 47.609375 11.28125 51.796875 
Q 16.75 56 26.8125 56 
Q 31.78125 56 36.171875 55.265625 
Q 40.578125 54.546875 44.28125 53.078125 
z
" id="DejaVuSans-115"/>
       <path d="M 45.40625 46.390625 
L 45.40625 75.984375 
L 54.390625 75.984375 
L 54.390625 0 
L 45.40625 0 
L 45.40625 8.203125 
Q 42.578125 3.328125 38.25 0.953125 
Q 33.9375 -1.421875 27.875 -1.421875 
Q 17.96875 -1.421875 11.734375 6.484375 
Q 5.515625 14.40625 5.515625 27.296875 
Q 5.515625 40.1875 11.734375 48.09375 
Q 17.96875 56 27.875 56 
Q 33.9375 56 38.25 53.625 
Q 42.578125 51.265625 45.40625 46.390625 
z
M 14.796875 27.296875 
Q 14.796875 17.390625 18.875 11.75 
Q 22.953125 6.109375 30.078125 6.109375 
Q 37.203125 6.109375 41.296875 11.75 
Q 45.40625 17.390625 45.40625 27.296875 
Q 45.40625 37.203125 41.296875 42.84375 
Q 37.203125 48.484375 30.078125 48.484375 
Q 22.953125 48.484375 18.875 42.84375 
Q 14.796875 37.203125 14.796875 27.296875 
z
" id="DejaVuSans-100"/>
       <path d="M 9.421875 54.6875 
L 18.40625 54.6875 
L 18.40625 0 
L 9.421875 0 
z
M 9.421875 75.984375 
L 18.40625 75.984375 
L 18.40625 64.59375 
L 9.421875 64.59375 
z
" id="DejaVuSans-105"/>
       <path d="M 54.890625 33.015625 
L 54.890625 0 
L 45.90625 0 
L 45.90625 32.71875 
Q 45.90625 40.484375 42.875 44.328125 
Q 39.84375 48.1875 33.796875 48.1875 
Q 26.515625 48.1875 22.3125 43.546875 
Q 18.109375 38.921875 18.109375 30.90625 
L 18.109375 0 
L 9.078125 0 
L 9.078125 54.6875 
L 18.109375 54.6875 
L 18.109375 46.1875 
Q 21.34375 51.125 25.703125 53.5625 
Q 30.078125 56 35.796875 56 
Q 45.21875 56 50.046875 50.171875 
Q 54.890625 44.34375 54.890625 33.015625 
z
" id="DejaVuSans-110"/>
       <path d="M 18.3125 70.21875 
L 18.3125 54.6875 
L 36.8125 54.6875 
L 36.8125 47.703125 
L 18.3125 47.703125 
L 18.3125 18.015625 
Q 18.3125 11.328125 20.140625 9.421875 
Q 21.96875 7.515625 27.59375 7.515625 
L 36.8125 7.515625 
L 36.8125 0 
L 27.59375 0 
Q 17.1875 0 13.234375 3.875 
Q 9.28125 7.765625 9.28125 18.015625 
L 9.28125 47.703125 
L 2.6875 47.703125 
L 2.6875 54.6875 
L 9.28125 54.6875 
L 9.28125 70.21875 
z
" id="DejaVuSans-116"/>
       <path d="M 34.28125 27.484375 
Q 23.390625 27.484375 19.1875 25 
Q 14.984375 22.515625 14.984375 16.5 
Q 14.984375 11.71875 18.140625 8.90625 
Q 21.296875 6.109375 26.703125 6.109375 
Q 34.1875 6.109375 38.703125 11.40625 
Q 43.21875 16.703125 43.21875 25.484375 
L 43.21875 27.484375 
z
M 52.203125 31.203125 
L 52.203125 0 
L 43.21875 0 
L 43.21875 8.296875 
Q 40.140625 3.328125 35.546875 0.953125 
Q 30.953125 -1.421875 24.3125 -1.421875 
Q 15.921875 -1.421875 10.953125 3.296875 
Q 6 8.015625 6 15.921875 
Q 6 25.140625 12.171875 29.828125 
Q 18.359375 34.515625 30.609375 34.515625 
L 43.21875 34.515625 
L 43.21875 35.40625 
Q 43.21875 41.609375 39.140625 45 
Q 35.0625 48.390625 27.6875 48.390625 
Q 23 48.390625 18.546875 47.265625 
Q 14.109375 46.140625 10.015625 43.890625 
L 10.015625 52.203125 
Q 14.9375 54.109375 19.578125 55.046875 
Q 24.21875 56 28.609375 56 
Q 40.484375 56 46.34375 49.84375 
Q 52.203125 43.703125 52.203125 31.203125 
z
" id="DejaVuSans-97"/>
       <path d="M 8.59375 75.984375 
L 29.296875 75.984375 
L 29.296875 69 
L 17.578125 69 
L 17.578125 -6.203125 
L 29.296875 -6.203125 
L 29.296875 -13.1875 
L 8.59375 -13.1875 
z
" id="DejaVuSans-91"/>
       <path d="M 54.890625 54.6875 
L 35.109375 28.078125 
L 55.90625 0 
L 45.3125 0 
L 29.390625 21.484375 
L 13.484375 0 
L 2.875 0 
L 24.125 28.609375 
L 4.6875 54.6875 
L 15.28125 54.6875 
L 29.78125 35.203125 
L 44.28125 54.6875 
z
" id="DejaVuSans-120"/>
       <path d="M 30.421875 75.984375 
L 30.421875 -13.1875 
L 9.71875 -13.1875 
L 9.71875 -6.203125 
L 21.390625 -6.203125 
L 21.390625 69 
L 9.71875 69 
L 9.71875 75.984375 
z
" id="DejaVuSans-93"/>
      </defs>
      <use xlink:href="#DejaVuSans-78"/>
      <use x="74.804688" xlink:href="#DejaVuSans-117"/>
      <use x="138.183594" xlink:href="#DejaVuSans-109"/>
      <use x="235.595703" xlink:href="#DejaVuSans-98"/>
      <use x="299.072266" xlink:href="#DejaVuSans-101"/>
      <use x="360.595703" xlink:href="#DejaVuSans-114"/>
      <use x="401.708984" xlink:href="#DejaVuSans-32"/>
      <use x="433.496094" xlink:href="#DejaVuSans-111"/>
      <use x="494.677734" xlink:href="#DejaVuSans-102"/>
      <use x="529.882812" xlink:href="#DejaVuSans-32"/>
      <use x="561.669922" xlink:href="#DejaVuSans-112"/>
      <use x="625.146484" xlink:href="#DejaVuSans-114"/>
      <use x="664.009766" xlink:href="#DejaVuSans-111"/>
      <use x="725.191406" xlink:href="#DejaVuSans-99"/>
      <use x="780.171875" xlink:href="#DejaVuSans-101"/>
      <use x="841.695312" xlink:href="#DejaVuSans-115"/>
      <use x="893.794922" xlink:href="#DejaVuSans-115"/>
      <use x="945.894531" xlink:href="#DejaVuSans-101"/>
      <use x="1007.417969" xlink:href="#DejaVuSans-100"/>
      <use x="1070.894531" xlink:href="#DejaVuSans-32"/>
      <use x="1102.681641" xlink:href="#DejaVuSans-105"/>
      <use x="1130.464844" xlink:href="#DejaVuSans-110"/>
      <use x="1193.84375" xlink:href="#DejaVuSans-115"/>
      <use x="1245.943359" xlink:href="#DejaVuSans-116"/>
      <use x="1285.152344" xlink:href="#DejaVuSans-97"/>
      <use x="1346.431641" xlink:href="#DejaVuSans-110"/>
      <use x="1409.810547" xlink:href="#DejaVuSans-99"/>
      <use x="1464.791016" xlink:href="#DejaVuSans-101"/>
      <use x="1526.314453" xlink:href="#DejaVuSans-115"/>
      <use x="1578.414062" xlink:href="#DejaVuSans-32"/>
      <use x="1610.201172" xlink:href="#DejaVuSans-91"/>
      <use x="1649.214844" xlink:href="#DejaVuSans-120"/>
      <use x="1708.394531" xlink:href="#DejaVuSans-49"/>
      <use x="1772.017578" xlink:href="#DejaVuSans-48"/>
      <use x="1835.640625" xlink:href="#DejaVuSans-48"/>
      <use x="1899.263672" xlink:href="#DejaVuSans-48"/>
      <use x="1962.886719" xlink:href="#DejaVuSans-93"/>
     </g>
    </g>
   </g>
   <g id="matplotlib.axis_2">
    <g id="ytick_1">
     <g id="line2d_10">
      <defs>
       <path d="M 0 0 
L -3.5 0 
" id="m00ed0d7a2f" style="stroke:#000000;stroke-width:0.8;"/>
      </defs>
      <g>
       <use style="stroke:#000000;stroke-width:0.8;" x="104.85" xlink:href="#m00ed0d7a2f" y="379.643603"/>
      </g>
     </g>
     <g id="text_11">
      <!-- 0.50 -->
      <g transform="translate(68.904687 384.582587)scale(0.13 -0.13)">
       <defs>
        <path d="M 10.6875 12.40625 
L 21 12.40625 
L 21 0 
L 10.6875 0 
z
" id="DejaVuSans-46"/>
       </defs>
       <use xlink:href="#DejaVuSans-48"/>
       <use x="63.623047" xlink:href="#DejaVuSans-46"/>
       <use x="95.410156" xlink:href="#DejaVuSans-53"/>
       <use x="159.033203" xlink:href="#DejaVuSans-48"/>
      </g>
     </g>
    </g>
    <g id="ytick_2">
     <g id="line2d_11">
      <g>
       <use style="stroke:#000000;stroke-width:0.8;" x="104.85" xlink:href="#m00ed0d7a2f" y="341.213706"/>
      </g>
     </g>
     <g id="text_12">
      <!-- 0.55 -->
      <g transform="translate(68.904687 346.15269)scale(0.13 -0.13)">
       <use xlink:href="#DejaVuSans-48"/>
       <use x="63.623047" xlink:href="#DejaVuSans-46"/>
       <use x="95.410156" xlink:href="#DejaVuSans-53"/>
       <use x="159.033203" xlink:href="#DejaVuSans-53"/>
      </g>
     </g>
    </g>
    <g id="ytick_3">
     <g id="line2d_12">
      <g>
       <use style="stroke:#000000;stroke-width:0.8;" x="104.85" xlink:href="#m00ed0d7a2f" y="302.783809"/>
      </g>
     </g>
     <g id="text_13">
      <!-- 0.60 -->
      <g transform="translate(68.904687 307.722793)scale(0.13 -0.13)">
       <defs>
        <path d="M 33.015625 40.375 
Q 26.375 40.375 22.484375 35.828125 
Q 18.609375 31.296875 18.609375 23.390625 
Q 18.609375 15.53125 22.484375 10.953125 
Q 26.375 6.390625 33.015625 6.390625 
Q 39.65625 6.390625 43.53125 10.953125 
Q 47.40625 15.53125 47.40625 23.390625 
Q 47.40625 31.296875 43.53125 35.828125 
Q 39.65625 40.375 33.015625 40.375 
z
M 52.59375 71.296875 
L 52.59375 62.3125 
Q 48.875 64.0625 45.09375 64.984375 
Q 41.3125 65.921875 37.59375 65.921875 
Q 27.828125 65.921875 22.671875 59.328125 
Q 17.53125 52.734375 16.796875 39.40625 
Q 19.671875 43.65625 24.015625 45.921875 
Q 28.375 48.1875 33.59375 48.1875 
Q 44.578125 48.1875 50.953125 41.515625 
Q 57.328125 34.859375 57.328125 23.390625 
Q 57.328125 12.15625 50.6875 5.359375 
Q 44.046875 -1.421875 33.015625 -1.421875 
Q 20.359375 -1.421875 13.671875 8.265625 
Q 6.984375 17.96875 6.984375 36.375 
Q 6.984375 53.65625 15.1875 63.9375 
Q 23.390625 74.21875 37.203125 74.21875 
Q 40.921875 74.21875 44.703125 73.484375 
Q 48.484375 72.75 52.59375 71.296875 
z
" id="DejaVuSans-54"/>
       </defs>
       <use xlink:href="#DejaVuSans-48"/>
       <use x="63.623047" xlink:href="#DejaVuSans-46"/>
       <use x="95.410156" xlink:href="#DejaVuSans-54"/>
       <use x="159.033203" xlink:href="#DejaVuSans-48"/>
      </g>
     </g>
    </g>
    <g id="ytick_4">
     <g id="line2d_13">
      <g>
       <use style="stroke:#000000;stroke-width:0.8;" x="104.85" xlink:href="#m00ed0d7a2f" y="264.353911"/>
      </g>
     </g>
     <g id="text_14">
      <!-- 0.65 -->
      <g transform="translate(68.904687 269.292896)scale(0.13 -0.13)">
       <use xlink:href="#DejaVuSans-48"/>
       <use x="63.623047" xlink:href="#DejaVuSans-46"/>
       <use x="95.410156" xlink:href="#DejaVuSans-54"/>
       <use x="159.033203" xlink:href="#DejaVuSans-53"/>
      </g>
     </g>
    </g>
    <g id="ytick_5">
     <g id="line2d_14">
      <g>
       <use style="stroke:#000000;stroke-width:0.8;" x="104.85" xlink:href="#m00ed0d7a2f" y="225.924014"/>
      </g>
     </g>
     <g id="text_15">
      <!-- 0.70 -->
      <g transform="translate(68.904687 230.862998)scale(0.13 -0.13)">
       <use xlink:href="#DejaVuSans-48"/>
       <use x="63.623047" xlink:href="#DejaVuSans-46"/>
       <use x="95.410156" xlink:href="#DejaVuSans-55"/>
       <use x="159.033203" xlink:href="#DejaVuSans-48"/>
      </g>
     </g>
    </g>
    <g id="ytick_6">
     <g id="line2d_15">
      <g>
       <use style="stroke:#000000;stroke-width:0.8;" x="104.85" xlink:href="#m00ed0d7a2f" y="187.494117"/>
      </g>
     </g>
     <g id="text_16">
      <!-- 0.75 -->
      <g transform="translate(68.904687 192.433101)scale(0.13 -0.13)">
       <use xlink:href="#DejaVuSans-48"/>
       <use x="63.623047" xlink:href="#DejaVuSans-46"/>
       <use x="95.410156" xlink:href="#DejaVuSans-55"/>
       <use x="159.033203" xlink:href="#DejaVuSans-53"/>
      </g>
     </g>
    </g>
    <g id="ytick_7">
     <g id="line2d_16">
      <g>
       <use style="stroke:#000000;stroke-width:0.8;" x="104.85" xlink:href="#m00ed0d7a2f" y="149.06422"/>
      </g>
     </g>
     <g id="text_17">
      <!-- 0.80 -->
      <g transform="translate(68.904687 154.003204)scale(0.13 -0.13)">
       <defs>
        <path d="M 31.78125 34.625 
Q 24.75 34.625 20.71875 30.859375 
Q 16.703125 27.09375 16.703125 20.515625 
Q 16.703125 13.921875 20.71875 10.15625 
Q 24.75 6.390625 31.78125 6.390625 
Q 38.8125 6.390625 42.859375 10.171875 
Q 46.921875 13.96875 46.921875 20.515625 
Q 46.921875 27.09375 42.890625 30.859375 
Q 38.875 34.625 31.78125 34.625 
z
M 21.921875 38.8125 
Q 15.578125 40.375 12.03125 44.71875 
Q 8.5 49.078125 8.5 55.328125 
Q 8.5 64.0625 14.71875 69.140625 
Q 20.953125 74.21875 31.78125 74.21875 
Q 42.671875 74.21875 48.875 69.140625 
Q 55.078125 64.0625 55.078125 55.328125 
Q 55.078125 49.078125 51.53125 44.71875 
Q 48 40.375 41.703125 38.8125 
Q 48.828125 37.15625 52.796875 32.3125 
Q 56.78125 27.484375 56.78125 20.515625 
Q 56.78125 9.90625 50.3125 4.234375 
Q 43.84375 -1.421875 31.78125 -1.421875 
Q 19.734375 -1.421875 13.25 4.234375 
Q 6.78125 9.90625 6.78125 20.515625 
Q 6.78125 27.484375 10.78125 32.3125 
Q 14.796875 37.15625 21.921875 38.8125 
z
M 18.3125 54.390625 
Q 18.3125 48.734375 21.84375 45.5625 
Q 25.390625 42.390625 31.78125 42.390625 
Q 38.140625 42.390625 41.71875 45.5625 
Q 45.3125 48.734375 45.3125 54.390625 
Q 45.3125 60.0625 41.71875 63.234375 
Q 38.140625 66.40625 31.78125 66.40625 
Q 25.390625 66.40625 21.84375 63.234375 
Q 18.3125 60.0625 18.3125 54.390625 
z
" id="DejaVuSans-56"/>
       </defs>
       <use xlink:href="#DejaVuSans-48"/>
       <use x="63.623047" xlink:href="#DejaVuSans-46"/>
       <use x="95.410156" xlink:href="#DejaVuSans-56"/>
       <use x="159.033203" xlink:href="#DejaVuSans-48"/>
      </g>
     </g>
    </g>
    <g id="text_18">
     <!-- G-Mean -->
     <g transform="translate(62.201094 275.743844)rotate(-90)scale(0.13 -0.13)">
      <defs>
       <path d="M 59.515625 10.40625 
L 59.515625 29.984375 
L 43.40625 29.984375 
L 43.40625 38.09375 
L 69.28125 38.09375 
L 69.28125 6.78125 
Q 63.578125 2.734375 56.6875 0.65625 
Q 49.8125 -1.421875 42 -1.421875 
Q 24.90625 -1.421875 15.25 8.5625 
Q 5.609375 18.5625 5.609375 36.375 
Q 5.609375 54.25 15.25 64.234375 
Q 24.90625 74.21875 42 74.21875 
Q 49.125 74.21875 55.546875 72.453125 
Q 61.96875 70.703125 67.390625 67.28125 
L 67.390625 56.78125 
Q 61.921875 61.421875 55.765625 63.765625 
Q 49.609375 66.109375 42.828125 66.109375 
Q 29.4375 66.109375 22.71875 58.640625 
Q 16.015625 51.171875 16.015625 36.375 
Q 16.015625 21.625 22.71875 14.15625 
Q 29.4375 6.6875 42.828125 6.6875 
Q 48.046875 6.6875 52.140625 7.59375 
Q 56.25 8.5 59.515625 10.40625 
z
" id="DejaVuSans-71"/>
       <path d="M 4.890625 31.390625 
L 31.203125 31.390625 
L 31.203125 23.390625 
L 4.890625 23.390625 
z
" id="DejaVuSans-45"/>
       <path d="M 9.8125 72.90625 
L 24.515625 72.90625 
L 43.109375 23.296875 
L 61.8125 72.90625 
L 76.515625 72.90625 
L 76.515625 0 
L 66.890625 0 
L 66.890625 64.015625 
L 48.09375 14.015625 
L 38.1875 14.015625 
L 19.390625 64.015625 
L 19.390625 0 
L 9.8125 0 
z
" id="DejaVuSans-77"/>
      </defs>
      <use xlink:href="#DejaVuSans-71"/>
      <use x="77.490234" xlink:href="#DejaVuSans-45"/>
      <use x="113.574219" xlink:href="#DejaVuSans-77"/>
      <use x="199.853516" xlink:href="#DejaVuSans-101"/>
      <use x="261.376953" xlink:href="#DejaVuSans-97"/>
      <use x="322.65625" xlink:href="#DejaVuSans-110"/>
     </g>
    </g>
   </g>
   <g id="line2d_17"/>
   <g id="line2d_18"/>
   <g id="line2d_19"/>
   <g id="line2d_20"/>
   <g id="line2d_21"/>
   <g id="line2d_22">
    <path clip-path="url(#p4caf13f12a)" d="M 122.604545 185.890924 
L 124.407037 318.027351 
L 126.209529 362.072827 
L 128.012021 376.651813 
L 129.814513 365.359919 
L 131.617005 337.230337 
L 133.419497 301.354989 
L 135.221989 286.589336 
L 137.024481 261.151852 
L 138.826973 257.082842 
L 140.629465 246.11031 
L 142.431957 243.99581 
L 144.234449 254.46007 
L 146.03694 245.195385 
L 147.839432 250.210067 
L 149.641924 248.367888 
L 151.444416 239.541379 
L 153.246908 244.021988 
L 155.0494 253.304497 
L 156.851892 244.961521 
L 158.654384 246.717581 
L 160.456876 229.666549 
L 162.259368 213.977609 
L 164.06186 205.535368 
L 165.864352 198.37156 
L 167.666844 194.276735 
L 169.469335 196.806674 
L 171.271827 198.668274 
L 173.074319 210.820422 
L 174.876811 212.83619 
L 176.679303 212.303322 
L 178.481795 217.276124 
L 180.284287 212.166491 
L 182.086779 215.757889 
L 183.889271 214.96798 
L 185.691763 212.360678 
L 187.494255 215.291086 
L 189.296747 203.603718 
L 191.099239 189.41932 
L 192.901731 202.773253 
L 194.704222 196.655355 
L 196.506714 198.498059 
L 198.309206 205.570737 
L 200.111698 204.030328 
L 201.91419 207.129029 
L 203.716682 217.415514 
L 205.519174 229.572336 
L 207.321666 224.930601 
L 209.124158 222.196652 
L 212.729142 215.075056 
L 214.531634 206.637128 
L 216.334126 209.625257 
L 218.136617 206.03386 
L 219.939109 208.940906 
L 221.741601 213.101574 
L 223.544093 210.188013 
L 225.346585 211.583702 
L 227.149077 214.123323 
L 228.951569 201.396435 
L 230.754061 199.579319 
L 232.556553 202.12294 
L 234.359045 204.251895 
L 236.161537 208.249855 
L 237.964029 205.872974 
L 239.766521 192.716871 
L 241.569012 177.549348 
L 243.371504 178.018828 
L 245.173996 168.582706 
L 246.976488 163.337192 
L 248.77898 165.00646 
L 250.581472 169.735571 
L 252.383964 166.747441 
L 254.186456 170.077347 
L 255.988948 166.327507 
L 257.79144 159.504417 
L 259.593932 167.962445 
L 261.396424 167.978803 
L 263.198916 161.71969 
L 265.001407 164.586024 
L 266.803899 169.02661 
L 268.606391 174.460634 
L 272.211375 159.680021 
L 274.013867 153.298641 
L 275.816359 157.300743 
L 277.618851 156.609711 
L 279.421343 158.905736 
L 281.223835 167.077819 
L 283.026327 172.308744 
L 284.828819 176.44802 
L 286.631311 176.461128 
L 288.433802 168.319863 
L 290.236294 166.817746 
L 292.038786 161.591156 
L 293.841278 164.985607 
L 295.64377 169.956962 
L 297.446262 171.638595 
L 299.248754 173.03196 
L 301.051246 170.93427 
L 302.853738 176.467669 
L 304.65623 172.227008 
L 306.458722 177.170911 
L 308.261214 180.378372 
L 310.063706 185.636618 
L 311.866198 184.830451 
L 313.668689 181.502896 
L 315.471181 183.40659 
L 317.273673 179.189078 
L 319.076165 175.906057 
L 320.878657 169.710888 
L 322.681149 160.850537 
L 324.483641 158.250779 
L 328.088625 149.085591 
L 329.891117 145.707988 
L 331.693609 130.799454 
L 333.496101 130.218562 
L 335.298593 137.997301 
L 337.101084 141.876325 
L 338.903576 143.83322 
L 340.706068 140.196668 
L 342.50856 134.843611 
L 344.311052 141.176114 
L 346.113544 145.770473 
L 347.916036 152.01066 
L 349.718528 156.046612 
L 351.52102 151.815311 
L 353.323512 153.440558 
L 355.126004 159.299267 
L 356.928496 167.061599 
L 358.730988 165.491201 
L 360.533479 186.01229 
L 362.335971 184.15146 
L 364.138463 198.544763 
L 365.940955 197.066023 
L 367.743447 207.516672 
L 369.545939 207.500884 
L 371.348431 204.374675 
L 373.150923 199.099963 
L 374.953415 203.045358 
L 376.755907 208.222264 
L 378.558399 208.018296 
L 380.360891 199.868548 
L 382.163383 198.945312 
L 383.965874 192.882237 
L 385.768366 193.362738 
L 387.570858 196.111119 
L 389.37335 195.48225 
L 391.175842 197.269878 
L 392.978334 200.80793 
L 394.780826 208.477946 
L 396.583318 194.663801 
L 398.38581 197.986935 
L 400.188302 184.442532 
L 401.990794 188.983197 
L 403.793286 180.552737 
L 405.595778 178.64935 
L 407.398269 175.564725 
L 409.200761 176.976772 
L 411.003253 173.994522 
L 412.805745 169.248269 
L 414.608237 168.237036 
L 416.410729 168.192786 
L 418.213221 163.90811 
L 420.015713 166.831875 
L 421.818205 170.939084 
L 423.620697 166.320747 
L 425.423189 169.528207 
L 427.225681 161.329654 
L 429.028173 155.860816 
L 430.830665 158.595338 
L 432.633156 150.702564 
L 434.435648 157.875857 
L 436.23814 163.455461 
L 438.040632 161.4289 
L 439.843124 166.978242 
L 441.645616 167.36682 
L 443.448108 172.313044 
L 445.2506 180.942667 
L 447.053092 171.752299 
L 448.855584 174.944442 
L 450.658076 177.256262 
L 452.460568 172.399815 
L 454.26306 171.38812 
L 456.065551 176.602626 
L 457.868043 176.602626 
L 459.670535 182.676421 
L 461.473027 174.768926 
L 463.275519 178.633082 
L 465.078011 181.589073 
L 466.880503 180.324464 
L 468.682995 180.608641 
L 470.485487 182.448268 
L 472.287979 184.027513 
L 474.090471 188.24508 
L 475.892963 186.368849 
L 477.695455 187.883657 
L 477.695455 187.883657 
" style="fill:none;stroke:#cc3311;stroke-linecap:square;stroke-width:0.5;"/>
    <defs>
     <path d="M 0 2.5 
C 0.663008 2.5 1.29895 2.236584 1.767767 1.767767 
C 2.236584 1.29895 2.5 0.663008 2.5 0 
C 2.5 -0.663008 2.236584 -1.29895 1.767767 -1.767767 
C 1.29895 -2.236584 0.663008 -2.5 0 -2.5 
C -0.663008 -2.5 -1.29895 -2.236584 -1.767767 -1.767767 
C -2.236584 -1.29895 -2.5 -0.663008 -2.5 0 
C -2.5 0.663008 -2.236584 1.29895 -1.767767 1.767767 
C -1.29895 2.236584 -0.663008 2.5 0 2.5 
z
" id="m7cdb918163" style="stroke:#cc3311;"/>
    </defs>
    <g clip-path="url(#p4caf13f12a)">
     <use style="fill:#cc3311;stroke:#cc3311;" x="122.604545" xlink:href="#m7cdb918163" y="185.890924"/>
     <use style="fill:#cc3311;stroke:#cc3311;" x="140.629465" xlink:href="#m7cdb918163" y="246.11031"/>
     <use style="fill:#cc3311;stroke:#cc3311;" x="158.654384" xlink:href="#m7cdb918163" y="246.717581"/>
     <use style="fill:#cc3311;stroke:#cc3311;" x="176.679303" xlink:href="#m7cdb918163" y="212.303322"/>
     <use style="fill:#cc3311;stroke:#cc3311;" x="194.704222" xlink:href="#m7cdb918163" y="196.655355"/>
     <use style="fill:#cc3311;stroke:#cc3311;" x="212.729142" xlink:href="#m7cdb918163" y="215.075056"/>
     <use style="fill:#cc3311;stroke:#cc3311;" x="230.754061" xlink:href="#m7cdb918163" y="199.579319"/>
     <use style="fill:#cc3311;stroke:#cc3311;" x="248.77898" xlink:href="#m7cdb918163" y="165.00646"/>
     <use style="fill:#cc3311;stroke:#cc3311;" x="266.803899" xlink:href="#m7cdb918163" y="169.02661"/>
     <use style="fill:#cc3311;stroke:#cc3311;" x="284.828819" xlink:href="#m7cdb918163" y="176.44802"/>
     <use style="fill:#cc3311;stroke:#cc3311;" x="302.853738" xlink:href="#m7cdb918163" y="176.467669"/>
     <use style="fill:#cc3311;stroke:#cc3311;" x="320.878657" xlink:href="#m7cdb918163" y="169.710888"/>
     <use style="fill:#cc3311;stroke:#cc3311;" x="338.903576" xlink:href="#m7cdb918163" y="143.83322"/>
     <use style="fill:#cc3311;stroke:#cc3311;" x="356.928496" xlink:href="#m7cdb918163" y="167.061599"/>
     <use style="fill:#cc3311;stroke:#cc3311;" x="374.953415" xlink:href="#m7cdb918163" y="203.045358"/>
     <use style="fill:#cc3311;stroke:#cc3311;" x="392.978334" xlink:href="#m7cdb918163" y="200.80793"/>
     <use style="fill:#cc3311;stroke:#cc3311;" x="411.003253" xlink:href="#m7cdb918163" y="173.994522"/>
     <use style="fill:#cc3311;stroke:#cc3311;" x="429.028173" xlink:href="#m7cdb918163" y="155.860816"/>
     <use style="fill:#cc3311;stroke:#cc3311;" x="447.053092" xlink:href="#m7cdb918163" y="171.752299"/>
     <use style="fill:#cc3311;stroke:#cc3311;" x="465.078011" xlink:href="#m7cdb918163" y="181.589073"/>
    </g>
   </g>
   <g id="line2d_23"/>
   <g id="line2d_24"/>
   <g id="line2d_25"/>
   <g id="line2d_26"/>
   <g id="line2d_27">
    <path clip-path="url(#p4caf13f12a)" d="M 122.604545 173.222001 
L 124.407037 178.762305 
L 126.209529 208.279148 
L 128.012021 205.046882 
L 129.814513 180.187463 
L 131.617005 163.1361 
L 133.419497 161.473993 
L 135.221989 162.995963 
L 137.024481 165.555951 
L 138.826973 165.200079 
L 140.629465 167.387649 
L 142.431957 176.134152 
L 144.234449 195.204447 
L 146.03694 190.50537 
L 147.839432 186.928924 
L 149.641924 188.471085 
L 151.444416 187.868863 
L 153.246908 195.141517 
L 155.0494 204.903554 
L 156.851892 201.716002 
L 158.654384 207.750402 
L 160.456876 208.944577 
L 162.259368 206.753258 
L 164.06186 208.123337 
L 165.864352 214.853431 
L 167.666844 220.426234 
L 169.469335 223.642169 
L 171.271827 226.101493 
L 173.074319 223.344701 
L 174.876811 228.262591 
L 176.679303 228.882561 
L 178.481795 239.807212 
L 180.284287 235.490226 
L 183.889271 258.562753 
L 185.691763 258.494442 
L 187.494255 264.985613 
L 189.296747 258.155393 
L 191.099239 248.372794 
L 192.901731 249.703971 
L 194.704222 242.885662 
L 198.309206 245.748465 
L 200.111698 252.772821 
L 201.91419 257.866681 
L 203.716682 259.596698 
L 205.519174 264.06448 
L 207.321666 263.04922 
L 209.124158 271.09774 
L 210.92665 272.075954 
L 212.729142 269.684129 
L 214.531634 255.512445 
L 216.334126 258.807947 
L 218.136617 249.132684 
L 219.939109 246.797999 
L 221.741601 249.798154 
L 223.544093 241.248328 
L 225.346585 242.640255 
L 227.149077 244.294378 
L 230.754061 239.314875 
L 232.556553 241.545123 
L 234.359045 245.000095 
L 236.161537 239.133714 
L 237.964029 232.103275 
L 239.766521 226.303525 
L 241.569012 217.251911 
L 243.371504 218.248871 
L 246.976488 204.833223 
L 248.77898 204.692653 
L 250.581472 210.320806 
L 252.383964 202.375821 
L 254.186456 205.782557 
L 255.988948 201.817249 
L 257.79144 193.801508 
L 259.593932 194.661795 
L 261.396424 191.437507 
L 263.198916 188.688694 
L 265.001407 194.684851 
L 266.803899 199.470958 
L 268.606391 201.865324 
L 270.408883 199.062175 
L 272.211375 198.511514 
L 274.013867 198.207457 
L 275.816359 204.206247 
L 277.618851 205.246018 
L 279.421343 204.357553 
L 281.223835 208.296111 
L 283.026327 208.08194 
L 284.828819 213.109038 
L 286.631311 209.150639 
L 288.433802 206.941576 
L 290.236294 209.302728 
L 292.038786 210.839608 
L 293.841278 212.743511 
L 295.64377 217.548305 
L 297.446262 216.912241 
L 299.248754 218.168063 
L 301.051246 217.163576 
L 302.853738 223.909007 
L 304.65623 220.43529 
L 306.458722 222.333265 
L 308.261214 221.633423 
L 311.866198 225.38593 
L 313.668689 223.384737 
L 315.471181 226.084569 
L 317.273673 220.89382 
L 319.076165 224.295958 
L 320.878657 219.417586 
L 322.681149 216.018482 
L 324.483641 214.186578 
L 326.286133 208.353559 
L 328.088625 204.175511 
L 329.891117 202.631913 
L 331.693609 195.113917 
L 333.496101 199.688865 
L 335.298593 199.955719 
L 337.101084 201.122494 
L 338.903576 195.642081 
L 340.706068 191.20705 
L 342.50856 188.049977 
L 344.311052 195.649146 
L 346.113544 195.771704 
L 347.916036 198.504354 
L 349.718528 201.558053 
L 351.52102 200.133604 
L 355.126004 211.022412 
L 356.928496 217.218186 
L 358.730988 213.646165 
L 360.533479 222.285308 
L 362.335971 222.489164 
L 364.138463 230.798208 
L 365.940955 233.970651 
L 367.743447 237.591058 
L 369.545939 235.704528 
L 371.348431 236.206248 
L 373.150923 232.921798 
L 374.953415 242.993447 
L 378.558399 234.80924 
L 380.360891 229.693428 
L 382.163383 231.403829 
L 383.965874 220.779921 
L 385.768366 219.751534 
L 387.570858 221.585991 
L 389.37335 221.250548 
L 391.175842 220.18242 
L 392.978334 217.826584 
L 394.780826 226.269724 
L 396.583318 223.432778 
L 398.38581 224.59146 
L 400.188302 216.823978 
L 401.990794 218.873104 
L 403.793286 220.42839 
L 405.595778 221.002314 
L 407.398269 221.33606 
L 409.200761 223.125975 
L 411.003253 215.199308 
L 412.805745 215.482889 
L 414.608237 213.579456 
L 416.410729 213.166562 
L 418.213221 212.482825 
L 420.015713 220.155029 
L 421.818205 221.389077 
L 423.620697 216.043392 
L 425.423189 217.90537 
L 427.225681 206.560784 
L 429.028173 205.698285 
L 430.830665 200.928387 
L 432.633156 190.370453 
L 434.435648 190.049932 
L 436.23814 192.128844 
L 438.040632 189.200261 
L 439.843124 191.733016 
L 441.645616 188.815828 
L 443.448108 184.846802 
L 445.2506 187.922631 
L 447.053092 183.073313 
L 448.855584 183.579889 
L 450.658076 188.257622 
L 452.460568 178.849144 
L 454.26306 173.677162 
L 456.065551 173.763221 
L 457.868043 171.788803 
L 459.670535 172.317998 
L 461.473027 162.830404 
L 463.275519 169.928591 
L 465.078011 171.067026 
L 466.880503 171.686028 
L 468.682995 171.52545 
L 470.485487 171.700417 
L 472.287979 172.722405 
L 474.090471 176.291028 
L 475.892963 173.530268 
L 477.695455 174.279933 
L 477.695455 174.279933 
" style="fill:none;stroke:#009988;stroke-dasharray:1.85,0.8;stroke-dashoffset:0;stroke-width:0.5;"/>
    <defs>
     <path d="M -2.5 2.5 
L 2.5 2.5 
L 2.5 -2.5 
L -2.5 -2.5 
z
" id="m8468a10553" style="stroke:#009988;stroke-linejoin:miter;"/>
    </defs>
    <g clip-path="url(#p4caf13f12a)">
     <use style="fill:#009988;stroke:#009988;stroke-linejoin:miter;" x="122.604545" xlink:href="#m8468a10553" y="173.222001"/>
     <use style="fill:#009988;stroke:#009988;stroke-linejoin:miter;" x="140.629465" xlink:href="#m8468a10553" y="167.387649"/>
     <use style="fill:#009988;stroke:#009988;stroke-linejoin:miter;" x="158.654384" xlink:href="#m8468a10553" y="207.750402"/>
     <use style="fill:#009988;stroke:#009988;stroke-linejoin:miter;" x="176.679303" xlink:href="#m8468a10553" y="228.882561"/>
     <use style="fill:#009988;stroke:#009988;stroke-linejoin:miter;" x="194.704222" xlink:href="#m8468a10553" y="242.885662"/>
     <use style="fill:#009988;stroke:#009988;stroke-linejoin:miter;" x="212.729142" xlink:href="#m8468a10553" y="269.684129"/>
     <use style="fill:#009988;stroke:#009988;stroke-linejoin:miter;" x="230.754061" xlink:href="#m8468a10553" y="239.314875"/>
     <use style="fill:#009988;stroke:#009988;stroke-linejoin:miter;" x="248.77898" xlink:href="#m8468a10553" y="204.692653"/>
     <use style="fill:#009988;stroke:#009988;stroke-linejoin:miter;" x="266.803899" xlink:href="#m8468a10553" y="199.470958"/>
     <use style="fill:#009988;stroke:#009988;stroke-linejoin:miter;" x="284.828819" xlink:href="#m8468a10553" y="213.109038"/>
     <use style="fill:#009988;stroke:#009988;stroke-linejoin:miter;" x="302.853738" xlink:href="#m8468a10553" y="223.909007"/>
     <use style="fill:#009988;stroke:#009988;stroke-linejoin:miter;" x="320.878657" xlink:href="#m8468a10553" y="219.417586"/>
     <use style="fill:#009988;stroke:#009988;stroke-linejoin:miter;" x="338.903576" xlink:href="#m8468a10553" y="195.642081"/>
     <use style="fill:#009988;stroke:#009988;stroke-linejoin:miter;" x="356.928496" xlink:href="#m8468a10553" y="217.218186"/>
     <use style="fill:#009988;stroke:#009988;stroke-linejoin:miter;" x="374.953415" xlink:href="#m8468a10553" y="242.993447"/>
     <use style="fill:#009988;stroke:#009988;stroke-linejoin:miter;" x="392.978334" xlink:href="#m8468a10553" y="217.826584"/>
     <use style="fill:#009988;stroke:#009988;stroke-linejoin:miter;" x="411.003253" xlink:href="#m8468a10553" y="215.199308"/>
     <use style="fill:#009988;stroke:#009988;stroke-linejoin:miter;" x="429.028173" xlink:href="#m8468a10553" y="205.698285"/>
     <use style="fill:#009988;stroke:#009988;stroke-linejoin:miter;" x="447.053092" xlink:href="#m8468a10553" y="183.073313"/>
     <use style="fill:#009988;stroke:#009988;stroke-linejoin:miter;" x="465.078011" xlink:href="#m8468a10553" y="171.067026"/>
    </g>
   </g>
   <g id="line2d_28"/>
   <g id="line2d_29"/>
   <g id="line2d_30"/>
   <g id="line2d_31"/>
   <g id="line2d_32">
    <path clip-path="url(#p4caf13f12a)" d="M 122.604545 124.651813 
L 124.407037 136.413726 
L 126.209529 164.888719 
L 128.012021 155.356582 
L 129.814513 152.835231 
L 131.617005 160.510043 
L 133.419497 150.419376 
L 135.221989 146.403911 
L 137.024481 140.766606 
L 138.826973 140.838661 
L 140.629465 140.607805 
L 142.431957 147.537623 
L 144.234449 165.541306 
L 146.03694 165.567766 
L 147.839432 169.282083 
L 149.641924 172.549226 
L 151.444416 166.148307 
L 153.246908 174.893596 
L 156.851892 172.310478 
L 158.654384 175.569521 
L 160.456876 173.717561 
L 162.259368 166.964987 
L 164.06186 170.514502 
L 165.864352 172.581506 
L 167.666844 165.344946 
L 169.469335 165.310573 
L 171.271827 170.528451 
L 173.074319 178.190405 
L 174.876811 180.365478 
L 176.679303 179.801888 
L 178.481795 179.705126 
L 180.284287 174.603425 
L 182.086779 176.266462 
L 183.889271 176.377428 
L 185.691763 173.819409 
L 187.494255 178.58649 
L 189.296747 166.816215 
L 191.099239 168.973451 
L 192.901731 179.296637 
L 194.704222 172.991684 
L 196.506714 174.781953 
L 198.309206 184.346735 
L 200.111698 185.619613 
L 201.91419 188.386295 
L 203.716682 196.783876 
L 205.519174 208.367809 
L 209.124158 198.821854 
L 210.92665 197.819438 
L 212.729142 194.175711 
L 214.531634 188.657654 
L 216.334126 189.104443 
L 218.136617 185.383543 
L 219.939109 186.535475 
L 221.741601 190.657585 
L 223.544093 187.687125 
L 225.346585 189.096134 
L 227.149077 188.845785 
L 228.951569 176.110905 
L 230.754061 176.092798 
L 232.556553 178.589188 
L 234.359045 178.576971 
L 236.161537 182.451318 
L 237.964029 180.047771 
L 239.766521 170.25485 
L 241.569012 158.070643 
L 243.371504 158.507675 
L 245.173996 153.772006 
L 246.976488 147.526645 
L 248.77898 149.124144 
L 250.581472 155.917091 
L 252.383964 152.570769 
L 254.186456 153.183973 
L 255.988948 150.882829 
L 257.79144 144.057129 
L 259.593932 152.464565 
L 261.396424 149.301461 
L 263.198916 143.016029 
L 265.001407 145.864215 
L 266.803899 146.1492 
L 268.606391 149.382876 
L 270.408883 143.950339 
L 272.211375 143.614922 
L 274.013867 137.251229 
L 275.816359 142.821563 
L 277.618851 142.11356 
L 279.421343 152.918212 
L 281.223835 166.078738 
L 283.026327 173.688125 
L 284.828819 177.857348 
L 286.631311 180.560879 
L 288.433802 175.249875 
L 290.236294 178.396241 
L 292.038786 177.575788 
L 293.841278 181.05308 
L 295.64377 183.694497 
L 297.446262 186.775103 
L 299.248754 188.167905 
L 301.051246 183.044606 
L 302.853738 192.693323 
L 304.65623 193.019459 
L 306.458722 197.963362 
L 308.261214 194.328324 
L 310.063706 197.233777 
L 311.866198 198.825733 
L 313.668689 195.519015 
L 315.471181 188.969089 
L 317.273673 181.476553 
L 319.076165 178.184372 
L 320.878657 171.995511 
L 322.681149 160.396716 
L 326.286133 155.405843 
L 328.088625 150.842895 
L 329.891117 147.366302 
L 331.693609 134.805292 
L 333.496101 135.921713 
L 335.298593 143.709575 
L 337.101084 146.573201 
L 338.903576 143.357531 
L 340.706068 139.145322 
L 342.50856 133.838116 
L 344.311052 140.129415 
L 346.113544 145.043112 
L 347.916036 144.124696 
L 349.718528 148.122044 
L 351.52102 143.851522 
L 353.323512 146.337748 
L 355.126004 152.134509 
L 356.928496 159.889184 
L 358.730988 157.305699 
L 360.533479 177.791441 
L 362.335971 173.710579 
L 364.138463 188.059968 
L 365.940955 186.599542 
L 367.743447 194.19269 
L 369.545939 189.325217 
L 371.348431 186.172797 
L 373.150923 184.940888 
L 374.953415 186.091072 
L 376.755907 189.541897 
L 378.558399 189.292079 
L 380.360891 181.14233 
L 382.163383 176.389396 
L 383.965874 175.087152 
L 385.768366 175.601888 
L 387.570858 178.348944 
L 389.37335 175.127756 
L 391.175842 174.062686 
L 392.978334 175.883772 
L 394.780826 184.563744 
L 396.583318 173.218774 
L 398.38581 171.96168 
L 400.188302 158.460157 
L 401.990794 162.979206 
L 403.793286 157.405259 
L 405.595778 160.337761 
L 407.398269 157.253137 
L 409.200761 158.664437 
L 411.003253 163.648464 
L 414.608237 154.157457 
L 416.410729 154.12795 
L 418.213221 152.773657 
L 420.015713 155.681211 
L 421.818205 159.754186 
L 423.620697 155.121386 
L 425.423189 158.356253 
L 427.225681 153.023641 
L 429.028173 151.216866 
L 430.830665 153.963144 
L 432.633156 143.601194 
L 434.435648 153.454327 
L 436.23814 159.028108 
L 438.040632 157.003599 
L 439.843124 162.563805 
L 441.645616 163.002563 
L 443.448108 161.858273 
L 445.2506 168.196765 
L 447.053092 159.011035 
L 448.855584 157.24163 
L 450.658076 163.266853 
L 452.460568 156.073877 
L 454.26306 156.10758 
L 456.065551 159.074954 
L 457.868043 157.480677 
L 459.670535 160.362328 
L 461.473027 152.445077 
L 463.275519 156.309233 
L 465.078011 157.291526 
L 466.880503 151.054482 
L 468.682995 151.356783 
L 470.485487 150.346195 
L 472.287979 148.922087 
L 474.090471 153.121613 
L 475.892963 151.276489 
L 477.695455 152.741119 
L 477.695455 152.741119 
" style="fill:none;stroke:#0077bb;stroke-dasharray:3.2,0.8,0.5,0.8;stroke-dashoffset:0;stroke-width:0.5;"/>
    <defs>
     <path d="M 0 -2.5 
L -2.5 2.5 
L 2.5 2.5 
z
" id="m36f903155e" style="stroke:#0077bb;stroke-linejoin:miter;"/>
    </defs>
    <g clip-path="url(#p4caf13f12a)">
     <use style="fill:#0077bb;stroke:#0077bb;stroke-linejoin:miter;" x="122.604545" xlink:href="#m36f903155e" y="124.651813"/>
     <use style="fill:#0077bb;stroke:#0077bb;stroke-linejoin:miter;" x="140.629465" xlink:href="#m36f903155e" y="140.607805"/>
     <use style="fill:#0077bb;stroke:#0077bb;stroke-linejoin:miter;" x="158.654384" xlink:href="#m36f903155e" y="175.569521"/>
     <use style="fill:#0077bb;stroke:#0077bb;stroke-linejoin:miter;" x="176.679303" xlink:href="#m36f903155e" y="179.801888"/>
     <use style="fill:#0077bb;stroke:#0077bb;stroke-linejoin:miter;" x="194.704222" xlink:href="#m36f903155e" y="172.991684"/>
     <use style="fill:#0077bb;stroke:#0077bb;stroke-linejoin:miter;" x="212.729142" xlink:href="#m36f903155e" y="194.175711"/>
     <use style="fill:#0077bb;stroke:#0077bb;stroke-linejoin:miter;" x="230.754061" xlink:href="#m36f903155e" y="176.092798"/>
     <use style="fill:#0077bb;stroke:#0077bb;stroke-linejoin:miter;" x="248.77898" xlink:href="#m36f903155e" y="149.124144"/>
     <use style="fill:#0077bb;stroke:#0077bb;stroke-linejoin:miter;" x="266.803899" xlink:href="#m36f903155e" y="146.1492"/>
     <use style="fill:#0077bb;stroke:#0077bb;stroke-linejoin:miter;" x="284.828819" xlink:href="#m36f903155e" y="177.857348"/>
     <use style="fill:#0077bb;stroke:#0077bb;stroke-linejoin:miter;" x="302.853738" xlink:href="#m36f903155e" y="192.693323"/>
     <use style="fill:#0077bb;stroke:#0077bb;stroke-linejoin:miter;" x="320.878657" xlink:href="#m36f903155e" y="171.995511"/>
     <use style="fill:#0077bb;stroke:#0077bb;stroke-linejoin:miter;" x="338.903576" xlink:href="#m36f903155e" y="143.357531"/>
     <use style="fill:#0077bb;stroke:#0077bb;stroke-linejoin:miter;" x="356.928496" xlink:href="#m36f903155e" y="159.889184"/>
     <use style="fill:#0077bb;stroke:#0077bb;stroke-linejoin:miter;" x="374.953415" xlink:href="#m36f903155e" y="186.091072"/>
     <use style="fill:#0077bb;stroke:#0077bb;stroke-linejoin:miter;" x="392.978334" xlink:href="#m36f903155e" y="175.883772"/>
     <use style="fill:#0077bb;stroke:#0077bb;stroke-linejoin:miter;" x="411.003253" xlink:href="#m36f903155e" y="163.648464"/>
     <use style="fill:#0077bb;stroke:#0077bb;stroke-linejoin:miter;" x="429.028173" xlink:href="#m36f903155e" y="151.216866"/>
     <use style="fill:#0077bb;stroke:#0077bb;stroke-linejoin:miter;" x="447.053092" xlink:href="#m36f903155e" y="159.011035"/>
     <use style="fill:#0077bb;stroke:#0077bb;stroke-linejoin:miter;" x="465.078011" xlink:href="#m36f903155e" y="157.291526"/>
    </g>
   </g>
   <g id="line2d_33"/>
   <g id="line2d_34"/>
   <g id="line2d_35"/>
   <g id="line2d_36"/>
   <g id="line2d_37">
    <path clip-path="url(#p4caf13f12a)" d="M 122.604545 174.527463 
L 124.407037 180.270721 
L 126.209529 209.586021 
L 128.012021 206.118893 
L 129.814513 181.482037 
L 131.617005 164.505494 
L 133.419497 162.810131 
L 135.221989 164.255122 
L 137.024481 166.754921 
L 138.826973 166.391003 
L 140.629465 168.6604 
L 142.431957 177.376774 
L 144.234449 196.402071 
L 146.03694 191.674496 
L 147.839432 188.072793 
L 149.641924 189.610778 
L 151.444416 188.986581 
L 153.246908 196.279937 
L 155.0494 206.050796 
L 156.851892 202.933766 
L 158.654384 209.030446 
L 160.456876 210.178163 
L 162.259368 207.978446 
L 164.06186 209.348517 
L 165.864352 216.078579 
L 167.666844 221.749687 
L 169.469335 225.054182 
L 171.271827 227.569174 
L 173.074319 224.905438 
L 174.876811 229.834998 
L 176.679303 228.907442 
L 178.481795 239.813761 
L 180.284287 235.519683 
L 183.889271 258.634587 
L 185.691763 258.606881 
L 187.494255 265.174332 
L 189.296747 258.469518 
L 191.099239 248.741986 
L 192.901731 250.009498 
L 194.704222 243.207772 
L 198.309206 246.155687 
L 200.111698 253.203521 
L 201.91419 258.28235 
L 203.716682 259.937169 
L 205.519174 264.324817 
L 207.321666 263.338437 
L 209.124158 271.309846 
L 210.92665 272.237732 
L 212.729142 271.372576 
L 214.531634 257.193184 
L 216.334126 258.320661 
L 218.136617 248.626397 
L 219.939109 246.287213 
L 221.741601 249.276903 
L 223.544093 240.634357 
L 225.346585 241.884363 
L 227.149077 242.263726 
L 230.754061 237.167341 
L 232.556553 239.374403 
L 234.359045 242.837248 
L 236.161537 237.002505 
L 237.964029 229.917385 
L 239.766521 224.075855 
L 241.569012 214.982307 
L 243.371504 215.913641 
L 246.976488 202.535821 
L 248.77898 202.354815 
L 250.581472 208.04002 
L 252.383964 202.259038 
L 254.186456 205.682048 
L 255.988948 201.65725 
L 257.79144 193.62581 
L 259.593932 194.48467 
L 261.396424 191.284945 
L 263.198916 189.855824 
L 265.001407 195.871536 
L 266.803899 200.673829 
L 268.606391 203.061853 
L 270.408883 196.38648 
L 272.211375 195.815156 
L 274.013867 195.534263 
L 275.816359 201.501649 
L 277.618851 202.618877 
L 279.421343 201.713495 
L 281.223835 205.70619 
L 283.026327 205.448648 
L 284.828819 210.449877 
L 286.631311 206.469455 
L 288.433802 204.227487 
L 290.236294 206.584525 
L 292.038786 208.173316 
L 293.841278 210.071079 
L 295.64377 214.908038 
L 297.446262 214.27768 
L 299.248754 215.448277 
L 301.051246 214.37487 
L 302.853738 221.096448 
L 304.65623 217.682398 
L 306.458722 223.406297 
L 308.261214 222.769262 
L 311.866198 226.641153 
L 313.668689 224.606678 
L 315.471181 227.321694 
L 317.273673 222.055979 
L 319.076165 225.471695 
L 320.878657 220.704347 
L 322.681149 217.312764 
L 324.483641 215.544649 
L 326.286133 209.698686 
L 328.088625 205.55153 
L 329.891117 204.010352 
L 331.693609 196.484766 
L 333.496101 201.044963 
L 335.298593 201.269844 
L 337.101084 202.504996 
L 338.903576 197.09874 
L 340.706068 192.619307 
L 342.50856 189.536804 
L 344.311052 197.033915 
L 346.113544 197.217 
L 347.916036 199.836429 
L 349.718528 202.942619 
L 351.52102 201.557921 
L 356.928496 218.67043 
L 358.730988 215.127349 
L 360.533479 223.758563 
L 362.335971 224.02403 
L 364.138463 232.246291 
L 365.940955 235.453676 
L 367.743447 239.15037 
L 369.545939 237.311024 
L 371.348431 237.83157 
L 373.150923 234.538018 
L 374.953415 244.554123 
L 378.558399 236.317921 
L 380.360891 231.292852 
L 382.163383 232.920706 
L 383.965874 222.311819 
L 385.768366 221.227758 
L 387.570858 223.052688 
L 389.37335 222.701405 
L 391.175842 221.651665 
L 392.978334 219.302465 
L 394.780826 227.704954 
L 396.583318 224.843826 
L 398.38581 226.017982 
L 400.188302 218.275456 
L 401.990794 220.280242 
L 403.793286 221.714229 
L 405.595778 222.226703 
L 407.398269 220.632342 
L 409.200761 222.401137 
L 411.003253 212.210327 
L 412.805745 212.472062 
L 414.608237 210.550291 
L 416.410729 210.204296 
L 418.213221 210.015189 
L 420.015713 218.273764 
L 421.818205 219.585224 
L 423.620697 214.769995 
L 425.423189 217.490281 
L 427.225681 210.270945 
L 429.028173 210.047262 
L 430.830665 207.606814 
L 432.633156 196.22564 
L 434.435648 195.118 
L 436.23814 196.789389 
L 438.040632 193.557913 
L 439.843124 195.756329 
L 441.645616 192.639291 
L 443.448108 190.38374 
L 445.2506 193.332037 
L 447.053092 190.477468 
L 448.855584 190.848742 
L 450.658076 195.280938 
L 452.460568 185.701252 
L 454.26306 179.770213 
L 456.065551 179.265633 
L 457.868043 177.201612 
L 459.670535 177.3057 
L 461.473027 166.906911 
L 463.275519 170.11557 
L 465.078011 170.612789 
L 466.880503 168.774484 
L 468.682995 169.349321 
L 470.485487 167.919074 
L 472.287979 169.349689 
L 474.090471 173.06762 
L 475.892963 170.581093 
L 477.695455 171.308713 
L 477.695455 171.308713 
" style="fill:none;stroke:#ee7733;stroke-dasharray:0.5,0.825;stroke-dashoffset:0;stroke-width:0.5;"/>
    <defs>
     <path d="M 0 -2.5 
L -0.561285 -0.772542 
L -2.377641 -0.772542 
L -0.908178 0.295085 
L -1.469463 2.022542 
L -0 0.954915 
L 1.469463 2.022542 
L 0.908178 0.295085 
L 2.377641 -0.772542 
L 0.561285 -0.772542 
z
" id="mba1bbea2a4" style="stroke:#ee7733;stroke-linejoin:bevel;"/>
    </defs>
    <g clip-path="url(#p4caf13f12a)">
     <use style="fill:#ee7733;stroke:#ee7733;stroke-linejoin:bevel;" x="122.604545" xlink:href="#mba1bbea2a4" y="174.527463"/>
     <use style="fill:#ee7733;stroke:#ee7733;stroke-linejoin:bevel;" x="140.629465" xlink:href="#mba1bbea2a4" y="168.6604"/>
     <use style="fill:#ee7733;stroke:#ee7733;stroke-linejoin:bevel;" x="158.654384" xlink:href="#mba1bbea2a4" y="209.030446"/>
     <use style="fill:#ee7733;stroke:#ee7733;stroke-linejoin:bevel;" x="176.679303" xlink:href="#mba1bbea2a4" y="228.907442"/>
     <use style="fill:#ee7733;stroke:#ee7733;stroke-linejoin:bevel;" x="194.704222" xlink:href="#mba1bbea2a4" y="243.207772"/>
     <use style="fill:#ee7733;stroke:#ee7733;stroke-linejoin:bevel;" x="212.729142" xlink:href="#mba1bbea2a4" y="271.372576"/>
     <use style="fill:#ee7733;stroke:#ee7733;stroke-linejoin:bevel;" x="230.754061" xlink:href="#mba1bbea2a4" y="237.167341"/>
     <use style="fill:#ee7733;stroke:#ee7733;stroke-linejoin:bevel;" x="248.77898" xlink:href="#mba1bbea2a4" y="202.354815"/>
     <use style="fill:#ee7733;stroke:#ee7733;stroke-linejoin:bevel;" x="266.803899" xlink:href="#mba1bbea2a4" y="200.673829"/>
     <use style="fill:#ee7733;stroke:#ee7733;stroke-linejoin:bevel;" x="284.828819" xlink:href="#mba1bbea2a4" y="210.449877"/>
     <use style="fill:#ee7733;stroke:#ee7733;stroke-linejoin:bevel;" x="302.853738" xlink:href="#mba1bbea2a4" y="221.096448"/>
     <use style="fill:#ee7733;stroke:#ee7733;stroke-linejoin:bevel;" x="320.878657" xlink:href="#mba1bbea2a4" y="220.704347"/>
     <use style="fill:#ee7733;stroke:#ee7733;stroke-linejoin:bevel;" x="338.903576" xlink:href="#mba1bbea2a4" y="197.09874"/>
     <use style="fill:#ee7733;stroke:#ee7733;stroke-linejoin:bevel;" x="356.928496" xlink:href="#mba1bbea2a4" y="218.67043"/>
     <use style="fill:#ee7733;stroke:#ee7733;stroke-linejoin:bevel;" x="374.953415" xlink:href="#mba1bbea2a4" y="244.554123"/>
     <use style="fill:#ee7733;stroke:#ee7733;stroke-linejoin:bevel;" x="392.978334" xlink:href="#mba1bbea2a4" y="219.302465"/>
     <use style="fill:#ee7733;stroke:#ee7733;stroke-linejoin:bevel;" x="411.003253" xlink:href="#mba1bbea2a4" y="212.210327"/>
     <use style="fill:#ee7733;stroke:#ee7733;stroke-linejoin:bevel;" x="429.028173" xlink:href="#mba1bbea2a4" y="210.047262"/>
     <use style="fill:#ee7733;stroke:#ee7733;stroke-linejoin:bevel;" x="447.053092" xlink:href="#mba1bbea2a4" y="190.477468"/>
     <use style="fill:#ee7733;stroke:#ee7733;stroke-linejoin:bevel;" x="465.078011" xlink:href="#mba1bbea2a4" y="170.612789"/>
    </g>
   </g>
   <g id="line2d_38"/>
   <g id="line2d_39"/>
   <g id="line2d_40"/>
   <g id="line2d_41"/>
   <g id="patch_3">
    <path d="M 104.85 389.251812 
L 104.85 112.051812 
" style="fill:none;stroke:#000000;stroke-linecap:square;stroke-linejoin:miter;stroke-width:0.8;"/>
   </g>
   <g id="patch_4">
    <path d="M 495.45 389.251812 
L 495.45 112.051812 
" style="fill:none;stroke:#000000;stroke-linecap:square;stroke-linejoin:miter;stroke-width:0.8;"/>
   </g>
   <g id="patch_5">
    <path d="M 104.85 389.251812 
L 495.45 389.251812 
" style="fill:none;stroke:#000000;stroke-linecap:square;stroke-linejoin:miter;stroke-width:0.8;"/>
   </g>
   <g id="patch_6">
    <path d="M 104.85 112.051812 
L 495.45 112.051812 
" style="fill:none;stroke:#000000;stroke-linecap:square;stroke-linejoin:miter;stroke-width:0.8;"/>
   </g>
   <g id="legend_1">
    <g id="line2d_42"/>
    <g id="line2d_43"/>
    <g id="text_19">
     <!--   -->
     <g transform="translate(48.8 22.277969)scale(0.13 -0.13)">
      <use xlink:href="#DejaVuSans-32"/>
     </g>
    </g>
    <g id="line2d_44"/>
    <g id="line2d_45"/>
    <g id="text_20">
     <!-- start -->
     <g transform="translate(48.8 41.359531)scale(0.13 -0.13)">
      <use xlink:href="#DejaVuSans-115"/>
      <use x="52.099609" xlink:href="#DejaVuSans-116"/>
      <use x="91.308594" xlink:href="#DejaVuSans-97"/>
      <use x="152.587891" xlink:href="#DejaVuSans-114"/>
      <use x="193.701172" xlink:href="#DejaVuSans-116"/>
     </g>
    </g>
    <g id="line2d_46"/>
    <g id="line2d_47"/>
    <g id="text_21">
     <!-- pre-dirft -->
     <g transform="translate(48.8 60.441094)scale(0.13 -0.13)">
      <use xlink:href="#DejaVuSans-112"/>
      <use x="63.476562" xlink:href="#DejaVuSans-114"/>
      <use x="102.339844" xlink:href="#DejaVuSans-101"/>
      <use x="163.863281" xlink:href="#DejaVuSans-45"/>
      <use x="199.947266" xlink:href="#DejaVuSans-100"/>
      <use x="263.423828" xlink:href="#DejaVuSans-105"/>
      <use x="291.207031" xlink:href="#DejaVuSans-114"/>
      <use x="332.320312" xlink:href="#DejaVuSans-102"/>
      <use x="365.775391" xlink:href="#DejaVuSans-116"/>
     </g>
    </g>
    <g id="line2d_48"/>
    <g id="line2d_49"/>
    <g id="text_22">
     <!-- post-drift -->
     <g transform="translate(48.8 79.522656)scale(0.13 -0.13)">
      <use xlink:href="#DejaVuSans-112"/>
      <use x="63.476562" xlink:href="#DejaVuSans-111"/>
      <use x="124.658203" xlink:href="#DejaVuSans-115"/>
      <use x="176.757812" xlink:href="#DejaVuSans-116"/>
      <use x="215.966797" xlink:href="#DejaVuSans-45"/>
      <use x="252.050781" xlink:href="#DejaVuSans-100"/>
      <use x="315.527344" xlink:href="#DejaVuSans-114"/>
      <use x="356.640625" xlink:href="#DejaVuSans-105"/>
      <use x="384.423828" xlink:href="#DejaVuSans-102"/>
      <use x="417.878906" xlink:href="#DejaVuSans-116"/>
     </g>
    </g>
    <g id="line2d_50"/>
    <g id="line2d_51"/>
    <g id="text_23">
     <!-- end -->
     <g transform="translate(48.8 98.604219)scale(0.13 -0.13)">
      <use xlink:href="#DejaVuSans-101"/>
      <use x="61.523438" xlink:href="#DejaVuSans-110"/>
      <use x="124.902344" xlink:href="#DejaVuSans-100"/>
     </g>
    </g>
    <g id="line2d_52">
     <path d="M 121.839805 17.727969 
L 147.839805 17.727969 
" style="fill:none;stroke:#cc3311;stroke-linecap:square;stroke-width:0.5;"/>
    </g>
    <g id="line2d_53">
     <g>
      <use style="fill:#cc3311;stroke:#cc3311;" x="134.839805" xlink:href="#m7cdb918163" y="17.727969"/>
     </g>
    </g>
    <g id="text_24">
     <!-- OOB -->
     <g transform="translate(158.239805 22.277969)scale(0.13 -0.13)">
      <defs>
       <path d="M 39.40625 66.21875 
Q 28.65625 66.21875 22.328125 58.203125 
Q 16.015625 50.203125 16.015625 36.375 
Q 16.015625 22.609375 22.328125 14.59375 
Q 28.65625 6.59375 39.40625 6.59375 
Q 50.140625 6.59375 56.421875 14.59375 
Q 62.703125 22.609375 62.703125 36.375 
Q 62.703125 50.203125 56.421875 58.203125 
Q 50.140625 66.21875 39.40625 66.21875 
z
M 39.40625 74.21875 
Q 54.734375 74.21875 63.90625 63.9375 
Q 73.09375 53.65625 73.09375 36.375 
Q 73.09375 19.140625 63.90625 8.859375 
Q 54.734375 -1.421875 39.40625 -1.421875 
Q 24.03125 -1.421875 14.8125 8.828125 
Q 5.609375 19.09375 5.609375 36.375 
Q 5.609375 53.65625 14.8125 63.9375 
Q 24.03125 74.21875 39.40625 74.21875 
z
" id="DejaVuSans-79"/>
       <path d="M 19.671875 34.8125 
L 19.671875 8.109375 
L 35.5 8.109375 
Q 43.453125 8.109375 47.28125 11.40625 
Q 51.125 14.703125 51.125 21.484375 
Q 51.125 28.328125 47.28125 31.5625 
Q 43.453125 34.8125 35.5 34.8125 
z
M 19.671875 64.796875 
L 19.671875 42.828125 
L 34.28125 42.828125 
Q 41.5 42.828125 45.03125 45.53125 
Q 48.578125 48.25 48.578125 53.8125 
Q 48.578125 59.328125 45.03125 62.0625 
Q 41.5 64.796875 34.28125 64.796875 
z
M 9.8125 72.90625 
L 35.015625 72.90625 
Q 46.296875 72.90625 52.390625 68.21875 
Q 58.5 63.53125 58.5 54.890625 
Q 58.5 48.1875 55.375 44.234375 
Q 52.25 40.28125 46.1875 39.3125 
Q 53.46875 37.75 57.5 32.78125 
Q 61.53125 27.828125 61.53125 20.40625 
Q 61.53125 10.640625 54.890625 5.3125 
Q 48.25 0 35.984375 0 
L 9.8125 0 
z
" id="DejaVuSans-66"/>
      </defs>
      <use xlink:href="#DejaVuSans-79"/>
      <use x="78.710938" xlink:href="#DejaVuSans-79"/>
      <use x="157.421875" xlink:href="#DejaVuSans-66"/>
     </g>
    </g>
    <g id="line2d_54"/>
    <g id="line2d_55"/>
    <g id="text_25">
     <!-- 0.7521 -->
     <g transform="translate(158.239805 41.359531)scale(0.13 -0.13)">
      <use xlink:href="#DejaVuSans-48"/>
      <use x="63.623047" xlink:href="#DejaVuSans-46"/>
      <use x="95.410156" xlink:href="#DejaVuSans-55"/>
      <use x="159.033203" xlink:href="#DejaVuSans-53"/>
      <use x="222.65625" xlink:href="#DejaVuSans-50"/>
      <use x="286.279297" xlink:href="#DejaVuSans-49"/>
     </g>
    </g>
    <g id="line2d_56"/>
    <g id="line2d_57"/>
    <g id="text_26">
     <!-- 0.7623 -->
     <g transform="translate(158.239805 60.441094)scale(0.13 -0.13)">
      <defs>
       <path d="M 40.578125 39.3125 
Q 47.65625 37.796875 51.625 33 
Q 55.609375 28.21875 55.609375 21.1875 
Q 55.609375 10.40625 48.1875 4.484375 
Q 40.765625 -1.421875 27.09375 -1.421875 
Q 22.515625 -1.421875 17.65625 -0.515625 
Q 12.796875 0.390625 7.625 2.203125 
L 7.625 11.71875 
Q 11.71875 9.328125 16.59375 8.109375 
Q 21.484375 6.890625 26.8125 6.890625 
Q 36.078125 6.890625 40.9375 10.546875 
Q 45.796875 14.203125 45.796875 21.1875 
Q 45.796875 27.640625 41.28125 31.265625 
Q 36.765625 34.90625 28.71875 34.90625 
L 20.21875 34.90625 
L 20.21875 43.015625 
L 29.109375 43.015625 
Q 36.375 43.015625 40.234375 45.921875 
Q 44.09375 48.828125 44.09375 54.296875 
Q 44.09375 59.90625 40.109375 62.90625 
Q 36.140625 65.921875 28.71875 65.921875 
Q 24.65625 65.921875 20.015625 65.03125 
Q 15.375 64.15625 9.8125 62.3125 
L 9.8125 71.09375 
Q 15.4375 72.65625 20.34375 73.4375 
Q 25.25 74.21875 29.59375 74.21875 
Q 40.828125 74.21875 47.359375 69.109375 
Q 53.90625 64.015625 53.90625 55.328125 
Q 53.90625 49.265625 50.4375 45.09375 
Q 46.96875 40.921875 40.578125 39.3125 
z
" id="DejaVuSans-51"/>
      </defs>
      <use xlink:href="#DejaVuSans-48"/>
      <use x="63.623047" xlink:href="#DejaVuSans-46"/>
      <use x="95.410156" xlink:href="#DejaVuSans-55"/>
      <use x="159.033203" xlink:href="#DejaVuSans-54"/>
      <use x="222.65625" xlink:href="#DejaVuSans-50"/>
      <use x="286.279297" xlink:href="#DejaVuSans-51"/>
     </g>
    </g>
    <g id="line2d_58"/>
    <g id="line2d_59"/>
    <g id="text_27">
     <!-- 0.7706 -->
     <g transform="translate(158.239805 79.522656)scale(0.13 -0.13)">
      <use xlink:href="#DejaVuSans-48"/>
      <use x="63.623047" xlink:href="#DejaVuSans-46"/>
      <use x="95.410156" xlink:href="#DejaVuSans-55"/>
      <use x="159.033203" xlink:href="#DejaVuSans-55"/>
      <use x="222.65625" xlink:href="#DejaVuSans-48"/>
      <use x="286.279297" xlink:href="#DejaVuSans-54"/>
     </g>
    </g>
    <g id="line2d_60"/>
    <g id="line2d_61"/>
    <g id="text_28">
     <!-- 0.7495 -->
     <g transform="translate(158.239805 98.604219)scale(0.13 -0.13)">
      <defs>
       <path d="M 37.796875 64.3125 
L 12.890625 25.390625 
L 37.796875 25.390625 
z
M 35.203125 72.90625 
L 47.609375 72.90625 
L 47.609375 25.390625 
L 58.015625 25.390625 
L 58.015625 17.1875 
L 47.609375 17.1875 
L 47.609375 0 
L 37.796875 0 
L 37.796875 17.1875 
L 4.890625 17.1875 
L 4.890625 26.703125 
z
" id="DejaVuSans-52"/>
       <path d="M 10.984375 1.515625 
L 10.984375 10.5 
Q 14.703125 8.734375 18.5 7.8125 
Q 22.3125 6.890625 25.984375 6.890625 
Q 35.75 6.890625 40.890625 13.453125 
Q 46.046875 20.015625 46.78125 33.40625 
Q 43.953125 29.203125 39.59375 26.953125 
Q 35.25 24.703125 29.984375 24.703125 
Q 19.046875 24.703125 12.671875 31.3125 
Q 6.296875 37.9375 6.296875 49.421875 
Q 6.296875 60.640625 12.9375 67.421875 
Q 19.578125 74.21875 30.609375 74.21875 
Q 43.265625 74.21875 49.921875 64.515625 
Q 56.59375 54.828125 56.59375 36.375 
Q 56.59375 19.140625 48.40625 8.859375 
Q 40.234375 -1.421875 26.421875 -1.421875 
Q 22.703125 -1.421875 18.890625 -0.6875 
Q 15.09375 0.046875 10.984375 1.515625 
z
M 30.609375 32.421875 
Q 37.25 32.421875 41.125 36.953125 
Q 45.015625 41.5 45.015625 49.421875 
Q 45.015625 57.28125 41.125 61.84375 
Q 37.25 66.40625 30.609375 66.40625 
Q 23.96875 66.40625 20.09375 61.84375 
Q 16.21875 57.28125 16.21875 49.421875 
Q 16.21875 41.5 20.09375 36.953125 
Q 23.96875 32.421875 30.609375 32.421875 
z
" id="DejaVuSans-57"/>
      </defs>
      <use xlink:href="#DejaVuSans-48"/>
      <use x="63.623047" xlink:href="#DejaVuSans-46"/>
      <use x="95.410156" xlink:href="#DejaVuSans-55"/>
      <use x="159.033203" xlink:href="#DejaVuSans-52"/>
      <use x="222.65625" xlink:href="#DejaVuSans-57"/>
      <use x="286.279297" xlink:href="#DejaVuSans-53"/>
     </g>
    </g>
    <g id="line2d_62">
     <path d="M 217.347266 17.727969 
L 243.347266 17.727969 
" style="fill:none;stroke:#009988;stroke-dasharray:1.85,0.8;stroke-dashoffset:0;stroke-width:0.5;"/>
    </g>
    <g id="line2d_63">
     <g>
      <use style="fill:#009988;stroke:#009988;stroke-linejoin:miter;" x="230.347266" xlink:href="#m8468a10553" y="17.727969"/>
     </g>
    </g>
    <g id="text_29">
     <!-- UOB -->
     <g transform="translate(253.747266 22.277969)scale(0.13 -0.13)">
      <defs>
       <path d="M 8.6875 72.90625 
L 18.609375 72.90625 
L 18.609375 28.609375 
Q 18.609375 16.890625 22.84375 11.734375 
Q 27.09375 6.59375 36.625 6.59375 
Q 46.09375 6.59375 50.34375 11.734375 
Q 54.59375 16.890625 54.59375 28.609375 
L 54.59375 72.90625 
L 64.5 72.90625 
L 64.5 27.390625 
Q 64.5 13.140625 57.4375 5.859375 
Q 50.390625 -1.421875 36.625 -1.421875 
Q 22.796875 -1.421875 15.734375 5.859375 
Q 8.6875 13.140625 8.6875 27.390625 
z
" id="DejaVuSans-85"/>
      </defs>
      <use xlink:href="#DejaVuSans-85"/>
      <use x="73.193359" xlink:href="#DejaVuSans-79"/>
      <use x="151.904297" xlink:href="#DejaVuSans-66"/>
     </g>
    </g>
    <g id="line2d_64"/>
    <g id="line2d_65"/>
    <g id="text_30">
     <!-- 0.7686 -->
     <g transform="translate(253.747266 41.359531)scale(0.13 -0.13)">
      <use xlink:href="#DejaVuSans-48"/>
      <use x="63.623047" xlink:href="#DejaVuSans-46"/>
      <use x="95.410156" xlink:href="#DejaVuSans-55"/>
      <use x="159.033203" xlink:href="#DejaVuSans-54"/>
      <use x="222.65625" xlink:href="#DejaVuSans-56"/>
      <use x="286.279297" xlink:href="#DejaVuSans-54"/>
     </g>
    </g>
    <g id="line2d_66"/>
    <g id="line2d_67"/>
    <g id="text_31">
     <!-- 0.7100 -->
     <g transform="translate(253.747266 60.441094)scale(0.13 -0.13)">
      <use xlink:href="#DejaVuSans-48"/>
      <use x="63.623047" xlink:href="#DejaVuSans-46"/>
      <use x="95.410156" xlink:href="#DejaVuSans-55"/>
      <use x="159.033203" xlink:href="#DejaVuSans-49"/>
      <use x="222.65625" xlink:href="#DejaVuSans-48"/>
      <use x="286.279297" xlink:href="#DejaVuSans-48"/>
     </g>
    </g>
    <g id="line2d_68"/>
    <g id="line2d_69"/>
    <g id="text_32">
     <!-- 0.7117 -->
     <g transform="translate(253.747266 79.522656)scale(0.13 -0.13)">
      <use xlink:href="#DejaVuSans-48"/>
      <use x="63.623047" xlink:href="#DejaVuSans-46"/>
      <use x="95.410156" xlink:href="#DejaVuSans-55"/>
      <use x="159.033203" xlink:href="#DejaVuSans-49"/>
      <use x="222.65625" xlink:href="#DejaVuSans-49"/>
      <use x="286.279297" xlink:href="#DejaVuSans-55"/>
     </g>
    </g>
    <g id="line2d_70"/>
    <g id="line2d_71"/>
    <g id="text_33">
     <!-- 0.7672 -->
     <g transform="translate(253.747266 98.604219)scale(0.13 -0.13)">
      <use xlink:href="#DejaVuSans-48"/>
      <use x="63.623047" xlink:href="#DejaVuSans-46"/>
      <use x="95.410156" xlink:href="#DejaVuSans-55"/>
      <use x="159.033203" xlink:href="#DejaVuSans-54"/>
      <use x="222.65625" xlink:href="#DejaVuSans-55"/>
      <use x="286.279297" xlink:href="#DejaVuSans-50"/>
     </g>
    </g>
    <g id="line2d_72">
     <path d="M 312.854727 17.727969 
L 338.854727 17.727969 
" style="fill:none;stroke:#0077bb;stroke-dasharray:3.2,0.8,0.5,0.8;stroke-dashoffset:0;stroke-width:0.5;"/>
    </g>
    <g id="line2d_73">
     <g>
      <use style="fill:#0077bb;stroke:#0077bb;stroke-linejoin:miter;" x="325.854727" xlink:href="#m36f903155e" y="17.727969"/>
     </g>
    </g>
    <g id="text_34">
     <!-- NOOB -->
     <g transform="translate(349.254727 22.277969)scale(0.13 -0.13)">
      <use xlink:href="#DejaVuSans-78"/>
      <use x="74.804688" xlink:href="#DejaVuSans-79"/>
      <use x="153.515625" xlink:href="#DejaVuSans-79"/>
      <use x="232.226562" xlink:href="#DejaVuSans-66"/>
     </g>
    </g>
    <g id="line2d_74"/>
    <g id="line2d_75"/>
    <g id="text_35">
     <!-- 0.8318 -->
     <g transform="translate(349.254727 41.359531)scale(0.13 -0.13)">
      <use xlink:href="#DejaVuSans-48"/>
      <use x="63.623047" xlink:href="#DejaVuSans-46"/>
      <use x="95.410156" xlink:href="#DejaVuSans-56"/>
      <use x="159.033203" xlink:href="#DejaVuSans-51"/>
      <use x="222.65625" xlink:href="#DejaVuSans-49"/>
      <use x="286.279297" xlink:href="#DejaVuSans-56"/>
     </g>
    </g>
    <g id="line2d_76"/>
    <g id="line2d_77"/>
    <g id="text_36">
     <!-- 0.7877 -->
     <g transform="translate(349.254727 60.441094)scale(0.13 -0.13)">
      <use xlink:href="#DejaVuSans-48"/>
      <use x="63.623047" xlink:href="#DejaVuSans-46"/>
      <use x="95.410156" xlink:href="#DejaVuSans-55"/>
      <use x="159.033203" xlink:href="#DejaVuSans-56"/>
      <use x="222.65625" xlink:href="#DejaVuSans-55"/>
      <use x="286.279297" xlink:href="#DejaVuSans-55"/>
     </g>
    </g>
    <g id="line2d_78"/>
    <g id="line2d_79"/>
    <g id="text_37">
     <!-- 0.7509 -->
     <g transform="translate(349.254727 79.522656)scale(0.13 -0.13)">
      <use xlink:href="#DejaVuSans-48"/>
      <use x="63.623047" xlink:href="#DejaVuSans-46"/>
      <use x="95.410156" xlink:href="#DejaVuSans-55"/>
      <use x="159.033203" xlink:href="#DejaVuSans-53"/>
      <use x="222.65625" xlink:href="#DejaVuSans-48"/>
      <use x="286.279297" xlink:href="#DejaVuSans-57"/>
     </g>
    </g>
    <g id="line2d_80"/>
    <g id="line2d_81"/>
    <g id="text_38">
     <!-- 0.7952 -->
     <g transform="translate(349.254727 98.604219)scale(0.13 -0.13)">
      <use xlink:href="#DejaVuSans-48"/>
      <use x="63.623047" xlink:href="#DejaVuSans-46"/>
      <use x="95.410156" xlink:href="#DejaVuSans-55"/>
      <use x="159.033203" xlink:href="#DejaVuSans-57"/>
      <use x="222.65625" xlink:href="#DejaVuSans-53"/>
      <use x="286.279297" xlink:href="#DejaVuSans-50"/>
     </g>
    </g>
    <g id="line2d_82">
     <path d="M 408.362188 17.727969 
L 434.362188 17.727969 
" style="fill:none;stroke:#ee7733;stroke-dasharray:0.5,0.825;stroke-dashoffset:0;stroke-width:0.5;"/>
    </g>
    <g id="line2d_83">
     <g>
      <use style="fill:#ee7733;stroke:#ee7733;stroke-linejoin:bevel;" x="421.362188" xlink:href="#mba1bbea2a4" y="17.727969"/>
     </g>
    </g>
    <g id="text_39">
     <!-- NUOB -->
     <g transform="translate(444.762188 22.277969)scale(0.13 -0.13)">
      <use xlink:href="#DejaVuSans-78"/>
      <use x="74.804688" xlink:href="#DejaVuSans-85"/>
      <use x="147.998047" xlink:href="#DejaVuSans-79"/>
      <use x="226.708984" xlink:href="#DejaVuSans-66"/>
     </g>
    </g>
    <g id="line2d_84"/>
    <g id="line2d_85"/>
    <g id="text_40">
     <!-- 0.7669 -->
     <g transform="translate(444.762188 41.359531)scale(0.13 -0.13)">
      <use xlink:href="#DejaVuSans-48"/>
      <use x="63.623047" xlink:href="#DejaVuSans-46"/>
      <use x="95.410156" xlink:href="#DejaVuSans-55"/>
      <use x="159.033203" xlink:href="#DejaVuSans-54"/>
      <use x="222.65625" xlink:href="#DejaVuSans-54"/>
      <use x="286.279297" xlink:href="#DejaVuSans-57"/>
     </g>
    </g>
    <g id="line2d_86"/>
    <g id="line2d_87"/>
    <g id="text_41">
     <!-- 0.7130 -->
     <g transform="translate(444.762188 60.441094)scale(0.13 -0.13)">
      <use xlink:href="#DejaVuSans-48"/>
      <use x="63.623047" xlink:href="#DejaVuSans-46"/>
      <use x="95.410156" xlink:href="#DejaVuSans-55"/>
      <use x="159.033203" xlink:href="#DejaVuSans-49"/>
      <use x="222.65625" xlink:href="#DejaVuSans-51"/>
      <use x="286.279297" xlink:href="#DejaVuSans-48"/>
     </g>
    </g>
    <g id="line2d_88"/>
    <g id="line2d_89"/>
    <g id="text_42">
     <!-- 0.7152 -->
     <g transform="translate(444.762188 79.522656)scale(0.13 -0.13)">
      <use xlink:href="#DejaVuSans-48"/>
      <use x="63.623047" xlink:href="#DejaVuSans-46"/>
      <use x="95.410156" xlink:href="#DejaVuSans-55"/>
      <use x="159.033203" xlink:href="#DejaVuSans-49"/>
      <use x="222.65625" xlink:href="#DejaVuSans-53"/>
      <use x="286.279297" xlink:href="#DejaVuSans-50"/>
     </g>
    </g>
    <g id="line2d_90"/>
    <g id="line2d_91"/>
    <g id="text_43">
     <!-- 0.7711 -->
     <g transform="translate(444.762188 98.604219)scale(0.13 -0.13)">
      <use xlink:href="#DejaVuSans-48"/>
      <use x="63.623047" xlink:href="#DejaVuSans-46"/>
      <use x="95.410156" xlink:href="#DejaVuSans-55"/>
      <use x="159.033203" xlink:href="#DejaVuSans-55"/>
      <use x="222.65625" xlink:href="#DejaVuSans-49"/>
      <use x="286.279297" xlink:href="#DejaVuSans-49"/>
     </g>
    </g>
   </g>
  </g>
 </g>
 <defs>
  <clipPath id="p4caf13f12a">
   <rect height="277.2" width="390.6" x="104.85" y="112.051812"/>
  </clipPath>
 </defs>
</svg>
