<?xml version="1.0" encoding="utf-8" standalone="no"?>
<!DOCTYPE svg PUBLIC "-//W3C//DTD SVG 1.1//EN"
  "http://www.w3.org/Graphics/SVG/1.1/DTD/svg11.dtd">
<!-- Created with matplotlib (https://matplotlib.org/) -->
<svg height="432.614937pt" version="1.1" viewBox="0 0 502.65 432.614937" width="502.65pt" xmlns="http://www.w3.org/2000/svg" xmlns:xlink="http://www.w3.org/1999/xlink">
 <metadata>
  <rdf:RDF xmlns:cc="http://creativecommons.org/ns#" xmlns:dc="http://purl.org/dc/elements/1.1/" xmlns:rdf="http://www.w3.org/1999/02/22-rdf-syntax-ns#">
   <cc:Work>
    <dc:type rdf:resource="http://purl.org/dc/dcmitype/StillImage"/>
    <dc:date>2022-06-16T22:37:44.100129</dc:date>
    <dc:format>image/svg+xml</dc:format>
    <dc:creator>
     <cc:Agent>
      <dc:title>Matplotlib v3.3.3, https://matplotlib.org/</dc:title>
     </cc:Agent>
    </dc:creator>
   </cc:Work>
  </rdf:RDF>
 </metadata>
 <defs>
  <style type="text/css">*{stroke-linecap:butt;stroke-linejoin:round;}</style>
 </defs>
 <g id="figure_1">
  <g id="patch_1">
   <path d="M 0 432.614937 
L 502.65 432.614937 
L 502.65 0 
L 0 0 
z
" style="fill:#ffffff;"/>
  </g>
  <g id="axes_1">
   <g id="patch_2">
    <path d="M 104.85 389.251812 
L 495.45 389.251812 
L 495.45 112.051812 
L 104.85 112.051812 
z
" style="fill:#ffffff;"/>
   </g>
   <g id="matplotlib.axis_1">
    <g id="xtick_1">
     <g id="line2d_1">
      <defs>
       <path d="M 0 0 
L 0 3.5 
" id="m6c1b8bdd29" style="stroke:#000000;stroke-width:0.8;"/>
      </defs>
      <g>
       <use style="stroke:#000000;stroke-width:0.8;" x="117.19707" xlink:href="#m6c1b8bdd29" y="389.251812"/>
      </g>
     </g>
     <g id="text_1">
      <!-- 0 -->
      <g transform="translate(113.061445 406.129781)scale(0.13 -0.13)">
       <defs>
        <path d="M 31.78125 66.40625 
Q 24.171875 66.40625 20.328125 58.90625 
Q 16.5 51.421875 16.5 36.375 
Q 16.5 21.390625 20.328125 13.890625 
Q 24.171875 6.390625 31.78125 6.390625 
Q 39.453125 6.390625 43.28125 13.890625 
Q 47.125 21.390625 47.125 36.375 
Q 47.125 51.421875 43.28125 58.90625 
Q 39.453125 66.40625 31.78125 66.40625 
z
M 31.78125 74.21875 
Q 44.046875 74.21875 50.515625 64.515625 
Q 56.984375 54.828125 56.984375 36.375 
Q 56.984375 17.96875 50.515625 8.265625 
Q 44.046875 -1.421875 31.78125 -1.421875 
Q 19.53125 -1.421875 13.0625 8.265625 
Q 6.59375 17.96875 6.59375 36.375 
Q 6.59375 54.828125 13.0625 64.515625 
Q 19.53125 74.21875 31.78125 74.21875 
z
" id="DejaVuSans-48"/>
       </defs>
       <use xlink:href="#DejaVuSans-48"/>
      </g>
     </g>
    </g>
    <g id="xtick_2">
     <g id="line2d_2">
      <g>
       <use style="stroke:#000000;stroke-width:0.8;" x="162.259368" xlink:href="#m6c1b8bdd29" y="389.251812"/>
      </g>
     </g>
     <g id="text_2">
      <!-- 25 -->
      <g transform="translate(153.988118 406.129781)scale(0.13 -0.13)">
       <defs>
        <path d="M 19.1875 8.296875 
L 53.609375 8.296875 
L 53.609375 0 
L 7.328125 0 
L 7.328125 8.296875 
Q 12.9375 14.109375 22.625 23.890625 
Q 32.328125 33.6875 34.8125 36.53125 
Q 39.546875 41.84375 41.421875 45.53125 
Q 43.3125 49.21875 43.3125 52.78125 
Q 43.3125 58.59375 39.234375 62.25 
Q 35.15625 65.921875 28.609375 65.921875 
Q 23.96875 65.921875 18.8125 64.3125 
Q 13.671875 62.703125 7.8125 59.421875 
L 7.8125 69.390625 
Q 13.765625 71.78125 18.9375 73 
Q 24.125 74.21875 28.421875 74.21875 
Q 39.75 74.21875 46.484375 68.546875 
Q 53.21875 62.890625 53.21875 53.421875 
Q 53.21875 48.921875 51.53125 44.890625 
Q 49.859375 40.875 45.40625 35.40625 
Q 44.1875 33.984375 37.640625 27.21875 
Q 31.109375 20.453125 19.1875 8.296875 
z
" id="DejaVuSans-50"/>
        <path d="M 10.796875 72.90625 
L 49.515625 72.90625 
L 49.515625 64.59375 
L 19.828125 64.59375 
L 19.828125 46.734375 
Q 21.96875 47.46875 24.109375 47.828125 
Q 26.265625 48.1875 28.421875 48.1875 
Q 40.625 48.1875 47.75 41.5 
Q 54.890625 34.8125 54.890625 23.390625 
Q 54.890625 11.625 47.5625 5.09375 
Q 40.234375 -1.421875 26.90625 -1.421875 
Q 22.3125 -1.421875 17.546875 -0.640625 
Q 12.796875 0.140625 7.71875 1.703125 
L 7.71875 11.625 
Q 12.109375 9.234375 16.796875 8.0625 
Q 21.484375 6.890625 26.703125 6.890625 
Q 35.15625 6.890625 40.078125 11.328125 
Q 45.015625 15.765625 45.015625 23.390625 
Q 45.015625 31 40.078125 35.4375 
Q 35.15625 39.890625 26.703125 39.890625 
Q 22.75 39.890625 18.8125 39.015625 
Q 14.890625 38.140625 10.796875 36.28125 
z
" id="DejaVuSans-53"/>
       </defs>
       <use xlink:href="#DejaVuSans-50"/>
       <use x="63.623047" xlink:href="#DejaVuSans-53"/>
      </g>
     </g>
    </g>
    <g id="xtick_3">
     <g id="line2d_3">
      <g>
       <use style="stroke:#000000;stroke-width:0.8;" x="207.321666" xlink:href="#m6c1b8bdd29" y="389.251812"/>
      </g>
     </g>
     <g id="text_3">
      <!-- 50 -->
      <g transform="translate(199.050416 406.129781)scale(0.13 -0.13)">
       <use xlink:href="#DejaVuSans-53"/>
       <use x="63.623047" xlink:href="#DejaVuSans-48"/>
      </g>
     </g>
    </g>
    <g id="xtick_4">
     <g id="line2d_4">
      <g>
       <use style="stroke:#000000;stroke-width:0.8;" x="252.383964" xlink:href="#m6c1b8bdd29" y="389.251812"/>
      </g>
     </g>
     <g id="text_4">
      <!-- 75 -->
      <g transform="translate(244.112714 406.129781)scale(0.13 -0.13)">
       <defs>
        <path d="M 8.203125 72.90625 
L 55.078125 72.90625 
L 55.078125 68.703125 
L 28.609375 0 
L 18.3125 0 
L 43.21875 64.59375 
L 8.203125 64.59375 
z
" id="DejaVuSans-55"/>
       </defs>
       <use xlink:href="#DejaVuSans-55"/>
       <use x="63.623047" xlink:href="#DejaVuSans-53"/>
      </g>
     </g>
    </g>
    <g id="xtick_5">
     <g id="line2d_5">
      <g>
       <use style="stroke:#000000;stroke-width:0.8;" x="297.446262" xlink:href="#m6c1b8bdd29" y="389.251812"/>
      </g>
     </g>
     <g id="text_5">
      <!-- 100 -->
      <g transform="translate(285.039387 406.129781)scale(0.13 -0.13)">
       <defs>
        <path d="M 12.40625 8.296875 
L 28.515625 8.296875 
L 28.515625 63.921875 
L 10.984375 60.40625 
L 10.984375 69.390625 
L 28.421875 72.90625 
L 38.28125 72.90625 
L 38.28125 8.296875 
L 54.390625 8.296875 
L 54.390625 0 
L 12.40625 0 
z
" id="DejaVuSans-49"/>
       </defs>
       <use xlink:href="#DejaVuSans-49"/>
       <use x="63.623047" xlink:href="#DejaVuSans-48"/>
       <use x="127.246094" xlink:href="#DejaVuSans-48"/>
      </g>
     </g>
    </g>
    <g id="xtick_6">
     <g id="line2d_6">
      <g>
       <use style="stroke:#000000;stroke-width:0.8;" x="342.50856" xlink:href="#m6c1b8bdd29" y="389.251812"/>
      </g>
     </g>
     <g id="text_6">
      <!-- 125 -->
      <g transform="translate(330.101685 406.129781)scale(0.13 -0.13)">
       <use xlink:href="#DejaVuSans-49"/>
       <use x="63.623047" xlink:href="#DejaVuSans-50"/>
       <use x="127.246094" xlink:href="#DejaVuSans-53"/>
      </g>
     </g>
    </g>
    <g id="xtick_7">
     <g id="line2d_7">
      <g>
       <use style="stroke:#000000;stroke-width:0.8;" x="387.570858" xlink:href="#m6c1b8bdd29" y="389.251812"/>
      </g>
     </g>
     <g id="text_7">
      <!-- 150 -->
      <g transform="translate(375.163983 406.129781)scale(0.13 -0.13)">
       <use xlink:href="#DejaVuSans-49"/>
       <use x="63.623047" xlink:href="#DejaVuSans-53"/>
       <use x="127.246094" xlink:href="#DejaVuSans-48"/>
      </g>
     </g>
    </g>
    <g id="xtick_8">
     <g id="line2d_8">
      <g>
       <use style="stroke:#000000;stroke-width:0.8;" x="432.633156" xlink:href="#m6c1b8bdd29" y="389.251812"/>
      </g>
     </g>
     <g id="text_8">
      <!-- 175 -->
      <g transform="translate(420.226281 406.129781)scale(0.13 -0.13)">
       <use xlink:href="#DejaVuSans-49"/>
       <use x="63.623047" xlink:href="#DejaVuSans-55"/>
       <use x="127.246094" xlink:href="#DejaVuSans-53"/>
      </g>
     </g>
    </g>
    <g id="xtick_9">
     <g id="line2d_9">
      <g>
       <use style="stroke:#000000;stroke-width:0.8;" x="477.695455" xlink:href="#m6c1b8bdd29" y="389.251812"/>
      </g>
     </g>
     <g id="text_9">
      <!-- 200 -->
      <g transform="translate(465.28858 406.129781)scale(0.13 -0.13)">
       <use xlink:href="#DejaVuSans-50"/>
       <use x="63.623047" xlink:href="#DejaVuSans-48"/>
       <use x="127.246094" xlink:href="#DejaVuSans-48"/>
      </g>
     </g>
    </g>
    <g id="text_10">
     <!-- Number of processed instances [x1000] -->
     <g transform="translate(170.025078 422.711344)scale(0.13 -0.13)">
      <defs>
       <path d="M 9.8125 72.90625 
L 23.09375 72.90625 
L 55.421875 11.921875 
L 55.421875 72.90625 
L 64.984375 72.90625 
L 64.984375 0 
L 51.703125 0 
L 19.390625 60.984375 
L 19.390625 0 
L 9.8125 0 
z
" id="DejaVuSans-78"/>
       <path d="M 8.5 21.578125 
L 8.5 54.6875 
L 17.484375 54.6875 
L 17.484375 21.921875 
Q 17.484375 14.15625 20.5 10.265625 
Q 23.53125 6.390625 29.59375 6.390625 
Q 36.859375 6.390625 41.078125 11.03125 
Q 45.3125 15.671875 45.3125 23.6875 
L 45.3125 54.6875 
L 54.296875 54.6875 
L 54.296875 0 
L 45.3125 0 
L 45.3125 8.40625 
Q 42.046875 3.421875 37.71875 1 
Q 33.40625 -1.421875 27.6875 -1.421875 
Q 18.265625 -1.421875 13.375 4.4375 
Q 8.5 10.296875 8.5 21.578125 
z
M 31.109375 56 
z
" id="DejaVuSans-117"/>
       <path d="M 52 44.1875 
Q 55.375 50.25 60.0625 53.125 
Q 64.75 56 71.09375 56 
Q 79.640625 56 84.28125 50.015625 
Q 88.921875 44.046875 88.921875 33.015625 
L 88.921875 0 
L 79.890625 0 
L 79.890625 32.71875 
Q 79.890625 40.578125 77.09375 44.375 
Q 74.3125 48.1875 68.609375 48.1875 
Q 61.625 48.1875 57.5625 43.546875 
Q 53.515625 38.921875 53.515625 30.90625 
L 53.515625 0 
L 44.484375 0 
L 44.484375 32.71875 
Q 44.484375 40.625 41.703125 44.40625 
Q 38.921875 48.1875 33.109375 48.1875 
Q 26.21875 48.1875 22.15625 43.53125 
Q 18.109375 38.875 18.109375 30.90625 
L 18.109375 0 
L 9.078125 0 
L 9.078125 54.6875 
L 18.109375 54.6875 
L 18.109375 46.1875 
Q 21.1875 51.21875 25.484375 53.609375 
Q 29.78125 56 35.6875 56 
Q 41.65625 56 45.828125 52.96875 
Q 50 49.953125 52 44.1875 
z
" id="DejaVuSans-109"/>
       <path d="M 48.6875 27.296875 
Q 48.6875 37.203125 44.609375 42.84375 
Q 40.53125 48.484375 33.40625 48.484375 
Q 26.265625 48.484375 22.1875 42.84375 
Q 18.109375 37.203125 18.109375 27.296875 
Q 18.109375 17.390625 22.1875 11.75 
Q 26.265625 6.109375 33.40625 6.109375 
Q 40.53125 6.109375 44.609375 11.75 
Q 48.6875 17.390625 48.6875 27.296875 
z
M 18.109375 46.390625 
Q 20.953125 51.265625 25.265625 53.625 
Q 29.59375 56 35.59375 56 
Q 45.5625 56 51.78125 48.09375 
Q 58.015625 40.1875 58.015625 27.296875 
Q 58.015625 14.40625 51.78125 6.484375 
Q 45.5625 -1.421875 35.59375 -1.421875 
Q 29.59375 -1.421875 25.265625 0.953125 
Q 20.953125 3.328125 18.109375 8.203125 
L 18.109375 0 
L 9.078125 0 
L 9.078125 75.984375 
L 18.109375 75.984375 
z
" id="DejaVuSans-98"/>
       <path d="M 56.203125 29.59375 
L 56.203125 25.203125 
L 14.890625 25.203125 
Q 15.484375 15.921875 20.484375 11.0625 
Q 25.484375 6.203125 34.421875 6.203125 
Q 39.59375 6.203125 44.453125 7.46875 
Q 49.3125 8.734375 54.109375 11.28125 
L 54.109375 2.78125 
Q 49.265625 0.734375 44.1875 -0.34375 
Q 39.109375 -1.421875 33.890625 -1.421875 
Q 20.796875 -1.421875 13.15625 6.1875 
Q 5.515625 13.8125 5.515625 26.8125 
Q 5.515625 40.234375 12.765625 48.109375 
Q 20.015625 56 32.328125 56 
Q 43.359375 56 49.78125 48.890625 
Q 56.203125 41.796875 56.203125 29.59375 
z
M 47.21875 32.234375 
Q 47.125 39.59375 43.09375 43.984375 
Q 39.0625 48.390625 32.421875 48.390625 
Q 24.90625 48.390625 20.390625 44.140625 
Q 15.875 39.890625 15.1875 32.171875 
z
" id="DejaVuSans-101"/>
       <path d="M 41.109375 46.296875 
Q 39.59375 47.171875 37.8125 47.578125 
Q 36.03125 48 33.890625 48 
Q 26.265625 48 22.1875 43.046875 
Q 18.109375 38.09375 18.109375 28.8125 
L 18.109375 0 
L 9.078125 0 
L 9.078125 54.6875 
L 18.109375 54.6875 
L 18.109375 46.1875 
Q 20.953125 51.171875 25.484375 53.578125 
Q 30.03125 56 36.53125 56 
Q 37.453125 56 38.578125 55.875 
Q 39.703125 55.765625 41.0625 55.515625 
z
" id="DejaVuSans-114"/>
       <path id="DejaVuSans-32"/>
       <path d="M 30.609375 48.390625 
Q 23.390625 48.390625 19.1875 42.75 
Q 14.984375 37.109375 14.984375 27.296875 
Q 14.984375 17.484375 19.15625 11.84375 
Q 23.34375 6.203125 30.609375 6.203125 
Q 37.796875 6.203125 41.984375 11.859375 
Q 46.1875 17.53125 46.1875 27.296875 
Q 46.1875 37.015625 41.984375 42.703125 
Q 37.796875 48.390625 30.609375 48.390625 
z
M 30.609375 56 
Q 42.328125 56 49.015625 48.375 
Q 55.71875 40.765625 55.71875 27.296875 
Q 55.71875 13.875 49.015625 6.21875 
Q 42.328125 -1.421875 30.609375 -1.421875 
Q 18.84375 -1.421875 12.171875 6.21875 
Q 5.515625 13.875 5.515625 27.296875 
Q 5.515625 40.765625 12.171875 48.375 
Q 18.84375 56 30.609375 56 
z
" id="DejaVuSans-111"/>
       <path d="M 37.109375 75.984375 
L 37.109375 68.5 
L 28.515625 68.5 
Q 23.6875 68.5 21.796875 66.546875 
Q 19.921875 64.59375 19.921875 59.515625 
L 19.921875 54.6875 
L 34.71875 54.6875 
L 34.71875 47.703125 
L 19.921875 47.703125 
L 19.921875 0 
L 10.890625 0 
L 10.890625 47.703125 
L 2.296875 47.703125 
L 2.296875 54.6875 
L 10.890625 54.6875 
L 10.890625 58.5 
Q 10.890625 67.625 15.140625 71.796875 
Q 19.390625 75.984375 28.609375 75.984375 
z
" id="DejaVuSans-102"/>
       <path d="M 18.109375 8.203125 
L 18.109375 -20.796875 
L 9.078125 -20.796875 
L 9.078125 54.6875 
L 18.109375 54.6875 
L 18.109375 46.390625 
Q 20.953125 51.265625 25.265625 53.625 
Q 29.59375 56 35.59375 56 
Q 45.5625 56 51.78125 48.09375 
Q 58.015625 40.1875 58.015625 27.296875 
Q 58.015625 14.40625 51.78125 6.484375 
Q 45.5625 -1.421875 35.59375 -1.421875 
Q 29.59375 -1.421875 25.265625 0.953125 
Q 20.953125 3.328125 18.109375 8.203125 
z
M 48.6875 27.296875 
Q 48.6875 37.203125 44.609375 42.84375 
Q 40.53125 48.484375 33.40625 48.484375 
Q 26.265625 48.484375 22.1875 42.84375 
Q 18.109375 37.203125 18.109375 27.296875 
Q 18.109375 17.390625 22.1875 11.75 
Q 26.265625 6.109375 33.40625 6.109375 
Q 40.53125 6.109375 44.609375 11.75 
Q 48.6875 17.390625 48.6875 27.296875 
z
" id="DejaVuSans-112"/>
       <path d="M 48.78125 52.59375 
L 48.78125 44.1875 
Q 44.96875 46.296875 41.140625 47.34375 
Q 37.3125 48.390625 33.40625 48.390625 
Q 24.65625 48.390625 19.8125 42.84375 
Q 14.984375 37.3125 14.984375 27.296875 
Q 14.984375 17.28125 19.8125 11.734375 
Q 24.65625 6.203125 33.40625 6.203125 
Q 37.3125 6.203125 41.140625 7.25 
Q 44.96875 8.296875 48.78125 10.40625 
L 48.78125 2.09375 
Q 45.015625 0.34375 40.984375 -0.53125 
Q 36.96875 -1.421875 32.421875 -1.421875 
Q 20.0625 -1.421875 12.78125 6.34375 
Q 5.515625 14.109375 5.515625 27.296875 
Q 5.515625 40.671875 12.859375 48.328125 
Q 20.21875 56 33.015625 56 
Q 37.15625 56 41.109375 55.140625 
Q 45.0625 54.296875 48.78125 52.59375 
z
" id="DejaVuSans-99"/>
       <path d="M 44.28125 53.078125 
L 44.28125 44.578125 
Q 40.484375 46.53125 36.375 47.5 
Q 32.28125 48.484375 27.875 48.484375 
Q 21.1875 48.484375 17.84375 46.4375 
Q 14.5 44.390625 14.5 40.28125 
Q 14.5 37.15625 16.890625 35.375 
Q 19.28125 33.59375 26.515625 31.984375 
L 29.59375 31.296875 
Q 39.15625 29.25 43.1875 25.515625 
Q 47.21875 21.78125 47.21875 15.09375 
Q 47.21875 7.46875 41.1875 3.015625 
Q 35.15625 -1.421875 24.609375 -1.421875 
Q 20.21875 -1.421875 15.453125 -0.5625 
Q 10.6875 0.296875 5.421875 2 
L 5.421875 11.28125 
Q 10.40625 8.6875 15.234375 7.390625 
Q 20.0625 6.109375 24.8125 6.109375 
Q 31.15625 6.109375 34.5625 8.28125 
Q 37.984375 10.453125 37.984375 14.40625 
Q 37.984375 18.0625 35.515625 20.015625 
Q 33.0625 21.96875 24.703125 23.78125 
L 21.578125 24.515625 
Q 13.234375 26.265625 9.515625 29.90625 
Q 5.8125 33.546875 5.8125 39.890625 
Q 5.8125 47.609375 11.28125 51.796875 
Q 16.75 56 26.8125 56 
Q 31.78125 56 36.171875 55.265625 
Q 40.578125 54.546875 44.28125 53.078125 
z
" id="DejaVuSans-115"/>
       <path d="M 45.40625 46.390625 
L 45.40625 75.984375 
L 54.390625 75.984375 
L 54.390625 0 
L 45.40625 0 
L 45.40625 8.203125 
Q 42.578125 3.328125 38.25 0.953125 
Q 33.9375 -1.421875 27.875 -1.421875 
Q 17.96875 -1.421875 11.734375 6.484375 
Q 5.515625 14.40625 5.515625 27.296875 
Q 5.515625 40.1875 11.734375 48.09375 
Q 17.96875 56 27.875 56 
Q 33.9375 56 38.25 53.625 
Q 42.578125 51.265625 45.40625 46.390625 
z
M 14.796875 27.296875 
Q 14.796875 17.390625 18.875 11.75 
Q 22.953125 6.109375 30.078125 6.109375 
Q 37.203125 6.109375 41.296875 11.75 
Q 45.40625 17.390625 45.40625 27.296875 
Q 45.40625 37.203125 41.296875 42.84375 
Q 37.203125 48.484375 30.078125 48.484375 
Q 22.953125 48.484375 18.875 42.84375 
Q 14.796875 37.203125 14.796875 27.296875 
z
" id="DejaVuSans-100"/>
       <path d="M 9.421875 54.6875 
L 18.40625 54.6875 
L 18.40625 0 
L 9.421875 0 
z
M 9.421875 75.984375 
L 18.40625 75.984375 
L 18.40625 64.59375 
L 9.421875 64.59375 
z
" id="DejaVuSans-105"/>
       <path d="M 54.890625 33.015625 
L 54.890625 0 
L 45.90625 0 
L 45.90625 32.71875 
Q 45.90625 40.484375 42.875 44.328125 
Q 39.84375 48.1875 33.796875 48.1875 
Q 26.515625 48.1875 22.3125 43.546875 
Q 18.109375 38.921875 18.109375 30.90625 
L 18.109375 0 
L 9.078125 0 
L 9.078125 54.6875 
L 18.109375 54.6875 
L 18.109375 46.1875 
Q 21.34375 51.125 25.703125 53.5625 
Q 30.078125 56 35.796875 56 
Q 45.21875 56 50.046875 50.171875 
Q 54.890625 44.34375 54.890625 33.015625 
z
" id="DejaVuSans-110"/>
       <path d="M 18.3125 70.21875 
L 18.3125 54.6875 
L 36.8125 54.6875 
L 36.8125 47.703125 
L 18.3125 47.703125 
L 18.3125 18.015625 
Q 18.3125 11.328125 20.140625 9.421875 
Q 21.96875 7.515625 27.59375 7.515625 
L 36.8125 7.515625 
L 36.8125 0 
L 27.59375 0 
Q 17.1875 0 13.234375 3.875 
Q 9.28125 7.765625 9.28125 18.015625 
L 9.28125 47.703125 
L 2.6875 47.703125 
L 2.6875 54.6875 
L 9.28125 54.6875 
L 9.28125 70.21875 
z
" id="DejaVuSans-116"/>
       <path d="M 34.28125 27.484375 
Q 23.390625 27.484375 19.1875 25 
Q 14.984375 22.515625 14.984375 16.5 
Q 14.984375 11.71875 18.140625 8.90625 
Q 21.296875 6.109375 26.703125 6.109375 
Q 34.1875 6.109375 38.703125 11.40625 
Q 43.21875 16.703125 43.21875 25.484375 
L 43.21875 27.484375 
z
M 52.203125 31.203125 
L 52.203125 0 
L 43.21875 0 
L 43.21875 8.296875 
Q 40.140625 3.328125 35.546875 0.953125 
Q 30.953125 -1.421875 24.3125 -1.421875 
Q 15.921875 -1.421875 10.953125 3.296875 
Q 6 8.015625 6 15.921875 
Q 6 25.140625 12.171875 29.828125 
Q 18.359375 34.515625 30.609375 34.515625 
L 43.21875 34.515625 
L 43.21875 35.40625 
Q 43.21875 41.609375 39.140625 45 
Q 35.0625 48.390625 27.6875 48.390625 
Q 23 48.390625 18.546875 47.265625 
Q 14.109375 46.140625 10.015625 43.890625 
L 10.015625 52.203125 
Q 14.9375 54.109375 19.578125 55.046875 
Q 24.21875 56 28.609375 56 
Q 40.484375 56 46.34375 49.84375 
Q 52.203125 43.703125 52.203125 31.203125 
z
" id="DejaVuSans-97"/>
       <path d="M 8.59375 75.984375 
L 29.296875 75.984375 
L 29.296875 69 
L 17.578125 69 
L 17.578125 -6.203125 
L 29.296875 -6.203125 
L 29.296875 -13.1875 
L 8.59375 -13.1875 
z
" id="DejaVuSans-91"/>
       <path d="M 54.890625 54.6875 
L 35.109375 28.078125 
L 55.90625 0 
L 45.3125 0 
L 29.390625 21.484375 
L 13.484375 0 
L 2.875 0 
L 24.125 28.609375 
L 4.6875 54.6875 
L 15.28125 54.6875 
L 29.78125 35.203125 
L 44.28125 54.6875 
z
" id="DejaVuSans-120"/>
       <path d="M 30.421875 75.984375 
L 30.421875 -13.1875 
L 9.71875 -13.1875 
L 9.71875 -6.203125 
L 21.390625 -6.203125 
L 21.390625 69 
L 9.71875 69 
L 9.71875 75.984375 
z
" id="DejaVuSans-93"/>
      </defs>
      <use xlink:href="#DejaVuSans-78"/>
      <use x="74.804688" xlink:href="#DejaVuSans-117"/>
      <use x="138.183594" xlink:href="#DejaVuSans-109"/>
      <use x="235.595703" xlink:href="#DejaVuSans-98"/>
      <use x="299.072266" xlink:href="#DejaVuSans-101"/>
      <use x="360.595703" xlink:href="#DejaVuSans-114"/>
      <use x="401.708984" xlink:href="#DejaVuSans-32"/>
      <use x="433.496094" xlink:href="#DejaVuSans-111"/>
      <use x="494.677734" xlink:href="#DejaVuSans-102"/>
      <use x="529.882812" xlink:href="#DejaVuSans-32"/>
      <use x="561.669922" xlink:href="#DejaVuSans-112"/>
      <use x="625.146484" xlink:href="#DejaVuSans-114"/>
      <use x="664.009766" xlink:href="#DejaVuSans-111"/>
      <use x="725.191406" xlink:href="#DejaVuSans-99"/>
      <use x="780.171875" xlink:href="#DejaVuSans-101"/>
      <use x="841.695312" xlink:href="#DejaVuSans-115"/>
      <use x="893.794922" xlink:href="#DejaVuSans-115"/>
      <use x="945.894531" xlink:href="#DejaVuSans-101"/>
      <use x="1007.417969" xlink:href="#DejaVuSans-100"/>
      <use x="1070.894531" xlink:href="#DejaVuSans-32"/>
      <use x="1102.681641" xlink:href="#DejaVuSans-105"/>
      <use x="1130.464844" xlink:href="#DejaVuSans-110"/>
      <use x="1193.84375" xlink:href="#DejaVuSans-115"/>
      <use x="1245.943359" xlink:href="#DejaVuSans-116"/>
      <use x="1285.152344" xlink:href="#DejaVuSans-97"/>
      <use x="1346.431641" xlink:href="#DejaVuSans-110"/>
      <use x="1409.810547" xlink:href="#DejaVuSans-99"/>
      <use x="1464.791016" xlink:href="#DejaVuSans-101"/>
      <use x="1526.314453" xlink:href="#DejaVuSans-115"/>
      <use x="1578.414062" xlink:href="#DejaVuSans-32"/>
      <use x="1610.201172" xlink:href="#DejaVuSans-91"/>
      <use x="1649.214844" xlink:href="#DejaVuSans-120"/>
      <use x="1708.394531" xlink:href="#DejaVuSans-49"/>
      <use x="1772.017578" xlink:href="#DejaVuSans-48"/>
      <use x="1835.640625" xlink:href="#DejaVuSans-48"/>
      <use x="1899.263672" xlink:href="#DejaVuSans-48"/>
      <use x="1962.886719" xlink:href="#DejaVuSans-93"/>
     </g>
    </g>
   </g>
   <g id="matplotlib.axis_2">
    <g id="ytick_1">
     <g id="line2d_10">
      <defs>
       <path d="M 0 0 
L -3.5 0 
" id="m5687782032" style="stroke:#000000;stroke-width:0.8;"/>
      </defs>
      <g>
       <use style="stroke:#000000;stroke-width:0.8;" x="104.85" xlink:href="#m5687782032" y="366.008886"/>
      </g>
     </g>
     <g id="text_11">
      <!-- 0.88 -->
      <g transform="translate(68.904687 370.947871)scale(0.13 -0.13)">
       <defs>
        <path d="M 10.6875 12.40625 
L 21 12.40625 
L 21 0 
L 10.6875 0 
z
" id="DejaVuSans-46"/>
        <path d="M 31.78125 34.625 
Q 24.75 34.625 20.71875 30.859375 
Q 16.703125 27.09375 16.703125 20.515625 
Q 16.703125 13.921875 20.71875 10.15625 
Q 24.75 6.390625 31.78125 6.390625 
Q 38.8125 6.390625 42.859375 10.171875 
Q 46.921875 13.96875 46.921875 20.515625 
Q 46.921875 27.09375 42.890625 30.859375 
Q 38.875 34.625 31.78125 34.625 
z
M 21.921875 38.8125 
Q 15.578125 40.375 12.03125 44.71875 
Q 8.5 49.078125 8.5 55.328125 
Q 8.5 64.0625 14.71875 69.140625 
Q 20.953125 74.21875 31.78125 74.21875 
Q 42.671875 74.21875 48.875 69.140625 
Q 55.078125 64.0625 55.078125 55.328125 
Q 55.078125 49.078125 51.53125 44.71875 
Q 48 40.375 41.703125 38.8125 
Q 48.828125 37.15625 52.796875 32.3125 
Q 56.78125 27.484375 56.78125 20.515625 
Q 56.78125 9.90625 50.3125 4.234375 
Q 43.84375 -1.421875 31.78125 -1.421875 
Q 19.734375 -1.421875 13.25 4.234375 
Q 6.78125 9.90625 6.78125 20.515625 
Q 6.78125 27.484375 10.78125 32.3125 
Q 14.796875 37.15625 21.921875 38.8125 
z
M 18.3125 54.390625 
Q 18.3125 48.734375 21.84375 45.5625 
Q 25.390625 42.390625 31.78125 42.390625 
Q 38.140625 42.390625 41.71875 45.5625 
Q 45.3125 48.734375 45.3125 54.390625 
Q 45.3125 60.0625 41.71875 63.234375 
Q 38.140625 66.40625 31.78125 66.40625 
Q 25.390625 66.40625 21.84375 63.234375 
Q 18.3125 60.0625 18.3125 54.390625 
z
" id="DejaVuSans-56"/>
       </defs>
       <use xlink:href="#DejaVuSans-48"/>
       <use x="63.623047" xlink:href="#DejaVuSans-46"/>
       <use x="95.410156" xlink:href="#DejaVuSans-56"/>
       <use x="159.033203" xlink:href="#DejaVuSans-56"/>
      </g>
     </g>
    </g>
    <g id="ytick_2">
     <g id="line2d_11">
      <g>
       <use style="stroke:#000000;stroke-width:0.8;" x="104.85" xlink:href="#m5687782032" y="323.437182"/>
      </g>
     </g>
     <g id="text_12">
      <!-- 0.90 -->
      <g transform="translate(68.904687 328.376166)scale(0.13 -0.13)">
       <defs>
        <path d="M 10.984375 1.515625 
L 10.984375 10.5 
Q 14.703125 8.734375 18.5 7.8125 
Q 22.3125 6.890625 25.984375 6.890625 
Q 35.75 6.890625 40.890625 13.453125 
Q 46.046875 20.015625 46.78125 33.40625 
Q 43.953125 29.203125 39.59375 26.953125 
Q 35.25 24.703125 29.984375 24.703125 
Q 19.046875 24.703125 12.671875 31.3125 
Q 6.296875 37.9375 6.296875 49.421875 
Q 6.296875 60.640625 12.9375 67.421875 
Q 19.578125 74.21875 30.609375 74.21875 
Q 43.265625 74.21875 49.921875 64.515625 
Q 56.59375 54.828125 56.59375 36.375 
Q 56.59375 19.140625 48.40625 8.859375 
Q 40.234375 -1.421875 26.421875 -1.421875 
Q 22.703125 -1.421875 18.890625 -0.6875 
Q 15.09375 0.046875 10.984375 1.515625 
z
M 30.609375 32.421875 
Q 37.25 32.421875 41.125 36.953125 
Q 45.015625 41.5 45.015625 49.421875 
Q 45.015625 57.28125 41.125 61.84375 
Q 37.25 66.40625 30.609375 66.40625 
Q 23.96875 66.40625 20.09375 61.84375 
Q 16.21875 57.28125 16.21875 49.421875 
Q 16.21875 41.5 20.09375 36.953125 
Q 23.96875 32.421875 30.609375 32.421875 
z
" id="DejaVuSans-57"/>
       </defs>
       <use xlink:href="#DejaVuSans-48"/>
       <use x="63.623047" xlink:href="#DejaVuSans-46"/>
       <use x="95.410156" xlink:href="#DejaVuSans-57"/>
       <use x="159.033203" xlink:href="#DejaVuSans-48"/>
      </g>
     </g>
    </g>
    <g id="ytick_3">
     <g id="line2d_12">
      <g>
       <use style="stroke:#000000;stroke-width:0.8;" x="104.85" xlink:href="#m5687782032" y="280.865478"/>
      </g>
     </g>
     <g id="text_13">
      <!-- 0.92 -->
      <g transform="translate(68.904687 285.804462)scale(0.13 -0.13)">
       <use xlink:href="#DejaVuSans-48"/>
       <use x="63.623047" xlink:href="#DejaVuSans-46"/>
       <use x="95.410156" xlink:href="#DejaVuSans-57"/>
       <use x="159.033203" xlink:href="#DejaVuSans-50"/>
      </g>
     </g>
    </g>
    <g id="ytick_4">
     <g id="line2d_13">
      <g>
       <use style="stroke:#000000;stroke-width:0.8;" x="104.85" xlink:href="#m5687782032" y="238.293773"/>
      </g>
     </g>
     <g id="text_14">
      <!-- 0.94 -->
      <g transform="translate(68.904687 243.232758)scale(0.13 -0.13)">
       <defs>
        <path d="M 37.796875 64.3125 
L 12.890625 25.390625 
L 37.796875 25.390625 
z
M 35.203125 72.90625 
L 47.609375 72.90625 
L 47.609375 25.390625 
L 58.015625 25.390625 
L 58.015625 17.1875 
L 47.609375 17.1875 
L 47.609375 0 
L 37.796875 0 
L 37.796875 17.1875 
L 4.890625 17.1875 
L 4.890625 26.703125 
z
" id="DejaVuSans-52"/>
       </defs>
       <use xlink:href="#DejaVuSans-48"/>
       <use x="63.623047" xlink:href="#DejaVuSans-46"/>
       <use x="95.410156" xlink:href="#DejaVuSans-57"/>
       <use x="159.033203" xlink:href="#DejaVuSans-52"/>
      </g>
     </g>
    </g>
    <g id="ytick_5">
     <g id="line2d_14">
      <g>
       <use style="stroke:#000000;stroke-width:0.8;" x="104.85" xlink:href="#m5687782032" y="195.722069"/>
      </g>
     </g>
     <g id="text_15">
      <!-- 0.96 -->
      <g transform="translate(68.904687 200.661053)scale(0.13 -0.13)">
       <defs>
        <path d="M 33.015625 40.375 
Q 26.375 40.375 22.484375 35.828125 
Q 18.609375 31.296875 18.609375 23.390625 
Q 18.609375 15.53125 22.484375 10.953125 
Q 26.375 6.390625 33.015625 6.390625 
Q 39.65625 6.390625 43.53125 10.953125 
Q 47.40625 15.53125 47.40625 23.390625 
Q 47.40625 31.296875 43.53125 35.828125 
Q 39.65625 40.375 33.015625 40.375 
z
M 52.59375 71.296875 
L 52.59375 62.3125 
Q 48.875 64.0625 45.09375 64.984375 
Q 41.3125 65.921875 37.59375 65.921875 
Q 27.828125 65.921875 22.671875 59.328125 
Q 17.53125 52.734375 16.796875 39.40625 
Q 19.671875 43.65625 24.015625 45.921875 
Q 28.375 48.1875 33.59375 48.1875 
Q 44.578125 48.1875 50.953125 41.515625 
Q 57.328125 34.859375 57.328125 23.390625 
Q 57.328125 12.15625 50.6875 5.359375 
Q 44.046875 -1.421875 33.015625 -1.421875 
Q 20.359375 -1.421875 13.671875 8.265625 
Q 6.984375 17.96875 6.984375 36.375 
Q 6.984375 53.65625 15.1875 63.9375 
Q 23.390625 74.21875 37.203125 74.21875 
Q 40.921875 74.21875 44.703125 73.484375 
Q 48.484375 72.75 52.59375 71.296875 
z
" id="DejaVuSans-54"/>
       </defs>
       <use xlink:href="#DejaVuSans-48"/>
       <use x="63.623047" xlink:href="#DejaVuSans-46"/>
       <use x="95.410156" xlink:href="#DejaVuSans-57"/>
       <use x="159.033203" xlink:href="#DejaVuSans-54"/>
      </g>
     </g>
    </g>
    <g id="ytick_6">
     <g id="line2d_15">
      <g>
       <use style="stroke:#000000;stroke-width:0.8;" x="104.85" xlink:href="#m5687782032" y="153.150364"/>
      </g>
     </g>
     <g id="text_16">
      <!-- 0.98 -->
      <g transform="translate(68.904687 158.089349)scale(0.13 -0.13)">
       <use xlink:href="#DejaVuSans-48"/>
       <use x="63.623047" xlink:href="#DejaVuSans-46"/>
       <use x="95.410156" xlink:href="#DejaVuSans-57"/>
       <use x="159.033203" xlink:href="#DejaVuSans-56"/>
      </g>
     </g>
    </g>
    <g id="text_17">
     <!-- Recall -->
     <g transform="translate(62.201094 270.044156)rotate(-90)scale(0.13 -0.13)">
      <defs>
       <path d="M 44.390625 34.1875 
Q 47.5625 33.109375 50.5625 29.59375 
Q 53.5625 26.078125 56.59375 19.921875 
L 66.609375 0 
L 56 0 
L 46.6875 18.703125 
Q 43.0625 26.03125 39.671875 28.421875 
Q 36.28125 30.8125 30.421875 30.8125 
L 19.671875 30.8125 
L 19.671875 0 
L 9.8125 0 
L 9.8125 72.90625 
L 32.078125 72.90625 
Q 44.578125 72.90625 50.734375 67.671875 
Q 56.890625 62.453125 56.890625 51.90625 
Q 56.890625 45.015625 53.6875 40.46875 
Q 50.484375 35.9375 44.390625 34.1875 
z
M 19.671875 64.796875 
L 19.671875 38.921875 
L 32.078125 38.921875 
Q 39.203125 38.921875 42.84375 42.21875 
Q 46.484375 45.515625 46.484375 51.90625 
Q 46.484375 58.296875 42.84375 61.546875 
Q 39.203125 64.796875 32.078125 64.796875 
z
" id="DejaVuSans-82"/>
       <path d="M 9.421875 75.984375 
L 18.40625 75.984375 
L 18.40625 0 
L 9.421875 0 
z
" id="DejaVuSans-108"/>
      </defs>
      <use xlink:href="#DejaVuSans-82"/>
      <use x="64.982422" xlink:href="#DejaVuSans-101"/>
      <use x="126.505859" xlink:href="#DejaVuSans-99"/>
      <use x="181.486328" xlink:href="#DejaVuSans-97"/>
      <use x="242.765625" xlink:href="#DejaVuSans-108"/>
      <use x="270.548828" xlink:href="#DejaVuSans-108"/>
     </g>
    </g>
   </g>
   <g id="line2d_16"/>
   <g id="line2d_17"/>
   <g id="line2d_18"/>
   <g id="line2d_19"/>
   <g id="line2d_20"/>
   <g id="line2d_21">
    <path clip-path="url(#pdd45c839e7)" d="M 122.604545 199.269711 
L 124.407037 164.964682 
L 126.209529 186.569599 
L 128.012021 203.048284 
L 129.814513 195.611945 
L 131.617005 198.134517 
L 133.419497 194.658723 
L 135.221989 188.405886 
L 137.024481 187.913915 
L 138.826973 180.18039 
L 140.629465 181.59327 
L 142.431957 185.315717 
L 144.234449 188.184467 
L 146.03694 184.473024 
L 147.839432 183.935568 
L 149.641924 183.115948 
L 151.444416 186.594052 
L 153.246908 189.409947 
L 155.0494 188.874829 
L 156.851892 187.200636 
L 158.654384 189.417913 
L 160.456876 193.434111 
L 162.259368 188.618473 
L 164.06186 184.748318 
L 165.864352 186.198942 
L 167.666844 183.407783 
L 169.469335 182.750735 
L 171.271827 183.924334 
L 173.074319 182.320947 
L 174.876811 182.320947 
L 176.679303 179.981421 
L 178.481795 174.197222 
L 180.284287 170.812958 
L 182.086779 174.01191 
L 183.889271 175.471589 
L 185.691763 173.513196 
L 189.296747 165.123772 
L 191.099239 162.632422 
L 192.901731 164.780641 
L 194.704222 159.162106 
L 196.506714 155.10068 
L 198.309206 156.084865 
L 203.716682 149.350361 
L 205.519174 148.953653 
L 209.124158 146.904967 
L 210.92665 149.599379 
L 212.729142 147.681734 
L 214.531634 148.826135 
L 216.334126 149.833988 
L 218.136617 146.473064 
L 219.939109 141.721758 
L 221.741601 140.668003 
L 223.544093 141.280017 
L 225.346585 140.019614 
L 227.149077 140.209988 
L 228.951569 137.058702 
L 232.556553 135.066586 
L 234.359045 132.938001 
L 236.161537 134.293212 
L 237.964029 133.570895 
L 239.766521 134.668104 
L 241.569012 134.668104 
L 243.371504 132.817161 
L 245.173996 132.715588 
L 246.976488 130.021177 
L 248.77898 133.033326 
L 250.581472 131.888925 
L 252.383964 132.718244 
L 254.186456 132.767488 
L 255.988948 135.008104 
L 257.79144 136.925749 
L 259.593932 134.049282 
L 261.396424 133.045232 
L 263.198916 134.713776 
L 265.001407 135.895074 
L 266.803899 138.13569 
L 268.606391 142.664594 
L 270.408883 142.664594 
L 274.013867 140.05063 
L 275.816359 140.942753 
L 277.618851 139.921256 
L 279.421343 140.95455 
L 281.223835 141.847685 
L 283.026327 144.161364 
L 284.828819 141.149216 
L 286.631311 142.496421 
L 288.433802 138.441973 
L 290.236294 143.319538 
L 292.038786 141.078922 
L 293.841278 139.161278 
L 295.64377 141.607927 
L 297.446262 143.525572 
L 299.248754 141.666654 
L 301.051246 139.247807 
L 302.853738 138.050615 
L 304.65623 134.498125 
L 306.458722 135.54155 
L 308.261214 135.61331 
L 310.063706 137.700158 
L 311.866198 138.872091 
L 313.668689 137.786078 
L 315.471181 139.852666 
L 317.273673 140.234955 
L 319.076165 138.934887 
L 320.878657 138.934887 
L 322.681149 139.304282 
L 324.483641 141.750932 
L 326.286133 136.824123 
L 329.891117 141.061057 
L 331.693609 138.614408 
L 333.496101 136.696763 
L 335.298593 135.754912 
L 337.101084 137.514073 
L 342.50856 137.595725 
L 344.311052 136.582113 
L 346.113544 137.65653 
L 347.916036 134.495265 
L 349.718528 137.720394 
L 351.52102 134.620512 
L 353.323512 134.620512 
L 356.928496 136.968577 
L 358.730988 137.260076 
L 360.533479 136.963512 
L 362.335971 137.012756 
L 364.138463 136.108455 
L 365.940955 133.958369 
L 367.743447 133.958369 
L 369.545939 137.216408 
L 371.348431 138.239766 
L 373.150923 136.480605 
L 374.953415 135.405562 
L 376.755907 134.48009 
L 378.558399 135.270767 
L 380.360891 137.297991 
L 382.163383 137.428352 
L 383.965874 138.665902 
L 385.768366 137.705225 
L 387.570858 137.705225 
L 389.37335 137.534665 
L 392.978334 135.368823 
L 394.780826 135.674403 
L 396.583318 133.524317 
L 403.793286 137.898153 
L 405.595778 134.640115 
L 407.398269 133.616757 
L 409.200761 134.584295 
L 411.003253 137.118325 
L 412.805745 141.956019 
L 414.608237 142.067658 
L 416.410729 141.083858 
L 418.213221 137.792232 
L 421.818205 135.303842 
L 423.620697 135.303842 
L 425.423189 136.357007 
L 427.225681 135.161172 
L 429.028173 136.18453 
L 430.830665 135.937438 
L 432.633156 137.964662 
L 434.435648 137.624569 
L 436.23814 135.335768 
L 438.040632 134.271475 
L 439.843124 134.503727 
L 441.645616 135.727051 
L 443.448108 135.727051 
L 445.2506 138.230032 
L 447.053092 136.749757 
L 448.855584 132.916113 
L 450.658076 133.288243 
L 452.460568 132.244819 
L 454.26306 133.268177 
L 456.065551 135.221008 
L 457.868043 135.149248 
L 459.670535 138.619767 
L 461.473027 135.519886 
L 463.275519 135.519886 
L 465.078011 140.543645 
L 466.880503 139.585695 
L 468.682995 139.362357 
L 470.485487 137.461834 
L 472.287979 138.379328 
L 474.090471 142.956931 
L 475.892963 142.712761 
L 477.695455 142.621662 
L 477.695455 142.621662 
" style="fill:none;stroke:#cc3311;stroke-linecap:square;stroke-width:0.5;"/>
    <defs>
     <path d="M 0 2.5 
C 0.663008 2.5 1.29895 2.236584 1.767767 1.767767 
C 2.236584 1.29895 2.5 0.663008 2.5 0 
C 2.5 -0.663008 2.236584 -1.29895 1.767767 -1.767767 
C 1.29895 -2.236584 0.663008 -2.5 0 -2.5 
C -0.663008 -2.5 -1.29895 -2.236584 -1.767767 -1.767767 
C -2.236584 -1.29895 -2.5 -0.663008 -2.5 0 
C -2.5 0.663008 -2.236584 1.29895 -1.767767 1.767767 
C -1.29895 2.236584 -0.663008 2.5 0 2.5 
z
" id="m02832a65ed" style="stroke:#cc3311;"/>
    </defs>
    <g clip-path="url(#pdd45c839e7)">
     <use style="fill:#cc3311;stroke:#cc3311;" x="122.604545" xlink:href="#m02832a65ed" y="199.269711"/>
     <use style="fill:#cc3311;stroke:#cc3311;" x="140.629465" xlink:href="#m02832a65ed" y="181.59327"/>
     <use style="fill:#cc3311;stroke:#cc3311;" x="158.654384" xlink:href="#m02832a65ed" y="189.417913"/>
     <use style="fill:#cc3311;stroke:#cc3311;" x="176.679303" xlink:href="#m02832a65ed" y="179.981421"/>
     <use style="fill:#cc3311;stroke:#cc3311;" x="194.704222" xlink:href="#m02832a65ed" y="159.162106"/>
     <use style="fill:#cc3311;stroke:#cc3311;" x="212.729142" xlink:href="#m02832a65ed" y="147.681734"/>
     <use style="fill:#cc3311;stroke:#cc3311;" x="230.754061" xlink:href="#m02832a65ed" y="136.025409"/>
     <use style="fill:#cc3311;stroke:#cc3311;" x="248.77898" xlink:href="#m02832a65ed" y="133.033326"/>
     <use style="fill:#cc3311;stroke:#cc3311;" x="266.803899" xlink:href="#m02832a65ed" y="138.13569"/>
     <use style="fill:#cc3311;stroke:#cc3311;" x="284.828819" xlink:href="#m02832a65ed" y="141.149216"/>
     <use style="fill:#cc3311;stroke:#cc3311;" x="302.853738" xlink:href="#m02832a65ed" y="138.050615"/>
     <use style="fill:#cc3311;stroke:#cc3311;" x="320.878657" xlink:href="#m02832a65ed" y="138.934887"/>
     <use style="fill:#cc3311;stroke:#cc3311;" x="338.903576" xlink:href="#m02832a65ed" y="137.545692"/>
     <use style="fill:#cc3311;stroke:#cc3311;" x="356.928496" xlink:href="#m02832a65ed" y="136.968577"/>
     <use style="fill:#cc3311;stroke:#cc3311;" x="374.953415" xlink:href="#m02832a65ed" y="135.405562"/>
     <use style="fill:#cc3311;stroke:#cc3311;" x="392.978334" xlink:href="#m02832a65ed" y="135.368823"/>
     <use style="fill:#cc3311;stroke:#cc3311;" x="411.003253" xlink:href="#m02832a65ed" y="137.118325"/>
     <use style="fill:#cc3311;stroke:#cc3311;" x="429.028173" xlink:href="#m02832a65ed" y="136.18453"/>
     <use style="fill:#cc3311;stroke:#cc3311;" x="447.053092" xlink:href="#m02832a65ed" y="136.749757"/>
     <use style="fill:#cc3311;stroke:#cc3311;" x="465.078011" xlink:href="#m02832a65ed" y="140.543645"/>
    </g>
   </g>
   <g id="line2d_22"/>
   <g id="line2d_23"/>
   <g id="line2d_24"/>
   <g id="line2d_25"/>
   <g id="line2d_26">
    <path clip-path="url(#pdd45c839e7)" d="M 122.604545 376.651812 
L 124.407037 344.020199 
L 126.209529 339.997307 
L 128.012021 329.944539 
L 129.814513 308.186534 
L 131.617005 304.467764 
L 133.419497 303.865879 
L 135.221989 290.347903 
L 137.024481 273.092042 
L 138.826973 266.095423 
L 142.431957 253.055445 
L 144.234449 250.713446 
L 146.03694 242.535648 
L 147.839432 239.590296 
L 149.641924 235.292255 
L 151.444416 230.537829 
L 153.246908 230.912403 
L 155.0494 225.78368 
L 156.851892 221.143737 
L 158.654384 207.84008 
L 160.456876 199.807683 
L 164.06186 180.423061 
L 165.864352 177.001779 
L 167.666844 169.345654 
L 169.469335 162.366076 
L 171.271827 160.985373 
L 173.074319 161.828635 
L 174.876811 160.362541 
L 178.481795 153.593674 
L 180.284287 147.992134 
L 182.086779 152.311393 
L 183.889271 150.773342 
L 185.691763 150.922458 
L 187.494255 149.860266 
L 189.296747 145.789644 
L 191.099239 147.470799 
L 192.901731 152.933744 
L 194.704222 153.967038 
L 196.506714 155.794227 
L 198.309206 159.971289 
L 200.111698 161.838469 
L 201.91419 162.714957 
L 203.716682 162.888599 
L 205.519174 164.599402 
L 207.321666 163.573879 
L 209.124158 164.637564 
L 210.92665 162.823504 
L 212.729142 161.864682 
L 216.334126 164.084126 
L 218.136617 160.723202 
L 219.939109 158.857874 
L 221.741601 157.825194 
L 223.544093 160.528257 
L 225.346585 159.267854 
L 227.149077 157.574525 
L 228.951569 152.228821 
L 230.754061 151.195527 
L 232.556553 149.510325 
L 234.359045 145.1564 
L 236.161537 144.433621 
L 237.964029 142.716638 
L 239.766521 143.628775 
L 241.569012 142.57502 
L 243.371504 143.063181 
L 245.173996 140.874761 
L 246.976488 140.495094 
L 248.77898 143.507243 
L 250.581472 142.362842 
L 252.383964 145.342247 
L 254.186456 145.440736 
L 255.988948 146.695895 
L 257.79144 148.402599 
L 259.593932 145.711711 
L 261.396424 144.707661 
L 263.198916 146.376205 
L 265.001407 146.348079 
L 266.803899 148.588695 
L 268.606391 148.703061 
L 270.408883 147.735523 
L 272.211375 148.474826 
L 274.013867 150.369076 
L 275.816359 150.16399 
L 277.618851 149.174751 
L 279.421343 147.86894 
L 281.223835 148.762075 
L 283.026327 150.108216 
L 284.828819 147.096067 
L 286.631311 149.790479 
L 288.433802 145.736031 
L 290.236294 148.23462 
L 292.038786 149.795049 
L 293.841278 147.091986 
L 295.64377 149.61756 
L 297.446262 154.411671 
L 299.248754 152.552753 
L 301.051246 154.443211 
L 304.65623 151.957982 
L 306.458722 153.001406 
L 308.261214 153.144926 
L 310.063706 152.070509 
L 311.866198 153.242442 
L 313.668689 153.242442 
L 315.471181 156.342324 
L 317.273673 158.941889 
L 319.076165 157.641822 
L 320.878657 157.641822 
L 322.681149 156.664011 
L 324.483641 157.887336 
L 326.286133 157.530874 
L 328.088625 155.816677 
L 329.891117 156.834537 
L 333.496101 149.413876 
L 335.298593 150.407102 
L 337.101084 149.066381 
L 338.903576 148.022957 
L 340.706068 147.972014 
L 344.311052 145.93466 
L 346.113544 148.062832 
L 347.916036 144.901566 
L 349.718528 148.104756 
L 351.52102 145.12842 
L 353.323512 142.911144 
L 355.126004 146.332085 
L 356.928496 148.620886 
L 358.730988 148.912384 
L 360.533479 148.764103 
L 362.335971 144.28287 
L 364.138463 142.196022 
L 365.940955 141.25536 
L 367.743447 141.25536 
L 369.545939 144.555987 
L 371.348431 144.667626 
L 373.150923 145.015975 
L 374.953415 146.211809 
L 376.755907 148.683016 
L 380.360891 148.663334 
L 382.163383 147.73994 
L 383.965874 147.73994 
L 385.768366 143.496951 
L 387.570858 146.728947 
L 389.37335 145.535029 
L 391.175842 142.296311 
L 392.978334 142.80828 
L 394.780826 143.11386 
L 396.583318 143.082241 
L 398.38581 145.322857 
L 400.188302 146.467258 
L 401.990794 146.322127 
L 403.793286 149.718806 
L 405.595778 146.584178 
L 407.398269 145.541511 
L 409.200761 145.369078 
L 411.003253 146.707274 
L 412.805745 145.729442 
L 414.608237 147.776158 
L 416.410729 148.849395 
L 418.213221 146.714608 
L 420.015713 147.910442 
L 421.818205 146.778216 
L 423.620697 143.39343 
L 425.423189 144.436659 
L 427.225681 144.244875 
L 429.028173 143.490821 
L 430.830665 143.243729 
L 432.633156 143.213917 
L 434.435648 143.824085 
L 436.23814 143.712978 
L 438.040632 142.648685 
L 439.843124 141.980962 
L 441.645616 141.994864 
L 443.448108 143.1409 
L 445.2506 142.362662 
L 447.053092 142.989898 
L 448.855584 141.5751 
L 450.658076 140.737807 
L 452.460568 138.650959 
L 454.26306 139.540836 
L 456.065551 139.321417 
L 457.868043 140.263269 
L 459.670535 141.572898 
L 463.275519 139.556016 
L 465.078011 143.556417 
L 466.880503 141.489829 
L 468.682995 143.182046 
L 470.485487 142.459847 
L 472.287979 144.179034 
L 474.090471 148.756637 
L 475.892963 146.027682 
L 477.695455 145.936583 
L 477.695455 145.936583 
" style="fill:none;stroke:#009988;stroke-dasharray:1.85,0.8;stroke-dashoffset:0;stroke-width:0.5;"/>
    <defs>
     <path d="M -2.5 2.5 
L 2.5 2.5 
L 2.5 -2.5 
L -2.5 -2.5 
z
" id="m5ce03c434f" style="stroke:#009988;stroke-linejoin:miter;"/>
    </defs>
    <g clip-path="url(#pdd45c839e7)">
     <use style="fill:#009988;stroke:#009988;stroke-linejoin:miter;" x="122.604545" xlink:href="#m5ce03c434f" y="376.651812"/>
     <use style="fill:#009988;stroke:#009988;stroke-linejoin:miter;" x="140.629465" xlink:href="#m5ce03c434f" y="259.697845"/>
     <use style="fill:#009988;stroke:#009988;stroke-linejoin:miter;" x="158.654384" xlink:href="#m5ce03c434f" y="207.84008"/>
     <use style="fill:#009988;stroke:#009988;stroke-linejoin:miter;" x="176.679303" xlink:href="#m5ce03c434f" y="157.064193"/>
     <use style="fill:#009988;stroke:#009988;stroke-linejoin:miter;" x="194.704222" xlink:href="#m5ce03c434f" y="153.967038"/>
     <use style="fill:#009988;stroke:#009988;stroke-linejoin:miter;" x="212.729142" xlink:href="#m5ce03c434f" y="161.864682"/>
     <use style="fill:#009988;stroke:#009988;stroke-linejoin:miter;" x="230.754061" xlink:href="#m5ce03c434f" y="151.195527"/>
     <use style="fill:#009988;stroke:#009988;stroke-linejoin:miter;" x="248.77898" xlink:href="#m5ce03c434f" y="143.507243"/>
     <use style="fill:#009988;stroke:#009988;stroke-linejoin:miter;" x="266.803899" xlink:href="#m5ce03c434f" y="148.588695"/>
     <use style="fill:#009988;stroke:#009988;stroke-linejoin:miter;" x="284.828819" xlink:href="#m5ce03c434f" y="147.096067"/>
     <use style="fill:#009988;stroke:#009988;stroke-linejoin:miter;" x="302.853738" xlink:href="#m5ce03c434f" y="153.246019"/>
     <use style="fill:#009988;stroke:#009988;stroke-linejoin:miter;" x="320.878657" xlink:href="#m5ce03c434f" y="157.641822"/>
     <use style="fill:#009988;stroke:#009988;stroke-linejoin:miter;" x="338.903576" xlink:href="#m5ce03c434f" y="148.022957"/>
     <use style="fill:#009988;stroke:#009988;stroke-linejoin:miter;" x="356.928496" xlink:href="#m5ce03c434f" y="148.620886"/>
     <use style="fill:#009988;stroke:#009988;stroke-linejoin:miter;" x="374.953415" xlink:href="#m5ce03c434f" y="146.211809"/>
     <use style="fill:#009988;stroke:#009988;stroke-linejoin:miter;" x="392.978334" xlink:href="#m5ce03c434f" y="142.80828"/>
     <use style="fill:#009988;stroke:#009988;stroke-linejoin:miter;" x="411.003253" xlink:href="#m5ce03c434f" y="146.707274"/>
     <use style="fill:#009988;stroke:#009988;stroke-linejoin:miter;" x="429.028173" xlink:href="#m5ce03c434f" y="143.490821"/>
     <use style="fill:#009988;stroke:#009988;stroke-linejoin:miter;" x="447.053092" xlink:href="#m5ce03c434f" y="142.989898"/>
     <use style="fill:#009988;stroke:#009988;stroke-linejoin:miter;" x="465.078011" xlink:href="#m5ce03c434f" y="143.556417"/>
    </g>
   </g>
   <g id="line2d_27"/>
   <g id="line2d_28"/>
   <g id="line2d_29"/>
   <g id="line2d_30"/>
   <g id="line2d_31">
    <path clip-path="url(#pdd45c839e7)" d="M 122.604545 154.924185 
L 124.407037 142.791919 
L 126.209529 171.787757 
L 128.012021 191.961903 
L 129.814513 181.214047 
L 131.617005 186.136269 
L 133.419497 178.353053 
L 135.221989 174.138424 
L 137.024481 175.231727 
L 138.826973 168.766421 
L 140.629465 169.281857 
L 142.431957 170.174123 
L 144.234449 172.484059 
L 146.03694 169.894074 
L 147.839432 170.328549 
L 149.641924 167.849243 
L 151.444416 172.225389 
L 153.246908 173.023954 
L 155.0494 174.555888 
L 156.851892 173.597643 
L 158.654384 175.814919 
L 160.456876 178.827068 
L 164.06186 171.285676 
L 165.864352 172.010988 
L 167.666844 170.328466 
L 169.469335 171.778929 
L 171.271827 172.952528 
L 173.074319 171.349141 
L 174.876811 171.349141 
L 176.679303 169.115085 
L 178.481795 165.644566 
L 180.284287 163.38061 
L 182.086779 166.579562 
L 183.889271 168.039241 
L 185.691763 168.088947 
L 187.494255 162.63792 
L 189.296747 161.101327 
L 191.099239 157.465576 
L 192.901731 159.613796 
L 194.704222 156.212537 
L 196.506714 153.155161 
L 200.111698 148.57482 
L 201.91419 148.456642 
L 203.716682 145.130728 
L 205.519174 144.73402 
L 209.124158 142.685334 
L 210.92665 145.379745 
L 212.729142 144.420923 
L 214.531634 145.565324 
L 216.334126 145.498134 
L 218.136617 142.137209 
L 219.939109 137.385903 
L 221.741601 136.332148 
L 223.544093 137.117566 
L 225.346585 135.857164 
L 227.149077 136.047538 
L 228.951569 132.896252 
L 232.556553 130.904136 
L 234.359045 130.904136 
L 236.161537 132.259347 
L 237.964029 131.53703 
L 239.766521 132.634239 
L 241.569012 131.580484 
L 243.371504 129.72954 
L 245.173996 129.627968 
L 246.976488 126.933556 
L 248.77898 129.945705 
L 250.581472 128.801305 
L 252.383964 129.692055 
L 254.186456 129.741299 
L 255.988948 131.981915 
L 257.79144 133.899559 
L 259.593932 131.981915 
L 261.396424 130.977865 
L 263.198916 131.712819 
L 266.803899 134.014425 
L 270.408883 134.014425 
L 274.013867 131.40046 
L 275.816359 130.303251 
L 279.421343 130.335509 
L 281.223835 131.228644 
L 283.026327 133.542324 
L 284.828819 130.530175 
L 286.631311 131.877381 
L 288.433802 128.836545 
L 290.236294 134.923533 
L 292.038786 132.682917 
L 293.841278 130.765273 
L 295.64377 133.211922 
L 297.446262 135.129567 
L 299.248754 134.204239 
L 301.051246 131.785392 
L 302.853738 131.708508 
L 306.458722 133.728347 
L 308.261214 133.800107 
L 310.063706 134.843531 
L 311.866198 138.004797 
L 313.668689 136.918784 
L 315.471181 138.985371 
L 317.273673 139.36766 
L 319.076165 138.067593 
L 320.878657 138.067593 
L 322.681149 138.436988 
L 324.483641 138.436988 
L 326.286133 132.300755 
L 329.891117 136.53769 
L 331.693609 134.09104 
L 333.496101 132.173396 
L 335.298593 131.231544 
L 337.101084 132.990705 
L 338.903576 133.022324 
L 344.311052 129.988873 
L 346.113544 132.106714 
L 347.916036 128.945449 
L 349.718528 131.095535 
L 351.52102 129.028947 
L 353.323512 129.028947 
L 356.928496 131.377012 
L 358.730988 131.66851 
L 360.533479 133.818596 
L 362.335971 132.698288 
L 364.138463 131.793988 
L 365.940955 129.643901 
L 367.743447 129.643901 
L 369.545939 132.90194 
L 371.348431 133.925298 
L 373.150923 132.166137 
L 374.953415 132.286928 
L 376.755907 132.286928 
L 378.558399 133.254467 
L 380.360891 135.281691 
L 382.163383 134.314844 
L 383.965874 135.552393 
L 385.768366 135.666759 
L 387.570858 135.666759 
L 389.37335 133.449483 
L 392.978334 131.283641 
L 394.780826 131.589221 
L 396.583318 129.439135 
L 398.38581 130.559443 
L 400.188302 130.521296 
L 403.793286 132.717815 
L 405.595778 129.459776 
L 407.398269 128.436418 
L 409.200761 129.403957 
L 411.003253 130.742153 
L 412.805745 134.370423 
L 414.608237 135.449601 
L 416.410729 134.465801 
L 418.213221 132.271383 
L 421.818205 129.782993 
L 423.620697 129.782993 
L 425.423189 132.882874 
L 427.225681 131.68704 
L 429.028173 132.710398 
L 430.830665 132.463306 
L 432.633156 132.463306 
L 434.435648 132.29326 
L 439.843124 128.95234 
L 441.645616 130.175665 
L 443.448108 130.175665 
L 445.2506 131.521806 
L 447.053092 128.987776 
L 448.855584 125.359506 
L 450.658076 125.731636 
L 452.460568 124.688212 
L 454.26306 125.71157 
L 456.065551 127.6644 
L 457.868043 127.59264 
L 459.670535 128.74948 
L 461.473027 125.649599 
L 463.275519 125.649599 
L 465.078011 130.673358 
L 466.880503 129.715408 
L 468.682995 131.519294 
L 470.485487 130.569033 
L 472.287979 131.486526 
L 474.090471 136.064129 
L 475.892963 137.184437 
L 477.695455 135.961112 
L 477.695455 135.961112 
" style="fill:none;stroke:#0077bb;stroke-dasharray:3.2,0.8,0.5,0.8;stroke-dashoffset:0;stroke-width:0.5;"/>
    <defs>
     <path d="M 0 -2.5 
L -2.5 2.5 
L 2.5 2.5 
z
" id="m93238da4ae" style="stroke:#0077bb;stroke-linejoin:miter;"/>
    </defs>
    <g clip-path="url(#pdd45c839e7)">
     <use style="fill:#0077bb;stroke:#0077bb;stroke-linejoin:miter;" x="122.604545" xlink:href="#m93238da4ae" y="154.924185"/>
     <use style="fill:#0077bb;stroke:#0077bb;stroke-linejoin:miter;" x="140.629465" xlink:href="#m93238da4ae" y="169.281857"/>
     <use style="fill:#0077bb;stroke:#0077bb;stroke-linejoin:miter;" x="158.654384" xlink:href="#m93238da4ae" y="175.814919"/>
     <use style="fill:#0077bb;stroke:#0077bb;stroke-linejoin:miter;" x="176.679303" xlink:href="#m93238da4ae" y="169.115085"/>
     <use style="fill:#0077bb;stroke:#0077bb;stroke-linejoin:miter;" x="194.704222" xlink:href="#m93238da4ae" y="156.212537"/>
     <use style="fill:#0077bb;stroke:#0077bb;stroke-linejoin:miter;" x="212.729142" xlink:href="#m93238da4ae" y="144.420923"/>
     <use style="fill:#0077bb;stroke:#0077bb;stroke-linejoin:miter;" x="230.754061" xlink:href="#m93238da4ae" y="131.862958"/>
     <use style="fill:#0077bb;stroke:#0077bb;stroke-linejoin:miter;" x="248.77898" xlink:href="#m93238da4ae" y="129.945705"/>
     <use style="fill:#0077bb;stroke:#0077bb;stroke-linejoin:miter;" x="266.803899" xlink:href="#m93238da4ae" y="134.014425"/>
     <use style="fill:#0077bb;stroke:#0077bb;stroke-linejoin:miter;" x="284.828819" xlink:href="#m93238da4ae" y="130.530175"/>
     <use style="fill:#0077bb;stroke:#0077bb;stroke-linejoin:miter;" x="302.853738" xlink:href="#m93238da4ae" y="131.708508"/>
     <use style="fill:#0077bb;stroke:#0077bb;stroke-linejoin:miter;" x="320.878657" xlink:href="#m93238da4ae" y="138.067593"/>
     <use style="fill:#0077bb;stroke:#0077bb;stroke-linejoin:miter;" x="338.903576" xlink:href="#m93238da4ae" y="133.022324"/>
     <use style="fill:#0077bb;stroke:#0077bb;stroke-linejoin:miter;" x="356.928496" xlink:href="#m93238da4ae" y="131.377012"/>
     <use style="fill:#0077bb;stroke:#0077bb;stroke-linejoin:miter;" x="374.953415" xlink:href="#m93238da4ae" y="132.286928"/>
     <use style="fill:#0077bb;stroke:#0077bb;stroke-linejoin:miter;" x="392.978334" xlink:href="#m93238da4ae" y="131.283641"/>
     <use style="fill:#0077bb;stroke:#0077bb;stroke-linejoin:miter;" x="411.003253" xlink:href="#m93238da4ae" y="130.742153"/>
     <use style="fill:#0077bb;stroke:#0077bb;stroke-linejoin:miter;" x="429.028173" xlink:href="#m93238da4ae" y="132.710398"/>
     <use style="fill:#0077bb;stroke:#0077bb;stroke-linejoin:miter;" x="447.053092" xlink:href="#m93238da4ae" y="128.987776"/>
     <use style="fill:#0077bb;stroke:#0077bb;stroke-linejoin:miter;" x="465.078011" xlink:href="#m93238da4ae" y="130.673358"/>
    </g>
   </g>
   <g id="line2d_32"/>
   <g id="line2d_33"/>
   <g id="line2d_34"/>
   <g id="line2d_35"/>
   <g id="line2d_36">
    <path clip-path="url(#pdd45c839e7)" d="M 122.604545 199.269711 
L 124.407037 164.964682 
L 126.209529 169.540917 
L 128.012021 160.713089 
L 129.814513 167.272582 
L 131.617005 170.344684 
L 133.419497 164.81741 
L 135.221989 164.423322 
L 137.024481 158.440581 
L 138.826973 161.058164 
L 140.629465 160.339273 
L 142.431957 160.048688 
L 144.234449 161.413953 
L 149.641924 156.111759 
L 151.444416 154.724176 
L 153.246908 153.679442 
L 155.0494 151.410979 
L 156.851892 150.489671 
L 158.654384 147.163757 
L 160.456876 148.167807 
L 162.259368 145.906471 
L 164.06186 144.723924 
L 165.864352 140.577329 
L 167.666844 139.038278 
L 169.469335 137.984523 
L 171.271827 138.306688 
L 173.074319 139.339981 
L 174.876811 137.745604 
L 176.679303 136.575841 
L 178.481795 134.262162 
L 180.284287 130.901237 
L 182.086779 135.220497 
L 183.889271 136.974072 
L 185.691763 138.077533 
L 187.494255 136.980324 
L 189.296747 135.713309 
L 191.099239 138.538864 
L 192.901731 141.807392 
L 194.704222 141.732048 
L 196.506714 143.559237 
L 198.309206 144.543422 
L 200.111698 144.543422 
L 201.91419 145.538088 
L 203.716682 144.603092 
L 205.519174 147.764357 
L 207.321666 148.589778 
L 209.124158 149.643332 
L 210.92665 148.883028 
L 212.729142 147.924206 
L 214.531634 147.924206 
L 216.334126 148.999249 
L 218.136617 145.638325 
L 219.939109 144.758453 
L 221.741601 143.715235 
L 223.544093 145.63288 
L 225.346585 146.636929 
L 227.149077 143.811374 
L 228.951569 140.660088 
L 230.754061 139.626794 
L 232.556553 135.791505 
L 234.359045 133.66292 
L 236.161537 133.66292 
L 237.964029 132.668254 
L 239.766521 132.483183 
L 241.569012 131.429428 
L 243.371504 128.897093 
L 245.173996 127.752096 
L 246.976488 126.404891 
L 248.77898 128.41299 
L 252.383964 130.398465 
L 254.186456 130.496953 
L 255.988948 130.766657 
L 257.79144 132.578831 
L 259.593932 130.661187 
L 261.396424 129.657137 
L 263.198916 130.590727 
L 265.001407 129.353177 
L 266.803899 130.473485 
L 270.408883 130.473485 
L 272.211375 132.357189 
L 274.013867 133.410944 
L 279.421343 130.122686 
L 281.223835 131.015821 
L 283.026327 132.172661 
L 284.828819 130.164562 
L 286.631311 131.825679 
L 288.433802 129.798455 
L 290.236294 131.087621 
L 292.038786 130.747528 
L 293.841278 127.871061 
L 295.64377 130.317711 
L 297.446262 131.276533 
L 299.248754 130.342943 
L 301.051246 132.409531 
L 302.853738 131.289223 
L 304.65623 132.265638 
L 306.458722 132.265638 
L 308.261214 131.395546 
L 310.063706 130.341791 
L 313.668689 132.481559 
L 315.471181 134.548146 
L 317.273673 136.039074 
L 319.076165 136.909458 
L 320.878657 136.909458 
L 322.681149 135.931647 
L 324.483641 137.154972 
L 326.286133 133.526702 
L 328.088625 131.626179 
L 329.891117 133.776265 
L 331.693609 131.329616 
L 333.496101 131.414218 
L 335.298593 132.381756 
L 337.101084 130.315169 
L 338.903576 130.315169 
L 340.706068 129.338753 
L 342.50856 129.338753 
L 344.311052 130.391729 
L 346.113544 132.499239 
L 347.916036 131.445484 
L 349.718528 132.498588 
L 351.52102 132.74568 
L 353.323512 129.419765 
L 355.126004 129.609817 
L 356.928496 130.754218 
L 358.730988 131.045716 
L 360.533479 129.822391 
L 364.138463 129.822391 
L 365.940955 128.881729 
L 367.743447 128.881729 
L 369.545939 132.182356 
L 371.348431 131.214817 
L 373.150923 133.322328 
L 374.953415 133.322328 
L 376.755907 134.454554 
L 378.558399 134.454554 
L 380.360891 133.401578 
L 383.965874 133.488486 
L 385.768366 130.263357 
L 387.570858 129.046886 
L 389.37335 131.093602 
L 394.780826 128.0765 
L 396.583318 128.0765 
L 400.188302 130.341209 
L 401.990794 129.131786 
L 403.793286 129.131786 
L 405.595778 124.787734 
L 407.398269 125.791784 
L 409.200761 124.651812 
L 411.003253 127.185843 
L 412.805745 127.26304 
L 414.608237 129.309756 
L 416.410729 129.339568 
L 418.213221 127.145151 
L 420.015713 129.536819 
L 421.818205 131.564043 
L 423.620697 131.470884 
L 425.423189 132.524049 
L 427.225681 131.328215 
L 432.633156 134.274933 
L 434.435648 136.005409 
L 438.040632 135.894302 
L 439.843124 135.894302 
L 441.645616 138.340951 
L 443.448108 138.411945 
L 445.2506 140.914925 
L 447.053092 138.380895 
L 448.855584 137.171472 
L 450.658076 136.334179 
L 452.460568 135.290755 
L 454.26306 137.337471 
L 456.065551 135.922218 
L 457.868043 134.836846 
L 459.670535 136.146476 
L 461.473027 133.046594 
L 463.275519 133.046594 
L 465.078011 135.651506 
L 466.880503 133.584919 
L 468.682995 133.473249 
L 470.485487 132.751051 
L 472.287979 133.552744 
L 474.090471 134.697145 
L 475.892963 134.697145 
L 477.695455 132.250495 
L 477.695455 132.250495 
" style="fill:none;stroke:#ee7733;stroke-dasharray:0.5,0.825;stroke-dashoffset:0;stroke-width:0.5;"/>
    <defs>
     <path d="M 0 -2.5 
L -0.561285 -0.772542 
L -2.377641 -0.772542 
L -0.908178 0.295085 
L -1.469463 2.022542 
L -0 0.954915 
L 1.469463 2.022542 
L 0.908178 0.295085 
L 2.377641 -0.772542 
L 0.561285 -0.772542 
z
" id="m6c7ee5c7f8" style="stroke:#ee7733;stroke-linejoin:bevel;"/>
    </defs>
    <g clip-path="url(#pdd45c839e7)">
     <use style="fill:#ee7733;stroke:#ee7733;stroke-linejoin:bevel;" x="122.604545" xlink:href="#m6c7ee5c7f8" y="199.269711"/>
     <use style="fill:#ee7733;stroke:#ee7733;stroke-linejoin:bevel;" x="140.629465" xlink:href="#m6c7ee5c7f8" y="160.339273"/>
     <use style="fill:#ee7733;stroke:#ee7733;stroke-linejoin:bevel;" x="158.654384" xlink:href="#m6c7ee5c7f8" y="147.163757"/>
     <use style="fill:#ee7733;stroke:#ee7733;stroke-linejoin:bevel;" x="176.679303" xlink:href="#m6c7ee5c7f8" y="136.575841"/>
     <use style="fill:#ee7733;stroke:#ee7733;stroke-linejoin:bevel;" x="194.704222" xlink:href="#m6c7ee5c7f8" y="141.732048"/>
     <use style="fill:#ee7733;stroke:#ee7733;stroke-linejoin:bevel;" x="212.729142" xlink:href="#m6c7ee5c7f8" y="147.924206"/>
     <use style="fill:#ee7733;stroke:#ee7733;stroke-linejoin:bevel;" x="230.754061" xlink:href="#m6c7ee5c7f8" y="139.626794"/>
     <use style="fill:#ee7733;stroke:#ee7733;stroke-linejoin:bevel;" x="248.77898" xlink:href="#m6c7ee5c7f8" y="128.41299"/>
     <use style="fill:#ee7733;stroke:#ee7733;stroke-linejoin:bevel;" x="266.803899" xlink:href="#m6c7ee5c7f8" y="130.473485"/>
     <use style="fill:#ee7733;stroke:#ee7733;stroke-linejoin:bevel;" x="284.828819" xlink:href="#m6c7ee5c7f8" y="130.164562"/>
     <use style="fill:#ee7733;stroke:#ee7733;stroke-linejoin:bevel;" x="302.853738" xlink:href="#m6c7ee5c7f8" y="131.289223"/>
     <use style="fill:#ee7733;stroke:#ee7733;stroke-linejoin:bevel;" x="320.878657" xlink:href="#m6c7ee5c7f8" y="136.909458"/>
     <use style="fill:#ee7733;stroke:#ee7733;stroke-linejoin:bevel;" x="338.903576" xlink:href="#m6c7ee5c7f8" y="130.315169"/>
     <use style="fill:#ee7733;stroke:#ee7733;stroke-linejoin:bevel;" x="356.928496" xlink:href="#m6c7ee5c7f8" y="130.754218"/>
     <use style="fill:#ee7733;stroke:#ee7733;stroke-linejoin:bevel;" x="374.953415" xlink:href="#m6c7ee5c7f8" y="133.322328"/>
     <use style="fill:#ee7733;stroke:#ee7733;stroke-linejoin:bevel;" x="392.978334" xlink:href="#m6c7ee5c7f8" y="128.92776"/>
     <use style="fill:#ee7733;stroke:#ee7733;stroke-linejoin:bevel;" x="411.003253" xlink:href="#m6c7ee5c7f8" y="127.185843"/>
     <use style="fill:#ee7733;stroke:#ee7733;stroke-linejoin:bevel;" x="429.028173" xlink:href="#m6c7ee5c7f8" y="132.351573"/>
     <use style="fill:#ee7733;stroke:#ee7733;stroke-linejoin:bevel;" x="447.053092" xlink:href="#m6c7ee5c7f8" y="138.380895"/>
     <use style="fill:#ee7733;stroke:#ee7733;stroke-linejoin:bevel;" x="465.078011" xlink:href="#m6c7ee5c7f8" y="135.651506"/>
    </g>
   </g>
   <g id="line2d_37"/>
   <g id="line2d_38"/>
   <g id="line2d_39"/>
   <g id="line2d_40"/>
   <g id="line2d_41">
    <path clip-path="url(#pdd45c839e7)" d="M 122.604545 154.924185 
L 124.407037 142.791919 
L 126.209529 171.787757 
L 128.012021 186.049166 
L 129.814513 187.541443 
L 131.617005 191.409099 
L 133.419497 182.872622 
L 137.024481 173.309948 
L 138.826973 170.738707 
L 140.629465 171.074844 
L 142.431957 169.889628 
L 144.234449 170.497898 
L 147.839432 165.681319 
L 149.641924 163.492464 
L 151.444416 161.670722 
L 153.246908 160.240068 
L 155.0494 157.62631 
L 158.654384 155.285597 
L 160.456876 156.289647 
L 162.259368 151.474009 
L 164.06186 145.561272 
L 165.864352 141.414678 
L 167.666844 138.623518 
L 169.469335 137.569763 
L 171.271827 138.743361 
L 173.074319 138.55333 
L 174.876811 138.809897 
L 178.481795 134.262162 
L 180.284287 130.901237 
L 182.086779 135.220497 
L 183.889271 136.974072 
L 185.691763 138.077533 
L 187.494255 136.980324 
L 189.296747 135.713309 
L 191.099239 138.538864 
L 192.901731 141.807392 
L 194.704222 141.732048 
L 196.506714 143.559237 
L 198.309206 144.543422 
L 200.111698 144.543422 
L 201.91419 145.538088 
L 203.716682 144.603092 
L 205.519174 147.764357 
L 207.321666 148.589778 
L 209.124158 149.643332 
L 210.92665 148.883028 
L 212.729142 147.924206 
L 214.531634 147.924206 
L 216.334126 148.999249 
L 218.136617 145.638325 
L 219.939109 144.758453 
L 221.741601 143.715235 
L 223.544093 145.63288 
L 225.346585 146.636929 
L 227.149077 143.811374 
L 228.951569 140.660088 
L 230.754061 139.626794 
L 232.556553 135.791505 
L 234.359045 133.66292 
L 236.161537 133.66292 
L 237.964029 132.668254 
L 239.766521 132.483183 
L 241.569012 131.429428 
L 243.371504 128.897093 
L 245.173996 127.752096 
L 246.976488 126.404891 
L 248.77898 128.41299 
L 252.383964 130.398465 
L 254.186456 130.496953 
L 255.988948 130.766657 
L 257.79144 132.578831 
L 259.593932 130.661187 
L 261.396424 129.657137 
L 263.198916 130.590727 
L 265.001407 129.353177 
L 266.803899 130.473485 
L 270.408883 130.473485 
L 272.211375 132.357189 
L 274.013867 133.410944 
L 279.421343 130.122686 
L 281.223835 131.015821 
L 283.026327 132.172661 
L 284.828819 130.164562 
L 286.631311 131.825679 
L 288.433802 129.798455 
L 290.236294 131.087621 
L 292.038786 130.747528 
L 293.841278 127.871061 
L 295.64377 130.317711 
L 297.446262 131.276533 
L 299.248754 130.342943 
L 301.051246 132.409531 
L 302.853738 131.289223 
L 304.65623 132.265638 
L 306.458722 132.265638 
L 308.261214 131.395546 
L 310.063706 130.341791 
L 313.668689 132.481559 
L 315.471181 134.548146 
L 317.273673 136.039074 
L 319.076165 136.909458 
L 320.878657 136.909458 
L 322.681149 135.931647 
L 324.483641 137.154972 
L 326.286133 133.526702 
L 328.088625 131.626179 
L 329.891117 133.776265 
L 331.693609 131.329616 
L 333.496101 131.414218 
L 335.298593 132.381756 
L 337.101084 130.315169 
L 338.903576 130.315169 
L 340.706068 129.338753 
L 342.50856 129.338753 
L 344.311052 130.391729 
L 346.113544 132.499239 
L 347.916036 131.445484 
L 349.718528 132.498588 
L 351.52102 132.74568 
L 353.323512 129.419765 
L 355.126004 129.609817 
L 356.928496 130.754218 
L 358.730988 131.045716 
L 360.533479 129.822391 
L 364.138463 129.822391 
L 365.940955 128.881729 
L 367.743447 128.881729 
L 369.545939 132.182356 
L 371.348431 132.238176 
L 373.150923 134.345686 
L 374.953415 134.345686 
L 376.755907 135.477912 
L 378.558399 135.477912 
L 380.360891 134.424936 
L 383.965874 134.511844 
L 385.768366 131.286715 
L 387.570858 130.070244 
L 389.37335 131.093602 
L 394.780826 128.0765 
L 396.583318 128.0765 
L 398.38581 129.196808 
L 400.188302 131.48561 
L 401.990794 130.276186 
L 403.793286 130.276186 
L 405.595778 125.932135 
L 407.398269 125.912826 
L 409.200761 125.740394 
L 411.003253 128.274424 
L 412.805745 128.351621 
L 414.608237 130.398337 
L 416.410729 130.42815 
L 418.213221 128.233732 
L 420.015713 129.429566 
L 421.818205 131.45679 
L 423.620697 131.363631 
L 425.423189 133.440154 
L 427.225681 132.24432 
L 432.633156 135.191038 
L 434.435648 135.020991 
L 436.23814 133.765484 
L 439.843124 133.765484 
L 441.645616 136.212133 
L 443.448108 136.283127 
L 445.2506 137.818569 
L 447.053092 135.284538 
L 448.855584 134.075115 
L 450.658076 133.237822 
L 452.460568 132.194398 
L 454.26306 134.241114 
L 456.065551 134.021695 
L 457.868043 132.936323 
L 459.670535 134.245953 
L 461.473027 131.146072 
L 463.275519 131.146072 
L 465.078011 133.750984 
L 466.880503 131.684396 
L 468.682995 131.572727 
L 470.485487 132.751051 
L 472.287979 132.635251 
L 474.090471 133.779651 
L 475.892963 133.779651 
L 477.695455 131.333002 
L 477.695455 131.333002 
" style="fill:none;stroke:#ee3377;stroke-dasharray:3.2,0.8,0.5,0.8;stroke-dashoffset:0;stroke-width:0.5;"/>
    <defs>
     <path d="M -1.25 2.5 
L 0 1.25 
L 1.25 2.5 
L 2.5 1.25 
L 1.25 0 
L 2.5 -1.25 
L 1.25 -2.5 
L 0 -1.25 
L -1.25 -2.5 
L -2.5 -1.25 
L -1.25 0 
L -2.5 1.25 
z
" id="m51e143b074" style="stroke:#ee3377;stroke-linejoin:miter;"/>
    </defs>
    <g clip-path="url(#pdd45c839e7)">
     <use style="fill:#ee3377;stroke:#ee3377;stroke-linejoin:miter;" x="122.604545" xlink:href="#m51e143b074" y="154.924185"/>
     <use style="fill:#ee3377;stroke:#ee3377;stroke-linejoin:miter;" x="140.629465" xlink:href="#m51e143b074" y="171.074844"/>
     <use style="fill:#ee3377;stroke:#ee3377;stroke-linejoin:miter;" x="158.654384" xlink:href="#m51e143b074" y="155.285597"/>
     <use style="fill:#ee3377;stroke:#ee3377;stroke-linejoin:miter;" x="176.679303" xlink:href="#m51e143b074" y="136.575841"/>
     <use style="fill:#ee3377;stroke:#ee3377;stroke-linejoin:miter;" x="194.704222" xlink:href="#m51e143b074" y="141.732048"/>
     <use style="fill:#ee3377;stroke:#ee3377;stroke-linejoin:miter;" x="212.729142" xlink:href="#m51e143b074" y="147.924206"/>
     <use style="fill:#ee3377;stroke:#ee3377;stroke-linejoin:miter;" x="230.754061" xlink:href="#m51e143b074" y="139.626794"/>
     <use style="fill:#ee3377;stroke:#ee3377;stroke-linejoin:miter;" x="248.77898" xlink:href="#m51e143b074" y="128.41299"/>
     <use style="fill:#ee3377;stroke:#ee3377;stroke-linejoin:miter;" x="266.803899" xlink:href="#m51e143b074" y="130.473485"/>
     <use style="fill:#ee3377;stroke:#ee3377;stroke-linejoin:miter;" x="284.828819" xlink:href="#m51e143b074" y="130.164562"/>
     <use style="fill:#ee3377;stroke:#ee3377;stroke-linejoin:miter;" x="302.853738" xlink:href="#m51e143b074" y="131.289223"/>
     <use style="fill:#ee3377;stroke:#ee3377;stroke-linejoin:miter;" x="320.878657" xlink:href="#m51e143b074" y="136.909458"/>
     <use style="fill:#ee3377;stroke:#ee3377;stroke-linejoin:miter;" x="338.903576" xlink:href="#m51e143b074" y="130.315169"/>
     <use style="fill:#ee3377;stroke:#ee3377;stroke-linejoin:miter;" x="356.928496" xlink:href="#m51e143b074" y="130.754218"/>
     <use style="fill:#ee3377;stroke:#ee3377;stroke-linejoin:miter;" x="374.953415" xlink:href="#m51e143b074" y="134.345686"/>
     <use style="fill:#ee3377;stroke:#ee3377;stroke-linejoin:miter;" x="392.978334" xlink:href="#m51e143b074" y="128.92776"/>
     <use style="fill:#ee3377;stroke:#ee3377;stroke-linejoin:miter;" x="411.003253" xlink:href="#m51e143b074" y="128.274424"/>
     <use style="fill:#ee3377;stroke:#ee3377;stroke-linejoin:miter;" x="429.028173" xlink:href="#m51e143b074" y="133.267678"/>
     <use style="fill:#ee3377;stroke:#ee3377;stroke-linejoin:miter;" x="447.053092" xlink:href="#m51e143b074" y="135.284538"/>
     <use style="fill:#ee3377;stroke:#ee3377;stroke-linejoin:miter;" x="465.078011" xlink:href="#m51e143b074" y="133.750984"/>
    </g>
   </g>
   <g id="line2d_42"/>
   <g id="line2d_43"/>
   <g id="line2d_44"/>
   <g id="line2d_45"/>
   <g id="patch_3">
    <path d="M 104.85 389.251812 
L 104.85 112.051812 
" style="fill:none;stroke:#000000;stroke-linecap:square;stroke-linejoin:miter;stroke-width:0.8;"/>
   </g>
   <g id="patch_4">
    <path d="M 495.45 389.251812 
L 495.45 112.051812 
" style="fill:none;stroke:#000000;stroke-linecap:square;stroke-linejoin:miter;stroke-width:0.8;"/>
   </g>
   <g id="patch_5">
    <path d="M 104.85 389.251812 
L 495.45 389.251812 
" style="fill:none;stroke:#000000;stroke-linecap:square;stroke-linejoin:miter;stroke-width:0.8;"/>
   </g>
   <g id="patch_6">
    <path d="M 104.85 112.051812 
L 495.45 112.051812 
" style="fill:none;stroke:#000000;stroke-linecap:square;stroke-linejoin:miter;stroke-width:0.8;"/>
   </g>
   <g id="legend_1">
    <g id="line2d_46"/>
    <g id="line2d_47"/>
    <g id="text_18">
     <!--   -->
     <g transform="translate(48.8 22.277969)scale(0.13 -0.13)">
      <use xlink:href="#DejaVuSans-32"/>
     </g>
    </g>
    <g id="line2d_48"/>
    <g id="line2d_49"/>
    <g id="text_19">
     <!-- start -->
     <g transform="translate(48.8 41.359531)scale(0.13 -0.13)">
      <use xlink:href="#DejaVuSans-115"/>
      <use x="52.099609" xlink:href="#DejaVuSans-116"/>
      <use x="91.308594" xlink:href="#DejaVuSans-97"/>
      <use x="152.587891" xlink:href="#DejaVuSans-114"/>
      <use x="193.701172" xlink:href="#DejaVuSans-116"/>
     </g>
    </g>
    <g id="line2d_50"/>
    <g id="line2d_51"/>
    <g id="text_20">
     <!-- pre-dirft -->
     <g transform="translate(48.8 60.441094)scale(0.13 -0.13)">
      <defs>
       <path d="M 4.890625 31.390625 
L 31.203125 31.390625 
L 31.203125 23.390625 
L 4.890625 23.390625 
z
" id="DejaVuSans-45"/>
      </defs>
      <use xlink:href="#DejaVuSans-112"/>
      <use x="63.476562" xlink:href="#DejaVuSans-114"/>
      <use x="102.339844" xlink:href="#DejaVuSans-101"/>
      <use x="163.863281" xlink:href="#DejaVuSans-45"/>
      <use x="199.947266" xlink:href="#DejaVuSans-100"/>
      <use x="263.423828" xlink:href="#DejaVuSans-105"/>
      <use x="291.207031" xlink:href="#DejaVuSans-114"/>
      <use x="332.320312" xlink:href="#DejaVuSans-102"/>
      <use x="365.775391" xlink:href="#DejaVuSans-116"/>
     </g>
    </g>
    <g id="line2d_52"/>
    <g id="line2d_53"/>
    <g id="text_21">
     <!-- post-drift -->
     <g transform="translate(48.8 79.522656)scale(0.13 -0.13)">
      <use xlink:href="#DejaVuSans-112"/>
      <use x="63.476562" xlink:href="#DejaVuSans-111"/>
      <use x="124.658203" xlink:href="#DejaVuSans-115"/>
      <use x="176.757812" xlink:href="#DejaVuSans-116"/>
      <use x="215.966797" xlink:href="#DejaVuSans-45"/>
      <use x="252.050781" xlink:href="#DejaVuSans-100"/>
      <use x="315.527344" xlink:href="#DejaVuSans-114"/>
      <use x="356.640625" xlink:href="#DejaVuSans-105"/>
      <use x="384.423828" xlink:href="#DejaVuSans-102"/>
      <use x="417.878906" xlink:href="#DejaVuSans-116"/>
     </g>
    </g>
    <g id="line2d_54"/>
    <g id="line2d_55"/>
    <g id="text_22">
     <!-- end -->
     <g transform="translate(48.8 98.604219)scale(0.13 -0.13)">
      <use xlink:href="#DejaVuSans-101"/>
      <use x="61.523438" xlink:href="#DejaVuSans-110"/>
      <use x="124.902344" xlink:href="#DejaVuSans-100"/>
     </g>
    </g>
    <g id="line2d_56">
     <path d="M 102.738313 17.727969 
L 128.738313 17.727969 
" style="fill:none;stroke:#cc3311;stroke-linecap:square;stroke-width:0.5;"/>
    </g>
    <g id="line2d_57">
     <g>
      <use style="fill:#cc3311;stroke:#cc3311;" x="115.738313" xlink:href="#m02832a65ed" y="17.727969"/>
     </g>
    </g>
    <g id="text_23">
     <!-- UOB -->
     <g transform="translate(139.138313 22.277969)scale(0.13 -0.13)">
      <defs>
       <path d="M 8.6875 72.90625 
L 18.609375 72.90625 
L 18.609375 28.609375 
Q 18.609375 16.890625 22.84375 11.734375 
Q 27.09375 6.59375 36.625 6.59375 
Q 46.09375 6.59375 50.34375 11.734375 
Q 54.59375 16.890625 54.59375 28.609375 
L 54.59375 72.90625 
L 64.5 72.90625 
L 64.5 27.390625 
Q 64.5 13.140625 57.4375 5.859375 
Q 50.390625 -1.421875 36.625 -1.421875 
Q 22.796875 -1.421875 15.734375 5.859375 
Q 8.6875 13.140625 8.6875 27.390625 
z
" id="DejaVuSans-85"/>
       <path d="M 39.40625 66.21875 
Q 28.65625 66.21875 22.328125 58.203125 
Q 16.015625 50.203125 16.015625 36.375 
Q 16.015625 22.609375 22.328125 14.59375 
Q 28.65625 6.59375 39.40625 6.59375 
Q 50.140625 6.59375 56.421875 14.59375 
Q 62.703125 22.609375 62.703125 36.375 
Q 62.703125 50.203125 56.421875 58.203125 
Q 50.140625 66.21875 39.40625 66.21875 
z
M 39.40625 74.21875 
Q 54.734375 74.21875 63.90625 63.9375 
Q 73.09375 53.65625 73.09375 36.375 
Q 73.09375 19.140625 63.90625 8.859375 
Q 54.734375 -1.421875 39.40625 -1.421875 
Q 24.03125 -1.421875 14.8125 8.828125 
Q 5.609375 19.09375 5.609375 36.375 
Q 5.609375 53.65625 14.8125 63.9375 
Q 24.03125 74.21875 39.40625 74.21875 
z
" id="DejaVuSans-79"/>
       <path d="M 19.671875 34.8125 
L 19.671875 8.109375 
L 35.5 8.109375 
Q 43.453125 8.109375 47.28125 11.40625 
Q 51.125 14.703125 51.125 21.484375 
Q 51.125 28.328125 47.28125 31.5625 
Q 43.453125 34.8125 35.5 34.8125 
z
M 19.671875 64.796875 
L 19.671875 42.828125 
L 34.28125 42.828125 
Q 41.5 42.828125 45.03125 45.53125 
Q 48.578125 48.25 48.578125 53.8125 
Q 48.578125 59.328125 45.03125 62.0625 
Q 41.5 64.796875 34.28125 64.796875 
z
M 9.8125 72.90625 
L 35.015625 72.90625 
Q 46.296875 72.90625 52.390625 68.21875 
Q 58.5 63.53125 58.5 54.890625 
Q 58.5 48.1875 55.375 44.234375 
Q 52.25 40.28125 46.1875 39.3125 
Q 53.46875 37.75 57.5 32.78125 
Q 61.53125 27.828125 61.53125 20.40625 
Q 61.53125 10.640625 54.890625 5.3125 
Q 48.25 0 35.984375 0 
L 9.8125 0 
z
" id="DejaVuSans-66"/>
      </defs>
      <use xlink:href="#DejaVuSans-85"/>
      <use x="73.193359" xlink:href="#DejaVuSans-79"/>
      <use x="151.904297" xlink:href="#DejaVuSans-66"/>
     </g>
    </g>
    <g id="line2d_58"/>
    <g id="line2d_59"/>
    <g id="text_24">
     <!-- 0.9583 -->
     <g transform="translate(139.138313 41.359531)scale(0.13 -0.13)">
      <defs>
       <path d="M 40.578125 39.3125 
Q 47.65625 37.796875 51.625 33 
Q 55.609375 28.21875 55.609375 21.1875 
Q 55.609375 10.40625 48.1875 4.484375 
Q 40.765625 -1.421875 27.09375 -1.421875 
Q 22.515625 -1.421875 17.65625 -0.515625 
Q 12.796875 0.390625 7.625 2.203125 
L 7.625 11.71875 
Q 11.71875 9.328125 16.59375 8.109375 
Q 21.484375 6.890625 26.8125 6.890625 
Q 36.078125 6.890625 40.9375 10.546875 
Q 45.796875 14.203125 45.796875 21.1875 
Q 45.796875 27.640625 41.28125 31.265625 
Q 36.765625 34.90625 28.71875 34.90625 
L 20.21875 34.90625 
L 20.21875 43.015625 
L 29.109375 43.015625 
Q 36.375 43.015625 40.234375 45.921875 
Q 44.09375 48.828125 44.09375 54.296875 
Q 44.09375 59.90625 40.109375 62.90625 
Q 36.140625 65.921875 28.71875 65.921875 
Q 24.65625 65.921875 20.015625 65.03125 
Q 15.375 64.15625 9.8125 62.3125 
L 9.8125 71.09375 
Q 15.4375 72.65625 20.34375 73.4375 
Q 25.25 74.21875 29.59375 74.21875 
Q 40.828125 74.21875 47.359375 69.109375 
Q 53.90625 64.015625 53.90625 55.328125 
Q 53.90625 49.265625 50.4375 45.09375 
Q 46.96875 40.921875 40.578125 39.3125 
z
" id="DejaVuSans-51"/>
      </defs>
      <use xlink:href="#DejaVuSans-48"/>
      <use x="63.623047" xlink:href="#DejaVuSans-46"/>
      <use x="95.410156" xlink:href="#DejaVuSans-57"/>
      <use x="159.033203" xlink:href="#DejaVuSans-53"/>
      <use x="222.65625" xlink:href="#DejaVuSans-56"/>
      <use x="286.279297" xlink:href="#DejaVuSans-51"/>
     </g>
    </g>
    <g id="line2d_60"/>
    <g id="line2d_61"/>
    <g id="text_25">
     <!-- 0.9896 -->
     <g transform="translate(139.138313 60.441094)scale(0.13 -0.13)">
      <use xlink:href="#DejaVuSans-48"/>
      <use x="63.623047" xlink:href="#DejaVuSans-46"/>
      <use x="95.410156" xlink:href="#DejaVuSans-57"/>
      <use x="159.033203" xlink:href="#DejaVuSans-56"/>
      <use x="222.65625" xlink:href="#DejaVuSans-57"/>
      <use x="286.279297" xlink:href="#DejaVuSans-54"/>
     </g>
    </g>
    <g id="line2d_62"/>
    <g id="line2d_63"/>
    <g id="text_26">
     <!-- 0.9845 -->
     <g transform="translate(139.138313 79.522656)scale(0.13 -0.13)">
      <use xlink:href="#DejaVuSans-48"/>
      <use x="63.623047" xlink:href="#DejaVuSans-46"/>
      <use x="95.410156" xlink:href="#DejaVuSans-57"/>
      <use x="159.033203" xlink:href="#DejaVuSans-56"/>
      <use x="222.65625" xlink:href="#DejaVuSans-52"/>
      <use x="286.279297" xlink:href="#DejaVuSans-53"/>
     </g>
    </g>
    <g id="line2d_64"/>
    <g id="line2d_65"/>
    <g id="text_27">
     <!-- 0.9849 -->
     <g transform="translate(139.138313 98.604219)scale(0.13 -0.13)">
      <use xlink:href="#DejaVuSans-48"/>
      <use x="63.623047" xlink:href="#DejaVuSans-46"/>
      <use x="95.410156" xlink:href="#DejaVuSans-57"/>
      <use x="159.033203" xlink:href="#DejaVuSans-56"/>
      <use x="222.65625" xlink:href="#DejaVuSans-52"/>
      <use x="286.279297" xlink:href="#DejaVuSans-57"/>
     </g>
    </g>
    <g id="line2d_66">
     <path d="M 179.144281 17.727969 
L 205.144281 17.727969 
" style="fill:none;stroke:#009988;stroke-dasharray:1.85,0.8;stroke-dashoffset:0;stroke-width:0.5;"/>
    </g>
    <g id="line2d_67">
     <g>
      <use style="fill:#009988;stroke:#009988;stroke-linejoin:miter;" x="192.144281" xlink:href="#m5ce03c434f" y="17.727969"/>
     </g>
    </g>
    <g id="text_28">
     <!-- OOB -->
     <g transform="translate(215.544281 22.277969)scale(0.13 -0.13)">
      <use xlink:href="#DejaVuSans-79"/>
      <use x="78.710938" xlink:href="#DejaVuSans-79"/>
      <use x="157.421875" xlink:href="#DejaVuSans-66"/>
     </g>
    </g>
    <g id="line2d_68"/>
    <g id="line2d_69"/>
    <g id="text_29">
     <!-- 0.8750 -->
     <g transform="translate(215.544281 41.359531)scale(0.13 -0.13)">
      <use xlink:href="#DejaVuSans-48"/>
      <use x="63.623047" xlink:href="#DejaVuSans-46"/>
      <use x="95.410156" xlink:href="#DejaVuSans-56"/>
      <use x="159.033203" xlink:href="#DejaVuSans-55"/>
      <use x="222.65625" xlink:href="#DejaVuSans-53"/>
      <use x="286.279297" xlink:href="#DejaVuSans-48"/>
     </g>
    </g>
    <g id="line2d_70"/>
    <g id="line2d_71"/>
    <g id="text_30">
     <!-- 0.9847 -->
     <g transform="translate(215.544281 60.441094)scale(0.13 -0.13)">
      <use xlink:href="#DejaVuSans-48"/>
      <use x="63.623047" xlink:href="#DejaVuSans-46"/>
      <use x="95.410156" xlink:href="#DejaVuSans-57"/>
      <use x="159.033203" xlink:href="#DejaVuSans-56"/>
      <use x="222.65625" xlink:href="#DejaVuSans-52"/>
      <use x="286.279297" xlink:href="#DejaVuSans-55"/>
     </g>
    </g>
    <g id="line2d_72"/>
    <g id="line2d_73"/>
    <g id="text_31">
     <!-- 0.9794 -->
     <g transform="translate(215.544281 79.522656)scale(0.13 -0.13)">
      <use xlink:href="#DejaVuSans-48"/>
      <use x="63.623047" xlink:href="#DejaVuSans-46"/>
      <use x="95.410156" xlink:href="#DejaVuSans-57"/>
      <use x="159.033203" xlink:href="#DejaVuSans-55"/>
      <use x="222.65625" xlink:href="#DejaVuSans-57"/>
      <use x="286.279297" xlink:href="#DejaVuSans-52"/>
     </g>
    </g>
    <g id="line2d_74"/>
    <g id="line2d_75"/>
    <g id="text_32">
     <!-- 0.9834 -->
     <g transform="translate(215.544281 98.604219)scale(0.13 -0.13)">
      <use xlink:href="#DejaVuSans-48"/>
      <use x="63.623047" xlink:href="#DejaVuSans-46"/>
      <use x="95.410156" xlink:href="#DejaVuSans-57"/>
      <use x="159.033203" xlink:href="#DejaVuSans-56"/>
      <use x="222.65625" xlink:href="#DejaVuSans-51"/>
      <use x="286.279297" xlink:href="#DejaVuSans-52"/>
     </g>
    </g>
    <g id="line2d_76">
     <path d="M 255.55025 17.727969 
L 281.55025 17.727969 
" style="fill:none;stroke:#0077bb;stroke-dasharray:3.2,0.8,0.5,0.8;stroke-dashoffset:0;stroke-width:0.5;"/>
    </g>
    <g id="line2d_77">
     <g>
      <use style="fill:#0077bb;stroke:#0077bb;stroke-linejoin:miter;" x="268.55025" xlink:href="#m93238da4ae" y="17.727969"/>
     </g>
    </g>
    <g id="text_33">
     <!-- NUOB -->
     <g transform="translate(291.95025 22.277969)scale(0.13 -0.13)">
      <use xlink:href="#DejaVuSans-78"/>
      <use x="74.804688" xlink:href="#DejaVuSans-85"/>
      <use x="147.998047" xlink:href="#DejaVuSans-79"/>
      <use x="226.708984" xlink:href="#DejaVuSans-66"/>
     </g>
    </g>
    <g id="line2d_78"/>
    <g id="line2d_79"/>
    <g id="text_34">
     <!-- 0.9792 -->
     <g transform="translate(291.95025 41.359531)scale(0.13 -0.13)">
      <use xlink:href="#DejaVuSans-48"/>
      <use x="63.623047" xlink:href="#DejaVuSans-46"/>
      <use x="95.410156" xlink:href="#DejaVuSans-57"/>
      <use x="159.033203" xlink:href="#DejaVuSans-55"/>
      <use x="222.65625" xlink:href="#DejaVuSans-57"/>
      <use x="286.279297" xlink:href="#DejaVuSans-50"/>
     </g>
    </g>
    <g id="line2d_80"/>
    <g id="line2d_81"/>
    <g id="text_35">
     <!-- 0.9910 -->
     <g transform="translate(291.95025 60.441094)scale(0.13 -0.13)">
      <use xlink:href="#DejaVuSans-48"/>
      <use x="63.623047" xlink:href="#DejaVuSans-46"/>
      <use x="95.410156" xlink:href="#DejaVuSans-57"/>
      <use x="159.033203" xlink:href="#DejaVuSans-57"/>
      <use x="222.65625" xlink:href="#DejaVuSans-49"/>
      <use x="286.279297" xlink:href="#DejaVuSans-48"/>
     </g>
    </g>
    <g id="line2d_82"/>
    <g id="line2d_83"/>
    <g id="text_36">
     <!-- 0.9885 -->
     <g transform="translate(291.95025 79.522656)scale(0.13 -0.13)">
      <use xlink:href="#DejaVuSans-48"/>
      <use x="63.623047" xlink:href="#DejaVuSans-46"/>
      <use x="95.410156" xlink:href="#DejaVuSans-57"/>
      <use x="159.033203" xlink:href="#DejaVuSans-56"/>
      <use x="222.65625" xlink:href="#DejaVuSans-56"/>
      <use x="286.279297" xlink:href="#DejaVuSans-53"/>
     </g>
    </g>
    <g id="line2d_84"/>
    <g id="line2d_85"/>
    <g id="text_37">
     <!-- 0.9881 -->
     <g transform="translate(291.95025 98.604219)scale(0.13 -0.13)">
      <use xlink:href="#DejaVuSans-48"/>
      <use x="63.623047" xlink:href="#DejaVuSans-46"/>
      <use x="95.410156" xlink:href="#DejaVuSans-57"/>
      <use x="159.033203" xlink:href="#DejaVuSans-56"/>
      <use x="222.65625" xlink:href="#DejaVuSans-56"/>
      <use x="286.279297" xlink:href="#DejaVuSans-49"/>
     </g>
    </g>
    <g id="line2d_86">
     <path d="M 331.956219 17.727969 
L 357.956219 17.727969 
" style="fill:none;stroke:#ee7733;stroke-dasharray:0.5,0.825;stroke-dashoffset:0;stroke-width:0.5;"/>
    </g>
    <g id="line2d_87">
     <g>
      <use style="fill:#ee7733;stroke:#ee7733;stroke-linejoin:bevel;" x="344.956219" xlink:href="#m6c7ee5c7f8" y="17.727969"/>
     </g>
    </g>
    <g id="text_38">
     <!-- NOOB -->
     <g transform="translate(368.356219 22.277969)scale(0.13 -0.13)">
      <use xlink:href="#DejaVuSans-78"/>
      <use x="74.804688" xlink:href="#DejaVuSans-79"/>
      <use x="153.515625" xlink:href="#DejaVuSans-79"/>
      <use x="232.226562" xlink:href="#DejaVuSans-66"/>
     </g>
    </g>
    <g id="line2d_88"/>
    <g id="line2d_89"/>
    <g id="text_39">
     <!-- 0.9583 -->
     <g transform="translate(368.356219 41.359531)scale(0.13 -0.13)">
      <use xlink:href="#DejaVuSans-48"/>
      <use x="63.623047" xlink:href="#DejaVuSans-46"/>
      <use x="95.410156" xlink:href="#DejaVuSans-57"/>
      <use x="159.033203" xlink:href="#DejaVuSans-53"/>
      <use x="222.65625" xlink:href="#DejaVuSans-56"/>
      <use x="286.279297" xlink:href="#DejaVuSans-51"/>
     </g>
    </g>
    <g id="line2d_90"/>
    <g id="line2d_91"/>
    <g id="text_40">
     <!-- 0.9914 -->
     <g transform="translate(368.356219 60.441094)scale(0.13 -0.13)">
      <use xlink:href="#DejaVuSans-48"/>
      <use x="63.623047" xlink:href="#DejaVuSans-46"/>
      <use x="95.410156" xlink:href="#DejaVuSans-57"/>
      <use x="159.033203" xlink:href="#DejaVuSans-57"/>
      <use x="222.65625" xlink:href="#DejaVuSans-49"/>
      <use x="286.279297" xlink:href="#DejaVuSans-52"/>
     </g>
    </g>
    <g id="line2d_92"/>
    <g id="line2d_93"/>
    <g id="text_41">
     <!-- 0.9903 -->
     <g transform="translate(368.356219 79.522656)scale(0.13 -0.13)">
      <use xlink:href="#DejaVuSans-48"/>
      <use x="63.623047" xlink:href="#DejaVuSans-46"/>
      <use x="95.410156" xlink:href="#DejaVuSans-57"/>
      <use x="159.033203" xlink:href="#DejaVuSans-57"/>
      <use x="222.65625" xlink:href="#DejaVuSans-48"/>
      <use x="286.279297" xlink:href="#DejaVuSans-51"/>
     </g>
    </g>
    <g id="line2d_94"/>
    <g id="line2d_95"/>
    <g id="text_42">
     <!-- 0.9898 -->
     <g transform="translate(368.356219 98.604219)scale(0.13 -0.13)">
      <use xlink:href="#DejaVuSans-48"/>
      <use x="63.623047" xlink:href="#DejaVuSans-46"/>
      <use x="95.410156" xlink:href="#DejaVuSans-57"/>
      <use x="159.033203" xlink:href="#DejaVuSans-56"/>
      <use x="222.65625" xlink:href="#DejaVuSans-57"/>
      <use x="286.279297" xlink:href="#DejaVuSans-56"/>
     </g>
    </g>
    <g id="line2d_96">
     <path d="M 408.362188 17.727969 
L 434.362188 17.727969 
" style="fill:none;stroke:#ee3377;stroke-dasharray:3.2,0.8,0.5,0.8;stroke-dashoffset:0;stroke-width:0.5;"/>
    </g>
    <g id="line2d_97">
     <g>
      <use style="fill:#ee3377;stroke:#ee3377;stroke-linejoin:miter;" x="421.362188" xlink:href="#m51e143b074" y="17.727969"/>
     </g>
    </g>
    <g id="text_43">
     <!-- HNOB -->
     <g transform="translate(444.762188 22.277969)scale(0.13 -0.13)">
      <defs>
       <path d="M 9.8125 72.90625 
L 19.671875 72.90625 
L 19.671875 43.015625 
L 55.515625 43.015625 
L 55.515625 72.90625 
L 65.375 72.90625 
L 65.375 0 
L 55.515625 0 
L 55.515625 34.71875 
L 19.671875 34.71875 
L 19.671875 0 
L 9.8125 0 
z
" id="DejaVuSans-72"/>
      </defs>
      <use xlink:href="#DejaVuSans-72"/>
      <use x="75.195312" xlink:href="#DejaVuSans-78"/>
      <use x="150" xlink:href="#DejaVuSans-79"/>
      <use x="228.710938" xlink:href="#DejaVuSans-66"/>
     </g>
    </g>
    <g id="line2d_98"/>
    <g id="line2d_99"/>
    <g id="text_44">
     <!-- 0.9792 -->
     <g transform="translate(444.762188 41.359531)scale(0.13 -0.13)">
      <use xlink:href="#DejaVuSans-48"/>
      <use x="63.623047" xlink:href="#DejaVuSans-46"/>
      <use x="95.410156" xlink:href="#DejaVuSans-57"/>
      <use x="159.033203" xlink:href="#DejaVuSans-55"/>
      <use x="222.65625" xlink:href="#DejaVuSans-57"/>
      <use x="286.279297" xlink:href="#DejaVuSans-50"/>
     </g>
    </g>
    <g id="line2d_100"/>
    <g id="line2d_101"/>
    <g id="text_45">
     <!-- 0.9914 -->
     <g transform="translate(444.762188 60.441094)scale(0.13 -0.13)">
      <use xlink:href="#DejaVuSans-48"/>
      <use x="63.623047" xlink:href="#DejaVuSans-46"/>
      <use x="95.410156" xlink:href="#DejaVuSans-57"/>
      <use x="159.033203" xlink:href="#DejaVuSans-57"/>
      <use x="222.65625" xlink:href="#DejaVuSans-49"/>
      <use x="286.279297" xlink:href="#DejaVuSans-52"/>
     </g>
    </g>
    <g id="line2d_102"/>
    <g id="line2d_103"/>
    <g id="text_46">
     <!-- 0.9903 -->
     <g transform="translate(444.762188 79.522656)scale(0.13 -0.13)">
      <use xlink:href="#DejaVuSans-48"/>
      <use x="63.623047" xlink:href="#DejaVuSans-46"/>
      <use x="95.410156" xlink:href="#DejaVuSans-57"/>
      <use x="159.033203" xlink:href="#DejaVuSans-57"/>
      <use x="222.65625" xlink:href="#DejaVuSans-48"/>
      <use x="286.279297" xlink:href="#DejaVuSans-51"/>
     </g>
    </g>
    <g id="line2d_104"/>
    <g id="line2d_105"/>
    <g id="text_47">
     <!-- 0.9902 -->
     <g transform="translate(444.762188 98.604219)scale(0.13 -0.13)">
      <use xlink:href="#DejaVuSans-48"/>
      <use x="63.623047" xlink:href="#DejaVuSans-46"/>
      <use x="95.410156" xlink:href="#DejaVuSans-57"/>
      <use x="159.033203" xlink:href="#DejaVuSans-57"/>
      <use x="222.65625" xlink:href="#DejaVuSans-48"/>
      <use x="286.279297" xlink:href="#DejaVuSans-50"/>
     </g>
    </g>
   </g>
  </g>
 </g>
 <defs>
  <clipPath id="pdd45c839e7">
   <rect height="277.2" width="390.6" x="104.85" y="112.051812"/>
  </clipPath>
 </defs>
</svg>
