<?xml version="1.0" encoding="utf-8" standalone="no"?>
<!DOCTYPE svg PUBLIC "-//W3C//DTD SVG 1.1//EN"
  "http://www.w3.org/Graphics/SVG/1.1/DTD/svg11.dtd">
<!-- Created with matplotlib (https://matplotlib.org/) -->
<svg height="432.614937pt" version="1.1" viewBox="0 0 502.65 432.614937" width="502.65pt" xmlns="http://www.w3.org/2000/svg" xmlns:xlink="http://www.w3.org/1999/xlink">
 <metadata>
  <rdf:RDF xmlns:cc="http://creativecommons.org/ns#" xmlns:dc="http://purl.org/dc/elements/1.1/" xmlns:rdf="http://www.w3.org/1999/02/22-rdf-syntax-ns#">
   <cc:Work>
    <dc:type rdf:resource="http://purl.org/dc/dcmitype/StillImage"/>
    <dc:date>2022-05-31T17:38:14.448548</dc:date>
    <dc:format>image/svg+xml</dc:format>
    <dc:creator>
     <cc:Agent>
      <dc:title>Matplotlib v3.3.3, https://matplotlib.org/</dc:title>
     </cc:Agent>
    </dc:creator>
   </cc:Work>
  </rdf:RDF>
 </metadata>
 <defs>
  <style type="text/css">*{stroke-linecap:butt;stroke-linejoin:round;}</style>
 </defs>
 <g id="figure_1">
  <g id="patch_1">
   <path d="M 0 432.614937 
L 502.65 432.614937 
L 502.65 0 
L 0 0 
z
" style="fill:#ffffff;"/>
  </g>
  <g id="axes_1">
   <g id="patch_2">
    <path d="M 104.85 389.251812 
L 495.45 389.251812 
L 495.45 112.051812 
L 104.85 112.051812 
z
" style="fill:#ffffff;"/>
   </g>
   <g id="patch_3">
    <path clip-path="url(#pb1f0140740)" d="M 297.446262 389.251812 
L 297.446262 112.051812 
L 243.371504 112.051812 
L 243.371504 389.251812 
z
" style="fill:#d3d3d3;opacity:0.5;"/>
   </g>
   <g id="matplotlib.axis_1">
    <g id="xtick_1">
     <g id="line2d_1">
      <defs>
       <path d="M 0 0 
L 0 3.5 
" id="me0ff6aa2c7" style="stroke:#000000;stroke-width:0.8;"/>
      </defs>
      <g>
       <use style="stroke:#000000;stroke-width:0.8;" x="117.19707" xlink:href="#me0ff6aa2c7" y="389.251812"/>
      </g>
     </g>
     <g id="text_1">
      <!-- 0 -->
      <g transform="translate(113.061445 406.129781)scale(0.13 -0.13)">
       <defs>
        <path d="M 31.78125 66.40625 
Q 24.171875 66.40625 20.328125 58.90625 
Q 16.5 51.421875 16.5 36.375 
Q 16.5 21.390625 20.328125 13.890625 
Q 24.171875 6.390625 31.78125 6.390625 
Q 39.453125 6.390625 43.28125 13.890625 
Q 47.125 21.390625 47.125 36.375 
Q 47.125 51.421875 43.28125 58.90625 
Q 39.453125 66.40625 31.78125 66.40625 
z
M 31.78125 74.21875 
Q 44.046875 74.21875 50.515625 64.515625 
Q 56.984375 54.828125 56.984375 36.375 
Q 56.984375 17.96875 50.515625 8.265625 
Q 44.046875 -1.421875 31.78125 -1.421875 
Q 19.53125 -1.421875 13.0625 8.265625 
Q 6.59375 17.96875 6.59375 36.375 
Q 6.59375 54.828125 13.0625 64.515625 
Q 19.53125 74.21875 31.78125 74.21875 
z
" id="DejaVuSans-48"/>
       </defs>
       <use xlink:href="#DejaVuSans-48"/>
      </g>
     </g>
    </g>
    <g id="xtick_2">
     <g id="line2d_2">
      <g>
       <use style="stroke:#000000;stroke-width:0.8;" x="162.259368" xlink:href="#me0ff6aa2c7" y="389.251812"/>
      </g>
     </g>
     <g id="text_2">
      <!-- 25 -->
      <g transform="translate(153.988118 406.129781)scale(0.13 -0.13)">
       <defs>
        <path d="M 19.1875 8.296875 
L 53.609375 8.296875 
L 53.609375 0 
L 7.328125 0 
L 7.328125 8.296875 
Q 12.9375 14.109375 22.625 23.890625 
Q 32.328125 33.6875 34.8125 36.53125 
Q 39.546875 41.84375 41.421875 45.53125 
Q 43.3125 49.21875 43.3125 52.78125 
Q 43.3125 58.59375 39.234375 62.25 
Q 35.15625 65.921875 28.609375 65.921875 
Q 23.96875 65.921875 18.8125 64.3125 
Q 13.671875 62.703125 7.8125 59.421875 
L 7.8125 69.390625 
Q 13.765625 71.78125 18.9375 73 
Q 24.125 74.21875 28.421875 74.21875 
Q 39.75 74.21875 46.484375 68.546875 
Q 53.21875 62.890625 53.21875 53.421875 
Q 53.21875 48.921875 51.53125 44.890625 
Q 49.859375 40.875 45.40625 35.40625 
Q 44.1875 33.984375 37.640625 27.21875 
Q 31.109375 20.453125 19.1875 8.296875 
z
" id="DejaVuSans-50"/>
        <path d="M 10.796875 72.90625 
L 49.515625 72.90625 
L 49.515625 64.59375 
L 19.828125 64.59375 
L 19.828125 46.734375 
Q 21.96875 47.46875 24.109375 47.828125 
Q 26.265625 48.1875 28.421875 48.1875 
Q 40.625 48.1875 47.75 41.5 
Q 54.890625 34.8125 54.890625 23.390625 
Q 54.890625 11.625 47.5625 5.09375 
Q 40.234375 -1.421875 26.90625 -1.421875 
Q 22.3125 -1.421875 17.546875 -0.640625 
Q 12.796875 0.140625 7.71875 1.703125 
L 7.71875 11.625 
Q 12.109375 9.234375 16.796875 8.0625 
Q 21.484375 6.890625 26.703125 6.890625 
Q 35.15625 6.890625 40.078125 11.328125 
Q 45.015625 15.765625 45.015625 23.390625 
Q 45.015625 31 40.078125 35.4375 
Q 35.15625 39.890625 26.703125 39.890625 
Q 22.75 39.890625 18.8125 39.015625 
Q 14.890625 38.140625 10.796875 36.28125 
z
" id="DejaVuSans-53"/>
       </defs>
       <use xlink:href="#DejaVuSans-50"/>
       <use x="63.623047" xlink:href="#DejaVuSans-53"/>
      </g>
     </g>
    </g>
    <g id="xtick_3">
     <g id="line2d_3">
      <g>
       <use style="stroke:#000000;stroke-width:0.8;" x="207.321666" xlink:href="#me0ff6aa2c7" y="389.251812"/>
      </g>
     </g>
     <g id="text_3">
      <!-- 50 -->
      <g transform="translate(199.050416 406.129781)scale(0.13 -0.13)">
       <use xlink:href="#DejaVuSans-53"/>
       <use x="63.623047" xlink:href="#DejaVuSans-48"/>
      </g>
     </g>
    </g>
    <g id="xtick_4">
     <g id="line2d_4">
      <g>
       <use style="stroke:#000000;stroke-width:0.8;" x="252.383964" xlink:href="#me0ff6aa2c7" y="389.251812"/>
      </g>
     </g>
     <g id="text_4">
      <!-- 75 -->
      <g transform="translate(244.112714 406.129781)scale(0.13 -0.13)">
       <defs>
        <path d="M 8.203125 72.90625 
L 55.078125 72.90625 
L 55.078125 68.703125 
L 28.609375 0 
L 18.3125 0 
L 43.21875 64.59375 
L 8.203125 64.59375 
z
" id="DejaVuSans-55"/>
       </defs>
       <use xlink:href="#DejaVuSans-55"/>
       <use x="63.623047" xlink:href="#DejaVuSans-53"/>
      </g>
     </g>
    </g>
    <g id="xtick_5">
     <g id="line2d_5">
      <g>
       <use style="stroke:#000000;stroke-width:0.8;" x="297.446262" xlink:href="#me0ff6aa2c7" y="389.251812"/>
      </g>
     </g>
     <g id="text_5">
      <!-- 100 -->
      <g transform="translate(285.039387 406.129781)scale(0.13 -0.13)">
       <defs>
        <path d="M 12.40625 8.296875 
L 28.515625 8.296875 
L 28.515625 63.921875 
L 10.984375 60.40625 
L 10.984375 69.390625 
L 28.421875 72.90625 
L 38.28125 72.90625 
L 38.28125 8.296875 
L 54.390625 8.296875 
L 54.390625 0 
L 12.40625 0 
z
" id="DejaVuSans-49"/>
       </defs>
       <use xlink:href="#DejaVuSans-49"/>
       <use x="63.623047" xlink:href="#DejaVuSans-48"/>
       <use x="127.246094" xlink:href="#DejaVuSans-48"/>
      </g>
     </g>
    </g>
    <g id="xtick_6">
     <g id="line2d_6">
      <g>
       <use style="stroke:#000000;stroke-width:0.8;" x="342.50856" xlink:href="#me0ff6aa2c7" y="389.251812"/>
      </g>
     </g>
     <g id="text_6">
      <!-- 125 -->
      <g transform="translate(330.101685 406.129781)scale(0.13 -0.13)">
       <use xlink:href="#DejaVuSans-49"/>
       <use x="63.623047" xlink:href="#DejaVuSans-50"/>
       <use x="127.246094" xlink:href="#DejaVuSans-53"/>
      </g>
     </g>
    </g>
    <g id="xtick_7">
     <g id="line2d_7">
      <g>
       <use style="stroke:#000000;stroke-width:0.8;" x="387.570858" xlink:href="#me0ff6aa2c7" y="389.251812"/>
      </g>
     </g>
     <g id="text_7">
      <!-- 150 -->
      <g transform="translate(375.163983 406.129781)scale(0.13 -0.13)">
       <use xlink:href="#DejaVuSans-49"/>
       <use x="63.623047" xlink:href="#DejaVuSans-53"/>
       <use x="127.246094" xlink:href="#DejaVuSans-48"/>
      </g>
     </g>
    </g>
    <g id="xtick_8">
     <g id="line2d_8">
      <g>
       <use style="stroke:#000000;stroke-width:0.8;" x="432.633156" xlink:href="#me0ff6aa2c7" y="389.251812"/>
      </g>
     </g>
     <g id="text_8">
      <!-- 175 -->
      <g transform="translate(420.226281 406.129781)scale(0.13 -0.13)">
       <use xlink:href="#DejaVuSans-49"/>
       <use x="63.623047" xlink:href="#DejaVuSans-55"/>
       <use x="127.246094" xlink:href="#DejaVuSans-53"/>
      </g>
     </g>
    </g>
    <g id="xtick_9">
     <g id="line2d_9">
      <g>
       <use style="stroke:#000000;stroke-width:0.8;" x="477.695455" xlink:href="#me0ff6aa2c7" y="389.251812"/>
      </g>
     </g>
     <g id="text_9">
      <!-- 200 -->
      <g transform="translate(465.28858 406.129781)scale(0.13 -0.13)">
       <use xlink:href="#DejaVuSans-50"/>
       <use x="63.623047" xlink:href="#DejaVuSans-48"/>
       <use x="127.246094" xlink:href="#DejaVuSans-48"/>
      </g>
     </g>
    </g>
    <g id="text_10">
     <!-- Number of processed instances [x1000] -->
     <g transform="translate(170.025078 422.711344)scale(0.13 -0.13)">
      <defs>
       <path d="M 9.8125 72.90625 
L 23.09375 72.90625 
L 55.421875 11.921875 
L 55.421875 72.90625 
L 64.984375 72.90625 
L 64.984375 0 
L 51.703125 0 
L 19.390625 60.984375 
L 19.390625 0 
L 9.8125 0 
z
" id="DejaVuSans-78"/>
       <path d="M 8.5 21.578125 
L 8.5 54.6875 
L 17.484375 54.6875 
L 17.484375 21.921875 
Q 17.484375 14.15625 20.5 10.265625 
Q 23.53125 6.390625 29.59375 6.390625 
Q 36.859375 6.390625 41.078125 11.03125 
Q 45.3125 15.671875 45.3125 23.6875 
L 45.3125 54.6875 
L 54.296875 54.6875 
L 54.296875 0 
L 45.3125 0 
L 45.3125 8.40625 
Q 42.046875 3.421875 37.71875 1 
Q 33.40625 -1.421875 27.6875 -1.421875 
Q 18.265625 -1.421875 13.375 4.4375 
Q 8.5 10.296875 8.5 21.578125 
z
M 31.109375 56 
z
" id="DejaVuSans-117"/>
       <path d="M 52 44.1875 
Q 55.375 50.25 60.0625 53.125 
Q 64.75 56 71.09375 56 
Q 79.640625 56 84.28125 50.015625 
Q 88.921875 44.046875 88.921875 33.015625 
L 88.921875 0 
L 79.890625 0 
L 79.890625 32.71875 
Q 79.890625 40.578125 77.09375 44.375 
Q 74.3125 48.1875 68.609375 48.1875 
Q 61.625 48.1875 57.5625 43.546875 
Q 53.515625 38.921875 53.515625 30.90625 
L 53.515625 0 
L 44.484375 0 
L 44.484375 32.71875 
Q 44.484375 40.625 41.703125 44.40625 
Q 38.921875 48.1875 33.109375 48.1875 
Q 26.21875 48.1875 22.15625 43.53125 
Q 18.109375 38.875 18.109375 30.90625 
L 18.109375 0 
L 9.078125 0 
L 9.078125 54.6875 
L 18.109375 54.6875 
L 18.109375 46.1875 
Q 21.1875 51.21875 25.484375 53.609375 
Q 29.78125 56 35.6875 56 
Q 41.65625 56 45.828125 52.96875 
Q 50 49.953125 52 44.1875 
z
" id="DejaVuSans-109"/>
       <path d="M 48.6875 27.296875 
Q 48.6875 37.203125 44.609375 42.84375 
Q 40.53125 48.484375 33.40625 48.484375 
Q 26.265625 48.484375 22.1875 42.84375 
Q 18.109375 37.203125 18.109375 27.296875 
Q 18.109375 17.390625 22.1875 11.75 
Q 26.265625 6.109375 33.40625 6.109375 
Q 40.53125 6.109375 44.609375 11.75 
Q 48.6875 17.390625 48.6875 27.296875 
z
M 18.109375 46.390625 
Q 20.953125 51.265625 25.265625 53.625 
Q 29.59375 56 35.59375 56 
Q 45.5625 56 51.78125 48.09375 
Q 58.015625 40.1875 58.015625 27.296875 
Q 58.015625 14.40625 51.78125 6.484375 
Q 45.5625 -1.421875 35.59375 -1.421875 
Q 29.59375 -1.421875 25.265625 0.953125 
Q 20.953125 3.328125 18.109375 8.203125 
L 18.109375 0 
L 9.078125 0 
L 9.078125 75.984375 
L 18.109375 75.984375 
z
" id="DejaVuSans-98"/>
       <path d="M 56.203125 29.59375 
L 56.203125 25.203125 
L 14.890625 25.203125 
Q 15.484375 15.921875 20.484375 11.0625 
Q 25.484375 6.203125 34.421875 6.203125 
Q 39.59375 6.203125 44.453125 7.46875 
Q 49.3125 8.734375 54.109375 11.28125 
L 54.109375 2.78125 
Q 49.265625 0.734375 44.1875 -0.34375 
Q 39.109375 -1.421875 33.890625 -1.421875 
Q 20.796875 -1.421875 13.15625 6.1875 
Q 5.515625 13.8125 5.515625 26.8125 
Q 5.515625 40.234375 12.765625 48.109375 
Q 20.015625 56 32.328125 56 
Q 43.359375 56 49.78125 48.890625 
Q 56.203125 41.796875 56.203125 29.59375 
z
M 47.21875 32.234375 
Q 47.125 39.59375 43.09375 43.984375 
Q 39.0625 48.390625 32.421875 48.390625 
Q 24.90625 48.390625 20.390625 44.140625 
Q 15.875 39.890625 15.1875 32.171875 
z
" id="DejaVuSans-101"/>
       <path d="M 41.109375 46.296875 
Q 39.59375 47.171875 37.8125 47.578125 
Q 36.03125 48 33.890625 48 
Q 26.265625 48 22.1875 43.046875 
Q 18.109375 38.09375 18.109375 28.8125 
L 18.109375 0 
L 9.078125 0 
L 9.078125 54.6875 
L 18.109375 54.6875 
L 18.109375 46.1875 
Q 20.953125 51.171875 25.484375 53.578125 
Q 30.03125 56 36.53125 56 
Q 37.453125 56 38.578125 55.875 
Q 39.703125 55.765625 41.0625 55.515625 
z
" id="DejaVuSans-114"/>
       <path id="DejaVuSans-32"/>
       <path d="M 30.609375 48.390625 
Q 23.390625 48.390625 19.1875 42.75 
Q 14.984375 37.109375 14.984375 27.296875 
Q 14.984375 17.484375 19.15625 11.84375 
Q 23.34375 6.203125 30.609375 6.203125 
Q 37.796875 6.203125 41.984375 11.859375 
Q 46.1875 17.53125 46.1875 27.296875 
Q 46.1875 37.015625 41.984375 42.703125 
Q 37.796875 48.390625 30.609375 48.390625 
z
M 30.609375 56 
Q 42.328125 56 49.015625 48.375 
Q 55.71875 40.765625 55.71875 27.296875 
Q 55.71875 13.875 49.015625 6.21875 
Q 42.328125 -1.421875 30.609375 -1.421875 
Q 18.84375 -1.421875 12.171875 6.21875 
Q 5.515625 13.875 5.515625 27.296875 
Q 5.515625 40.765625 12.171875 48.375 
Q 18.84375 56 30.609375 56 
z
" id="DejaVuSans-111"/>
       <path d="M 37.109375 75.984375 
L 37.109375 68.5 
L 28.515625 68.5 
Q 23.6875 68.5 21.796875 66.546875 
Q 19.921875 64.59375 19.921875 59.515625 
L 19.921875 54.6875 
L 34.71875 54.6875 
L 34.71875 47.703125 
L 19.921875 47.703125 
L 19.921875 0 
L 10.890625 0 
L 10.890625 47.703125 
L 2.296875 47.703125 
L 2.296875 54.6875 
L 10.890625 54.6875 
L 10.890625 58.5 
Q 10.890625 67.625 15.140625 71.796875 
Q 19.390625 75.984375 28.609375 75.984375 
z
" id="DejaVuSans-102"/>
       <path d="M 18.109375 8.203125 
L 18.109375 -20.796875 
L 9.078125 -20.796875 
L 9.078125 54.6875 
L 18.109375 54.6875 
L 18.109375 46.390625 
Q 20.953125 51.265625 25.265625 53.625 
Q 29.59375 56 35.59375 56 
Q 45.5625 56 51.78125 48.09375 
Q 58.015625 40.1875 58.015625 27.296875 
Q 58.015625 14.40625 51.78125 6.484375 
Q 45.5625 -1.421875 35.59375 -1.421875 
Q 29.59375 -1.421875 25.265625 0.953125 
Q 20.953125 3.328125 18.109375 8.203125 
z
M 48.6875 27.296875 
Q 48.6875 37.203125 44.609375 42.84375 
Q 40.53125 48.484375 33.40625 48.484375 
Q 26.265625 48.484375 22.1875 42.84375 
Q 18.109375 37.203125 18.109375 27.296875 
Q 18.109375 17.390625 22.1875 11.75 
Q 26.265625 6.109375 33.40625 6.109375 
Q 40.53125 6.109375 44.609375 11.75 
Q 48.6875 17.390625 48.6875 27.296875 
z
" id="DejaVuSans-112"/>
       <path d="M 48.78125 52.59375 
L 48.78125 44.1875 
Q 44.96875 46.296875 41.140625 47.34375 
Q 37.3125 48.390625 33.40625 48.390625 
Q 24.65625 48.390625 19.8125 42.84375 
Q 14.984375 37.3125 14.984375 27.296875 
Q 14.984375 17.28125 19.8125 11.734375 
Q 24.65625 6.203125 33.40625 6.203125 
Q 37.3125 6.203125 41.140625 7.25 
Q 44.96875 8.296875 48.78125 10.40625 
L 48.78125 2.09375 
Q 45.015625 0.34375 40.984375 -0.53125 
Q 36.96875 -1.421875 32.421875 -1.421875 
Q 20.0625 -1.421875 12.78125 6.34375 
Q 5.515625 14.109375 5.515625 27.296875 
Q 5.515625 40.671875 12.859375 48.328125 
Q 20.21875 56 33.015625 56 
Q 37.15625 56 41.109375 55.140625 
Q 45.0625 54.296875 48.78125 52.59375 
z
" id="DejaVuSans-99"/>
       <path d="M 44.28125 53.078125 
L 44.28125 44.578125 
Q 40.484375 46.53125 36.375 47.5 
Q 32.28125 48.484375 27.875 48.484375 
Q 21.1875 48.484375 17.84375 46.4375 
Q 14.5 44.390625 14.5 40.28125 
Q 14.5 37.15625 16.890625 35.375 
Q 19.28125 33.59375 26.515625 31.984375 
L 29.59375 31.296875 
Q 39.15625 29.25 43.1875 25.515625 
Q 47.21875 21.78125 47.21875 15.09375 
Q 47.21875 7.46875 41.1875 3.015625 
Q 35.15625 -1.421875 24.609375 -1.421875 
Q 20.21875 -1.421875 15.453125 -0.5625 
Q 10.6875 0.296875 5.421875 2 
L 5.421875 11.28125 
Q 10.40625 8.6875 15.234375 7.390625 
Q 20.0625 6.109375 24.8125 6.109375 
Q 31.15625 6.109375 34.5625 8.28125 
Q 37.984375 10.453125 37.984375 14.40625 
Q 37.984375 18.0625 35.515625 20.015625 
Q 33.0625 21.96875 24.703125 23.78125 
L 21.578125 24.515625 
Q 13.234375 26.265625 9.515625 29.90625 
Q 5.8125 33.546875 5.8125 39.890625 
Q 5.8125 47.609375 11.28125 51.796875 
Q 16.75 56 26.8125 56 
Q 31.78125 56 36.171875 55.265625 
Q 40.578125 54.546875 44.28125 53.078125 
z
" id="DejaVuSans-115"/>
       <path d="M 45.40625 46.390625 
L 45.40625 75.984375 
L 54.390625 75.984375 
L 54.390625 0 
L 45.40625 0 
L 45.40625 8.203125 
Q 42.578125 3.328125 38.25 0.953125 
Q 33.9375 -1.421875 27.875 -1.421875 
Q 17.96875 -1.421875 11.734375 6.484375 
Q 5.515625 14.40625 5.515625 27.296875 
Q 5.515625 40.1875 11.734375 48.09375 
Q 17.96875 56 27.875 56 
Q 33.9375 56 38.25 53.625 
Q 42.578125 51.265625 45.40625 46.390625 
z
M 14.796875 27.296875 
Q 14.796875 17.390625 18.875 11.75 
Q 22.953125 6.109375 30.078125 6.109375 
Q 37.203125 6.109375 41.296875 11.75 
Q 45.40625 17.390625 45.40625 27.296875 
Q 45.40625 37.203125 41.296875 42.84375 
Q 37.203125 48.484375 30.078125 48.484375 
Q 22.953125 48.484375 18.875 42.84375 
Q 14.796875 37.203125 14.796875 27.296875 
z
" id="DejaVuSans-100"/>
       <path d="M 9.421875 54.6875 
L 18.40625 54.6875 
L 18.40625 0 
L 9.421875 0 
z
M 9.421875 75.984375 
L 18.40625 75.984375 
L 18.40625 64.59375 
L 9.421875 64.59375 
z
" id="DejaVuSans-105"/>
       <path d="M 54.890625 33.015625 
L 54.890625 0 
L 45.90625 0 
L 45.90625 32.71875 
Q 45.90625 40.484375 42.875 44.328125 
Q 39.84375 48.1875 33.796875 48.1875 
Q 26.515625 48.1875 22.3125 43.546875 
Q 18.109375 38.921875 18.109375 30.90625 
L 18.109375 0 
L 9.078125 0 
L 9.078125 54.6875 
L 18.109375 54.6875 
L 18.109375 46.1875 
Q 21.34375 51.125 25.703125 53.5625 
Q 30.078125 56 35.796875 56 
Q 45.21875 56 50.046875 50.171875 
Q 54.890625 44.34375 54.890625 33.015625 
z
" id="DejaVuSans-110"/>
       <path d="M 18.3125 70.21875 
L 18.3125 54.6875 
L 36.8125 54.6875 
L 36.8125 47.703125 
L 18.3125 47.703125 
L 18.3125 18.015625 
Q 18.3125 11.328125 20.140625 9.421875 
Q 21.96875 7.515625 27.59375 7.515625 
L 36.8125 7.515625 
L 36.8125 0 
L 27.59375 0 
Q 17.1875 0 13.234375 3.875 
Q 9.28125 7.765625 9.28125 18.015625 
L 9.28125 47.703125 
L 2.6875 47.703125 
L 2.6875 54.6875 
L 9.28125 54.6875 
L 9.28125 70.21875 
z
" id="DejaVuSans-116"/>
       <path d="M 34.28125 27.484375 
Q 23.390625 27.484375 19.1875 25 
Q 14.984375 22.515625 14.984375 16.5 
Q 14.984375 11.71875 18.140625 8.90625 
Q 21.296875 6.109375 26.703125 6.109375 
Q 34.1875 6.109375 38.703125 11.40625 
Q 43.21875 16.703125 43.21875 25.484375 
L 43.21875 27.484375 
z
M 52.203125 31.203125 
L 52.203125 0 
L 43.21875 0 
L 43.21875 8.296875 
Q 40.140625 3.328125 35.546875 0.953125 
Q 30.953125 -1.421875 24.3125 -1.421875 
Q 15.921875 -1.421875 10.953125 3.296875 
Q 6 8.015625 6 15.921875 
Q 6 25.140625 12.171875 29.828125 
Q 18.359375 34.515625 30.609375 34.515625 
L 43.21875 34.515625 
L 43.21875 35.40625 
Q 43.21875 41.609375 39.140625 45 
Q 35.0625 48.390625 27.6875 48.390625 
Q 23 48.390625 18.546875 47.265625 
Q 14.109375 46.140625 10.015625 43.890625 
L 10.015625 52.203125 
Q 14.9375 54.109375 19.578125 55.046875 
Q 24.21875 56 28.609375 56 
Q 40.484375 56 46.34375 49.84375 
Q 52.203125 43.703125 52.203125 31.203125 
z
" id="DejaVuSans-97"/>
       <path d="M 8.59375 75.984375 
L 29.296875 75.984375 
L 29.296875 69 
L 17.578125 69 
L 17.578125 -6.203125 
L 29.296875 -6.203125 
L 29.296875 -13.1875 
L 8.59375 -13.1875 
z
" id="DejaVuSans-91"/>
       <path d="M 54.890625 54.6875 
L 35.109375 28.078125 
L 55.90625 0 
L 45.3125 0 
L 29.390625 21.484375 
L 13.484375 0 
L 2.875 0 
L 24.125 28.609375 
L 4.6875 54.6875 
L 15.28125 54.6875 
L 29.78125 35.203125 
L 44.28125 54.6875 
z
" id="DejaVuSans-120"/>
       <path d="M 30.421875 75.984375 
L 30.421875 -13.1875 
L 9.71875 -13.1875 
L 9.71875 -6.203125 
L 21.390625 -6.203125 
L 21.390625 69 
L 9.71875 69 
L 9.71875 75.984375 
z
" id="DejaVuSans-93"/>
      </defs>
      <use xlink:href="#DejaVuSans-78"/>
      <use x="74.804688" xlink:href="#DejaVuSans-117"/>
      <use x="138.183594" xlink:href="#DejaVuSans-109"/>
      <use x="235.595703" xlink:href="#DejaVuSans-98"/>
      <use x="299.072266" xlink:href="#DejaVuSans-101"/>
      <use x="360.595703" xlink:href="#DejaVuSans-114"/>
      <use x="401.708984" xlink:href="#DejaVuSans-32"/>
      <use x="433.496094" xlink:href="#DejaVuSans-111"/>
      <use x="494.677734" xlink:href="#DejaVuSans-102"/>
      <use x="529.882812" xlink:href="#DejaVuSans-32"/>
      <use x="561.669922" xlink:href="#DejaVuSans-112"/>
      <use x="625.146484" xlink:href="#DejaVuSans-114"/>
      <use x="664.009766" xlink:href="#DejaVuSans-111"/>
      <use x="725.191406" xlink:href="#DejaVuSans-99"/>
      <use x="780.171875" xlink:href="#DejaVuSans-101"/>
      <use x="841.695312" xlink:href="#DejaVuSans-115"/>
      <use x="893.794922" xlink:href="#DejaVuSans-115"/>
      <use x="945.894531" xlink:href="#DejaVuSans-101"/>
      <use x="1007.417969" xlink:href="#DejaVuSans-100"/>
      <use x="1070.894531" xlink:href="#DejaVuSans-32"/>
      <use x="1102.681641" xlink:href="#DejaVuSans-105"/>
      <use x="1130.464844" xlink:href="#DejaVuSans-110"/>
      <use x="1193.84375" xlink:href="#DejaVuSans-115"/>
      <use x="1245.943359" xlink:href="#DejaVuSans-116"/>
      <use x="1285.152344" xlink:href="#DejaVuSans-97"/>
      <use x="1346.431641" xlink:href="#DejaVuSans-110"/>
      <use x="1409.810547" xlink:href="#DejaVuSans-99"/>
      <use x="1464.791016" xlink:href="#DejaVuSans-101"/>
      <use x="1526.314453" xlink:href="#DejaVuSans-115"/>
      <use x="1578.414062" xlink:href="#DejaVuSans-32"/>
      <use x="1610.201172" xlink:href="#DejaVuSans-91"/>
      <use x="1649.214844" xlink:href="#DejaVuSans-120"/>
      <use x="1708.394531" xlink:href="#DejaVuSans-49"/>
      <use x="1772.017578" xlink:href="#DejaVuSans-48"/>
      <use x="1835.640625" xlink:href="#DejaVuSans-48"/>
      <use x="1899.263672" xlink:href="#DejaVuSans-48"/>
      <use x="1962.886719" xlink:href="#DejaVuSans-93"/>
     </g>
    </g>
   </g>
   <g id="matplotlib.axis_2">
    <g id="ytick_1">
     <g id="line2d_10">
      <defs>
       <path d="M 0 0 
L -3.5 0 
" id="mbec11edece" style="stroke:#000000;stroke-width:0.8;"/>
      </defs>
      <g>
       <use style="stroke:#000000;stroke-width:0.8;" x="104.85" xlink:href="#mbec11edece" y="375.759498"/>
      </g>
     </g>
     <g id="text_11">
      <!-- 0.5 -->
      <g transform="translate(77.175937 380.698483)scale(0.13 -0.13)">
       <defs>
        <path d="M 10.6875 12.40625 
L 21 12.40625 
L 21 0 
L 10.6875 0 
z
" id="DejaVuSans-46"/>
       </defs>
       <use xlink:href="#DejaVuSans-48"/>
       <use x="63.623047" xlink:href="#DejaVuSans-46"/>
       <use x="95.410156" xlink:href="#DejaVuSans-53"/>
      </g>
     </g>
    </g>
    <g id="ytick_2">
     <g id="line2d_11">
      <g>
       <use style="stroke:#000000;stroke-width:0.8;" x="104.85" xlink:href="#mbec11edece" y="325.063457"/>
      </g>
     </g>
     <g id="text_12">
      <!-- 0.6 -->
      <g transform="translate(77.175937 330.002441)scale(0.13 -0.13)">
       <defs>
        <path d="M 33.015625 40.375 
Q 26.375 40.375 22.484375 35.828125 
Q 18.609375 31.296875 18.609375 23.390625 
Q 18.609375 15.53125 22.484375 10.953125 
Q 26.375 6.390625 33.015625 6.390625 
Q 39.65625 6.390625 43.53125 10.953125 
Q 47.40625 15.53125 47.40625 23.390625 
Q 47.40625 31.296875 43.53125 35.828125 
Q 39.65625 40.375 33.015625 40.375 
z
M 52.59375 71.296875 
L 52.59375 62.3125 
Q 48.875 64.0625 45.09375 64.984375 
Q 41.3125 65.921875 37.59375 65.921875 
Q 27.828125 65.921875 22.671875 59.328125 
Q 17.53125 52.734375 16.796875 39.40625 
Q 19.671875 43.65625 24.015625 45.921875 
Q 28.375 48.1875 33.59375 48.1875 
Q 44.578125 48.1875 50.953125 41.515625 
Q 57.328125 34.859375 57.328125 23.390625 
Q 57.328125 12.15625 50.6875 5.359375 
Q 44.046875 -1.421875 33.015625 -1.421875 
Q 20.359375 -1.421875 13.671875 8.265625 
Q 6.984375 17.96875 6.984375 36.375 
Q 6.984375 53.65625 15.1875 63.9375 
Q 23.390625 74.21875 37.203125 74.21875 
Q 40.921875 74.21875 44.703125 73.484375 
Q 48.484375 72.75 52.59375 71.296875 
z
" id="DejaVuSans-54"/>
       </defs>
       <use xlink:href="#DejaVuSans-48"/>
       <use x="63.623047" xlink:href="#DejaVuSans-46"/>
       <use x="95.410156" xlink:href="#DejaVuSans-54"/>
      </g>
     </g>
    </g>
    <g id="ytick_3">
     <g id="line2d_12">
      <g>
       <use style="stroke:#000000;stroke-width:0.8;" x="104.85" xlink:href="#mbec11edece" y="274.367416"/>
      </g>
     </g>
     <g id="text_13">
      <!-- 0.7 -->
      <g transform="translate(77.175937 279.3064)scale(0.13 -0.13)">
       <use xlink:href="#DejaVuSans-48"/>
       <use x="63.623047" xlink:href="#DejaVuSans-46"/>
       <use x="95.410156" xlink:href="#DejaVuSans-55"/>
      </g>
     </g>
    </g>
    <g id="ytick_4">
     <g id="line2d_13">
      <g>
       <use style="stroke:#000000;stroke-width:0.8;" x="104.85" xlink:href="#mbec11edece" y="223.671375"/>
      </g>
     </g>
     <g id="text_14">
      <!-- 0.8 -->
      <g transform="translate(77.175937 228.610359)scale(0.13 -0.13)">
       <defs>
        <path d="M 31.78125 34.625 
Q 24.75 34.625 20.71875 30.859375 
Q 16.703125 27.09375 16.703125 20.515625 
Q 16.703125 13.921875 20.71875 10.15625 
Q 24.75 6.390625 31.78125 6.390625 
Q 38.8125 6.390625 42.859375 10.171875 
Q 46.921875 13.96875 46.921875 20.515625 
Q 46.921875 27.09375 42.890625 30.859375 
Q 38.875 34.625 31.78125 34.625 
z
M 21.921875 38.8125 
Q 15.578125 40.375 12.03125 44.71875 
Q 8.5 49.078125 8.5 55.328125 
Q 8.5 64.0625 14.71875 69.140625 
Q 20.953125 74.21875 31.78125 74.21875 
Q 42.671875 74.21875 48.875 69.140625 
Q 55.078125 64.0625 55.078125 55.328125 
Q 55.078125 49.078125 51.53125 44.71875 
Q 48 40.375 41.703125 38.8125 
Q 48.828125 37.15625 52.796875 32.3125 
Q 56.78125 27.484375 56.78125 20.515625 
Q 56.78125 9.90625 50.3125 4.234375 
Q 43.84375 -1.421875 31.78125 -1.421875 
Q 19.734375 -1.421875 13.25 4.234375 
Q 6.78125 9.90625 6.78125 20.515625 
Q 6.78125 27.484375 10.78125 32.3125 
Q 14.796875 37.15625 21.921875 38.8125 
z
M 18.3125 54.390625 
Q 18.3125 48.734375 21.84375 45.5625 
Q 25.390625 42.390625 31.78125 42.390625 
Q 38.140625 42.390625 41.71875 45.5625 
Q 45.3125 48.734375 45.3125 54.390625 
Q 45.3125 60.0625 41.71875 63.234375 
Q 38.140625 66.40625 31.78125 66.40625 
Q 25.390625 66.40625 21.84375 63.234375 
Q 18.3125 60.0625 18.3125 54.390625 
z
" id="DejaVuSans-56"/>
       </defs>
       <use xlink:href="#DejaVuSans-48"/>
       <use x="63.623047" xlink:href="#DejaVuSans-46"/>
       <use x="95.410156" xlink:href="#DejaVuSans-56"/>
      </g>
     </g>
    </g>
    <g id="ytick_5">
     <g id="line2d_14">
      <g>
       <use style="stroke:#000000;stroke-width:0.8;" x="104.85" xlink:href="#mbec11edece" y="172.975334"/>
      </g>
     </g>
     <g id="text_15">
      <!-- 0.9 -->
      <g transform="translate(77.175937 177.914318)scale(0.13 -0.13)">
       <defs>
        <path d="M 10.984375 1.515625 
L 10.984375 10.5 
Q 14.703125 8.734375 18.5 7.8125 
Q 22.3125 6.890625 25.984375 6.890625 
Q 35.75 6.890625 40.890625 13.453125 
Q 46.046875 20.015625 46.78125 33.40625 
Q 43.953125 29.203125 39.59375 26.953125 
Q 35.25 24.703125 29.984375 24.703125 
Q 19.046875 24.703125 12.671875 31.3125 
Q 6.296875 37.9375 6.296875 49.421875 
Q 6.296875 60.640625 12.9375 67.421875 
Q 19.578125 74.21875 30.609375 74.21875 
Q 43.265625 74.21875 49.921875 64.515625 
Q 56.59375 54.828125 56.59375 36.375 
Q 56.59375 19.140625 48.40625 8.859375 
Q 40.234375 -1.421875 26.421875 -1.421875 
Q 22.703125 -1.421875 18.890625 -0.6875 
Q 15.09375 0.046875 10.984375 1.515625 
z
M 30.609375 32.421875 
Q 37.25 32.421875 41.125 36.953125 
Q 45.015625 41.5 45.015625 49.421875 
Q 45.015625 57.28125 41.125 61.84375 
Q 37.25 66.40625 30.609375 66.40625 
Q 23.96875 66.40625 20.09375 61.84375 
Q 16.21875 57.28125 16.21875 49.421875 
Q 16.21875 41.5 20.09375 36.953125 
Q 23.96875 32.421875 30.609375 32.421875 
z
" id="DejaVuSans-57"/>
       </defs>
       <use xlink:href="#DejaVuSans-48"/>
       <use x="63.623047" xlink:href="#DejaVuSans-46"/>
       <use x="95.410156" xlink:href="#DejaVuSans-57"/>
      </g>
     </g>
    </g>
    <g id="ytick_6">
     <g id="line2d_15">
      <g>
       <use style="stroke:#000000;stroke-width:0.8;" x="104.85" xlink:href="#mbec11edece" y="122.279292"/>
      </g>
     </g>
     <g id="text_16">
      <!-- 1.0 -->
      <g transform="translate(77.175937 127.218277)scale(0.13 -0.13)">
       <use xlink:href="#DejaVuSans-49"/>
       <use x="63.623047" xlink:href="#DejaVuSans-46"/>
       <use x="95.410156" xlink:href="#DejaVuSans-48"/>
      </g>
     </g>
    </g>
    <g id="text_17">
     <!-- G-Mean -->
     <g transform="translate(70.472344 275.743844)rotate(-90)scale(0.13 -0.13)">
      <defs>
       <path d="M 59.515625 10.40625 
L 59.515625 29.984375 
L 43.40625 29.984375 
L 43.40625 38.09375 
L 69.28125 38.09375 
L 69.28125 6.78125 
Q 63.578125 2.734375 56.6875 0.65625 
Q 49.8125 -1.421875 42 -1.421875 
Q 24.90625 -1.421875 15.25 8.5625 
Q 5.609375 18.5625 5.609375 36.375 
Q 5.609375 54.25 15.25 64.234375 
Q 24.90625 74.21875 42 74.21875 
Q 49.125 74.21875 55.546875 72.453125 
Q 61.96875 70.703125 67.390625 67.28125 
L 67.390625 56.78125 
Q 61.921875 61.421875 55.765625 63.765625 
Q 49.609375 66.109375 42.828125 66.109375 
Q 29.4375 66.109375 22.71875 58.640625 
Q 16.015625 51.171875 16.015625 36.375 
Q 16.015625 21.625 22.71875 14.15625 
Q 29.4375 6.6875 42.828125 6.6875 
Q 48.046875 6.6875 52.140625 7.59375 
Q 56.25 8.5 59.515625 10.40625 
z
" id="DejaVuSans-71"/>
       <path d="M 4.890625 31.390625 
L 31.203125 31.390625 
L 31.203125 23.390625 
L 4.890625 23.390625 
z
" id="DejaVuSans-45"/>
       <path d="M 9.8125 72.90625 
L 24.515625 72.90625 
L 43.109375 23.296875 
L 61.8125 72.90625 
L 76.515625 72.90625 
L 76.515625 0 
L 66.890625 0 
L 66.890625 64.015625 
L 48.09375 14.015625 
L 38.1875 14.015625 
L 19.390625 64.015625 
L 19.390625 0 
L 9.8125 0 
z
" id="DejaVuSans-77"/>
      </defs>
      <use xlink:href="#DejaVuSans-71"/>
      <use x="77.490234" xlink:href="#DejaVuSans-45"/>
      <use x="113.574219" xlink:href="#DejaVuSans-77"/>
      <use x="199.853516" xlink:href="#DejaVuSans-101"/>
      <use x="261.376953" xlink:href="#DejaVuSans-97"/>
      <use x="322.65625" xlink:href="#DejaVuSans-110"/>
     </g>
    </g>
   </g>
   <g id="line2d_16"/>
   <g id="line2d_17"/>
   <g id="line2d_18"/>
   <g id="line2d_19"/>
   <g id="line2d_20"/>
   <g id="line2d_21">
    <path clip-path="url(#pb1f0140740)" d="M 122.604545 190.860813 
L 124.407037 329.973787 
L 126.209529 310.358138 
L 129.814513 278.64327 
L 131.617005 274.705053 
L 133.419497 256.335238 
L 135.221989 247.14582 
L 137.024481 238.752398 
L 138.826973 234.633022 
L 140.629465 229.326272 
L 142.431957 223.322853 
L 144.234449 218.105706 
L 146.03694 211.33397 
L 147.839432 209.954499 
L 149.641924 204.474799 
L 153.246908 199.950433 
L 155.0494 199.072619 
L 156.851892 195.258492 
L 158.654384 191.867658 
L 160.456876 176.770779 
L 164.06186 164.348868 
L 165.864352 160.757492 
L 167.666844 155.212182 
L 169.469335 154.045792 
L 171.271827 154.023211 
L 173.074319 151.569717 
L 174.876811 152.478093 
L 176.679303 151.104198 
L 178.481795 149.353901 
L 180.284287 148.699638 
L 182.086779 150.122339 
L 183.889271 148.596341 
L 185.691763 148.609133 
L 187.494255 146.365639 
L 189.296747 148.429737 
L 191.099239 150.052446 
L 192.901731 153.445128 
L 194.704222 155.169165 
L 196.506714 155.357138 
L 198.309206 154.178571 
L 200.111698 154.204292 
L 203.716682 152.098583 
L 205.519174 155.491251 
L 207.321666 155.502746 
L 209.124158 156.718508 
L 210.92665 155.050614 
L 212.729142 155.641325 
L 214.531634 157.338275 
L 216.334126 156.382661 
L 218.136617 156.233935 
L 219.939109 155.445516 
L 221.741601 156.882401 
L 223.544093 157.829244 
L 225.346585 159.179773 
L 227.149077 154.545826 
L 228.951569 153.067076 
L 230.754061 151.355748 
L 232.556553 150.573352 
L 234.359045 151.885078 
L 236.161537 151.897709 
L 237.964029 152.852907 
L 239.766521 152.840146 
L 241.569012 149.460257 
L 243.371504 146.482749 
L 245.173996 147.309378 
L 246.976488 144.875092 
L 248.77898 143.695136 
L 250.581472 143.082024 
L 252.383964 143.830427 
L 255.988948 142.49459 
L 257.79144 141.60967 
L 259.593932 141.16332 
L 261.396424 136.260913 
L 263.198916 136.581078 
L 265.001407 135.095646 
L 266.803899 135.363381 
L 268.606391 133.833314 
L 270.408883 132.808499 
L 272.211375 132.998982 
L 274.013867 132.387911 
L 277.618851 132.907859 
L 279.421343 133.070882 
L 281.223835 131.131749 
L 283.026327 130.759349 
L 284.828819 130.538598 
L 286.631311 129.761297 
L 288.433802 129.110312 
L 290.236294 128.656923 
L 292.038786 128.468992 
L 295.64377 127.662206 
L 299.248754 127.240802 
L 302.853738 126.903515 
L 306.458722 126.996047 
L 308.261214 127.641328 
L 310.063706 127.332289 
L 311.866198 127.487684 
L 313.668689 127.405069 
L 315.471181 127.530475 
L 319.076165 127.385404 
L 320.878657 127.09189 
L 331.693609 127.082468 
L 333.496101 126.941073 
L 335.298593 127.04483 
L 340.706068 126.838886 
L 342.50856 126.635182 
L 344.311052 125.943193 
L 346.113544 125.856533 
L 347.916036 126.013968 
L 355.126004 126.165896 
L 358.730988 125.852726 
L 362.335971 126.255579 
L 364.138463 126.056378 
L 369.545939 125.979748 
L 373.150923 125.662756 
L 374.953415 125.66397 
L 376.755907 125.822869 
L 380.360891 125.558347 
L 382.163383 125.668317 
L 383.965874 125.0834 
L 385.768366 125.096582 
L 387.570858 124.965681 
L 391.175842 125.022015 
L 392.978334 125.195102 
L 398.38581 124.763439 
L 403.793286 124.802432 
L 405.595778 125.120735 
L 407.398269 125.241585 
L 409.200761 125.974233 
L 411.003253 125.804032 
L 412.805745 125.772812 
L 414.608237 125.887163 
L 418.213221 125.833972 
L 423.620697 126.377756 
L 425.423189 126.7866 
L 427.225681 126.647626 
L 429.028173 126.724433 
L 430.830665 127.088997 
L 432.633156 127.262349 
L 434.435648 127.126773 
L 438.040632 127.132296 
L 439.843124 126.941826 
L 441.645616 126.63747 
L 443.448108 126.659691 
L 445.2506 125.940714 
L 447.053092 126.20669 
L 448.855584 126.330901 
L 450.658076 126.202801 
L 454.26306 126.686946 
L 457.868043 126.513005 
L 459.670535 126.213198 
L 461.473027 126.042903 
L 465.078011 126.01649 
L 468.682995 125.608201 
L 470.485487 125.796521 
L 472.287979 125.808325 
L 477.695455 126.575542 
L 477.695455 126.575542 
" style="fill:none;stroke:#cc3311;stroke-linecap:square;stroke-width:0.5;"/>
    <defs>
     <path d="M 0 2.5 
C 0.663008 2.5 1.29895 2.236584 1.767767 1.767767 
C 2.236584 1.29895 2.5 0.663008 2.5 0 
C 2.5 -0.663008 2.236584 -1.29895 1.767767 -1.767767 
C 1.29895 -2.236584 0.663008 -2.5 0 -2.5 
C -0.663008 -2.5 -1.29895 -2.236584 -1.767767 -1.767767 
C -2.236584 -1.29895 -2.5 -0.663008 -2.5 0 
C -2.5 0.663008 -2.236584 1.29895 -1.767767 1.767767 
C -1.29895 2.236584 -0.663008 2.5 0 2.5 
z
" id="m12e3017d81" style="stroke:#cc3311;"/>
    </defs>
    <g clip-path="url(#pb1f0140740)">
     <use style="fill:#cc3311;stroke:#cc3311;" x="122.604545" xlink:href="#m12e3017d81" y="190.860813"/>
     <use style="fill:#cc3311;stroke:#cc3311;" x="140.629465" xlink:href="#m12e3017d81" y="229.326272"/>
     <use style="fill:#cc3311;stroke:#cc3311;" x="158.654384" xlink:href="#m12e3017d81" y="191.867658"/>
     <use style="fill:#cc3311;stroke:#cc3311;" x="176.679303" xlink:href="#m12e3017d81" y="151.104198"/>
     <use style="fill:#cc3311;stroke:#cc3311;" x="194.704222" xlink:href="#m12e3017d81" y="155.169165"/>
     <use style="fill:#cc3311;stroke:#cc3311;" x="212.729142" xlink:href="#m12e3017d81" y="155.641325"/>
     <use style="fill:#cc3311;stroke:#cc3311;" x="230.754061" xlink:href="#m12e3017d81" y="151.355748"/>
     <use style="fill:#cc3311;stroke:#cc3311;" x="248.77898" xlink:href="#m12e3017d81" y="143.695136"/>
     <use style="fill:#cc3311;stroke:#cc3311;" x="266.803899" xlink:href="#m12e3017d81" y="135.363381"/>
     <use style="fill:#cc3311;stroke:#cc3311;" x="284.828819" xlink:href="#m12e3017d81" y="130.538598"/>
     <use style="fill:#cc3311;stroke:#cc3311;" x="302.853738" xlink:href="#m12e3017d81" y="126.903515"/>
     <use style="fill:#cc3311;stroke:#cc3311;" x="320.878657" xlink:href="#m12e3017d81" y="127.09189"/>
     <use style="fill:#cc3311;stroke:#cc3311;" x="338.903576" xlink:href="#m12e3017d81" y="126.978197"/>
     <use style="fill:#cc3311;stroke:#cc3311;" x="356.928496" xlink:href="#m12e3017d81" y="125.958153"/>
     <use style="fill:#cc3311;stroke:#cc3311;" x="374.953415" xlink:href="#m12e3017d81" y="125.66397"/>
     <use style="fill:#cc3311;stroke:#cc3311;" x="392.978334" xlink:href="#m12e3017d81" y="125.195102"/>
     <use style="fill:#cc3311;stroke:#cc3311;" x="411.003253" xlink:href="#m12e3017d81" y="125.804032"/>
     <use style="fill:#cc3311;stroke:#cc3311;" x="429.028173" xlink:href="#m12e3017d81" y="126.724433"/>
     <use style="fill:#cc3311;stroke:#cc3311;" x="447.053092" xlink:href="#m12e3017d81" y="126.20669"/>
     <use style="fill:#cc3311;stroke:#cc3311;" x="465.078011" xlink:href="#m12e3017d81" y="126.01649"/>
    </g>
   </g>
   <g id="line2d_22"/>
   <g id="line2d_23"/>
   <g id="line2d_24"/>
   <g id="line2d_25"/>
   <g id="line2d_26">
    <path clip-path="url(#pb1f0140740)" d="M 122.604545 125.086545 
L 124.407037 125.481585 
L 126.209529 134.223575 
L 128.012021 131.685012 
L 131.617005 129.619962 
L 133.419497 128.864803 
L 135.221989 128.297915 
L 137.024481 128.029288 
L 138.826973 127.995405 
L 142.431957 127.450077 
L 156.851892 126.612358 
L 160.456876 126.75317 
L 162.259368 125.436005 
L 164.06186 125.48715 
L 167.666844 125.410414 
L 173.074319 125.306551 
L 176.679303 125.241451 
L 178.481795 125.253339 
L 180.284287 126.092435 
L 183.889271 125.963983 
L 185.691763 126.015578 
L 187.494255 125.900849 
L 189.296747 127.77076 
L 192.901731 127.83586 
L 194.704222 127.811778 
L 196.506714 128.782751 
L 203.716682 128.782861 
L 207.321666 128.938592 
L 210.92665 131.516145 
L 214.531634 131.541614 
L 216.334126 132.315172 
L 221.741601 132.355799 
L 223.544093 133.38784 
L 225.346585 133.170029 
L 230.754061 133.193229 
L 232.556553 132.093956 
L 234.359045 133.388056 
L 241.569012 133.38663 
L 243.371504 133.385582 
L 245.173996 132.24334 
L 246.976488 130.909175 
L 248.77898 130.877655 
L 250.581472 131.007318 
L 252.383964 129.628908 
L 257.79144 130.00076 
L 259.593932 129.289367 
L 261.396424 127.780755 
L 263.198916 127.79239 
L 266.803899 128.155636 
L 268.606391 128.14226 
L 270.408883 126.861206 
L 274.013867 127.08301 
L 275.816359 127.40696 
L 283.026327 127.327181 
L 284.828819 127.609667 
L 288.433802 127.435202 
L 290.236294 127.290132 
L 293.841278 127.321996 
L 297.446262 127.020328 
L 299.248754 127.14731 
L 302.853738 127.070386 
L 306.458722 127.522827 
L 308.261214 128.513466 
L 311.866198 128.340711 
L 317.273673 128.625689 
L 319.076165 128.567518 
L 320.878657 128.395147 
L 322.681149 128.447039 
L 324.483641 128.348837 
L 326.286133 128.481145 
L 328.088625 128.349236 
L 329.891117 128.102276 
L 331.693609 128.117113 
L 338.903576 127.624055 
L 342.50856 126.987559 
L 344.311052 125.954488 
L 346.113544 125.923797 
L 347.916036 126.368129 
L 351.52102 126.0118 
L 356.928496 126.120717 
L 358.730988 125.931953 
L 371.348431 125.757321 
L 373.150923 125.615301 
L 376.755907 125.888018 
L 378.558399 125.958144 
L 380.360891 125.833238 
L 382.163383 125.839004 
L 383.965874 125.077188 
L 385.768366 125.132804 
L 387.570858 125.309835 
L 389.37335 125.247488 
L 392.978334 125.30403 
L 394.780826 125.246169 
L 400.188302 125.410305 
L 401.990794 125.28449 
L 403.793286 125.362812 
L 405.595778 125.639085 
L 407.398269 125.745725 
L 409.200761 126.29166 
L 411.003253 126.108649 
L 416.410729 126.121893 
L 418.213221 126.082359 
L 420.015713 126.355686 
L 423.620697 126.352919 
L 425.423189 126.69547 
L 427.225681 126.614963 
L 429.028173 126.747742 
L 430.830665 127.125938 
L 436.23814 127.182523 
L 438.040632 127.372993 
L 441.645616 126.8639 
L 443.448108 126.886014 
L 445.2506 126.296305 
L 447.053092 126.463845 
L 448.855584 126.384718 
L 454.26306 126.699349 
L 457.868043 126.204355 
L 461.473027 126.226396 
L 465.078011 125.933937 
L 466.880503 125.641519 
L 468.682995 125.474777 
L 475.892963 125.674962 
L 477.695455 125.973413 
L 477.695455 125.973413 
" style="fill:none;stroke:#009988;stroke-dasharray:1.85,0.8;stroke-dashoffset:0;stroke-width:0.5;"/>
    <defs>
     <path d="M -2.5 2.5 
L 2.5 2.5 
L 2.5 -2.5 
L -2.5 -2.5 
z
" id="m1061e3f764" style="stroke:#009988;stroke-linejoin:miter;"/>
    </defs>
    <g clip-path="url(#pb1f0140740)">
     <use style="fill:#009988;stroke:#009988;stroke-linejoin:miter;" x="122.604545" xlink:href="#m1061e3f764" y="125.086545"/>
     <use style="fill:#009988;stroke:#009988;stroke-linejoin:miter;" x="140.629465" xlink:href="#m1061e3f764" y="127.709114"/>
     <use style="fill:#009988;stroke:#009988;stroke-linejoin:miter;" x="158.654384" xlink:href="#m1061e3f764" y="126.650955"/>
     <use style="fill:#009988;stroke:#009988;stroke-linejoin:miter;" x="176.679303" xlink:href="#m1061e3f764" y="125.241451"/>
     <use style="fill:#009988;stroke:#009988;stroke-linejoin:miter;" x="194.704222" xlink:href="#m1061e3f764" y="127.811778"/>
     <use style="fill:#009988;stroke:#009988;stroke-linejoin:miter;" x="212.729142" xlink:href="#m1061e3f764" y="131.502932"/>
     <use style="fill:#009988;stroke:#009988;stroke-linejoin:miter;" x="230.754061" xlink:href="#m1061e3f764" y="133.193229"/>
     <use style="fill:#009988;stroke:#009988;stroke-linejoin:miter;" x="248.77898" xlink:href="#m1061e3f764" y="130.877655"/>
     <use style="fill:#009988;stroke:#009988;stroke-linejoin:miter;" x="266.803899" xlink:href="#m1061e3f764" y="128.155636"/>
     <use style="fill:#009988;stroke:#009988;stroke-linejoin:miter;" x="284.828819" xlink:href="#m1061e3f764" y="127.609667"/>
     <use style="fill:#009988;stroke:#009988;stroke-linejoin:miter;" x="302.853738" xlink:href="#m1061e3f764" y="127.070386"/>
     <use style="fill:#009988;stroke:#009988;stroke-linejoin:miter;" x="320.878657" xlink:href="#m1061e3f764" y="128.395147"/>
     <use style="fill:#009988;stroke:#009988;stroke-linejoin:miter;" x="338.903576" xlink:href="#m1061e3f764" y="127.624055"/>
     <use style="fill:#009988;stroke:#009988;stroke-linejoin:miter;" x="356.928496" xlink:href="#m1061e3f764" y="126.120717"/>
     <use style="fill:#009988;stroke:#009988;stroke-linejoin:miter;" x="374.953415" xlink:href="#m1061e3f764" y="125.770369"/>
     <use style="fill:#009988;stroke:#009988;stroke-linejoin:miter;" x="392.978334" xlink:href="#m1061e3f764" y="125.30403"/>
     <use style="fill:#009988;stroke:#009988;stroke-linejoin:miter;" x="411.003253" xlink:href="#m1061e3f764" y="126.108649"/>
     <use style="fill:#009988;stroke:#009988;stroke-linejoin:miter;" x="429.028173" xlink:href="#m1061e3f764" y="126.747742"/>
     <use style="fill:#009988;stroke:#009988;stroke-linejoin:miter;" x="447.053092" xlink:href="#m1061e3f764" y="126.463845"/>
     <use style="fill:#009988;stroke:#009988;stroke-linejoin:miter;" x="465.078011" xlink:href="#m1061e3f764" y="125.933937"/>
    </g>
   </g>
   <g id="line2d_27"/>
   <g id="line2d_28"/>
   <g id="line2d_29"/>
   <g id="line2d_30"/>
   <g id="line2d_31">
    <path clip-path="url(#pb1f0140740)" d="M 122.604545 376.651812 
L 124.407037 324.342978 
L 126.209529 275.287543 
L 128.012021 246.614431 
L 129.814513 247.795416 
L 131.617005 244.308672 
L 133.419497 237.692671 
L 135.221989 227.010891 
L 137.024481 221.035685 
L 138.826973 222.032729 
L 140.629465 220.883611 
L 142.431957 217.376869 
L 144.234449 215.456926 
L 146.03694 209.112686 
L 147.839432 205.859148 
L 149.641924 200.811037 
L 151.444416 201.897649 
L 153.246908 197.761514 
L 155.0494 197.226156 
L 156.851892 193.761179 
L 158.654384 181.337233 
L 160.456876 174.118681 
L 162.259368 172.675939 
L 164.06186 170.926452 
L 165.864352 164.530164 
L 167.666844 161.638104 
L 169.469335 157.979805 
L 171.271827 158.052409 
L 174.876811 153.302788 
L 176.679303 150.308711 
L 178.481795 147.597672 
L 180.284287 147.286067 
L 182.086779 148.638714 
L 183.889271 146.813894 
L 185.691763 146.763072 
L 187.494255 141.938638 
L 189.296747 145.680918 
L 191.099239 145.578393 
L 192.901731 147.657314 
L 194.704222 150.200393 
L 196.506714 152.420731 
L 198.309206 151.208015 
L 200.111698 152.282514 
L 201.91419 152.27005 
L 203.716682 150.086108 
L 205.519174 153.476578 
L 209.124158 153.364757 
L 210.92665 151.744392 
L 212.729142 152.417248 
L 214.531634 154.071063 
L 218.136617 151.178459 
L 219.939109 153.380681 
L 221.741601 153.355612 
L 223.544093 155.281664 
L 225.346585 154.754568 
L 227.149077 151.694092 
L 228.951569 151.295981 
L 230.754061 148.611384 
L 232.556553 147.818804 
L 234.359045 149.151929 
L 236.161537 147.975024 
L 237.964029 147.93606 
L 239.766521 149.156036 
L 241.569012 145.740104 
L 243.371504 144.294234 
L 245.173996 145.810818 
L 246.976488 145.216873 
L 248.77898 143.799426 
L 250.581472 143.278947 
L 252.383964 142.347843 
L 254.186456 143.005859 
L 255.988948 141.501917 
L 257.79144 142.213937 
L 259.593932 140.779629 
L 261.396424 137.781449 
L 263.198916 137.975162 
L 265.001407 136.505136 
L 266.803899 136.811899 
L 268.606391 135.248272 
L 270.408883 134.257691 
L 272.211375 134.449262 
L 274.013867 134.857548 
L 275.816359 133.840018 
L 279.421343 134.368748 
L 281.223835 132.893903 
L 283.026327 132.282465 
L 284.828819 132.161697 
L 286.631311 131.260717 
L 288.433802 130.628607 
L 290.236294 130.323344 
L 293.841278 129.329044 
L 295.64377 128.960547 
L 297.446262 128.783166 
L 299.248754 128.743913 
L 301.051246 128.37768 
L 302.853738 128.197279 
L 306.458722 128.073977 
L 308.261214 128.621226 
L 310.063706 128.383179 
L 311.866198 128.376281 
L 313.668689 128.170214 
L 317.273673 128.345285 
L 320.878657 128.082574 
L 322.681149 128.164943 
L 324.483641 128.083339 
L 326.286133 127.757794 
L 329.891117 127.568028 
L 331.693609 127.678457 
L 333.496101 127.536865 
L 337.101084 127.785311 
L 338.903576 127.618696 
L 340.706068 127.630373 
L 342.50856 127.34286 
L 344.311052 126.653304 
L 346.113544 126.66401 
L 347.916036 126.862709 
L 351.52102 126.849746 
L 355.126004 127.423345 
L 356.928496 127.229922 
L 358.730988 127.181649 
L 360.533479 127.382831 
L 362.335971 127.705374 
L 365.940955 127.606373 
L 369.545939 127.485793 
L 371.348431 127.19429 
L 373.150923 127.124208 
L 378.558399 127.576018 
L 380.360891 127.616864 
L 382.163383 127.522966 
L 383.965874 127.115214 
L 385.768366 127.008861 
L 387.570858 126.782326 
L 389.37335 126.357277 
L 391.175842 126.094966 
L 392.978334 126.129744 
L 394.780826 125.833268 
L 396.583318 125.767008 
L 398.38581 125.531404 
L 400.188302 125.933479 
L 403.793286 125.79224 
L 407.398269 126.11433 
L 409.200761 126.432647 
L 414.608237 125.99856 
L 418.213221 125.877236 
L 420.015713 126.215519 
L 421.818205 126.394453 
L 423.620697 126.75244 
L 425.423189 126.912732 
L 429.028173 126.991894 
L 430.830665 127.256905 
L 434.435648 127.29451 
L 436.23814 127.009855 
L 438.040632 127.228326 
L 439.843124 127.304971 
L 443.448108 127.16738 
L 445.2506 126.733299 
L 448.855584 126.961567 
L 452.460568 127.099409 
L 454.26306 127.302901 
L 459.670535 126.485033 
L 465.078011 126.61918 
L 468.682995 126.538348 
L 470.485487 126.697877 
L 474.090471 126.391387 
L 475.892963 126.494539 
L 477.695455 126.792638 
L 477.695455 126.792638 
" style="fill:none;stroke:#0077bb;stroke-dasharray:3.2,0.8,0.5,0.8;stroke-dashoffset:0;stroke-width:0.5;"/>
    <defs>
     <path d="M 0 -2.5 
L -2.5 2.5 
L 2.5 2.5 
z
" id="m94dea9db92" style="stroke:#0077bb;stroke-linejoin:miter;"/>
    </defs>
    <g clip-path="url(#pb1f0140740)">
     <use style="fill:#0077bb;stroke:#0077bb;stroke-linejoin:miter;" x="122.604545" xlink:href="#m94dea9db92" y="376.651812"/>
     <use style="fill:#0077bb;stroke:#0077bb;stroke-linejoin:miter;" x="140.629465" xlink:href="#m94dea9db92" y="220.883611"/>
     <use style="fill:#0077bb;stroke:#0077bb;stroke-linejoin:miter;" x="158.654384" xlink:href="#m94dea9db92" y="181.337233"/>
     <use style="fill:#0077bb;stroke:#0077bb;stroke-linejoin:miter;" x="176.679303" xlink:href="#m94dea9db92" y="150.308711"/>
     <use style="fill:#0077bb;stroke:#0077bb;stroke-linejoin:miter;" x="194.704222" xlink:href="#m94dea9db92" y="150.200393"/>
     <use style="fill:#0077bb;stroke:#0077bb;stroke-linejoin:miter;" x="212.729142" xlink:href="#m94dea9db92" y="152.417248"/>
     <use style="fill:#0077bb;stroke:#0077bb;stroke-linejoin:miter;" x="230.754061" xlink:href="#m94dea9db92" y="148.611384"/>
     <use style="fill:#0077bb;stroke:#0077bb;stroke-linejoin:miter;" x="248.77898" xlink:href="#m94dea9db92" y="143.799426"/>
     <use style="fill:#0077bb;stroke:#0077bb;stroke-linejoin:miter;" x="266.803899" xlink:href="#m94dea9db92" y="136.811899"/>
     <use style="fill:#0077bb;stroke:#0077bb;stroke-linejoin:miter;" x="284.828819" xlink:href="#m94dea9db92" y="132.161697"/>
     <use style="fill:#0077bb;stroke:#0077bb;stroke-linejoin:miter;" x="302.853738" xlink:href="#m94dea9db92" y="128.197279"/>
     <use style="fill:#0077bb;stroke:#0077bb;stroke-linejoin:miter;" x="320.878657" xlink:href="#m94dea9db92" y="128.082574"/>
     <use style="fill:#0077bb;stroke:#0077bb;stroke-linejoin:miter;" x="338.903576" xlink:href="#m94dea9db92" y="127.618696"/>
     <use style="fill:#0077bb;stroke:#0077bb;stroke-linejoin:miter;" x="356.928496" xlink:href="#m94dea9db92" y="127.229922"/>
     <use style="fill:#0077bb;stroke:#0077bb;stroke-linejoin:miter;" x="374.953415" xlink:href="#m94dea9db92" y="127.278139"/>
     <use style="fill:#0077bb;stroke:#0077bb;stroke-linejoin:miter;" x="392.978334" xlink:href="#m94dea9db92" y="126.129744"/>
     <use style="fill:#0077bb;stroke:#0077bb;stroke-linejoin:miter;" x="411.003253" xlink:href="#m94dea9db92" y="126.25101"/>
     <use style="fill:#0077bb;stroke:#0077bb;stroke-linejoin:miter;" x="429.028173" xlink:href="#m94dea9db92" y="126.991894"/>
     <use style="fill:#0077bb;stroke:#0077bb;stroke-linejoin:miter;" x="447.053092" xlink:href="#m94dea9db92" y="126.87228"/>
     <use style="fill:#0077bb;stroke:#0077bb;stroke-linejoin:miter;" x="465.078011" xlink:href="#m94dea9db92" y="126.61918"/>
    </g>
   </g>
   <g id="line2d_32"/>
   <g id="line2d_33"/>
   <g id="line2d_34"/>
   <g id="line2d_35"/>
   <g id="line2d_36">
    <path clip-path="url(#pb1f0140740)" d="M 122.604545 125.854876 
L 124.407037 126.252854 
L 126.209529 134.90093 
L 128.012021 132.321179 
L 131.617005 130.129986 
L 133.419497 129.338739 
L 135.221989 128.712609 
L 137.024481 128.397905 
L 138.826973 128.327161 
L 142.431957 127.74799 
L 156.851892 126.80388 
L 160.456876 126.880395 
L 162.259368 125.538755 
L 164.06186 125.564269 
L 167.666844 125.47465 
L 173.074319 125.370689 
L 176.679303 125.318466 
L 178.481795 125.330354 
L 180.284287 126.16945 
L 183.889271 126.053842 
L 185.691763 126.092665 
L 187.494255 125.977936 
L 189.296747 127.847847 
L 192.901731 127.912947 
L 194.704222 127.876033 
L 196.506714 128.847006 
L 203.716682 128.859948 
L 207.321666 129.002905 
L 210.92665 131.580458 
L 214.531634 131.593044 
L 216.334126 132.366602 
L 221.741601 132.394384 
L 223.544093 133.426425 
L 225.346585 133.208614 
L 230.754061 133.24462 
L 232.556553 132.145347 
L 234.359045 133.439447 
L 237.964029 133.425473 
L 243.371504 133.424076 
L 245.173996 132.294958 
L 246.976488 130.960794 
L 248.77898 130.929273 
L 250.581472 131.046072 
L 252.383964 129.574148 
L 257.79144 129.961383 
L 259.593932 129.237608 
L 261.396424 127.744047 
L 263.198916 127.755683 
L 266.803899 128.177855 
L 268.606391 128.208898 
L 270.408883 126.950842 
L 274.013867 127.049706 
L 275.816359 127.349178 
L 283.026327 127.193911 
L 284.828819 127.476398 
L 293.841278 127.090531 
L 295.64377 126.745554 
L 297.446262 126.613268 
L 299.248754 126.74025 
L 302.853738 126.605553 
L 306.458722 126.948549 
L 308.261214 127.947744 
L 310.063706 127.982229 
L 313.668689 127.885724 
L 315.471181 128.110305 
L 324.483641 127.845526 
L 326.286133 127.961544 
L 329.891117 127.782993 
L 331.693609 128.102659 
L 338.903576 127.736611 
L 342.50856 127.142141 
L 344.311052 126.137238 
L 346.113544 126.120701 
L 347.916036 126.565033 
L 349.718528 126.583053 
L 353.323512 126.369519 
L 356.928496 126.430657 
L 371.348431 126.065088 
L 376.755907 125.740426 
L 378.558399 125.810553 
L 380.360891 125.65748 
L 382.163383 125.635304 
L 383.965874 124.887504 
L 392.978334 124.878669 
L 394.780826 124.651813 
L 403.793286 124.694518 
L 405.595778 124.984836 
L 407.398269 125.04891 
L 409.200761 125.580536 
L 411.003253 125.568257 
L 412.805745 125.710062 
L 414.608237 125.64006 
L 416.410729 125.729043 
L 418.213221 125.703297 
L 420.015713 125.934901 
L 423.620697 126.084802 
L 425.423189 126.44137 
L 427.225681 126.332301 
L 430.830665 127.099709 
L 432.633156 127.272163 
L 436.23814 127.354264 
L 438.040632 127.544735 
L 441.645616 127.09193 
L 443.448108 127.114044 
L 445.2506 126.510357 
L 447.053092 126.663693 
L 448.855584 126.640801 
L 454.26306 127.004219 
L 457.868043 126.522742 
L 463.275519 126.501735 
L 468.682995 125.568974 
L 472.287979 125.599499 
L 474.090471 125.544934 
L 477.695455 126.025715 
L 477.695455 126.025715 
" style="fill:none;stroke:#ee7733;stroke-dasharray:0.5,0.825;stroke-dashoffset:0;stroke-width:0.5;"/>
    <defs>
     <path d="M 0 -2.5 
L -0.561285 -0.772542 
L -2.377641 -0.772542 
L -0.908178 0.295085 
L -1.469463 2.022542 
L -0 0.954915 
L 1.469463 2.022542 
L 0.908178 0.295085 
L 2.377641 -0.772542 
L 0.561285 -0.772542 
z
" id="mfc8dc578ae" style="stroke:#ee7733;stroke-linejoin:bevel;"/>
    </defs>
    <g clip-path="url(#pb1f0140740)">
     <use style="fill:#ee7733;stroke:#ee7733;stroke-linejoin:bevel;" x="122.604545" xlink:href="#mfc8dc578ae" y="125.854876"/>
     <use style="fill:#ee7733;stroke:#ee7733;stroke-linejoin:bevel;" x="140.629465" xlink:href="#mfc8dc578ae" y="128.03411"/>
     <use style="fill:#ee7733;stroke:#ee7733;stroke-linejoin:bevel;" x="158.654384" xlink:href="#mfc8dc578ae" y="126.816891"/>
     <use style="fill:#ee7733;stroke:#ee7733;stroke-linejoin:bevel;" x="176.679303" xlink:href="#mfc8dc578ae" y="125.318466"/>
     <use style="fill:#ee7733;stroke:#ee7733;stroke-linejoin:bevel;" x="194.704222" xlink:href="#mfc8dc578ae" y="127.876033"/>
     <use style="fill:#ee7733;stroke:#ee7733;stroke-linejoin:bevel;" x="212.729142" xlink:href="#mfc8dc578ae" y="131.541497"/>
     <use style="fill:#ee7733;stroke:#ee7733;stroke-linejoin:bevel;" x="230.754061" xlink:href="#mfc8dc578ae" y="133.24462"/>
     <use style="fill:#ee7733;stroke:#ee7733;stroke-linejoin:bevel;" x="248.77898" xlink:href="#mfc8dc578ae" y="130.929273"/>
     <use style="fill:#ee7733;stroke:#ee7733;stroke-linejoin:bevel;" x="266.803899" xlink:href="#mfc8dc578ae" y="128.177855"/>
     <use style="fill:#ee7733;stroke:#ee7733;stroke-linejoin:bevel;" x="284.828819" xlink:href="#mfc8dc578ae" y="127.476398"/>
     <use style="fill:#ee7733;stroke:#ee7733;stroke-linejoin:bevel;" x="302.853738" xlink:href="#mfc8dc578ae" y="126.605553"/>
     <use style="fill:#ee7733;stroke:#ee7733;stroke-linejoin:bevel;" x="320.878657" xlink:href="#mfc8dc578ae" y="127.857065"/>
     <use style="fill:#ee7733;stroke:#ee7733;stroke-linejoin:bevel;" x="338.903576" xlink:href="#mfc8dc578ae" y="127.736611"/>
     <use style="fill:#ee7733;stroke:#ee7733;stroke-linejoin:bevel;" x="356.928496" xlink:href="#mfc8dc578ae" y="126.430657"/>
     <use style="fill:#ee7733;stroke:#ee7733;stroke-linejoin:bevel;" x="374.953415" xlink:href="#mfc8dc578ae" y="125.795158"/>
     <use style="fill:#ee7733;stroke:#ee7733;stroke-linejoin:bevel;" x="392.978334" xlink:href="#mfc8dc578ae" y="124.878669"/>
     <use style="fill:#ee7733;stroke:#ee7733;stroke-linejoin:bevel;" x="411.003253" xlink:href="#mfc8dc578ae" y="125.568257"/>
     <use style="fill:#ee7733;stroke:#ee7733;stroke-linejoin:bevel;" x="429.028173" xlink:href="#mfc8dc578ae" y="126.707324"/>
     <use style="fill:#ee7733;stroke:#ee7733;stroke-linejoin:bevel;" x="447.053092" xlink:href="#mfc8dc578ae" y="126.663693"/>
     <use style="fill:#ee7733;stroke:#ee7733;stroke-linejoin:bevel;" x="465.078011" xlink:href="#mfc8dc578ae" y="126.183669"/>
    </g>
   </g>
   <g id="line2d_37"/>
   <g id="line2d_38"/>
   <g id="line2d_39"/>
   <g id="line2d_40"/>
   <g id="line2d_41">
    <path clip-path="url(#pb1f0140740)" d="M 243.371504 389.251812 
L 243.371504 112.051812 
" style="fill:none;stroke:#000000;stroke-dasharray:2.5,5;stroke-dashoffset:0;stroke-width:0.5;"/>
   </g>
   <g id="line2d_42">
    <path clip-path="url(#pb1f0140740)" d="M 297.446262 389.251812 
L 297.446262 112.051812 
" style="fill:none;stroke:#000000;stroke-dasharray:2.5,5;stroke-dashoffset:0;stroke-width:0.5;"/>
   </g>
   <g id="patch_4">
    <path d="M 104.85 389.251812 
L 104.85 112.051812 
" style="fill:none;stroke:#000000;stroke-linecap:square;stroke-linejoin:miter;stroke-width:0.8;"/>
   </g>
   <g id="patch_5">
    <path d="M 495.45 389.251812 
L 495.45 112.051812 
" style="fill:none;stroke:#000000;stroke-linecap:square;stroke-linejoin:miter;stroke-width:0.8;"/>
   </g>
   <g id="patch_6">
    <path d="M 104.85 389.251812 
L 495.45 389.251812 
" style="fill:none;stroke:#000000;stroke-linecap:square;stroke-linejoin:miter;stroke-width:0.8;"/>
   </g>
   <g id="patch_7">
    <path d="M 104.85 112.051812 
L 495.45 112.051812 
" style="fill:none;stroke:#000000;stroke-linecap:square;stroke-linejoin:miter;stroke-width:0.8;"/>
   </g>
   <g id="legend_1">
    <g id="line2d_43"/>
    <g id="line2d_44"/>
    <g id="text_18">
     <!--   -->
     <g transform="translate(48.8 22.277969)scale(0.13 -0.13)">
      <use xlink:href="#DejaVuSans-32"/>
     </g>
    </g>
    <g id="line2d_45"/>
    <g id="line2d_46"/>
    <g id="text_19">
     <!-- start -->
     <g transform="translate(48.8 41.359531)scale(0.13 -0.13)">
      <use xlink:href="#DejaVuSans-115"/>
      <use x="52.099609" xlink:href="#DejaVuSans-116"/>
      <use x="91.308594" xlink:href="#DejaVuSans-97"/>
      <use x="152.587891" xlink:href="#DejaVuSans-114"/>
      <use x="193.701172" xlink:href="#DejaVuSans-116"/>
     </g>
    </g>
    <g id="line2d_47"/>
    <g id="line2d_48"/>
    <g id="text_20">
     <!-- pre-dirft -->
     <g transform="translate(48.8 60.441094)scale(0.13 -0.13)">
      <use xlink:href="#DejaVuSans-112"/>
      <use x="63.476562" xlink:href="#DejaVuSans-114"/>
      <use x="102.339844" xlink:href="#DejaVuSans-101"/>
      <use x="163.863281" xlink:href="#DejaVuSans-45"/>
      <use x="199.947266" xlink:href="#DejaVuSans-100"/>
      <use x="263.423828" xlink:href="#DejaVuSans-105"/>
      <use x="291.207031" xlink:href="#DejaVuSans-114"/>
      <use x="332.320312" xlink:href="#DejaVuSans-102"/>
      <use x="365.775391" xlink:href="#DejaVuSans-116"/>
     </g>
    </g>
    <g id="line2d_49"/>
    <g id="line2d_50"/>
    <g id="text_21">
     <!-- post-drift -->
     <g transform="translate(48.8 79.522656)scale(0.13 -0.13)">
      <use xlink:href="#DejaVuSans-112"/>
      <use x="63.476562" xlink:href="#DejaVuSans-111"/>
      <use x="124.658203" xlink:href="#DejaVuSans-115"/>
      <use x="176.757812" xlink:href="#DejaVuSans-116"/>
      <use x="215.966797" xlink:href="#DejaVuSans-45"/>
      <use x="252.050781" xlink:href="#DejaVuSans-100"/>
      <use x="315.527344" xlink:href="#DejaVuSans-114"/>
      <use x="356.640625" xlink:href="#DejaVuSans-105"/>
      <use x="384.423828" xlink:href="#DejaVuSans-102"/>
      <use x="417.878906" xlink:href="#DejaVuSans-116"/>
     </g>
    </g>
    <g id="line2d_51"/>
    <g id="line2d_52"/>
    <g id="text_22">
     <!-- end -->
     <g transform="translate(48.8 98.604219)scale(0.13 -0.13)">
      <use xlink:href="#DejaVuSans-101"/>
      <use x="61.523438" xlink:href="#DejaVuSans-110"/>
      <use x="124.902344" xlink:href="#DejaVuSans-100"/>
     </g>
    </g>
    <g id="line2d_53">
     <path d="M 121.839805 17.727969 
L 147.839805 17.727969 
" style="fill:none;stroke:#cc3311;stroke-linecap:square;stroke-width:0.5;"/>
    </g>
    <g id="line2d_54">
     <g>
      <use style="fill:#cc3311;stroke:#cc3311;" x="134.839805" xlink:href="#m12e3017d81" y="17.727969"/>
     </g>
    </g>
    <g id="text_23">
     <!-- OOB -->
     <g transform="translate(158.239805 22.277969)scale(0.13 -0.13)">
      <defs>
       <path d="M 39.40625 66.21875 
Q 28.65625 66.21875 22.328125 58.203125 
Q 16.015625 50.203125 16.015625 36.375 
Q 16.015625 22.609375 22.328125 14.59375 
Q 28.65625 6.59375 39.40625 6.59375 
Q 50.140625 6.59375 56.421875 14.59375 
Q 62.703125 22.609375 62.703125 36.375 
Q 62.703125 50.203125 56.421875 58.203125 
Q 50.140625 66.21875 39.40625 66.21875 
z
M 39.40625 74.21875 
Q 54.734375 74.21875 63.90625 63.9375 
Q 73.09375 53.65625 73.09375 36.375 
Q 73.09375 19.140625 63.90625 8.859375 
Q 54.734375 -1.421875 39.40625 -1.421875 
Q 24.03125 -1.421875 14.8125 8.828125 
Q 5.609375 19.09375 5.609375 36.375 
Q 5.609375 53.65625 14.8125 63.9375 
Q 24.03125 74.21875 39.40625 74.21875 
z
" id="DejaVuSans-79"/>
       <path d="M 19.671875 34.8125 
L 19.671875 8.109375 
L 35.5 8.109375 
Q 43.453125 8.109375 47.28125 11.40625 
Q 51.125 14.703125 51.125 21.484375 
Q 51.125 28.328125 47.28125 31.5625 
Q 43.453125 34.8125 35.5 34.8125 
z
M 19.671875 64.796875 
L 19.671875 42.828125 
L 34.28125 42.828125 
Q 41.5 42.828125 45.03125 45.53125 
Q 48.578125 48.25 48.578125 53.8125 
Q 48.578125 59.328125 45.03125 62.0625 
Q 41.5 64.796875 34.28125 64.796875 
z
M 9.8125 72.90625 
L 35.015625 72.90625 
Q 46.296875 72.90625 52.390625 68.21875 
Q 58.5 63.53125 58.5 54.890625 
Q 58.5 48.1875 55.375 44.234375 
Q 52.25 40.28125 46.1875 39.3125 
Q 53.46875 37.75 57.5 32.78125 
Q 61.53125 27.828125 61.53125 20.40625 
Q 61.53125 10.640625 54.890625 5.3125 
Q 48.25 0 35.984375 0 
L 9.8125 0 
z
" id="DejaVuSans-66"/>
      </defs>
      <use xlink:href="#DejaVuSans-79"/>
      <use x="78.710938" xlink:href="#DejaVuSans-79"/>
      <use x="157.421875" xlink:href="#DejaVuSans-66"/>
     </g>
    </g>
    <g id="line2d_55"/>
    <g id="line2d_56"/>
    <g id="text_24">
     <!-- 0.8647 -->
     <g transform="translate(158.239805 41.359531)scale(0.13 -0.13)">
      <defs>
       <path d="M 37.796875 64.3125 
L 12.890625 25.390625 
L 37.796875 25.390625 
z
M 35.203125 72.90625 
L 47.609375 72.90625 
L 47.609375 25.390625 
L 58.015625 25.390625 
L 58.015625 17.1875 
L 47.609375 17.1875 
L 47.609375 0 
L 37.796875 0 
L 37.796875 17.1875 
L 4.890625 17.1875 
L 4.890625 26.703125 
z
" id="DejaVuSans-52"/>
      </defs>
      <use xlink:href="#DejaVuSans-48"/>
      <use x="63.623047" xlink:href="#DejaVuSans-46"/>
      <use x="95.410156" xlink:href="#DejaVuSans-56"/>
      <use x="159.033203" xlink:href="#DejaVuSans-54"/>
      <use x="222.65625" xlink:href="#DejaVuSans-52"/>
      <use x="286.279297" xlink:href="#DejaVuSans-55"/>
     </g>
    </g>
    <g id="line2d_57"/>
    <g id="line2d_58"/>
    <g id="text_25">
     <!-- 0.9523 -->
     <g transform="translate(158.239805 60.441094)scale(0.13 -0.13)">
      <defs>
       <path d="M 40.578125 39.3125 
Q 47.65625 37.796875 51.625 33 
Q 55.609375 28.21875 55.609375 21.1875 
Q 55.609375 10.40625 48.1875 4.484375 
Q 40.765625 -1.421875 27.09375 -1.421875 
Q 22.515625 -1.421875 17.65625 -0.515625 
Q 12.796875 0.390625 7.625 2.203125 
L 7.625 11.71875 
Q 11.71875 9.328125 16.59375 8.109375 
Q 21.484375 6.890625 26.8125 6.890625 
Q 36.078125 6.890625 40.9375 10.546875 
Q 45.796875 14.203125 45.796875 21.1875 
Q 45.796875 27.640625 41.28125 31.265625 
Q 36.765625 34.90625 28.71875 34.90625 
L 20.21875 34.90625 
L 20.21875 43.015625 
L 29.109375 43.015625 
Q 36.375 43.015625 40.234375 45.921875 
Q 44.09375 48.828125 44.09375 54.296875 
Q 44.09375 59.90625 40.109375 62.90625 
Q 36.140625 65.921875 28.71875 65.921875 
Q 24.65625 65.921875 20.015625 65.03125 
Q 15.375 64.15625 9.8125 62.3125 
L 9.8125 71.09375 
Q 15.4375 72.65625 20.34375 73.4375 
Q 25.25 74.21875 29.59375 74.21875 
Q 40.828125 74.21875 47.359375 69.109375 
Q 53.90625 64.015625 53.90625 55.328125 
Q 53.90625 49.265625 50.4375 45.09375 
Q 46.96875 40.921875 40.578125 39.3125 
z
" id="DejaVuSans-51"/>
      </defs>
      <use xlink:href="#DejaVuSans-48"/>
      <use x="63.623047" xlink:href="#DejaVuSans-46"/>
      <use x="95.410156" xlink:href="#DejaVuSans-57"/>
      <use x="159.033203" xlink:href="#DejaVuSans-53"/>
      <use x="222.65625" xlink:href="#DejaVuSans-50"/>
      <use x="286.279297" xlink:href="#DejaVuSans-51"/>
     </g>
    </g>
    <g id="line2d_59"/>
    <g id="line2d_60"/>
    <g id="text_26">
     <!-- 0.9897 -->
     <g transform="translate(158.239805 79.522656)scale(0.13 -0.13)">
      <use xlink:href="#DejaVuSans-48"/>
      <use x="63.623047" xlink:href="#DejaVuSans-46"/>
      <use x="95.410156" xlink:href="#DejaVuSans-57"/>
      <use x="159.033203" xlink:href="#DejaVuSans-56"/>
      <use x="222.65625" xlink:href="#DejaVuSans-57"/>
      <use x="286.279297" xlink:href="#DejaVuSans-55"/>
     </g>
    </g>
    <g id="line2d_61"/>
    <g id="line2d_62"/>
    <g id="text_27">
     <!-- 0.9915 -->
     <g transform="translate(158.239805 98.604219)scale(0.13 -0.13)">
      <use xlink:href="#DejaVuSans-48"/>
      <use x="63.623047" xlink:href="#DejaVuSans-46"/>
      <use x="95.410156" xlink:href="#DejaVuSans-57"/>
      <use x="159.033203" xlink:href="#DejaVuSans-57"/>
      <use x="222.65625" xlink:href="#DejaVuSans-49"/>
      <use x="286.279297" xlink:href="#DejaVuSans-53"/>
     </g>
    </g>
    <g id="line2d_63">
     <path d="M 217.347266 17.727969 
L 243.347266 17.727969 
" style="fill:none;stroke:#009988;stroke-dasharray:1.85,0.8;stroke-dashoffset:0;stroke-width:0.5;"/>
    </g>
    <g id="line2d_64">
     <g>
      <use style="fill:#009988;stroke:#009988;stroke-linejoin:miter;" x="230.347266" xlink:href="#m1061e3f764" y="17.727969"/>
     </g>
    </g>
    <g id="text_28">
     <!-- UOB -->
     <g transform="translate(253.747266 22.277969)scale(0.13 -0.13)">
      <defs>
       <path d="M 8.6875 72.90625 
L 18.609375 72.90625 
L 18.609375 28.609375 
Q 18.609375 16.890625 22.84375 11.734375 
Q 27.09375 6.59375 36.625 6.59375 
Q 46.09375 6.59375 50.34375 11.734375 
Q 54.59375 16.890625 54.59375 28.609375 
L 54.59375 72.90625 
L 64.5 72.90625 
L 64.5 27.390625 
Q 64.5 13.140625 57.4375 5.859375 
Q 50.390625 -1.421875 36.625 -1.421875 
Q 22.796875 -1.421875 15.734375 5.859375 
Q 8.6875 13.140625 8.6875 27.390625 
z
" id="DejaVuSans-85"/>
      </defs>
      <use xlink:href="#DejaVuSans-85"/>
      <use x="73.193359" xlink:href="#DejaVuSans-79"/>
      <use x="151.904297" xlink:href="#DejaVuSans-66"/>
     </g>
    </g>
    <g id="line2d_65"/>
    <g id="line2d_66"/>
    <g id="text_29">
     <!-- 0.9945 -->
     <g transform="translate(253.747266 41.359531)scale(0.13 -0.13)">
      <use xlink:href="#DejaVuSans-48"/>
      <use x="63.623047" xlink:href="#DejaVuSans-46"/>
      <use x="95.410156" xlink:href="#DejaVuSans-57"/>
      <use x="159.033203" xlink:href="#DejaVuSans-57"/>
      <use x="222.65625" xlink:href="#DejaVuSans-52"/>
      <use x="286.279297" xlink:href="#DejaVuSans-53"/>
     </g>
    </g>
    <g id="line2d_67"/>
    <g id="line2d_68"/>
    <g id="text_30">
     <!-- 0.9781 -->
     <g transform="translate(253.747266 60.441094)scale(0.13 -0.13)">
      <use xlink:href="#DejaVuSans-48"/>
      <use x="63.623047" xlink:href="#DejaVuSans-46"/>
      <use x="95.410156" xlink:href="#DejaVuSans-57"/>
      <use x="159.033203" xlink:href="#DejaVuSans-55"/>
      <use x="222.65625" xlink:href="#DejaVuSans-56"/>
      <use x="286.279297" xlink:href="#DejaVuSans-49"/>
     </g>
    </g>
    <g id="line2d_69"/>
    <g id="line2d_70"/>
    <g id="text_31">
     <!-- 0.9906 -->
     <g transform="translate(253.747266 79.522656)scale(0.13 -0.13)">
      <use xlink:href="#DejaVuSans-48"/>
      <use x="63.623047" xlink:href="#DejaVuSans-46"/>
      <use x="95.410156" xlink:href="#DejaVuSans-57"/>
      <use x="159.033203" xlink:href="#DejaVuSans-57"/>
      <use x="222.65625" xlink:href="#DejaVuSans-48"/>
      <use x="286.279297" xlink:href="#DejaVuSans-54"/>
     </g>
    </g>
    <g id="line2d_71"/>
    <g id="line2d_72"/>
    <g id="text_32">
     <!-- 0.9927 -->
     <g transform="translate(253.747266 98.604219)scale(0.13 -0.13)">
      <use xlink:href="#DejaVuSans-48"/>
      <use x="63.623047" xlink:href="#DejaVuSans-46"/>
      <use x="95.410156" xlink:href="#DejaVuSans-57"/>
      <use x="159.033203" xlink:href="#DejaVuSans-57"/>
      <use x="222.65625" xlink:href="#DejaVuSans-50"/>
      <use x="286.279297" xlink:href="#DejaVuSans-55"/>
     </g>
    </g>
    <g id="line2d_73">
     <path d="M 312.854727 17.727969 
L 338.854727 17.727969 
" style="fill:none;stroke:#0077bb;stroke-dasharray:3.2,0.8,0.5,0.8;stroke-dashoffset:0;stroke-width:0.5;"/>
    </g>
    <g id="line2d_74">
     <g>
      <use style="fill:#0077bb;stroke:#0077bb;stroke-linejoin:miter;" x="325.854727" xlink:href="#m94dea9db92" y="17.727969"/>
     </g>
    </g>
    <g id="text_33">
     <!-- NOOB -->
     <g transform="translate(349.254727 22.277969)scale(0.13 -0.13)">
      <use xlink:href="#DejaVuSans-78"/>
      <use x="74.804688" xlink:href="#DejaVuSans-79"/>
      <use x="153.515625" xlink:href="#DejaVuSans-79"/>
      <use x="232.226562" xlink:href="#DejaVuSans-66"/>
     </g>
    </g>
    <g id="line2d_75"/>
    <g id="line2d_76"/>
    <g id="text_34">
     <!-- 0.4982 -->
     <g transform="translate(349.254727 41.359531)scale(0.13 -0.13)">
      <use xlink:href="#DejaVuSans-48"/>
      <use x="63.623047" xlink:href="#DejaVuSans-46"/>
      <use x="95.410156" xlink:href="#DejaVuSans-52"/>
      <use x="159.033203" xlink:href="#DejaVuSans-57"/>
      <use x="222.65625" xlink:href="#DejaVuSans-56"/>
      <use x="286.279297" xlink:href="#DejaVuSans-50"/>
     </g>
    </g>
    <g id="line2d_77"/>
    <g id="line2d_78"/>
    <g id="text_35">
     <!-- 0.9566 -->
     <g transform="translate(349.254727 60.441094)scale(0.13 -0.13)">
      <use xlink:href="#DejaVuSans-48"/>
      <use x="63.623047" xlink:href="#DejaVuSans-46"/>
      <use x="95.410156" xlink:href="#DejaVuSans-57"/>
      <use x="159.033203" xlink:href="#DejaVuSans-53"/>
      <use x="222.65625" xlink:href="#DejaVuSans-54"/>
      <use x="286.279297" xlink:href="#DejaVuSans-54"/>
     </g>
    </g>
    <g id="line2d_79"/>
    <g id="line2d_80"/>
    <g id="text_36">
     <!-- 0.9872 -->
     <g transform="translate(349.254727 79.522656)scale(0.13 -0.13)">
      <use xlink:href="#DejaVuSans-48"/>
      <use x="63.623047" xlink:href="#DejaVuSans-46"/>
      <use x="95.410156" xlink:href="#DejaVuSans-57"/>
      <use x="159.033203" xlink:href="#DejaVuSans-56"/>
      <use x="222.65625" xlink:href="#DejaVuSans-55"/>
      <use x="286.279297" xlink:href="#DejaVuSans-50"/>
     </g>
    </g>
    <g id="line2d_81"/>
    <g id="line2d_82"/>
    <g id="text_37">
     <!-- 0.9911 -->
     <g transform="translate(349.254727 98.604219)scale(0.13 -0.13)">
      <use xlink:href="#DejaVuSans-48"/>
      <use x="63.623047" xlink:href="#DejaVuSans-46"/>
      <use x="95.410156" xlink:href="#DejaVuSans-57"/>
      <use x="159.033203" xlink:href="#DejaVuSans-57"/>
      <use x="222.65625" xlink:href="#DejaVuSans-49"/>
      <use x="286.279297" xlink:href="#DejaVuSans-49"/>
     </g>
    </g>
    <g id="line2d_83">
     <path d="M 408.362188 17.727969 
L 434.362188 17.727969 
" style="fill:none;stroke:#ee7733;stroke-dasharray:0.5,0.825;stroke-dashoffset:0;stroke-width:0.5;"/>
    </g>
    <g id="line2d_84">
     <g>
      <use style="fill:#ee7733;stroke:#ee7733;stroke-linejoin:bevel;" x="421.362188" xlink:href="#mfc8dc578ae" y="17.727969"/>
     </g>
    </g>
    <g id="text_38">
     <!-- NUOB -->
     <g transform="translate(444.762188 22.277969)scale(0.13 -0.13)">
      <use xlink:href="#DejaVuSans-78"/>
      <use x="74.804688" xlink:href="#DejaVuSans-85"/>
      <use x="147.998047" xlink:href="#DejaVuSans-79"/>
      <use x="226.708984" xlink:href="#DejaVuSans-66"/>
     </g>
    </g>
    <g id="line2d_85"/>
    <g id="line2d_86"/>
    <g id="text_39">
     <!-- 0.9929 -->
     <g transform="translate(444.762188 41.359531)scale(0.13 -0.13)">
      <use xlink:href="#DejaVuSans-48"/>
      <use x="63.623047" xlink:href="#DejaVuSans-46"/>
      <use x="95.410156" xlink:href="#DejaVuSans-57"/>
      <use x="159.033203" xlink:href="#DejaVuSans-57"/>
      <use x="222.65625" xlink:href="#DejaVuSans-50"/>
      <use x="286.279297" xlink:href="#DejaVuSans-57"/>
     </g>
    </g>
    <g id="line2d_87"/>
    <g id="line2d_88"/>
    <g id="text_40">
     <!-- 0.9780 -->
     <g transform="translate(444.762188 60.441094)scale(0.13 -0.13)">
      <use xlink:href="#DejaVuSans-48"/>
      <use x="63.623047" xlink:href="#DejaVuSans-46"/>
      <use x="95.410156" xlink:href="#DejaVuSans-57"/>
      <use x="159.033203" xlink:href="#DejaVuSans-55"/>
      <use x="222.65625" xlink:href="#DejaVuSans-56"/>
      <use x="286.279297" xlink:href="#DejaVuSans-48"/>
     </g>
    </g>
    <g id="line2d_89"/>
    <g id="line2d_90"/>
    <g id="text_41">
     <!-- 0.9915 -->
     <g transform="translate(444.762188 79.522656)scale(0.13 -0.13)">
      <use xlink:href="#DejaVuSans-48"/>
      <use x="63.623047" xlink:href="#DejaVuSans-46"/>
      <use x="95.410156" xlink:href="#DejaVuSans-57"/>
      <use x="159.033203" xlink:href="#DejaVuSans-57"/>
      <use x="222.65625" xlink:href="#DejaVuSans-49"/>
      <use x="286.279297" xlink:href="#DejaVuSans-53"/>
     </g>
    </g>
    <g id="line2d_91"/>
    <g id="line2d_92"/>
    <g id="text_42">
     <!-- 0.9926 -->
     <g transform="translate(444.762188 98.604219)scale(0.13 -0.13)">
      <use xlink:href="#DejaVuSans-48"/>
      <use x="63.623047" xlink:href="#DejaVuSans-46"/>
      <use x="95.410156" xlink:href="#DejaVuSans-57"/>
      <use x="159.033203" xlink:href="#DejaVuSans-57"/>
      <use x="222.65625" xlink:href="#DejaVuSans-50"/>
      <use x="286.279297" xlink:href="#DejaVuSans-54"/>
     </g>
    </g>
   </g>
  </g>
 </g>
 <defs>
  <clipPath id="pb1f0140740">
   <rect height="277.2" width="390.6" x="104.85" y="112.051812"/>
  </clipPath>
 </defs>
</svg>
