<?xml version="1.0" encoding="utf-8" standalone="no"?>
<!DOCTYPE svg PUBLIC "-//W3C//DTD SVG 1.1//EN"
  "http://www.w3.org/Graphics/SVG/1.1/DTD/svg11.dtd">
<!-- Created with matplotlib (https://matplotlib.org/) -->
<svg height="432.614937pt" version="1.1" viewBox="0 0 502.65 432.614937" width="502.65pt" xmlns="http://www.w3.org/2000/svg" xmlns:xlink="http://www.w3.org/1999/xlink">
 <metadata>
  <rdf:RDF xmlns:cc="http://creativecommons.org/ns#" xmlns:dc="http://purl.org/dc/elements/1.1/" xmlns:rdf="http://www.w3.org/1999/02/22-rdf-syntax-ns#">
   <cc:Work>
    <dc:type rdf:resource="http://purl.org/dc/dcmitype/StillImage"/>
    <dc:date>2022-06-16T22:26:54.777469</dc:date>
    <dc:format>image/svg+xml</dc:format>
    <dc:creator>
     <cc:Agent>
      <dc:title>Matplotlib v3.3.3, https://matplotlib.org/</dc:title>
     </cc:Agent>
    </dc:creator>
   </cc:Work>
  </rdf:RDF>
 </metadata>
 <defs>
  <style type="text/css">*{stroke-linecap:butt;stroke-linejoin:round;}</style>
 </defs>
 <g id="figure_1">
  <g id="patch_1">
   <path d="M 0 432.614937 
L 502.65 432.614937 
L 502.65 0 
L 0 0 
z
" style="fill:#ffffff;"/>
  </g>
  <g id="axes_1">
   <g id="patch_2">
    <path d="M 104.85 389.251812 
L 495.45 389.251812 
L 495.45 112.051812 
L 104.85 112.051812 
z
" style="fill:#ffffff;"/>
   </g>
   <g id="patch_3">
    <path clip-path="url(#p4bdd010db7)" d="M 297.446262 389.251812 
L 297.446262 112.051812 
L 243.371504 112.051812 
L 243.371504 389.251812 
z
" style="fill:#d3d3d3;opacity:0.5;"/>
   </g>
   <g id="matplotlib.axis_1">
    <g id="xtick_1">
     <g id="line2d_1">
      <defs>
       <path d="M 0 0 
L 0 3.5 
" id="m656c526aa5" style="stroke:#000000;stroke-width:0.8;"/>
      </defs>
      <g>
       <use style="stroke:#000000;stroke-width:0.8;" x="117.19707" xlink:href="#m656c526aa5" y="389.251812"/>
      </g>
     </g>
     <g id="text_1">
      <!-- 0 -->
      <g transform="translate(113.061445 406.129781)scale(0.13 -0.13)">
       <defs>
        <path d="M 31.78125 66.40625 
Q 24.171875 66.40625 20.328125 58.90625 
Q 16.5 51.421875 16.5 36.375 
Q 16.5 21.390625 20.328125 13.890625 
Q 24.171875 6.390625 31.78125 6.390625 
Q 39.453125 6.390625 43.28125 13.890625 
Q 47.125 21.390625 47.125 36.375 
Q 47.125 51.421875 43.28125 58.90625 
Q 39.453125 66.40625 31.78125 66.40625 
z
M 31.78125 74.21875 
Q 44.046875 74.21875 50.515625 64.515625 
Q 56.984375 54.828125 56.984375 36.375 
Q 56.984375 17.96875 50.515625 8.265625 
Q 44.046875 -1.421875 31.78125 -1.421875 
Q 19.53125 -1.421875 13.0625 8.265625 
Q 6.59375 17.96875 6.59375 36.375 
Q 6.59375 54.828125 13.0625 64.515625 
Q 19.53125 74.21875 31.78125 74.21875 
z
" id="DejaVuSans-48"/>
       </defs>
       <use xlink:href="#DejaVuSans-48"/>
      </g>
     </g>
    </g>
    <g id="xtick_2">
     <g id="line2d_2">
      <g>
       <use style="stroke:#000000;stroke-width:0.8;" x="162.259368" xlink:href="#m656c526aa5" y="389.251812"/>
      </g>
     </g>
     <g id="text_2">
      <!-- 25 -->
      <g transform="translate(153.988118 406.129781)scale(0.13 -0.13)">
       <defs>
        <path d="M 19.1875 8.296875 
L 53.609375 8.296875 
L 53.609375 0 
L 7.328125 0 
L 7.328125 8.296875 
Q 12.9375 14.109375 22.625 23.890625 
Q 32.328125 33.6875 34.8125 36.53125 
Q 39.546875 41.84375 41.421875 45.53125 
Q 43.3125 49.21875 43.3125 52.78125 
Q 43.3125 58.59375 39.234375 62.25 
Q 35.15625 65.921875 28.609375 65.921875 
Q 23.96875 65.921875 18.8125 64.3125 
Q 13.671875 62.703125 7.8125 59.421875 
L 7.8125 69.390625 
Q 13.765625 71.78125 18.9375 73 
Q 24.125 74.21875 28.421875 74.21875 
Q 39.75 74.21875 46.484375 68.546875 
Q 53.21875 62.890625 53.21875 53.421875 
Q 53.21875 48.921875 51.53125 44.890625 
Q 49.859375 40.875 45.40625 35.40625 
Q 44.1875 33.984375 37.640625 27.21875 
Q 31.109375 20.453125 19.1875 8.296875 
z
" id="DejaVuSans-50"/>
        <path d="M 10.796875 72.90625 
L 49.515625 72.90625 
L 49.515625 64.59375 
L 19.828125 64.59375 
L 19.828125 46.734375 
Q 21.96875 47.46875 24.109375 47.828125 
Q 26.265625 48.1875 28.421875 48.1875 
Q 40.625 48.1875 47.75 41.5 
Q 54.890625 34.8125 54.890625 23.390625 
Q 54.890625 11.625 47.5625 5.09375 
Q 40.234375 -1.421875 26.90625 -1.421875 
Q 22.3125 -1.421875 17.546875 -0.640625 
Q 12.796875 0.140625 7.71875 1.703125 
L 7.71875 11.625 
Q 12.109375 9.234375 16.796875 8.0625 
Q 21.484375 6.890625 26.703125 6.890625 
Q 35.15625 6.890625 40.078125 11.328125 
Q 45.015625 15.765625 45.015625 23.390625 
Q 45.015625 31 40.078125 35.4375 
Q 35.15625 39.890625 26.703125 39.890625 
Q 22.75 39.890625 18.8125 39.015625 
Q 14.890625 38.140625 10.796875 36.28125 
z
" id="DejaVuSans-53"/>
       </defs>
       <use xlink:href="#DejaVuSans-50"/>
       <use x="63.623047" xlink:href="#DejaVuSans-53"/>
      </g>
     </g>
    </g>
    <g id="xtick_3">
     <g id="line2d_3">
      <g>
       <use style="stroke:#000000;stroke-width:0.8;" x="207.321666" xlink:href="#m656c526aa5" y="389.251812"/>
      </g>
     </g>
     <g id="text_3">
      <!-- 50 -->
      <g transform="translate(199.050416 406.129781)scale(0.13 -0.13)">
       <use xlink:href="#DejaVuSans-53"/>
       <use x="63.623047" xlink:href="#DejaVuSans-48"/>
      </g>
     </g>
    </g>
    <g id="xtick_4">
     <g id="line2d_4">
      <g>
       <use style="stroke:#000000;stroke-width:0.8;" x="252.383964" xlink:href="#m656c526aa5" y="389.251812"/>
      </g>
     </g>
     <g id="text_4">
      <!-- 75 -->
      <g transform="translate(244.112714 406.129781)scale(0.13 -0.13)">
       <defs>
        <path d="M 8.203125 72.90625 
L 55.078125 72.90625 
L 55.078125 68.703125 
L 28.609375 0 
L 18.3125 0 
L 43.21875 64.59375 
L 8.203125 64.59375 
z
" id="DejaVuSans-55"/>
       </defs>
       <use xlink:href="#DejaVuSans-55"/>
       <use x="63.623047" xlink:href="#DejaVuSans-53"/>
      </g>
     </g>
    </g>
    <g id="xtick_5">
     <g id="line2d_5">
      <g>
       <use style="stroke:#000000;stroke-width:0.8;" x="297.446262" xlink:href="#m656c526aa5" y="389.251812"/>
      </g>
     </g>
     <g id="text_5">
      <!-- 100 -->
      <g transform="translate(285.039387 406.129781)scale(0.13 -0.13)">
       <defs>
        <path d="M 12.40625 8.296875 
L 28.515625 8.296875 
L 28.515625 63.921875 
L 10.984375 60.40625 
L 10.984375 69.390625 
L 28.421875 72.90625 
L 38.28125 72.90625 
L 38.28125 8.296875 
L 54.390625 8.296875 
L 54.390625 0 
L 12.40625 0 
z
" id="DejaVuSans-49"/>
       </defs>
       <use xlink:href="#DejaVuSans-49"/>
       <use x="63.623047" xlink:href="#DejaVuSans-48"/>
       <use x="127.246094" xlink:href="#DejaVuSans-48"/>
      </g>
     </g>
    </g>
    <g id="xtick_6">
     <g id="line2d_6">
      <g>
       <use style="stroke:#000000;stroke-width:0.8;" x="342.50856" xlink:href="#m656c526aa5" y="389.251812"/>
      </g>
     </g>
     <g id="text_6">
      <!-- 125 -->
      <g transform="translate(330.101685 406.129781)scale(0.13 -0.13)">
       <use xlink:href="#DejaVuSans-49"/>
       <use x="63.623047" xlink:href="#DejaVuSans-50"/>
       <use x="127.246094" xlink:href="#DejaVuSans-53"/>
      </g>
     </g>
    </g>
    <g id="xtick_7">
     <g id="line2d_7">
      <g>
       <use style="stroke:#000000;stroke-width:0.8;" x="387.570858" xlink:href="#m656c526aa5" y="389.251812"/>
      </g>
     </g>
     <g id="text_7">
      <!-- 150 -->
      <g transform="translate(375.163983 406.129781)scale(0.13 -0.13)">
       <use xlink:href="#DejaVuSans-49"/>
       <use x="63.623047" xlink:href="#DejaVuSans-53"/>
       <use x="127.246094" xlink:href="#DejaVuSans-48"/>
      </g>
     </g>
    </g>
    <g id="xtick_8">
     <g id="line2d_8">
      <g>
       <use style="stroke:#000000;stroke-width:0.8;" x="432.633156" xlink:href="#m656c526aa5" y="389.251812"/>
      </g>
     </g>
     <g id="text_8">
      <!-- 175 -->
      <g transform="translate(420.226281 406.129781)scale(0.13 -0.13)">
       <use xlink:href="#DejaVuSans-49"/>
       <use x="63.623047" xlink:href="#DejaVuSans-55"/>
       <use x="127.246094" xlink:href="#DejaVuSans-53"/>
      </g>
     </g>
    </g>
    <g id="xtick_9">
     <g id="line2d_9">
      <g>
       <use style="stroke:#000000;stroke-width:0.8;" x="477.695455" xlink:href="#m656c526aa5" y="389.251812"/>
      </g>
     </g>
     <g id="text_9">
      <!-- 200 -->
      <g transform="translate(465.28858 406.129781)scale(0.13 -0.13)">
       <use xlink:href="#DejaVuSans-50"/>
       <use x="63.623047" xlink:href="#DejaVuSans-48"/>
       <use x="127.246094" xlink:href="#DejaVuSans-48"/>
      </g>
     </g>
    </g>
    <g id="text_10">
     <!-- Number of processed instances [x1000] -->
     <g transform="translate(170.025078 422.711344)scale(0.13 -0.13)">
      <defs>
       <path d="M 9.8125 72.90625 
L 23.09375 72.90625 
L 55.421875 11.921875 
L 55.421875 72.90625 
L 64.984375 72.90625 
L 64.984375 0 
L 51.703125 0 
L 19.390625 60.984375 
L 19.390625 0 
L 9.8125 0 
z
" id="DejaVuSans-78"/>
       <path d="M 8.5 21.578125 
L 8.5 54.6875 
L 17.484375 54.6875 
L 17.484375 21.921875 
Q 17.484375 14.15625 20.5 10.265625 
Q 23.53125 6.390625 29.59375 6.390625 
Q 36.859375 6.390625 41.078125 11.03125 
Q 45.3125 15.671875 45.3125 23.6875 
L 45.3125 54.6875 
L 54.296875 54.6875 
L 54.296875 0 
L 45.3125 0 
L 45.3125 8.40625 
Q 42.046875 3.421875 37.71875 1 
Q 33.40625 -1.421875 27.6875 -1.421875 
Q 18.265625 -1.421875 13.375 4.4375 
Q 8.5 10.296875 8.5 21.578125 
z
M 31.109375 56 
z
" id="DejaVuSans-117"/>
       <path d="M 52 44.1875 
Q 55.375 50.25 60.0625 53.125 
Q 64.75 56 71.09375 56 
Q 79.640625 56 84.28125 50.015625 
Q 88.921875 44.046875 88.921875 33.015625 
L 88.921875 0 
L 79.890625 0 
L 79.890625 32.71875 
Q 79.890625 40.578125 77.09375 44.375 
Q 74.3125 48.1875 68.609375 48.1875 
Q 61.625 48.1875 57.5625 43.546875 
Q 53.515625 38.921875 53.515625 30.90625 
L 53.515625 0 
L 44.484375 0 
L 44.484375 32.71875 
Q 44.484375 40.625 41.703125 44.40625 
Q 38.921875 48.1875 33.109375 48.1875 
Q 26.21875 48.1875 22.15625 43.53125 
Q 18.109375 38.875 18.109375 30.90625 
L 18.109375 0 
L 9.078125 0 
L 9.078125 54.6875 
L 18.109375 54.6875 
L 18.109375 46.1875 
Q 21.1875 51.21875 25.484375 53.609375 
Q 29.78125 56 35.6875 56 
Q 41.65625 56 45.828125 52.96875 
Q 50 49.953125 52 44.1875 
z
" id="DejaVuSans-109"/>
       <path d="M 48.6875 27.296875 
Q 48.6875 37.203125 44.609375 42.84375 
Q 40.53125 48.484375 33.40625 48.484375 
Q 26.265625 48.484375 22.1875 42.84375 
Q 18.109375 37.203125 18.109375 27.296875 
Q 18.109375 17.390625 22.1875 11.75 
Q 26.265625 6.109375 33.40625 6.109375 
Q 40.53125 6.109375 44.609375 11.75 
Q 48.6875 17.390625 48.6875 27.296875 
z
M 18.109375 46.390625 
Q 20.953125 51.265625 25.265625 53.625 
Q 29.59375 56 35.59375 56 
Q 45.5625 56 51.78125 48.09375 
Q 58.015625 40.1875 58.015625 27.296875 
Q 58.015625 14.40625 51.78125 6.484375 
Q 45.5625 -1.421875 35.59375 -1.421875 
Q 29.59375 -1.421875 25.265625 0.953125 
Q 20.953125 3.328125 18.109375 8.203125 
L 18.109375 0 
L 9.078125 0 
L 9.078125 75.984375 
L 18.109375 75.984375 
z
" id="DejaVuSans-98"/>
       <path d="M 56.203125 29.59375 
L 56.203125 25.203125 
L 14.890625 25.203125 
Q 15.484375 15.921875 20.484375 11.0625 
Q 25.484375 6.203125 34.421875 6.203125 
Q 39.59375 6.203125 44.453125 7.46875 
Q 49.3125 8.734375 54.109375 11.28125 
L 54.109375 2.78125 
Q 49.265625 0.734375 44.1875 -0.34375 
Q 39.109375 -1.421875 33.890625 -1.421875 
Q 20.796875 -1.421875 13.15625 6.1875 
Q 5.515625 13.8125 5.515625 26.8125 
Q 5.515625 40.234375 12.765625 48.109375 
Q 20.015625 56 32.328125 56 
Q 43.359375 56 49.78125 48.890625 
Q 56.203125 41.796875 56.203125 29.59375 
z
M 47.21875 32.234375 
Q 47.125 39.59375 43.09375 43.984375 
Q 39.0625 48.390625 32.421875 48.390625 
Q 24.90625 48.390625 20.390625 44.140625 
Q 15.875 39.890625 15.1875 32.171875 
z
" id="DejaVuSans-101"/>
       <path d="M 41.109375 46.296875 
Q 39.59375 47.171875 37.8125 47.578125 
Q 36.03125 48 33.890625 48 
Q 26.265625 48 22.1875 43.046875 
Q 18.109375 38.09375 18.109375 28.8125 
L 18.109375 0 
L 9.078125 0 
L 9.078125 54.6875 
L 18.109375 54.6875 
L 18.109375 46.1875 
Q 20.953125 51.171875 25.484375 53.578125 
Q 30.03125 56 36.53125 56 
Q 37.453125 56 38.578125 55.875 
Q 39.703125 55.765625 41.0625 55.515625 
z
" id="DejaVuSans-114"/>
       <path id="DejaVuSans-32"/>
       <path d="M 30.609375 48.390625 
Q 23.390625 48.390625 19.1875 42.75 
Q 14.984375 37.109375 14.984375 27.296875 
Q 14.984375 17.484375 19.15625 11.84375 
Q 23.34375 6.203125 30.609375 6.203125 
Q 37.796875 6.203125 41.984375 11.859375 
Q 46.1875 17.53125 46.1875 27.296875 
Q 46.1875 37.015625 41.984375 42.703125 
Q 37.796875 48.390625 30.609375 48.390625 
z
M 30.609375 56 
Q 42.328125 56 49.015625 48.375 
Q 55.71875 40.765625 55.71875 27.296875 
Q 55.71875 13.875 49.015625 6.21875 
Q 42.328125 -1.421875 30.609375 -1.421875 
Q 18.84375 -1.421875 12.171875 6.21875 
Q 5.515625 13.875 5.515625 27.296875 
Q 5.515625 40.765625 12.171875 48.375 
Q 18.84375 56 30.609375 56 
z
" id="DejaVuSans-111"/>
       <path d="M 37.109375 75.984375 
L 37.109375 68.5 
L 28.515625 68.5 
Q 23.6875 68.5 21.796875 66.546875 
Q 19.921875 64.59375 19.921875 59.515625 
L 19.921875 54.6875 
L 34.71875 54.6875 
L 34.71875 47.703125 
L 19.921875 47.703125 
L 19.921875 0 
L 10.890625 0 
L 10.890625 47.703125 
L 2.296875 47.703125 
L 2.296875 54.6875 
L 10.890625 54.6875 
L 10.890625 58.5 
Q 10.890625 67.625 15.140625 71.796875 
Q 19.390625 75.984375 28.609375 75.984375 
z
" id="DejaVuSans-102"/>
       <path d="M 18.109375 8.203125 
L 18.109375 -20.796875 
L 9.078125 -20.796875 
L 9.078125 54.6875 
L 18.109375 54.6875 
L 18.109375 46.390625 
Q 20.953125 51.265625 25.265625 53.625 
Q 29.59375 56 35.59375 56 
Q 45.5625 56 51.78125 48.09375 
Q 58.015625 40.1875 58.015625 27.296875 
Q 58.015625 14.40625 51.78125 6.484375 
Q 45.5625 -1.421875 35.59375 -1.421875 
Q 29.59375 -1.421875 25.265625 0.953125 
Q 20.953125 3.328125 18.109375 8.203125 
z
M 48.6875 27.296875 
Q 48.6875 37.203125 44.609375 42.84375 
Q 40.53125 48.484375 33.40625 48.484375 
Q 26.265625 48.484375 22.1875 42.84375 
Q 18.109375 37.203125 18.109375 27.296875 
Q 18.109375 17.390625 22.1875 11.75 
Q 26.265625 6.109375 33.40625 6.109375 
Q 40.53125 6.109375 44.609375 11.75 
Q 48.6875 17.390625 48.6875 27.296875 
z
" id="DejaVuSans-112"/>
       <path d="M 48.78125 52.59375 
L 48.78125 44.1875 
Q 44.96875 46.296875 41.140625 47.34375 
Q 37.3125 48.390625 33.40625 48.390625 
Q 24.65625 48.390625 19.8125 42.84375 
Q 14.984375 37.3125 14.984375 27.296875 
Q 14.984375 17.28125 19.8125 11.734375 
Q 24.65625 6.203125 33.40625 6.203125 
Q 37.3125 6.203125 41.140625 7.25 
Q 44.96875 8.296875 48.78125 10.40625 
L 48.78125 2.09375 
Q 45.015625 0.34375 40.984375 -0.53125 
Q 36.96875 -1.421875 32.421875 -1.421875 
Q 20.0625 -1.421875 12.78125 6.34375 
Q 5.515625 14.109375 5.515625 27.296875 
Q 5.515625 40.671875 12.859375 48.328125 
Q 20.21875 56 33.015625 56 
Q 37.15625 56 41.109375 55.140625 
Q 45.0625 54.296875 48.78125 52.59375 
z
" id="DejaVuSans-99"/>
       <path d="M 44.28125 53.078125 
L 44.28125 44.578125 
Q 40.484375 46.53125 36.375 47.5 
Q 32.28125 48.484375 27.875 48.484375 
Q 21.1875 48.484375 17.84375 46.4375 
Q 14.5 44.390625 14.5 40.28125 
Q 14.5 37.15625 16.890625 35.375 
Q 19.28125 33.59375 26.515625 31.984375 
L 29.59375 31.296875 
Q 39.15625 29.25 43.1875 25.515625 
Q 47.21875 21.78125 47.21875 15.09375 
Q 47.21875 7.46875 41.1875 3.015625 
Q 35.15625 -1.421875 24.609375 -1.421875 
Q 20.21875 -1.421875 15.453125 -0.5625 
Q 10.6875 0.296875 5.421875 2 
L 5.421875 11.28125 
Q 10.40625 8.6875 15.234375 7.390625 
Q 20.0625 6.109375 24.8125 6.109375 
Q 31.15625 6.109375 34.5625 8.28125 
Q 37.984375 10.453125 37.984375 14.40625 
Q 37.984375 18.0625 35.515625 20.015625 
Q 33.0625 21.96875 24.703125 23.78125 
L 21.578125 24.515625 
Q 13.234375 26.265625 9.515625 29.90625 
Q 5.8125 33.546875 5.8125 39.890625 
Q 5.8125 47.609375 11.28125 51.796875 
Q 16.75 56 26.8125 56 
Q 31.78125 56 36.171875 55.265625 
Q 40.578125 54.546875 44.28125 53.078125 
z
" id="DejaVuSans-115"/>
       <path d="M 45.40625 46.390625 
L 45.40625 75.984375 
L 54.390625 75.984375 
L 54.390625 0 
L 45.40625 0 
L 45.40625 8.203125 
Q 42.578125 3.328125 38.25 0.953125 
Q 33.9375 -1.421875 27.875 -1.421875 
Q 17.96875 -1.421875 11.734375 6.484375 
Q 5.515625 14.40625 5.515625 27.296875 
Q 5.515625 40.1875 11.734375 48.09375 
Q 17.96875 56 27.875 56 
Q 33.9375 56 38.25 53.625 
Q 42.578125 51.265625 45.40625 46.390625 
z
M 14.796875 27.296875 
Q 14.796875 17.390625 18.875 11.75 
Q 22.953125 6.109375 30.078125 6.109375 
Q 37.203125 6.109375 41.296875 11.75 
Q 45.40625 17.390625 45.40625 27.296875 
Q 45.40625 37.203125 41.296875 42.84375 
Q 37.203125 48.484375 30.078125 48.484375 
Q 22.953125 48.484375 18.875 42.84375 
Q 14.796875 37.203125 14.796875 27.296875 
z
" id="DejaVuSans-100"/>
       <path d="M 9.421875 54.6875 
L 18.40625 54.6875 
L 18.40625 0 
L 9.421875 0 
z
M 9.421875 75.984375 
L 18.40625 75.984375 
L 18.40625 64.59375 
L 9.421875 64.59375 
z
" id="DejaVuSans-105"/>
       <path d="M 54.890625 33.015625 
L 54.890625 0 
L 45.90625 0 
L 45.90625 32.71875 
Q 45.90625 40.484375 42.875 44.328125 
Q 39.84375 48.1875 33.796875 48.1875 
Q 26.515625 48.1875 22.3125 43.546875 
Q 18.109375 38.921875 18.109375 30.90625 
L 18.109375 0 
L 9.078125 0 
L 9.078125 54.6875 
L 18.109375 54.6875 
L 18.109375 46.1875 
Q 21.34375 51.125 25.703125 53.5625 
Q 30.078125 56 35.796875 56 
Q 45.21875 56 50.046875 50.171875 
Q 54.890625 44.34375 54.890625 33.015625 
z
" id="DejaVuSans-110"/>
       <path d="M 18.3125 70.21875 
L 18.3125 54.6875 
L 36.8125 54.6875 
L 36.8125 47.703125 
L 18.3125 47.703125 
L 18.3125 18.015625 
Q 18.3125 11.328125 20.140625 9.421875 
Q 21.96875 7.515625 27.59375 7.515625 
L 36.8125 7.515625 
L 36.8125 0 
L 27.59375 0 
Q 17.1875 0 13.234375 3.875 
Q 9.28125 7.765625 9.28125 18.015625 
L 9.28125 47.703125 
L 2.6875 47.703125 
L 2.6875 54.6875 
L 9.28125 54.6875 
L 9.28125 70.21875 
z
" id="DejaVuSans-116"/>
       <path d="M 34.28125 27.484375 
Q 23.390625 27.484375 19.1875 25 
Q 14.984375 22.515625 14.984375 16.5 
Q 14.984375 11.71875 18.140625 8.90625 
Q 21.296875 6.109375 26.703125 6.109375 
Q 34.1875 6.109375 38.703125 11.40625 
Q 43.21875 16.703125 43.21875 25.484375 
L 43.21875 27.484375 
z
M 52.203125 31.203125 
L 52.203125 0 
L 43.21875 0 
L 43.21875 8.296875 
Q 40.140625 3.328125 35.546875 0.953125 
Q 30.953125 -1.421875 24.3125 -1.421875 
Q 15.921875 -1.421875 10.953125 3.296875 
Q 6 8.015625 6 15.921875 
Q 6 25.140625 12.171875 29.828125 
Q 18.359375 34.515625 30.609375 34.515625 
L 43.21875 34.515625 
L 43.21875 35.40625 
Q 43.21875 41.609375 39.140625 45 
Q 35.0625 48.390625 27.6875 48.390625 
Q 23 48.390625 18.546875 47.265625 
Q 14.109375 46.140625 10.015625 43.890625 
L 10.015625 52.203125 
Q 14.9375 54.109375 19.578125 55.046875 
Q 24.21875 56 28.609375 56 
Q 40.484375 56 46.34375 49.84375 
Q 52.203125 43.703125 52.203125 31.203125 
z
" id="DejaVuSans-97"/>
       <path d="M 8.59375 75.984375 
L 29.296875 75.984375 
L 29.296875 69 
L 17.578125 69 
L 17.578125 -6.203125 
L 29.296875 -6.203125 
L 29.296875 -13.1875 
L 8.59375 -13.1875 
z
" id="DejaVuSans-91"/>
       <path d="M 54.890625 54.6875 
L 35.109375 28.078125 
L 55.90625 0 
L 45.3125 0 
L 29.390625 21.484375 
L 13.484375 0 
L 2.875 0 
L 24.125 28.609375 
L 4.6875 54.6875 
L 15.28125 54.6875 
L 29.78125 35.203125 
L 44.28125 54.6875 
z
" id="DejaVuSans-120"/>
       <path d="M 30.421875 75.984375 
L 30.421875 -13.1875 
L 9.71875 -13.1875 
L 9.71875 -6.203125 
L 21.390625 -6.203125 
L 21.390625 69 
L 9.71875 69 
L 9.71875 75.984375 
z
" id="DejaVuSans-93"/>
      </defs>
      <use xlink:href="#DejaVuSans-78"/>
      <use x="74.804688" xlink:href="#DejaVuSans-117"/>
      <use x="138.183594" xlink:href="#DejaVuSans-109"/>
      <use x="235.595703" xlink:href="#DejaVuSans-98"/>
      <use x="299.072266" xlink:href="#DejaVuSans-101"/>
      <use x="360.595703" xlink:href="#DejaVuSans-114"/>
      <use x="401.708984" xlink:href="#DejaVuSans-32"/>
      <use x="433.496094" xlink:href="#DejaVuSans-111"/>
      <use x="494.677734" xlink:href="#DejaVuSans-102"/>
      <use x="529.882812" xlink:href="#DejaVuSans-32"/>
      <use x="561.669922" xlink:href="#DejaVuSans-112"/>
      <use x="625.146484" xlink:href="#DejaVuSans-114"/>
      <use x="664.009766" xlink:href="#DejaVuSans-111"/>
      <use x="725.191406" xlink:href="#DejaVuSans-99"/>
      <use x="780.171875" xlink:href="#DejaVuSans-101"/>
      <use x="841.695312" xlink:href="#DejaVuSans-115"/>
      <use x="893.794922" xlink:href="#DejaVuSans-115"/>
      <use x="945.894531" xlink:href="#DejaVuSans-101"/>
      <use x="1007.417969" xlink:href="#DejaVuSans-100"/>
      <use x="1070.894531" xlink:href="#DejaVuSans-32"/>
      <use x="1102.681641" xlink:href="#DejaVuSans-105"/>
      <use x="1130.464844" xlink:href="#DejaVuSans-110"/>
      <use x="1193.84375" xlink:href="#DejaVuSans-115"/>
      <use x="1245.943359" xlink:href="#DejaVuSans-116"/>
      <use x="1285.152344" xlink:href="#DejaVuSans-97"/>
      <use x="1346.431641" xlink:href="#DejaVuSans-110"/>
      <use x="1409.810547" xlink:href="#DejaVuSans-99"/>
      <use x="1464.791016" xlink:href="#DejaVuSans-101"/>
      <use x="1526.314453" xlink:href="#DejaVuSans-115"/>
      <use x="1578.414062" xlink:href="#DejaVuSans-32"/>
      <use x="1610.201172" xlink:href="#DejaVuSans-91"/>
      <use x="1649.214844" xlink:href="#DejaVuSans-120"/>
      <use x="1708.394531" xlink:href="#DejaVuSans-49"/>
      <use x="1772.017578" xlink:href="#DejaVuSans-48"/>
      <use x="1835.640625" xlink:href="#DejaVuSans-48"/>
      <use x="1899.263672" xlink:href="#DejaVuSans-48"/>
      <use x="1962.886719" xlink:href="#DejaVuSans-93"/>
     </g>
    </g>
   </g>
   <g id="matplotlib.axis_2">
    <g id="ytick_1">
     <g id="line2d_10">
      <defs>
       <path d="M 0 0 
L -3.5 0 
" id="m0271c00ee7" style="stroke:#000000;stroke-width:0.8;"/>
      </defs>
      <g>
       <use style="stroke:#000000;stroke-width:0.8;" x="104.85" xlink:href="#m0271c00ee7" y="376.651813"/>
      </g>
     </g>
     <g id="text_11">
      <!-- 0.0 -->
      <g transform="translate(77.175937 381.590797)scale(0.13 -0.13)">
       <defs>
        <path d="M 10.6875 12.40625 
L 21 12.40625 
L 21 0 
L 10.6875 0 
z
" id="DejaVuSans-46"/>
       </defs>
       <use xlink:href="#DejaVuSans-48"/>
       <use x="63.623047" xlink:href="#DejaVuSans-46"/>
       <use x="95.410156" xlink:href="#DejaVuSans-48"/>
      </g>
     </g>
    </g>
    <g id="ytick_2">
     <g id="line2d_11">
      <g>
       <use style="stroke:#000000;stroke-width:0.8;" x="104.85" xlink:href="#m0271c00ee7" y="351.451813"/>
      </g>
     </g>
     <g id="text_12">
      <!-- 0.1 -->
      <g transform="translate(77.175937 356.390797)scale(0.13 -0.13)">
       <use xlink:href="#DejaVuSans-48"/>
       <use x="63.623047" xlink:href="#DejaVuSans-46"/>
       <use x="95.410156" xlink:href="#DejaVuSans-49"/>
      </g>
     </g>
    </g>
    <g id="ytick_3">
     <g id="line2d_12">
      <g>
       <use style="stroke:#000000;stroke-width:0.8;" x="104.85" xlink:href="#m0271c00ee7" y="326.251813"/>
      </g>
     </g>
     <g id="text_13">
      <!-- 0.2 -->
      <g transform="translate(77.175937 331.190797)scale(0.13 -0.13)">
       <use xlink:href="#DejaVuSans-48"/>
       <use x="63.623047" xlink:href="#DejaVuSans-46"/>
       <use x="95.410156" xlink:href="#DejaVuSans-50"/>
      </g>
     </g>
    </g>
    <g id="ytick_4">
     <g id="line2d_13">
      <g>
       <use style="stroke:#000000;stroke-width:0.8;" x="104.85" xlink:href="#m0271c00ee7" y="301.051812"/>
      </g>
     </g>
     <g id="text_14">
      <!-- 0.3 -->
      <g transform="translate(77.175937 305.990797)scale(0.13 -0.13)">
       <defs>
        <path d="M 40.578125 39.3125 
Q 47.65625 37.796875 51.625 33 
Q 55.609375 28.21875 55.609375 21.1875 
Q 55.609375 10.40625 48.1875 4.484375 
Q 40.765625 -1.421875 27.09375 -1.421875 
Q 22.515625 -1.421875 17.65625 -0.515625 
Q 12.796875 0.390625 7.625 2.203125 
L 7.625 11.71875 
Q 11.71875 9.328125 16.59375 8.109375 
Q 21.484375 6.890625 26.8125 6.890625 
Q 36.078125 6.890625 40.9375 10.546875 
Q 45.796875 14.203125 45.796875 21.1875 
Q 45.796875 27.640625 41.28125 31.265625 
Q 36.765625 34.90625 28.71875 34.90625 
L 20.21875 34.90625 
L 20.21875 43.015625 
L 29.109375 43.015625 
Q 36.375 43.015625 40.234375 45.921875 
Q 44.09375 48.828125 44.09375 54.296875 
Q 44.09375 59.90625 40.109375 62.90625 
Q 36.140625 65.921875 28.71875 65.921875 
Q 24.65625 65.921875 20.015625 65.03125 
Q 15.375 64.15625 9.8125 62.3125 
L 9.8125 71.09375 
Q 15.4375 72.65625 20.34375 73.4375 
Q 25.25 74.21875 29.59375 74.21875 
Q 40.828125 74.21875 47.359375 69.109375 
Q 53.90625 64.015625 53.90625 55.328125 
Q 53.90625 49.265625 50.4375 45.09375 
Q 46.96875 40.921875 40.578125 39.3125 
z
" id="DejaVuSans-51"/>
       </defs>
       <use xlink:href="#DejaVuSans-48"/>
       <use x="63.623047" xlink:href="#DejaVuSans-46"/>
       <use x="95.410156" xlink:href="#DejaVuSans-51"/>
      </g>
     </g>
    </g>
    <g id="ytick_5">
     <g id="line2d_14">
      <g>
       <use style="stroke:#000000;stroke-width:0.8;" x="104.85" xlink:href="#m0271c00ee7" y="275.851812"/>
      </g>
     </g>
     <g id="text_15">
      <!-- 0.4 -->
      <g transform="translate(77.175937 280.790797)scale(0.13 -0.13)">
       <defs>
        <path d="M 37.796875 64.3125 
L 12.890625 25.390625 
L 37.796875 25.390625 
z
M 35.203125 72.90625 
L 47.609375 72.90625 
L 47.609375 25.390625 
L 58.015625 25.390625 
L 58.015625 17.1875 
L 47.609375 17.1875 
L 47.609375 0 
L 37.796875 0 
L 37.796875 17.1875 
L 4.890625 17.1875 
L 4.890625 26.703125 
z
" id="DejaVuSans-52"/>
       </defs>
       <use xlink:href="#DejaVuSans-48"/>
       <use x="63.623047" xlink:href="#DejaVuSans-46"/>
       <use x="95.410156" xlink:href="#DejaVuSans-52"/>
      </g>
     </g>
    </g>
    <g id="ytick_6">
     <g id="line2d_15">
      <g>
       <use style="stroke:#000000;stroke-width:0.8;" x="104.85" xlink:href="#m0271c00ee7" y="250.651813"/>
      </g>
     </g>
     <g id="text_16">
      <!-- 0.5 -->
      <g transform="translate(77.175937 255.590797)scale(0.13 -0.13)">
       <use xlink:href="#DejaVuSans-48"/>
       <use x="63.623047" xlink:href="#DejaVuSans-46"/>
       <use x="95.410156" xlink:href="#DejaVuSans-53"/>
      </g>
     </g>
    </g>
    <g id="ytick_7">
     <g id="line2d_16">
      <g>
       <use style="stroke:#000000;stroke-width:0.8;" x="104.85" xlink:href="#m0271c00ee7" y="225.451812"/>
      </g>
     </g>
     <g id="text_17">
      <!-- 0.6 -->
      <g transform="translate(77.175937 230.390797)scale(0.13 -0.13)">
       <defs>
        <path d="M 33.015625 40.375 
Q 26.375 40.375 22.484375 35.828125 
Q 18.609375 31.296875 18.609375 23.390625 
Q 18.609375 15.53125 22.484375 10.953125 
Q 26.375 6.390625 33.015625 6.390625 
Q 39.65625 6.390625 43.53125 10.953125 
Q 47.40625 15.53125 47.40625 23.390625 
Q 47.40625 31.296875 43.53125 35.828125 
Q 39.65625 40.375 33.015625 40.375 
z
M 52.59375 71.296875 
L 52.59375 62.3125 
Q 48.875 64.0625 45.09375 64.984375 
Q 41.3125 65.921875 37.59375 65.921875 
Q 27.828125 65.921875 22.671875 59.328125 
Q 17.53125 52.734375 16.796875 39.40625 
Q 19.671875 43.65625 24.015625 45.921875 
Q 28.375 48.1875 33.59375 48.1875 
Q 44.578125 48.1875 50.953125 41.515625 
Q 57.328125 34.859375 57.328125 23.390625 
Q 57.328125 12.15625 50.6875 5.359375 
Q 44.046875 -1.421875 33.015625 -1.421875 
Q 20.359375 -1.421875 13.671875 8.265625 
Q 6.984375 17.96875 6.984375 36.375 
Q 6.984375 53.65625 15.1875 63.9375 
Q 23.390625 74.21875 37.203125 74.21875 
Q 40.921875 74.21875 44.703125 73.484375 
Q 48.484375 72.75 52.59375 71.296875 
z
" id="DejaVuSans-54"/>
       </defs>
       <use xlink:href="#DejaVuSans-48"/>
       <use x="63.623047" xlink:href="#DejaVuSans-46"/>
       <use x="95.410156" xlink:href="#DejaVuSans-54"/>
      </g>
     </g>
    </g>
    <g id="ytick_8">
     <g id="line2d_17">
      <g>
       <use style="stroke:#000000;stroke-width:0.8;" x="104.85" xlink:href="#m0271c00ee7" y="200.251812"/>
      </g>
     </g>
     <g id="text_18">
      <!-- 0.7 -->
      <g transform="translate(77.175937 205.190797)scale(0.13 -0.13)">
       <use xlink:href="#DejaVuSans-48"/>
       <use x="63.623047" xlink:href="#DejaVuSans-46"/>
       <use x="95.410156" xlink:href="#DejaVuSans-55"/>
      </g>
     </g>
    </g>
    <g id="ytick_9">
     <g id="line2d_18">
      <g>
       <use style="stroke:#000000;stroke-width:0.8;" x="104.85" xlink:href="#m0271c00ee7" y="175.051813"/>
      </g>
     </g>
     <g id="text_19">
      <!-- 0.8 -->
      <g transform="translate(77.175937 179.990797)scale(0.13 -0.13)">
       <defs>
        <path d="M 31.78125 34.625 
Q 24.75 34.625 20.71875 30.859375 
Q 16.703125 27.09375 16.703125 20.515625 
Q 16.703125 13.921875 20.71875 10.15625 
Q 24.75 6.390625 31.78125 6.390625 
Q 38.8125 6.390625 42.859375 10.171875 
Q 46.921875 13.96875 46.921875 20.515625 
Q 46.921875 27.09375 42.890625 30.859375 
Q 38.875 34.625 31.78125 34.625 
z
M 21.921875 38.8125 
Q 15.578125 40.375 12.03125 44.71875 
Q 8.5 49.078125 8.5 55.328125 
Q 8.5 64.0625 14.71875 69.140625 
Q 20.953125 74.21875 31.78125 74.21875 
Q 42.671875 74.21875 48.875 69.140625 
Q 55.078125 64.0625 55.078125 55.328125 
Q 55.078125 49.078125 51.53125 44.71875 
Q 48 40.375 41.703125 38.8125 
Q 48.828125 37.15625 52.796875 32.3125 
Q 56.78125 27.484375 56.78125 20.515625 
Q 56.78125 9.90625 50.3125 4.234375 
Q 43.84375 -1.421875 31.78125 -1.421875 
Q 19.734375 -1.421875 13.25 4.234375 
Q 6.78125 9.90625 6.78125 20.515625 
Q 6.78125 27.484375 10.78125 32.3125 
Q 14.796875 37.15625 21.921875 38.8125 
z
M 18.3125 54.390625 
Q 18.3125 48.734375 21.84375 45.5625 
Q 25.390625 42.390625 31.78125 42.390625 
Q 38.140625 42.390625 41.71875 45.5625 
Q 45.3125 48.734375 45.3125 54.390625 
Q 45.3125 60.0625 41.71875 63.234375 
Q 38.140625 66.40625 31.78125 66.40625 
Q 25.390625 66.40625 21.84375 63.234375 
Q 18.3125 60.0625 18.3125 54.390625 
z
" id="DejaVuSans-56"/>
       </defs>
       <use xlink:href="#DejaVuSans-48"/>
       <use x="63.623047" xlink:href="#DejaVuSans-46"/>
       <use x="95.410156" xlink:href="#DejaVuSans-56"/>
      </g>
     </g>
    </g>
    <g id="ytick_10">
     <g id="line2d_19">
      <g>
       <use style="stroke:#000000;stroke-width:0.8;" x="104.85" xlink:href="#m0271c00ee7" y="149.851813"/>
      </g>
     </g>
     <g id="text_20">
      <!-- 0.9 -->
      <g transform="translate(77.175937 154.790797)scale(0.13 -0.13)">
       <defs>
        <path d="M 10.984375 1.515625 
L 10.984375 10.5 
Q 14.703125 8.734375 18.5 7.8125 
Q 22.3125 6.890625 25.984375 6.890625 
Q 35.75 6.890625 40.890625 13.453125 
Q 46.046875 20.015625 46.78125 33.40625 
Q 43.953125 29.203125 39.59375 26.953125 
Q 35.25 24.703125 29.984375 24.703125 
Q 19.046875 24.703125 12.671875 31.3125 
Q 6.296875 37.9375 6.296875 49.421875 
Q 6.296875 60.640625 12.9375 67.421875 
Q 19.578125 74.21875 30.609375 74.21875 
Q 43.265625 74.21875 49.921875 64.515625 
Q 56.59375 54.828125 56.59375 36.375 
Q 56.59375 19.140625 48.40625 8.859375 
Q 40.234375 -1.421875 26.421875 -1.421875 
Q 22.703125 -1.421875 18.890625 -0.6875 
Q 15.09375 0.046875 10.984375 1.515625 
z
M 30.609375 32.421875 
Q 37.25 32.421875 41.125 36.953125 
Q 45.015625 41.5 45.015625 49.421875 
Q 45.015625 57.28125 41.125 61.84375 
Q 37.25 66.40625 30.609375 66.40625 
Q 23.96875 66.40625 20.09375 61.84375 
Q 16.21875 57.28125 16.21875 49.421875 
Q 16.21875 41.5 20.09375 36.953125 
Q 23.96875 32.421875 30.609375 32.421875 
z
" id="DejaVuSans-57"/>
       </defs>
       <use xlink:href="#DejaVuSans-48"/>
       <use x="63.623047" xlink:href="#DejaVuSans-46"/>
       <use x="95.410156" xlink:href="#DejaVuSans-57"/>
      </g>
     </g>
    </g>
    <g id="ytick_11">
     <g id="line2d_20">
      <g>
       <use style="stroke:#000000;stroke-width:0.8;" x="104.85" xlink:href="#m0271c00ee7" y="124.651813"/>
      </g>
     </g>
     <g id="text_21">
      <!-- 1.0 -->
      <g transform="translate(77.175937 129.590797)scale(0.13 -0.13)">
       <use xlink:href="#DejaVuSans-49"/>
       <use x="63.623047" xlink:href="#DejaVuSans-46"/>
       <use x="95.410156" xlink:href="#DejaVuSans-48"/>
      </g>
     </g>
    </g>
    <g id="text_22">
     <!-- Recall -->
     <g transform="translate(70.472344 270.044156)rotate(-90)scale(0.13 -0.13)">
      <defs>
       <path d="M 44.390625 34.1875 
Q 47.5625 33.109375 50.5625 29.59375 
Q 53.5625 26.078125 56.59375 19.921875 
L 66.609375 0 
L 56 0 
L 46.6875 18.703125 
Q 43.0625 26.03125 39.671875 28.421875 
Q 36.28125 30.8125 30.421875 30.8125 
L 19.671875 30.8125 
L 19.671875 0 
L 9.8125 0 
L 9.8125 72.90625 
L 32.078125 72.90625 
Q 44.578125 72.90625 50.734375 67.671875 
Q 56.890625 62.453125 56.890625 51.90625 
Q 56.890625 45.015625 53.6875 40.46875 
Q 50.484375 35.9375 44.390625 34.1875 
z
M 19.671875 64.796875 
L 19.671875 38.921875 
L 32.078125 38.921875 
Q 39.203125 38.921875 42.84375 42.21875 
Q 46.484375 45.515625 46.484375 51.90625 
Q 46.484375 58.296875 42.84375 61.546875 
Q 39.203125 64.796875 32.078125 64.796875 
z
" id="DejaVuSans-82"/>
       <path d="M 9.421875 75.984375 
L 18.40625 75.984375 
L 18.40625 0 
L 9.421875 0 
z
" id="DejaVuSans-108"/>
      </defs>
      <use xlink:href="#DejaVuSans-82"/>
      <use x="64.982422" xlink:href="#DejaVuSans-101"/>
      <use x="126.505859" xlink:href="#DejaVuSans-99"/>
      <use x="181.486328" xlink:href="#DejaVuSans-97"/>
      <use x="242.765625" xlink:href="#DejaVuSans-108"/>
      <use x="270.548828" xlink:href="#DejaVuSans-108"/>
     </g>
    </g>
   </g>
   <g id="line2d_21"/>
   <g id="line2d_22"/>
   <g id="line2d_23"/>
   <g id="line2d_24"/>
   <g id="line2d_25"/>
   <g id="line2d_26">
    <path clip-path="url(#p4bdd010db7)" d="M 122.604545 131.717233 
L 124.407037 143.550376 
L 126.209529 142.6953 
L 128.012021 141.022266 
L 129.814513 140.611811 
L 131.617005 139.38363 
L 133.419497 139.706051 
L 135.221989 139.353397 
L 137.024481 138.297207 
L 140.629465 136.691944 
L 142.431957 135.688599 
L 144.234449 135.957959 
L 146.03694 135.362142 
L 149.641924 134.619016 
L 153.246908 135.175808 
L 155.0494 135.117732 
L 156.851892 135.200206 
L 158.654384 135.11502 
L 160.456876 134.172774 
L 162.259368 133.913629 
L 164.06186 134.274483 
L 167.666844 133.522778 
L 169.469335 132.938603 
L 171.271827 132.581498 
L 173.074319 132.967858 
L 176.679303 133.407929 
L 178.481795 134.002269 
L 180.284287 133.441135 
L 182.086779 134.221321 
L 183.889271 134.23161 
L 185.691763 134.4506 
L 187.494255 133.879352 
L 191.099239 133.134776 
L 192.901731 132.926901 
L 194.704222 133.040634 
L 196.506714 132.561891 
L 198.309206 132.59731 
L 200.111698 132.135556 
L 201.91419 131.870377 
L 205.519174 132.34685 
L 210.92665 132.213657 
L 214.531634 132.077793 
L 216.334126 132.431592 
L 218.136617 131.896921 
L 219.939109 131.7644 
L 221.741601 131.444382 
L 223.544093 131.576597 
L 225.346585 131.514426 
L 227.149077 131.79747 
L 228.951569 131.826693 
L 230.754061 131.563743 
L 234.359045 131.261657 
L 236.161537 131.019991 
L 237.964029 131.021316 
L 239.766521 130.901337 
L 241.569012 130.635073 
L 243.371504 130.872765 
L 245.173996 130.702661 
L 246.976488 133.278775 
L 248.77898 136.131605 
L 250.581472 140.667605 
L 252.383964 145.526066 
L 255.988948 157.351122 
L 257.79144 164.26296 
L 261.396424 175.854428 
L 263.198916 183.595791 
L 265.001407 190.456908 
L 268.606391 206.128887 
L 274.013867 231.958256 
L 277.618851 249.08505 
L 281.223835 266.230298 
L 283.026327 272.655939 
L 284.828819 279.676208 
L 286.631311 284.422615 
L 288.433802 287.738567 
L 290.236294 291.643177 
L 293.841278 297.356882 
L 295.64377 301.121408 
L 297.446262 306.23626 
L 299.248754 308.409727 
L 302.853738 313.933853 
L 304.65623 315.944375 
L 306.458722 317.31254 
L 308.261214 318.460416 
L 310.063706 319.9233 
L 311.866198 320.827671 
L 313.668689 323.648092 
L 315.471181 325.075937 
L 317.273673 326.208437 
L 319.076165 326.955103 
L 320.878657 326.392642 
L 322.681149 326.686234 
L 324.483641 327.509255 
L 326.286133 327.14092 
L 328.088625 328.516753 
L 329.891117 328.217741 
L 331.693609 328.191014 
L 333.496101 327.520302 
L 335.298593 326.573706 
L 337.101084 326.76409 
L 338.903576 326.145036 
L 342.50856 327.14065 
L 344.311052 327.708217 
L 346.113544 327.030439 
L 347.916036 327.410236 
L 349.718528 326.096619 
L 351.52102 326.569742 
L 353.323512 325.791489 
L 356.928496 326.452349 
L 358.730988 326.967804 
L 360.533479 328.250783 
L 362.335971 328.606932 
L 364.138463 327.907547 
L 365.940955 328.12725 
L 367.743447 328.699977 
L 369.545939 328.104561 
L 371.348431 329.710444 
L 373.150923 330.280219 
L 374.953415 330.731677 
L 376.755907 330.708115 
L 378.558399 329.554238 
L 380.360891 329.199508 
L 382.163383 329.379508 
L 383.965874 330.068068 
L 385.768366 329.963068 
L 387.570858 329.022534 
L 389.37335 329.455786 
L 391.175842 327.915786 
L 392.978334 328.176776 
L 394.780826 327.263427 
L 396.583318 325.197518 
L 398.38581 324.4379 
L 400.188302 324.930029 
L 401.990794 326.618048 
L 403.793286 326.521717 
L 405.595778 326.993966 
L 407.398269 326.545501 
L 409.200761 325.372429 
L 411.003253 325.78953 
L 412.805745 325.061323 
L 414.608237 326.301786 
L 416.410729 327.214164 
L 420.015713 326.825608 
L 421.818205 326.499257 
L 423.620697 326.007972 
L 425.423189 326.798021 
L 427.225681 327.725191 
L 429.028173 328.120525 
L 430.830665 328.320772 
L 432.633156 329.374181 
L 434.435648 331.148758 
L 436.23814 330.901913 
L 439.843124 329.087539 
L 441.645616 329.154919 
L 443.448108 329.850443 
L 445.2506 330.778772 
L 447.053092 330.385684 
L 448.855584 331.798675 
L 450.658076 330.906314 
L 452.460568 330.471209 
L 454.26306 330.826356 
L 456.065551 330.185446 
L 459.670535 330.894631 
L 461.473027 330.862916 
L 463.275519 331.895746 
L 465.078011 332.010887 
L 466.880503 331.750352 
L 468.682995 332.526489 
L 470.485487 332.259581 
L 472.287979 332.832551 
L 474.090471 332.063467 
L 475.892963 332.388544 
L 477.695455 332.357337 
L 477.695455 332.357337 
" style="fill:none;stroke:#cc3311;stroke-linecap:square;stroke-width:0.5;"/>
    <defs>
     <path d="M 0 2.5 
C 0.663008 2.5 1.29895 2.236584 1.767767 1.767767 
C 2.236584 1.29895 2.5 0.663008 2.5 0 
C 2.5 -0.663008 2.236584 -1.29895 1.767767 -1.767767 
C 1.29895 -2.236584 0.663008 -2.5 0 -2.5 
C -0.663008 -2.5 -1.29895 -2.236584 -1.767767 -1.767767 
C -2.236584 -1.29895 -2.5 -0.663008 -2.5 0 
C -2.5 0.663008 -2.236584 1.29895 -1.767767 1.767767 
C -1.29895 2.236584 -0.663008 2.5 0 2.5 
z
" id="mf85d1b7ba5" style="stroke:#cc3311;"/>
    </defs>
    <g clip-path="url(#p4bdd010db7)">
     <use style="fill:#cc3311;stroke:#cc3311;" x="122.604545" xlink:href="#mf85d1b7ba5" y="131.717233"/>
     <use style="fill:#cc3311;stroke:#cc3311;" x="140.629465" xlink:href="#mf85d1b7ba5" y="136.691944"/>
     <use style="fill:#cc3311;stroke:#cc3311;" x="158.654384" xlink:href="#mf85d1b7ba5" y="135.11502"/>
     <use style="fill:#cc3311;stroke:#cc3311;" x="176.679303" xlink:href="#mf85d1b7ba5" y="133.407929"/>
     <use style="fill:#cc3311;stroke:#cc3311;" x="194.704222" xlink:href="#mf85d1b7ba5" y="133.040634"/>
     <use style="fill:#cc3311;stroke:#cc3311;" x="212.729142" xlink:href="#mf85d1b7ba5" y="132.168133"/>
     <use style="fill:#cc3311;stroke:#cc3311;" x="230.754061" xlink:href="#mf85d1b7ba5" y="131.563743"/>
     <use style="fill:#cc3311;stroke:#cc3311;" x="248.77898" xlink:href="#mf85d1b7ba5" y="136.131605"/>
     <use style="fill:#cc3311;stroke:#cc3311;" x="266.803899" xlink:href="#mf85d1b7ba5" y="198.185408"/>
     <use style="fill:#cc3311;stroke:#cc3311;" x="284.828819" xlink:href="#mf85d1b7ba5" y="279.676208"/>
     <use style="fill:#cc3311;stroke:#cc3311;" x="302.853738" xlink:href="#mf85d1b7ba5" y="313.933853"/>
     <use style="fill:#cc3311;stroke:#cc3311;" x="320.878657" xlink:href="#mf85d1b7ba5" y="326.392642"/>
     <use style="fill:#cc3311;stroke:#cc3311;" x="338.903576" xlink:href="#mf85d1b7ba5" y="326.145036"/>
     <use style="fill:#cc3311;stroke:#cc3311;" x="356.928496" xlink:href="#mf85d1b7ba5" y="326.452349"/>
     <use style="fill:#cc3311;stroke:#cc3311;" x="374.953415" xlink:href="#mf85d1b7ba5" y="330.731677"/>
     <use style="fill:#cc3311;stroke:#cc3311;" x="392.978334" xlink:href="#mf85d1b7ba5" y="328.176776"/>
     <use style="fill:#cc3311;stroke:#cc3311;" x="411.003253" xlink:href="#mf85d1b7ba5" y="325.78953"/>
     <use style="fill:#cc3311;stroke:#cc3311;" x="429.028173" xlink:href="#mf85d1b7ba5" y="328.120525"/>
     <use style="fill:#cc3311;stroke:#cc3311;" x="447.053092" xlink:href="#mf85d1b7ba5" y="330.385684"/>
     <use style="fill:#cc3311;stroke:#cc3311;" x="465.078011" xlink:href="#mf85d1b7ba5" y="332.010887"/>
    </g>
   </g>
   <g id="line2d_27"/>
   <g id="line2d_28"/>
   <g id="line2d_29"/>
   <g id="line2d_30"/>
   <g id="line2d_31">
    <path clip-path="url(#p4bdd010db7)" d="M 122.604545 124.651813 
L 124.407037 126.188398 
L 126.209529 125.676203 
L 128.012021 125.987673 
L 131.617005 125.542386 
L 137.024481 125.245528 
L 138.826973 125.722327 
L 140.629465 126.013297 
L 144.234449 125.803838 
L 146.03694 125.933315 
L 151.444416 125.707168 
L 158.654384 126.042972 
L 167.666844 125.894667 
L 169.469335 126.159931 
L 171.271827 126.159931 
L 173.074319 126.321469 
L 176.679303 126.103764 
L 189.296747 126.076448 
L 191.099239 125.958691 
L 192.901731 125.716383 
L 194.704222 125.843656 
L 196.506714 125.724788 
L 201.91419 126.106357 
L 203.716682 126.106357 
L 205.519174 125.967093 
L 207.321666 125.967093 
L 209.124158 126.162159 
L 210.92665 126.032262 
L 216.334126 126.395749 
L 218.136617 126.263117 
L 234.359045 126.246904 
L 236.161537 126.01357 
L 237.964029 126.143467 
L 245.173996 126.214214 
L 246.976488 128.516137 
L 248.77898 131.368968 
L 252.383964 141.219905 
L 259.593932 166.211803 
L 261.396424 172.075169 
L 263.198916 180.236533 
L 265.001407 187.277709 
L 268.606391 202.675775 
L 281.223835 262.927254 
L 284.828819 276.973049 
L 286.631311 281.719457 
L 288.433802 285.342725 
L 290.236294 289.229959 
L 293.841278 295.170691 
L 295.64377 299.045744 
L 297.446262 304.285348 
L 299.248754 306.175669 
L 301.051246 309.190262 
L 302.853738 311.697349 
L 304.65623 313.855784 
L 308.261214 316.389353 
L 310.063706 317.852237 
L 311.866198 319.138426 
L 313.668689 322.084598 
L 317.273673 324.907443 
L 319.076165 325.388846 
L 320.878657 324.842517 
L 322.681149 324.896109 
L 324.483641 325.71913 
L 326.286133 325.16719 
L 328.088625 326.543023 
L 331.693609 325.962739 
L 333.496101 325.156543 
L 335.298593 324.493093 
L 338.903576 323.760082 
L 340.706068 324.228856 
L 342.50856 324.872187 
L 344.311052 324.985701 
L 346.113544 324.195423 
L 347.916036 324.433647 
L 349.718528 323.254073 
L 351.52102 323.727195 
L 353.323512 321.847972 
L 356.928496 322.443222 
L 358.730988 322.482767 
L 360.533479 323.073438 
L 362.335971 323.059962 
L 364.138463 322.067553 
L 365.940955 321.880805 
L 367.743447 322.474745 
L 369.545939 321.462181 
L 371.348431 321.585711 
L 373.150923 321.482783 
L 374.953415 319.261514 
L 376.755907 319.04474 
L 378.558399 317.87121 
L 382.163383 317.573035 
L 383.965874 317.944986 
L 385.768366 317.708736 
L 387.570858 316.652606 
L 389.37335 317.399329 
L 391.175842 315.509329 
L 392.978334 314.097085 
L 394.780826 313.767013 
L 396.583318 311.391139 
L 400.188302 310.654068 
L 401.990794 312.619967 
L 403.793286 312.525777 
L 407.398269 314.024268 
L 409.200761 313.049173 
L 411.003253 314.51722 
L 412.805745 313.656732 
L 414.608237 314.098321 
L 416.410729 314.731379 
L 418.213221 313.778438 
L 421.818205 311.301715 
L 423.620697 310.453527 
L 425.423189 310.807775 
L 427.225681 312.246077 
L 429.028173 314.251129 
L 430.830665 313.719302 
L 432.633156 314.649984 
L 434.435648 316.211343 
L 436.23814 316.299675 
L 439.843124 314.352147 
L 441.645616 314.335302 
L 443.448108 314.810622 
L 445.2506 315.806506 
L 447.053092 316.559728 
L 448.855584 317.611955 
L 450.658076 316.621284 
L 452.460568 315.386862 
L 454.26306 316.714803 
L 456.065551 317.451167 
L 457.868043 317.844594 
L 459.670535 317.713903 
L 463.275519 319.287187 
L 466.880503 318.879863 
L 468.682995 319.89009 
L 470.485487 318.04452 
L 472.287979 318.872589 
L 474.090471 316.472792 
L 475.892963 316.284247 
L 477.695455 315.562575 
L 477.695455 315.562575 
" style="fill:none;stroke:#009988;stroke-dasharray:1.85,0.8;stroke-dashoffset:0;stroke-width:0.5;"/>
    <defs>
     <path d="M -2.5 2.5 
L 2.5 2.5 
L 2.5 -2.5 
L -2.5 -2.5 
z
" id="m261bd933d4" style="stroke:#009988;stroke-linejoin:miter;"/>
    </defs>
    <g clip-path="url(#p4bdd010db7)">
     <use style="fill:#009988;stroke:#009988;stroke-linejoin:miter;" x="122.604545" xlink:href="#m261bd933d4" y="124.651813"/>
     <use style="fill:#009988;stroke:#009988;stroke-linejoin:miter;" x="140.629465" xlink:href="#m261bd933d4" y="126.013297"/>
     <use style="fill:#009988;stroke:#009988;stroke-linejoin:miter;" x="158.654384" xlink:href="#m261bd933d4" y="126.042972"/>
     <use style="fill:#009988;stroke:#009988;stroke-linejoin:miter;" x="176.679303" xlink:href="#m261bd933d4" y="126.103764"/>
     <use style="fill:#009988;stroke:#009988;stroke-linejoin:miter;" x="194.704222" xlink:href="#m261bd933d4" y="125.843656"/>
     <use style="fill:#009988;stroke:#009988;stroke-linejoin:miter;" x="212.729142" xlink:href="#m261bd933d4" y="126.135955"/>
     <use style="fill:#009988;stroke:#009988;stroke-linejoin:miter;" x="230.754061" xlink:href="#m261bd933d4" y="126.259655"/>
     <use style="fill:#009988;stroke:#009988;stroke-linejoin:miter;" x="248.77898" xlink:href="#m261bd933d4" y="131.368968"/>
     <use style="fill:#009988;stroke:#009988;stroke-linejoin:miter;" x="266.803899" xlink:href="#m261bd933d4" y="195.00621"/>
     <use style="fill:#009988;stroke:#009988;stroke-linejoin:miter;" x="284.828819" xlink:href="#m261bd933d4" y="276.973049"/>
     <use style="fill:#009988;stroke:#009988;stroke-linejoin:miter;" x="302.853738" xlink:href="#m261bd933d4" y="311.697349"/>
     <use style="fill:#009988;stroke:#009988;stroke-linejoin:miter;" x="320.878657" xlink:href="#m261bd933d4" y="324.842517"/>
     <use style="fill:#009988;stroke:#009988;stroke-linejoin:miter;" x="338.903576" xlink:href="#m261bd933d4" y="323.760082"/>
     <use style="fill:#009988;stroke:#009988;stroke-linejoin:miter;" x="356.928496" xlink:href="#m261bd933d4" y="322.443222"/>
     <use style="fill:#009988;stroke:#009988;stroke-linejoin:miter;" x="374.953415" xlink:href="#m261bd933d4" y="319.261514"/>
     <use style="fill:#009988;stroke:#009988;stroke-linejoin:miter;" x="392.978334" xlink:href="#m261bd933d4" y="314.097085"/>
     <use style="fill:#009988;stroke:#009988;stroke-linejoin:miter;" x="411.003253" xlink:href="#m261bd933d4" y="314.51722"/>
     <use style="fill:#009988;stroke:#009988;stroke-linejoin:miter;" x="429.028173" xlink:href="#m261bd933d4" y="314.251129"/>
     <use style="fill:#009988;stroke:#009988;stroke-linejoin:miter;" x="447.053092" xlink:href="#m261bd933d4" y="316.559728"/>
     <use style="fill:#009988;stroke:#009988;stroke-linejoin:miter;" x="465.078011" xlink:href="#m261bd933d4" y="319.07751"/>
    </g>
   </g>
   <g id="line2d_32"/>
   <g id="line2d_33"/>
   <g id="line2d_34"/>
   <g id="line2d_35"/>
   <g id="line2d_36">
    <path clip-path="url(#p4bdd010db7)" d="M 122.604545 134.072373 
L 124.407037 137.04502 
L 126.209529 135.247284 
L 128.012021 134.301119 
L 129.814513 132.943985 
L 131.617005 132.039229 
L 133.419497 130.983884 
L 135.221989 130.192375 
L 137.024481 129.865417 
L 140.629465 129.793206 
L 142.431957 129.364756 
L 146.03694 129.07632 
L 147.839432 129.114026 
L 149.641924 128.835138 
L 153.246908 129.330894 
L 156.851892 129.101897 
L 160.456876 128.47209 
L 164.06186 128.13719 
L 165.864352 128.256508 
L 167.666844 128.113326 
L 173.074319 128.404872 
L 176.679303 128.581004 
L 178.481795 128.581004 
L 180.284287 128.45985 
L 182.086779 128.709509 
L 183.889271 128.589901 
L 185.691763 128.701406 
L 189.296747 127.959223 
L 191.099239 127.841466 
L 194.704222 127.846174 
L 196.506714 127.486298 
L 198.309206 127.263289 
L 201.91419 127.603872 
L 203.716682 127.72274 
L 205.519174 127.968109 
L 210.92665 127.629527 
L 216.334126 128.352604 
L 218.136617 127.95471 
L 219.939109 127.824813 
L 221.741601 127.839308 
L 223.544093 127.716978 
L 225.346585 127.938031 
L 232.556553 127.894958 
L 234.359045 128.165925 
L 237.964029 127.560108 
L 239.766521 127.44124 
L 241.569012 127.182108 
L 245.173996 127.737723 
L 248.77898 132.797149 
L 252.383964 142.277645 
L 255.988948 153.595684 
L 257.79144 160.166981 
L 259.593932 166.245928 
L 261.396424 171.638737 
L 263.198916 179.656919 
L 265.001407 186.113948 
L 270.408883 209.937693 
L 281.223835 261.6214 
L 284.828819 275.178981 
L 286.631311 280.039934 
L 288.433802 283.537202 
L 290.236294 287.891103 
L 293.841278 294.256012 
L 295.64377 298.131065 
L 297.446262 303.370669 
L 299.248754 305.262599 
L 301.051246 308.64778 
L 302.853738 310.794836 
L 304.65623 312.586228 
L 306.458722 313.843349 
L 308.261214 314.877712 
L 310.063706 316.18504 
L 311.866198 316.623152 
L 313.668689 319.301239 
L 315.471181 320.729084 
L 317.273673 321.752834 
L 319.076165 322.101606 
L 320.878657 321.680029 
L 322.681149 321.613621 
L 324.483641 322.428599 
L 326.286133 321.770777 
L 328.088625 323.280653 
L 329.891117 322.981642 
L 331.693609 322.827642 
L 333.496101 321.999983 
L 335.298593 321.478106 
L 337.101084 320.837721 
L 338.903576 320.598808 
L 340.706068 321.436099 
L 342.50856 322.07943 
L 344.311052 322.41997 
L 346.113544 321.785248 
L 347.916036 322.871549 
L 349.718528 321.82006 
L 351.52102 321.949546 
L 353.323512 320.677313 
L 355.126004 321.215208 
L 356.928496 321.545194 
L 358.730988 322.277467 
L 360.533479 322.448335 
L 362.335971 322.998923 
L 364.138463 322.006514 
L 367.743447 322.342884 
L 369.545939 321.932867 
L 371.348431 323.291691 
L 373.150923 324.357722 
L 374.953415 324.291684 
L 376.755907 324.429524 
L 378.558399 323.255995 
L 380.360891 323.136806 
L 382.163383 322.829306 
L 383.965874 323.086711 
L 385.768366 322.990461 
L 387.570858 322.277968 
L 389.37335 323.182701 
L 391.175842 321.656701 
L 392.978334 321.389911 
L 394.780826 320.221849 
L 396.583318 319.258912 
L 398.38581 318.463122 
L 400.188302 318.709813 
L 401.990794 320.26926 
L 403.793286 320.640667 
L 405.595778 321.333968 
L 407.398269 320.858648 
L 409.200761 319.762947 
L 411.003253 320.69166 
L 412.805745 320.073017 
L 414.608237 321.338905 
L 416.410729 322.233953 
L 418.213221 322.265718 
L 420.015713 322.138445 
L 421.818205 321.602803 
L 423.620697 320.597115 
L 427.225681 322.461636 
L 429.028173 323.098225 
L 430.830665 322.955191 
L 432.633156 323.814281 
L 434.435648 325.535134 
L 436.23814 325.685177 
L 438.040632 324.76895 
L 439.843124 323.498524 
L 441.645616 323.195315 
L 443.448108 323.794164 
L 445.2506 324.872857 
L 447.053092 324.247917 
L 448.855584 325.660908 
L 450.658076 324.770708 
L 452.460568 324.028387 
L 454.26306 324.491622 
L 456.065551 323.759804 
L 457.868043 324.474423 
L 459.670535 325.439529 
L 461.473027 325.413478 
L 463.275519 326.425176 
L 466.880503 327.330019 
L 468.682995 328.061837 
L 470.485487 327.728203 
L 472.287979 328.086142 
L 474.090471 327.110692 
L 475.892963 327.598309 
L 477.695455 327.805058 
L 477.695455 327.805058 
" style="fill:none;stroke:#0077bb;stroke-dasharray:3.2,0.8,0.5,0.8;stroke-dashoffset:0;stroke-width:0.5;"/>
    <defs>
     <path d="M 0 -2.5 
L -2.5 2.5 
L 2.5 2.5 
z
" id="m1dc7d58d57" style="stroke:#0077bb;stroke-linejoin:miter;"/>
    </defs>
    <g clip-path="url(#p4bdd010db7)">
     <use style="fill:#0077bb;stroke:#0077bb;stroke-linejoin:miter;" x="122.604545" xlink:href="#m1dc7d58d57" y="134.072373"/>
     <use style="fill:#0077bb;stroke:#0077bb;stroke-linejoin:miter;" x="140.629465" xlink:href="#m1dc7d58d57" y="129.793206"/>
     <use style="fill:#0077bb;stroke:#0077bb;stroke-linejoin:miter;" x="158.654384" xlink:href="#m1dc7d58d57" y="128.764911"/>
     <use style="fill:#0077bb;stroke:#0077bb;stroke-linejoin:miter;" x="176.679303" xlink:href="#m1dc7d58d57" y="128.581004"/>
     <use style="fill:#0077bb;stroke:#0077bb;stroke-linejoin:miter;" x="194.704222" xlink:href="#m1dc7d58d57" y="127.846174"/>
     <use style="fill:#0077bb;stroke:#0077bb;stroke-linejoin:miter;" x="212.729142" xlink:href="#m1dc7d58d57" y="127.836914"/>
     <use style="fill:#0077bb;stroke:#0077bb;stroke-linejoin:miter;" x="230.754061" xlink:href="#m1dc7d58d57" y="128.010554"/>
     <use style="fill:#0077bb;stroke:#0077bb;stroke-linejoin:miter;" x="248.77898" xlink:href="#m1dc7d58d57" y="132.797149"/>
     <use style="fill:#0077bb;stroke:#0077bb;stroke-linejoin:miter;" x="266.803899" xlink:href="#m1dc7d58d57" y="193.952975"/>
     <use style="fill:#0077bb;stroke:#0077bb;stroke-linejoin:miter;" x="284.828819" xlink:href="#m1dc7d58d57" y="275.178981"/>
     <use style="fill:#0077bb;stroke:#0077bb;stroke-linejoin:miter;" x="302.853738" xlink:href="#m1dc7d58d57" y="310.794836"/>
     <use style="fill:#0077bb;stroke:#0077bb;stroke-linejoin:miter;" x="320.878657" xlink:href="#m1dc7d58d57" y="321.680029"/>
     <use style="fill:#0077bb;stroke:#0077bb;stroke-linejoin:miter;" x="338.903576" xlink:href="#m1dc7d58d57" y="320.598808"/>
     <use style="fill:#0077bb;stroke:#0077bb;stroke-linejoin:miter;" x="356.928496" xlink:href="#m1dc7d58d57" y="321.545194"/>
     <use style="fill:#0077bb;stroke:#0077bb;stroke-linejoin:miter;" x="374.953415" xlink:href="#m1dc7d58d57" y="324.291684"/>
     <use style="fill:#0077bb;stroke:#0077bb;stroke-linejoin:miter;" x="392.978334" xlink:href="#m1dc7d58d57" y="321.389911"/>
     <use style="fill:#0077bb;stroke:#0077bb;stroke-linejoin:miter;" x="411.003253" xlink:href="#m1dc7d58d57" y="320.69166"/>
     <use style="fill:#0077bb;stroke:#0077bb;stroke-linejoin:miter;" x="429.028173" xlink:href="#m1dc7d58d57" y="323.098225"/>
     <use style="fill:#0077bb;stroke:#0077bb;stroke-linejoin:miter;" x="447.053092" xlink:href="#m1dc7d58d57" y="324.247917"/>
     <use style="fill:#0077bb;stroke:#0077bb;stroke-linejoin:miter;" x="465.078011" xlink:href="#m1dc7d58d57" y="326.849377"/>
    </g>
   </g>
   <g id="line2d_37"/>
   <g id="line2d_38"/>
   <g id="line2d_39"/>
   <g id="line2d_40"/>
   <g id="line2d_41">
    <path clip-path="url(#p4bdd010db7)" d="M 122.604545 124.651813 
L 124.407037 126.188398 
L 126.209529 125.676203 
L 128.012021 125.987673 
L 131.617005 125.542386 
L 137.024481 125.245528 
L 138.826973 125.722327 
L 140.629465 126.013297 
L 144.234449 125.803838 
L 146.03694 125.933315 
L 153.246908 125.648537 
L 155.0494 125.720032 
L 156.851892 125.908929 
L 162.259368 125.874138 
L 164.06186 125.760625 
L 167.666844 125.760625 
L 169.469335 125.893256 
L 171.271827 125.893256 
L 173.074319 126.054795 
L 174.876811 125.78671 
L 178.481795 125.707193 
L 189.296747 125.691589 
L 191.099239 125.573832 
L 192.901731 125.331525 
L 194.704222 125.458797 
L 196.506714 125.339929 
L 198.309206 125.339929 
L 200.111698 125.456596 
L 207.321666 125.449964 
L 209.124158 125.288426 
L 214.531634 125.392119 
L 216.334126 125.651913 
L 218.136617 125.519282 
L 228.951569 125.519282 
L 230.754061 125.392009 
L 232.556553 125.392009 
L 234.359045 125.527493 
L 236.161537 125.410826 
L 237.964029 125.540723 
L 239.766521 125.540723 
L 241.569012 125.414723 
L 243.371504 125.414723 
L 245.173996 125.849206 
L 246.976488 128.151129 
L 248.77898 131.003959 
L 252.383964 140.854897 
L 254.186456 147.154897 
L 255.988948 152.936073 
L 257.79144 159.746884 
L 261.396424 171.564445 
L 263.198916 179.582627 
L 265.001407 186.623804 
L 268.606391 202.030211 
L 281.223835 262.521061 
L 284.828819 276.442103 
L 286.631311 281.066181 
L 290.236294 288.442641 
L 293.841278 294.531608 
L 295.64377 298.406661 
L 297.446262 303.771017 
L 299.248754 305.662948 
L 301.051246 308.677541 
L 302.853738 311.170402 
L 304.65623 313.328836 
L 306.458722 314.461205 
L 308.261214 315.737653 
L 310.063706 317.200537 
L 311.866198 318.23218 
L 313.668689 321.178353 
L 317.273673 324.025675 
L 319.076165 324.241815 
L 320.878657 323.602996 
L 322.681149 323.538919 
L 324.483641 324.227897 
L 326.286133 323.81 
L 328.088625 325.066965 
L 331.693609 324.245895 
L 333.496101 323.033247 
L 337.101084 322.009447 
L 340.706068 321.420521 
L 342.50856 321.818016 
L 344.311052 321.818016 
L 346.113544 320.577739 
L 347.916036 320.815962 
L 349.718528 319.496388 
L 351.52102 319.391803 
L 353.323512 317.023259 
L 356.928496 318.101014 
L 358.730988 317.951014 
L 360.533479 317.291112 
L 362.335971 317.048545 
L 364.138463 316.175004 
L 365.940955 315.559834 
L 367.743447 315.931046 
L 369.545939 314.55125 
L 371.348431 315.539485 
L 373.150923 315.686524 
L 374.953415 313.7198 
L 376.755907 313.768103 
L 380.360891 311.774818 
L 382.163383 311.317318 
L 385.768366 311.020292 
L 387.570858 310.189049 
L 389.37335 311.687593 
L 391.175842 310.175593 
L 392.978334 309.221531 
L 394.780826 309.188373 
L 396.583318 308.197114 
L 398.38581 307.823334 
L 400.188302 306.562332 
L 401.990794 307.913024 
L 403.793286 308.053238 
L 405.595778 309.135893 
L 407.398269 308.209423 
L 409.200761 307.894252 
L 411.003253 309.731516 
L 412.805745 309.418854 
L 414.608237 309.650353 
L 416.410729 310.599431 
L 420.015713 310.188308 
L 423.620697 308.069296 
L 425.423189 307.304733 
L 429.028173 308.202521 
L 430.830665 306.197444 
L 432.633156 306.003126 
L 434.435648 307.191773 
L 436.23814 307.292205 
L 438.040632 307.0438 
L 441.645616 304.811385 
L 443.448108 305.984914 
L 445.2506 306.316149 
L 447.053092 305.494666 
L 448.855584 305.451241 
L 450.658076 304.81384 
L 452.460568 304.599763 
L 454.26306 305.140204 
L 457.868043 304.474663 
L 459.670535 303.901631 
L 461.473027 304.549528 
L 463.275519 304.615566 
L 465.078011 304.014411 
L 466.880503 304.964465 
L 468.682995 306.717874 
L 470.485487 304.995993 
L 472.287979 305.365953 
L 474.090471 302.688519 
L 475.892963 301.862823 
L 477.695455 302.756136 
L 477.695455 302.756136 
" style="fill:none;stroke:#ee7733;stroke-dasharray:0.5,0.825;stroke-dashoffset:0;stroke-width:0.5;"/>
    <defs>
     <path d="M 0 -2.5 
L -0.561285 -0.772542 
L -2.377641 -0.772542 
L -0.908178 0.295085 
L -1.469463 2.022542 
L -0 0.954915 
L 1.469463 2.022542 
L 0.908178 0.295085 
L 2.377641 -0.772542 
L 0.561285 -0.772542 
z
" id="m603ade17d3" style="stroke:#ee7733;stroke-linejoin:bevel;"/>
    </defs>
    <g clip-path="url(#p4bdd010db7)">
     <use style="fill:#ee7733;stroke:#ee7733;stroke-linejoin:bevel;" x="122.604545" xlink:href="#m603ade17d3" y="124.651813"/>
     <use style="fill:#ee7733;stroke:#ee7733;stroke-linejoin:bevel;" x="140.629465" xlink:href="#m603ade17d3" y="126.013297"/>
     <use style="fill:#ee7733;stroke:#ee7733;stroke-linejoin:bevel;" x="158.654384" xlink:href="#m603ade17d3" y="125.908929"/>
     <use style="fill:#ee7733;stroke:#ee7733;stroke-linejoin:bevel;" x="176.679303" xlink:href="#m603ade17d3" y="125.707193"/>
     <use style="fill:#ee7733;stroke:#ee7733;stroke-linejoin:bevel;" x="194.704222" xlink:href="#m603ade17d3" y="125.458797"/>
     <use style="fill:#ee7733;stroke:#ee7733;stroke-linejoin:bevel;" x="212.729142" xlink:href="#m603ade17d3" y="125.392119"/>
     <use style="fill:#ee7733;stroke:#ee7733;stroke-linejoin:bevel;" x="230.754061" xlink:href="#m603ade17d3" y="125.392009"/>
     <use style="fill:#ee7733;stroke:#ee7733;stroke-linejoin:bevel;" x="248.77898" xlink:href="#m603ade17d3" y="131.003959"/>
     <use style="fill:#ee7733;stroke:#ee7733;stroke-linejoin:bevel;" x="266.803899" xlink:href="#m603ade17d3" y="194.360646"/>
     <use style="fill:#ee7733;stroke:#ee7733;stroke-linejoin:bevel;" x="284.828819" xlink:href="#m603ade17d3" y="276.442103"/>
     <use style="fill:#ee7733;stroke:#ee7733;stroke-linejoin:bevel;" x="302.853738" xlink:href="#m603ade17d3" y="311.170402"/>
     <use style="fill:#ee7733;stroke:#ee7733;stroke-linejoin:bevel;" x="320.878657" xlink:href="#m603ade17d3" y="323.602996"/>
     <use style="fill:#ee7733;stroke:#ee7733;stroke-linejoin:bevel;" x="338.903576" xlink:href="#m603ade17d3" y="321.76465"/>
     <use style="fill:#ee7733;stroke:#ee7733;stroke-linejoin:bevel;" x="356.928496" xlink:href="#m603ade17d3" y="318.101014"/>
     <use style="fill:#ee7733;stroke:#ee7733;stroke-linejoin:bevel;" x="374.953415" xlink:href="#m603ade17d3" y="313.7198"/>
     <use style="fill:#ee7733;stroke:#ee7733;stroke-linejoin:bevel;" x="392.978334" xlink:href="#m603ade17d3" y="309.221531"/>
     <use style="fill:#ee7733;stroke:#ee7733;stroke-linejoin:bevel;" x="411.003253" xlink:href="#m603ade17d3" y="309.731516"/>
     <use style="fill:#ee7733;stroke:#ee7733;stroke-linejoin:bevel;" x="429.028173" xlink:href="#m603ade17d3" y="308.202521"/>
     <use style="fill:#ee7733;stroke:#ee7733;stroke-linejoin:bevel;" x="447.053092" xlink:href="#m603ade17d3" y="305.494666"/>
     <use style="fill:#ee7733;stroke:#ee7733;stroke-linejoin:bevel;" x="465.078011" xlink:href="#m603ade17d3" y="304.014411"/>
    </g>
   </g>
   <g id="line2d_42"/>
   <g id="line2d_43"/>
   <g id="line2d_44"/>
   <g id="line2d_45"/>
   <g id="line2d_46">
    <path clip-path="url(#p4bdd010db7)" d="M 122.604545 134.072373 
L 124.407037 133.971849 
L 126.209529 131.642948 
L 128.012021 131.597867 
L 129.814513 130.208656 
L 131.617005 130.237061 
L 133.419497 129.843663 
L 135.221989 129.194681 
L 138.826973 128.813986 
L 140.629465 128.823897 
L 142.431957 128.476223 
L 146.03694 128.31472 
L 147.839432 128.569536 
L 151.444416 128.64771 
L 153.246908 128.872524 
L 155.0494 128.898291 
L 156.851892 128.807121 
L 158.654384 128.336093 
L 162.259368 128.115054 
L 164.06186 127.907145 
L 165.864352 128.038395 
L 167.666844 127.752031 
L 169.469335 127.875722 
L 173.074319 127.907363 
L 174.876811 128.033114 
L 176.679303 127.953598 
L 178.481795 128.072466 
L 180.284287 127.951312 
L 182.086779 128.06834 
L 183.889271 127.694082 
L 185.691763 127.57856 
L 187.494255 127.592027 
L 189.296747 127.189899 
L 191.099239 126.954385 
L 192.901731 126.833232 
L 194.704222 126.960504 
L 196.506714 126.6039 
L 198.309206 126.752136 
L 207.321666 126.594229 
L 214.531634 126.038854 
L 216.334126 126.168751 
L 218.136617 125.903488 
L 221.741601 125.917984 
L 223.544093 125.673323 
L 227.149077 125.78385 
L 228.951569 125.890629 
L 230.754061 125.882225 
L 232.556553 126.001093 
L 236.161537 125.984174 
L 237.964029 126.115397 
L 241.569012 126.108265 
L 243.371504 126.228265 
L 245.173996 126.662748 
L 246.976488 128.964671 
L 248.77898 131.579765 
L 252.383964 138.534923 
L 254.186456 140.984923 
L 255.988948 144.2461 
L 257.79144 147.071451 
L 259.593932 150.387241 
L 261.396424 153.021269 
L 263.198916 156.028087 
L 266.803899 161.159715 
L 270.408883 166.552186 
L 272.211375 169.911115 
L 274.013867 172.600257 
L 275.816359 174.891166 
L 277.618851 177.63003 
L 281.223835 183.836319 
L 283.026327 186.201062 
L 284.828819 186.710664 
L 286.631311 185.239367 
L 288.433802 183.59522 
L 290.236294 184.496284 
L 292.038786 182.441491 
L 293.841278 182.102335 
L 295.64377 181.054545 
L 299.248754 179.830706 
L 301.051246 179.659665 
L 302.853738 179.765814 
L 304.65623 178.286684 
L 306.458722 177.375031 
L 308.261214 176.173873 
L 310.063706 175.402715 
L 311.866198 174.807959 
L 313.668689 173.826823 
L 315.471181 172.143715 
L 317.273673 169.319965 
L 319.076165 165.183825 
L 320.878657 163.352329 
L 322.681149 163.072718 
L 324.483641 163.863569 
L 326.286133 162.312505 
L 328.088625 162.651405 
L 329.891117 162.30948 
L 331.693609 162.332389 
L 333.496101 162.243855 
L 335.298593 161.442996 
L 337.101084 161.78915 
L 338.903576 160.108522 
L 340.706068 160.745296 
L 342.50856 160.478668 
L 344.311052 159.23002 
L 346.113544 158.964742 
L 347.916036 158.542745 
L 349.718528 158.48615 
L 351.52102 158.555873 
L 353.323512 159.303834 
L 355.126004 160.453308 
L 356.928496 159.679213 
L 358.730988 159.311032 
L 360.533479 157.599411 
L 362.335971 156.944866 
L 364.138463 156.718188 
L 365.940955 155.667272 
L 367.743447 155.126363 
L 369.545939 154.199368 
L 371.348431 154.693486 
L 373.150923 153.039299 
L 374.953415 153.505165 
L 376.755907 153.25187 
L 378.558399 152.811094 
L 380.360891 152.734472 
L 382.163383 152.021972 
L 383.965874 152.580542 
L 385.768366 151.810542 
L 387.570858 151.478466 
L 389.37335 151.323005 
L 391.175842 151.281005 
L 392.978334 152.590303 
L 394.780826 153.147958 
L 396.583318 153.324182 
L 400.188302 153.213483 
L 401.990794 153.9227 
L 403.793286 153.213067 
L 405.595778 153.253258 
L 407.398269 152.24891 
L 409.200761 152.676723 
L 411.003253 152.394455 
L 412.805745 151.980245 
L 414.608237 152.457964 
L 416.410729 152.613934 
L 418.213221 152.40217 
L 420.015713 151.460352 
L 425.423189 151.060201 
L 427.225681 150.492012 
L 430.830665 149.140638 
L 432.633156 149.570184 
L 434.435648 150.423055 
L 436.23814 150.263332 
L 438.040632 149.435731 
L 441.645616 148.979321 
L 443.448108 148.377787 
L 445.2506 148.650184 
L 447.053092 148.22885 
L 448.855584 148.23219 
L 450.658076 147.621799 
L 452.460568 148.525373 
L 454.26306 149.243388 
L 457.868043 149.933007 
L 459.670535 149.366677 
L 461.473027 150.12671 
L 463.275519 149.896898 
L 465.078011 150.587741 
L 466.880503 150.374372 
L 468.682995 150.453917 
L 472.287979 150.029781 
L 474.090471 149.914897 
L 477.695455 150.484433 
L 477.695455 150.484433 
" style="fill:none;stroke:#ee3377;stroke-dasharray:3.2,0.8,0.5,0.8;stroke-dashoffset:0;stroke-width:0.5;"/>
    <defs>
     <path d="M -1.25 2.5 
L 0 1.25 
L 1.25 2.5 
L 2.5 1.25 
L 1.25 0 
L 2.5 -1.25 
L 1.25 -2.5 
L 0 -1.25 
L -1.25 -2.5 
L -2.5 -1.25 
L -1.25 0 
L -2.5 1.25 
z
" id="m36250c1c92" style="stroke:#ee3377;stroke-linejoin:miter;"/>
    </defs>
    <g clip-path="url(#p4bdd010db7)">
     <use style="fill:#ee3377;stroke:#ee3377;stroke-linejoin:miter;" x="122.604545" xlink:href="#m36250c1c92" y="134.072373"/>
     <use style="fill:#ee3377;stroke:#ee3377;stroke-linejoin:miter;" x="140.629465" xlink:href="#m36250c1c92" y="128.823897"/>
     <use style="fill:#ee3377;stroke:#ee3377;stroke-linejoin:miter;" x="158.654384" xlink:href="#m36250c1c92" y="128.336093"/>
     <use style="fill:#ee3377;stroke:#ee3377;stroke-linejoin:miter;" x="176.679303" xlink:href="#m36250c1c92" y="127.953598"/>
     <use style="fill:#ee3377;stroke:#ee3377;stroke-linejoin:miter;" x="194.704222" xlink:href="#m36250c1c92" y="126.960504"/>
     <use style="fill:#ee3377;stroke:#ee3377;stroke-linejoin:miter;" x="212.729142" xlink:href="#m36250c1c92" y="126.157722"/>
     <use style="fill:#ee3377;stroke:#ee3377;stroke-linejoin:miter;" x="230.754061" xlink:href="#m36250c1c92" y="125.882225"/>
     <use style="fill:#ee3377;stroke:#ee3377;stroke-linejoin:miter;" x="248.77898" xlink:href="#m36250c1c92" y="131.579765"/>
     <use style="fill:#ee3377;stroke:#ee3377;stroke-linejoin:miter;" x="266.803899" xlink:href="#m36250c1c92" y="161.159715"/>
     <use style="fill:#ee3377;stroke:#ee3377;stroke-linejoin:miter;" x="284.828819" xlink:href="#m36250c1c92" y="186.710664"/>
     <use style="fill:#ee3377;stroke:#ee3377;stroke-linejoin:miter;" x="302.853738" xlink:href="#m36250c1c92" y="179.765814"/>
     <use style="fill:#ee3377;stroke:#ee3377;stroke-linejoin:miter;" x="320.878657" xlink:href="#m36250c1c92" y="163.352329"/>
     <use style="fill:#ee3377;stroke:#ee3377;stroke-linejoin:miter;" x="338.903576" xlink:href="#m36250c1c92" y="160.108522"/>
     <use style="fill:#ee3377;stroke:#ee3377;stroke-linejoin:miter;" x="356.928496" xlink:href="#m36250c1c92" y="159.679213"/>
     <use style="fill:#ee3377;stroke:#ee3377;stroke-linejoin:miter;" x="374.953415" xlink:href="#m36250c1c92" y="153.505165"/>
     <use style="fill:#ee3377;stroke:#ee3377;stroke-linejoin:miter;" x="392.978334" xlink:href="#m36250c1c92" y="152.590303"/>
     <use style="fill:#ee3377;stroke:#ee3377;stroke-linejoin:miter;" x="411.003253" xlink:href="#m36250c1c92" y="152.394455"/>
     <use style="fill:#ee3377;stroke:#ee3377;stroke-linejoin:miter;" x="429.028173" xlink:href="#m36250c1c92" y="149.771288"/>
     <use style="fill:#ee3377;stroke:#ee3377;stroke-linejoin:miter;" x="447.053092" xlink:href="#m36250c1c92" y="148.22885"/>
     <use style="fill:#ee3377;stroke:#ee3377;stroke-linejoin:miter;" x="465.078011" xlink:href="#m36250c1c92" y="150.587741"/>
    </g>
   </g>
   <g id="line2d_47"/>
   <g id="line2d_48"/>
   <g id="line2d_49"/>
   <g id="line2d_50"/>
   <g id="line2d_51">
    <path clip-path="url(#p4bdd010db7)" d="M 243.371504 389.251812 
L 243.371504 112.051812 
" style="fill:none;stroke:#000000;stroke-dasharray:2.5,5;stroke-dashoffset:0;stroke-width:0.5;"/>
   </g>
   <g id="line2d_52">
    <path clip-path="url(#p4bdd010db7)" d="M 297.446262 389.251812 
L 297.446262 112.051812 
" style="fill:none;stroke:#000000;stroke-dasharray:2.5,5;stroke-dashoffset:0;stroke-width:0.5;"/>
   </g>
   <g id="patch_4">
    <path d="M 104.85 389.251813 
L 104.85 112.051813 
" style="fill:none;stroke:#000000;stroke-linecap:square;stroke-linejoin:miter;stroke-width:0.8;"/>
   </g>
   <g id="patch_5">
    <path d="M 495.45 389.251813 
L 495.45 112.051813 
" style="fill:none;stroke:#000000;stroke-linecap:square;stroke-linejoin:miter;stroke-width:0.8;"/>
   </g>
   <g id="patch_6">
    <path d="M 104.85 389.251812 
L 495.45 389.251812 
" style="fill:none;stroke:#000000;stroke-linecap:square;stroke-linejoin:miter;stroke-width:0.8;"/>
   </g>
   <g id="patch_7">
    <path d="M 104.85 112.051812 
L 495.45 112.051812 
" style="fill:none;stroke:#000000;stroke-linecap:square;stroke-linejoin:miter;stroke-width:0.8;"/>
   </g>
   <g id="legend_1">
    <g id="line2d_53"/>
    <g id="line2d_54"/>
    <g id="text_23">
     <!--   -->
     <g transform="translate(48.8 22.277969)scale(0.13 -0.13)">
      <use xlink:href="#DejaVuSans-32"/>
     </g>
    </g>
    <g id="line2d_55"/>
    <g id="line2d_56"/>
    <g id="text_24">
     <!-- start -->
     <g transform="translate(48.8 41.359531)scale(0.13 -0.13)">
      <use xlink:href="#DejaVuSans-115"/>
      <use x="52.099609" xlink:href="#DejaVuSans-116"/>
      <use x="91.308594" xlink:href="#DejaVuSans-97"/>
      <use x="152.587891" xlink:href="#DejaVuSans-114"/>
      <use x="193.701172" xlink:href="#DejaVuSans-116"/>
     </g>
    </g>
    <g id="line2d_57"/>
    <g id="line2d_58"/>
    <g id="text_25">
     <!-- pre-dirft -->
     <g transform="translate(48.8 60.441094)scale(0.13 -0.13)">
      <defs>
       <path d="M 4.890625 31.390625 
L 31.203125 31.390625 
L 31.203125 23.390625 
L 4.890625 23.390625 
z
" id="DejaVuSans-45"/>
      </defs>
      <use xlink:href="#DejaVuSans-112"/>
      <use x="63.476562" xlink:href="#DejaVuSans-114"/>
      <use x="102.339844" xlink:href="#DejaVuSans-101"/>
      <use x="163.863281" xlink:href="#DejaVuSans-45"/>
      <use x="199.947266" xlink:href="#DejaVuSans-100"/>
      <use x="263.423828" xlink:href="#DejaVuSans-105"/>
      <use x="291.207031" xlink:href="#DejaVuSans-114"/>
      <use x="332.320312" xlink:href="#DejaVuSans-102"/>
      <use x="365.775391" xlink:href="#DejaVuSans-116"/>
     </g>
    </g>
    <g id="line2d_59"/>
    <g id="line2d_60"/>
    <g id="text_26">
     <!-- post-drift -->
     <g transform="translate(48.8 79.522656)scale(0.13 -0.13)">
      <use xlink:href="#DejaVuSans-112"/>
      <use x="63.476562" xlink:href="#DejaVuSans-111"/>
      <use x="124.658203" xlink:href="#DejaVuSans-115"/>
      <use x="176.757812" xlink:href="#DejaVuSans-116"/>
      <use x="215.966797" xlink:href="#DejaVuSans-45"/>
      <use x="252.050781" xlink:href="#DejaVuSans-100"/>
      <use x="315.527344" xlink:href="#DejaVuSans-114"/>
      <use x="356.640625" xlink:href="#DejaVuSans-105"/>
      <use x="384.423828" xlink:href="#DejaVuSans-102"/>
      <use x="417.878906" xlink:href="#DejaVuSans-116"/>
     </g>
    </g>
    <g id="line2d_61"/>
    <g id="line2d_62"/>
    <g id="text_27">
     <!-- end -->
     <g transform="translate(48.8 98.604219)scale(0.13 -0.13)">
      <use xlink:href="#DejaVuSans-101"/>
      <use x="61.523438" xlink:href="#DejaVuSans-110"/>
      <use x="124.902344" xlink:href="#DejaVuSans-100"/>
     </g>
    </g>
    <g id="line2d_63">
     <path d="M 102.738313 17.727969 
L 128.738313 17.727969 
" style="fill:none;stroke:#cc3311;stroke-linecap:square;stroke-width:0.5;"/>
    </g>
    <g id="line2d_64">
     <g>
      <use style="fill:#cc3311;stroke:#cc3311;" x="115.738313" xlink:href="#mf85d1b7ba5" y="17.727969"/>
     </g>
    </g>
    <g id="text_28">
     <!-- OB -->
     <g transform="translate(139.138313 22.277969)scale(0.13 -0.13)">
      <defs>
       <path d="M 39.40625 66.21875 
Q 28.65625 66.21875 22.328125 58.203125 
Q 16.015625 50.203125 16.015625 36.375 
Q 16.015625 22.609375 22.328125 14.59375 
Q 28.65625 6.59375 39.40625 6.59375 
Q 50.140625 6.59375 56.421875 14.59375 
Q 62.703125 22.609375 62.703125 36.375 
Q 62.703125 50.203125 56.421875 58.203125 
Q 50.140625 66.21875 39.40625 66.21875 
z
M 39.40625 74.21875 
Q 54.734375 74.21875 63.90625 63.9375 
Q 73.09375 53.65625 73.09375 36.375 
Q 73.09375 19.140625 63.90625 8.859375 
Q 54.734375 -1.421875 39.40625 -1.421875 
Q 24.03125 -1.421875 14.8125 8.828125 
Q 5.609375 19.09375 5.609375 36.375 
Q 5.609375 53.65625 14.8125 63.9375 
Q 24.03125 74.21875 39.40625 74.21875 
z
" id="DejaVuSans-79"/>
       <path d="M 19.671875 34.8125 
L 19.671875 8.109375 
L 35.5 8.109375 
Q 43.453125 8.109375 47.28125 11.40625 
Q 51.125 14.703125 51.125 21.484375 
Q 51.125 28.328125 47.28125 31.5625 
Q 43.453125 34.8125 35.5 34.8125 
z
M 19.671875 64.796875 
L 19.671875 42.828125 
L 34.28125 42.828125 
Q 41.5 42.828125 45.03125 45.53125 
Q 48.578125 48.25 48.578125 53.8125 
Q 48.578125 59.328125 45.03125 62.0625 
Q 41.5 64.796875 34.28125 64.796875 
z
M 9.8125 72.90625 
L 35.015625 72.90625 
Q 46.296875 72.90625 52.390625 68.21875 
Q 58.5 63.53125 58.5 54.890625 
Q 58.5 48.1875 55.375 44.234375 
Q 52.25 40.28125 46.1875 39.3125 
Q 53.46875 37.75 57.5 32.78125 
Q 61.53125 27.828125 61.53125 20.40625 
Q 61.53125 10.640625 54.890625 5.3125 
Q 48.25 0 35.984375 0 
L 9.8125 0 
z
" id="DejaVuSans-66"/>
      </defs>
      <use xlink:href="#DejaVuSans-79"/>
      <use x="78.710938" xlink:href="#DejaVuSans-66"/>
     </g>
    </g>
    <g id="line2d_65"/>
    <g id="line2d_66"/>
    <g id="text_29">
     <!-- 0.9720 -->
     <g transform="translate(139.138313 41.359531)scale(0.13 -0.13)">
      <use xlink:href="#DejaVuSans-48"/>
      <use x="63.623047" xlink:href="#DejaVuSans-46"/>
      <use x="95.410156" xlink:href="#DejaVuSans-57"/>
      <use x="159.033203" xlink:href="#DejaVuSans-55"/>
      <use x="222.65625" xlink:href="#DejaVuSans-50"/>
      <use x="286.279297" xlink:href="#DejaVuSans-48"/>
     </g>
    </g>
    <g id="line2d_67"/>
    <g id="line2d_68"/>
    <g id="text_30">
     <!-- 0.9753 -->
     <g transform="translate(139.138313 60.441094)scale(0.13 -0.13)">
      <use xlink:href="#DejaVuSans-48"/>
      <use x="63.623047" xlink:href="#DejaVuSans-46"/>
      <use x="95.410156" xlink:href="#DejaVuSans-57"/>
      <use x="159.033203" xlink:href="#DejaVuSans-55"/>
      <use x="222.65625" xlink:href="#DejaVuSans-53"/>
      <use x="286.279297" xlink:href="#DejaVuSans-51"/>
     </g>
    </g>
    <g id="line2d_69"/>
    <g id="line2d_70"/>
    <g id="text_31">
     <!-- 0.2794 -->
     <g transform="translate(139.138313 79.522656)scale(0.13 -0.13)">
      <use xlink:href="#DejaVuSans-48"/>
      <use x="63.623047" xlink:href="#DejaVuSans-46"/>
      <use x="95.410156" xlink:href="#DejaVuSans-50"/>
      <use x="159.033203" xlink:href="#DejaVuSans-55"/>
      <use x="222.65625" xlink:href="#DejaVuSans-57"/>
      <use x="286.279297" xlink:href="#DejaVuSans-52"/>
     </g>
    </g>
    <g id="line2d_71"/>
    <g id="line2d_72"/>
    <g id="text_32">
     <!-- 0.1758 -->
     <g transform="translate(139.138313 98.604219)scale(0.13 -0.13)">
      <use xlink:href="#DejaVuSans-48"/>
      <use x="63.623047" xlink:href="#DejaVuSans-46"/>
      <use x="95.410156" xlink:href="#DejaVuSans-49"/>
      <use x="159.033203" xlink:href="#DejaVuSans-55"/>
      <use x="222.65625" xlink:href="#DejaVuSans-53"/>
      <use x="286.279297" xlink:href="#DejaVuSans-56"/>
     </g>
    </g>
    <g id="line2d_73">
     <path d="M 179.144281 17.727969 
L 205.144281 17.727969 
" style="fill:none;stroke:#009988;stroke-dasharray:1.85,0.8;stroke-dashoffset:0;stroke-width:0.5;"/>
    </g>
    <g id="line2d_74">
     <g>
      <use style="fill:#009988;stroke:#009988;stroke-linejoin:miter;" x="192.144281" xlink:href="#m261bd933d4" y="17.727969"/>
     </g>
    </g>
    <g id="text_33">
     <!-- UOB -->
     <g transform="translate(215.544281 22.277969)scale(0.13 -0.13)">
      <defs>
       <path d="M 8.6875 72.90625 
L 18.609375 72.90625 
L 18.609375 28.609375 
Q 18.609375 16.890625 22.84375 11.734375 
Q 27.09375 6.59375 36.625 6.59375 
Q 46.09375 6.59375 50.34375 11.734375 
Q 54.59375 16.890625 54.59375 28.609375 
L 54.59375 72.90625 
L 64.5 72.90625 
L 64.5 27.390625 
Q 64.5 13.140625 57.4375 5.859375 
Q 50.390625 -1.421875 36.625 -1.421875 
Q 22.796875 -1.421875 15.734375 5.859375 
Q 8.6875 13.140625 8.6875 27.390625 
z
" id="DejaVuSans-85"/>
      </defs>
      <use xlink:href="#DejaVuSans-85"/>
      <use x="73.193359" xlink:href="#DejaVuSans-79"/>
      <use x="151.904297" xlink:href="#DejaVuSans-66"/>
     </g>
    </g>
    <g id="line2d_75"/>
    <g id="line2d_76"/>
    <g id="text_34">
     <!-- 1.0000 -->
     <g transform="translate(215.544281 41.359531)scale(0.13 -0.13)">
      <use xlink:href="#DejaVuSans-49"/>
      <use x="63.623047" xlink:href="#DejaVuSans-46"/>
      <use x="95.410156" xlink:href="#DejaVuSans-48"/>
      <use x="159.033203" xlink:href="#DejaVuSans-48"/>
      <use x="222.65625" xlink:href="#DejaVuSans-48"/>
      <use x="286.279297" xlink:href="#DejaVuSans-48"/>
     </g>
    </g>
    <g id="line2d_77"/>
    <g id="line2d_78"/>
    <g id="text_35">
     <!-- 0.9941 -->
     <g transform="translate(215.544281 60.441094)scale(0.13 -0.13)">
      <use xlink:href="#DejaVuSans-48"/>
      <use x="63.623047" xlink:href="#DejaVuSans-46"/>
      <use x="95.410156" xlink:href="#DejaVuSans-57"/>
      <use x="159.033203" xlink:href="#DejaVuSans-57"/>
      <use x="222.65625" xlink:href="#DejaVuSans-52"/>
      <use x="286.279297" xlink:href="#DejaVuSans-49"/>
     </g>
    </g>
    <g id="line2d_79"/>
    <g id="line2d_80"/>
    <g id="text_36">
     <!-- 0.2872 -->
     <g transform="translate(215.544281 79.522656)scale(0.13 -0.13)">
      <use xlink:href="#DejaVuSans-48"/>
      <use x="63.623047" xlink:href="#DejaVuSans-46"/>
      <use x="95.410156" xlink:href="#DejaVuSans-50"/>
      <use x="159.033203" xlink:href="#DejaVuSans-56"/>
      <use x="222.65625" xlink:href="#DejaVuSans-55"/>
      <use x="286.279297" xlink:href="#DejaVuSans-50"/>
     </g>
    </g>
    <g id="line2d_81"/>
    <g id="line2d_82"/>
    <g id="text_37">
     <!-- 0.2424 -->
     <g transform="translate(215.544281 98.604219)scale(0.13 -0.13)">
      <use xlink:href="#DejaVuSans-48"/>
      <use x="63.623047" xlink:href="#DejaVuSans-46"/>
      <use x="95.410156" xlink:href="#DejaVuSans-50"/>
      <use x="159.033203" xlink:href="#DejaVuSans-52"/>
      <use x="222.65625" xlink:href="#DejaVuSans-50"/>
      <use x="286.279297" xlink:href="#DejaVuSans-52"/>
     </g>
    </g>
    <g id="line2d_83">
     <path d="M 255.55025 17.727969 
L 281.55025 17.727969 
" style="fill:none;stroke:#0077bb;stroke-dasharray:3.2,0.8,0.5,0.8;stroke-dashoffset:0;stroke-width:0.5;"/>
    </g>
    <g id="line2d_84">
     <g>
      <use style="fill:#0077bb;stroke:#0077bb;stroke-linejoin:miter;" x="268.55025" xlink:href="#m1dc7d58d57" y="17.727969"/>
     </g>
    </g>
    <g id="text_38">
     <!-- OOB -->
     <g transform="translate(291.95025 22.277969)scale(0.13 -0.13)">
      <use xlink:href="#DejaVuSans-79"/>
      <use x="78.710938" xlink:href="#DejaVuSans-79"/>
      <use x="157.421875" xlink:href="#DejaVuSans-66"/>
     </g>
    </g>
    <g id="line2d_85"/>
    <g id="line2d_86"/>
    <g id="text_39">
     <!-- 0.9626 -->
     <g transform="translate(291.95025 41.359531)scale(0.13 -0.13)">
      <use xlink:href="#DejaVuSans-48"/>
      <use x="63.623047" xlink:href="#DejaVuSans-46"/>
      <use x="95.410156" xlink:href="#DejaVuSans-57"/>
      <use x="159.033203" xlink:href="#DejaVuSans-54"/>
      <use x="222.65625" xlink:href="#DejaVuSans-50"/>
      <use x="286.279297" xlink:href="#DejaVuSans-54"/>
     </g>
    </g>
    <g id="line2d_87"/>
    <g id="line2d_88"/>
    <g id="text_40">
     <!-- 0.9890 -->
     <g transform="translate(291.95025 60.441094)scale(0.13 -0.13)">
      <use xlink:href="#DejaVuSans-48"/>
      <use x="63.623047" xlink:href="#DejaVuSans-46"/>
      <use x="95.410156" xlink:href="#DejaVuSans-57"/>
      <use x="159.033203" xlink:href="#DejaVuSans-56"/>
      <use x="222.65625" xlink:href="#DejaVuSans-57"/>
      <use x="286.279297" xlink:href="#DejaVuSans-48"/>
     </g>
    </g>
    <g id="line2d_89"/>
    <g id="line2d_90"/>
    <g id="text_41">
     <!-- 0.2908 -->
     <g transform="translate(291.95025 79.522656)scale(0.13 -0.13)">
      <use xlink:href="#DejaVuSans-48"/>
      <use x="63.623047" xlink:href="#DejaVuSans-46"/>
      <use x="95.410156" xlink:href="#DejaVuSans-50"/>
      <use x="159.033203" xlink:href="#DejaVuSans-57"/>
      <use x="222.65625" xlink:href="#DejaVuSans-48"/>
      <use x="286.279297" xlink:href="#DejaVuSans-56"/>
     </g>
    </g>
    <g id="line2d_91"/>
    <g id="line2d_92"/>
    <g id="text_42">
     <!-- 0.1938 -->
     <g transform="translate(291.95025 98.604219)scale(0.13 -0.13)">
      <use xlink:href="#DejaVuSans-48"/>
      <use x="63.623047" xlink:href="#DejaVuSans-46"/>
      <use x="95.410156" xlink:href="#DejaVuSans-49"/>
      <use x="159.033203" xlink:href="#DejaVuSans-57"/>
      <use x="222.65625" xlink:href="#DejaVuSans-51"/>
      <use x="286.279297" xlink:href="#DejaVuSans-56"/>
     </g>
    </g>
    <g id="line2d_93">
     <path d="M 331.956219 17.727969 
L 357.956219 17.727969 
" style="fill:none;stroke:#ee7733;stroke-dasharray:0.5,0.825;stroke-dashoffset:0;stroke-width:0.5;"/>
    </g>
    <g id="line2d_94">
     <g>
      <use style="fill:#ee7733;stroke:#ee7733;stroke-linejoin:bevel;" x="344.956219" xlink:href="#m603ade17d3" y="17.727969"/>
     </g>
    </g>
    <g id="text_43">
     <!-- NUOB -->
     <g transform="translate(368.356219 22.277969)scale(0.13 -0.13)">
      <use xlink:href="#DejaVuSans-78"/>
      <use x="74.804688" xlink:href="#DejaVuSans-85"/>
      <use x="147.998047" xlink:href="#DejaVuSans-79"/>
      <use x="226.708984" xlink:href="#DejaVuSans-66"/>
     </g>
    </g>
    <g id="line2d_95"/>
    <g id="line2d_96"/>
    <g id="text_44">
     <!-- 1.0000 -->
     <g transform="translate(368.356219 41.359531)scale(0.13 -0.13)">
      <use xlink:href="#DejaVuSans-49"/>
      <use x="63.623047" xlink:href="#DejaVuSans-46"/>
      <use x="95.410156" xlink:href="#DejaVuSans-48"/>
      <use x="159.033203" xlink:href="#DejaVuSans-48"/>
      <use x="222.65625" xlink:href="#DejaVuSans-48"/>
      <use x="286.279297" xlink:href="#DejaVuSans-48"/>
     </g>
    </g>
    <g id="line2d_97"/>
    <g id="line2d_98"/>
    <g id="text_45">
     <!-- 0.9970 -->
     <g transform="translate(368.356219 60.441094)scale(0.13 -0.13)">
      <use xlink:href="#DejaVuSans-48"/>
      <use x="63.623047" xlink:href="#DejaVuSans-46"/>
      <use x="95.410156" xlink:href="#DejaVuSans-57"/>
      <use x="159.033203" xlink:href="#DejaVuSans-57"/>
      <use x="222.65625" xlink:href="#DejaVuSans-55"/>
      <use x="286.279297" xlink:href="#DejaVuSans-48"/>
     </g>
    </g>
    <g id="line2d_99"/>
    <g id="line2d_100"/>
    <g id="text_46">
     <!-- 0.2892 -->
     <g transform="translate(368.356219 79.522656)scale(0.13 -0.13)">
      <use xlink:href="#DejaVuSans-48"/>
      <use x="63.623047" xlink:href="#DejaVuSans-46"/>
      <use x="95.410156" xlink:href="#DejaVuSans-50"/>
      <use x="159.033203" xlink:href="#DejaVuSans-56"/>
      <use x="222.65625" xlink:href="#DejaVuSans-57"/>
      <use x="286.279297" xlink:href="#DejaVuSans-50"/>
     </g>
    </g>
    <g id="line2d_101"/>
    <g id="line2d_102"/>
    <g id="text_47">
     <!-- 0.2932 -->
     <g transform="translate(368.356219 98.604219)scale(0.13 -0.13)">
      <use xlink:href="#DejaVuSans-48"/>
      <use x="63.623047" xlink:href="#DejaVuSans-46"/>
      <use x="95.410156" xlink:href="#DejaVuSans-50"/>
      <use x="159.033203" xlink:href="#DejaVuSans-57"/>
      <use x="222.65625" xlink:href="#DejaVuSans-51"/>
      <use x="286.279297" xlink:href="#DejaVuSans-50"/>
     </g>
    </g>
    <g id="line2d_103">
     <path d="M 408.362188 17.727969 
L 434.362188 17.727969 
" style="fill:none;stroke:#ee3377;stroke-dasharray:3.2,0.8,0.5,0.8;stroke-dashoffset:0;stroke-width:0.5;"/>
    </g>
    <g id="line2d_104">
     <g>
      <use style="fill:#ee3377;stroke:#ee3377;stroke-linejoin:miter;" x="421.362188" xlink:href="#m36250c1c92" y="17.727969"/>
     </g>
    </g>
    <g id="text_48">
     <!-- NOOB -->
     <g transform="translate(444.762188 22.277969)scale(0.13 -0.13)">
      <use xlink:href="#DejaVuSans-78"/>
      <use x="74.804688" xlink:href="#DejaVuSans-79"/>
      <use x="153.515625" xlink:href="#DejaVuSans-79"/>
      <use x="232.226562" xlink:href="#DejaVuSans-66"/>
     </g>
    </g>
    <g id="line2d_105"/>
    <g id="line2d_106"/>
    <g id="text_49">
     <!-- 0.9626 -->
     <g transform="translate(444.762188 41.359531)scale(0.13 -0.13)">
      <use xlink:href="#DejaVuSans-48"/>
      <use x="63.623047" xlink:href="#DejaVuSans-46"/>
      <use x="95.410156" xlink:href="#DejaVuSans-57"/>
      <use x="159.033203" xlink:href="#DejaVuSans-54"/>
      <use x="222.65625" xlink:href="#DejaVuSans-50"/>
      <use x="286.279297" xlink:href="#DejaVuSans-54"/>
     </g>
    </g>
    <g id="line2d_107"/>
    <g id="line2d_108"/>
    <g id="text_50">
     <!-- 0.9937 -->
     <g transform="translate(444.762188 60.441094)scale(0.13 -0.13)">
      <use xlink:href="#DejaVuSans-48"/>
      <use x="63.623047" xlink:href="#DejaVuSans-46"/>
      <use x="95.410156" xlink:href="#DejaVuSans-57"/>
      <use x="159.033203" xlink:href="#DejaVuSans-57"/>
      <use x="222.65625" xlink:href="#DejaVuSans-51"/>
      <use x="286.279297" xlink:href="#DejaVuSans-55"/>
     </g>
    </g>
    <g id="line2d_109"/>
    <g id="line2d_110"/>
    <g id="text_51">
     <!-- 0.7787 -->
     <g transform="translate(444.762188 79.522656)scale(0.13 -0.13)">
      <use xlink:href="#DejaVuSans-48"/>
      <use x="63.623047" xlink:href="#DejaVuSans-46"/>
      <use x="95.410156" xlink:href="#DejaVuSans-55"/>
      <use x="159.033203" xlink:href="#DejaVuSans-55"/>
      <use x="222.65625" xlink:href="#DejaVuSans-56"/>
      <use x="286.279297" xlink:href="#DejaVuSans-55"/>
     </g>
    </g>
    <g id="line2d_111"/>
    <g id="line2d_112"/>
    <g id="text_52">
     <!-- 0.8975 -->
     <g transform="translate(444.762188 98.604219)scale(0.13 -0.13)">
      <use xlink:href="#DejaVuSans-48"/>
      <use x="63.623047" xlink:href="#DejaVuSans-46"/>
      <use x="95.410156" xlink:href="#DejaVuSans-56"/>
      <use x="159.033203" xlink:href="#DejaVuSans-57"/>
      <use x="222.65625" xlink:href="#DejaVuSans-55"/>
      <use x="286.279297" xlink:href="#DejaVuSans-53"/>
     </g>
    </g>
   </g>
  </g>
 </g>
 <defs>
  <clipPath id="p4bdd010db7">
   <rect height="277.2" width="390.6" x="104.85" y="112.051812"/>
  </clipPath>
 </defs>
</svg>
