<?xml version="1.0" encoding="utf-8" standalone="no"?>
<!DOCTYPE svg PUBLIC "-//W3C//DTD SVG 1.1//EN"
  "http://www.w3.org/Graphics/SVG/1.1/DTD/svg11.dtd">
<!-- Created with matplotlib (https://matplotlib.org/) -->
<svg height="432.614937pt" version="1.1" viewBox="0 0 502.65 432.614937" width="502.65pt" xmlns="http://www.w3.org/2000/svg" xmlns:xlink="http://www.w3.org/1999/xlink">
 <metadata>
  <rdf:RDF xmlns:cc="http://creativecommons.org/ns#" xmlns:dc="http://purl.org/dc/elements/1.1/" xmlns:rdf="http://www.w3.org/1999/02/22-rdf-syntax-ns#">
   <cc:Work>
    <dc:type rdf:resource="http://purl.org/dc/dcmitype/StillImage"/>
    <dc:date>2022-06-16T22:18:53.844455</dc:date>
    <dc:format>image/svg+xml</dc:format>
    <dc:creator>
     <cc:Agent>
      <dc:title>Matplotlib v3.3.3, https://matplotlib.org/</dc:title>
     </cc:Agent>
    </dc:creator>
   </cc:Work>
  </rdf:RDF>
 </metadata>
 <defs>
  <style type="text/css">*{stroke-linecap:butt;stroke-linejoin:round;}</style>
 </defs>
 <g id="figure_1">
  <g id="patch_1">
   <path d="M 0 432.614937 
L 502.65 432.614937 
L 502.65 0 
L 0 0 
z
" style="fill:#ffffff;"/>
  </g>
  <g id="axes_1">
   <g id="patch_2">
    <path d="M 104.85 389.251812 
L 495.45 389.251812 
L 495.45 112.051812 
L 104.85 112.051812 
z
" style="fill:#ffffff;"/>
   </g>
   <g id="patch_3">
    <path clip-path="url(#p0ba8de8938)" d="M 297.446262 389.251812 
L 297.446262 112.051812 
L 243.371504 112.051812 
L 243.371504 389.251812 
z
" style="fill:#d3d3d3;opacity:0.5;"/>
   </g>
   <g id="matplotlib.axis_1">
    <g id="xtick_1">
     <g id="line2d_1">
      <defs>
       <path d="M 0 0 
L 0 3.5 
" id="mb1acceceb5" style="stroke:#000000;stroke-width:0.8;"/>
      </defs>
      <g>
       <use style="stroke:#000000;stroke-width:0.8;" x="117.19707" xlink:href="#mb1acceceb5" y="389.251812"/>
      </g>
     </g>
     <g id="text_1">
      <!-- 0 -->
      <g transform="translate(113.061445 406.129781)scale(0.13 -0.13)">
       <defs>
        <path d="M 31.78125 66.40625 
Q 24.171875 66.40625 20.328125 58.90625 
Q 16.5 51.421875 16.5 36.375 
Q 16.5 21.390625 20.328125 13.890625 
Q 24.171875 6.390625 31.78125 6.390625 
Q 39.453125 6.390625 43.28125 13.890625 
Q 47.125 21.390625 47.125 36.375 
Q 47.125 51.421875 43.28125 58.90625 
Q 39.453125 66.40625 31.78125 66.40625 
z
M 31.78125 74.21875 
Q 44.046875 74.21875 50.515625 64.515625 
Q 56.984375 54.828125 56.984375 36.375 
Q 56.984375 17.96875 50.515625 8.265625 
Q 44.046875 -1.421875 31.78125 -1.421875 
Q 19.53125 -1.421875 13.0625 8.265625 
Q 6.59375 17.96875 6.59375 36.375 
Q 6.59375 54.828125 13.0625 64.515625 
Q 19.53125 74.21875 31.78125 74.21875 
z
" id="DejaVuSans-48"/>
       </defs>
       <use xlink:href="#DejaVuSans-48"/>
      </g>
     </g>
    </g>
    <g id="xtick_2">
     <g id="line2d_2">
      <g>
       <use style="stroke:#000000;stroke-width:0.8;" x="162.259368" xlink:href="#mb1acceceb5" y="389.251812"/>
      </g>
     </g>
     <g id="text_2">
      <!-- 25 -->
      <g transform="translate(153.988118 406.129781)scale(0.13 -0.13)">
       <defs>
        <path d="M 19.1875 8.296875 
L 53.609375 8.296875 
L 53.609375 0 
L 7.328125 0 
L 7.328125 8.296875 
Q 12.9375 14.109375 22.625 23.890625 
Q 32.328125 33.6875 34.8125 36.53125 
Q 39.546875 41.84375 41.421875 45.53125 
Q 43.3125 49.21875 43.3125 52.78125 
Q 43.3125 58.59375 39.234375 62.25 
Q 35.15625 65.921875 28.609375 65.921875 
Q 23.96875 65.921875 18.8125 64.3125 
Q 13.671875 62.703125 7.8125 59.421875 
L 7.8125 69.390625 
Q 13.765625 71.78125 18.9375 73 
Q 24.125 74.21875 28.421875 74.21875 
Q 39.75 74.21875 46.484375 68.546875 
Q 53.21875 62.890625 53.21875 53.421875 
Q 53.21875 48.921875 51.53125 44.890625 
Q 49.859375 40.875 45.40625 35.40625 
Q 44.1875 33.984375 37.640625 27.21875 
Q 31.109375 20.453125 19.1875 8.296875 
z
" id="DejaVuSans-50"/>
        <path d="M 10.796875 72.90625 
L 49.515625 72.90625 
L 49.515625 64.59375 
L 19.828125 64.59375 
L 19.828125 46.734375 
Q 21.96875 47.46875 24.109375 47.828125 
Q 26.265625 48.1875 28.421875 48.1875 
Q 40.625 48.1875 47.75 41.5 
Q 54.890625 34.8125 54.890625 23.390625 
Q 54.890625 11.625 47.5625 5.09375 
Q 40.234375 -1.421875 26.90625 -1.421875 
Q 22.3125 -1.421875 17.546875 -0.640625 
Q 12.796875 0.140625 7.71875 1.703125 
L 7.71875 11.625 
Q 12.109375 9.234375 16.796875 8.0625 
Q 21.484375 6.890625 26.703125 6.890625 
Q 35.15625 6.890625 40.078125 11.328125 
Q 45.015625 15.765625 45.015625 23.390625 
Q 45.015625 31 40.078125 35.4375 
Q 35.15625 39.890625 26.703125 39.890625 
Q 22.75 39.890625 18.8125 39.015625 
Q 14.890625 38.140625 10.796875 36.28125 
z
" id="DejaVuSans-53"/>
       </defs>
       <use xlink:href="#DejaVuSans-50"/>
       <use x="63.623047" xlink:href="#DejaVuSans-53"/>
      </g>
     </g>
    </g>
    <g id="xtick_3">
     <g id="line2d_3">
      <g>
       <use style="stroke:#000000;stroke-width:0.8;" x="207.321666" xlink:href="#mb1acceceb5" y="389.251812"/>
      </g>
     </g>
     <g id="text_3">
      <!-- 50 -->
      <g transform="translate(199.050416 406.129781)scale(0.13 -0.13)">
       <use xlink:href="#DejaVuSans-53"/>
       <use x="63.623047" xlink:href="#DejaVuSans-48"/>
      </g>
     </g>
    </g>
    <g id="xtick_4">
     <g id="line2d_4">
      <g>
       <use style="stroke:#000000;stroke-width:0.8;" x="252.383964" xlink:href="#mb1acceceb5" y="389.251812"/>
      </g>
     </g>
     <g id="text_4">
      <!-- 75 -->
      <g transform="translate(244.112714 406.129781)scale(0.13 -0.13)">
       <defs>
        <path d="M 8.203125 72.90625 
L 55.078125 72.90625 
L 55.078125 68.703125 
L 28.609375 0 
L 18.3125 0 
L 43.21875 64.59375 
L 8.203125 64.59375 
z
" id="DejaVuSans-55"/>
       </defs>
       <use xlink:href="#DejaVuSans-55"/>
       <use x="63.623047" xlink:href="#DejaVuSans-53"/>
      </g>
     </g>
    </g>
    <g id="xtick_5">
     <g id="line2d_5">
      <g>
       <use style="stroke:#000000;stroke-width:0.8;" x="297.446262" xlink:href="#mb1acceceb5" y="389.251812"/>
      </g>
     </g>
     <g id="text_5">
      <!-- 100 -->
      <g transform="translate(285.039387 406.129781)scale(0.13 -0.13)">
       <defs>
        <path d="M 12.40625 8.296875 
L 28.515625 8.296875 
L 28.515625 63.921875 
L 10.984375 60.40625 
L 10.984375 69.390625 
L 28.421875 72.90625 
L 38.28125 72.90625 
L 38.28125 8.296875 
L 54.390625 8.296875 
L 54.390625 0 
L 12.40625 0 
z
" id="DejaVuSans-49"/>
       </defs>
       <use xlink:href="#DejaVuSans-49"/>
       <use x="63.623047" xlink:href="#DejaVuSans-48"/>
       <use x="127.246094" xlink:href="#DejaVuSans-48"/>
      </g>
     </g>
    </g>
    <g id="xtick_6">
     <g id="line2d_6">
      <g>
       <use style="stroke:#000000;stroke-width:0.8;" x="342.50856" xlink:href="#mb1acceceb5" y="389.251812"/>
      </g>
     </g>
     <g id="text_6">
      <!-- 125 -->
      <g transform="translate(330.101685 406.129781)scale(0.13 -0.13)">
       <use xlink:href="#DejaVuSans-49"/>
       <use x="63.623047" xlink:href="#DejaVuSans-50"/>
       <use x="127.246094" xlink:href="#DejaVuSans-53"/>
      </g>
     </g>
    </g>
    <g id="xtick_7">
     <g id="line2d_7">
      <g>
       <use style="stroke:#000000;stroke-width:0.8;" x="387.570858" xlink:href="#mb1acceceb5" y="389.251812"/>
      </g>
     </g>
     <g id="text_7">
      <!-- 150 -->
      <g transform="translate(375.163983 406.129781)scale(0.13 -0.13)">
       <use xlink:href="#DejaVuSans-49"/>
       <use x="63.623047" xlink:href="#DejaVuSans-53"/>
       <use x="127.246094" xlink:href="#DejaVuSans-48"/>
      </g>
     </g>
    </g>
    <g id="xtick_8">
     <g id="line2d_8">
      <g>
       <use style="stroke:#000000;stroke-width:0.8;" x="432.633156" xlink:href="#mb1acceceb5" y="389.251812"/>
      </g>
     </g>
     <g id="text_8">
      <!-- 175 -->
      <g transform="translate(420.226281 406.129781)scale(0.13 -0.13)">
       <use xlink:href="#DejaVuSans-49"/>
       <use x="63.623047" xlink:href="#DejaVuSans-55"/>
       <use x="127.246094" xlink:href="#DejaVuSans-53"/>
      </g>
     </g>
    </g>
    <g id="xtick_9">
     <g id="line2d_9">
      <g>
       <use style="stroke:#000000;stroke-width:0.8;" x="477.695455" xlink:href="#mb1acceceb5" y="389.251812"/>
      </g>
     </g>
     <g id="text_9">
      <!-- 200 -->
      <g transform="translate(465.28858 406.129781)scale(0.13 -0.13)">
       <use xlink:href="#DejaVuSans-50"/>
       <use x="63.623047" xlink:href="#DejaVuSans-48"/>
       <use x="127.246094" xlink:href="#DejaVuSans-48"/>
      </g>
     </g>
    </g>
    <g id="text_10">
     <!-- Number of processed instances [x1000] -->
     <g transform="translate(170.025078 422.711344)scale(0.13 -0.13)">
      <defs>
       <path d="M 9.8125 72.90625 
L 23.09375 72.90625 
L 55.421875 11.921875 
L 55.421875 72.90625 
L 64.984375 72.90625 
L 64.984375 0 
L 51.703125 0 
L 19.390625 60.984375 
L 19.390625 0 
L 9.8125 0 
z
" id="DejaVuSans-78"/>
       <path d="M 8.5 21.578125 
L 8.5 54.6875 
L 17.484375 54.6875 
L 17.484375 21.921875 
Q 17.484375 14.15625 20.5 10.265625 
Q 23.53125 6.390625 29.59375 6.390625 
Q 36.859375 6.390625 41.078125 11.03125 
Q 45.3125 15.671875 45.3125 23.6875 
L 45.3125 54.6875 
L 54.296875 54.6875 
L 54.296875 0 
L 45.3125 0 
L 45.3125 8.40625 
Q 42.046875 3.421875 37.71875 1 
Q 33.40625 -1.421875 27.6875 -1.421875 
Q 18.265625 -1.421875 13.375 4.4375 
Q 8.5 10.296875 8.5 21.578125 
z
M 31.109375 56 
z
" id="DejaVuSans-117"/>
       <path d="M 52 44.1875 
Q 55.375 50.25 60.0625 53.125 
Q 64.75 56 71.09375 56 
Q 79.640625 56 84.28125 50.015625 
Q 88.921875 44.046875 88.921875 33.015625 
L 88.921875 0 
L 79.890625 0 
L 79.890625 32.71875 
Q 79.890625 40.578125 77.09375 44.375 
Q 74.3125 48.1875 68.609375 48.1875 
Q 61.625 48.1875 57.5625 43.546875 
Q 53.515625 38.921875 53.515625 30.90625 
L 53.515625 0 
L 44.484375 0 
L 44.484375 32.71875 
Q 44.484375 40.625 41.703125 44.40625 
Q 38.921875 48.1875 33.109375 48.1875 
Q 26.21875 48.1875 22.15625 43.53125 
Q 18.109375 38.875 18.109375 30.90625 
L 18.109375 0 
L 9.078125 0 
L 9.078125 54.6875 
L 18.109375 54.6875 
L 18.109375 46.1875 
Q 21.1875 51.21875 25.484375 53.609375 
Q 29.78125 56 35.6875 56 
Q 41.65625 56 45.828125 52.96875 
Q 50 49.953125 52 44.1875 
z
" id="DejaVuSans-109"/>
       <path d="M 48.6875 27.296875 
Q 48.6875 37.203125 44.609375 42.84375 
Q 40.53125 48.484375 33.40625 48.484375 
Q 26.265625 48.484375 22.1875 42.84375 
Q 18.109375 37.203125 18.109375 27.296875 
Q 18.109375 17.390625 22.1875 11.75 
Q 26.265625 6.109375 33.40625 6.109375 
Q 40.53125 6.109375 44.609375 11.75 
Q 48.6875 17.390625 48.6875 27.296875 
z
M 18.109375 46.390625 
Q 20.953125 51.265625 25.265625 53.625 
Q 29.59375 56 35.59375 56 
Q 45.5625 56 51.78125 48.09375 
Q 58.015625 40.1875 58.015625 27.296875 
Q 58.015625 14.40625 51.78125 6.484375 
Q 45.5625 -1.421875 35.59375 -1.421875 
Q 29.59375 -1.421875 25.265625 0.953125 
Q 20.953125 3.328125 18.109375 8.203125 
L 18.109375 0 
L 9.078125 0 
L 9.078125 75.984375 
L 18.109375 75.984375 
z
" id="DejaVuSans-98"/>
       <path d="M 56.203125 29.59375 
L 56.203125 25.203125 
L 14.890625 25.203125 
Q 15.484375 15.921875 20.484375 11.0625 
Q 25.484375 6.203125 34.421875 6.203125 
Q 39.59375 6.203125 44.453125 7.46875 
Q 49.3125 8.734375 54.109375 11.28125 
L 54.109375 2.78125 
Q 49.265625 0.734375 44.1875 -0.34375 
Q 39.109375 -1.421875 33.890625 -1.421875 
Q 20.796875 -1.421875 13.15625 6.1875 
Q 5.515625 13.8125 5.515625 26.8125 
Q 5.515625 40.234375 12.765625 48.109375 
Q 20.015625 56 32.328125 56 
Q 43.359375 56 49.78125 48.890625 
Q 56.203125 41.796875 56.203125 29.59375 
z
M 47.21875 32.234375 
Q 47.125 39.59375 43.09375 43.984375 
Q 39.0625 48.390625 32.421875 48.390625 
Q 24.90625 48.390625 20.390625 44.140625 
Q 15.875 39.890625 15.1875 32.171875 
z
" id="DejaVuSans-101"/>
       <path d="M 41.109375 46.296875 
Q 39.59375 47.171875 37.8125 47.578125 
Q 36.03125 48 33.890625 48 
Q 26.265625 48 22.1875 43.046875 
Q 18.109375 38.09375 18.109375 28.8125 
L 18.109375 0 
L 9.078125 0 
L 9.078125 54.6875 
L 18.109375 54.6875 
L 18.109375 46.1875 
Q 20.953125 51.171875 25.484375 53.578125 
Q 30.03125 56 36.53125 56 
Q 37.453125 56 38.578125 55.875 
Q 39.703125 55.765625 41.0625 55.515625 
z
" id="DejaVuSans-114"/>
       <path id="DejaVuSans-32"/>
       <path d="M 30.609375 48.390625 
Q 23.390625 48.390625 19.1875 42.75 
Q 14.984375 37.109375 14.984375 27.296875 
Q 14.984375 17.484375 19.15625 11.84375 
Q 23.34375 6.203125 30.609375 6.203125 
Q 37.796875 6.203125 41.984375 11.859375 
Q 46.1875 17.53125 46.1875 27.296875 
Q 46.1875 37.015625 41.984375 42.703125 
Q 37.796875 48.390625 30.609375 48.390625 
z
M 30.609375 56 
Q 42.328125 56 49.015625 48.375 
Q 55.71875 40.765625 55.71875 27.296875 
Q 55.71875 13.875 49.015625 6.21875 
Q 42.328125 -1.421875 30.609375 -1.421875 
Q 18.84375 -1.421875 12.171875 6.21875 
Q 5.515625 13.875 5.515625 27.296875 
Q 5.515625 40.765625 12.171875 48.375 
Q 18.84375 56 30.609375 56 
z
" id="DejaVuSans-111"/>
       <path d="M 37.109375 75.984375 
L 37.109375 68.5 
L 28.515625 68.5 
Q 23.6875 68.5 21.796875 66.546875 
Q 19.921875 64.59375 19.921875 59.515625 
L 19.921875 54.6875 
L 34.71875 54.6875 
L 34.71875 47.703125 
L 19.921875 47.703125 
L 19.921875 0 
L 10.890625 0 
L 10.890625 47.703125 
L 2.296875 47.703125 
L 2.296875 54.6875 
L 10.890625 54.6875 
L 10.890625 58.5 
Q 10.890625 67.625 15.140625 71.796875 
Q 19.390625 75.984375 28.609375 75.984375 
z
" id="DejaVuSans-102"/>
       <path d="M 18.109375 8.203125 
L 18.109375 -20.796875 
L 9.078125 -20.796875 
L 9.078125 54.6875 
L 18.109375 54.6875 
L 18.109375 46.390625 
Q 20.953125 51.265625 25.265625 53.625 
Q 29.59375 56 35.59375 56 
Q 45.5625 56 51.78125 48.09375 
Q 58.015625 40.1875 58.015625 27.296875 
Q 58.015625 14.40625 51.78125 6.484375 
Q 45.5625 -1.421875 35.59375 -1.421875 
Q 29.59375 -1.421875 25.265625 0.953125 
Q 20.953125 3.328125 18.109375 8.203125 
z
M 48.6875 27.296875 
Q 48.6875 37.203125 44.609375 42.84375 
Q 40.53125 48.484375 33.40625 48.484375 
Q 26.265625 48.484375 22.1875 42.84375 
Q 18.109375 37.203125 18.109375 27.296875 
Q 18.109375 17.390625 22.1875 11.75 
Q 26.265625 6.109375 33.40625 6.109375 
Q 40.53125 6.109375 44.609375 11.75 
Q 48.6875 17.390625 48.6875 27.296875 
z
" id="DejaVuSans-112"/>
       <path d="M 48.78125 52.59375 
L 48.78125 44.1875 
Q 44.96875 46.296875 41.140625 47.34375 
Q 37.3125 48.390625 33.40625 48.390625 
Q 24.65625 48.390625 19.8125 42.84375 
Q 14.984375 37.3125 14.984375 27.296875 
Q 14.984375 17.28125 19.8125 11.734375 
Q 24.65625 6.203125 33.40625 6.203125 
Q 37.3125 6.203125 41.140625 7.25 
Q 44.96875 8.296875 48.78125 10.40625 
L 48.78125 2.09375 
Q 45.015625 0.34375 40.984375 -0.53125 
Q 36.96875 -1.421875 32.421875 -1.421875 
Q 20.0625 -1.421875 12.78125 6.34375 
Q 5.515625 14.109375 5.515625 27.296875 
Q 5.515625 40.671875 12.859375 48.328125 
Q 20.21875 56 33.015625 56 
Q 37.15625 56 41.109375 55.140625 
Q 45.0625 54.296875 48.78125 52.59375 
z
" id="DejaVuSans-99"/>
       <path d="M 44.28125 53.078125 
L 44.28125 44.578125 
Q 40.484375 46.53125 36.375 47.5 
Q 32.28125 48.484375 27.875 48.484375 
Q 21.1875 48.484375 17.84375 46.4375 
Q 14.5 44.390625 14.5 40.28125 
Q 14.5 37.15625 16.890625 35.375 
Q 19.28125 33.59375 26.515625 31.984375 
L 29.59375 31.296875 
Q 39.15625 29.25 43.1875 25.515625 
Q 47.21875 21.78125 47.21875 15.09375 
Q 47.21875 7.46875 41.1875 3.015625 
Q 35.15625 -1.421875 24.609375 -1.421875 
Q 20.21875 -1.421875 15.453125 -0.5625 
Q 10.6875 0.296875 5.421875 2 
L 5.421875 11.28125 
Q 10.40625 8.6875 15.234375 7.390625 
Q 20.0625 6.109375 24.8125 6.109375 
Q 31.15625 6.109375 34.5625 8.28125 
Q 37.984375 10.453125 37.984375 14.40625 
Q 37.984375 18.0625 35.515625 20.015625 
Q 33.0625 21.96875 24.703125 23.78125 
L 21.578125 24.515625 
Q 13.234375 26.265625 9.515625 29.90625 
Q 5.8125 33.546875 5.8125 39.890625 
Q 5.8125 47.609375 11.28125 51.796875 
Q 16.75 56 26.8125 56 
Q 31.78125 56 36.171875 55.265625 
Q 40.578125 54.546875 44.28125 53.078125 
z
" id="DejaVuSans-115"/>
       <path d="M 45.40625 46.390625 
L 45.40625 75.984375 
L 54.390625 75.984375 
L 54.390625 0 
L 45.40625 0 
L 45.40625 8.203125 
Q 42.578125 3.328125 38.25 0.953125 
Q 33.9375 -1.421875 27.875 -1.421875 
Q 17.96875 -1.421875 11.734375 6.484375 
Q 5.515625 14.40625 5.515625 27.296875 
Q 5.515625 40.1875 11.734375 48.09375 
Q 17.96875 56 27.875 56 
Q 33.9375 56 38.25 53.625 
Q 42.578125 51.265625 45.40625 46.390625 
z
M 14.796875 27.296875 
Q 14.796875 17.390625 18.875 11.75 
Q 22.953125 6.109375 30.078125 6.109375 
Q 37.203125 6.109375 41.296875 11.75 
Q 45.40625 17.390625 45.40625 27.296875 
Q 45.40625 37.203125 41.296875 42.84375 
Q 37.203125 48.484375 30.078125 48.484375 
Q 22.953125 48.484375 18.875 42.84375 
Q 14.796875 37.203125 14.796875 27.296875 
z
" id="DejaVuSans-100"/>
       <path d="M 9.421875 54.6875 
L 18.40625 54.6875 
L 18.40625 0 
L 9.421875 0 
z
M 9.421875 75.984375 
L 18.40625 75.984375 
L 18.40625 64.59375 
L 9.421875 64.59375 
z
" id="DejaVuSans-105"/>
       <path d="M 54.890625 33.015625 
L 54.890625 0 
L 45.90625 0 
L 45.90625 32.71875 
Q 45.90625 40.484375 42.875 44.328125 
Q 39.84375 48.1875 33.796875 48.1875 
Q 26.515625 48.1875 22.3125 43.546875 
Q 18.109375 38.921875 18.109375 30.90625 
L 18.109375 0 
L 9.078125 0 
L 9.078125 54.6875 
L 18.109375 54.6875 
L 18.109375 46.1875 
Q 21.34375 51.125 25.703125 53.5625 
Q 30.078125 56 35.796875 56 
Q 45.21875 56 50.046875 50.171875 
Q 54.890625 44.34375 54.890625 33.015625 
z
" id="DejaVuSans-110"/>
       <path d="M 18.3125 70.21875 
L 18.3125 54.6875 
L 36.8125 54.6875 
L 36.8125 47.703125 
L 18.3125 47.703125 
L 18.3125 18.015625 
Q 18.3125 11.328125 20.140625 9.421875 
Q 21.96875 7.515625 27.59375 7.515625 
L 36.8125 7.515625 
L 36.8125 0 
L 27.59375 0 
Q 17.1875 0 13.234375 3.875 
Q 9.28125 7.765625 9.28125 18.015625 
L 9.28125 47.703125 
L 2.6875 47.703125 
L 2.6875 54.6875 
L 9.28125 54.6875 
L 9.28125 70.21875 
z
" id="DejaVuSans-116"/>
       <path d="M 34.28125 27.484375 
Q 23.390625 27.484375 19.1875 25 
Q 14.984375 22.515625 14.984375 16.5 
Q 14.984375 11.71875 18.140625 8.90625 
Q 21.296875 6.109375 26.703125 6.109375 
Q 34.1875 6.109375 38.703125 11.40625 
Q 43.21875 16.703125 43.21875 25.484375 
L 43.21875 27.484375 
z
M 52.203125 31.203125 
L 52.203125 0 
L 43.21875 0 
L 43.21875 8.296875 
Q 40.140625 3.328125 35.546875 0.953125 
Q 30.953125 -1.421875 24.3125 -1.421875 
Q 15.921875 -1.421875 10.953125 3.296875 
Q 6 8.015625 6 15.921875 
Q 6 25.140625 12.171875 29.828125 
Q 18.359375 34.515625 30.609375 34.515625 
L 43.21875 34.515625 
L 43.21875 35.40625 
Q 43.21875 41.609375 39.140625 45 
Q 35.0625 48.390625 27.6875 48.390625 
Q 23 48.390625 18.546875 47.265625 
Q 14.109375 46.140625 10.015625 43.890625 
L 10.015625 52.203125 
Q 14.9375 54.109375 19.578125 55.046875 
Q 24.21875 56 28.609375 56 
Q 40.484375 56 46.34375 49.84375 
Q 52.203125 43.703125 52.203125 31.203125 
z
" id="DejaVuSans-97"/>
       <path d="M 8.59375 75.984375 
L 29.296875 75.984375 
L 29.296875 69 
L 17.578125 69 
L 17.578125 -6.203125 
L 29.296875 -6.203125 
L 29.296875 -13.1875 
L 8.59375 -13.1875 
z
" id="DejaVuSans-91"/>
       <path d="M 54.890625 54.6875 
L 35.109375 28.078125 
L 55.90625 0 
L 45.3125 0 
L 29.390625 21.484375 
L 13.484375 0 
L 2.875 0 
L 24.125 28.609375 
L 4.6875 54.6875 
L 15.28125 54.6875 
L 29.78125 35.203125 
L 44.28125 54.6875 
z
" id="DejaVuSans-120"/>
       <path d="M 30.421875 75.984375 
L 30.421875 -13.1875 
L 9.71875 -13.1875 
L 9.71875 -6.203125 
L 21.390625 -6.203125 
L 21.390625 69 
L 9.71875 69 
L 9.71875 75.984375 
z
" id="DejaVuSans-93"/>
      </defs>
      <use xlink:href="#DejaVuSans-78"/>
      <use x="74.804688" xlink:href="#DejaVuSans-117"/>
      <use x="138.183594" xlink:href="#DejaVuSans-109"/>
      <use x="235.595703" xlink:href="#DejaVuSans-98"/>
      <use x="299.072266" xlink:href="#DejaVuSans-101"/>
      <use x="360.595703" xlink:href="#DejaVuSans-114"/>
      <use x="401.708984" xlink:href="#DejaVuSans-32"/>
      <use x="433.496094" xlink:href="#DejaVuSans-111"/>
      <use x="494.677734" xlink:href="#DejaVuSans-102"/>
      <use x="529.882812" xlink:href="#DejaVuSans-32"/>
      <use x="561.669922" xlink:href="#DejaVuSans-112"/>
      <use x="625.146484" xlink:href="#DejaVuSans-114"/>
      <use x="664.009766" xlink:href="#DejaVuSans-111"/>
      <use x="725.191406" xlink:href="#DejaVuSans-99"/>
      <use x="780.171875" xlink:href="#DejaVuSans-101"/>
      <use x="841.695312" xlink:href="#DejaVuSans-115"/>
      <use x="893.794922" xlink:href="#DejaVuSans-115"/>
      <use x="945.894531" xlink:href="#DejaVuSans-101"/>
      <use x="1007.417969" xlink:href="#DejaVuSans-100"/>
      <use x="1070.894531" xlink:href="#DejaVuSans-32"/>
      <use x="1102.681641" xlink:href="#DejaVuSans-105"/>
      <use x="1130.464844" xlink:href="#DejaVuSans-110"/>
      <use x="1193.84375" xlink:href="#DejaVuSans-115"/>
      <use x="1245.943359" xlink:href="#DejaVuSans-116"/>
      <use x="1285.152344" xlink:href="#DejaVuSans-97"/>
      <use x="1346.431641" xlink:href="#DejaVuSans-110"/>
      <use x="1409.810547" xlink:href="#DejaVuSans-99"/>
      <use x="1464.791016" xlink:href="#DejaVuSans-101"/>
      <use x="1526.314453" xlink:href="#DejaVuSans-115"/>
      <use x="1578.414062" xlink:href="#DejaVuSans-32"/>
      <use x="1610.201172" xlink:href="#DejaVuSans-91"/>
      <use x="1649.214844" xlink:href="#DejaVuSans-120"/>
      <use x="1708.394531" xlink:href="#DejaVuSans-49"/>
      <use x="1772.017578" xlink:href="#DejaVuSans-48"/>
      <use x="1835.640625" xlink:href="#DejaVuSans-48"/>
      <use x="1899.263672" xlink:href="#DejaVuSans-48"/>
      <use x="1962.886719" xlink:href="#DejaVuSans-93"/>
     </g>
    </g>
   </g>
   <g id="matplotlib.axis_2">
    <g id="ytick_1">
     <g id="line2d_10">
      <defs>
       <path d="M 0 0 
L -3.5 0 
" id="m1f3d6baf06" style="stroke:#000000;stroke-width:0.8;"/>
      </defs>
      <g>
       <use style="stroke:#000000;stroke-width:0.8;" x="104.85" xlink:href="#m1f3d6baf06" y="366.26973"/>
      </g>
     </g>
     <g id="text_11">
      <!-- 0.9825 -->
      <g transform="translate(52.362187 371.208714)scale(0.13 -0.13)">
       <defs>
        <path d="M 10.6875 12.40625 
L 21 12.40625 
L 21 0 
L 10.6875 0 
z
" id="DejaVuSans-46"/>
        <path d="M 10.984375 1.515625 
L 10.984375 10.5 
Q 14.703125 8.734375 18.5 7.8125 
Q 22.3125 6.890625 25.984375 6.890625 
Q 35.75 6.890625 40.890625 13.453125 
Q 46.046875 20.015625 46.78125 33.40625 
Q 43.953125 29.203125 39.59375 26.953125 
Q 35.25 24.703125 29.984375 24.703125 
Q 19.046875 24.703125 12.671875 31.3125 
Q 6.296875 37.9375 6.296875 49.421875 
Q 6.296875 60.640625 12.9375 67.421875 
Q 19.578125 74.21875 30.609375 74.21875 
Q 43.265625 74.21875 49.921875 64.515625 
Q 56.59375 54.828125 56.59375 36.375 
Q 56.59375 19.140625 48.40625 8.859375 
Q 40.234375 -1.421875 26.421875 -1.421875 
Q 22.703125 -1.421875 18.890625 -0.6875 
Q 15.09375 0.046875 10.984375 1.515625 
z
M 30.609375 32.421875 
Q 37.25 32.421875 41.125 36.953125 
Q 45.015625 41.5 45.015625 49.421875 
Q 45.015625 57.28125 41.125 61.84375 
Q 37.25 66.40625 30.609375 66.40625 
Q 23.96875 66.40625 20.09375 61.84375 
Q 16.21875 57.28125 16.21875 49.421875 
Q 16.21875 41.5 20.09375 36.953125 
Q 23.96875 32.421875 30.609375 32.421875 
z
" id="DejaVuSans-57"/>
        <path d="M 31.78125 34.625 
Q 24.75 34.625 20.71875 30.859375 
Q 16.703125 27.09375 16.703125 20.515625 
Q 16.703125 13.921875 20.71875 10.15625 
Q 24.75 6.390625 31.78125 6.390625 
Q 38.8125 6.390625 42.859375 10.171875 
Q 46.921875 13.96875 46.921875 20.515625 
Q 46.921875 27.09375 42.890625 30.859375 
Q 38.875 34.625 31.78125 34.625 
z
M 21.921875 38.8125 
Q 15.578125 40.375 12.03125 44.71875 
Q 8.5 49.078125 8.5 55.328125 
Q 8.5 64.0625 14.71875 69.140625 
Q 20.953125 74.21875 31.78125 74.21875 
Q 42.671875 74.21875 48.875 69.140625 
Q 55.078125 64.0625 55.078125 55.328125 
Q 55.078125 49.078125 51.53125 44.71875 
Q 48 40.375 41.703125 38.8125 
Q 48.828125 37.15625 52.796875 32.3125 
Q 56.78125 27.484375 56.78125 20.515625 
Q 56.78125 9.90625 50.3125 4.234375 
Q 43.84375 -1.421875 31.78125 -1.421875 
Q 19.734375 -1.421875 13.25 4.234375 
Q 6.78125 9.90625 6.78125 20.515625 
Q 6.78125 27.484375 10.78125 32.3125 
Q 14.796875 37.15625 21.921875 38.8125 
z
M 18.3125 54.390625 
Q 18.3125 48.734375 21.84375 45.5625 
Q 25.390625 42.390625 31.78125 42.390625 
Q 38.140625 42.390625 41.71875 45.5625 
Q 45.3125 48.734375 45.3125 54.390625 
Q 45.3125 60.0625 41.71875 63.234375 
Q 38.140625 66.40625 31.78125 66.40625 
Q 25.390625 66.40625 21.84375 63.234375 
Q 18.3125 60.0625 18.3125 54.390625 
z
" id="DejaVuSans-56"/>
       </defs>
       <use xlink:href="#DejaVuSans-48"/>
       <use x="63.623047" xlink:href="#DejaVuSans-46"/>
       <use x="95.410156" xlink:href="#DejaVuSans-57"/>
       <use x="159.033203" xlink:href="#DejaVuSans-56"/>
       <use x="222.65625" xlink:href="#DejaVuSans-50"/>
       <use x="286.279297" xlink:href="#DejaVuSans-53"/>
      </g>
     </g>
    </g>
    <g id="ytick_2">
     <g id="line2d_11">
      <g>
       <use style="stroke:#000000;stroke-width:0.8;" x="104.85" xlink:href="#m1f3d6baf06" y="329.298812"/>
      </g>
     </g>
     <g id="text_12">
      <!-- 0.9850 -->
      <g transform="translate(52.362187 334.237796)scale(0.13 -0.13)">
       <use xlink:href="#DejaVuSans-48"/>
       <use x="63.623047" xlink:href="#DejaVuSans-46"/>
       <use x="95.410156" xlink:href="#DejaVuSans-57"/>
       <use x="159.033203" xlink:href="#DejaVuSans-56"/>
       <use x="222.65625" xlink:href="#DejaVuSans-53"/>
       <use x="286.279297" xlink:href="#DejaVuSans-48"/>
      </g>
     </g>
    </g>
    <g id="ytick_3">
     <g id="line2d_12">
      <g>
       <use style="stroke:#000000;stroke-width:0.8;" x="104.85" xlink:href="#m1f3d6baf06" y="292.327894"/>
      </g>
     </g>
     <g id="text_13">
      <!-- 0.9875 -->
      <g transform="translate(52.362187 297.266879)scale(0.13 -0.13)">
       <use xlink:href="#DejaVuSans-48"/>
       <use x="63.623047" xlink:href="#DejaVuSans-46"/>
       <use x="95.410156" xlink:href="#DejaVuSans-57"/>
       <use x="159.033203" xlink:href="#DejaVuSans-56"/>
       <use x="222.65625" xlink:href="#DejaVuSans-55"/>
       <use x="286.279297" xlink:href="#DejaVuSans-53"/>
      </g>
     </g>
    </g>
    <g id="ytick_4">
     <g id="line2d_13">
      <g>
       <use style="stroke:#000000;stroke-width:0.8;" x="104.85" xlink:href="#m1f3d6baf06" y="255.356977"/>
      </g>
     </g>
     <g id="text_14">
      <!-- 0.9900 -->
      <g transform="translate(52.362187 260.295961)scale(0.13 -0.13)">
       <use xlink:href="#DejaVuSans-48"/>
       <use x="63.623047" xlink:href="#DejaVuSans-46"/>
       <use x="95.410156" xlink:href="#DejaVuSans-57"/>
       <use x="159.033203" xlink:href="#DejaVuSans-57"/>
       <use x="222.65625" xlink:href="#DejaVuSans-48"/>
       <use x="286.279297" xlink:href="#DejaVuSans-48"/>
      </g>
     </g>
    </g>
    <g id="ytick_5">
     <g id="line2d_14">
      <g>
       <use style="stroke:#000000;stroke-width:0.8;" x="104.85" xlink:href="#m1f3d6baf06" y="218.386059"/>
      </g>
     </g>
     <g id="text_15">
      <!-- 0.9925 -->
      <g transform="translate(52.362187 223.325044)scale(0.13 -0.13)">
       <use xlink:href="#DejaVuSans-48"/>
       <use x="63.623047" xlink:href="#DejaVuSans-46"/>
       <use x="95.410156" xlink:href="#DejaVuSans-57"/>
       <use x="159.033203" xlink:href="#DejaVuSans-57"/>
       <use x="222.65625" xlink:href="#DejaVuSans-50"/>
       <use x="286.279297" xlink:href="#DejaVuSans-53"/>
      </g>
     </g>
    </g>
    <g id="ytick_6">
     <g id="line2d_15">
      <g>
       <use style="stroke:#000000;stroke-width:0.8;" x="104.85" xlink:href="#m1f3d6baf06" y="181.415142"/>
      </g>
     </g>
     <g id="text_16">
      <!-- 0.9950 -->
      <g transform="translate(52.362187 186.354126)scale(0.13 -0.13)">
       <use xlink:href="#DejaVuSans-48"/>
       <use x="63.623047" xlink:href="#DejaVuSans-46"/>
       <use x="95.410156" xlink:href="#DejaVuSans-57"/>
       <use x="159.033203" xlink:href="#DejaVuSans-57"/>
       <use x="222.65625" xlink:href="#DejaVuSans-53"/>
       <use x="286.279297" xlink:href="#DejaVuSans-48"/>
      </g>
     </g>
    </g>
    <g id="ytick_7">
     <g id="line2d_16">
      <g>
       <use style="stroke:#000000;stroke-width:0.8;" x="104.85" xlink:href="#m1f3d6baf06" y="144.444224"/>
      </g>
     </g>
     <g id="text_17">
      <!-- 0.9975 -->
      <g transform="translate(52.362187 149.383209)scale(0.13 -0.13)">
       <use xlink:href="#DejaVuSans-48"/>
       <use x="63.623047" xlink:href="#DejaVuSans-46"/>
       <use x="95.410156" xlink:href="#DejaVuSans-57"/>
       <use x="159.033203" xlink:href="#DejaVuSans-57"/>
       <use x="222.65625" xlink:href="#DejaVuSans-55"/>
       <use x="286.279297" xlink:href="#DejaVuSans-53"/>
      </g>
     </g>
    </g>
    <g id="text_18">
     <!-- Recall -->
     <g transform="translate(45.658594 270.044156)rotate(-90)scale(0.13 -0.13)">
      <defs>
       <path d="M 44.390625 34.1875 
Q 47.5625 33.109375 50.5625 29.59375 
Q 53.5625 26.078125 56.59375 19.921875 
L 66.609375 0 
L 56 0 
L 46.6875 18.703125 
Q 43.0625 26.03125 39.671875 28.421875 
Q 36.28125 30.8125 30.421875 30.8125 
L 19.671875 30.8125 
L 19.671875 0 
L 9.8125 0 
L 9.8125 72.90625 
L 32.078125 72.90625 
Q 44.578125 72.90625 50.734375 67.671875 
Q 56.890625 62.453125 56.890625 51.90625 
Q 56.890625 45.015625 53.6875 40.46875 
Q 50.484375 35.9375 44.390625 34.1875 
z
M 19.671875 64.796875 
L 19.671875 38.921875 
L 32.078125 38.921875 
Q 39.203125 38.921875 42.84375 42.21875 
Q 46.484375 45.515625 46.484375 51.90625 
Q 46.484375 58.296875 42.84375 61.546875 
Q 39.203125 64.796875 32.078125 64.796875 
z
" id="DejaVuSans-82"/>
       <path d="M 9.421875 75.984375 
L 18.40625 75.984375 
L 18.40625 0 
L 9.421875 0 
z
" id="DejaVuSans-108"/>
      </defs>
      <use xlink:href="#DejaVuSans-82"/>
      <use x="64.982422" xlink:href="#DejaVuSans-101"/>
      <use x="126.505859" xlink:href="#DejaVuSans-99"/>
      <use x="181.486328" xlink:href="#DejaVuSans-97"/>
      <use x="242.765625" xlink:href="#DejaVuSans-108"/>
      <use x="270.548828" xlink:href="#DejaVuSans-108"/>
     </g>
    </g>
   </g>
   <g id="line2d_17"/>
   <g id="line2d_18"/>
   <g id="line2d_19"/>
   <g id="line2d_20"/>
   <g id="line2d_21"/>
   <g id="line2d_22">
    <path clip-path="url(#p0ba8de8938)" d="M 122.604545 324.949292 
L 124.407037 308.408101 
L 126.209529 352.065999 
L 128.012021 328.074527 
L 129.814513 343.256005 
L 131.617005 340.745871 
L 133.419497 344.76558 
L 135.221989 332.79348 
L 137.024481 319.780968 
L 138.826973 331.991233 
L 140.629465 326.273376 
L 142.431957 327.097211 
L 144.234449 328.1175 
L 146.03694 325.462808 
L 147.839432 326.374944 
L 149.641924 326.592433 
L 151.444416 320.227352 
L 153.246908 310.396971 
L 155.0494 301.64335 
L 156.851892 295.826524 
L 158.654384 288.595179 
L 160.456876 288.241427 
L 162.259368 280.729766 
L 164.06186 290.861807 
L 165.864352 283.339274 
L 167.666844 281.639269 
L 169.469335 275.926139 
L 171.271827 272.556723 
L 173.074319 276.674932 
L 174.876811 261.816931 
L 176.679303 257.537493 
L 178.481795 250.121767 
L 180.284287 247.035466 
L 182.086779 245.3116 
L 183.889271 239.415856 
L 185.691763 236.100671 
L 187.494255 243.527285 
L 189.296747 250.477095 
L 192.901731 250.521756 
L 194.704222 254.05812 
L 196.506714 255.077465 
L 198.309206 247.860919 
L 200.111698 238.06046 
L 201.91419 236.089907 
L 203.716682 237.789912 
L 205.519174 235.964323 
L 207.321666 235.795852 
L 209.124158 228.088493 
L 212.729142 228.016708 
L 214.531634 227.704487 
L 216.334126 220.890316 
L 218.136617 218.930987 
L 219.939109 221.026505 
L 221.741601 222.328755 
L 223.544093 211.252447 
L 225.346585 206.033317 
L 227.149077 215.252998 
L 228.951569 213.183533 
L 230.754061 213.454773 
L 232.556553 205.37296 
L 234.359045 209.468793 
L 236.161537 211.333714 
L 237.964029 209.539257 
L 239.766521 203.966844 
L 241.569012 204.050872 
L 243.371504 204.275928 
L 245.173996 204.321919 
L 246.976488 212.414908 
L 248.77898 213.993403 
L 250.581472 221.442064 
L 252.383964 226.8492 
L 254.186456 222.852244 
L 255.988948 223.871493 
L 257.79144 219.023043 
L 259.593932 221.21982 
L 261.396424 220.29323 
L 263.198916 217.870563 
L 265.001407 220.873991 
L 266.803899 219.283031 
L 268.606391 219.895972 
L 270.408883 218.77363 
L 274.013867 227.462846 
L 275.816359 229.393347 
L 277.618851 231.150629 
L 279.421343 231.411731 
L 281.223835 236.51077 
L 283.026327 228.510241 
L 284.828819 226.969469 
L 286.631311 220.407111 
L 288.433802 215.998035 
L 290.236294 218.089319 
L 292.038786 211.030631 
L 293.841278 213.675332 
L 295.64377 212.902109 
L 297.446262 214.513679 
L 299.248754 212.482056 
L 301.051246 214.140148 
L 302.853738 214.032081 
L 304.65623 214.869447 
L 306.458722 210.828974 
L 308.261214 197.543088 
L 310.063706 193.121658 
L 313.668689 183.305918 
L 315.471181 180.097108 
L 317.273673 176.417155 
L 319.076165 176.098486 
L 322.681149 170.201756 
L 326.286133 172.966041 
L 328.088625 172.870777 
L 329.891117 169.232929 
L 331.693609 167.576914 
L 333.496101 166.617516 
L 335.298593 160.00819 
L 337.101084 155.155105 
L 340.706068 150.253254 
L 342.50856 151.056963 
L 346.113544 150.977463 
L 349.718528 152.51241 
L 351.52102 155.024142 
L 356.928496 157.390535 
L 358.730988 158.224871 
L 362.335971 156.560933 
L 364.138463 156.551794 
L 367.743447 153.292887 
L 369.545939 154.937675 
L 371.348431 157.407892 
L 373.150923 157.38943 
L 378.558399 154.952496 
L 380.360891 154.951592 
L 382.163383 154.196626 
L 383.965874 154.210696 
L 387.570858 150.907495 
L 389.37335 146.858107 
L 391.175842 147.709443 
L 392.978334 146.077173 
L 394.780826 143.606956 
L 396.583318 141.952974 
L 398.38581 141.87546 
L 401.990794 140.217424 
L 403.793286 142.693155 
L 405.595778 139.432214 
L 409.200761 139.408578 
L 411.003253 137.779958 
L 412.805745 140.212255 
L 418.213221 137.729794 
L 420.015713 136.126039 
L 421.818205 135.311733 
L 427.225681 135.350544 
L 432.633156 140.322008 
L 434.435648 137.905287 
L 436.23814 138.720357 
L 438.040632 141.198805 
L 439.843124 139.528541 
L 441.645616 140.325045 
L 443.448108 138.694581 
L 447.053092 137.052339 
L 448.855584 134.620042 
L 450.658076 137.063054 
L 452.460568 137.887377 
L 454.26306 137.059394 
L 456.065551 135.430719 
L 457.868043 136.223594 
L 459.670535 134.569414 
L 461.473027 136.216226 
L 463.275519 133.703596 
L 465.078011 132.056785 
L 466.880503 131.233431 
L 468.682995 129.563019 
L 470.485487 130.374524 
L 472.287979 128.727713 
L 474.090471 126.249265 
L 475.892963 126.263552 
L 477.695455 124.651813 
L 477.695455 124.651813 
" style="fill:none;stroke:#cc3311;stroke-linecap:square;stroke-width:0.5;"/>
    <defs>
     <path d="M 0 2.5 
C 0.663008 2.5 1.29895 2.236584 1.767767 1.767767 
C 2.236584 1.29895 2.5 0.663008 2.5 0 
C 2.5 -0.663008 2.236584 -1.29895 1.767767 -1.767767 
C 1.29895 -2.236584 0.663008 -2.5 0 -2.5 
C -0.663008 -2.5 -1.29895 -2.236584 -1.767767 -1.767767 
C -2.236584 -1.29895 -2.5 -0.663008 -2.5 0 
C -2.5 0.663008 -2.236584 1.29895 -1.767767 1.767767 
C -1.29895 2.236584 -0.663008 2.5 0 2.5 
z
" id="m2ae0ea6078" style="stroke:#cc3311;"/>
    </defs>
    <g clip-path="url(#p0ba8de8938)">
     <use style="fill:#cc3311;stroke:#cc3311;" x="122.604545" xlink:href="#m2ae0ea6078" y="324.949292"/>
     <use style="fill:#cc3311;stroke:#cc3311;" x="140.629465" xlink:href="#m2ae0ea6078" y="326.273376"/>
     <use style="fill:#cc3311;stroke:#cc3311;" x="158.654384" xlink:href="#m2ae0ea6078" y="288.595179"/>
     <use style="fill:#cc3311;stroke:#cc3311;" x="176.679303" xlink:href="#m2ae0ea6078" y="257.537493"/>
     <use style="fill:#cc3311;stroke:#cc3311;" x="194.704222" xlink:href="#m2ae0ea6078" y="254.05812"/>
     <use style="fill:#cc3311;stroke:#cc3311;" x="212.729142" xlink:href="#m2ae0ea6078" y="228.016708"/>
     <use style="fill:#cc3311;stroke:#cc3311;" x="230.754061" xlink:href="#m2ae0ea6078" y="213.454773"/>
     <use style="fill:#cc3311;stroke:#cc3311;" x="248.77898" xlink:href="#m2ae0ea6078" y="213.993403"/>
     <use style="fill:#cc3311;stroke:#cc3311;" x="266.803899" xlink:href="#m2ae0ea6078" y="219.283031"/>
     <use style="fill:#cc3311;stroke:#cc3311;" x="284.828819" xlink:href="#m2ae0ea6078" y="226.969469"/>
     <use style="fill:#cc3311;stroke:#cc3311;" x="302.853738" xlink:href="#m2ae0ea6078" y="214.032081"/>
     <use style="fill:#cc3311;stroke:#cc3311;" x="320.878657" xlink:href="#m2ae0ea6078" y="173.158535"/>
     <use style="fill:#cc3311;stroke:#cc3311;" x="338.903576" xlink:href="#m2ae0ea6078" y="152.705048"/>
     <use style="fill:#cc3311;stroke:#cc3311;" x="356.928496" xlink:href="#m2ae0ea6078" y="157.390535"/>
     <use style="fill:#cc3311;stroke:#cc3311;" x="374.953415" xlink:href="#m2ae0ea6078" y="156.539566"/>
     <use style="fill:#cc3311;stroke:#cc3311;" x="392.978334" xlink:href="#m2ae0ea6078" y="146.077173"/>
     <use style="fill:#cc3311;stroke:#cc3311;" x="411.003253" xlink:href="#m2ae0ea6078" y="137.779958"/>
     <use style="fill:#cc3311;stroke:#cc3311;" x="429.028173" xlink:href="#m2ae0ea6078" y="136.997355"/>
     <use style="fill:#cc3311;stroke:#cc3311;" x="447.053092" xlink:href="#m2ae0ea6078" y="137.052339"/>
     <use style="fill:#cc3311;stroke:#cc3311;" x="465.078011" xlink:href="#m2ae0ea6078" y="132.056785"/>
    </g>
   </g>
   <g id="line2d_23"/>
   <g id="line2d_24"/>
   <g id="line2d_25"/>
   <g id="line2d_26"/>
   <g id="line2d_27">
    <path clip-path="url(#p0ba8de8938)" d="M 122.604545 324.949292 
L 124.407037 271.529381 
L 126.209529 315.187278 
L 128.012021 300.415486 
L 129.814513 298.890627 
L 131.617005 291.512395 
L 133.419497 302.565458 
L 135.221989 295.868373 
L 137.024481 282.950963 
L 138.826973 283.981548 
L 140.629465 278.954992 
L 142.431957 277.369634 
L 144.234449 273.257904 
L 146.03694 274.521754 
L 147.839432 276.255832 
L 149.641924 277.289292 
L 151.444416 278.173916 
L 153.246908 272.669125 
L 155.0494 267.827752 
L 156.851892 261.755868 
L 158.654384 252.703296 
L 160.456876 257.810601 
L 162.259368 244.875865 
L 164.06186 249.738892 
L 165.864352 244.124446 
L 167.666844 240.501486 
L 169.469335 229.270309 
L 171.271827 222.194535 
L 173.074319 222.399051 
L 174.876811 213.109876 
L 176.679303 207.049069 
L 178.481795 201.435489 
L 180.284287 199.03653 
L 182.086779 193.587635 
L 183.889271 187.726543 
L 185.691763 182.362592 
L 187.494255 182.385757 
L 189.296747 184.04914 
L 191.099239 180.388654 
L 192.901731 184.326781 
L 194.704222 187.889668 
L 196.506714 183.181718 
L 198.309206 183.232184 
L 200.111698 178.700739 
L 201.91419 176.826739 
L 207.321666 187.680045 
L 209.124158 185.689838 
L 212.729142 189.424369 
L 214.531634 191.121438 
L 216.334126 189.442116 
L 218.136617 191.207816 
L 219.939109 195.199279 
L 221.741601 200.403472 
L 223.544093 193.033522 
L 225.346585 187.789421 
L 227.149077 195.165165 
L 228.951569 189.281199 
L 230.754061 185.7596 
L 232.556553 181.631896 
L 234.359045 179.764678 
L 236.161537 179.70403 
L 237.964029 181.464469 
L 241.569012 177.782837 
L 243.371504 178.007893 
L 245.173996 178.053884 
L 246.976488 181.16203 
L 248.77898 184.59836 
L 252.383964 189.813016 
L 254.186456 184.322286 
L 255.988948 180.940235 
L 257.79144 176.091784 
L 259.593932 178.288561 
L 261.396424 180.883012 
L 263.198916 178.444953 
L 265.001407 183.301559 
L 266.803899 187.298144 
L 268.606391 187.911085 
L 270.408883 192.751794 
L 272.211375 195.629432 
L 274.013867 197.626114 
L 275.816359 198.500303 
L 277.618851 198.969623 
L 279.421343 196.212691 
L 281.223835 198.326191 
L 283.026327 196.295083 
L 284.828819 191.939266 
L 286.631311 191.076163 
L 288.433802 189.527506 
L 290.236294 193.112564 
L 292.038786 190.455176 
L 293.841278 190.511481 
L 295.64377 189.738259 
L 297.446262 190.508624 
L 299.248754 190.527934 
L 301.051246 193.000364 
L 302.853738 192.892296 
L 304.65623 194.543104 
L 306.458722 189.702394 
L 308.261214 180.76381 
L 310.063706 179.38795 
L 311.866198 176.336382 
L 313.668689 175.438949 
L 315.471181 176.063408 
L 317.273673 175.368994 
L 319.076165 174.065747 
L 320.878657 173.94084 
L 322.681149 170.065529 
L 324.483641 170.661789 
L 326.286133 172.81501 
L 328.088625 172.719746 
L 329.891117 172.486429 
L 331.693609 171.662155 
L 333.496101 171.543962 
L 335.298593 169.869623 
L 337.101084 165.863815 
L 340.706068 162.577711 
L 342.50856 167.389544 
L 344.311052 169.019979 
L 347.916036 170.473203 
L 349.718528 172.059647 
L 351.52102 177.08311 
L 353.323512 178.656072 
L 355.126004 183.498831 
L 356.928496 186.766064 
L 358.730988 190.894023 
L 360.533479 191.659112 
L 364.138463 191.714303 
L 365.940955 192.640976 
L 367.743447 192.580718 
L 369.545939 197.486447 
L 371.348431 199.144226 
L 373.150923 199.928877 
L 374.953415 199.887842 
L 376.755907 199.151042 
L 378.558399 195.976902 
L 380.360891 194.339213 
L 382.163383 194.454377 
L 383.965874 196.896286 
L 385.768366 195.265828 
L 387.570858 191.095942 
L 389.37335 189.519333 
L 391.175842 186.312391 
L 392.978334 187.210964 
L 394.780826 181.447123 
L 398.38581 178.051412 
L 400.188302 178.907129 
L 401.990794 176.356321 
L 403.793286 178.047572 
L 405.595778 173.156161 
L 407.398269 171.480266 
L 409.200761 173.117035 
L 411.003253 170.676831 
L 412.805745 173.872309 
L 414.608237 173.881428 
L 418.213221 170.554199 
L 420.015713 168.161026 
L 421.818205 166.532415 
L 423.620697 167.356726 
L 425.423189 167.382429 
L 427.225681 169.086576 
L 429.028173 168.224356 
L 430.830665 174.020469 
L 432.633156 178.172046 
L 434.435648 178.231057 
L 436.23814 181.499672 
L 438.040632 185.637722 
L 439.843124 183.927904 
L 441.645616 184.711921 
L 443.448108 184.719143 
L 445.2506 182.260798 
L 447.053092 181.428366 
L 448.855584 176.563772 
L 450.658076 180.617322 
L 452.460568 186.387588 
L 456.065551 184.752361 
L 457.868043 187.952561 
L 459.670535 188.77042 
L 461.473027 192.049306 
L 463.275519 190.316206 
L 466.880503 188.696429 
L 468.682995 186.169047 
L 470.485487 185.325485 
L 472.287979 182.00197 
L 474.090471 180.320459 
L 475.892963 182.002831 
L 477.695455 182.849284 
L 477.695455 182.849284 
" style="fill:none;stroke:#009988;stroke-dasharray:1.85,0.8;stroke-dashoffset:0;stroke-width:0.5;"/>
    <defs>
     <path d="M -2.5 2.5 
L 2.5 2.5 
L 2.5 -2.5 
L -2.5 -2.5 
z
" id="m6b898a5a5f" style="stroke:#009988;stroke-linejoin:miter;"/>
    </defs>
    <g clip-path="url(#p0ba8de8938)">
     <use style="fill:#009988;stroke:#009988;stroke-linejoin:miter;" x="122.604545" xlink:href="#m6b898a5a5f" y="324.949292"/>
     <use style="fill:#009988;stroke:#009988;stroke-linejoin:miter;" x="140.629465" xlink:href="#m6b898a5a5f" y="278.954992"/>
     <use style="fill:#009988;stroke:#009988;stroke-linejoin:miter;" x="158.654384" xlink:href="#m6b898a5a5f" y="252.703296"/>
     <use style="fill:#009988;stroke:#009988;stroke-linejoin:miter;" x="176.679303" xlink:href="#m6b898a5a5f" y="207.049069"/>
     <use style="fill:#009988;stroke:#009988;stroke-linejoin:miter;" x="194.704222" xlink:href="#m6b898a5a5f" y="187.889668"/>
     <use style="fill:#009988;stroke:#009988;stroke-linejoin:miter;" x="212.729142" xlink:href="#m6b898a5a5f" y="189.424369"/>
     <use style="fill:#009988;stroke:#009988;stroke-linejoin:miter;" x="230.754061" xlink:href="#m6b898a5a5f" y="185.7596"/>
     <use style="fill:#009988;stroke:#009988;stroke-linejoin:miter;" x="248.77898" xlink:href="#m6b898a5a5f" y="184.59836"/>
     <use style="fill:#009988;stroke:#009988;stroke-linejoin:miter;" x="266.803899" xlink:href="#m6b898a5a5f" y="187.298144"/>
     <use style="fill:#009988;stroke:#009988;stroke-linejoin:miter;" x="284.828819" xlink:href="#m6b898a5a5f" y="191.939266"/>
     <use style="fill:#009988;stroke:#009988;stroke-linejoin:miter;" x="302.853738" xlink:href="#m6b898a5a5f" y="192.892296"/>
     <use style="fill:#009988;stroke:#009988;stroke-linejoin:miter;" x="320.878657" xlink:href="#m6b898a5a5f" y="173.94084"/>
     <use style="fill:#009988;stroke:#009988;stroke-linejoin:miter;" x="338.903576" xlink:href="#m6b898a5a5f" y="164.239002"/>
     <use style="fill:#009988;stroke:#009988;stroke-linejoin:miter;" x="356.928496" xlink:href="#m6b898a5a5f" y="186.766064"/>
     <use style="fill:#009988;stroke:#009988;stroke-linejoin:miter;" x="374.953415" xlink:href="#m6b898a5a5f" y="199.887842"/>
     <use style="fill:#009988;stroke:#009988;stroke-linejoin:miter;" x="392.978334" xlink:href="#m6b898a5a5f" y="187.210964"/>
     <use style="fill:#009988;stroke:#009988;stroke-linejoin:miter;" x="411.003253" xlink:href="#m6b898a5a5f" y="170.676831"/>
     <use style="fill:#009988;stroke:#009988;stroke-linejoin:miter;" x="429.028173" xlink:href="#m6b898a5a5f" y="168.224356"/>
     <use style="fill:#009988;stroke:#009988;stroke-linejoin:miter;" x="447.053092" xlink:href="#m6b898a5a5f" y="181.428366"/>
     <use style="fill:#009988;stroke:#009988;stroke-linejoin:miter;" x="465.078011" xlink:href="#m6b898a5a5f" y="189.496472"/>
    </g>
   </g>
   <g id="line2d_28"/>
   <g id="line2d_29"/>
   <g id="line2d_30"/>
   <g id="line2d_31"/>
   <g id="line2d_32">
    <path clip-path="url(#p0ba8de8938)" d="M 122.604545 324.949292 
L 124.407037 308.408101 
L 126.209529 376.651813 
L 128.012021 346.513887 
L 129.814513 343.182063 
L 131.617005 328.421925 
L 133.419497 339.537107 
L 137.024481 307.775705 
L 138.826973 302.608145 
L 140.629465 299.561478 
L 142.431957 289.906522 
L 144.234449 287.816155 
L 146.03694 285.419009 
L 147.839432 286.426603 
L 149.641924 282.191443 
L 151.444416 280.612945 
L 153.246908 274.972652 
L 155.0494 270.010041 
L 156.851892 265.77488 
L 158.654384 262.18599 
L 160.456876 263.605423 
L 162.259368 246.955632 
L 164.06186 248.305983 
L 165.864352 240.838358 
L 167.666844 240.949834 
L 169.469335 231.530137 
L 171.271827 226.223307 
L 173.074319 224.522105 
L 174.876811 218.95328 
L 176.679303 212.773023 
L 178.481795 210.970878 
L 180.284287 210.054422 
L 182.086779 210.165341 
L 183.889271 204.304248 
L 185.691763 202.646656 
L 187.494255 208.224724 
L 189.296747 211.636141 
L 191.099239 207.975654 
L 192.901731 206.045301 
L 194.704222 205.93921 
L 196.506714 199.254206 
L 198.309206 197.487918 
L 200.111698 196.46915 
L 201.91419 192.817701 
L 203.716682 194.545575 
L 205.519174 194.559336 
L 207.321666 198.097222 
L 210.92665 198.026914 
L 214.531634 201.538834 
L 216.334126 196.436279 
L 218.136617 192.646707 
L 219.939109 196.638169 
L 221.741601 201.842363 
L 223.544093 190.766056 
L 225.346585 183.77392 
L 227.149077 192.9936 
L 228.951569 191.032278 
L 230.754061 187.578489 
L 232.556553 185.427839 
L 234.359045 185.548305 
L 236.161537 185.487657 
L 237.964029 189.025544 
L 239.766521 181.650026 
L 241.569012 179.862108 
L 243.371504 181.968636 
L 245.173996 182.014627 
L 246.976488 186.784388 
L 248.77898 186.598161 
L 250.581472 189.266099 
L 252.383964 193.243026 
L 254.186456 189.582539 
L 257.79144 182.771267 
L 259.593932 184.968044 
L 261.396424 187.562494 
L 263.198916 185.749342 
L 265.001407 190.605948 
L 266.803899 191.568199 
L 268.606391 192.181139 
L 270.408883 195.034165 
L 272.211375 199.087349 
L 274.013867 202.190944 
L 275.816359 206.707588 
L 277.618851 208.23021 
L 279.421343 204.597818 
L 281.223835 207.706497 
L 283.026327 203.029197 
L 284.828819 200.438102 
L 286.631311 198.656467 
L 288.433802 196.59159 
L 290.236294 200.176649 
L 292.038786 197.519261 
L 293.841278 197.881934 
L 295.64377 197.108711 
L 297.446262 198.720281 
L 299.248754 197.096914 
L 301.051246 199.569344 
L 302.853738 199.81152 
L 304.65623 200.648886 
L 306.458722 196.608413 
L 308.261214 185.673618 
L 311.866198 177.654218 
L 313.668689 175.703482 
L 315.471181 174.506695 
L 317.273673 172.817101 
L 319.076165 172.498432 
L 320.878657 173.186967 
L 322.681149 171.048128 
L 326.286133 175.387293 
L 328.088625 176.940677 
L 329.891117 177.430167 
L 331.693609 178.269377 
L 333.496101 178.121635 
L 337.101084 169.973995 
L 338.903576 169.170758 
L 340.706068 167.520936 
L 342.50856 169.928589 
L 344.311052 170.743806 
L 346.113544 170.686224 
L 347.916036 172.244447 
L 349.718528 173.013853 
L 351.52102 177.189068 
L 353.323512 177.952153 
L 355.126004 180.359944 
L 356.928496 181.997601 
L 358.730988 182.013997 
L 360.533479 179.454747 
L 362.335971 179.519078 
L 364.138463 177.861292 
L 365.940955 174.670443 
L 367.743447 172.135046 
L 371.348431 173.797068 
L 373.150923 172.938567 
L 374.953415 171.263459 
L 376.755907 170.494073 
L 378.558399 168.105031 
L 383.965874 168.178392 
L 385.768366 166.547029 
L 389.37335 161.632567 
L 391.175842 160.039017 
L 392.978334 160.093975 
L 394.780826 157.623758 
L 396.583318 155.969776 
L 398.38581 155.047815 
L 400.188302 155.07179 
L 401.990794 153.371251 
L 403.793286 155.874158 
L 405.595778 152.613217 
L 409.200761 154.225469 
L 411.003253 152.596848 
L 412.805745 155.816119 
L 414.608237 154.997272 
L 416.410729 153.363199 
L 418.213221 152.516621 
L 420.015713 150.104758 
L 421.818205 149.294088 
L 423.620697 150.118399 
L 425.423189 149.304161 
L 427.225681 152.661625 
L 429.028173 152.635749 
L 430.830665 159.259878 
L 432.633156 161.752821 
L 434.435648 160.173147 
L 436.23814 165.09691 
L 438.040632 165.107864 
L 439.843124 160.981646 
L 441.645616 162.587142 
L 443.448108 161.776423 
L 445.2506 160.136919 
L 447.053092 159.314429 
L 448.855584 155.2606 
L 450.658076 159.332287 
L 452.460568 162.629582 
L 454.26306 161.801599 
L 456.065551 161.808805 
L 457.868043 163.394555 
L 459.670535 162.561926 
L 461.473027 165.028459 
L 463.275519 160.834942 
L 465.078011 160.838614 
L 466.880503 157.545199 
L 468.682995 155.863905 
L 470.485487 155.024922 
L 472.287979 150.878001 
L 474.090471 150.0482 
L 475.892963 153.327217 
L 477.695455 153.352192 
L 477.695455 153.352192 
" style="fill:none;stroke:#0077bb;stroke-dasharray:3.2,0.8,0.5,0.8;stroke-dashoffset:0;stroke-width:0.5;"/>
    <defs>
     <path d="M 0 -2.5 
L -2.5 2.5 
L 2.5 2.5 
z
" id="m6527ed5ab7" style="stroke:#0077bb;stroke-linejoin:miter;"/>
    </defs>
    <g clip-path="url(#p0ba8de8938)">
     <use style="fill:#0077bb;stroke:#0077bb;stroke-linejoin:miter;" x="122.604545" xlink:href="#m6527ed5ab7" y="324.949292"/>
     <use style="fill:#0077bb;stroke:#0077bb;stroke-linejoin:miter;" x="140.629465" xlink:href="#m6527ed5ab7" y="299.561478"/>
     <use style="fill:#0077bb;stroke:#0077bb;stroke-linejoin:miter;" x="158.654384" xlink:href="#m6527ed5ab7" y="262.18599"/>
     <use style="fill:#0077bb;stroke:#0077bb;stroke-linejoin:miter;" x="176.679303" xlink:href="#m6527ed5ab7" y="212.773023"/>
     <use style="fill:#0077bb;stroke:#0077bb;stroke-linejoin:miter;" x="194.704222" xlink:href="#m6527ed5ab7" y="205.93921"/>
     <use style="fill:#0077bb;stroke:#0077bb;stroke-linejoin:miter;" x="212.729142" xlink:href="#m6527ed5ab7" y="199.841766"/>
     <use style="fill:#0077bb;stroke:#0077bb;stroke-linejoin:miter;" x="230.754061" xlink:href="#m6527ed5ab7" y="187.578489"/>
     <use style="fill:#0077bb;stroke:#0077bb;stroke-linejoin:miter;" x="248.77898" xlink:href="#m6527ed5ab7" y="186.598161"/>
     <use style="fill:#0077bb;stroke:#0077bb;stroke-linejoin:miter;" x="266.803899" xlink:href="#m6527ed5ab7" y="191.568199"/>
     <use style="fill:#0077bb;stroke:#0077bb;stroke-linejoin:miter;" x="284.828819" xlink:href="#m6527ed5ab7" y="200.438102"/>
     <use style="fill:#0077bb;stroke:#0077bb;stroke-linejoin:miter;" x="302.853738" xlink:href="#m6527ed5ab7" y="199.81152"/>
     <use style="fill:#0077bb;stroke:#0077bb;stroke-linejoin:miter;" x="320.878657" xlink:href="#m6527ed5ab7" y="173.186967"/>
     <use style="fill:#0077bb;stroke:#0077bb;stroke-linejoin:miter;" x="338.903576" xlink:href="#m6527ed5ab7" y="169.170758"/>
     <use style="fill:#0077bb;stroke:#0077bb;stroke-linejoin:miter;" x="356.928496" xlink:href="#m6527ed5ab7" y="181.997601"/>
     <use style="fill:#0077bb;stroke:#0077bb;stroke-linejoin:miter;" x="374.953415" xlink:href="#m6527ed5ab7" y="171.263459"/>
     <use style="fill:#0077bb;stroke:#0077bb;stroke-linejoin:miter;" x="392.978334" xlink:href="#m6527ed5ab7" y="160.093975"/>
     <use style="fill:#0077bb;stroke:#0077bb;stroke-linejoin:miter;" x="411.003253" xlink:href="#m6527ed5ab7" y="152.596848"/>
     <use style="fill:#0077bb;stroke:#0077bb;stroke-linejoin:miter;" x="429.028173" xlink:href="#m6527ed5ab7" y="152.635749"/>
     <use style="fill:#0077bb;stroke:#0077bb;stroke-linejoin:miter;" x="447.053092" xlink:href="#m6527ed5ab7" y="159.314429"/>
     <use style="fill:#0077bb;stroke:#0077bb;stroke-linejoin:miter;" x="465.078011" xlink:href="#m6527ed5ab7" y="160.838614"/>
    </g>
   </g>
   <g id="line2d_33"/>
   <g id="line2d_34"/>
   <g id="line2d_35"/>
   <g id="line2d_36"/>
   <g id="line2d_37">
    <path clip-path="url(#p0ba8de8938)" d="M 122.604545 288.703295 
L 124.407037 253.406382 
L 126.209529 278.519465 
L 128.012021 272.914626 
L 129.814513 269.477224 
L 131.617005 248.607735 
L 133.419497 244.4504 
L 135.221989 240.595339 
L 137.024481 233.819377 
L 138.826973 236.04745 
L 140.629465 224.358892 
L 142.431957 224.147013 
L 144.234449 218.157852 
L 146.03694 218.115178 
L 147.839432 215.887309 
L 149.641924 209.111434 
L 151.444416 209.657001 
L 153.246908 203.980129 
L 155.0494 202.753966 
L 156.851892 199.935771 
L 158.654384 192.695499 
L 160.456876 190.710062 
L 162.259368 179.646446 
L 164.06186 177.48412 
L 165.864352 171.897129 
L 167.666844 170.05778 
L 171.271827 159.149295 
L 173.074319 155.542377 
L 174.876811 148.111036 
L 176.679303 148.111036 
L 178.481795 142.393884 
L 180.284287 142.16477 
L 182.086779 138.52293 
L 183.889271 136.557682 
L 185.691763 138.508654 
L 187.494255 138.522553 
L 189.296747 142.018621 
L 191.099239 138.358134 
L 194.704222 138.347095 
L 196.506714 136.777779 
L 198.309206 138.644997 
L 200.111698 137.257443 
L 201.91419 135.431719 
L 203.716682 140.949767 
L 207.321666 144.562646 
L 212.729142 144.562646 
L 214.531634 146.415825 
L 216.334126 144.704208 
L 218.136617 146.50218 
L 219.939109 144.606236 
L 221.741601 149.940174 
L 225.346585 142.780514 
L 227.149077 146.468386 
L 228.951569 144.507064 
L 230.754061 142.71236 
L 232.556553 142.538764 
L 234.359045 140.671546 
L 236.161537 140.641223 
L 237.964029 142.410166 
L 239.766521 136.892119 
L 241.569012 138.792073 
L 243.371504 137.023129 
L 245.173996 137.023129 
L 246.976488 138.684744 
L 248.77898 138.684744 
L 250.581472 136.831565 
L 252.383964 136.831565 
L 254.186456 133.171078 
L 255.988948 134.638178 
L 257.79144 128.772497 
L 259.593932 130.969274 
L 261.396424 132.266499 
L 263.198916 129.813049 
L 265.001407 131.0272 
L 266.803899 135.71448 
L 268.606391 135.11922 
L 270.408883 138.749752 
L 272.211375 141.95189 
L 274.013867 141.289861 
L 275.816359 146.57142 
L 277.618851 142.82753 
L 279.421343 143.833541 
L 281.223835 145.8239 
L 283.026327 145.146864 
L 284.828819 146.085212 
L 286.631311 149.759341 
L 288.433802 150.673331 
L 290.236294 152.465861 
L 292.038786 151.870716 
L 293.841278 153.902681 
L 295.64377 152.299584 
L 299.248754 153.102677 
L 301.051246 156.77455 
L 302.853738 155.373574 
L 304.65623 157.41914 
L 306.458722 154.588845 
L 308.261214 148.356233 
L 310.063706 149.744545 
L 311.866198 146.927713 
L 313.668689 149.414546 
L 315.471181 149.22377 
L 317.273673 148.876563 
L 319.076165 149.542472 
L 320.878657 149.417565 
L 322.681149 146.561377 
L 324.483641 147.316503 
L 326.286133 149.622745 
L 328.088625 149.575113 
L 329.891117 151.020729 
L 331.693609 151.02633 
L 333.496101 152.590545 
L 335.298593 152.579541 
L 337.101084 149.355131 
L 338.903576 149.369802 
L 340.706068 147.719981 
L 342.50856 149.325661 
L 344.311052 150.140878 
L 346.113544 151.708391 
L 347.916036 152.462024 
L 351.52102 157.389144 
L 353.323512 161.415136 
L 356.928496 164.646235 
L 358.730988 167.945323 
L 360.533479 169.558863 
L 364.138463 171.248943 
L 365.940955 169.690364 
L 367.743447 169.630106 
L 369.545939 173.720601 
L 371.348431 177.019707 
L 373.150923 178.644396 
L 374.953415 177.794532 
L 376.755907 177.859704 
L 378.558399 177.09148 
L 382.163383 177.185643 
L 383.965874 178.007819 
L 385.768366 175.55942 
L 387.570858 174.716502 
L 389.37335 169.868022 
L 391.175842 169.086127 
L 392.978334 171.61697 
L 394.780826 167.499941 
L 396.583318 165.031622 
L 398.38581 164.125164 
L 400.188302 164.149139 
L 401.990794 162.4486 
L 403.793286 164.139851 
L 405.595778 159.24844 
L 407.398269 157.572545 
L 409.200761 157.568898 
L 411.003253 155.940277 
L 412.805745 159.135756 
L 418.213221 154.178252 
L 420.015713 151.766389 
L 421.818205 150.955719 
L 425.423189 150.959366 
L 427.225681 153.485089 
L 429.028173 152.622869 
L 430.830665 156.762949 
L 432.633156 161.718878 
L 434.435648 160.952645 
L 436.23814 162.582785 
L 438.040632 165.06671 
L 439.843124 163.356892 
L 441.645616 164.956144 
L 443.448108 164.963366 
L 445.2506 164.145438 
L 447.053092 164.135496 
L 448.855584 159.270901 
L 450.658076 164.971263 
L 452.460568 169.917205 
L 454.26306 167.444234 
L 456.065551 167.451441 
L 457.868043 169.844415 
L 459.670535 169.013633 
L 461.473027 173.950383 
L 465.078011 168.934564 
L 466.880503 167.292519 
L 468.682995 163.962577 
L 470.485487 163.944259 
L 475.892963 161.467837 
L 477.695455 159.053349 
L 477.695455 159.053349 
" style="fill:none;stroke:#ee7733;stroke-dasharray:0.5,0.825;stroke-dashoffset:0;stroke-width:0.5;"/>
    <defs>
     <path d="M 0 -2.5 
L -0.561285 -0.772542 
L -2.377641 -0.772542 
L -0.908178 0.295085 
L -1.469463 2.022542 
L -0 0.954915 
L 1.469463 2.022542 
L 0.908178 0.295085 
L 2.377641 -0.772542 
L 0.561285 -0.772542 
z
" id="m8ab18cc0d7" style="stroke:#ee7733;stroke-linejoin:bevel;"/>
    </defs>
    <g clip-path="url(#p0ba8de8938)">
     <use style="fill:#ee7733;stroke:#ee7733;stroke-linejoin:bevel;" x="122.604545" xlink:href="#m8ab18cc0d7" y="288.703295"/>
     <use style="fill:#ee7733;stroke:#ee7733;stroke-linejoin:bevel;" x="140.629465" xlink:href="#m8ab18cc0d7" y="224.358892"/>
     <use style="fill:#ee7733;stroke:#ee7733;stroke-linejoin:bevel;" x="158.654384" xlink:href="#m8ab18cc0d7" y="192.695499"/>
     <use style="fill:#ee7733;stroke:#ee7733;stroke-linejoin:bevel;" x="176.679303" xlink:href="#m8ab18cc0d7" y="148.111036"/>
     <use style="fill:#ee7733;stroke:#ee7733;stroke-linejoin:bevel;" x="194.704222" xlink:href="#m8ab18cc0d7" y="138.347095"/>
     <use style="fill:#ee7733;stroke:#ee7733;stroke-linejoin:bevel;" x="212.729142" xlink:href="#m8ab18cc0d7" y="144.562646"/>
     <use style="fill:#ee7733;stroke:#ee7733;stroke-linejoin:bevel;" x="230.754061" xlink:href="#m8ab18cc0d7" y="142.71236"/>
     <use style="fill:#ee7733;stroke:#ee7733;stroke-linejoin:bevel;" x="248.77898" xlink:href="#m8ab18cc0d7" y="138.684744"/>
     <use style="fill:#ee7733;stroke:#ee7733;stroke-linejoin:bevel;" x="266.803899" xlink:href="#m8ab18cc0d7" y="135.71448"/>
     <use style="fill:#ee7733;stroke:#ee7733;stroke-linejoin:bevel;" x="284.828819" xlink:href="#m8ab18cc0d7" y="146.085212"/>
     <use style="fill:#ee7733;stroke:#ee7733;stroke-linejoin:bevel;" x="302.853738" xlink:href="#m8ab18cc0d7" y="155.373574"/>
     <use style="fill:#ee7733;stroke:#ee7733;stroke-linejoin:bevel;" x="320.878657" xlink:href="#m8ab18cc0d7" y="149.417565"/>
     <use style="fill:#ee7733;stroke:#ee7733;stroke-linejoin:bevel;" x="338.903576" xlink:href="#m8ab18cc0d7" y="149.369802"/>
     <use style="fill:#ee7733;stroke:#ee7733;stroke-linejoin:bevel;" x="356.928496" xlink:href="#m8ab18cc0d7" y="164.646235"/>
     <use style="fill:#ee7733;stroke:#ee7733;stroke-linejoin:bevel;" x="374.953415" xlink:href="#m8ab18cc0d7" y="177.794532"/>
     <use style="fill:#ee7733;stroke:#ee7733;stroke-linejoin:bevel;" x="392.978334" xlink:href="#m8ab18cc0d7" y="171.61697"/>
     <use style="fill:#ee7733;stroke:#ee7733;stroke-linejoin:bevel;" x="411.003253" xlink:href="#m8ab18cc0d7" y="155.940277"/>
     <use style="fill:#ee7733;stroke:#ee7733;stroke-linejoin:bevel;" x="429.028173" xlink:href="#m8ab18cc0d7" y="152.622869"/>
     <use style="fill:#ee7733;stroke:#ee7733;stroke-linejoin:bevel;" x="447.053092" xlink:href="#m8ab18cc0d7" y="164.135496"/>
     <use style="fill:#ee7733;stroke:#ee7733;stroke-linejoin:bevel;" x="465.078011" xlink:href="#m8ab18cc0d7" y="168.934564"/>
    </g>
   </g>
   <g id="line2d_38"/>
   <g id="line2d_39"/>
   <g id="line2d_40"/>
   <g id="line2d_41"/>
   <g id="line2d_42">
    <path clip-path="url(#p0ba8de8938)" d="M 122.604545 324.949292 
L 124.407037 289.968741 
L 126.209529 352.065999 
L 128.012021 328.074527 
L 129.814513 321.017859 
L 131.617005 297.689428 
L 133.419497 313.194966 
L 135.221989 296.324476 
L 137.024481 283.356388 
L 138.826973 284.34643 
L 140.629465 282.959919 
L 142.431957 274.688426 
L 144.234449 267.797203 
L 146.03694 264.20886 
L 149.641924 258.806073 
L 151.444416 258.603185 
L 153.246908 252.196368 
L 155.0494 244.579365 
L 156.851892 239.6699 
L 158.654384 228.796101 
L 160.456876 230.286284 
L 162.259368 213.663676 
L 164.06186 216.770365 
L 165.864352 209.330195 
L 167.666844 207.518715 
L 169.469335 194.42032 
L 171.271827 190.882433 
L 173.074319 189.181231 
L 174.876811 181.754571 
L 176.679303 175.574314 
L 178.481795 171.76288 
L 180.284287 174.727885 
L 182.086779 174.811074 
L 183.889271 172.811174 
L 185.691763 169.20261 
L 187.494255 172.927499 
L 189.296747 174.633208 
L 192.901731 174.648692 
L 194.704222 181.827511 
L 196.506714 176.915692 
L 198.309206 176.966157 
L 200.111698 174.191051 
L 201.91419 174.142775 
L 203.716682 181.472302 
L 205.519174 183.320825 
L 207.321666 186.858712 
L 210.92665 186.788404 
L 212.729142 186.74542 
L 214.531634 190.451778 
L 216.334126 185.349223 
L 218.136617 183.422166 
L 219.939109 183.521952 
L 221.741601 190.677118 
L 223.544093 181.453989 
L 225.346585 177.957921 
L 227.149077 185.333665 
L 228.951569 183.372344 
L 230.754061 178.056039 
L 232.556553 175.90539 
L 236.161537 172.051955 
L 237.964029 172.043451 
L 239.766521 164.667933 
L 241.569012 164.723951 
L 243.371504 164.949007 
L 245.173996 164.994998 
L 246.976488 168.103145 
L 248.77898 171.539474 
L 250.581472 174.207413 
L 252.383964 175.323921 
L 254.186456 171.663434 
L 255.988948 172.173058 
L 257.79144 167.324608 
L 259.593932 169.521385 
L 261.396424 172.115835 
L 263.198916 170.912198 
L 265.001407 174.554653 
L 266.803899 177.379417 
L 268.606391 177.992358 
L 270.408883 182.833067 
L 274.013867 194.791272 
L 275.816359 200.364228 
L 277.618851 203.993455 
L 279.421343 206.26658 
L 281.223835 212.360798 
L 283.026327 211.314269 
L 284.828819 210.711845 
L 286.631311 211.685806 
L 288.433802 214.30933 
L 290.236294 219.686918 
L 292.038786 224.005174 
L 293.841278 227.512674 
L 295.64377 234.208323 
L 297.446262 239.184709 
L 299.248754 243.752758 
L 301.051246 250.696689 
L 302.853738 255.046744 
L 304.65623 257.510994 
L 306.458722 258.271939 
L 308.261214 252.261129 
L 310.063706 254.493633 
L 311.866198 252.850481 
L 313.668689 252.108918 
L 315.471181 252.594732 
L 317.273673 252.02748 
L 319.076165 257.166847 
L 320.878657 258.982638 
L 322.681149 258.995847 
L 324.483641 265.195715 
L 326.286133 276.213213 
L 328.088625 274.088246 
L 329.891117 280.197355 
L 331.693609 278.558143 
L 333.496101 281.53883 
L 335.298593 280.646645 
L 337.101084 282.522366 
L 338.903576 286.688929 
L 340.706068 293.837863 
L 342.50856 301.869736 
L 346.113544 309.772785 
L 347.916036 314.481425 
L 349.718528 325.007644 
L 351.52102 336.784079 
L 353.323512 339.918306 
L 355.126004 339.768838 
L 356.928496 341.422656 
L 358.730988 346.412277 
L 360.533479 342.114442 
L 362.335971 340.640355 
L 364.138463 343.882816 
L 365.940955 345.030564 
L 367.743447 344.809618 
L 369.545939 347.301858 
L 371.348431 346.511352 
L 374.953415 338.04851 
L 376.755907 331.860833 
L 378.558399 332.147696 
L 380.360891 326.417592 
L 382.163383 319.258216 
L 383.965874 319.303941 
L 385.768366 314.415277 
L 387.570858 306.053153 
L 389.37335 303.731384 
L 391.175842 303.018931 
L 392.978334 306.475826 
L 394.780826 299.070682 
L 396.583318 301.456754 
L 398.38581 297.110496 
L 400.188302 294.759119 
L 401.990794 291.200927 
L 403.793286 293.000882 
L 405.595778 284.033294 
L 407.398269 281.504912 
L 409.200761 282.316457 
L 411.003253 279.90897 
L 412.805745 284.607019 
L 414.608237 276.45047 
L 416.410729 275.695999 
L 418.213221 276.460978 
L 420.015713 279.799317 
L 423.620697 274.896734 
L 425.423189 278.269352 
L 427.225681 284.193201 
L 429.028173 283.27923 
L 430.830665 290.753529 
L 432.633156 294.994983 
L 434.435648 297.624142 
L 436.23814 304.136364 
L 438.040632 306.686017 
L 439.843124 303.207048 
L 441.645616 313.692721 
L 443.448108 317.796869 
L 445.2506 317.8069 
L 447.053092 316.914815 
L 448.855584 315.283515 
L 450.658076 323.36341 
L 452.460568 335.694847 
L 454.26306 338.123903 
L 456.065551 333.277515 
L 457.868043 334.719757 
L 459.670535 339.654604 
L 461.473027 337.956214 
L 463.275519 335.217329 
L 465.078011 333.580615 
L 466.880503 330.319836 
L 468.682995 324.440748 
L 470.485487 325.188139 
L 472.287979 317.697774 
L 474.090471 314.329275 
L 475.892963 316.917126 
L 477.695455 311.322865 
L 477.695455 311.322865 
" style="fill:none;stroke:#ee3377;stroke-dasharray:3.2,0.8,0.5,0.8;stroke-dashoffset:0;stroke-width:0.5;"/>
    <defs>
     <path d="M -1.25 2.5 
L 0 1.25 
L 1.25 2.5 
L 2.5 1.25 
L 1.25 0 
L 2.5 -1.25 
L 1.25 -2.5 
L 0 -1.25 
L -1.25 -2.5 
L -2.5 -1.25 
L -1.25 0 
L -2.5 1.25 
z
" id="m5bf77654c7" style="stroke:#ee3377;stroke-linejoin:miter;"/>
    </defs>
    <g clip-path="url(#p0ba8de8938)">
     <use style="fill:#ee3377;stroke:#ee3377;stroke-linejoin:miter;" x="122.604545" xlink:href="#m5bf77654c7" y="324.949292"/>
     <use style="fill:#ee3377;stroke:#ee3377;stroke-linejoin:miter;" x="140.629465" xlink:href="#m5bf77654c7" y="282.959919"/>
     <use style="fill:#ee3377;stroke:#ee3377;stroke-linejoin:miter;" x="158.654384" xlink:href="#m5bf77654c7" y="228.796101"/>
     <use style="fill:#ee3377;stroke:#ee3377;stroke-linejoin:miter;" x="176.679303" xlink:href="#m5bf77654c7" y="175.574314"/>
     <use style="fill:#ee3377;stroke:#ee3377;stroke-linejoin:miter;" x="194.704222" xlink:href="#m5bf77654c7" y="181.827511"/>
     <use style="fill:#ee3377;stroke:#ee3377;stroke-linejoin:miter;" x="212.729142" xlink:href="#m5bf77654c7" y="186.74542"/>
     <use style="fill:#ee3377;stroke:#ee3377;stroke-linejoin:miter;" x="230.754061" xlink:href="#m5bf77654c7" y="178.056039"/>
     <use style="fill:#ee3377;stroke:#ee3377;stroke-linejoin:miter;" x="248.77898" xlink:href="#m5bf77654c7" y="171.539474"/>
     <use style="fill:#ee3377;stroke:#ee3377;stroke-linejoin:miter;" x="266.803899" xlink:href="#m5bf77654c7" y="177.379417"/>
     <use style="fill:#ee3377;stroke:#ee3377;stroke-linejoin:miter;" x="284.828819" xlink:href="#m5bf77654c7" y="210.711845"/>
     <use style="fill:#ee3377;stroke:#ee3377;stroke-linejoin:miter;" x="302.853738" xlink:href="#m5bf77654c7" y="255.046744"/>
     <use style="fill:#ee3377;stroke:#ee3377;stroke-linejoin:miter;" x="320.878657" xlink:href="#m5bf77654c7" y="258.982638"/>
     <use style="fill:#ee3377;stroke:#ee3377;stroke-linejoin:miter;" x="338.903576" xlink:href="#m5bf77654c7" y="286.688929"/>
     <use style="fill:#ee3377;stroke:#ee3377;stroke-linejoin:miter;" x="356.928496" xlink:href="#m5bf77654c7" y="341.422656"/>
     <use style="fill:#ee3377;stroke:#ee3377;stroke-linejoin:miter;" x="374.953415" xlink:href="#m5bf77654c7" y="338.04851"/>
     <use style="fill:#ee3377;stroke:#ee3377;stroke-linejoin:miter;" x="392.978334" xlink:href="#m5bf77654c7" y="306.475826"/>
     <use style="fill:#ee3377;stroke:#ee3377;stroke-linejoin:miter;" x="411.003253" xlink:href="#m5bf77654c7" y="279.90897"/>
     <use style="fill:#ee3377;stroke:#ee3377;stroke-linejoin:miter;" x="429.028173" xlink:href="#m5bf77654c7" y="283.27923"/>
     <use style="fill:#ee3377;stroke:#ee3377;stroke-linejoin:miter;" x="447.053092" xlink:href="#m5bf77654c7" y="316.914815"/>
     <use style="fill:#ee3377;stroke:#ee3377;stroke-linejoin:miter;" x="465.078011" xlink:href="#m5bf77654c7" y="333.580615"/>
    </g>
   </g>
   <g id="line2d_43"/>
   <g id="line2d_44"/>
   <g id="line2d_45"/>
   <g id="line2d_46"/>
   <g id="line2d_47">
    <path clip-path="url(#p0ba8de8938)" d="M 243.371504 389.251812 
L 243.371504 112.051812 
" style="fill:none;stroke:#000000;stroke-dasharray:2.5,5;stroke-dashoffset:0;stroke-width:0.5;"/>
   </g>
   <g id="line2d_48">
    <path clip-path="url(#p0ba8de8938)" d="M 297.446262 389.251812 
L 297.446262 112.051812 
" style="fill:none;stroke:#000000;stroke-dasharray:2.5,5;stroke-dashoffset:0;stroke-width:0.5;"/>
   </g>
   <g id="patch_4">
    <path d="M 104.85 389.251813 
L 104.85 112.051813 
" style="fill:none;stroke:#000000;stroke-linecap:square;stroke-linejoin:miter;stroke-width:0.8;"/>
   </g>
   <g id="patch_5">
    <path d="M 495.45 389.251813 
L 495.45 112.051813 
" style="fill:none;stroke:#000000;stroke-linecap:square;stroke-linejoin:miter;stroke-width:0.8;"/>
   </g>
   <g id="patch_6">
    <path d="M 104.85 389.251812 
L 495.45 389.251812 
" style="fill:none;stroke:#000000;stroke-linecap:square;stroke-linejoin:miter;stroke-width:0.8;"/>
   </g>
   <g id="patch_7">
    <path d="M 104.85 112.051812 
L 495.45 112.051812 
" style="fill:none;stroke:#000000;stroke-linecap:square;stroke-linejoin:miter;stroke-width:0.8;"/>
   </g>
   <g id="legend_1">
    <g id="line2d_49"/>
    <g id="line2d_50"/>
    <g id="text_19">
     <!--   -->
     <g transform="translate(48.8 22.277969)scale(0.13 -0.13)">
      <use xlink:href="#DejaVuSans-32"/>
     </g>
    </g>
    <g id="line2d_51"/>
    <g id="line2d_52"/>
    <g id="text_20">
     <!-- start -->
     <g transform="translate(48.8 41.359531)scale(0.13 -0.13)">
      <use xlink:href="#DejaVuSans-115"/>
      <use x="52.099609" xlink:href="#DejaVuSans-116"/>
      <use x="91.308594" xlink:href="#DejaVuSans-97"/>
      <use x="152.587891" xlink:href="#DejaVuSans-114"/>
      <use x="193.701172" xlink:href="#DejaVuSans-116"/>
     </g>
    </g>
    <g id="line2d_53"/>
    <g id="line2d_54"/>
    <g id="text_21">
     <!-- pre-dirft -->
     <g transform="translate(48.8 60.441094)scale(0.13 -0.13)">
      <defs>
       <path d="M 4.890625 31.390625 
L 31.203125 31.390625 
L 31.203125 23.390625 
L 4.890625 23.390625 
z
" id="DejaVuSans-45"/>
      </defs>
      <use xlink:href="#DejaVuSans-112"/>
      <use x="63.476562" xlink:href="#DejaVuSans-114"/>
      <use x="102.339844" xlink:href="#DejaVuSans-101"/>
      <use x="163.863281" xlink:href="#DejaVuSans-45"/>
      <use x="199.947266" xlink:href="#DejaVuSans-100"/>
      <use x="263.423828" xlink:href="#DejaVuSans-105"/>
      <use x="291.207031" xlink:href="#DejaVuSans-114"/>
      <use x="332.320312" xlink:href="#DejaVuSans-102"/>
      <use x="365.775391" xlink:href="#DejaVuSans-116"/>
     </g>
    </g>
    <g id="line2d_55"/>
    <g id="line2d_56"/>
    <g id="text_22">
     <!-- post-drift -->
     <g transform="translate(48.8 79.522656)scale(0.13 -0.13)">
      <use xlink:href="#DejaVuSans-112"/>
      <use x="63.476562" xlink:href="#DejaVuSans-111"/>
      <use x="124.658203" xlink:href="#DejaVuSans-115"/>
      <use x="176.757812" xlink:href="#DejaVuSans-116"/>
      <use x="215.966797" xlink:href="#DejaVuSans-45"/>
      <use x="252.050781" xlink:href="#DejaVuSans-100"/>
      <use x="315.527344" xlink:href="#DejaVuSans-114"/>
      <use x="356.640625" xlink:href="#DejaVuSans-105"/>
      <use x="384.423828" xlink:href="#DejaVuSans-102"/>
      <use x="417.878906" xlink:href="#DejaVuSans-116"/>
     </g>
    </g>
    <g id="line2d_57"/>
    <g id="line2d_58"/>
    <g id="text_23">
     <!-- end -->
     <g transform="translate(48.8 98.604219)scale(0.13 -0.13)">
      <use xlink:href="#DejaVuSans-101"/>
      <use x="61.523438" xlink:href="#DejaVuSans-110"/>
      <use x="124.902344" xlink:href="#DejaVuSans-100"/>
     </g>
    </g>
    <g id="line2d_59">
     <path d="M 102.738313 17.727969 
L 128.738313 17.727969 
" style="fill:none;stroke:#cc3311;stroke-linecap:square;stroke-width:0.5;"/>
    </g>
    <g id="line2d_60">
     <g>
      <use style="fill:#cc3311;stroke:#cc3311;" x="115.738313" xlink:href="#m2ae0ea6078" y="17.727969"/>
     </g>
    </g>
    <g id="text_24">
     <!-- OB -->
     <g transform="translate(139.138313 22.277969)scale(0.13 -0.13)">
      <defs>
       <path d="M 39.40625 66.21875 
Q 28.65625 66.21875 22.328125 58.203125 
Q 16.015625 50.203125 16.015625 36.375 
Q 16.015625 22.609375 22.328125 14.59375 
Q 28.65625 6.59375 39.40625 6.59375 
Q 50.140625 6.59375 56.421875 14.59375 
Q 62.703125 22.609375 62.703125 36.375 
Q 62.703125 50.203125 56.421875 58.203125 
Q 50.140625 66.21875 39.40625 66.21875 
z
M 39.40625 74.21875 
Q 54.734375 74.21875 63.90625 63.9375 
Q 73.09375 53.65625 73.09375 36.375 
Q 73.09375 19.140625 63.90625 8.859375 
Q 54.734375 -1.421875 39.40625 -1.421875 
Q 24.03125 -1.421875 14.8125 8.828125 
Q 5.609375 19.09375 5.609375 36.375 
Q 5.609375 53.65625 14.8125 63.9375 
Q 24.03125 74.21875 39.40625 74.21875 
z
" id="DejaVuSans-79"/>
       <path d="M 19.671875 34.8125 
L 19.671875 8.109375 
L 35.5 8.109375 
Q 43.453125 8.109375 47.28125 11.40625 
Q 51.125 14.703125 51.125 21.484375 
Q 51.125 28.328125 47.28125 31.5625 
Q 43.453125 34.8125 35.5 34.8125 
z
M 19.671875 64.796875 
L 19.671875 42.828125 
L 34.28125 42.828125 
Q 41.5 42.828125 45.03125 45.53125 
Q 48.578125 48.25 48.578125 53.8125 
Q 48.578125 59.328125 45.03125 62.0625 
Q 41.5 64.796875 34.28125 64.796875 
z
M 9.8125 72.90625 
L 35.015625 72.90625 
Q 46.296875 72.90625 52.390625 68.21875 
Q 58.5 63.53125 58.5 54.890625 
Q 58.5 48.1875 55.375 44.234375 
Q 52.25 40.28125 46.1875 39.3125 
Q 53.46875 37.75 57.5 32.78125 
Q 61.53125 27.828125 61.53125 20.40625 
Q 61.53125 10.640625 54.890625 5.3125 
Q 48.25 0 35.984375 0 
L 9.8125 0 
z
" id="DejaVuSans-66"/>
      </defs>
      <use xlink:href="#DejaVuSans-79"/>
      <use x="78.710938" xlink:href="#DejaVuSans-66"/>
     </g>
    </g>
    <g id="line2d_61"/>
    <g id="line2d_62"/>
    <g id="text_25">
     <!-- 0.9853 -->
     <g transform="translate(139.138313 41.359531)scale(0.13 -0.13)">
      <defs>
       <path d="M 40.578125 39.3125 
Q 47.65625 37.796875 51.625 33 
Q 55.609375 28.21875 55.609375 21.1875 
Q 55.609375 10.40625 48.1875 4.484375 
Q 40.765625 -1.421875 27.09375 -1.421875 
Q 22.515625 -1.421875 17.65625 -0.515625 
Q 12.796875 0.390625 7.625 2.203125 
L 7.625 11.71875 
Q 11.71875 9.328125 16.59375 8.109375 
Q 21.484375 6.890625 26.8125 6.890625 
Q 36.078125 6.890625 40.9375 10.546875 
Q 45.796875 14.203125 45.796875 21.1875 
Q 45.796875 27.640625 41.28125 31.265625 
Q 36.765625 34.90625 28.71875 34.90625 
L 20.21875 34.90625 
L 20.21875 43.015625 
L 29.109375 43.015625 
Q 36.375 43.015625 40.234375 45.921875 
Q 44.09375 48.828125 44.09375 54.296875 
Q 44.09375 59.90625 40.109375 62.90625 
Q 36.140625 65.921875 28.71875 65.921875 
Q 24.65625 65.921875 20.015625 65.03125 
Q 15.375 64.15625 9.8125 62.3125 
L 9.8125 71.09375 
Q 15.4375 72.65625 20.34375 73.4375 
Q 25.25 74.21875 29.59375 74.21875 
Q 40.828125 74.21875 47.359375 69.109375 
Q 53.90625 64.015625 53.90625 55.328125 
Q 53.90625 49.265625 50.4375 45.09375 
Q 46.96875 40.921875 40.578125 39.3125 
z
" id="DejaVuSans-51"/>
      </defs>
      <use xlink:href="#DejaVuSans-48"/>
      <use x="63.623047" xlink:href="#DejaVuSans-46"/>
      <use x="95.410156" xlink:href="#DejaVuSans-57"/>
      <use x="159.033203" xlink:href="#DejaVuSans-56"/>
      <use x="222.65625" xlink:href="#DejaVuSans-53"/>
      <use x="286.279297" xlink:href="#DejaVuSans-51"/>
     </g>
    </g>
    <g id="line2d_63"/>
    <g id="line2d_64"/>
    <g id="text_26">
     <!-- 0.9935 -->
     <g transform="translate(139.138313 60.441094)scale(0.13 -0.13)">
      <use xlink:href="#DejaVuSans-48"/>
      <use x="63.623047" xlink:href="#DejaVuSans-46"/>
      <use x="95.410156" xlink:href="#DejaVuSans-57"/>
      <use x="159.033203" xlink:href="#DejaVuSans-57"/>
      <use x="222.65625" xlink:href="#DejaVuSans-51"/>
      <use x="286.279297" xlink:href="#DejaVuSans-53"/>
     </g>
    </g>
    <g id="line2d_65"/>
    <g id="line2d_66"/>
    <g id="text_27">
     <!-- 0.9928 -->
     <g transform="translate(139.138313 79.522656)scale(0.13 -0.13)">
      <use xlink:href="#DejaVuSans-48"/>
      <use x="63.623047" xlink:href="#DejaVuSans-46"/>
      <use x="95.410156" xlink:href="#DejaVuSans-57"/>
      <use x="159.033203" xlink:href="#DejaVuSans-57"/>
      <use x="222.65625" xlink:href="#DejaVuSans-50"/>
      <use x="286.279297" xlink:href="#DejaVuSans-56"/>
     </g>
    </g>
    <g id="line2d_67"/>
    <g id="line2d_68"/>
    <g id="text_28">
     <!-- 0.9988 -->
     <g transform="translate(139.138313 98.604219)scale(0.13 -0.13)">
      <use xlink:href="#DejaVuSans-48"/>
      <use x="63.623047" xlink:href="#DejaVuSans-46"/>
      <use x="95.410156" xlink:href="#DejaVuSans-57"/>
      <use x="159.033203" xlink:href="#DejaVuSans-57"/>
      <use x="222.65625" xlink:href="#DejaVuSans-56"/>
      <use x="286.279297" xlink:href="#DejaVuSans-56"/>
     </g>
    </g>
    <g id="line2d_69">
     <path d="M 179.144281 17.727969 
L 205.144281 17.727969 
" style="fill:none;stroke:#009988;stroke-dasharray:1.85,0.8;stroke-dashoffset:0;stroke-width:0.5;"/>
    </g>
    <g id="line2d_70">
     <g>
      <use style="fill:#009988;stroke:#009988;stroke-linejoin:miter;" x="192.144281" xlink:href="#m6b898a5a5f" y="17.727969"/>
     </g>
    </g>
    <g id="text_29">
     <!-- UOB -->
     <g transform="translate(215.544281 22.277969)scale(0.13 -0.13)">
      <defs>
       <path d="M 8.6875 72.90625 
L 18.609375 72.90625 
L 18.609375 28.609375 
Q 18.609375 16.890625 22.84375 11.734375 
Q 27.09375 6.59375 36.625 6.59375 
Q 46.09375 6.59375 50.34375 11.734375 
Q 54.59375 16.890625 54.59375 28.609375 
L 54.59375 72.90625 
L 64.5 72.90625 
L 64.5 27.390625 
Q 64.5 13.140625 57.4375 5.859375 
Q 50.390625 -1.421875 36.625 -1.421875 
Q 22.796875 -1.421875 15.734375 5.859375 
Q 8.6875 13.140625 8.6875 27.390625 
z
" id="DejaVuSans-85"/>
      </defs>
      <use xlink:href="#DejaVuSans-85"/>
      <use x="73.193359" xlink:href="#DejaVuSans-79"/>
      <use x="151.904297" xlink:href="#DejaVuSans-66"/>
     </g>
    </g>
    <g id="line2d_71"/>
    <g id="line2d_72"/>
    <g id="text_30">
     <!-- 0.9853 -->
     <g transform="translate(215.544281 41.359531)scale(0.13 -0.13)">
      <use xlink:href="#DejaVuSans-48"/>
      <use x="63.623047" xlink:href="#DejaVuSans-46"/>
      <use x="95.410156" xlink:href="#DejaVuSans-57"/>
      <use x="159.033203" xlink:href="#DejaVuSans-56"/>
      <use x="222.65625" xlink:href="#DejaVuSans-53"/>
      <use x="286.279297" xlink:href="#DejaVuSans-51"/>
     </g>
    </g>
    <g id="line2d_73"/>
    <g id="line2d_74"/>
    <g id="text_31">
     <!-- 0.9952 -->
     <g transform="translate(215.544281 60.441094)scale(0.13 -0.13)">
      <use xlink:href="#DejaVuSans-48"/>
      <use x="63.623047" xlink:href="#DejaVuSans-46"/>
      <use x="95.410156" xlink:href="#DejaVuSans-57"/>
      <use x="159.033203" xlink:href="#DejaVuSans-57"/>
      <use x="222.65625" xlink:href="#DejaVuSans-53"/>
      <use x="286.279297" xlink:href="#DejaVuSans-50"/>
     </g>
    </g>
    <g id="line2d_75"/>
    <g id="line2d_76"/>
    <g id="text_32">
     <!-- 0.9944 -->
     <g transform="translate(215.544281 79.522656)scale(0.13 -0.13)">
      <defs>
       <path d="M 37.796875 64.3125 
L 12.890625 25.390625 
L 37.796875 25.390625 
z
M 35.203125 72.90625 
L 47.609375 72.90625 
L 47.609375 25.390625 
L 58.015625 25.390625 
L 58.015625 17.1875 
L 47.609375 17.1875 
L 47.609375 0 
L 37.796875 0 
L 37.796875 17.1875 
L 4.890625 17.1875 
L 4.890625 26.703125 
z
" id="DejaVuSans-52"/>
      </defs>
      <use xlink:href="#DejaVuSans-48"/>
      <use x="63.623047" xlink:href="#DejaVuSans-46"/>
      <use x="95.410156" xlink:href="#DejaVuSans-57"/>
      <use x="159.033203" xlink:href="#DejaVuSans-57"/>
      <use x="222.65625" xlink:href="#DejaVuSans-52"/>
      <use x="286.279297" xlink:href="#DejaVuSans-52"/>
     </g>
    </g>
    <g id="line2d_77"/>
    <g id="line2d_78"/>
    <g id="text_33">
     <!-- 0.9949 -->
     <g transform="translate(215.544281 98.604219)scale(0.13 -0.13)">
      <use xlink:href="#DejaVuSans-48"/>
      <use x="63.623047" xlink:href="#DejaVuSans-46"/>
      <use x="95.410156" xlink:href="#DejaVuSans-57"/>
      <use x="159.033203" xlink:href="#DejaVuSans-57"/>
      <use x="222.65625" xlink:href="#DejaVuSans-52"/>
      <use x="286.279297" xlink:href="#DejaVuSans-57"/>
     </g>
    </g>
    <g id="line2d_79">
     <path d="M 255.55025 17.727969 
L 281.55025 17.727969 
" style="fill:none;stroke:#0077bb;stroke-dasharray:3.2,0.8,0.5,0.8;stroke-dashoffset:0;stroke-width:0.5;"/>
    </g>
    <g id="line2d_80">
     <g>
      <use style="fill:#0077bb;stroke:#0077bb;stroke-linejoin:miter;" x="268.55025" xlink:href="#m6527ed5ab7" y="17.727969"/>
     </g>
    </g>
    <g id="text_34">
     <!-- OOB -->
     <g transform="translate(291.95025 22.277969)scale(0.13 -0.13)">
      <use xlink:href="#DejaVuSans-79"/>
      <use x="78.710938" xlink:href="#DejaVuSans-79"/>
      <use x="157.421875" xlink:href="#DejaVuSans-66"/>
     </g>
    </g>
    <g id="line2d_81"/>
    <g id="line2d_82"/>
    <g id="text_35">
     <!-- 0.9853 -->
     <g transform="translate(291.95025 41.359531)scale(0.13 -0.13)">
      <use xlink:href="#DejaVuSans-48"/>
      <use x="63.623047" xlink:href="#DejaVuSans-46"/>
      <use x="95.410156" xlink:href="#DejaVuSans-57"/>
      <use x="159.033203" xlink:href="#DejaVuSans-56"/>
      <use x="222.65625" xlink:href="#DejaVuSans-53"/>
      <use x="286.279297" xlink:href="#DejaVuSans-51"/>
     </g>
    </g>
    <g id="line2d_83"/>
    <g id="line2d_84"/>
    <g id="text_36">
     <!-- 0.9950 -->
     <g transform="translate(291.95025 60.441094)scale(0.13 -0.13)">
      <use xlink:href="#DejaVuSans-48"/>
      <use x="63.623047" xlink:href="#DejaVuSans-46"/>
      <use x="95.410156" xlink:href="#DejaVuSans-57"/>
      <use x="159.033203" xlink:href="#DejaVuSans-57"/>
      <use x="222.65625" xlink:href="#DejaVuSans-53"/>
      <use x="286.279297" xlink:href="#DejaVuSans-48"/>
     </g>
    </g>
    <g id="line2d_85"/>
    <g id="line2d_86"/>
    <g id="text_37">
     <!-- 0.9938 -->
     <g transform="translate(291.95025 79.522656)scale(0.13 -0.13)">
      <use xlink:href="#DejaVuSans-48"/>
      <use x="63.623047" xlink:href="#DejaVuSans-46"/>
      <use x="95.410156" xlink:href="#DejaVuSans-57"/>
      <use x="159.033203" xlink:href="#DejaVuSans-57"/>
      <use x="222.65625" xlink:href="#DejaVuSans-51"/>
      <use x="286.279297" xlink:href="#DejaVuSans-56"/>
     </g>
    </g>
    <g id="line2d_87"/>
    <g id="line2d_88"/>
    <g id="text_38">
     <!-- 0.9969 -->
     <g transform="translate(291.95025 98.604219)scale(0.13 -0.13)">
      <defs>
       <path d="M 33.015625 40.375 
Q 26.375 40.375 22.484375 35.828125 
Q 18.609375 31.296875 18.609375 23.390625 
Q 18.609375 15.53125 22.484375 10.953125 
Q 26.375 6.390625 33.015625 6.390625 
Q 39.65625 6.390625 43.53125 10.953125 
Q 47.40625 15.53125 47.40625 23.390625 
Q 47.40625 31.296875 43.53125 35.828125 
Q 39.65625 40.375 33.015625 40.375 
z
M 52.59375 71.296875 
L 52.59375 62.3125 
Q 48.875 64.0625 45.09375 64.984375 
Q 41.3125 65.921875 37.59375 65.921875 
Q 27.828125 65.921875 22.671875 59.328125 
Q 17.53125 52.734375 16.796875 39.40625 
Q 19.671875 43.65625 24.015625 45.921875 
Q 28.375 48.1875 33.59375 48.1875 
Q 44.578125 48.1875 50.953125 41.515625 
Q 57.328125 34.859375 57.328125 23.390625 
Q 57.328125 12.15625 50.6875 5.359375 
Q 44.046875 -1.421875 33.015625 -1.421875 
Q 20.359375 -1.421875 13.671875 8.265625 
Q 6.984375 17.96875 6.984375 36.375 
Q 6.984375 53.65625 15.1875 63.9375 
Q 23.390625 74.21875 37.203125 74.21875 
Q 40.921875 74.21875 44.703125 73.484375 
Q 48.484375 72.75 52.59375 71.296875 
z
" id="DejaVuSans-54"/>
      </defs>
      <use xlink:href="#DejaVuSans-48"/>
      <use x="63.623047" xlink:href="#DejaVuSans-46"/>
      <use x="95.410156" xlink:href="#DejaVuSans-57"/>
      <use x="159.033203" xlink:href="#DejaVuSans-57"/>
      <use x="222.65625" xlink:href="#DejaVuSans-54"/>
      <use x="286.279297" xlink:href="#DejaVuSans-57"/>
     </g>
    </g>
    <g id="line2d_89">
     <path d="M 331.956219 17.727969 
L 357.956219 17.727969 
" style="fill:none;stroke:#ee7733;stroke-dasharray:0.5,0.825;stroke-dashoffset:0;stroke-width:0.5;"/>
    </g>
    <g id="line2d_90">
     <g>
      <use style="fill:#ee7733;stroke:#ee7733;stroke-linejoin:bevel;" x="344.956219" xlink:href="#m8ab18cc0d7" y="17.727969"/>
     </g>
    </g>
    <g id="text_39">
     <!-- NUOB -->
     <g transform="translate(368.356219 22.277969)scale(0.13 -0.13)">
      <use xlink:href="#DejaVuSans-78"/>
      <use x="74.804688" xlink:href="#DejaVuSans-85"/>
      <use x="147.998047" xlink:href="#DejaVuSans-79"/>
      <use x="226.708984" xlink:href="#DejaVuSans-66"/>
     </g>
    </g>
    <g id="line2d_91"/>
    <g id="line2d_92"/>
    <g id="text_40">
     <!-- 0.9877 -->
     <g transform="translate(368.356219 41.359531)scale(0.13 -0.13)">
      <use xlink:href="#DejaVuSans-48"/>
      <use x="63.623047" xlink:href="#DejaVuSans-46"/>
      <use x="95.410156" xlink:href="#DejaVuSans-57"/>
      <use x="159.033203" xlink:href="#DejaVuSans-56"/>
      <use x="222.65625" xlink:href="#DejaVuSans-55"/>
      <use x="286.279297" xlink:href="#DejaVuSans-55"/>
     </g>
    </g>
    <g id="line2d_93"/>
    <g id="line2d_94"/>
    <g id="text_41">
     <!-- 0.9980 -->
     <g transform="translate(368.356219 60.441094)scale(0.13 -0.13)">
      <use xlink:href="#DejaVuSans-48"/>
      <use x="63.623047" xlink:href="#DejaVuSans-46"/>
      <use x="95.410156" xlink:href="#DejaVuSans-57"/>
      <use x="159.033203" xlink:href="#DejaVuSans-57"/>
      <use x="222.65625" xlink:href="#DejaVuSans-56"/>
      <use x="286.279297" xlink:href="#DejaVuSans-48"/>
     </g>
    </g>
    <g id="line2d_95"/>
    <g id="line2d_96"/>
    <g id="text_42">
     <!-- 0.9969 -->
     <g transform="translate(368.356219 79.522656)scale(0.13 -0.13)">
      <use xlink:href="#DejaVuSans-48"/>
      <use x="63.623047" xlink:href="#DejaVuSans-46"/>
      <use x="95.410156" xlink:href="#DejaVuSans-57"/>
      <use x="159.033203" xlink:href="#DejaVuSans-57"/>
      <use x="222.65625" xlink:href="#DejaVuSans-54"/>
      <use x="286.279297" xlink:href="#DejaVuSans-57"/>
     </g>
    </g>
    <g id="line2d_97"/>
    <g id="line2d_98"/>
    <g id="text_43">
     <!-- 0.9965 -->
     <g transform="translate(368.356219 98.604219)scale(0.13 -0.13)">
      <use xlink:href="#DejaVuSans-48"/>
      <use x="63.623047" xlink:href="#DejaVuSans-46"/>
      <use x="95.410156" xlink:href="#DejaVuSans-57"/>
      <use x="159.033203" xlink:href="#DejaVuSans-57"/>
      <use x="222.65625" xlink:href="#DejaVuSans-54"/>
      <use x="286.279297" xlink:href="#DejaVuSans-53"/>
     </g>
    </g>
    <g id="line2d_99">
     <path d="M 408.362188 17.727969 
L 434.362188 17.727969 
" style="fill:none;stroke:#ee3377;stroke-dasharray:3.2,0.8,0.5,0.8;stroke-dashoffset:0;stroke-width:0.5;"/>
    </g>
    <g id="line2d_100">
     <g>
      <use style="fill:#ee3377;stroke:#ee3377;stroke-linejoin:miter;" x="421.362188" xlink:href="#m5bf77654c7" y="17.727969"/>
     </g>
    </g>
    <g id="text_44">
     <!-- NOOB -->
     <g transform="translate(444.762188 22.277969)scale(0.13 -0.13)">
      <use xlink:href="#DejaVuSans-78"/>
      <use x="74.804688" xlink:href="#DejaVuSans-79"/>
      <use x="153.515625" xlink:href="#DejaVuSans-79"/>
      <use x="232.226562" xlink:href="#DejaVuSans-66"/>
     </g>
    </g>
    <g id="line2d_101"/>
    <g id="line2d_102"/>
    <g id="text_45">
     <!-- 0.9853 -->
     <g transform="translate(444.762188 41.359531)scale(0.13 -0.13)">
      <use xlink:href="#DejaVuSans-48"/>
      <use x="63.623047" xlink:href="#DejaVuSans-46"/>
      <use x="95.410156" xlink:href="#DejaVuSans-57"/>
      <use x="159.033203" xlink:href="#DejaVuSans-56"/>
      <use x="222.65625" xlink:href="#DejaVuSans-53"/>
      <use x="286.279297" xlink:href="#DejaVuSans-51"/>
     </g>
    </g>
    <g id="line2d_103"/>
    <g id="line2d_104"/>
    <g id="text_46">
     <!-- 0.9961 -->
     <g transform="translate(444.762188 60.441094)scale(0.13 -0.13)">
      <use xlink:href="#DejaVuSans-48"/>
      <use x="63.623047" xlink:href="#DejaVuSans-46"/>
      <use x="95.410156" xlink:href="#DejaVuSans-57"/>
      <use x="159.033203" xlink:href="#DejaVuSans-57"/>
      <use x="222.65625" xlink:href="#DejaVuSans-54"/>
      <use x="286.279297" xlink:href="#DejaVuSans-49"/>
     </g>
    </g>
    <g id="line2d_105"/>
    <g id="line2d_106"/>
    <g id="text_47">
     <!-- 0.9911 -->
     <g transform="translate(444.762188 79.522656)scale(0.13 -0.13)">
      <use xlink:href="#DejaVuSans-48"/>
      <use x="63.623047" xlink:href="#DejaVuSans-46"/>
      <use x="95.410156" xlink:href="#DejaVuSans-57"/>
      <use x="159.033203" xlink:href="#DejaVuSans-57"/>
      <use x="222.65625" xlink:href="#DejaVuSans-49"/>
      <use x="286.279297" xlink:href="#DejaVuSans-49"/>
     </g>
    </g>
    <g id="line2d_107"/>
    <g id="line2d_108"/>
    <g id="text_48">
     <!-- 0.9862 -->
     <g transform="translate(444.762188 98.604219)scale(0.13 -0.13)">
      <use xlink:href="#DejaVuSans-48"/>
      <use x="63.623047" xlink:href="#DejaVuSans-46"/>
      <use x="95.410156" xlink:href="#DejaVuSans-57"/>
      <use x="159.033203" xlink:href="#DejaVuSans-56"/>
      <use x="222.65625" xlink:href="#DejaVuSans-54"/>
      <use x="286.279297" xlink:href="#DejaVuSans-50"/>
     </g>
    </g>
   </g>
  </g>
 </g>
 <defs>
  <clipPath id="p0ba8de8938">
   <rect height="277.2" width="390.6" x="104.85" y="112.051812"/>
  </clipPath>
 </defs>
</svg>
